<?xml version="1.0" encoding="UTF-8" standalone="no"?>
<svg xmlns:ffdec="https://www.free-decompiler.com/flash" xmlns:xlink="http://www.w3.org/1999/xlink" ffdec:objectType="morphshape" height="89.8px" width="36.95px" xmlns="http://www.w3.org/2000/svg">
  <g transform="matrix(1.0, 0.0, 0.0, 1.0, 18.5, 45.2)">
    <path d="M-16.95 29.35 Q-15.4 32.6 -13.75 34.85 -12.55 36.45 -6.75 41.5 -0.95 46.45 12.5 37.55 14.85 34.1 15.1 32.1 20.95 20.55 16.65 10.55 15.7 6.35 13.6 1.35 6.65 -6.75 3.05 -8.5 L-2.85 -45.2 -5.4 -8.05 -6.55 -7.4 Q-9.6 -5.6 -11.55 0.4 -14.0 2.65 -15.4 6.25 -20.65 18.45 -16.95 29.35" fill="#23141b" fill-rule="evenodd" stroke="none">
      <animate attributeName="fill" dur="2s" repeatCount="indefinite" values="#23141b;#23141c"/>
      <animate attributeName="fill-opacity" dur="2s" repeatCount="indefinite" values="1.0;1.0"/>
      <animate attributeName="d" dur="2s" repeatCount="indefinite" values="M-16.95 29.35 Q-15.4 32.6 -13.75 34.85 -12.55 36.45 -6.75 41.5 -0.95 46.45 12.5 37.55 14.85 34.1 15.1 32.1 20.95 20.55 16.65 10.55 15.7 6.35 13.6 1.35 6.65 -6.75 3.05 -8.5 L-2.85 -45.2 -5.4 -8.05 -6.55 -7.4 Q-9.6 -5.6 -11.55 0.4 -14.0 2.65 -15.4 6.25 -20.65 18.45 -16.95 29.35;M-16.95 30.7 Q-15.4 33.95 -13.75 36.2 -12.55 37.8 -6.75 42.85 -0.95 47.8 12.5 38.9 14.85 35.45 15.1 33.45 20.95 21.9 16.65 11.9 15.7 7.7 13.6 2.7 6.65 -5.4 3.05 -7.15 L-2.85 -43.85 -5.4 -6.7 -6.55 -6.05 Q-9.6 -4.25 -11.55 1.75 -14.0 4.0 -15.4 7.6 -20.65 19.8 -16.95 30.7"/>
    </path>
    <path d="M-16.95 29.35 Q-20.65 18.45 -15.4 6.25 -14.0 2.65 -11.55 0.4 -9.6 -5.6 -6.55 -7.4 L-5.4 -8.05 -2.85 -45.2 3.05 -8.5 Q6.65 -6.75 13.6 1.35 15.7 6.35 16.65 10.55 20.95 20.55 15.1 32.1 14.85 34.1 12.5 37.55 -0.95 46.45 -6.75 41.5 -12.55 36.45 -13.75 34.85 -15.4 32.6 -16.95 29.35 Z" fill="none" stroke="#000000" stroke-linecap="round" stroke-linejoin="round" stroke-opacity="0.0" stroke-width="0.0">
      <animate attributeName="stroke" dur="2s" repeatCount="indefinite" values="#000000;#000001"/>
      <animate attributeName="stroke-width" dur="2s" repeatCount="indefinite" values="0.0;0.0"/>
      <animate attributeName="fill-opacity" dur="2s" repeatCount="indefinite" values="0.0;0.0"/>
      <animate attributeName="d" dur="2s" repeatCount="indefinite" values="M-16.95 29.35 Q-20.65 18.45 -15.4 6.25 -14.0 2.65 -11.55 0.4 -9.6 -5.6 -6.55 -7.4 L-5.4 -8.05 -2.85 -45.2 3.05 -8.5 Q6.65 -6.75 13.6 1.35 15.7 6.35 16.65 10.55 20.95 20.55 15.1 32.1 14.85 34.1 12.5 37.55 -0.95 46.45 -6.75 41.5 -12.55 36.45 -13.75 34.85 -15.4 32.6 -16.95 29.35 Z;M-16.95 30.7 Q-20.65 19.8 -15.4 7.6 -14.0 4.0 -11.55 1.75 -9.6 -4.25 -6.55 -6.05 L-5.4 -6.7 -2.85 -43.85 3.05 -7.15 Q6.65 -5.4 13.6 2.7 15.7 7.7 16.65 11.9 20.95 21.9 15.1 33.45 14.85 35.45 12.5 38.9 -0.95 47.8 -6.75 42.85 -12.55 37.8 -13.75 36.2 -15.4 33.95 -16.95 30.7 Z"/>
    </path>
  </g>
</svg>
