<?xml version="1.0" encoding="UTF-8" standalone="no"?>
<svg xmlns:ffdec="https://www.free-decompiler.com/flash" xmlns:xlink="http://www.w3.org/1999/xlink" ffdec:objectType="morphshape" height="90.95px" width="36.95px" xmlns="http://www.w3.org/2000/svg">
  <g transform="matrix(1.0, 0.0, 0.0, 1.0, 18.5, 46.35)">
    <path d="M-16.95 30.7 Q-15.4 33.95 -13.75 36.2 -12.55 37.8 -6.75 42.85 -0.95 47.8 12.5 38.9 14.85 35.45 15.1 33.45 20.95 21.9 16.65 11.9 15.7 7.7 13.6 2.7 6.65 -5.4 3.05 -7.15 L-2.85 -43.85 -5.4 -6.7 -6.55 -6.05 Q-9.6 -4.25 -11.55 1.75 -14.0 4.0 -15.4 7.6 -20.65 19.8 -16.95 30.7" fill="#23141b" fill-rule="evenodd" stroke="none">
      <animate attributeName="fill" dur="2s" repeatCount="indefinite" values="#23141b;#23141c"/>
      <animate attributeName="fill-opacity" dur="2s" repeatCount="indefinite" values="1.0;1.0"/>
      <animate attributeName="d" dur="2s" repeatCount="indefinite" values="M-16.95 30.7 Q-15.4 33.95 -13.75 36.2 -12.55 37.8 -6.75 42.85 -0.95 47.8 12.5 38.9 14.85 35.45 15.1 33.45 20.95 21.9 16.65 11.9 15.7 7.7 13.6 2.7 6.65 -5.4 3.05 -7.15 L-2.85 -43.85 -5.4 -6.7 -6.55 -6.05 Q-9.6 -4.25 -11.55 1.75 -14.0 4.0 -15.4 7.6 -20.65 19.8 -16.95 30.7;M-16.95 28.2 Q-15.4 31.45 -13.75 33.7 -12.55 35.3 -6.75 40.35 -0.95 45.3 12.5 36.4 14.85 32.95 15.1 30.95 20.95 19.4 16.65 9.4 15.7 5.2 13.6 0.2 6.65 -7.9 3.05 -9.65 L-2.85 -46.35 -5.4 -9.2 -6.55 -8.55 Q-9.6 -6.75 -11.55 -0.75 -14.0 1.5 -15.4 5.1 -20.65 17.3 -16.95 28.2"/>
    </path>
    <path d="M-16.95 30.7 Q-20.65 19.8 -15.4 7.6 -14.0 4.0 -11.55 1.75 -9.6 -4.25 -6.55 -6.05 L-5.4 -6.7 -2.85 -43.85 3.05 -7.15 Q6.65 -5.4 13.6 2.7 15.7 7.7 16.65 11.9 20.95 21.9 15.1 33.45 14.85 35.45 12.5 38.9 -0.95 47.8 -6.75 42.85 -12.55 37.8 -13.75 36.2 -15.4 33.95 -16.95 30.7 Z" fill="none" stroke="#000000" stroke-linecap="round" stroke-linejoin="round" stroke-opacity="0.0" stroke-width="0.0">
      <animate attributeName="stroke" dur="2s" repeatCount="indefinite" values="#000000;#000001"/>
      <animate attributeName="stroke-width" dur="2s" repeatCount="indefinite" values="0.0;0.0"/>
      <animate attributeName="fill-opacity" dur="2s" repeatCount="indefinite" values="0.0;0.0"/>
      <animate attributeName="d" dur="2s" repeatCount="indefinite" values="M-16.95 30.7 Q-20.65 19.8 -15.4 7.6 -14.0 4.0 -11.55 1.75 -9.6 -4.25 -6.55 -6.05 L-5.4 -6.7 -2.85 -43.85 3.05 -7.15 Q6.65 -5.4 13.6 2.7 15.7 7.7 16.65 11.9 20.95 21.9 15.1 33.45 14.85 35.45 12.5 38.9 -0.95 47.8 -6.75 42.85 -12.55 37.8 -13.75 36.2 -15.4 33.95 -16.95 30.7 Z;M-16.95 28.2 Q-20.65 17.3 -15.4 5.1 -14.0 1.5 -11.55 -0.75 -9.6 -6.75 -6.55 -8.55 L-5.4 -9.2 -2.85 -46.35 3.05 -9.65 Q6.65 -7.9 13.6 0.2 15.7 5.2 16.65 9.4 20.95 19.4 15.1 30.95 14.85 32.95 12.5 36.4 -0.95 45.3 -6.75 40.35 -12.55 35.3 -13.75 33.7 -15.4 31.45 -16.95 28.2 Z"/>
    </path>
  </g>
</svg>
