<?xml version="1.0" encoding="UTF-8" standalone="no"?>
<svg xmlns:ffdec="https://www.free-decompiler.com/flash" xmlns:xlink="http://www.w3.org/1999/xlink" ffdec:objectType="morphshape" height="88.5px" width="49.55px" xmlns="http://www.w3.org/2000/svg">
  <g transform="matrix(1.0, 0.0, 0.0, 1.0, 24.85, 46.35)">
    <path d="M-16.95 28.2 L-16.95 28.2 Q-15.4 31.45 -13.75 33.7 -12.55 35.3 -6.75 40.35 -2.65 43.85 5.2 40.5 8.5 39.05 12.5 36.4 14.85 32.95 15.1 30.95 18.45 24.35 18.5 18.3 18.5 13.7 16.65 9.4 15.7 5.2 13.6 0.2 8.05 -6.25 4.65 -8.7 L3.05 -9.65 Q2.5 -12.95 1.95 -16.25 1.2 -21.1 0.45 -25.95 L-2.85 -46.35 -3.45 -37.15 Q-3.75 -33.0 -4.05 -28.9 -4.35 -24.85 -4.6 -20.8 L-5.4 -9.2 -5.75 -9.0 -6.55 -8.55 Q-8.6 -7.4 -10.1 -4.35 -10.7 -2.95 -11.25 -1.55 L-11.55 -0.75 Q-14.0 1.5 -15.4 5.1 -20.65 17.3 -16.95 28.2" fill="#23141b" fill-rule="evenodd" stroke="none">
      <animate attributeName="fill" dur="2s" repeatCount="indefinite" values="#23141b;#23141c"/>
      <animate attributeName="fill-opacity" dur="2s" repeatCount="indefinite" values="1.0;1.0"/>
      <animate attributeName="d" dur="2s" repeatCount="indefinite" values="M-16.95 28.2 L-16.95 28.2 Q-15.4 31.45 -13.75 33.7 -12.55 35.3 -6.75 40.35 -2.65 43.85 5.2 40.5 8.5 39.05 12.5 36.4 14.85 32.95 15.1 30.95 18.45 24.35 18.5 18.3 18.5 13.7 16.65 9.4 15.7 5.2 13.6 0.2 8.05 -6.25 4.65 -8.7 L3.05 -9.65 Q2.5 -12.95 1.95 -16.25 1.2 -21.1 0.45 -25.95 L-2.85 -46.35 -3.45 -37.15 Q-3.75 -33.0 -4.05 -28.9 -4.35 -24.85 -4.6 -20.8 L-5.4 -9.2 -5.75 -9.0 -6.55 -8.55 Q-8.6 -7.4 -10.1 -4.35 -10.7 -2.95 -11.25 -1.55 L-11.55 -0.75 Q-14.0 1.5 -15.4 5.1 -20.65 17.3 -16.95 28.2;M-21.95 23.55 L-21.65 24.45 Q-20.5 27.2 -19.4 29.9 -16.9 35.1 -13.8 38.0 -8.6 42.95 -1.8 41.4 3.1 41.55 7.05 40.5 10.1 39.7 12.55 38.2 18.0 34.9 20.55 28.25 22.5 23.7 23.55 19.3 24.7 14.35 24.7 9.55 24.7 3.3 22.65 -2.7 L21.85 -4.25 Q20.15 -7.6 18.35 -10.1 17.0 -13.45 13.35 -18.2 L0.35 -34.5 -5.45 -41.75 Q-4.7 -38.95 -5.55 -33.5 -6.35 -28.0 -8.2 -25.4 L-15.2 -15.95 -15.4 -15.65 -15.9 -14.95 Q-17.8 -12.45 -18.9 -10.4 -19.85 -8.55 -19.95 -7.2 L-20.35 -6.5 Q-21.8 -3.0 -23.2 0.45 -27.05 12.75 -21.95 23.55"/>
    </path>
    <path d="M-16.95 28.2 Q-20.65 17.3 -15.4 5.1 -14.0 1.5 -11.55 -0.75 L-11.25 -1.55 Q-10.7 -2.95 -10.1 -4.35 -8.6 -7.4 -6.55 -8.55 L-5.75 -9.0 -5.4 -9.2 -4.6 -20.8 Q-4.35 -24.85 -4.05 -28.9 -3.75 -33.0 -3.45 -37.15 L-2.85 -46.35 0.45 -25.95 Q1.2 -21.1 1.95 -16.25 2.5 -12.95 3.05 -9.65 L4.65 -8.7 Q8.05 -6.25 13.6 0.2 15.7 5.2 16.65 9.4 18.5 13.7 18.5 18.3 18.45 24.35 15.1 30.95 14.85 32.95 12.5 36.4 8.5 39.05 5.2 40.5 -2.65 43.85 -6.75 40.35 -12.55 35.3 -13.75 33.7 -15.4 31.45 -16.95 28.2 L-16.95 28.2 Z" fill="none" stroke="#000000" stroke-linecap="round" stroke-linejoin="round" stroke-opacity="0.0" stroke-width="0.0">
      <animate attributeName="stroke" dur="2s" repeatCount="indefinite" values="#000000;#000001"/>
      <animate attributeName="stroke-width" dur="2s" repeatCount="indefinite" values="0.0;0.0"/>
      <animate attributeName="fill-opacity" dur="2s" repeatCount="indefinite" values="0.0;0.0"/>
      <animate attributeName="d" dur="2s" repeatCount="indefinite" values="M-16.95 28.2 Q-20.65 17.3 -15.4 5.1 -14.0 1.5 -11.55 -0.75 L-11.25 -1.55 Q-10.7 -2.95 -10.1 -4.35 -8.6 -7.4 -6.55 -8.55 L-5.75 -9.0 -5.4 -9.2 -4.6 -20.8 Q-4.35 -24.85 -4.05 -28.9 -3.75 -33.0 -3.45 -37.15 L-2.85 -46.35 0.45 -25.95 Q1.2 -21.1 1.95 -16.25 2.5 -12.95 3.05 -9.65 L4.65 -8.7 Q8.05 -6.25 13.6 0.2 15.7 5.2 16.65 9.4 18.5 13.7 18.5 18.3 18.45 24.35 15.1 30.95 14.85 32.95 12.5 36.4 8.5 39.05 5.2 40.5 -2.65 43.85 -6.75 40.35 -12.55 35.3 -13.75 33.7 -15.4 31.45 -16.95 28.2 L-16.95 28.2 Z;M-21.95 23.55 Q-27.05 12.75 -23.2 0.45 -21.8 -3.0 -20.35 -6.5 L-19.95 -7.2 Q-19.85 -8.55 -18.9 -10.4 -17.8 -12.45 -15.9 -14.95 L-15.4 -15.65 -15.2 -15.95 -8.2 -25.4 Q-6.35 -28.0 -5.55 -33.5 -4.7 -38.95 -5.45 -41.75 L0.35 -34.5 13.35 -18.2 Q17.0 -13.45 18.35 -10.1 20.15 -7.6 21.85 -4.25 L22.65 -2.7 Q24.7 3.3 24.7 9.55 24.7 14.35 23.55 19.3 22.5 23.7 20.55 28.25 18.0 34.9 12.55 38.2 10.1 39.7 7.05 40.5 3.1 41.55 -1.8 41.4 -8.6 42.95 -13.8 38.0 -16.9 35.1 -19.4 29.9 -20.5 27.2 -21.65 24.45 L-21.95 23.55 Z"/>
    </path>
  </g>
</svg>
