<?xml version="1.0" encoding="UTF-8" standalone="no"?>
<svg xmlns:ffdec="https://www.free-decompiler.com/flash" xmlns:xlink="http://www.w3.org/1999/xlink" ffdec:objectType="morphshape" height="66.4px" width="58.9px" xmlns="http://www.w3.org/2000/svg">
  <g transform="matrix(1.0, 0.0, 0.0, 1.0, 32.4, 32.75)">
    <path d="M-22.25 13.15 Q-12.9 32.55 -1.85 26.45 14.7 23.4 20.25 17.8 29.1 1.15 22.35 -13.1 15.2 -33.9 2.2 -30.95 -14.9 -31.4 -20.15 -17.8 -27.2 -1.45 -22.25 13.15" fill="#23141b" fill-rule="evenodd" stroke="none">
      <animate attributeName="fill" dur="2s" repeatCount="indefinite" values="#23141b;#23141c"/>
      <animate attributeName="fill-opacity" dur="2s" repeatCount="indefinite" values="1.0;1.0"/>
      <animate attributeName="d" dur="2s" repeatCount="indefinite" values="M-22.25 13.15 Q-12.9 32.55 -1.85 26.45 14.7 23.4 20.25 17.8 29.1 1.15 22.35 -13.1 15.2 -33.9 2.2 -30.95 -14.9 -31.4 -20.15 -17.8 -27.2 -1.45 -22.25 13.15;M-27.55 -19.85 Q-40.2 -6.55 -19.7 20.75 -7.25 40.95 6.45 29.5 21.1 28.15 23.1 11.4 31.65 -10.0 18.75 -19.25 11.95 -35.3 -3.4 -32.3 -14.85 -33.15 -27.55 -19.85"/>
    </path>
    <path d="M-22.25 13.15 Q-27.2 -1.45 -20.15 -17.8 -14.9 -31.4 2.2 -30.95 15.2 -33.9 22.35 -13.1 29.1 1.15 20.25 17.8 14.7 23.4 -1.85 26.45 -12.9 32.55 -22.25 13.15 Z" fill="none" stroke="#000000" stroke-linecap="round" stroke-linejoin="round" stroke-opacity="0.0" stroke-width="0.0">
      <animate attributeName="stroke" dur="2s" repeatCount="indefinite" values="#000000;#000001"/>
      <animate attributeName="stroke-width" dur="2s" repeatCount="indefinite" values="0.0;0.0"/>
      <animate attributeName="fill-opacity" dur="2s" repeatCount="indefinite" values="0.0;0.0"/>
      <animate attributeName="d" dur="2s" repeatCount="indefinite" values="M-22.25 13.15 Q-27.2 -1.45 -20.15 -17.8 -14.9 -31.4 2.2 -30.95 15.2 -33.9 22.35 -13.1 29.1 1.15 20.25 17.8 14.7 23.4 -1.85 26.45 -12.9 32.55 -22.25 13.15 Z;M-27.55 -19.85 Q-14.85 -33.15 -3.4 -32.3 11.95 -35.3 18.75 -19.25 31.65 -10.0 23.1 11.4 21.1 28.15 6.45 29.5 -7.25 40.95 -19.7 20.75 -40.2 -6.55 -27.55 -19.85 Z"/>
    </path>
  </g>
</svg>
