<?xml version="1.0" encoding="UTF-8" standalone="no"?>
<svg xmlns:ffdec="https://www.free-decompiler.com/flash" xmlns:xlink="http://www.w3.org/1999/xlink" ffdec:objectType="morphshape" height="41.95px" width="43.6px" xmlns="http://www.w3.org/2000/svg">
  <g transform="matrix(1.0, 0.0, 0.0, 1.0, 23.25, -15.75)">
    <path d="M-18.65 15.75 Q-19.75 19.8 -12.95 28.65 L-9.35 33.2 Q-3.4 40.65 2.55 48.1 L4.35 50.4 5.85 52.2 Q5.1 49.4 5.95 43.95 6.75 38.45 8.6 35.85 10.75 32.9 12.9 30.0 L15.8 26.1 Q17.45 23.6 19.1 21.15 L19.3 20.85 Q21.0 17.65 19.95 15.75 L19.25 15.75 -18.65 15.75" fill="#23141b" fill-rule="evenodd" stroke="none">
      <animate attributeName="fill" dur="2s" repeatCount="indefinite" values="#23141b;#23141c"/>
      <animate attributeName="fill-opacity" dur="2s" repeatCount="indefinite" values="1.0;1.0"/>
      <animate attributeName="d" dur="2s" repeatCount="indefinite" values="M-18.65 15.75 Q-19.75 19.8 -12.95 28.65 L-9.35 33.2 Q-3.4 40.65 2.55 48.1 L4.35 50.4 5.85 52.2 Q5.1 49.4 5.95 43.95 6.75 38.45 8.6 35.85 10.75 32.9 12.9 30.0 L15.8 26.1 Q17.45 23.6 19.1 21.15 L19.3 20.85 Q21.0 17.65 19.95 15.75 L19.25 15.75 -18.65 15.75;M-23.25 15.75 Q-18.1 22.5 -12.95 29.2 L-8.95 34.4 Q-3.6 41.75 -2.5 54.35 L-2.3 57.7 -0.45 55.65 Q2.6 52.05 5.65 48.5 8.45 44.75 11.25 41.05 13.9 37.3 15.7 34.0 L18.15 28.9 Q19.6 25.2 19.8 22.25 L19.8 22.15 Q19.5 20.65 19.45 16.6 L19.45 15.75 -23.25 15.75"/>
    </path>
    <path d="M-18.65 15.75 L19.25 15.75 19.95 15.75 Q21.0 17.65 19.3 20.85 L19.1 21.15 Q17.45 23.6 15.8 26.1 L12.9 30.0 Q10.75 32.9 8.6 35.85 6.75 38.45 5.95 43.95 5.1 49.4 5.85 52.2 L4.35 50.4 2.55 48.1 Q-3.4 40.65 -9.35 33.2 L-12.95 28.65 Q-19.75 19.8 -18.65 15.75 Z" fill="none" stroke="#000000" stroke-linecap="round" stroke-linejoin="round" stroke-opacity="0.0" stroke-width="0.0">
      <animate attributeName="stroke" dur="2s" repeatCount="indefinite" values="#000000;#000001"/>
      <animate attributeName="stroke-width" dur="2s" repeatCount="indefinite" values="0.0;0.0"/>
      <animate attributeName="fill-opacity" dur="2s" repeatCount="indefinite" values="0.0;0.0"/>
      <animate attributeName="d" dur="2s" repeatCount="indefinite" values="M-18.65 15.75 L19.25 15.75 19.95 15.75 Q21.0 17.65 19.3 20.85 L19.1 21.15 Q17.45 23.6 15.8 26.1 L12.9 30.0 Q10.75 32.9 8.6 35.85 6.75 38.45 5.95 43.95 5.1 49.4 5.85 52.2 L4.35 50.4 2.55 48.1 Q-3.4 40.65 -9.35 33.2 L-12.95 28.65 Q-19.75 19.8 -18.65 15.75 Z;M-23.25 15.75 L19.45 15.75 19.45 16.6 Q19.5 20.65 19.8 22.15 L19.8 22.25 Q19.6 25.2 18.15 28.9 L15.7 34.0 Q13.9 37.3 11.25 41.05 8.45 44.75 5.65 48.5 2.6 52.05 -0.45 55.65 L-2.3 57.7 -2.5 54.35 Q-3.6 41.75 -8.95 34.4 L-12.95 29.2 Q-18.1 22.5 -23.25 15.75 Z"/>
    </path>
  </g>
</svg>
