<?xml version="1.0" encoding="UTF-8" standalone="no"?>
<svg xmlns:ffdec="https://www.free-decompiler.com/flash" xmlns:xlink="http://www.w3.org/1999/xlink" ffdec:objectType="morphshape" height="66.4px" width="64.3px" xmlns="http://www.w3.org/2000/svg">
  <g transform="matrix(1.0, 0.0, 0.0, 1.0, 32.4, 32.75)">
    <path d="M-27.55 -19.85 Q-40.2 -6.55 -19.7 20.75 -7.25 40.95 6.45 29.5 21.1 28.15 23.1 11.4 31.65 -10.0 18.75 -19.25 11.95 -35.3 -3.4 -32.3 -14.85 -33.15 -27.55 -19.85" fill="#23141b" fill-rule="evenodd" stroke="none">
      <animate attributeName="fill" dur="2s" repeatCount="indefinite" values="#23141b;#23141c"/>
      <animate attributeName="fill-opacity" dur="2s" repeatCount="indefinite" values="1.0;1.0"/>
      <animate attributeName="d" dur="2s" repeatCount="indefinite" values="M-27.55 -19.85 Q-40.2 -6.55 -19.7 20.75 -7.25 40.95 6.45 29.5 21.1 28.15 23.1 11.4 31.65 -10.0 18.75 -19.25 11.95 -35.3 -3.4 -32.3 -14.85 -33.15 -27.55 -19.85;M-20.1 -11.8 Q-27.65 5.2 -17.9 19.35 -14.8 30.9 5.95 27.55 21.75 20.3 25.85 13.35 41.25 -21.7 17.6 -29.95 6.45 -33.9 -3.1 -30.4 -12.55 -28.85 -20.1 -11.8"/>
    </path>
    <path d="M-27.55 -19.85 Q-14.85 -33.15 -3.4 -32.3 11.95 -35.3 18.75 -19.25 31.65 -10.0 23.1 11.4 21.1 28.15 6.45 29.5 -7.25 40.95 -19.7 20.75 -40.2 -6.55 -27.55 -19.85 Z" fill="none" stroke="#000000" stroke-linecap="round" stroke-linejoin="round" stroke-opacity="0.0" stroke-width="0.0">
      <animate attributeName="stroke" dur="2s" repeatCount="indefinite" values="#000000;#000001"/>
      <animate attributeName="stroke-width" dur="2s" repeatCount="indefinite" values="0.0;0.0"/>
      <animate attributeName="fill-opacity" dur="2s" repeatCount="indefinite" values="0.0;0.0"/>
      <animate attributeName="d" dur="2s" repeatCount="indefinite" values="M-27.55 -19.85 Q-14.85 -33.15 -3.4 -32.3 11.95 -35.3 18.75 -19.25 31.65 -10.0 23.1 11.4 21.1 28.15 6.45 29.5 -7.25 40.95 -19.7 20.75 -40.2 -6.55 -27.55 -19.85 Z;M-20.1 -11.8 Q-12.55 -28.85 -3.1 -30.4 6.45 -33.9 17.6 -29.95 41.25 -21.7 25.85 13.35 21.75 20.3 5.95 27.55 -14.8 30.9 -17.9 19.35 -27.65 5.2 -20.1 -11.8 Z"/>
    </path>
  </g>
</svg>
