<?xml version="1.0" encoding="UTF-8" standalone="no"?>
<svg xmlns:ffdec="https://www.free-decompiler.com/flash" xmlns:xlink="http://www.w3.org/1999/xlink" ffdec:objectType="morphshape" height="42.6px" width="46.65px" xmlns="http://www.w3.org/2000/svg">
  <g transform="matrix(1.0, 0.0, 0.0, 1.0, 23.25, -15.1)">
    <path d="M-23.25 15.75 Q-18.2 22.35 -13.15 28.95 L-8.95 34.4 Q-3.6 41.75 -2.5 54.35 L-2.5 54.4 -2.3 57.7 Q10.2 43.9 15.7 34.0 L15.7 34.0 Q19.45 27.15 19.8 22.25 19.55 21.1 19.5 18.1 19.45 16.9 19.45 15.75 L14.15 15.75 -23.25 15.75" fill="#23141b" fill-rule="evenodd" stroke="none">
      <animate attributeName="fill" dur="2s" repeatCount="indefinite" values="#23141b;#23141c"/>
      <animate attributeName="fill-opacity" dur="2s" repeatCount="indefinite" values="1.0;1.0"/>
      <animate attributeName="d" dur="2s" repeatCount="indefinite" values="M-23.25 15.75 Q-18.2 22.35 -13.15 28.95 L-8.95 34.4 Q-3.6 41.75 -2.5 54.35 L-2.5 54.4 -2.3 57.7 Q10.2 43.9 15.7 34.0 L15.7 34.0 Q19.45 27.15 19.8 22.25 19.55 21.1 19.5 18.1 19.45 16.9 19.45 15.75 L14.15 15.75 -23.25 15.75;M-20.4 15.1 Q-19.4 22.55 -15.95 30.8 L-13.2 36.9 Q-9.6 44.2 -3.2 55.2 L-3.2 55.2 -3.25 51.85 Q-3.0 34.5 9.15 26.65 L9.25 26.55 Q16.1 22.1 19.6 19.55 22.85 17.2 23.3 16.45 23.8 15.6 21.7 15.45 L16.65 15.75 -20.4 15.1"/>
    </path>
    <path d="M-23.25 15.75 L14.15 15.75 19.45 15.75 Q19.45 16.9 19.5 18.1 19.55 21.1 19.8 22.25 19.45 27.15 15.7 34.0 L15.7 34.0 Q10.2 43.9 -2.3 57.7 L-2.5 54.4 -2.5 54.35 Q-3.6 41.75 -8.95 34.4 L-13.15 28.95 Q-18.2 22.35 -23.25 15.75 Z" fill="none" stroke="#000000" stroke-linecap="round" stroke-linejoin="round" stroke-opacity="0.0" stroke-width="0.0">
      <animate attributeName="stroke" dur="2s" repeatCount="indefinite" values="#000000;#000001"/>
      <animate attributeName="stroke-width" dur="2s" repeatCount="indefinite" values="0.0;0.0"/>
      <animate attributeName="fill-opacity" dur="2s" repeatCount="indefinite" values="0.0;0.0"/>
      <animate attributeName="d" dur="2s" repeatCount="indefinite" values="M-23.25 15.75 L14.15 15.75 19.45 15.75 Q19.45 16.9 19.5 18.1 19.55 21.1 19.8 22.25 19.45 27.15 15.7 34.0 L15.7 34.0 Q10.2 43.9 -2.3 57.7 L-2.5 54.4 -2.5 54.35 Q-3.6 41.75 -8.95 34.4 L-13.15 28.95 Q-18.2 22.35 -23.25 15.75 Z;M-20.4 15.1 L16.65 15.75 21.7 15.45 Q23.8 15.6 23.3 16.45 22.85 17.2 19.6 19.55 16.1 22.1 9.25 26.55 L9.15 26.65 Q-3.0 34.5 -3.25 51.85 L-3.2 55.2 -3.2 55.2 Q-9.6 44.2 -13.2 36.9 L-15.95 30.8 Q-19.4 22.55 -20.4 15.1 Z"/>
    </path>
  </g>
</svg>
