<?xml version="1.0" encoding="UTF-8" standalone="no"?>
<svg xmlns:ffdec="https://www.free-decompiler.com/flash" xmlns:xlink="http://www.w3.org/1999/xlink" ffdec:objectType="morphshape" height="62.95px" width="60.45px" xmlns="http://www.w3.org/2000/svg">
  <g transform="matrix(1.0, 0.0, 0.0, 1.0, 28.55, 32.65)">
    <path d="M-20.1 -11.8 Q-27.65 5.2 -17.9 19.35 -14.8 30.9 5.95 27.55 21.75 20.3 25.85 13.35 41.25 -21.7 17.6 -29.95 6.45 -33.9 -3.1 -30.4 -12.55 -28.85 -20.1 -11.8" fill="#23141b" fill-rule="evenodd" stroke="none">
      <animate attributeName="fill" dur="2s" repeatCount="indefinite" values="#23141b;#23141c"/>
      <animate attributeName="fill-opacity" dur="2s" repeatCount="indefinite" values="1.0;1.0"/>
      <animate attributeName="d" dur="2s" repeatCount="indefinite" values="M-20.1 -11.8 Q-27.65 5.2 -17.9 19.35 -14.8 30.9 5.95 27.55 21.75 20.3 25.85 13.35 41.25 -21.7 17.6 -29.95 6.45 -33.9 -3.1 -30.4 -12.55 -28.85 -20.1 -11.8;M-24.45 -15.9 Q-34.9 1.3 -18.85 20.75 -15.45 33.05 7.0 29.5 21.25 27.35 23.5 11.4 33.8 -10.15 19.25 -19.25 19.45 -34.8 -2.75 -32.3 -14.05 -33.15 -24.45 -15.9"/>
    </path>
    <path d="M-20.1 -11.8 Q-12.55 -28.85 -3.1 -30.4 6.45 -33.9 17.6 -29.95 41.25 -21.7 25.85 13.35 21.75 20.3 5.95 27.55 -14.8 30.9 -17.9 19.35 -27.65 5.2 -20.1 -11.8 Z" fill="none" stroke="#000000" stroke-linecap="round" stroke-linejoin="round" stroke-opacity="0.0" stroke-width="0.0">
      <animate attributeName="stroke" dur="2s" repeatCount="indefinite" values="#000000;#000001"/>
      <animate attributeName="stroke-width" dur="2s" repeatCount="indefinite" values="0.0;0.0"/>
      <animate attributeName="fill-opacity" dur="2s" repeatCount="indefinite" values="0.0;0.0"/>
      <animate attributeName="d" dur="2s" repeatCount="indefinite" values="M-20.1 -11.8 Q-12.55 -28.85 -3.1 -30.4 6.45 -33.9 17.6 -29.95 41.25 -21.7 25.85 13.35 21.75 20.3 5.95 27.55 -14.8 30.9 -17.9 19.35 -27.65 5.2 -20.1 -11.8 Z;M-24.45 -15.9 Q-14.05 -33.15 -2.75 -32.3 19.45 -34.8 19.25 -19.25 33.8 -10.15 23.5 11.4 21.25 27.35 7.0 29.5 -15.45 33.05 -18.85 20.75 -34.9 1.3 -24.45 -15.9 Z"/>
    </path>
  </g>
</svg>
