<?xml version="1.0" encoding="UTF-8" standalone="no"?>
<svg xmlns:ffdec="https://www.free-decompiler.com/flash" xmlns:xlink="http://www.w3.org/1999/xlink" ffdec:objectType="morphshape" height="40.1px" width="44.2px" xmlns="http://www.w3.org/2000/svg">
  <g transform="matrix(1.0, 0.0, 0.0, 1.0, 20.8, -15.1)">
    <path d="M-20.4 15.1 L-20.4 15.2 Q-19.4 22.6 -15.95 30.8 L-15.95 30.9 -14.8 33.5 Q-11.15 41.5 -3.2 55.2 L-3.25 53.7 -3.15 49.1 Q-2.75 44.15 -1.35 40.05 0.1 35.8 2.75 32.45 5.4 29.1 9.15 26.65 L13.95 23.5 Q22.6 17.7 23.3 16.45 23.65 15.85 22.65 15.6 21.45 15.35 18.3 15.6 L16.65 15.75 -20.4 15.1" fill="#23141b" fill-rule="evenodd" stroke="none">
      <animate attributeName="fill" dur="2s" repeatCount="indefinite" values="#23141b;#23141c"/>
      <animate attributeName="fill-opacity" dur="2s" repeatCount="indefinite" values="1.0;1.0"/>
      <animate attributeName="d" dur="2s" repeatCount="indefinite" values="M-20.4 15.1 L-20.4 15.2 Q-19.4 22.6 -15.95 30.8 L-15.95 30.9 -14.8 33.5 Q-11.15 41.5 -3.2 55.2 L-3.25 53.7 -3.15 49.1 Q-2.75 44.15 -1.35 40.05 0.1 35.8 2.75 32.45 5.4 29.1 9.15 26.65 L13.95 23.5 Q22.6 17.7 23.3 16.45 23.65 15.85 22.65 15.6 21.45 15.35 18.3 15.6 L16.65 15.75 -20.4 15.1;M-20.8 15.75 L-20.8 15.75 Q-19.15 21.05 -17.55 31.15 L-17.55 31.35 -17.15 34.0 Q-15.45 45.75 -3.2 52.65 L-2.2 53.2 -3.05 48.8 Q-3.45 45.3 -2.6 40.2 -1.5 37.3 2.25 33.35 4.65 30.8 8.3 27.7 L12.35 24.35 Q19.1 18.95 20.5 16.75 21.1 15.8 20.75 15.4 20.15 14.75 16.65 15.75 L15.0 15.75 -20.8 15.75"/>
    </path>
    <path d="M-20.4 15.1 L16.65 15.75 18.3 15.6 Q21.45 15.35 22.65 15.6 23.65 15.85 23.3 16.45 22.6 17.7 13.95 23.5 L9.15 26.65 Q5.4 29.1 2.75 32.45 0.1 35.8 -1.35 40.05 -2.75 44.15 -3.15 49.1 L-3.25 53.7 -3.2 55.2 Q-11.15 41.5 -14.8 33.5 L-15.95 30.9 -15.95 30.8 Q-19.4 22.6 -20.4 15.2 L-20.4 15.1 Z" fill="none" stroke="#000000" stroke-linecap="round" stroke-linejoin="round" stroke-opacity="0.0" stroke-width="0.0">
      <animate attributeName="stroke" dur="2s" repeatCount="indefinite" values="#000000;#000001"/>
      <animate attributeName="stroke-width" dur="2s" repeatCount="indefinite" values="0.0;0.0"/>
      <animate attributeName="fill-opacity" dur="2s" repeatCount="indefinite" values="0.0;0.0"/>
      <animate attributeName="d" dur="2s" repeatCount="indefinite" values="M-20.4 15.1 L16.65 15.75 18.3 15.6 Q21.45 15.35 22.65 15.6 23.65 15.85 23.3 16.45 22.6 17.7 13.95 23.5 L9.15 26.65 Q5.4 29.1 2.75 32.45 0.1 35.8 -1.35 40.05 -2.75 44.15 -3.15 49.1 L-3.25 53.7 -3.2 55.2 Q-11.15 41.5 -14.8 33.5 L-15.95 30.9 -15.95 30.8 Q-19.4 22.6 -20.4 15.2 L-20.4 15.1 Z;M-20.8 15.75 L15.0 15.75 16.65 15.75 Q20.15 14.75 20.75 15.4 21.1 15.8 20.5 16.75 19.1 18.95 12.35 24.35 L8.3 27.7 Q4.65 30.8 2.25 33.35 -1.5 37.3 -2.6 40.2 -3.45 45.3 -3.05 48.8 L-2.2 53.2 -3.2 52.65 Q-15.45 45.75 -17.15 34.0 L-17.55 31.35 -17.55 31.15 Q-19.15 21.05 -20.8 15.75 L-20.8 15.75 Z"/>
    </path>
  </g>
</svg>
