<?xml version="1.0" encoding="UTF-8" standalone="no"?>
<svg xmlns:ffdec="https://www.free-decompiler.com/flash" xmlns:xlink="http://www.w3.org/1999/xlink" ffdec:objectType="morphshape" height="62.95px" width="56.4px" xmlns="http://www.w3.org/2000/svg">
  <g transform="matrix(1.0, 0.0, 0.0, 1.0, 28.6, 32.65)">
    <path d="M-24.45 -15.9 Q-33.0 -1.85 -23.85 13.7 -21.8 17.2 -18.85 20.75 -16.5 29.3 -4.9 30.2 1.05 29.85 7.0 29.5 19.3 27.65 22.65 15.55 L23.5 11.4 Q32.45 -7.3 22.7 -16.6 L19.25 -19.25 Q19.45 -33.0 2.05 -32.65 L-2.75 -32.3 Q-14.05 -33.15 -24.45 -15.9 L-24.45 -15.9" fill="#23141b" fill-rule="evenodd" stroke="none">
      <animate attributeName="fill" dur="2s" repeatCount="indefinite" values="#23141b;#23141c"/>
      <animate attributeName="fill-opacity" dur="2s" repeatCount="indefinite" values="1.0;1.0"/>
      <animate attributeName="d" dur="2s" repeatCount="indefinite" values="M-24.45 -15.9 Q-33.0 -1.85 -23.85 13.7 -21.8 17.2 -18.85 20.75 -16.5 29.3 -4.9 30.2 1.05 29.85 7.0 29.5 19.3 27.65 22.65 15.55 L23.5 11.4 Q32.45 -7.3 22.7 -16.6 L19.25 -19.25 Q19.45 -33.0 2.05 -32.65 L-2.75 -32.3 Q-14.05 -33.15 -24.45 -15.9 L-24.45 -15.9;M-22.75 7.35 Q-17.35 26.3 -5.3 25.3 -1.4 25.05 2.5 24.85 11.25 23.75 17.55 20.1 20.95 15.45 22.6 10.7 25.8 1.4 22.55 -8.25 L21.8 -11.95 Q17.65 -29.15 5.6 -28.65 L1.9 -29.35 Q-9.25 -30.5 -16.7 -20.7 L-18.8 -16.9 Q-24.3 -5.6 -22.7 7.35 L-22.75 7.35"/>
    </path>
    <path d="M-24.45 -15.9 L-24.45 -15.9 Q-14.05 -33.15 -2.75 -32.3 L2.05 -32.65 Q19.45 -33.0 19.25 -19.25 L22.7 -16.6 Q32.45 -7.3 23.5 11.4 L22.65 15.55 Q19.3 27.65 7.0 29.5 1.05 29.85 -4.9 30.2 -16.5 29.3 -18.85 20.75 -21.8 17.2 -23.85 13.7 -33.0 -1.85 -24.45 -15.9 Z" fill="none" stroke="#000000" stroke-linecap="round" stroke-linejoin="round" stroke-opacity="0.0" stroke-width="0.0">
      <animate attributeName="stroke" dur="2s" repeatCount="indefinite" values="#000000;#000001"/>
      <animate attributeName="stroke-width" dur="2s" repeatCount="indefinite" values="0.0;0.0"/>
      <animate attributeName="fill-opacity" dur="2s" repeatCount="indefinite" values="0.0;0.0"/>
      <animate attributeName="d" dur="2s" repeatCount="indefinite" values="M-24.45 -15.9 L-24.45 -15.9 Q-14.05 -33.15 -2.75 -32.3 L2.05 -32.65 Q19.45 -33.0 19.25 -19.25 L22.7 -16.6 Q32.45 -7.3 23.5 11.4 L22.65 15.55 Q19.3 27.65 7.0 29.5 1.05 29.85 -4.9 30.2 -16.5 29.3 -18.85 20.75 -21.8 17.2 -23.85 13.7 -33.0 -1.85 -24.45 -15.9 Z;M-22.75 7.35 L-22.7 7.35 Q-24.3 -5.6 -18.8 -16.9 L-16.7 -20.7 Q-9.25 -30.5 1.9 -29.35 L5.6 -28.65 Q17.65 -29.15 21.8 -11.95 L22.55 -8.25 Q25.8 1.4 22.6 10.7 20.95 15.45 17.55 20.1 11.25 23.75 2.5 24.85 -1.4 25.05 -5.3 25.3 -17.35 26.3 -22.75 7.35 Z"/>
    </path>
  </g>
</svg>
