<?xml version="1.0" encoding="UTF-8" standalone="no"?>
<svg xmlns:ffdec="https://www.free-decompiler.com/flash" xmlns:xlink="http://www.w3.org/1999/xlink" ffdec:objectType="morphshape" height="38.05px" width="41.7px" xmlns="http://www.w3.org/2000/svg">
  <g transform="matrix(1.0, 0.0, 0.0, 1.0, 20.8, -15.15)">
    <path d="M-20.8 15.75 L-20.8 15.85 -20.8 15.85 Q-19.15 21.25 -17.55 31.35 L-17.55 31.55 -17.15 34.0 Q-15.4 46.25 -2.2 53.2 L-2.2 53.2 -2.75 50.4 -3.05 48.8 Q-3.4 45.75 -2.8 41.45 L-2.6 40.2 Q-1.6 37.55 1.65 33.95 L2.25 33.35 Q5.65 29.7 11.7 24.85 L12.35 24.35 Q19.5 18.65 20.65 16.5 21.05 15.75 20.75 15.4 L17.3 15.55 16.65 15.75 -20.8 15.75" fill="#23141b" fill-rule="evenodd" stroke="none">
      <animate attributeName="fill" dur="2s" repeatCount="indefinite" values="#23141b;#23141c"/>
      <animate attributeName="fill-opacity" dur="2s" repeatCount="indefinite" values="1.0;1.0"/>
      <animate attributeName="d" dur="2s" repeatCount="indefinite" values="M-20.8 15.75 L-20.8 15.85 -20.8 15.85 Q-19.15 21.25 -17.55 31.35 L-17.55 31.55 -17.15 34.0 Q-15.4 46.25 -2.2 53.2 L-2.2 53.2 -2.75 50.4 -3.05 48.8 Q-3.4 45.75 -2.8 41.45 L-2.6 40.2 Q-1.6 37.55 1.65 33.95 L2.25 33.35 Q5.65 29.7 11.7 24.85 L12.35 24.35 Q19.5 18.65 20.65 16.5 21.05 15.75 20.75 15.4 L17.3 15.55 16.65 15.75 -20.8 15.75;M-19.1 15.75 L-19.1 15.75 -19.1 15.8 Q-19.65 20.05 -14.0 29.05 L-13.9 29.25 -12.65 31.25 Q-6.4 41.1 2.1 49.85 L2.1 49.85 4.05 51.55 3.85 50.05 Q3.65 47.5 4.2 43.2 L4.45 42.0 Q5.35 37.85 7.3 35.35 L7.8 34.75 Q11.25 30.25 15.25 25.5 L15.8 24.85 Q21.25 18.35 20.75 15.7 20.25 15.65 19.8 15.65 L16.4 15.75 15.7 15.75 -19.1 15.75"/>
    </path>
    <path d="M-20.8 15.75 L16.65 15.75 17.3 15.55 20.75 15.4 Q21.05 15.75 20.65 16.5 19.5 18.65 12.35 24.35 L11.7 24.85 Q5.65 29.7 2.25 33.35 L1.65 33.95 Q-1.6 37.55 -2.6 40.2 L-2.8 41.45 Q-3.4 45.75 -3.05 48.8 L-2.75 50.4 -2.2 53.2 -2.2 53.2 Q-15.4 46.25 -17.15 34.0 L-17.55 31.55 -17.55 31.35 Q-19.15 21.25 -20.8 15.85 L-20.8 15.85 -20.8 15.75 Z" fill="none" stroke="#000000" stroke-linecap="round" stroke-linejoin="round" stroke-opacity="0.0" stroke-width="0.0">
      <animate attributeName="stroke" dur="2s" repeatCount="indefinite" values="#000000;#000001"/>
      <animate attributeName="stroke-width" dur="2s" repeatCount="indefinite" values="0.0;0.0"/>
      <animate attributeName="fill-opacity" dur="2s" repeatCount="indefinite" values="0.0;0.0"/>
      <animate attributeName="d" dur="2s" repeatCount="indefinite" values="M-20.8 15.75 L16.65 15.75 17.3 15.55 20.75 15.4 Q21.05 15.75 20.65 16.5 19.5 18.65 12.35 24.35 L11.7 24.85 Q5.65 29.7 2.25 33.35 L1.65 33.95 Q-1.6 37.55 -2.6 40.2 L-2.8 41.45 Q-3.4 45.75 -3.05 48.8 L-2.75 50.4 -2.2 53.2 -2.2 53.2 Q-15.4 46.25 -17.15 34.0 L-17.55 31.55 -17.55 31.35 Q-19.15 21.25 -20.8 15.85 L-20.8 15.85 -20.8 15.75 Z;M-19.1 15.75 L15.7 15.75 16.4 15.75 19.8 15.65 Q20.25 15.65 20.75 15.7 21.25 18.35 15.8 24.85 L15.25 25.5 Q11.25 30.25 7.8 34.75 L7.3 35.35 Q5.35 37.85 4.45 42.0 L4.2 43.2 Q3.65 47.5 3.85 50.05 L4.05 51.55 2.1 49.85 2.1 49.85 Q-6.4 41.1 -12.65 31.25 L-13.9 29.25 -14.0 29.05 Q-19.65 20.05 -19.1 15.8 L-19.1 15.75 -19.1 15.75 Z"/>
    </path>
  </g>
</svg>
