<?xml version="1.0" encoding="UTF-8" standalone="no"?>
<svg xmlns:ffdec="https://www.free-decompiler.com/flash" xmlns:xlink="http://www.w3.org/1999/xlink" ffdec:objectType="morphshape" height="2400.0px" width="4268.0px" xmlns="http://www.w3.org/2000/svg">
  <g transform="matrix(1.0, 0.0, 0.0, 1.0, 2134.0, 1200.0)">
    <path d="M-77.9 0.0 Q-77.9 32.25 -55.1 55.1 -33.1 77.1 -2.3 77.85 -1.15 77.9 0.0 77.9 32.25 77.9 55.1 55.1 74.25 35.95 77.3 10.15 77.9 5.2 77.9 0.0 77.9 -32.25 55.1 -55.1 32.25 -77.9 0.0 -77.9 -1.15 -77.85 -2.3 -77.85 -33.1 -77.1 -55.1 -55.1 -75.15 -35.0 -77.55 -7.55 -77.9 -3.85 -77.9 0.0 M-2134.0 -1200.0 L-2134.0 1200.0 0.0 1200.0 2134.0 1200.0 2134.0 -1200.0 0.0 -1200.0 -2134.0 -1200.0" fill="#000000" fill-rule="evenodd" stroke="none">
      <animate attributeName="fill" dur="2s" repeatCount="indefinite" values="#000000;#000001"/>
      <animate attributeName="fill-opacity" dur="2s" repeatCount="indefinite" values="1.0;1.0"/>
      <animate attributeName="d" dur="2s" repeatCount="indefinite" values="M-77.9 0.0 Q-77.9 32.25 -55.1 55.1 -33.1 77.1 -2.3 77.85 -1.15 77.9 0.0 77.9 32.25 77.9 55.1 55.1 74.25 35.95 77.3 10.15 77.9 5.2 77.9 0.0 77.9 -32.25 55.1 -55.1 32.25 -77.9 0.0 -77.9 -1.15 -77.85 -2.3 -77.85 -33.1 -77.1 -55.1 -55.1 -75.15 -35.0 -77.55 -7.55 -77.9 -3.85 -77.9 0.0 M-2134.0 -1200.0 L-2134.0 1200.0 0.0 1200.0 2134.0 1200.0 2134.0 -1200.0 0.0 -1200.0 -2134.0 -1200.0;M-1154.35 0.0 Q-1154.35 477.9 -816.5 816.5 -490.5 1142.5 -34.1 1153.6 -17.05 1154.35 0.0 1154.35 477.9 1154.35 816.5 816.5 1100.25 532.7 1145.45 150.4 1154.35 77.05 1154.35 0.0 1154.35 -477.9 816.5 -816.5 477.9 -1154.35 0.0 -1154.35 -17.05 -1154.35 -34.1 -1153.6 -490.5 -1142.5 -816.5 -816.5 -1113.6 -518.65 -1149.15 -111.9 -1154.35 -57.05 -1154.35 0.0 M-2134.0 -1200.0 L-2134.0 1200.0 0.0 1200.0 2134.0 1200.0 2134.0 -1200.0 0.0 -1200.0 -2134.0 -1200.0"/>
    </path>
    <path d="M-2134.0 -1200.0 L0.0 -1200.0 2134.0 -1200.0 2134.0 1200.0 0.0 1200.0 -2134.0 1200.0 -2134.0 -1200.0 M-77.9 0.0 Q-77.9 -3.85 -77.55 -7.55 -75.15 -35.0 -55.1 -55.1 -33.1 -77.1 -2.3 -77.85 -1.15 -77.85 0.0 -77.9 32.25 -77.9 55.1 -55.1 77.9 -32.25 77.9 0.0 77.9 5.2 77.3 10.15 74.25 35.95 55.1 55.1 32.25 77.9 0.0 77.9 -1.15 77.9 -2.3 77.85 -33.1 77.1 -55.1 55.1 -77.9 32.25 -77.9 0.0 Z" fill="none" stroke="#000000" stroke-linecap="round" stroke-linejoin="round" stroke-opacity="0.0" stroke-width="0.0">
      <animate attributeName="stroke" dur="2s" repeatCount="indefinite" values="#000000;#000001"/>
      <animate attributeName="stroke-width" dur="2s" repeatCount="indefinite" values="0.0;0.0"/>
      <animate attributeName="fill-opacity" dur="2s" repeatCount="indefinite" values="0.0;0.0"/>
      <animate attributeName="d" dur="2s" repeatCount="indefinite" values="M-2134.0 -1200.0 L0.0 -1200.0 2134.0 -1200.0 2134.0 1200.0 0.0 1200.0 -2134.0 1200.0 -2134.0 -1200.0 M-77.9 0.0 Q-77.9 -3.85 -77.55 -7.55 -75.15 -35.0 -55.1 -55.1 -33.1 -77.1 -2.3 -77.85 -1.15 -77.85 0.0 -77.9 32.25 -77.9 55.1 -55.1 77.9 -32.25 77.9 0.0 77.9 5.2 77.3 10.15 74.25 35.95 55.1 55.1 32.25 77.9 0.0 77.9 -1.15 77.9 -2.3 77.85 -33.1 77.1 -55.1 55.1 -77.9 32.25 -77.9 0.0 Z;M-2134.0 -1200.0 L0.0 -1200.0 2134.0 -1200.0 2134.0 1200.0 0.0 1200.0 -2134.0 1200.0 -2134.0 -1200.0 M-1154.35 0.0 Q-1154.35 -57.05 -1149.15 -111.9 -1113.6 -518.65 -816.5 -816.5 -490.5 -1142.5 -34.1 -1153.6 -17.05 -1154.35 0.0 -1154.35 477.9 -1154.35 816.5 -816.5 1154.35 -477.9 1154.35 0.0 1154.35 77.05 1145.45 150.4 1100.25 532.7 816.5 816.5 477.9 1154.35 0.0 1154.35 -17.05 1154.35 -34.1 1153.6 -490.5 1142.5 -816.5 816.5 -1154.35 477.9 -1154.35 0.0 Z"/>
    </path>
  </g>
</svg>
