<?xml version="1.0" encoding="UTF-8" standalone="no"?>
<svg xmlns:ffdec="https://www.free-decompiler.com/flash" xmlns:xlink="http://www.w3.org/1999/xlink" ffdec:objectType="shape" height="39.65px" width="31.6px" xmlns="http://www.w3.org/2000/svg">
  <g transform="matrix(1.0, 0.0, 0.0, 1.0, 13.75, 19.6)">
    <path d="M11.75 -18.3 Q12.35 -19.2 13.45 -19.5 14.85 -19.8 16.1 -19.1 L16.15 -19.05 Q17.4 -18.35 17.75 -17.0 18.1 -15.6 17.4 -14.3 L16.35 -12.55 15.15 -10.6 14.2 -12.6 15.65 -14.75 Q16.0 -15.35 15.8 -16.1 L15.0 -17.15 13.65 -17.35 13.3 -17.2 12.65 -16.5 11.85 -15.05 10.35 -15.9 11.75 -18.3 M-12.25 -11.85 L-13.45 -14.75 Q-14.0 -16.1 -13.4 -17.45 -12.95 -18.75 -11.55 -19.25 L-8.85 -19.35 Q-8.05 -18.95 -7.5 -18.3 L-7.05 -17.4 -6.25 -15.35 -7.9 -14.7 -8.45 -16.25 Q-8.6 -16.85 -9.1 -17.15 L-9.35 -17.25 Q-10.0 -17.55 -10.7 -17.25 L-11.6 -16.35 Q-11.9 -15.6 -11.65 -14.95 L-10.55 -12.6 -11.35 -11.3 -11.8 -10.75 -12.25 -11.85" fill="url(#gradient0)" fill-rule="evenodd" stroke="none"/>
    <path d="M11.75 -18.3 L10.35 -15.9 11.85 -15.05 Q13.3 -14.1 14.2 -12.6 L15.15 -10.6 16.35 -12.55 Q16.75 -11.15 16.75 -9.6 L16.75 4.0 16.7 4.7 Q16.45 7.55 15.25 9.45 14.1 11.25 12.15 12.2 L13.45 10.8 15.25 9.45 12.05 8.6 12.05 8.55 Q14.85 5.3 14.95 1.25 15.1 -2.9 14.6 -4.1 L14.1 -4.75 13.4 -5.35 13.25 -5.4 13.35 -5.45 13.2 -5.6 12.7 -5.75 10.1 -5.7 Q8.95 -5.2 8.7 -2.5 9.4 4.65 4.65 7.35 3.75 8.5 3.6 9.45 L2.8 11.3 2.4 13.15 1.5 13.15 -4.25 13.05 -5.75 12.8 Q-7.95 12.3 -9.45 11.1 -11.45 9.5 -12.1 6.6 L-12.45 4.6 -12.5 -9.85 -12.25 -11.85 -11.8 -10.75 -11.35 -11.3 -10.55 -12.6 Q-9.45 -14.0 -7.9 -14.7 L-6.25 -15.35 -7.05 -17.4 -7.5 -18.3 Q-5.3 -19.6 -2.5 -19.6 L6.75 -19.6 Q9.5 -19.6 11.75 -18.3 M6.35 -6.8 Q6.8 -7.25 6.8 -7.9 6.8 -8.55 6.35 -9.0 L6.1 -9.2 5.25 -9.45 4.4 -9.2 4.15 -9.0 Q3.7 -8.55 3.7 -7.9 3.7 -7.25 4.15 -6.8 4.6 -6.35 5.25 -6.35 5.9 -6.35 6.35 -6.8 M4.1 -2.45 Q4.1 -4.5 2.6 -6.0 1.55 -7.05 0.25 -7.3 L-1.1 -7.5 -2.85 -7.5 Q-4.3 -7.5 -5.4 -6.8 L-5.25 -6.8 -6.3 -6.0 -6.85 -5.35 Q-7.75 -4.05 -7.75 -2.45 L-7.75 -1.55 Q-7.75 -0.45 -7.3 0.5 L-7.2 0.7 -6.3 1.95 Q-4.8 3.45 -2.75 3.45 L-0.9 3.45 Q1.15 3.45 2.6 1.95 4.1 0.5 4.1 -1.55 L4.1 -2.45 M-9.15 -6.8 Q-8.7 -6.35 -8.05 -6.35 -7.4 -6.35 -6.95 -6.8 -6.5 -7.25 -6.5 -7.9 -6.5 -8.55 -6.95 -9.0 L-7.05 -9.1 Q-7.5 -9.45 -8.05 -9.45 L-9.05 -9.1 -9.15 -9.0 Q-9.6 -8.55 -9.6 -7.9 -9.6 -7.25 -9.15 -6.8" fill="url(#gradient1)" fill-rule="evenodd" stroke="none"/>
    <path d="M11.85 -15.05 L12.65 -16.5 13.3 -17.2 13.65 -17.35 15.0 -17.15 15.8 -16.1 Q16.0 -15.35 15.65 -14.75 L14.2 -12.6 Q13.3 -14.1 11.85 -15.05 M-10.55 -12.6 L-11.65 -14.95 Q-11.9 -15.6 -11.6 -16.35 L-10.7 -17.25 Q-10.0 -17.55 -9.35 -17.25 L-9.1 -17.15 Q-8.6 -16.85 -8.45 -16.25 L-7.9 -14.7 Q-9.45 -14.0 -10.55 -12.6" fill="#e34a48" fill-rule="evenodd" stroke="none"/>
    <path d="M6.35 -6.8 Q5.9 -6.35 5.25 -6.35 4.6 -6.35 4.15 -6.8 3.7 -7.25 3.7 -7.9 3.7 -8.55 4.15 -9.0 L4.4 -9.2 5.25 -9.45 6.1 -9.2 6.35 -9.0 Q6.8 -8.55 6.8 -7.9 6.8 -7.25 6.35 -6.8 M0.45 0.2 L0.75 0.3 0.95 0.6 0.85 0.9 0.6 1.1 Q-2.1 1.45 -3.1 0.35 L-3.6 -0.25 -3.9 0.3 Q-4.55 1.25 -6.15 1.2 L-6.6 1.2 -6.9 1.05 -7.0 0.7 -6.85 0.35 -6.8 0.35 -6.5 0.3 Q-5.15 0.4 -4.65 -0.15 -4.35 -0.65 -4.2 -1.3 -4.65 -1.45 -4.85 -1.85 L-6.3 -4.3 -6.45 -5.25 Q-6.4 -5.75 -6.0 -6.05 -5.65 -6.4 -5.15 -6.4 L-2.25 -6.4 Q-1.75 -6.4 -1.4 -6.05 L-0.9 -5.25 -1.05 -4.35 -2.5 -1.9 -3.1 -1.35 -2.45 -0.25 Q-1.65 0.45 0.45 0.2 M-9.15 -6.8 Q-9.6 -7.25 -9.6 -7.9 -9.6 -8.55 -9.15 -9.0 L-9.05 -9.1 -8.05 -9.45 Q-7.5 -9.45 -7.05 -9.1 L-6.95 -9.0 Q-6.5 -8.55 -6.5 -7.9 -6.5 -7.25 -6.95 -6.8 -7.4 -6.35 -8.05 -6.35 -8.7 -6.35 -9.15 -6.8" fill="#511a38" fill-rule="evenodd" stroke="none"/>
    <path d="M4.1 -2.45 L4.1 -1.55 Q4.1 0.5 2.6 1.95 1.15 3.45 -0.9 3.45 L-2.75 3.45 Q-4.8 3.45 -6.3 1.95 L-7.2 0.7 -7.3 0.5 Q-7.75 -0.45 -7.75 -1.55 L-7.75 -2.45 Q-7.75 -4.05 -6.85 -5.35 L-6.3 -6.0 -5.25 -6.8 -5.4 -6.8 Q-4.3 -7.5 -2.85 -7.5 L-1.1 -7.5 0.25 -7.3 Q1.55 -7.05 2.6 -6.0 4.1 -4.5 4.1 -2.45 M0.45 0.2 Q-1.65 0.45 -2.45 -0.25 L-3.1 -1.35 -2.5 -1.9 -1.05 -4.35 -0.9 -5.25 -1.4 -6.05 Q-1.75 -6.4 -2.25 -6.4 L-5.15 -6.4 Q-5.65 -6.4 -6.0 -6.05 -6.4 -5.75 -6.45 -5.25 L-6.3 -4.3 -4.85 -1.85 Q-4.65 -1.45 -4.2 -1.3 -4.35 -0.65 -4.65 -0.15 -5.15 0.4 -6.5 0.3 L-6.8 0.35 -6.85 0.35 -7.0 0.7 -6.9 1.05 -6.6 1.2 -6.15 1.2 Q-4.55 1.25 -3.9 0.3 L-3.6 -0.25 -3.1 0.35 Q-2.1 1.45 0.6 1.1 L0.85 0.9 0.95 0.6 0.75 0.3 0.45 0.2" fill="#f67065" fill-rule="evenodd" stroke="none"/>
    <path d="M3.6 9.45 Q3.75 8.5 4.65 7.35 9.4 4.65 8.7 -2.5 8.95 -5.2 10.1 -5.7 L12.7 -5.75 13.2 -5.6 13.35 -5.45 13.25 -5.4 13.4 -5.35 14.1 -4.75 14.6 -4.1 Q15.1 -2.9 14.95 1.25 14.85 5.3 12.05 8.55 L12.05 8.6 9.05 11.6 8.1 12.35 5.4 12.4 Q4.3 11.85 3.75 10.65 3.5 10.1 3.6 9.45" fill="url(#gradient2)" fill-rule="evenodd" stroke="none"/>
    <path d="M12.15 12.2 Q11.0 13.55 10.55 14.85 9.9 16.6 10.25 18.75 L10.25 18.8 10.25 18.85 10.3 19.0 10.25 18.95 10.25 19.05 10.3 19.05 10.5 20.0 0.2 20.0 2.75 18.5 2.55 17.0 2.35 15.85 Q2.15 14.85 2.3 13.7 L2.4 13.15 2.8 11.3 3.6 9.45 Q3.5 10.1 3.75 10.65 4.3 11.85 5.4 12.4 L8.1 12.35 9.05 11.6 12.05 8.6 15.25 9.45 13.45 10.8 12.15 12.2" fill="url(#gradient3)" fill-rule="evenodd" stroke="none"/>
    <path d="M2.55 17.0 L-0.85 19.55 -4.9 20.05 -2.3 18.05 -4.75 17.7 Q-6.35 17.35 -7.2 16.65 L-8.3 15.1 -9.25 12.05 -9.45 11.1 Q-7.95 12.3 -5.75 12.8 L-4.25 13.05 1.5 13.15 2.3 13.7 Q2.15 14.85 2.35 15.85 L2.55 17.0" fill="url(#gradient4)" fill-rule="evenodd" stroke="none"/>
    <path d="M10.25 18.75 L10.25 18.7 10.3 18.75 10.25 18.8 10.25 18.75" fill="url(#gradient5)" fill-rule="evenodd" stroke="none"/>
    <path d="M-9.25 12.05 L-9.45 12.15 Q-10.6 12.9 -11.8 12.4 -13.05 11.95 -13.6 10.4 -14.25 8.95 -12.1 6.6 -11.45 9.5 -9.45 11.1 L-9.25 12.05" fill="url(#gradient6)" fill-rule="evenodd" stroke="none"/>
  </g>
  <defs>
    <linearGradient gradientTransform="matrix(0.0, 0.0067, -0.004, 0.0, -10.1, 2.6)" gradientUnits="userSpaceOnUse" id="gradient0" spreadMethod="pad" x1="-819.2" x2="819.2">
      <stop offset="0.0" stop-color="#ac3d4f"/>
      <stop offset="0.7372549019607844" stop-color="#76334e"/>
    </linearGradient>
    <linearGradient gradientTransform="matrix(0.0, 0.0187, -0.0179, 0.0, 2.15, -3.05)" gradientUnits="userSpaceOnUse" id="gradient1" spreadMethod="pad" x1="-819.2" x2="819.2">
      <stop offset="0.0" stop-color="#f15341"/>
      <stop offset="0.2823529411764706" stop-color="#d04050"/>
      <stop offset="0.8666666666666667" stop-color="#92474f"/>
    </linearGradient>
    <linearGradient gradientTransform="matrix(-0.0026, 0.0065, -0.0037, -0.0015, 9.9, 1.45)" gradientUnits="userSpaceOnUse" id="gradient2" spreadMethod="pad" x1="-819.2" x2="819.2">
      <stop offset="0.0" stop-color="#c54150"/>
      <stop offset="0.7333333333333333" stop-color="#ec5044"/>
    </linearGradient>
    <linearGradient gradientTransform="matrix(0.0057, 0.0057, -0.0078, 0.0078, 6.35, 13.3)" gradientUnits="userSpaceOnUse" id="gradient3" spreadMethod="pad" x1="-819.2" x2="819.2">
      <stop offset="0.5254901960784314" stop-color="#a5444f"/>
      <stop offset="1.0" stop-color="#7c384b"/>
    </linearGradient>
    <linearGradient gradientTransform="matrix(0.0034, 0.0045, -0.0054, 0.004, -1.85, 12.7)" gradientUnits="userSpaceOnUse" id="gradient4" spreadMethod="pad" x1="-819.2" x2="819.2">
      <stop offset="0.0" stop-color="#9c414e"/>
      <stop offset="0.5215686274509804" stop-color="#79374b"/>
    </linearGradient>
    <linearGradient gradientTransform="matrix(0.0062, -7.0E-4, 0.0012, 0.0105, 6.85, 15.0)" gradientUnits="userSpaceOnUse" id="gradient5" spreadMethod="pad" x1="-819.2" x2="819.2">
      <stop offset="0.5254901960784314" stop-color="#a5444f"/>
      <stop offset="1.0" stop-color="#7c384b"/>
    </linearGradient>
    <linearGradient gradientTransform="matrix(0.0021, 0.0063, -0.0037, 0.0013, -7.9, 2.4)" gradientUnits="userSpaceOnUse" id="gradient6" spreadMethod="pad" x1="-819.2" x2="819.2">
      <stop offset="0.0" stop-color="#ac3d4f"/>
      <stop offset="0.7372549019607844" stop-color="#76334e"/>
    </linearGradient>
  </defs>
</svg>
