<?xml version="1.0" encoding="UTF-8" standalone="no"?>
<svg xmlns:ffdec="https://www.free-decompiler.com/flash" xmlns:xlink="http://www.w3.org/1999/xlink" ffdec:objectType="shape" height="49.0px" width="39.25px" xmlns="http://www.w3.org/2000/svg">
  <g transform="matrix(1.0, 0.0, 0.0, 1.0, 19.6, 24.5)">
    <path d="M11.2 -16.2 L11.25 -16.2 Q17.65 -15.45 17.65 -8.15 L17.55 16.05 16.45 19.45 Q14.65 22.45 9.85 22.5 L-10.1 22.5 Q-17.6 22.3 -17.6 14.35 L-17.6 -8.15 Q-17.6 -10.25 -17.1 -11.85 -15.75 -15.65 -11.25 -16.2 L-11.25 -22.5 11.2 -22.5 11.2 -16.2 Z" fill="none" stroke="#ffffcc" stroke-linecap="butt" stroke-linejoin="miter-clip" stroke-miterlimit="3.0" stroke-width="4.0"/>
    <path d="M11.2 -16.2 L11.25 -16.2 Q17.65 -15.45 17.65 -8.15 L17.55 16.05 16.45 19.45 Q14.65 22.45 9.85 22.5 L-10.1 22.5 Q-17.6 22.3 -17.6 14.35 L-17.6 -8.15 Q-17.6 -10.25 -17.1 -11.85 -15.75 -15.65 -11.25 -16.2 L-9.8 -16.35 10.0 -16.35 11.2 -16.2 M-13.1 -11.25 L-11.9 -12.45 -13.1 -11.25 M14.95 14.55 L14.95 -7.65 14.95 14.55" fill="url(#gradient0)" fill-rule="evenodd" stroke="none"/>
    <path d="M-11.25 -16.2 L-11.25 -22.5 11.2 -22.5 11.2 -16.2 10.0 -16.35 -9.8 -16.35 -11.25 -16.2" fill="#6a2d37" fill-rule="evenodd" stroke="none"/>
    <path d="M14.95 -7.65 L14.95 14.55 M-11.9 -12.45 L-13.1 -11.25" fill="none" stroke="#fbd27d" stroke-linecap="round" stroke-linejoin="round" stroke-width="2.0"/>
  </g>
  <defs>
    <linearGradient gradientTransform="matrix(0.0161, 0.0, 0.0, -0.0237, -1.2, 3.1)" gradientUnits="userSpaceOnUse" id="gradient0" spreadMethod="pad" x1="-819.2" x2="819.2">
      <stop offset="0.0" stop-color="#c15e1d"/>
      <stop offset="0.6392156862745098" stop-color="#c57012"/>
      <stop offset="1.0" stop-color="#e7890a"/>
    </linearGradient>
  </defs>
</svg>
