<?xml version="1.0" encoding="UTF-8" standalone="no"?>
<svg xmlns:ffdec="https://www.free-decompiler.com/flash" xmlns:xlink="http://www.w3.org/1999/xlink" ffdec:objectType="shape" height="16.8px" width="13.15px" xmlns="http://www.w3.org/2000/svg">
  <g transform="matrix(1.0, 0.0, 0.0, 1.0, 13.2, 20.0)">
    <path d="M-1.05 -4.15 L-3.7 -3.7 -3.75 -3.7 -6.25 -3.2 -6.4 -3.2 -6.9 -3.7 -7.85 -4.9 -8.2 -5.4 -8.6 -5.95 -10.35 -7.95 -10.85 -8.35 -11.0 -8.55 Q-12.5 -9.65 -13.0 -12.1 -13.5 -14.45 -12.85 -16.35 -12.35 -17.95 -10.95 -19.0 -9.55 -20.1 -7.9 -20.0 -4.5 -19.9 -2.7 -17.4 -0.95 -14.9 -0.3 -11.4 0.3 -7.95 -0.6 -5.3 L-1.05 -4.15" fill="url(#gradient0)" fill-rule="evenodd" stroke="none"/>
    <path d="M-9.55 -12.5 Q-10.25 -12.45 -10.55 -13.5 -10.85 -15.3 -9.85 -14.9 L-9.55 -14.5 -9.5 -14.1 -9.1 -13.35 Q-8.95 -12.6 -9.55 -12.5" fill="#66ff98" fill-rule="evenodd" stroke="none"/>
    <path d="M-8.25 -13.85 Q-8.6 -15.7 -7.55 -15.25 L-7.3 -14.9 -7.2 -14.45 -6.8 -13.75 Q-6.65 -13.0 -7.3 -12.9 -8.0 -12.8 -8.25 -13.85" fill="#66ff98" fill-rule="evenodd" stroke="none"/>
  </g>
  <defs>
    <linearGradient gradientTransform="matrix(0.0013, 0.0049, -0.0072, 0.0019, -5.6, -7.75)" gradientUnits="userSpaceOnUse" id="gradient0" spreadMethod="pad" x1="-819.2" x2="819.2">
      <stop offset="0.0" stop-color="#4b6560"/>
      <stop offset="1.0" stop-color="#57ae7a"/>
    </linearGradient>
  </defs>
</svg>
