<?xml version="1.0" encoding="UTF-8" standalone="no"?>
<svg xmlns:ffdec="https://www.free-decompiler.com/flash" xmlns:xlink="http://www.w3.org/1999/xlink" ffdec:objectType="shape" height="23.45px" width="19.85px" xmlns="http://www.w3.org/2000/svg">
  <g transform="matrix(1.0, 0.0, 0.0, 1.0, 9.95, 12.0)">
    <path d="M9.75 -0.2 Q10.25 2.85 8.85 6.0 6.8 10.35 1.7 11.25 -4.65 12.4 -7.9 7.45 -9.5 4.75 -9.75 3.25 -10.6 -1.45 -8.05 -4.75 L-5.75 -6.8 -5.85 -6.95 -5.65 -7.05 Q-4.8 -7.6 -4.55 -8.55 -4.35 -9.3 -4.55 -10.3 L-4.6 -10.55 -2.25 -11.0 -2.2 -11.0 0.1 -11.4 0.2 -11.1 Q0.55 -9.05 1.95 -8.55 L2.55 -8.4 2.55 -8.3 Q4.05 -7.95 5.45 -7.1 L5.55 -7.05 Q8.9 -4.85 9.75 -0.2 M0.1 4.0 Q-0.15 3.1 -0.9 2.6 -1.7 2.0 -2.7 2.2 -3.65 2.4 -4.25 3.2 L-4.6 4.0 -4.7 4.4 -4.7 4.85 -4.7 4.4 -4.6 4.0 -2.25 -11.0 -4.6 4.0 -4.25 3.2 Q-3.65 2.4 -2.7 2.2 -1.7 2.0 -0.9 2.6 -0.15 3.1 0.1 4.0 M5.1 2.0 L4.6 1.65 Q3.75 1.05 2.8 1.25 1.8 1.4 1.25 2.2 0.7 3.0 0.7 3.9 0.7 3.0 1.25 2.2 1.8 1.4 2.8 1.25 3.75 1.05 4.6 1.65 L5.1 2.0 -2.2 -11.0 5.1 2.0 5.5 2.8 5.6 3.05 5.5 2.8 5.1 2.0" fill="#fff8ff" fill-rule="evenodd" stroke="none"/>
    <path d="M-2.2 -11.0 L5.1 2.0 5.5 2.8 5.6 3.05 M0.7 3.9 Q0.7 3.0 1.25 2.2 1.8 1.4 2.8 1.25 3.75 1.05 4.6 1.65 L5.1 2.0 M-4.7 4.85 L-4.7 4.4 -4.6 4.0 -2.25 -11.0 M-4.6 4.0 L-4.25 3.2 Q-3.65 2.4 -2.7 2.2 -1.7 2.0 -0.9 2.6 -0.15 3.1 0.1 4.0" fill="none" stroke="#ffffff" stroke-linecap="butt" stroke-linejoin="miter-clip" stroke-miterlimit="3.0" stroke-width="2.0"/>
  </g>
</svg>
