<?xml version="1.0" encoding="UTF-8" standalone="no"?>
<svg xmlns:ffdec="https://www.free-decompiler.com/flash" xmlns:xlink="http://www.w3.org/1999/xlink" ffdec:objectType="shape" height="15.9px" width="12.4px" xmlns="http://www.w3.org/2000/svg">
  <g transform="matrix(1.0, 0.0, 0.0, 1.0, 12.95, 18.4)">
    <path d="M-1.5 -3.4 L-4.0 -2.95 -4.05 -2.95 -6.4 -2.5 -6.55 -2.5 -7.0 -2.95 -7.9 -4.1 -8.25 -4.6 -8.6 -5.1 -10.3 -7.0 -10.7 -7.35 -10.9 -7.55 Q-12.3 -8.6 -12.75 -10.95 -13.2 -13.1 -12.65 -14.95 -12.15 -16.45 -10.85 -17.45 -9.5 -18.5 -7.95 -18.4 -4.7 -18.3 -3.0 -15.95 -1.35 -13.6 -0.75 -10.25 -0.2 -7.0 -1.05 -4.45 L-1.5 -3.4" fill="url(#gradient0)" fill-rule="evenodd" stroke="none"/>
    <path d="M-9.5 -11.3 Q-10.2 -11.25 -10.45 -12.25 -10.75 -13.95 -9.8 -13.55 L-9.5 -13.2 -9.45 -12.8 -9.05 -12.1 Q-8.9 -11.4 -9.5 -11.3" fill="#66ff98" fill-rule="evenodd" stroke="none"/>
    <path d="M-8.3 -12.6 Q-8.6 -14.3 -7.65 -13.9 L-7.35 -13.55 -7.3 -13.15 -6.9 -12.45 Q-6.75 -11.75 -7.35 -11.65 -8.05 -11.6 -8.3 -12.6" fill="#66ff98" fill-rule="evenodd" stroke="none"/>
  </g>
  <defs>
    <linearGradient gradientTransform="matrix(0.0012, 0.0046, -0.0068, 0.0018, -5.75, -6.8)" gradientUnits="userSpaceOnUse" id="gradient0" spreadMethod="pad" x1="-819.2" x2="819.2">
      <stop offset="0.0" stop-color="#4b6560"/>
      <stop offset="1.0" stop-color="#57ae7a"/>
    </linearGradient>
  </defs>
</svg>
