<?xml version="1.0" encoding="UTF-8" standalone="no"?>
<svg xmlns:ffdec="https://www.free-decompiler.com/flash" xmlns:xlink="http://www.w3.org/1999/xlink" ffdec:objectType="shape" height="66.8px" width="214.5px" xmlns="http://www.w3.org/2000/svg">
  <g transform="matrix(1.0, 0.0, 0.0, 1.0, 215.1, 0.0)">
    <path d="M-10.35 0.0 Q-10.35 9.75 -0.6 9.75 L-0.6 57.05 Q-10.35 57.05 -10.35 66.8 L-205.35 66.8 Q-205.35 58.2 -212.9 57.2 L-215.1 57.05 -215.1 9.75 -212.9 9.6 Q-205.35 8.6 -205.35 0.0 L-10.35 0.0 M-159.9 11.0 L-159.9 56.0 -159.9 11.0 M-186.15 18.15 L-189.9 28.85 -201.2 29.1 -192.25 36.0 -195.45 46.8 -186.15 40.35 -176.9 46.8 -180.1 36.0 -171.1 29.1 -182.35 28.85 -186.15 18.15" fill="#f7f4d2" fill-rule="evenodd" stroke="none"/>
    <path d="M-159.9 56.0 L-159.9 11.0" fill="none" stroke="#4d666b" stroke-linecap="square" stroke-linejoin="miter-clip" stroke-miterlimit="3.0" stroke-width="3.0"/>
    <path d="M-165.5 34.45 Q-165.5 42.55 -171.25 48.25 -176.95 54.0 -185.05 54.0 -193.15 54.0 -198.9 48.25 -204.6 42.55 -204.6 34.45 -204.6 26.35 -198.9 20.6 -193.15 14.9 -185.05 14.9 -176.95 14.9 -171.25 20.6 -165.5 26.35 -165.5 34.45" fill="#dad596" fill-rule="evenodd" stroke="none"/>
  </g>
</svg>
