<?xml version="1.0" encoding="UTF-8" standalone="no"?>
<svg xmlns:ffdec="https://www.free-decompiler.com/flash" xmlns:xlink="http://www.w3.org/1999/xlink" ffdec:objectType="shape" height="18.65px" width="21.0px" xmlns="http://www.w3.org/2000/svg">
  <g transform="matrix(1.0, 0.0, 0.0, 1.0, 10.6, 9.05)">
    <path d="M-9.95 6.1 Q-3.1 10.9 6.9 7.55" fill="none" stroke="#000000" stroke-linecap="square" stroke-linejoin="round" stroke-opacity="0.24705882" stroke-width="1.0"/>
    <path d="M3.45 8.55 Q3.85 2.7 -0.15 -1.7 L-0.3 -1.85 1.1 -1.55 Q3.5 -0.8 5.2 1.25 7.4 3.9 7.2 7.35 5.3 8.3 3.45 8.55" fill="url(#gradient0)" fill-rule="evenodd" stroke="none"/>
    <path d="M-0.3 -1.85 L-0.15 -1.7 Q3.85 2.7 3.45 8.55 -1.65 9.65 -6.45 7.95 -6.2 1.45 -0.3 -1.85" fill="url(#gradient1)" fill-rule="evenodd" stroke="none"/>
    <path d="M-6.45 7.95 Q-8.55 7.15 -10.35 5.7 -9.85 2.3 -7.2 0.1 -4.4 -2.2 -0.75 -1.85 L-0.3 -1.85 Q-6.2 1.45 -6.45 7.95" fill="url(#gradient2)" fill-rule="evenodd" stroke="none"/>
    <path d="M-0.3 -1.85 L0.2 -6.4" fill="none" stroke="#e84a61" stroke-linecap="round" stroke-linejoin="round" stroke-width="1.0"/>
    <path d="M-0.85 -6.4 L-4.35 -6.2 Q-6.55 -6.45 -8.2 -7.15 -9.7 -7.65 -9.7 -8.2 -9.6 -8.75 -8.05 -8.95 L-4.15 -8.9 Q-1.95 -8.6 -0.9 -7.75 0.1 -6.95 0.5 -6.85 L2.3 -7.2 5.75 -7.5 9.1 -6.8 Q10.5 -6.3 10.4 -5.75 10.4 -5.2 8.75 -5.1 7.2 -4.8 4.95 -5.1 2.7 -5.4 1.05 -6.3 L0.2 -6.75 -0.1 -6.85 0.15 -6.75 -0.85 -6.4" fill="url(#gradient3)" fill-rule="evenodd" stroke="none"/>
  </g>
  <defs>
    <linearGradient gradientTransform="matrix(0.0051, 5.0E-4, -5.0E-4, 0.0058, 3.4, 3.3)" gradientUnits="userSpaceOnUse" id="gradient0" spreadMethod="pad" x1="-819.2" x2="819.2">
      <stop offset="0.0" stop-color="#ff123c"/>
      <stop offset="1.0" stop-color="#91485b"/>
    </linearGradient>
    <linearGradient gradientTransform="matrix(0.0059, 5.0E-4, -6.0E-4, 0.0062, -1.25, 3.15)" gradientUnits="userSpaceOnUse" id="gradient1" spreadMethod="pad" x1="-819.2" x2="819.2">
      <stop offset="0.0" stop-color="#f7f4d2"/>
      <stop offset="1.0" stop-color="#dad596"/>
    </linearGradient>
    <linearGradient gradientTransform="matrix(0.0056, 5.0E-4, -5.0E-4, 0.0059, -5.4, 2.5)" gradientUnits="userSpaceOnUse" id="gradient2" spreadMethod="pad" x1="-819.2" x2="819.2">
      <stop offset="0.0" stop-color="#ff123c"/>
      <stop offset="1.0" stop-color="#91485b"/>
    </linearGradient>
    <linearGradient gradientTransform="matrix(0.0122, 0.0015, -1.0E-4, 0.0016, 0.4, -7.05)" gradientUnits="userSpaceOnUse" id="gradient3" spreadMethod="pad" x1="-819.2" x2="819.2">
      <stop offset="0.0" stop-color="#ff123c"/>
      <stop offset="1.0" stop-color="#91485b"/>
    </linearGradient>
  </defs>
</svg>
