<?xml version="1.0" encoding="UTF-8" standalone="no"?>
<svg xmlns:ffdec="https://www.free-decompiler.com/flash" xmlns:xlink="http://www.w3.org/1999/xlink" ffdec:objectType="shape" height="24.15px" width="30.7px" xmlns="http://www.w3.org/2000/svg">
  <g transform="matrix(1.0, 0.0, 0.0, 1.0, 15.35, 12.1)">
    <path d="M5.9 -7.2 L5.8 -7.3 Q5.35 -7.75 5.35 -8.4 5.35 -8.95 5.8 -9.45 6.3 -9.85 6.95 -9.85 7.65 -9.85 8.15 -9.45 L8.6 -8.4 Q8.6 -7.75 8.15 -7.3 7.75 -7.0 7.3 -6.85 L6.95 -6.85 Q6.35 -6.85 5.9 -7.2" fill="url(#gradient0)" fill-rule="evenodd" stroke="none"/>
    <path d="M-1.15 -9.3 L-1.45 -9.55 Q-1.95 -9.95 -1.95 -10.6 -1.95 -11.2 -1.45 -11.65 -1.0 -12.1 -0.3 -12.1 0.35 -12.1 0.85 -11.65 1.35 -11.2 1.35 -10.6 1.35 -9.95 0.85 -9.55 L0.55 -9.3 -0.3 -9.1 -1.15 -9.3" fill="url(#gradient1)" fill-rule="evenodd" stroke="none"/>
    <path d="M7.3 -6.85 L8.25 -2.95 Q6.5 -1.8 5.1 -0.4 L3.6 -4.25 Q4.55 -5.9 5.9 -7.2 6.35 -6.85 6.95 -6.85 L7.3 -6.85 M12.3 -5.05 L12.4 -5.1 12.55 -4.9 12.3 -5.05 M-8.5 -3.05 Q-8.25 -5.25 -7.5 -6.85 L-7.2 -6.85 Q-6.6 -6.85 -6.15 -7.2 L-3.85 -4.0 -5.05 -0.3 Q-6.65 -1.85 -8.5 -3.05 M7.5 -3.25 Q7.45 -5.0 6.8 -6.2 L6.75 -6.3 6.65 -6.3 6.55 -6.2 6.55 -6.1 Q7.2 -4.95 7.2 -3.25 L7.25 -3.15 7.35 -3.15 7.45 -3.15 7.5 -3.25 M-4.4 -3.95 L-6.15 -6.3 -6.25 -6.4 -6.35 -6.35 -6.4 -6.3 -6.4 -6.15 -4.65 -3.8 -4.55 -3.75 -4.45 -3.75 -4.4 -3.85 -4.4 -3.95" fill="#c0ac0a" fill-rule="evenodd" stroke="none"/>
    <path d="M7.5 -3.25 L7.45 -3.15 7.35 -3.15 7.25 -3.15 7.2 -3.25 Q7.2 -4.95 6.55 -6.1 L6.55 -6.2 6.65 -6.3 6.75 -6.3 6.8 -6.2 Q7.45 -5.0 7.5 -3.25 M4.1 -0.5 L4.1 -0.4 4.0 -0.35 3.95 -0.35 3.85 -0.45 Q2.9 -4.9 0.4 -7.8 L0.35 -7.9 0.4 -8.0 0.5 -8.0 0.6 -7.95 Q3.15 -4.95 4.1 -0.5 M10.65 7.3 L10.6 7.35 10.5 7.35 10.4 7.3 10.4 7.2 Q12.25 1.9 12.85 -3.95 L12.9 -4.0 13.0 -4.05 13.1 -4.0 13.15 -3.9 Q12.55 1.95 10.65 7.3 M10.4 9.05 L10.5 9.05 10.55 9.15 10.5 9.2 10.45 9.25 Q0.0 10.3 -10.45 9.25 L-10.55 9.2 -10.55 9.15 -10.5 9.05 -10.4 9.05 Q0.0 10.1 10.4 9.05 M-5.65 0.1 L-5.6 0.15 -5.65 0.25 -5.75 0.25 -5.8 0.25 Q-8.35 -2.35 -11.65 -3.85 L-11.75 -3.85 -11.75 -3.95 -11.65 -4.05 -11.55 -4.05 Q-8.2 -2.55 -5.65 0.1 M-4.4 -3.95 L-4.4 -3.85 -4.45 -3.75 -4.55 -3.75 -4.65 -3.8 -6.4 -6.15 -6.4 -6.3 -6.35 -6.35 -6.25 -6.4 -6.15 -6.3 -4.4 -3.95" fill="#f7f4d2" fill-rule="evenodd" stroke="none"/>
    <path d="M8.25 -2.95 Q10.1 -4.2 12.3 -5.05 L12.55 -4.9 Q13.05 -4.45 13.75 -4.45 13.25 1.6 11.3 8.2 -0.4 9.9 -10.9 8.25 -12.8 1.55 -13.6 -4.25 -13.0 -4.3 -12.55 -4.7 L-12.3 -5.05 -12.1 -4.95 Q-10.2 -4.15 -8.5 -3.05 -6.65 -1.85 -5.05 -0.3 L-3.85 -4.0 Q-2.8 -6.95 -1.15 -9.3 L-0.3 -9.1 0.55 -9.3 Q2.35 -6.9 3.6 -4.25 L5.1 -0.4 Q6.5 -1.8 8.25 -2.95 M4.1 -0.5 Q3.15 -4.95 0.6 -7.95 L0.5 -8.0 0.4 -8.0 0.35 -7.9 0.4 -7.8 Q2.9 -4.9 3.85 -0.45 L3.95 -0.35 4.0 -0.35 4.1 -0.4 4.1 -0.5 M10.65 7.3 Q12.55 1.95 13.15 -3.9 L13.1 -4.0 13.0 -4.05 12.9 -4.0 12.85 -3.95 Q12.25 1.9 10.4 7.2 L10.4 7.3 10.5 7.35 10.6 7.35 10.65 7.3 M-5.65 0.1 Q-8.2 -2.55 -11.55 -4.05 L-11.65 -4.05 -11.75 -3.95 -11.75 -3.85 -11.65 -3.85 Q-8.35 -2.35 -5.8 0.25 L-5.75 0.25 -5.65 0.25 -5.6 0.15 -5.65 0.1" fill="url(#gradient2)" fill-rule="evenodd" stroke="none"/>
    <path d="M12.4 -5.1 Q12.1 -5.45 12.1 -5.95 12.1 -6.6 12.55 -7.0 13.05 -7.45 13.75 -7.45 14.45 -7.45 14.9 -7.0 15.35 -6.6 15.35 -5.95 15.35 -5.35 14.9 -4.9 14.45 -4.45 13.75 -4.45 13.05 -4.45 12.55 -4.9 L12.4 -5.1" fill="url(#gradient3)" fill-rule="evenodd" stroke="none"/>
    <path d="M11.3 8.2 Q12.7 9.45 11.8 11.25 -0.1 12.85 -11.75 11.25 -12.0 9.4 -10.9 8.25 -0.4 9.9 11.3 8.2 M10.4 9.05 Q0.0 10.1 -10.4 9.05 L-10.5 9.05 -10.55 9.15 -10.55 9.2 -10.45 9.25 Q0.0 10.3 10.45 9.25 L10.5 9.2 10.55 9.15 10.5 9.05 10.4 9.05" fill="url(#gradient4)" fill-rule="evenodd" stroke="none"/>
    <path d="M-13.6 -4.25 L-13.75 -4.25 Q-14.4 -4.25 -14.9 -4.7 -15.35 -5.15 -15.35 -5.75 -15.35 -6.4 -14.9 -6.8 -14.4 -7.25 -13.75 -7.25 -13.05 -7.25 -12.55 -6.8 -12.1 -6.4 -12.1 -5.75 L-12.3 -5.05 -12.55 -4.7 Q-13.0 -4.3 -13.6 -4.25" fill="url(#gradient5)" fill-rule="evenodd" stroke="none"/>
    <path d="M-7.5 -6.85 Q-8.0 -6.95 -8.35 -7.3 -8.85 -7.75 -8.85 -8.4 L-8.35 -9.45 Q-7.9 -9.85 -7.2 -9.85 -6.5 -9.85 -6.05 -9.45 -5.55 -8.95 -5.55 -8.4 -5.55 -7.75 -6.05 -7.3 L-6.15 -7.2 Q-6.6 -6.85 -7.2 -6.85 L-7.5 -6.85" fill="url(#gradient6)" fill-rule="evenodd" stroke="none"/>
  </g>
  <defs>
    <linearGradient gradientTransform="matrix(0.002, 0.0, 0.0, 0.0018, 6.9, -8.3)" gradientUnits="userSpaceOnUse" id="gradient0" spreadMethod="pad" x1="-819.2" x2="819.2">
      <stop offset="0.0" stop-color="#ff123c"/>
      <stop offset="1.0" stop-color="#91485b"/>
    </linearGradient>
    <linearGradient gradientTransform="matrix(0.002, 0.0, 0.0, 0.0018, -0.25, -10.5)" gradientUnits="userSpaceOnUse" id="gradient1" spreadMethod="pad" x1="-819.2" x2="819.2">
      <stop offset="0.0" stop-color="#ff123c"/>
      <stop offset="1.0" stop-color="#91485b"/>
    </linearGradient>
    <linearGradient gradientTransform="matrix(0.0167, 0.0, 0.0, 0.0112, 0.1, -0.05)" gradientUnits="userSpaceOnUse" id="gradient2" spreadMethod="pad" x1="-819.2" x2="819.2">
      <stop offset="0.0" stop-color="#c0ac0a"/>
      <stop offset="1.0" stop-color="#ffe40d"/>
    </linearGradient>
    <linearGradient gradientTransform="matrix(0.002, 0.0, 0.0, 0.0018, 13.65, -5.9)" gradientUnits="userSpaceOnUse" id="gradient3" spreadMethod="pad" x1="-819.2" x2="819.2">
      <stop offset="0.0" stop-color="#ff123c"/>
      <stop offset="1.0" stop-color="#91485b"/>
    </linearGradient>
    <linearGradient gradientTransform="matrix(0.0146, 0.0, 0.0, 0.0023, 0.2, 10.05)" gradientUnits="userSpaceOnUse" id="gradient4" spreadMethod="pad" x1="-819.2" x2="819.2">
      <stop offset="0.0" stop-color="#c0ac0a"/>
      <stop offset="1.0" stop-color="#ffe40d"/>
    </linearGradient>
    <linearGradient gradientTransform="matrix(0.002, 0.0, 0.0, 0.0018, -13.65, -5.7)" gradientUnits="userSpaceOnUse" id="gradient5" spreadMethod="pad" x1="-819.2" x2="819.2">
      <stop offset="0.0" stop-color="#ff123c"/>
      <stop offset="1.0" stop-color="#91485b"/>
    </linearGradient>
    <linearGradient gradientTransform="matrix(0.002, 0.0, 0.0, 0.0018, -7.1, -8.3)" gradientUnits="userSpaceOnUse" id="gradient6" spreadMethod="pad" x1="-819.2" x2="819.2">
      <stop offset="0.0" stop-color="#ff123c"/>
      <stop offset="1.0" stop-color="#91485b"/>
    </linearGradient>
  </defs>
</svg>
