<?xml version="1.0" encoding="UTF-8" standalone="no"?>
<svg xmlns:ffdec="https://www.free-decompiler.com/flash" xmlns:xlink="http://www.w3.org/1999/xlink" ffdec:objectType="shape" height="25.55px" width="14.65px" xmlns="http://www.w3.org/2000/svg">
  <g transform="matrix(1.0, 0.0, 0.0, 1.0, 7.3, 12.45)">
    <path d="M-6.65 11.1 Q-0.05 13.9 6.7 10.95" fill="none" stroke="#000000" stroke-linecap="square" stroke-linejoin="round" stroke-opacity="0.24705882" stroke-width="1.0"/>
    <path d="M4.2 0.15 L5.1 2.45 Q-0.15 6.3 -6.55 8.15 L-5.8 5.2 Q-0.3 3.35 4.2 0.15 M6.05 5.5 L6.7 8.0 Q3.65 10.5 -0.1 12.3 L-4.95 11.65 Q0.85 9.1 6.05 5.5 M-4.65 1.5 L-3.1 -2.25 Q-0.45 -3.05 1.6 -4.8 L2.95 -2.5 Q-0.5 -0.05 -4.65 1.5" fill="#f7f4d2" fill-rule="evenodd" stroke="none"/>
    <path d="M2.95 -2.5 L4.2 0.15 Q-0.3 3.35 -5.8 5.2 L-4.65 1.5 Q-0.5 -0.05 2.95 -2.5 M5.1 2.45 L6.05 5.5 Q0.85 9.1 -4.95 11.65 L-6.2 11.25 -7.15 10.9 -6.55 8.15 Q-0.15 6.3 5.1 2.45 M6.7 8.0 L7.2 10.8 4.95 11.55 -0.1 12.3 Q3.65 10.5 6.7 8.0 M-3.1 -2.25 Q-1.75 -5.1 -0.15 -7.25 L1.6 -4.8 Q-0.45 -3.05 -3.1 -2.25" fill="url(#gradient0)" fill-rule="evenodd" stroke="none"/>
    <path d="M-4.7 -8.05 L-5.1 -8.45 -4.5 -8.65 -4.85 -9.05 -4.3 -9.15 -4.6 -9.7 -4.0 -9.7 -4.25 -10.25 -3.65 -10.15 -3.85 -10.75 -3.25 -10.6 -3.35 -11.2 -2.8 -11.0 -2.85 -11.6 -2.3 -11.3 -2.25 -11.95 -1.75 -11.55 -1.65 -12.2 -1.2 -11.75 -1.0 -12.35 -0.6 -11.85 -0.35 -12.4 -0.05 -11.9 0.25 -12.45 0.5 -11.9 0.9 -12.4 1.1 -11.8 1.55 -12.2 1.65 -11.6 2.15 -11.95 2.2 -11.35 2.7 -11.7 2.65 -11.05 3.25 -11.3 3.1 -10.7 3.65 -10.85 3.5 -10.25 4.1 -10.35 3.85 -9.8 4.45 -9.75 4.1 -9.25 4.7 -9.2 4.35 -8.7 4.9 -8.55 4.45 -8.15 5.05 -7.9 4.55 -7.55 5.05 -7.25 4.5 -7.0 5.0 -6.6 4.45 -6.4 4.85 -6.0 4.3 -5.8 4.65 -5.3 4.1 -5.25 4.4 -4.75 3.75 -4.7 4.0 -4.15 3.4 -4.2 3.6 -3.65 3.05 -3.85 3.15 -3.2 2.55 -3.45 2.6 -2.85 2.1 -3.1 2.05 -2.5 1.55 -2.85 1.45 -2.25 1.0 -2.65 0.8 -2.1 0.4 -2.55 0.15 -2.0 -0.15 -2.5 -0.5 -2.0 -0.75 -2.55 -1.1 -2.05 -1.3 -2.65 -1.75 -2.2 -1.85 -2.8 -2.35 -2.45 -2.4 -3.05 -2.9 -2.75 -2.9 -3.35 -3.45 -3.1 -3.3 -3.75 -3.9 -3.6 -3.75 -4.2 -4.3 -4.1 -4.1 -4.65 -4.7 -4.65 -4.35 -5.15 -4.95 -5.25 -4.55 -5.7 -5.1 -5.9 -4.7 -6.25 -5.25 -6.5 -4.75 -6.85 -5.3 -7.2 -4.75 -7.45 -5.25 -7.8 -4.7 -8.05" fill="#e84a61" fill-rule="evenodd" stroke="none"/>
  </g>
  <defs>
    <linearGradient gradientTransform="matrix(0.4034, 0.0, 0.0, 0.4034, 30.3, 19.25)" gradientUnits="userSpaceOnUse" id="gradient0" spreadMethod="pad" x1="-819.2" x2="819.2">
      <stop offset="0.0" stop-color="#ff123c"/>
      <stop offset="1.0" stop-color="#91485b"/>
    </linearGradient>
  </defs>
</svg>
