<?xml version="1.0" encoding="UTF-8" standalone="no"?>
<svg xmlns:ffdec="https://www.free-decompiler.com/flash" xmlns:xlink="http://www.w3.org/1999/xlink" ffdec:objectType="shape" height="21.85px" width="27.7px" xmlns="http://www.w3.org/2000/svg">
  <g transform="matrix(1.0, 0.0, 0.0, 1.0, 13.45, 10.2)">
    <path d="M-5.9 -3.55 Q-7.6 0.35 -2.0 -1.2 1.65 -2.4 3.05 -5.4 L4.5 -4.9 Q5.8 -4.5 5.95 -0.85 -5.9 4.45 -11.15 9.4 -10.95 6.4 -10.05 3.75 -9.05 0.5 -7.1 -2.35 L-5.9 -3.55" fill="url(#gradient0)" fill-rule="evenodd" stroke="none"/>
    <path d="M-5.9 -3.55 Q-1.95 -7.15 0.15 -6.35 L3.05 -5.4 Q1.65 -2.4 -2.0 -1.2 -7.6 0.35 -5.9 -3.55" fill="url(#gradient1)" fill-rule="evenodd" stroke="none"/>
    <path d="M5.95 -0.85 L6.65 -1.2 7.65 4.95 Q2.6 10.05 -12.85 11.15 L-11.15 9.4 Q-5.9 4.45 5.95 -0.85" fill="url(#gradient2)" fill-rule="evenodd" stroke="none"/>
    <path d="M-12.85 11.15 Q-13.45 6.35 -10.05 3.75 -10.95 6.4 -11.15 9.4 L-12.85 11.15" fill="url(#gradient3)" fill-rule="evenodd" stroke="none"/>
    <path d="M3.05 -5.4 L0.15 -6.35 Q-1.95 -7.15 -5.9 -3.55 -7.6 0.35 -2.0 -1.2 1.65 -2.4 3.05 -5.4 L4.5 -4.9 Q5.8 -4.5 5.95 -0.85 L6.65 -1.2 7.65 4.95 Q2.6 10.05 -12.85 11.15 -13.45 6.35 -10.05 3.75 -9.05 0.5 -7.1 -2.35 L-5.9 -3.55 M-10.05 3.75 Q-10.95 6.4 -11.15 9.4 -5.9 4.45 5.95 -0.85 M-11.15 9.4 L-12.85 11.15" fill="none" stroke="#418c25" stroke-linecap="round" stroke-linejoin="round" stroke-width="1.0"/>
    <path d="M1.7 3.85 Q0.85 -0.7 13.75 -9.7 14.15 -2.05 1.7 3.85 2.9 1.8 7.25 -1.9 12.6 -6.35 13.75 -9.7 12.6 -6.35 7.25 -1.9 2.9 1.8 1.7 3.85" fill="#eb403d" fill-rule="evenodd" stroke="none"/>
    <path d="M0.9 5.0 L1.7 3.85 Q0.85 -0.7 13.75 -9.7 14.15 -2.05 1.7 3.85 2.9 1.8 7.25 -1.9 12.6 -6.35 13.75 -9.7 M-0.9 7.85 L-0.35 6.95" fill="none" stroke="#cb0000" stroke-linecap="round" stroke-linejoin="round" stroke-width="1.0"/>
  </g>
  <defs>
    <linearGradient gradientTransform="matrix(0.0058, -0.0038, 0.0029, 0.0044, -5.05, 1.2)" gradientUnits="userSpaceOnUse" id="gradient0" spreadMethod="pad" x1="-819.2" x2="819.2">
      <stop offset="0.0" stop-color="#98ce6f"/>
      <stop offset="1.0" stop-color="#73bf59"/>
    </linearGradient>
    <linearGradient gradientTransform="matrix(-0.0037, 0.0041, -0.0025, -0.0023, -1.85, -3.7)" gradientUnits="userSpaceOnUse" id="gradient1" spreadMethod="pad" x1="-819.2" x2="819.2">
      <stop offset="0.0" stop-color="#98ce6f"/>
      <stop offset="1.0" stop-color="#73bf59"/>
    </linearGradient>
    <linearGradient gradientTransform="matrix(0.0066, -0.0023, 0.0014, 0.0043, -0.85, 5.25)" gradientUnits="userSpaceOnUse" id="gradient2" spreadMethod="pad" x1="-819.2" x2="819.2">
      <stop offset="0.0" stop-color="#98ce6f"/>
      <stop offset="1.0" stop-color="#73bf59"/>
    </linearGradient>
    <linearGradient gradientTransform="matrix(4.0E-4, -0.0015, 0.0011, 3.0E-4, -11.5, 7.6)" gradientUnits="userSpaceOnUse" id="gradient3" spreadMethod="pad" x1="-819.2" x2="819.2">
      <stop offset="0.0" stop-color="#98ce6f"/>
      <stop offset="1.0" stop-color="#73bf59"/>
    </linearGradient>
  </defs>
</svg>
