<?xml version="1.0" encoding="UTF-8" standalone="no"?>
<svg xmlns:ffdec="https://www.free-decompiler.com/flash" xmlns:xlink="http://www.w3.org/1999/xlink" ffdec:objectType="shape" height="18.0px" width="34.75px" xmlns="http://www.w3.org/2000/svg">
  <g transform="matrix(1.0, 0.0, 0.0, 1.0, 17.35, 9.05)">
    <path d="M5.1 -1.65 L4.75 -2.4 12.0 -1.35 Q17.0 -0.15 17.05 1.65 L17.0 2.0 Q16.55 3.55 12.05 4.75 L11.95 4.75 11.2 4.95 1.75 6.05 1.65 6.05 -0.05 6.1 Q-7.15 6.2 -12.15 4.95 -16.65 3.85 -17.15 2.35 L-17.2 1.95 Q-17.25 0.15 -12.2 -1.1 -9.05 -1.95 -4.95 -2.3 L-5.25 -1.55 -12.3 -0.35 Q-16.45 0.8 -16.45 1.95 -16.45 3.05 -12.3 4.15 -7.35 5.45 -0.1 5.35 7.25 5.3 12.15 3.95 16.25 2.75 16.25 1.65 16.25 0.5 12.1 -0.55 L5.1 -1.65 M-3.65 7.45 L-3.65 7.6 -3.4 8.2 -2.85 8.45 -2.25 8.2 -2.0 7.6 -2.0 7.45 -0.05 7.5 2.2 7.45 2.2 7.55 2.4 8.1 2.95 8.35 3.6 8.1 3.8 7.55 3.8 7.35 7.35 7.05 7.55 7.6 8.1 7.8 8.75 7.5 8.95 6.95 8.95 6.8 11.75 6.25 11.95 6.65 12.55 6.9 13.15 6.65 13.35 6.15 13.35 5.8 15.8 4.7 16.0 5.0 16.35 5.2 15.85 5.95 Q15.35 6.6 14.55 6.95 9.85 8.9 -0.05 8.95 -9.85 9.1 -14.6 7.25 L-15.95 6.25 -16.35 5.55 -15.95 5.3 -15.8 5.1 -13.25 6.1 -13.35 6.35 -13.1 6.95 -12.5 7.15 Q-12.15 7.15 -11.95 6.9 L-11.65 6.5 -8.9 6.95 -8.95 7.15 -8.65 7.7 -8.05 7.95 -7.45 7.7 -7.25 7.2 -3.65 7.45" fill="#cc3d51" fill-rule="evenodd" stroke="none"/>
    <path d="M5.1 -1.65 L12.1 -0.55 Q16.25 0.5 16.25 1.65 16.25 2.75 12.15 3.95 7.25 5.3 -0.1 5.35 -7.35 5.45 -12.3 4.15 -16.45 3.05 -16.45 1.95 -16.45 0.8 -12.3 -0.35 L-5.25 -1.55 -6.05 0.4 Q-0.8 5.05 6.05 0.85 L5.1 -1.65" fill="url(#gradient0)" fill-rule="evenodd" stroke="none"/>
    <path d="M4.75 -2.4 L5.1 -1.65 6.05 0.85 Q-0.8 5.05 -6.05 0.4 L-5.25 -1.55 -4.95 -2.3 -4.65 -3.05 Q-2.1 -9.0 -0.25 -9.05 1.65 -9.05 4.4 -3.15 L4.75 -2.4" fill="url(#gradient1)" fill-rule="evenodd" stroke="none"/>
    <path d="M-17.15 2.35 Q-16.65 3.85 -12.15 4.95 -7.15 6.2 -0.05 6.1 L1.65 6.05 1.75 6.05 11.2 4.95 11.95 4.75 12.05 4.75 Q16.55 3.55 17.0 2.0 L17.05 2.35 17.0 2.75 16.45 3.6 16.55 3.55 16.9 3.65 17.1 3.8 17.4 4.4 17.15 5.0 16.55 5.2 16.35 5.2 16.0 5.0 15.8 4.7 15.7 4.45 15.85 4.05 Q14.75 4.75 12.8 5.3 13.0 5.35 13.15 5.5 L13.35 5.8 13.35 6.15 13.15 6.65 12.55 6.9 11.95 6.65 11.75 6.25 11.7 6.1 Q11.7 5.75 11.95 5.55 L8.4 6.25 8.7 6.4 8.95 6.8 8.95 6.95 8.75 7.5 8.1 7.8 7.55 7.6 7.35 7.05 7.3 6.95 Q7.3 6.6 7.55 6.4 L7.65 6.35 3.25 6.75 Q3.4 6.8 3.55 6.95 L3.8 7.35 3.8 7.55 3.6 8.1 2.95 8.35 2.4 8.1 2.2 7.55 2.2 7.45 2.4 7.0 Q2.5 6.85 2.65 6.85 L-0.05 6.85 -2.5 6.85 -2.3 7.05 -2.0 7.45 -2.0 7.6 -2.25 8.2 -2.85 8.45 -3.4 8.2 -3.65 7.6 -3.65 7.45 -3.45 7.05 -3.2 6.85 -7.5 6.5 -7.5 6.55 Q-7.3 6.75 -7.25 7.15 L-7.25 7.2 -7.45 7.7 -8.05 7.95 -8.65 7.7 -8.95 7.15 -8.9 6.95 -8.65 6.55 -8.45 6.4 -11.9 5.75 Q-11.65 5.95 -11.65 6.35 L-11.65 6.5 -11.95 6.9 Q-12.15 7.15 -12.5 7.15 L-13.1 6.95 -13.35 6.35 -13.25 6.1 -13.1 5.75 -12.8 5.55 Q-14.7 5.05 -15.75 4.45 L-15.7 4.7 -15.8 5.1 -15.95 5.3 -16.35 5.55 -16.55 5.55 -17.1 5.3 -17.35 4.75 -17.1 4.15 -17.0 4.05 -16.55 3.9 Q-17.05 3.45 -17.15 3.0 L-17.2 2.7 -17.15 2.35" fill="#ebf3ef" fill-rule="evenodd" stroke="none"/>
    <path d="M-7.25 7.2 L-7.25 7.15 Q-7.3 6.75 -7.5 6.55 L-7.5 6.5 -3.2 6.85 -3.45 7.05 -3.65 7.45 -7.25 7.2 M-2.0 7.45 L-2.3 7.05 -2.5 6.85 -0.05 6.85 2.65 6.85 Q2.5 6.85 2.4 7.0 L2.2 7.45 -0.05 7.5 -2.0 7.45 M3.8 7.35 L3.55 6.95 Q3.4 6.8 3.25 6.75 L7.65 6.35 7.55 6.4 Q7.3 6.6 7.3 6.95 L7.35 7.05 3.8 7.35 M8.95 6.8 L8.7 6.4 8.4 6.25 11.95 5.55 Q11.7 5.75 11.7 6.1 L11.75 6.25 8.95 6.8 M13.35 5.8 L13.15 5.5 Q13.0 5.35 12.8 5.3 14.75 4.75 15.85 4.05 L15.7 4.45 15.8 4.7 13.35 5.8 M16.9 3.65 L16.55 3.55 16.45 3.6 17.0 2.75 17.05 3.05 16.9 3.65 M-11.65 6.5 L-11.65 6.35 Q-11.65 5.95 -11.9 5.75 L-8.45 6.4 -8.65 6.55 -8.9 6.95 -11.65 6.5 M-13.25 6.1 L-15.8 5.1 -15.7 4.7 -15.75 4.45 Q-14.7 5.05 -12.8 5.55 L-13.1 5.75 -13.25 6.1 M-17.15 3.0 Q-17.05 3.45 -16.55 3.9 L-17.0 4.05 -17.2 3.35 -17.15 3.0" fill="#75260c" fill-rule="evenodd" stroke="none"/>
  </g>
  <defs>
    <linearGradient gradientTransform="matrix(-0.0069, 0.0032, -0.0038, -0.0081, 2.45, 0.6)" gradientUnits="userSpaceOnUse" id="gradient0" spreadMethod="pad" x1="-819.2" x2="819.2">
      <stop offset="0.0" stop-color="#ffa61d"/>
      <stop offset="1.0" stop-color="#d88e1a"/>
    </linearGradient>
    <linearGradient gradientTransform="matrix(-0.0027, -0.0019, 0.0041, -0.0056, -1.8, -3.5)" gradientUnits="userSpaceOnUse" id="gradient1" spreadMethod="pad" x1="-819.2" x2="819.2">
      <stop offset="0.0" stop-color="#ffa61d"/>
      <stop offset="1.0" stop-color="#d88e1a"/>
    </linearGradient>
  </defs>
</svg>
