<?xml version="1.0" encoding="UTF-8" standalone="no"?>
<svg xmlns:ffdec="https://www.free-decompiler.com/flash" xmlns:xlink="http://www.w3.org/1999/xlink" ffdec:objectType="shape" height="21.65px" width="28.6px" xmlns="http://www.w3.org/2000/svg">
  <g transform="matrix(1.0, 0.0, 0.0, 1.0, 14.2, 10.8)">
    <path d="M14.4 3.65 Q12.6 7.35 0.9 10.2 10.3 6.1 14.4 3.65" fill="url(#gradient0)" fill-rule="evenodd" stroke="none"/>
    <path d="M0.9 10.2 Q-5.3 11.85 -11.05 9.4 -15.15 7.3 -13.95 4.4 -10.5 11.75 0.4 8.25 5.4 7.3 10.75 4.3 L12.55 2.95 14.4 3.65 Q10.3 6.1 0.9 10.2" fill="url(#gradient1)" fill-rule="evenodd" stroke="none"/>
    <path d="M-13.95 4.4 Q-13.15 2.2 -9.35 0.8 L-9.35 2.4 -9.35 6.05 Q-6.65 8.6 0.4 8.25 -10.5 11.75 -13.95 4.4 M10.75 2.25 L12.55 2.95 10.75 4.3 10.75 2.25" fill="url(#gradient2)" fill-rule="evenodd" stroke="none"/>
    <path d="M10.75 2.0 L10.75 2.25 10.75 4.3 Q5.4 7.3 0.4 8.25 -6.65 8.6 -9.35 6.05 L-9.35 2.4 Q0.3 6.35 10.75 2.0" fill="url(#gradient3)" fill-rule="evenodd" stroke="none"/>
    <path d="M-9.35 0.8 L-9.35 -8.2 Q-0.55 -2.5 10.75 -8.35 10.1 -2.6 10.75 2.0 0.3 6.35 -9.35 2.4 L-9.35 0.8" fill="url(#gradient4)" fill-rule="evenodd" stroke="none"/>
    <path d="M-9.35 -8.2 Q0.3 -13.35 10.75 -8.35 -0.55 -2.5 -9.35 -8.2" fill="url(#gradient5)" fill-rule="evenodd" stroke="none"/>
  </g>
  <defs>
    <linearGradient gradientTransform="matrix(0.0082, 0.0, 0.0, 0.004, 7.5, 6.75)" gradientUnits="userSpaceOnUse" id="gradient0" spreadMethod="pad" x1="-819.2" x2="819.2">
      <stop offset="0.0" stop-color="#1c2530"/>
      <stop offset="1.0" stop-color="#222c3e"/>
    </linearGradient>
    <linearGradient gradientTransform="matrix(0.0175, 0.0, 0.0, 0.0048, 0.0, 6.65)" gradientUnits="userSpaceOnUse" id="gradient1" spreadMethod="pad" x1="-819.2" x2="819.2">
      <stop offset="0.0" stop-color="#374555"/>
      <stop offset="1.0" stop-color="#4f4f4f"/>
    </linearGradient>
    <linearGradient gradientTransform="matrix(0.0088, 0.0, 0.0, 0.006, -6.7, 4.25)" gradientUnits="userSpaceOnUse" id="gradient2" spreadMethod="pad" x1="-819.2" x2="819.2">
      <stop offset="0.0" stop-color="#1c252f"/>
      <stop offset="1.0" stop-color="#222c3e"/>
    </linearGradient>
    <linearGradient gradientTransform="matrix(0.0075, -2.0E-4, 0.0, 0.0037, -0.5, 5.1)" gradientUnits="userSpaceOnUse" id="gradient3" spreadMethod="pad" x1="-819.2" x2="819.2">
      <stop offset="0.0" stop-color="#ff123c"/>
      <stop offset="1.0" stop-color="#91485b"/>
    </linearGradient>
    <linearGradient gradientTransform="matrix(0.0089, 2.0E-4, -2.0E-4, 0.0078, -0.5, -2.25)" gradientUnits="userSpaceOnUse" id="gradient4" spreadMethod="pad" x1="-819.2" x2="819.2">
      <stop offset="0.0" stop-color="#384357"/>
      <stop offset="1.0" stop-color="#1c2531"/>
    </linearGradient>
    <linearGradient gradientTransform="matrix(0.0, -0.0017, 0.0122, 0.0, 0.5, -7.6)" gradientUnits="userSpaceOnUse" id="gradient5" spreadMethod="pad" x1="-819.2" x2="819.2">
      <stop offset="0.0" stop-color="#1c2530"/>
      <stop offset="1.0" stop-color="#222c3e"/>
    </linearGradient>
  </defs>
</svg>
