<?xml version="1.0" encoding="UTF-8" standalone="no"?>
<svg xmlns:ffdec="https://www.free-decompiler.com/flash" xmlns:xlink="http://www.w3.org/1999/xlink" ffdec:objectType="shape" height="20.1px" width="22.65px" xmlns="http://www.w3.org/2000/svg">
  <g transform="matrix(1.0, 0.0, 0.0, 1.0, 11.3, 10.15)">
    <path d="M1.45 -5.7 Q4.65 -5.3 6.45 -4.1 7.9 -3.05 9.55 -0.6 10.65 1.1 10.5 4.7 10.45 6.8 10.0 9.2 L10.0 9.25 9.95 9.6 6.2 9.7 -0.6 9.15 -7.1 8.1 -11.0 7.15 Q-10.95 5.5 -10.4 3.4 -9.35 -0.8 -6.75 -3.25 -5.3 -4.6 -3.8 -5.2 -1.6 -6.1 1.45 -5.7" fill="#cc3d51" fill-rule="evenodd" stroke="none"/>
    <path d="M-2.4 -6.45 L-2.75 -6.8 -2.25 -6.9 -2.55 -7.3 -2.1 -7.4 -2.35 -7.85 -1.8 -7.85 -2.05 -8.3 -1.5 -8.25 -1.7 -8.7 -1.2 -8.6 -1.25 -9.1 -0.8 -8.95 -0.85 -9.45 -0.4 -9.2 -0.35 -9.75 0.1 -9.4 0.15 -9.95 0.55 -9.55 0.7 -10.1 1.05 -9.7 1.25 -10.15 1.55 -9.7 1.8 -10.15 2.0 -9.7 2.35 -10.1 2.5 -9.6 2.9 -9.95 3.0 -9.45 3.4 -9.75 3.45 -9.25 3.85 -9.5 3.85 -9.0 4.35 -9.2 4.2 -8.65 4.7 -8.8 4.55 -8.3 5.05 -8.35 4.85 -7.9 5.35 -7.9 5.1 -7.45 5.6 -7.4 5.25 -6.95 5.75 -6.85 5.35 -6.5 5.85 -6.3 5.45 -6.0 5.9 -5.75 5.45 -5.55 5.85 -5.2 5.35 -5.0 5.7 -4.65 5.25 -4.5 5.55 -4.1 5.05 -4.05 5.3 -3.6 4.8 -3.55 5.0 -3.1 4.5 -3.15 4.65 -2.7 4.15 -2.85 4.25 -2.3 3.75 -2.5 3.8 -2.0 3.35 -2.25 3.3 -1.7 2.9 -2.0 2.8 -1.5 2.4 -1.85 2.25 -1.35 1.9 -1.75 1.7 -1.25 1.45 -1.7 1.15 -1.25 0.95 -1.75 0.65 -1.3 0.45 -1.85 0.1 -1.45 0.0 -1.95 -0.4 -1.65 -0.45 -2.2 -0.9 -1.9 -0.85 -2.45 -1.35 -2.25 -1.25 -2.75 -1.75 -2.65 -1.6 -3.15 -2.1 -3.05 -1.9 -3.55 -2.4 -3.5 -2.1 -3.95 -2.6 -4.05 -2.3 -4.45 -2.8 -4.6 -2.4 -4.9 -2.9 -5.1 -2.5 -5.4 -2.9 -5.7 -2.45 -5.95 -2.9 -6.2 -2.4 -6.45" fill="#ffa61d" fill-rule="evenodd" stroke="none"/>
    <path d="M-9.8 1.1 L-6.0 2.1 0.3 3.1 6.95 3.65 10.55 3.55 Q10.95 3.65 11.2 3.9 L11.35 4.55 10.75 9.05 10.45 9.6 9.8 9.85 Q8.65 10.05 5.9 9.9 L-0.5 9.35 -6.85 8.4 -10.6 7.35 -11.15 7.0 -11.3 6.4 -10.75 1.85 -10.4 1.3 -9.8 1.1" fill="#ffa61d" fill-rule="evenodd" stroke="none"/>
  </g>
</svg>
