<?xml version="1.0" encoding="UTF-8" standalone="no"?>
<svg xmlns:ffdec="https://www.free-decompiler.com/flash" xmlns:xlink="http://www.w3.org/1999/xlink" ffdec:objectType="shape" height="20.95px" width="19.85px" xmlns="http://www.w3.org/2000/svg">
  <g transform="matrix(1.0, 0.0, 0.0, 1.0, 7.2, 8.9)">
    <path d="M-6.55 2.8 Q-0.65 5.85 4.2 4.05" fill="none" stroke="#000000" stroke-linecap="square" stroke-linejoin="round" stroke-opacity="0.24705882" stroke-width="1.0"/>
    <path d="M-4.05 -6.15 Q-0.55 -9.15 3.6 -8.85 7.35 -8.65 8.25 -2.9 L9.1 3.05 Q9.65 6.55 10.7 9.35 L10.65 9.35 10.95 10.0 Q7.65 9.15 4.75 4.0 L3.15 0.85 Q0.5 -5.8 -4.05 -6.15" fill="url(#gradient0)" fill-rule="evenodd" stroke="none"/>
    <path d="M3.15 0.85 L4.75 4.0 Q-0.35 6.05 -7.05 2.75 L-6.25 -0.05 Q-1.55 1.8 3.15 0.85" fill="url(#gradient1)" fill-rule="evenodd" stroke="none"/>
    <path d="M-4.05 -6.15 Q0.5 -5.8 3.15 0.85 -1.55 1.8 -6.25 -0.05 -5.45 -4.9 -4.05 -6.15" fill="url(#gradient2)" fill-rule="evenodd" stroke="none"/>
    <path d="M12.3 8.8 Q12.75 9.45 12.65 10.25 12.6 11.1 12.0 11.65 11.45 12.15 10.65 12.05 9.9 11.95 9.45 11.3 9.0 10.65 9.05 9.8 9.15 8.95 9.7 8.45 10.3 7.9 11.05 8.0 11.85 8.15 12.3 8.8" fill="url(#gradient3)" fill-rule="evenodd" stroke="none"/>
  </g>
  <defs>
    <linearGradient gradientTransform="matrix(0.0025, 0.0044, -0.005, 0.0034, 3.95, -2.1)" gradientUnits="userSpaceOnUse" id="gradient0" spreadMethod="pad" x1="-819.2" x2="819.2">
      <stop offset="0.0" stop-color="#ff123c"/>
      <stop offset="1.0" stop-color="#91485b"/>
    </linearGradient>
    <linearGradient gradientTransform="matrix(-0.0043, -4.0E-4, 2.0E-4, -0.0026, -0.85, 2.55)" gradientUnits="userSpaceOnUse" id="gradient1" spreadMethod="pad" x1="-819.2" x2="819.2">
      <stop offset="0.0" stop-color="#dad596"/>
      <stop offset="1.0" stop-color="#f7f4d2"/>
    </linearGradient>
    <linearGradient gradientTransform="matrix(0.0026, 0.0017, -0.002, 0.0038, -1.8, -1.4)" gradientUnits="userSpaceOnUse" id="gradient2" spreadMethod="pad" x1="-819.2" x2="819.2">
      <stop offset="0.0" stop-color="#ff123c"/>
      <stop offset="1.0" stop-color="#91485b"/>
    </linearGradient>
    <linearGradient gradientTransform="matrix(0.0022, 0.0, 0.0, 0.0025, 10.85, 10.0)" gradientUnits="userSpaceOnUse" id="gradient3" spreadMethod="pad" x1="-819.2" x2="819.2">
      <stop offset="0.0" stop-color="#dad596"/>
      <stop offset="1.0" stop-color="#f7f4d2"/>
    </linearGradient>
  </defs>
</svg>
