<?xml version="1.0" encoding="UTF-8" standalone="no"?>
<svg xmlns:ffdec="https://www.free-decompiler.com/flash" xmlns:xlink="http://www.w3.org/1999/xlink" ffdec:objectType="shape" height="13.95px" width="36.9px" xmlns="http://www.w3.org/2000/svg">
  <g transform="matrix(1.0, 0.0, 0.0, 1.0, 14.85, 7.0)">
    <path d="M8.15 2.05 L13.45 2.65 16.2 2.95 18.4 3.15 21.3 3.5 21.8 4.15 Q21.95 4.7 21.15 5.2 L8.95 4.6 8.2 3.55 8.2 3.35 8.15 2.05" fill="#e7890a" fill-rule="evenodd" stroke="none"/>
    <path d="M21.8 4.15 Q22.55 5.25 20.85 5.75 L9.25 5.2 8.95 4.6 21.15 5.2 Q21.95 4.7 21.8 4.15" fill="#cc7808" fill-rule="evenodd" stroke="none"/>
    <path d="M8.55 6.15 L6.9 6.55 Q-4.5 7.75 -14.05 5.2 -13.5 4.0 -12.3 3.65 L-11.25 3.35 Q-3.65 0.95 3.85 3.5 5.3 4.0 6.7 4.7 8.65 5.5 8.55 6.15" fill="#333333" fill-rule="evenodd" stroke="none"/>
    <path d="M9.25 5.2 Q9.35 5.55 8.55 6.15 8.65 5.5 6.7 4.7 5.3 4.0 3.85 3.5 -3.65 0.95 -11.25 3.35 L-12.3 3.65 Q-13.5 4.0 -14.05 5.2 -15.6 4.25 -14.15 3.3 L-14.15 3.15 Q-5.35 -1.75 8.2 3.35 L8.2 3.55 8.95 4.6 9.25 5.2" fill="url(#gradient0)" fill-rule="evenodd" stroke="none"/>
    <path d="M-14.15 3.15 Q-14.85 -1.85 -11.3 -4.6 -8.25 -7.1 -3.15 -7.0 1.8 -6.95 5.15 -4.5 8.85 -1.85 8.15 2.05 L8.2 3.35 Q-5.35 -1.75 -14.15 3.15" fill="url(#gradient1)" fill-rule="evenodd" stroke="none"/>
  </g>
  <defs>
    <linearGradient gradientTransform="matrix(2.0E-4, -0.0026, 0.0149, 0.0011, -2.45, -1.25)" gradientUnits="userSpaceOnUse" id="gradient0" spreadMethod="pad" x1="-819.2" x2="819.2">
      <stop offset="0.0" stop-color="#3f3b3b"/>
      <stop offset="1.0" stop-color="#595856"/>
    </linearGradient>
    <linearGradient gradientTransform="matrix(2.0E-4, -0.0026, 0.0149, 0.0011, -2.45, -1.25)" gradientUnits="userSpaceOnUse" id="gradient1" spreadMethod="pad" x1="-819.2" x2="819.2">
      <stop offset="0.0" stop-color="#44403f"/>
      <stop offset="1.0" stop-color="#636260"/>
    </linearGradient>
  </defs>
</svg>
