<?xml version="1.0" encoding="UTF-8" standalone="no"?>
<svg xmlns:ffdec="https://www.free-decompiler.com/flash" xmlns:xlink="http://www.w3.org/1999/xlink" ffdec:objectType="shape" height="21.7px" width="24.55px" xmlns="http://www.w3.org/2000/svg">
  <g transform="matrix(1.0, 0.0, 0.0, 1.0, 12.55, 10.55)">
    <path d="M5.75 -1.8 L7.2 -2.1 Q8.55 -1.75 9.25 0.4 L5.9 3.85 9.25 0.4 9.7 2.75 9.7 2.85 9.6 3.05 Q8.0 5.7 5.35 5.65 L5.9 3.85 5.95 3.6 Q6.35 1.2 5.75 -1.8" fill="#006c82" fill-rule="evenodd" stroke="none"/>
    <path d="M9.25 0.4 Q8.55 -1.75 7.2 -2.1 L5.75 -1.8 Q-3.95 -0.2 -9.95 -0.6 L-10.0 -1.05 -10.0 -1.3 Q-9.35 -7.85 -3.55 -9.6 2.25 -11.35 6.2 -9.95 10.15 -8.5 11.45 -5.4 12.65 -2.3 11.2 1.7 9.45 3.75 9.6 3.05 L9.7 2.85 9.7 2.75 9.25 0.4" fill="url(#gradient0)" fill-rule="evenodd" stroke="none"/>
    <path d="M-10.0 -1.05 L-9.95 -0.6 -10.15 -0.6 -10.0 -1.05" fill="url(#gradient1)" fill-rule="evenodd" stroke="none"/>
    <path d="M9.25 0.4 Q8.55 -1.75 7.2 -2.1 L5.75 -1.8 Q6.35 1.2 5.95 3.6 L5.9 3.85 9.25 0.4 9.7 2.75 9.7 2.85 9.6 3.05 Q8.0 5.7 5.35 5.65 4.7 9.3 1.25 10.05 L0.8 10.15 1.75 6.3 5.35 5.65 5.9 3.85 M-10.0 -1.3 L-10.0 -1.05 M-9.95 -0.6 Q-3.95 -0.2 5.75 -1.8 M-10.15 -0.6 L-10.8 -0.6 -11.45 -0.7 Q-11.35 -1.25 -10.0 -1.3 M-9.95 -0.6 L-10.15 -0.6 M-10.0 4.7 Q-8.45 3.6 -8.4 2.55 L-11.0 3.3 Q-12.1 3.75 -12.05 4.1 L-12.05 4.15 Q-12.0 4.45 -10.8 4.65 L-10.0 4.7 -8.45 4.75 -3.45 4.85 1.75 4.45 5.95 3.6 M-8.75 6.8 L-7.7 10.2 -3.55 10.65 Q-3.9 8.75 -3.65 6.75 L-8.75 6.8 -10.65 6.5 Q-10.35 8.35 -9.15 9.5 L-8.7 9.85 -8.55 9.95 -7.7 10.2 M-8.45 4.75 Q-9.0 5.95 -8.75 6.8 M-3.45 4.85 Q-4.0 5.95 -3.65 6.75 L1.75 6.3 1.75 4.45 M-10.8 4.65 L-10.7 5.2 -10.65 6.5 M-3.55 10.65 L0.8 10.15 M-9.95 -0.6 Q-8.4 1.75 -8.4 2.55" fill="none" stroke="#000000" stroke-linecap="round" stroke-linejoin="round" stroke-width="1.0"/>
    <path d="M-6.5 -3.3 Q-4.05 -10.85 4.9 -8.45 -1.25 -9.25 -1.95 -3.3 L-6.5 -3.3" fill="url(#gradient2)" fill-rule="evenodd" stroke="none"/>
  </g>
  <defs>
    <linearGradient gradientTransform="matrix(0.0134, 0.0, 0.0, 0.0106, 1.0, -1.9)" gradientUnits="userSpaceOnUse" id="gradient0" spreadMethod="pad" x1="-819.2" x2="819.2">
      <stop offset="0.0" stop-color="#0085aa"/>
      <stop offset="1.0" stop-color="#006c82"/>
    </linearGradient>
    <linearGradient gradientTransform="matrix(5.0E-4, 0.0097, 0.0133, -0.001, 0.85, -0.8)" gradientUnits="userSpaceOnUse" id="gradient1" spreadMethod="pad" x1="-819.2" x2="819.2">
      <stop offset="0.0" stop-color="#ff123c"/>
      <stop offset="1.0" stop-color="#91485b"/>
    </linearGradient>
    <linearGradient gradientTransform="matrix(0.0081, 0.0, 0.0, 0.0056, 1.55, -5.45)" gradientUnits="userSpaceOnUse" id="gradient2" spreadMethod="pad" x1="-819.2" x2="819.2">
      <stop offset="0.0" stop-color="#ff123c"/>
      <stop offset="1.0" stop-color="#91485b"/>
    </linearGradient>
  </defs>
</svg>
