<?xml version="1.0" encoding="UTF-8" standalone="no"?>
<svg xmlns:ffdec="https://www.free-decompiler.com/flash" xmlns:xlink="http://www.w3.org/1999/xlink" ffdec:objectType="shape" height="14.4px" width="25.1px" xmlns="http://www.w3.org/2000/svg">
  <g transform="matrix(1.0, 0.0, 0.0, 1.0, 12.5, 7.2)">
    <path d="M6.5 7.2 L4.25 7.2 4.25 3.45 Q-1.85 0.8 -8.8 3.5 L-9.8 7.1 -10.55 7.1 -10.55 4.5 Q-12.3 3.3 -11.7 0.9 -13.8 -2.45 -10.55 -7.2 -10.35 0.8 2.3 -5.8 5.3 -7.1 7.4 -5.7 9.6 -4.3 9.15 -0.75 11.0 -0.65 11.95 0.7 12.8 1.9 12.55 3.5 12.3 5.1 11.1 6.1 L6.5 5.95 6.5 7.2 M-10.9 -3.8 Q-10.75 -2.8 -9.5 -2.3 -10.75 -2.8 -10.9 -3.8 M3.8 -4.35 L6.1 -3.8 4.9 -5.05 Q6.9 -4.7 7.9 -3.5 6.9 -4.7 4.9 -5.05 L6.1 -3.8 3.8 -4.35 M9.4 0.95 L10.35 1.7 10.35 0.5 Q11.5 0.9 11.5 2.2 11.5 0.9 10.35 0.5 L10.35 1.7 9.4 0.95" fill="url(#gradient0)" fill-rule="evenodd" stroke="none"/>
    <path d="M11.5 2.2 Q11.5 0.9 10.35 0.5 L10.35 1.7 9.4 0.95 M7.9 -3.5 Q6.9 -4.7 4.9 -5.05 L6.1 -3.8 3.8 -4.35 M-9.5 -2.3 Q-10.75 -2.8 -10.9 -3.8" fill="none" stroke="#dad596" stroke-linecap="round" stroke-linejoin="round" stroke-width="1.0"/>
  </g>
  <defs>
    <linearGradient gradientTransform="matrix(-0.0152, 0.0, 0.0, 0.0097, 0.15, 1.45)" gradientUnits="userSpaceOnUse" id="gradient0" spreadMethod="pad" x1="-819.2" x2="819.2">
      <stop offset="0.0" stop-color="#000000"/>
      <stop offset="1.0" stop-color="#2d2d2d"/>
    </linearGradient>
  </defs>
</svg>
