<?xml version="1.0" encoding="UTF-8" standalone="no"?>
<svg xmlns:ffdec="https://www.free-decompiler.com/flash" xmlns:xlink="http://www.w3.org/1999/xlink" ffdec:objectType="shape" height="20.35px" width="30.6px" xmlns="http://www.w3.org/2000/svg">
  <g transform="matrix(1.0, 0.0, 0.0, 1.0, 15.0, 10.35)">
    <path d="M6.35 -1.25 Q14.55 -4.1 13.1 -7.6 19.75 -1.4 8.8 4.4 5.25 3.15 6.35 -1.25" fill="url(#gradient0)" fill-rule="evenodd" stroke="none"/>
    <path d="M8.8 4.4 L9.05 5.6 Q4.4 7.9 -0.7 6.8 -2.85 0.6 0.9 -4.65 4.25 -4.5 6.35 -1.25 5.25 3.15 8.8 4.4" fill="url(#gradient1)" fill-rule="evenodd" stroke="none"/>
    <path d="M9.05 5.6 L9.2 6.35 Q8.4 7.4 5.65 8.1 L-0.05 8.9 -5.8 8.5 Q-8.5 7.95 -9.4 6.8 L-9.3 5.15 -9.3 5.1 Q-7.1 6.5 -4.8 6.5 -6.25 0.45 -2.2 -4.55 L0.9 -4.65 Q-2.85 0.6 -0.7 6.8 4.4 7.9 9.05 5.6" fill="url(#gradient2)" fill-rule="evenodd" stroke="none"/>
    <path d="M9.2 6.35 Q9.8 6.5 9.95 6.8 10.25 7.15 9.75 7.6 8.7 8.7 5.85 9.35 L-0.05 10.0 -6.0 9.55 Q-8.85 8.9 -10.15 7.8 -10.6 6.8 -9.4 6.8 -8.5 7.95 -5.8 8.5 L-0.05 8.9 5.65 8.1 Q8.4 7.4 9.2 6.35" fill="url(#gradient3)" fill-rule="evenodd" stroke="none"/>
    <path d="M-9.3 5.1 L-9.15 3.65 -9.05 2.95 Q-8.6 0.95 -7.3 -0.95 L-7.15 -1.15 -7.0 -1.4 Q-5.65 -3.1 -2.95 -4.35 L-2.2 -4.55 Q-6.25 0.45 -4.8 6.5 -7.1 6.5 -9.3 5.1" fill="url(#gradient4)" fill-rule="evenodd" stroke="none"/>
    <path d="M-9.15 3.65 L-9.3 4.35 Q-18.45 -2.6 -12.85 -7.3 -13.3 -3.3 -7.15 -1.15 L-7.3 -0.95 Q-8.6 0.95 -9.05 2.95 L-9.15 3.65" fill="url(#gradient5)" fill-rule="evenodd" stroke="none"/>
    <path d="M-2.2 1.6 L-2.4 2.1 -3.0 2.35 -3.55 2.15 -3.8 1.6 -3.6 1.05 Q-3.4 0.85 -3.0 0.8 -2.65 0.8 -2.45 1.0 -2.2 1.2 -2.2 1.6" fill="url(#gradient6)" fill-rule="evenodd" stroke="none"/>
    <path d="M-2.2 4.9 L-2.4 5.4 -3.0 5.65 -3.55 5.45 -3.8 4.9 -3.6 4.35 Q-3.4 4.15 -3.0 4.1 -2.65 4.1 -2.45 4.3 -2.2 4.5 -2.2 4.9" fill="url(#gradient7)" fill-rule="evenodd" stroke="none"/>
    <path d="M-1.5 -1.5 L-1.7 -1.0 Q-1.95 -0.75 -2.3 -0.75 -2.6 -0.7 -2.85 -0.95 L-3.1 -1.5 -2.9 -2.05 -2.3 -2.3 Q-1.95 -2.3 -1.75 -2.1 -1.5 -1.9 -1.5 -1.5" fill="url(#gradient8)" fill-rule="evenodd" stroke="none"/>
    <path d="M0.85 -5.25 L0.8 -5.25 -2.1 -5.3 Q-1.75 -8.3 -0.6 -10.35 0.45 -8.3 0.85 -5.25" fill="url(#gradient9)" fill-rule="evenodd" stroke="none"/>
    <path d="M0.85 -5.25 Q1.45 -5.05 1.35 -4.4 L-2.1 -4.2 -2.65 -4.4 Q-2.75 -5.0 -2.1 -5.3 L0.8 -5.25 0.85 -5.25" fill="url(#gradient10)" fill-rule="evenodd" stroke="none"/>
  </g>
  <defs>
    <linearGradient gradientTransform="matrix(-0.003, 0.0072, -0.0049, -0.0016, 11.85, -3.5)" gradientUnits="userSpaceOnUse" id="gradient0" spreadMethod="pad" x1="-819.2" x2="819.2">
      <stop offset="0.0" stop-color="#f7f4d2"/>
      <stop offset="1.0" stop-color="#ccc18e"/>
    </linearGradient>
    <linearGradient gradientTransform="matrix(0.002, 0.0056, -0.0058, 0.0015, 2.6, 1.6)" gradientUnits="userSpaceOnUse" id="gradient1" spreadMethod="pad" x1="-819.2" x2="819.2">
      <stop offset="0.0" stop-color="#ff123c"/>
      <stop offset="1.0" stop-color="#91485b"/>
    </linearGradient>
    <linearGradient gradientTransform="matrix(-8.0E-4, 0.0063, -0.0112, -0.0012, 0.35, 2.8)" gradientUnits="userSpaceOnUse" id="gradient2" spreadMethod="pad" x1="-819.2" x2="819.2">
      <stop offset="0.0" stop-color="#7ca0aa"/>
      <stop offset="1.0" stop-color="#5e7c82"/>
      <stop offset="1.0" stop-color="#924b5d"/>
    </linearGradient>
    <linearGradient gradientTransform="matrix(0.0061, 3.0E-4, -1.0E-4, 0.0025, -1.55, 7.85)" gradientUnits="userSpaceOnUse" id="gradient3" spreadMethod="pad" x1="-819.2" x2="819.2">
      <stop offset="0.0" stop-color="#7ca0aa"/>
      <stop offset="1.0" stop-color="#5e7c82"/>
      <stop offset="1.0" stop-color="#924b5d"/>
    </linearGradient>
    <linearGradient gradientTransform="matrix(-6.0E-4, 0.0041, -0.0032, -4.0E-4, -6.0, 1.55)" gradientUnits="userSpaceOnUse" id="gradient4" spreadMethod="pad" x1="-819.2" x2="819.2">
      <stop offset="0.0" stop-color="#ff123c"/>
      <stop offset="1.0" stop-color="#91485b"/>
    </linearGradient>
    <linearGradient gradientTransform="matrix(0.0025, 0.0045, -0.0034, 0.0014, -11.55, -2.65)" gradientUnits="userSpaceOnUse" id="gradient5" spreadMethod="pad" x1="-819.2" x2="819.2">
      <stop offset="0.0" stop-color="#f7f4d2"/>
      <stop offset="1.0" stop-color="#ccc18e"/>
    </linearGradient>
    <linearGradient gradientTransform="matrix(9.0E-4, 0.0, 0.0, 9.0E-4, -3.05, 1.6)" gradientUnits="userSpaceOnUse" id="gradient6" spreadMethod="pad" x1="-819.2" x2="819.2">
      <stop offset="0.0" stop-color="#648189"/>
      <stop offset="1.0" stop-color="#42575b"/>
      <stop offset="1.0" stop-color="#924b5d"/>
    </linearGradient>
    <linearGradient gradientTransform="matrix(9.0E-4, 0.0, 0.0, 9.0E-4, -3.05, 4.9)" gradientUnits="userSpaceOnUse" id="gradient7" spreadMethod="pad" x1="-819.2" x2="819.2">
      <stop offset="0.0" stop-color="#648189"/>
      <stop offset="1.0" stop-color="#42575b"/>
      <stop offset="1.0" stop-color="#924b5d"/>
    </linearGradient>
    <linearGradient gradientTransform="matrix(9.0E-4, 0.0, 0.0, 9.0E-4, -2.35, -1.45)" gradientUnits="userSpaceOnUse" id="gradient8" spreadMethod="pad" x1="-819.2" x2="819.2">
      <stop offset="0.0" stop-color="#648189"/>
      <stop offset="1.0" stop-color="#42575b"/>
      <stop offset="1.0" stop-color="#924b5d"/>
    </linearGradient>
    <linearGradient gradientTransform="matrix(9.0E-4, 0.0012, -0.0022, 0.0012, -0.25, -6.2)" gradientUnits="userSpaceOnUse" id="gradient9" spreadMethod="pad" x1="-819.2" x2="819.2">
      <stop offset="0.0" stop-color="#f7f4d2"/>
      <stop offset="1.0" stop-color="#ccc18e"/>
    </linearGradient>
    <linearGradient gradientTransform="matrix(0.0011, 0.0, 0.0, 8.0E-4, -0.25, -4.5)" gradientUnits="userSpaceOnUse" id="gradient10" spreadMethod="pad" x1="-819.2" x2="819.2">
      <stop offset="0.0" stop-color="#f7f4d2"/>
      <stop offset="1.0" stop-color="#dad596"/>
    </linearGradient>
  </defs>
</svg>
