<?xml version="1.0" encoding="UTF-8" standalone="no"?>
<svg xmlns:ffdec="https://www.free-decompiler.com/flash" xmlns:xlink="http://www.w3.org/1999/xlink" ffdec:objectType="shape" height="32.75px" width="31.55px" xmlns="http://www.w3.org/2000/svg">
  <g transform="matrix(1.0, 0.0, 0.0, 1.0, 15.75, 16.4)">
    <path d="M12.15 -9.4 L13.6 -11.55 13.65 -11.6 Q13.95 -12.2 13.75 -12.9 L12.95 -13.95 11.6 -14.15 11.5 -14.1 Q10.85 -13.9 10.6 -13.3 L9.8 -11.85 8.3 -12.7 9.8 -15.25 Q10.4 -16.0 11.4 -16.3 12.8 -16.6 14.05 -15.9 L14.1 -15.85 Q15.35 -15.15 15.7 -13.8 16.05 -12.4 15.35 -11.1 L14.55 -9.75 13.1 -7.4 12.15 -9.4 M-14.0 -8.0 L-15.5 -11.55 Q-16.05 -12.9 -15.45 -14.25 -15.0 -15.55 -13.6 -16.05 L-10.9 -16.15 Q-10.0 -15.75 -9.45 -14.9 L-9.1 -14.2 -8.3 -12.15 -9.95 -11.5 -10.5 -13.05 -10.95 -13.75 -11.4 -14.05 Q-12.05 -14.35 -12.75 -14.05 L-13.65 -13.15 Q-13.95 -12.4 -13.7 -11.75 L-12.6 -9.4 -13.4 -8.1 -13.85 -7.55 -14.0 -8.0" fill="url(#gradient0)" fill-rule="evenodd" stroke="none"/>
    <path d="M9.8 -11.85 L10.6 -13.3 Q10.85 -13.9 11.5 -14.1 L11.6 -14.15 12.95 -13.95 13.75 -12.9 Q13.95 -12.2 13.65 -11.6 L13.6 -11.55 12.15 -9.4 Q11.25 -10.9 9.8 -11.85 M-9.95 -11.5 Q-11.5 -10.8 -12.6 -9.4 L-13.7 -11.75 Q-13.95 -12.4 -13.65 -13.15 L-12.75 -14.05 Q-12.05 -14.35 -11.4 -14.05 L-10.95 -13.75 -10.5 -13.05 -9.95 -11.5" fill="#e34a48" fill-rule="evenodd" stroke="none"/>
    <path d="M12.15 -9.4 L13.1 -7.4 14.55 -9.75 Q15.1 -8.2 15.1 -6.4 L15.1 -5.1 4.55 -5.1 4.3 -5.4 4.05 -5.6 3.2 -5.85 2.35 -5.6 2.1 -5.4 1.9 -5.1 0.0 -5.1 0.0 -3.05 Q-0.85 -3.7 -1.8 -3.9 L-3.15 -4.1 -4.9 -4.1 Q-6.35 -4.1 -7.45 -3.4 L-7.3 -3.4 -8.35 -2.6 -8.9 -1.95 Q-9.8 -0.65 -9.8 0.95 L-9.8 1.85 Q-9.8 2.95 -9.35 3.9 L-9.0 4.55 -9.05 4.7 -8.95 5.05 -8.65 5.2 -8.5 5.2 -8.35 5.35 Q-6.85 6.85 -4.8 6.85 L-2.95 6.85 Q-1.25 6.85 0.0 5.85 L0.0 16.3 -5.9 16.25 -7.4 16.0 Q-13.5 14.65 -14.1 7.8 L-14.1 7.2 -14.15 6.85 -14.15 -6.65 -14.0 -8.0 -13.85 -7.55 -13.4 -8.1 -12.6 -9.4 Q-11.5 -10.8 -9.95 -11.5 L-8.3 -12.15 -9.1 -14.2 -9.45 -14.9 Q-7.1 -16.4 -4.15 -16.4 L5.1 -16.4 Q7.7 -16.4 9.8 -15.25 L8.3 -12.7 9.8 -11.85 Q11.25 -10.9 12.15 -9.4 M5.25 16.3 L5.25 16.35 2.9 16.35 5.25 16.3 M-11.2 -5.4 L-11.65 -4.3 -11.2 -3.2 Q-10.75 -2.75 -10.1 -2.75 -9.45 -2.75 -9.0 -3.2 -8.55 -3.65 -8.55 -4.3 -8.55 -4.95 -9.0 -5.4 L-9.1 -5.5 -10.1 -5.85 -11.1 -5.5 -11.2 -5.4" fill="url(#gradient1)" fill-rule="evenodd" stroke="none"/>
    <path d="M15.1 -5.1 L15.1 6.9 15.05 7.25 15.05 7.85 Q14.45 14.7 8.35 16.05 L6.85 16.3 5.25 16.3 2.9 16.35 0.0 16.35 0.0 16.3 0.0 5.85 0.0 -3.05 0.0 -5.1 1.9 -5.1 4.55 -5.1 15.1 -5.1" fill="url(#gradient2)" fill-rule="evenodd" stroke="none"/>
    <path d="M-9.0 4.55 L-9.35 3.9 Q-9.8 2.95 -9.8 1.85 L-9.8 0.95 Q-9.8 -0.65 -8.9 -1.95 L-8.35 -2.6 -7.3 -3.4 -7.45 -3.4 Q-6.35 -4.1 -4.9 -4.1 L-3.15 -4.1 -1.8 -3.9 Q-0.5 -3.65 0.55 -2.6 2.05 -1.1 2.05 0.95 L2.05 1.85 Q2.05 3.9 0.55 5.35 -0.9 6.85 -2.95 6.85 L-4.8 6.85 Q-6.85 6.85 -8.35 5.35 L-8.5 5.2 -8.2 5.2 Q-6.6 5.25 -5.95 4.3 L-5.65 3.75 -5.15 4.35 Q-4.15 5.45 -1.45 5.1 L-1.2 4.9 -1.1 4.6 -1.3 4.3 -1.6 4.2 Q-3.7 4.45 -4.5 3.75 L-5.15 2.65 -4.55 2.1 -3.1 -0.35 -2.95 -1.25 -3.45 -2.05 Q-3.8 -2.4 -4.3 -2.4 L-7.2 -2.4 Q-7.7 -2.4 -8.05 -2.05 -8.45 -1.75 -8.5 -1.25 L-8.35 -0.3 -6.9 2.15 -6.25 2.7 -6.7 3.85 Q-7.2 4.4 -8.55 4.3 L-8.85 4.35 -8.9 4.35 -9.0 4.55" fill="#f67065" fill-rule="evenodd" stroke="none"/>
    <path d="M-9.0 4.55 L-8.9 4.35 -8.85 4.35 -8.55 4.3 Q-7.2 4.4 -6.7 3.85 L-6.25 2.7 -6.9 2.15 -8.35 -0.3 -8.5 -1.25 Q-8.45 -1.75 -8.05 -2.05 -7.7 -2.4 -7.2 -2.4 L-4.3 -2.4 Q-3.8 -2.4 -3.45 -2.05 L-2.95 -1.25 -3.1 -0.35 -4.55 2.1 -5.15 2.65 -4.5 3.75 Q-3.7 4.45 -1.6 4.2 L-1.3 4.3 -1.1 4.6 -1.2 4.9 -1.45 5.1 Q-4.15 5.45 -5.15 4.35 L-5.65 3.75 -5.95 4.3 Q-6.6 5.25 -8.2 5.2 L-8.5 5.2 -8.65 5.2 -8.95 5.05 -9.05 4.7 -9.0 4.55 M4.3 -5.4 Q4.75 -4.95 4.75 -4.3 4.75 -3.65 4.3 -3.2 3.85 -2.75 3.2 -2.75 2.55 -2.75 2.1 -3.2 1.65 -3.65 1.65 -4.3 1.65 -4.95 2.1 -5.4 L2.35 -5.6 3.2 -5.85 4.05 -5.6 4.3 -5.4 M-11.2 -5.4 L-11.1 -5.5 -10.1 -5.85 -9.1 -5.5 -9.0 -5.4 Q-8.55 -4.95 -8.55 -4.3 -8.55 -3.65 -9.0 -3.2 -9.45 -2.75 -10.1 -2.75 -10.75 -2.75 -11.2 -3.2 L-11.65 -4.3 -11.2 -5.4" fill="#511a38" fill-rule="evenodd" stroke="none"/>
  </g>
  <defs>
    <linearGradient gradientTransform="matrix(0.0, 0.0067, -0.004, 0.0, -12.15, 5.8)" gradientUnits="userSpaceOnUse" id="gradient0" spreadMethod="pad" x1="-819.2" x2="819.2">
      <stop offset="0.0" stop-color="#ac3d4f"/>
      <stop offset="0.7372549019607844" stop-color="#76334e"/>
    </linearGradient>
    <linearGradient gradientTransform="matrix(0.0, 0.0187, -0.0179, 0.0, 0.5, 0.15)" gradientUnits="userSpaceOnUse" id="gradient1" spreadMethod="pad" x1="-819.2" x2="819.2">
      <stop offset="0.0" stop-color="#f15341"/>
      <stop offset="0.2823529411764706" stop-color="#d04050"/>
      <stop offset="0.8666666666666667" stop-color="#92474f"/>
    </linearGradient>
    <linearGradient gradientTransform="matrix(0.0, 0.0187, 0.0179, 0.0, 0.45, 0.2)" gradientUnits="userSpaceOnUse" id="gradient2" spreadMethod="pad" x1="-819.2" x2="819.2">
      <stop offset="0.0" stop-color="#f15341"/>
      <stop offset="0.2823529411764706" stop-color="#d04050"/>
      <stop offset="0.8666666666666667" stop-color="#92474f"/>
    </linearGradient>
  </defs>
</svg>
