<?xml version="1.0" encoding="UTF-8" standalone="no"?>
<svg xmlns:ffdec="https://www.free-decompiler.com/flash" xmlns:xlink="http://www.w3.org/1999/xlink" ffdec:objectType="shape" height="11.05px" width="12.55px" xmlns="http://www.w3.org/2000/svg">
  <g transform="matrix(1.0, 0.0, 0.0, 1.0, 5.7, 14.0)">
    <path d="M-5.05 -5.25 Q-1.0 -2.45 4.85 -4.4" fill="none" stroke="#000000" stroke-linecap="square" stroke-linejoin="round" stroke-opacity="0.24705882" stroke-width="1.0"/>
    <path d="M2.85 -3.75 Q3.1 -7.15 0.75 -9.75 L0.65 -9.85 1.45 -9.65 Q2.85 -9.2 3.85 -8.0 5.15 -6.45 5.05 -4.45 3.95 -3.9 2.85 -3.75" fill="url(#gradient0)" fill-rule="evenodd" stroke="none"/>
    <path d="M0.65 -9.85 L0.75 -9.75 Q3.1 -7.15 2.85 -3.75 L-2.95 -4.1 Q-2.8 -7.9 0.65 -9.85" fill="url(#gradient1)" fill-rule="evenodd" stroke="none"/>
    <path d="M-2.95 -4.1 Q-4.2 -4.55 -5.25 -5.4 -4.95 -7.4 -3.4 -8.7 -1.75 -10.05 0.4 -9.85 L0.65 -9.85 Q-2.8 -7.9 -2.95 -4.1" fill="url(#gradient2)" fill-rule="evenodd" stroke="none"/>
    <path d="M0.65 -9.85 L0.95 -12.5" fill="none" stroke="#e84a61" stroke-linecap="round" stroke-linejoin="round" stroke-width="1.0"/>
    <path d="M0.25 -12.45 L-1.8 -12.3 -4.05 -12.9 Q-4.95 -13.15 -4.95 -13.5 -4.85 -13.8 -3.95 -13.95 L-1.65 -13.9 Q-0.4 -13.75 0.25 -13.25 L1.05 -12.7 2.1 -12.9 4.15 -13.1 6.1 -12.65 6.85 -12.05 Q6.85 -11.75 5.9 -11.7 5.0 -11.5 3.65 -11.7 2.35 -11.85 1.4 -12.4 L0.9 -12.65 0.85 -12.65 0.25 -12.45" fill="url(#gradient3)" fill-rule="evenodd" stroke="none"/>
  </g>
  <defs>
    <linearGradient gradientTransform="matrix(0.0029, 2.0E-4, -3.0E-4, 0.0034, 2.75, -6.85)" gradientUnits="userSpaceOnUse" id="gradient0" spreadMethod="pad" x1="-819.2" x2="819.2">
      <stop offset="0.0" stop-color="#ff123c"/>
      <stop offset="1.0" stop-color="#91485b"/>
    </linearGradient>
    <linearGradient gradientTransform="matrix(0.0034, 3.0E-4, -3.0E-4, 0.0036, 0.0, -6.95)" gradientUnits="userSpaceOnUse" id="gradient1" spreadMethod="pad" x1="-819.2" x2="819.2">
      <stop offset="0.0" stop-color="#f7f4d2"/>
      <stop offset="1.0" stop-color="#dad596"/>
    </linearGradient>
    <linearGradient gradientTransform="matrix(0.0033, 3.0E-4, -3.0E-4, 0.0034, -2.25, -7.3)" gradientUnits="userSpaceOnUse" id="gradient2" spreadMethod="pad" x1="-819.2" x2="819.2">
      <stop offset="0.0" stop-color="#ff123c"/>
      <stop offset="1.0" stop-color="#91485b"/>
    </linearGradient>
    <linearGradient gradientTransform="matrix(0.0071, 8.0E-4, 0.0, 9.0E-4, 0.9, -12.75)" gradientUnits="userSpaceOnUse" id="gradient3" spreadMethod="pad" x1="-819.2" x2="819.2">
      <stop offset="0.0" stop-color="#ff123c"/>
      <stop offset="1.0" stop-color="#91485b"/>
    </linearGradient>
  </defs>
</svg>
