<?xml version="1.0" encoding="UTF-8" standalone="no"?>
<svg xmlns:ffdec="https://www.free-decompiler.com/flash" xmlns:xlink="http://www.w3.org/1999/xlink" ffdec:objectType="shape" height="21.9px" width="27.95px" xmlns="http://www.w3.org/2000/svg">
  <g transform="matrix(1.0, 0.0, 0.0, 1.0, 14.1, 20.85)">
    <path d="M5.25 -16.45 L5.15 -16.5 Q4.75 -16.9 4.75 -17.5 4.75 -18.0 5.15 -18.45 5.6 -18.8 6.2 -18.8 6.85 -18.8 7.25 -18.45 L7.7 -17.5 Q7.7 -16.9 7.25 -16.5 L6.5 -16.1 6.2 -16.1 Q5.65 -16.1 5.25 -16.45" fill="url(#gradient0)" fill-rule="evenodd" stroke="none"/>
    <path d="M-1.2 -18.35 L-1.45 -18.55 Q-1.9 -18.9 -1.9 -19.5 L-1.45 -20.45 Q-1.05 -20.85 -0.4 -20.85 0.2 -20.85 0.65 -20.45 1.1 -20.05 1.1 -19.5 1.1 -18.9 0.65 -18.55 L0.35 -18.3 -0.4 -18.1 Q-0.85 -18.1 -1.2 -18.35" fill="url(#gradient1)" fill-rule="evenodd" stroke="none"/>
    <path d="M6.5 -16.1 L7.35 -12.55 4.5 -10.25 3.15 -13.75 Q4.05 -15.2 5.25 -16.45 5.65 -16.1 6.2 -16.1 L6.5 -16.1 M11.05 -14.45 L11.15 -14.5 11.3 -14.35 11.05 -14.45 M-7.85 -12.6 Q-7.65 -14.65 -6.95 -16.1 L-6.7 -16.1 Q-6.1 -16.1 -5.7 -16.45 L-3.65 -13.5 -4.7 -10.15 Q-6.2 -11.55 -7.85 -12.6 M6.7 -12.8 Q6.65 -14.45 6.05 -15.5 L6.0 -15.55 5.9 -15.55 5.85 -15.5 5.85 -15.4 Q6.4 -14.35 6.45 -12.8 L6.5 -12.7 6.55 -12.7 6.65 -12.75 6.7 -12.8 M-4.15 -13.45 L-5.75 -15.6 -5.8 -15.65 -5.9 -15.65 -5.95 -15.55 -5.9 -15.5 -4.35 -13.3 -4.25 -13.3 -4.15 -13.3 -4.15 -13.4 -4.15 -13.45" fill="#c0ac0a" fill-rule="evenodd" stroke="none"/>
    <path d="M6.7 -12.8 L6.65 -12.75 6.55 -12.7 6.5 -12.7 6.45 -12.8 Q6.4 -14.35 5.85 -15.4 L5.85 -15.5 5.9 -15.55 6.0 -15.55 6.05 -15.5 Q6.65 -14.45 6.7 -12.8 M3.6 -10.35 L3.6 -10.25 3.5 -10.2 3.45 -10.2 3.4 -10.3 Q2.5 -14.3 0.25 -16.95 L0.2 -17.05 0.25 -17.15 0.35 -17.15 0.45 -17.1 Q2.7 -14.35 3.6 -10.35 M9.55 -3.25 L9.5 -3.15 9.4 -3.15 9.35 -3.25 9.35 -3.3 Q11.0 -8.15 11.55 -13.45 L11.6 -13.5 11.7 -13.55 11.8 -13.5 11.8 -13.4 Q11.3 -8.05 9.55 -3.25 M9.35 -1.65 L9.45 -1.65 9.45 -1.55 9.45 -1.5 9.35 -1.45 Q-0.1 -0.5 -9.6 -1.45 L-9.7 -1.5 -9.7 -1.55 -9.65 -1.65 -9.6 -1.65 Q-0.1 -0.7 9.35 -1.65 M-5.25 -9.8 L-5.2 -9.7 -5.25 -9.65 -5.35 -9.65 -5.4 -9.65 Q-7.75 -12.0 -10.7 -13.35 L-10.8 -13.4 -10.8 -13.45 -10.7 -13.55 -10.65 -13.55 Q-7.55 -12.2 -5.25 -9.8 M-4.15 -13.45 L-4.15 -13.4 -4.15 -13.3 -4.25 -13.3 -4.35 -13.3 -5.9 -15.5 -5.95 -15.55 -5.9 -15.65 -5.8 -15.65 -5.75 -15.6 -4.15 -13.45" fill="#f7f4d2" fill-rule="evenodd" stroke="none"/>
    <path d="M7.35 -12.55 L11.05 -14.45 11.3 -14.35 Q11.75 -13.9 12.35 -13.9 11.95 -8.4 10.15 -2.4 -0.5 -0.9 -10.0 -2.35 -11.75 -8.45 -12.45 -13.75 -11.95 -13.8 -11.55 -14.15 L-11.3 -14.45 -11.15 -14.35 Q-9.4 -13.65 -7.85 -12.6 -6.2 -11.55 -4.7 -10.15 L-3.65 -13.5 Q-2.65 -16.2 -1.2 -18.35 -0.85 -18.1 -0.4 -18.1 L0.35 -18.3 Q2.05 -16.15 3.15 -13.75 L4.5 -10.25 7.35 -12.55 M3.6 -10.35 Q2.7 -14.35 0.45 -17.1 L0.35 -17.15 0.25 -17.15 0.2 -17.05 0.25 -16.95 Q2.5 -14.3 3.4 -10.3 L3.45 -10.2 3.5 -10.2 3.6 -10.25 3.6 -10.35 M9.55 -3.25 Q11.3 -8.05 11.8 -13.4 L11.8 -13.5 11.7 -13.55 11.6 -13.5 11.55 -13.45 Q11.0 -8.15 9.35 -3.3 L9.35 -3.25 9.4 -3.15 9.5 -3.15 9.55 -3.25 M-5.25 -9.8 Q-7.55 -12.2 -10.65 -13.55 L-10.7 -13.55 -10.8 -13.45 -10.8 -13.4 -10.7 -13.35 Q-7.75 -12.0 -5.4 -9.65 L-5.35 -9.65 -5.25 -9.65 -5.2 -9.7 -5.25 -9.8" fill="url(#gradient2)" fill-rule="evenodd" stroke="none"/>
    <path d="M11.15 -14.5 Q10.85 -14.85 10.85 -15.3 10.85 -15.85 11.3 -16.25 11.75 -16.65 12.35 -16.65 13.0 -16.65 13.4 -16.25 L13.85 -15.3 Q13.85 -14.7 13.4 -14.35 13.0 -13.9 12.35 -13.9 11.75 -13.9 11.3 -14.35 L11.15 -14.5" fill="url(#gradient3)" fill-rule="evenodd" stroke="none"/>
    <path d="M10.15 -2.4 Q11.45 -1.25 10.6 0.35 -0.2 1.8 -10.8 0.35 -11.05 -1.3 -10.0 -2.35 -0.5 -0.9 10.15 -2.4 M9.35 -1.65 Q-0.1 -0.7 -9.6 -1.65 L-9.65 -1.65 -9.7 -1.55 -9.7 -1.5 -9.6 -1.45 Q-0.1 -0.5 9.35 -1.45 L9.45 -1.5 9.45 -1.55 9.45 -1.65 9.35 -1.65" fill="url(#gradient4)" fill-rule="evenodd" stroke="none"/>
    <path d="M-12.45 -13.75 L-12.65 -13.75 Q-13.25 -13.75 -13.65 -14.15 -14.1 -14.5 -14.1 -15.1 -14.1 -15.65 -13.65 -16.05 -13.25 -16.45 -12.65 -16.45 -12.0 -16.45 -11.55 -16.05 -11.15 -15.65 -11.15 -15.1 L-11.3 -14.45 -11.55 -14.15 Q-11.95 -13.8 -12.45 -13.75" fill="url(#gradient5)" fill-rule="evenodd" stroke="none"/>
    <path d="M-6.95 -16.1 Q-7.4 -16.2 -7.75 -16.5 -8.2 -16.9 -8.2 -17.5 L-7.75 -18.45 -6.7 -18.8 Q-6.05 -18.8 -5.65 -18.45 -5.2 -18.0 -5.2 -17.5 -5.2 -16.9 -5.65 -16.5 L-5.7 -16.45 Q-6.1 -16.1 -6.7 -16.1 L-6.95 -16.1" fill="url(#gradient6)" fill-rule="evenodd" stroke="none"/>
  </g>
  <defs>
    <linearGradient gradientTransform="matrix(0.0018, 0.0, 0.0, 0.0016, 6.1, -17.35)" gradientUnits="userSpaceOnUse" id="gradient0" spreadMethod="pad" x1="-819.2" x2="819.2">
      <stop offset="0.0" stop-color="#ff123c"/>
      <stop offset="1.0" stop-color="#91485b"/>
    </linearGradient>
    <linearGradient gradientTransform="matrix(0.0018, 0.0, 0.0, 0.0016, -0.3, -19.4)" gradientUnits="userSpaceOnUse" id="gradient1" spreadMethod="pad" x1="-819.2" x2="819.2">
      <stop offset="0.0" stop-color="#ff123c"/>
      <stop offset="1.0" stop-color="#91485b"/>
    </linearGradient>
    <linearGradient gradientTransform="matrix(0.0151, 0.0, 0.0, 0.0101, 0.0, -9.9)" gradientUnits="userSpaceOnUse" id="gradient2" spreadMethod="pad" x1="-819.2" x2="819.2">
      <stop offset="0.0" stop-color="#c0ac0a"/>
      <stop offset="1.0" stop-color="#ffe40d"/>
    </linearGradient>
    <linearGradient gradientTransform="matrix(0.0018, 0.0, 0.0, 0.0016, 12.25, -15.2)" gradientUnits="userSpaceOnUse" id="gradient3" spreadMethod="pad" x1="-819.2" x2="819.2">
      <stop offset="0.0" stop-color="#ff123c"/>
      <stop offset="1.0" stop-color="#91485b"/>
    </linearGradient>
    <linearGradient gradientTransform="matrix(0.0133, 0.0, 0.0, 0.0021, 0.1, -0.7)" gradientUnits="userSpaceOnUse" id="gradient4" spreadMethod="pad" x1="-819.2" x2="819.2">
      <stop offset="0.0" stop-color="#c0ac0a"/>
      <stop offset="1.0" stop-color="#ffe40d"/>
    </linearGradient>
    <linearGradient gradientTransform="matrix(0.0018, 0.0, 0.0, 0.0016, -12.5, -15.0)" gradientUnits="userSpaceOnUse" id="gradient5" spreadMethod="pad" x1="-819.2" x2="819.2">
      <stop offset="0.0" stop-color="#ff123c"/>
      <stop offset="1.0" stop-color="#91485b"/>
    </linearGradient>
    <linearGradient gradientTransform="matrix(0.0018, 0.0, 0.0, 0.0016, -6.55, -17.35)" gradientUnits="userSpaceOnUse" id="gradient6" spreadMethod="pad" x1="-819.2" x2="819.2">
      <stop offset="0.0" stop-color="#ff123c"/>
      <stop offset="1.0" stop-color="#91485b"/>
    </linearGradient>
  </defs>
</svg>
