<?xml version="1.0" encoding="UTF-8" standalone="no"?>
<svg xmlns:ffdec="https://www.free-decompiler.com/flash" xmlns:xlink="http://www.w3.org/1999/xlink" ffdec:objectType="shape" height="20.05px" width="11.7px" xmlns="http://www.w3.org/2000/svg">
  <g transform="matrix(1.0, 0.0, 0.0, 1.0, 5.85, 23.25)">
    <path d="M-5.2 -4.9 Q-0.05 -2.75 5.2 -5.05" fill="none" stroke="#000000" stroke-linecap="square" stroke-linejoin="round" stroke-opacity="0.24705882" stroke-width="1.0"/>
    <path d="M3.25 -13.45 L3.95 -11.65 Q-0.15 -8.7 -5.15 -7.25 L-4.55 -9.55 Q-0.25 -10.95 3.25 -13.45 M4.7 -9.3 L5.2 -7.35 Q2.8 -5.4 -0.1 -4.0 L-3.9 -4.5 Q0.65 -6.5 4.7 -9.3 M-3.65 -12.4 L-2.45 -15.35 Q-0.4 -15.95 1.2 -17.3 L2.25 -15.55 Q-0.4 -13.6 -3.65 -12.4" fill="#f7f4d2" fill-rule="evenodd" stroke="none"/>
    <path d="M2.25 -15.55 L3.25 -13.45 Q-0.25 -10.95 -4.55 -9.55 L-3.65 -12.4 Q-0.4 -13.6 2.25 -15.55 M3.95 -11.65 L4.7 -9.3 Q0.65 -6.5 -3.9 -4.5 L-4.85 -4.8 -5.6 -5.1 -5.15 -7.25 Q-0.15 -8.7 3.95 -11.65 M5.2 -7.35 L5.6 -5.15 3.85 -4.6 -0.1 -4.0 Q2.8 -5.4 5.2 -7.35 M-2.45 -15.35 Q-1.4 -17.55 -0.15 -19.2 L1.2 -17.3 Q-0.4 -15.95 -2.45 -15.35" fill="url(#gradient0)" fill-rule="evenodd" stroke="none"/>
    <path d="M-3.7 -19.85 L-4.0 -20.15 -3.55 -20.3 -3.8 -20.65 -3.4 -20.7 -3.6 -21.15 -3.15 -21.15 -3.35 -21.55 -2.85 -21.5 -3.05 -21.95 -2.55 -21.85 -2.65 -22.3 -2.2 -22.15 -2.25 -22.6 -1.8 -22.4 -1.8 -22.9 -1.4 -22.55 -1.3 -23.1 -0.95 -22.75 -0.8 -23.2 -0.5 -22.8 -0.3 -23.25 -0.05 -22.85 0.15 -23.25 0.35 -22.85 0.65 -23.25 0.85 -22.75 1.2 -23.1 1.25 -22.6 1.65 -22.9 1.7 -22.4 2.05 -22.7 2.05 -22.2 2.5 -22.4 2.4 -21.9 2.8 -22.05 2.7 -21.55 3.15 -21.65 2.95 -21.2 3.45 -21.15 3.15 -20.8 3.65 -20.75 3.35 -20.35 3.8 -20.25 3.45 -19.95 3.9 -19.75 Q3.7 -19.55 3.5 -19.45 L3.9 -19.2 3.45 -19.05 3.85 -18.7 3.45 -18.55 3.75 -18.25 3.3 -18.1 3.6 -17.7 3.15 -17.65 3.4 -17.3 2.9 -17.25 3.1 -16.8 2.6 -16.85 2.75 -16.4 2.35 -16.6 2.4 -16.05 1.95 -16.25 2.0 -15.8 1.6 -16.0 1.55 -15.55 1.2 -15.8 1.1 -15.35 0.75 -15.65 0.6 -15.2 0.3 -15.55 0.1 -15.15 -0.15 -15.55 -0.4 -15.15 -0.6 -15.55 -0.9 -15.2 -1.05 -15.65 -1.4 -15.3 -1.45 -15.75 -1.85 -15.5 -1.9 -15.95 -2.3 -15.7 -2.3 -16.2 -2.7 -16.0 -2.6 -16.5 -3.05 -16.4 -2.95 -16.85 -3.4 -16.75 -3.2 -17.2 -3.7 -17.2 -3.4 -17.6 -3.9 -17.65 -3.55 -18.0 -4.0 -18.15 -3.7 -18.45 -4.1 -18.65 Q-3.9 -18.75 -3.75 -18.9 L-4.15 -19.2 Q-3.9 -19.25 -3.75 -19.4 L-4.1 -19.65 -3.7 -19.85" fill="#e84a61" fill-rule="evenodd" stroke="none"/>
  </g>
  <defs>
    <linearGradient gradientTransform="matrix(0.314, 0.0, 0.0, 0.314, 23.55, 1.4)" gradientUnits="userSpaceOnUse" id="gradient0" spreadMethod="pad" x1="-819.2" x2="819.2">
      <stop offset="0.0" stop-color="#ff123c"/>
      <stop offset="1.0" stop-color="#91485b"/>
    </linearGradient>
  </defs>
</svg>
