<?xml version="1.0" encoding="UTF-8" standalone="no"?>
<svg xmlns:ffdec="https://www.free-decompiler.com/flash" xmlns:xlink="http://www.w3.org/1999/xlink" ffdec:objectType="shape" height="20.5px" width="39.6px" xmlns="http://www.w3.org/2000/svg">
  <g transform="matrix(1.0, 0.0, 0.0, 1.0, 19.75, 19.65)">
    <path d="M-5.65 -11.9 L-6.0 -11.1 Q-10.6 -10.7 -14.05 -9.7 -18.75 -8.4 -18.75 -7.1 -18.75 -5.85 -14.05 -4.6 -8.4 -3.15 -0.15 -3.2 8.25 -3.25 13.85 -4.8 18.5 -6.2 18.5 -7.45 18.5 -8.7 13.75 -9.9 10.3 -10.85 5.8 -11.2 L5.4 -12.05 13.7 -10.85 Q19.35 -9.5 19.45 -7.45 L19.35 -7.05 Q18.85 -5.25 13.7 -3.95 L13.65 -3.95 12.75 -3.65 Q8.1 -2.65 2.0 -2.4 L1.85 -2.4 -0.05 -2.4 Q-8.1 -2.25 -13.85 -3.65 -18.95 -4.95 -19.55 -6.65 L-19.65 -7.1 Q-19.65 -9.1 -13.9 -10.6 L-5.65 -11.9 M18.65 -3.4 L18.05 -2.55 Q17.5 -1.8 16.55 -1.4 11.25 0.8 -0.05 0.85 -11.25 1.05 -16.65 -1.05 -17.55 -1.45 -18.15 -2.2 L-18.65 -3.0 Q-18.45 -3.0 -18.15 -3.25 L-18.05 -3.55 -15.1 -2.4 -15.25 -2.05 -14.9 -1.4 -14.25 -1.2 Q-13.85 -1.2 -13.65 -1.45 -13.35 -1.65 -13.3 -1.95 L-10.1 -1.4 -10.2 -1.2 -9.85 -0.55 Q-9.6 -0.25 -9.2 -0.25 -8.8 -0.25 -8.5 -0.55 -8.25 -0.8 -8.25 -1.15 L-4.2 -0.8 -4.2 -0.65 Q-4.2 -0.25 -3.85 0.0 -3.75 0.35 -3.25 0.35 L-2.6 0.0 Q-2.25 -0.25 -2.25 -0.65 L-2.25 -0.8 -0.05 -0.8 2.55 -0.8 2.55 -0.75 2.75 -0.05 3.4 0.2 4.15 -0.05 4.3 -0.75 4.3 -0.95 8.4 -1.25 8.6 -0.65 Q8.9 -0.4 9.25 -0.4 9.7 -0.4 10.0 -0.8 L10.2 -1.4 10.2 -1.6 13.35 -2.2 Q13.35 -1.95 13.65 -1.75 13.95 -1.45 14.3 -1.45 14.7 -1.45 14.95 -1.75 L15.25 -2.35 15.25 -2.75 Q16.95 -3.25 18.05 -4.0 L18.25 -3.6 18.65 -3.4" fill="#cc3d51" fill-rule="evenodd" stroke="none"/>
    <path d="M-5.65 -11.9 L-5.3 -12.8 Q-2.4 -19.55 -0.25 -19.65 1.85 -19.65 5.0 -12.9 L5.4 -12.05 5.8 -11.2 6.9 -8.3 Q-0.95 -3.6 -6.9 -8.85 L-6.0 -11.1 -5.65 -11.9" fill="url(#gradient0)" fill-rule="evenodd" stroke="none"/>
    <path d="M-6.0 -11.1 L-6.9 -8.85 Q-0.95 -3.6 6.9 -8.3 L5.8 -11.2 Q10.3 -10.85 13.75 -9.9 18.5 -8.7 18.5 -7.45 18.5 -6.2 13.85 -4.8 8.25 -3.25 -0.15 -3.2 -8.4 -3.15 -14.05 -4.6 -18.75 -5.85 -18.75 -7.1 -18.75 -8.4 -14.05 -9.7 -10.6 -10.7 -6.0 -11.1" fill="url(#gradient1)" fill-rule="evenodd" stroke="none"/>
    <path d="M19.35 -6.2 L19.45 -5.85 19.25 -5.1 18.85 -5.25 19.35 -6.2 M-19.35 -4.75 L-19.65 -5.5 -19.55 -5.9 Q-19.45 -5.4 -18.85 -4.85 L-19.35 -4.75 M15.25 -2.75 L14.95 -3.05 14.55 -3.25 Q16.85 -3.95 18.05 -4.75 L17.9 -4.25 Q17.9 -4.15 18.05 -4.0 16.95 -3.25 15.25 -2.75 M10.2 -1.6 L9.9 -2.0 9.6 -2.2 13.65 -3.0 Q13.3 -2.8 13.3 -2.4 L13.35 -2.2 10.2 -1.6 M8.4 -1.25 L4.3 -0.95 4.05 -1.4 3.75 -1.6 8.7 -2.05 8.6 -2.0 Q8.3 -1.8 8.3 -1.4 L8.4 -1.25 M2.55 -0.8 L-0.05 -0.8 -2.25 -0.8 -2.6 -1.25 -2.85 -1.55 -0.05 -1.55 3.0 -1.55 Q2.85 -1.55 2.75 -1.35 L2.55 -0.8 M-4.2 -0.8 L-8.25 -1.15 -8.25 -1.2 Q-8.3 -1.6 -8.5 -1.85 L-8.5 -1.95 -3.65 -1.55 -3.95 -1.25 -4.2 -0.8 M-10.1 -1.4 L-13.3 -1.95 -13.3 -2.05 Q-13.3 -2.55 -13.55 -2.8 L-9.65 -2.0 -9.85 -1.85 -10.1 -1.4 M-15.1 -2.4 L-18.05 -3.55 -17.9 -4.0 -17.95 -4.25 Q-16.75 -3.6 -14.55 -3.0 L-14.9 -2.8 -15.1 -2.4" fill="#75260c" fill-rule="evenodd" stroke="none"/>
    <path d="M19.35 -7.05 L19.45 -6.65 19.35 -6.2 18.85 -5.25 19.25 -5.1 19.5 -5.0 19.85 -4.35 19.55 -3.6 18.85 -3.4 18.65 -3.4 18.25 -3.6 18.05 -4.0 Q17.9 -4.15 17.9 -4.25 L18.05 -4.75 Q16.85 -3.95 14.55 -3.25 L14.95 -3.05 15.25 -2.75 15.25 -2.35 14.95 -1.75 Q14.7 -1.45 14.3 -1.45 13.95 -1.45 13.65 -1.75 13.35 -1.95 13.35 -2.2 L13.3 -2.4 Q13.3 -2.8 13.65 -3.0 L9.6 -2.2 9.9 -2.0 10.2 -1.6 10.2 -1.4 10.0 -0.8 Q9.7 -0.4 9.25 -0.4 8.9 -0.4 8.6 -0.65 L8.4 -1.25 8.3 -1.4 Q8.3 -1.8 8.6 -2.0 L8.7 -2.05 3.75 -1.6 4.05 -1.4 4.3 -0.95 4.3 -0.75 4.15 -0.05 3.4 0.2 2.75 -0.05 2.55 -0.75 2.55 -0.8 2.75 -1.35 Q2.85 -1.55 3.0 -1.55 L-0.05 -1.55 -2.85 -1.55 -2.6 -1.25 -2.25 -0.8 -2.25 -0.65 Q-2.25 -0.25 -2.6 0.0 L-3.25 0.35 Q-3.75 0.35 -3.85 0.0 -4.2 -0.25 -4.2 -0.65 L-4.2 -0.8 -3.95 -1.25 -3.65 -1.55 -8.5 -1.95 -8.5 -1.85 Q-8.3 -1.6 -8.25 -1.2 L-8.25 -1.15 Q-8.25 -0.8 -8.5 -0.55 -8.8 -0.25 -9.2 -0.25 -9.6 -0.25 -9.85 -0.55 L-10.2 -1.2 -10.1 -1.4 -9.85 -1.85 -9.65 -2.0 -13.55 -2.8 Q-13.3 -2.55 -13.3 -2.05 L-13.3 -1.95 Q-13.35 -1.65 -13.65 -1.45 -13.85 -1.2 -14.25 -1.2 L-14.9 -1.4 -15.25 -2.05 -15.1 -2.4 -14.9 -2.8 -14.55 -3.0 Q-16.75 -3.6 -17.95 -4.25 L-17.9 -4.0 -18.05 -3.55 -18.15 -3.25 Q-18.45 -3.0 -18.65 -3.0 L-18.85 -3.0 Q-19.25 -3.0 -19.5 -3.25 L-19.75 -3.95 -19.5 -4.6 -19.35 -4.75 -18.85 -4.85 Q-19.45 -5.4 -19.55 -5.9 L-19.65 -6.25 -19.55 -6.65 Q-18.95 -4.95 -13.85 -3.65 -8.1 -2.25 -0.05 -2.4 L1.85 -2.4 2.0 -2.4 Q8.1 -2.65 12.75 -3.65 L13.65 -3.95 13.7 -3.95 Q18.85 -5.25 19.35 -7.05" fill="#ebf3ef" fill-rule="evenodd" stroke="none"/>
  </g>
  <defs>
    <linearGradient gradientTransform="matrix(-0.003, -0.0022, 0.0046, -0.0064, -1.95, -13.2)" gradientUnits="userSpaceOnUse" id="gradient0" spreadMethod="pad" x1="-819.2" x2="819.2">
      <stop offset="0.0" stop-color="#ffa61d"/>
      <stop offset="1.0" stop-color="#d88e1a"/>
    </linearGradient>
    <linearGradient gradientTransform="matrix(-0.0079, 0.0036, -0.0043, -0.0092, 2.7, -8.65)" gradientUnits="userSpaceOnUse" id="gradient1" spreadMethod="pad" x1="-819.2" x2="819.2">
      <stop offset="0.0" stop-color="#ffa61d"/>
      <stop offset="1.0" stop-color="#d88e1a"/>
    </linearGradient>
  </defs>
</svg>
