<?xml version="1.0" encoding="UTF-8" standalone="no"?>
<svg xmlns:ffdec="https://www.free-decompiler.com/flash" xmlns:xlink="http://www.w3.org/1999/xlink" ffdec:objectType="shape" height="17.05px" width="11.5px" xmlns="http://www.w3.org/2000/svg">
  <g transform="matrix(1.0, 0.0, 0.0, 1.0, 5.55, 11.35)">
    <path d="M4.45 -10.35 Q4.2 -8.05 4.45 -6.2 0.25 -4.45 -3.6 -6.05 L-3.6 -6.7 -3.6 -10.3 Q-0.05 -8.0 4.45 -10.35" fill="url(#gradient0)" fill-rule="evenodd" stroke="none"/>
    <path d="M-3.6 -6.7 L-3.6 -6.05 -3.6 -4.55 Q-2.5 -3.55 0.3 -3.7 -4.05 -2.3 -5.45 -5.25 -5.15 -6.1 -3.6 -6.7 M4.45 -6.1 L5.2 -5.8 4.45 -5.25 4.45 -6.1" fill="url(#gradient1)" fill-rule="evenodd" stroke="none"/>
    <path d="M-3.6 -6.05 Q0.25 -4.45 4.45 -6.2 L4.45 -6.1 4.45 -5.25 Q2.3 -4.05 0.3 -3.7 -2.5 -3.55 -3.6 -4.55 L-3.6 -6.05" fill="url(#gradient2)" fill-rule="evenodd" stroke="none"/>
    <path d="M5.2 -5.8 L5.95 -5.55 Q4.3 -4.55 0.5 -2.9 -2.0 -2.25 -4.3 -3.2 -5.95 -4.05 -5.45 -5.25 -4.05 -2.3 0.3 -3.7 2.3 -4.05 4.45 -5.25 L5.2 -5.8" fill="url(#gradient3)" fill-rule="evenodd" stroke="none"/>
    <path d="M5.95 -5.55 Q5.2 -4.05 0.5 -2.9 4.3 -4.55 5.95 -5.55" fill="url(#gradient4)" fill-rule="evenodd" stroke="none"/>
    <path d="M4.45 -10.35 Q-0.05 -8.0 -3.6 -10.3 0.25 -12.35 4.45 -10.35" fill="url(#gradient5)" fill-rule="evenodd" stroke="none"/>
    <path d="M0.3 1.7 Q0.3 2.4 0.85 2.9 1.3 3.45 2.0 3.45 L2.95 3.15 3.25 2.9 3.7 2.15 3.75 1.7 Q3.75 1.0 3.25 0.5 2.7 0.0 2.0 0.0 1.3 0.0 0.85 0.5 0.3 1.0 0.3 1.7" fill="none" stroke="#e7890a" stroke-linecap="round" stroke-linejoin="round" stroke-width="1.0"/>
    <path d="M4.25 2.0 Q4.95 8.25 2.95 3.15" ffdec:has-small-stroke="true" ffdec:original-stroke-width="0.5" fill="none" stroke="#000000" stroke-linecap="round" stroke-linejoin="round" stroke-width="1.0"/>
  </g>
  <defs>
    <linearGradient gradientTransform="matrix(0.0036, 1.0E-4, -1.0E-4, 0.0031, -0.05, -7.9)" gradientUnits="userSpaceOnUse" id="gradient0" spreadMethod="pad" x1="-819.2" x2="819.2">
      <stop offset="0.0" stop-color="#384357"/>
      <stop offset="1.0" stop-color="#1c2531"/>
    </linearGradient>
    <linearGradient gradientTransform="matrix(0.0035, 0.0, 0.0, 0.0024, -2.5, -5.25)" gradientUnits="userSpaceOnUse" id="gradient1" spreadMethod="pad" x1="-819.2" x2="819.2">
      <stop offset="0.0" stop-color="#1c252f"/>
      <stop offset="1.0" stop-color="#222c3e"/>
    </linearGradient>
    <linearGradient gradientTransform="matrix(0.003, -1.0E-4, 0.0, 0.0015, -0.05, -4.95)" gradientUnits="userSpaceOnUse" id="gradient2" spreadMethod="pad" x1="-819.2" x2="819.2">
      <stop offset="0.0" stop-color="#ff123c"/>
      <stop offset="1.0" stop-color="#91485b"/>
    </linearGradient>
    <linearGradient gradientTransform="matrix(0.007, 0.0, 0.0, 0.0019, 0.15, -4.3)" gradientUnits="userSpaceOnUse" id="gradient3" spreadMethod="pad" x1="-819.2" x2="819.2">
      <stop offset="0.0" stop-color="#374555"/>
      <stop offset="1.0" stop-color="#4f4f4f"/>
    </linearGradient>
    <linearGradient gradientTransform="matrix(0.0033, 0.0, 0.0, 0.0016, 3.15, -4.25)" gradientUnits="userSpaceOnUse" id="gradient4" spreadMethod="pad" x1="-819.2" x2="819.2">
      <stop offset="0.0" stop-color="#1c2530"/>
      <stop offset="1.0" stop-color="#222c3e"/>
    </linearGradient>
    <linearGradient gradientTransform="matrix(0.0, -7.0E-4, 0.0049, 0.0, 0.35, -10.05)" gradientUnits="userSpaceOnUse" id="gradient5" spreadMethod="pad" x1="-819.2" x2="819.2">
      <stop offset="0.0" stop-color="#1c2530"/>
      <stop offset="1.0" stop-color="#222c3e"/>
    </linearGradient>
  </defs>
</svg>
