<?xml version="1.0" encoding="UTF-8" standalone="no"?>
<svg xmlns:ffdec="https://www.free-decompiler.com/flash" xmlns:xlink="http://www.w3.org/1999/xlink" ffdec:objectType="shape" height="18.75px" width="21.3px" xmlns="http://www.w3.org/2000/svg">
  <g transform="matrix(1.0, 0.0, 0.0, 1.0, 10.35, 17.65)">
    <path d="M0.5 -13.35 Q3.55 -13.3 5.4 -12.3 6.9 -11.5 8.7 -9.35 9.9 -7.85 10.15 -4.45 L10.15 -0.15 10.15 -0.05 10.1 0.3 6.6 0.75 0.1 0.9 -6.15 0.65 -9.95 0.1 -9.8 -3.55 Q-9.2 -7.6 -7.0 -10.15 -5.75 -11.6 -4.4 -12.3 -2.4 -13.4 0.5 -13.35" fill="#cc3d51" fill-rule="evenodd" stroke="none"/>
    <path d="M-3.25 -13.7 L-3.65 -14.0 -3.15 -14.15 -3.5 -14.45 -3.05 -14.6 -3.35 -15.0 -2.85 -15.05 -3.1 -15.5 -2.6 -15.45 -2.85 -15.9 -2.35 -15.85 -2.5 -16.35 -2.0 -16.2 -2.1 -16.7 -1.65 -16.5 -1.65 -17.0 -1.2 -16.75 -1.15 -17.3 -0.8 -16.95 -0.7 -17.45 -0.35 -17.1 -0.15 -17.55 0.15 -17.2 0.35 -17.65 0.6 -17.25 0.85 -17.65 1.05 -17.2 1.4 -17.55 1.55 -17.1 1.9 -17.45 2.0 -16.95 2.35 -17.25 2.35 -16.7 2.8 -16.95 2.75 -16.45 3.2 -16.65 3.15 -16.15 3.6 -16.3 3.45 -15.85 3.95 -15.9 3.75 -15.4 4.2 -15.4 3.95 -14.95 4.4 -14.9 4.1 -14.6 4.55 -14.45 4.25 -14.1 Q4.45 -13.95 4.65 -13.9 L4.25 -13.65 4.65 -13.4 4.25 -13.15 4.6 -12.85 4.2 -12.65 4.5 -12.3 4.05 -12.2 4.35 -11.85 3.85 -11.7 4.1 -11.3 3.55 -11.3 3.75 -10.85 3.3 -10.95 3.45 -10.45 3.0 -10.6 3.05 -10.1 2.6 -10.25 2.65 -9.75 2.2 -10.0 2.15 -9.5 1.75 -9.85 1.65 -9.35 1.3 -9.65 1.15 -9.2 0.85 -9.65 0.65 -9.15 0.35 -9.6 0.1 -9.15 -0.1 -9.65 -0.4 -9.25 -0.55 -9.7 -0.85 -9.4 -0.95 -9.85 -1.4 -9.55 -1.4 -10.1 -1.85 -9.8 -1.8 -10.35 -2.25 -10.15 -2.15 -10.65 -2.6 -10.5 -2.45 -11.0 -2.95 -10.95 -2.7 -11.35 -3.2 -11.35 -2.95 -11.8 -3.4 -11.9 -3.1 -12.25 -3.6 -12.4 -3.2 -12.7 -3.7 -12.95 -3.25 -13.15 -3.7 -13.45 -3.25 -13.7" fill="#ffa61d" fill-rule="evenodd" stroke="none"/>
    <path d="M-9.45 -5.75 L-5.75 -5.2 0.35 -4.9 Q3.9 -4.8 6.65 -5.0 L10.1 -5.5 10.1 -5.55 10.65 -5.25 10.95 -4.65 10.8 -0.3 10.55 0.25 Q10.4 0.5 10.05 0.55 L6.3 1.0 0.2 1.1 -5.9 0.85 -9.55 0.3 Q-9.95 0.25 -10.1 0.0 L-10.35 -0.6 -10.25 -4.9 -10.0 -5.5 -9.45 -5.75" fill="#ffa61d" fill-rule="evenodd" stroke="none"/>
  </g>
</svg>
