<?xml version="1.0" encoding="UTF-8" standalone="no"?>
<svg xmlns:ffdec="https://www.free-decompiler.com/flash" xmlns:xlink="http://www.w3.org/1999/xlink" ffdec:objectType="shape" height="13.65px" width="13.2px" xmlns="http://www.w3.org/2000/svg">
  <g transform="matrix(1.0, 0.0, 0.0, 1.0, 5.35, 12.85)">
    <path d="M-4.7 -5.25 Q-0.85 -3.25 2.35 -4.45" fill="none" stroke="#000000" stroke-linecap="square" stroke-linejoin="round" stroke-opacity="0.24705882" stroke-width="1.0"/>
    <path d="M-3.05 -11.1 Q-0.8 -13.05 1.95 -12.85 4.4 -12.75 5.0 -8.95 L5.55 -5.1 Q5.9 -2.8 6.6 -0.95 L6.55 -0.95 6.75 -0.55 Q4.6 -1.1 2.7 -4.45 L1.65 -6.5 Q-0.1 -10.85 -3.05 -11.1" fill="url(#gradient0)" fill-rule="evenodd" stroke="none"/>
    <path d="M1.65 -6.5 L2.7 -4.45 Q-0.65 -3.1 -5.05 -5.25 L-4.5 -7.1 Q-1.45 -5.9 1.65 -6.5" fill="url(#gradient1)" fill-rule="evenodd" stroke="none"/>
    <path d="M-3.05 -11.1 Q-0.1 -10.85 1.65 -6.5 -1.45 -5.9 -4.5 -7.1 -4.0 -10.3 -3.05 -11.1" fill="url(#gradient2)" fill-rule="evenodd" stroke="none"/>
    <path d="M7.65 -1.3 L7.85 -0.35 7.45 0.55 6.55 0.8 Q6.05 0.75 5.75 0.3 5.45 -0.1 5.5 -0.65 5.55 -1.2 5.95 -1.55 6.3 -1.9 6.8 -1.85 L7.65 -1.3" fill="url(#gradient3)" fill-rule="evenodd" stroke="none"/>
  </g>
  <defs>
    <linearGradient gradientTransform="matrix(0.0016, 0.0029, -0.0033, 0.0022, 2.15, -8.4)" gradientUnits="userSpaceOnUse" id="gradient0" spreadMethod="pad" x1="-819.2" x2="819.2">
      <stop offset="0.0" stop-color="#ff123c"/>
      <stop offset="1.0" stop-color="#91485b"/>
    </linearGradient>
    <linearGradient gradientTransform="matrix(-0.0028, -2.0E-4, 1.0E-4, -0.0017, -0.95, -5.4)" gradientUnits="userSpaceOnUse" id="gradient1" spreadMethod="pad" x1="-819.2" x2="819.2">
      <stop offset="0.0" stop-color="#dad596"/>
      <stop offset="1.0" stop-color="#f7f4d2"/>
    </linearGradient>
    <linearGradient gradientTransform="matrix(0.0017, 0.0011, -0.0013, 0.0025, -1.6, -7.95)" gradientUnits="userSpaceOnUse" id="gradient2" spreadMethod="pad" x1="-819.2" x2="819.2">
      <stop offset="0.0" stop-color="#ff123c"/>
      <stop offset="1.0" stop-color="#91485b"/>
    </linearGradient>
    <linearGradient gradientTransform="matrix(0.0014, 0.0, 0.0, 0.0016, 6.65, -0.5)" gradientUnits="userSpaceOnUse" id="gradient3" spreadMethod="pad" x1="-819.2" x2="819.2">
      <stop offset="0.0" stop-color="#dad596"/>
      <stop offset="1.0" stop-color="#f7f4d2"/>
    </linearGradient>
  </defs>
</svg>
