<?xml version="1.0" encoding="UTF-8" standalone="no"?>
<svg xmlns:ffdec="https://www.free-decompiler.com/flash" xmlns:xlink="http://www.w3.org/1999/xlink" ffdec:objectType="shape" height="12.55px" width="34.25px" xmlns="http://www.w3.org/2000/svg">
  <g transform="matrix(1.0, 0.0, 0.0, 1.0, 10.75, 10.35)">
    <path d="M11.0 1.85 L9.6 2.2 9.6 0.65 Q11.05 1.3 11.0 1.85 M-9.05 -0.15 L-9.05 1.25 -9.15 1.2 -10.0 0.95 -9.05 -0.15" fill="#333333" fill-rule="evenodd" stroke="none"/>
    <path d="M10.6 -2.0 L15.55 -1.4 18.1 -1.15 20.1 -0.95 22.8 -0.65 23.3 -0.05 Q23.4 0.5 22.65 0.95 L11.35 0.4 10.65 -0.6 10.65 -0.75 10.6 -2.0" fill="#e7890a" fill-rule="evenodd" stroke="none"/>
    <path d="M23.3 -0.05 Q23.95 1.0 22.4 1.45 L11.65 0.95 11.35 0.4 22.65 0.95 Q23.4 0.5 23.3 -0.05" fill="#cc7808" fill-rule="evenodd" stroke="none"/>
    <path d="M-10.1 -0.95 Q-10.75 -5.6 -7.45 -8.15 -4.6 -10.45 0.1 -10.35 4.7 -10.35 7.8 -8.05 11.25 -5.6 10.6 -2.0 L10.65 -0.75 Q-1.9 -5.5 -10.1 -0.95" fill="url(#gradient0)" fill-rule="evenodd" stroke="none"/>
    <path d="M11.65 0.95 L11.0 1.85 Q11.05 1.3 9.6 0.65 L9.25 0.5 6.6 -0.65 Q-0.35 -3.0 -7.4 -0.75 L-9.05 -0.15 -8.45 -0.45 -9.05 -0.15 -10.0 0.95 Q-11.45 0.05 -10.1 -0.8 L-10.1 -0.95 Q-1.9 -5.5 10.65 -0.75 L10.65 -0.6 11.35 0.4 11.65 0.95" fill="url(#gradient1)" fill-rule="evenodd" stroke="none"/>
  </g>
  <defs>
    <linearGradient gradientTransform="matrix(2.0E-4, -0.0024, 0.0138, 0.0011, 0.75, -5.0)" gradientUnits="userSpaceOnUse" id="gradient0" spreadMethod="pad" x1="-819.2" x2="819.2">
      <stop offset="0.0" stop-color="#44403f"/>
      <stop offset="1.0" stop-color="#636260"/>
    </linearGradient>
    <linearGradient gradientTransform="matrix(2.0E-4, -0.0024, 0.0138, 0.0011, 0.75, -5.0)" gradientUnits="userSpaceOnUse" id="gradient1" spreadMethod="pad" x1="-819.2" x2="819.2">
      <stop offset="0.0" stop-color="#3f3b3b"/>
      <stop offset="1.0" stop-color="#595856"/>
    </linearGradient>
  </defs>
</svg>
