<?xml version="1.0" encoding="UTF-8" standalone="no"?>
<svg xmlns:ffdec="https://www.free-decompiler.com/flash" xmlns:xlink="http://www.w3.org/1999/xlink" ffdec:objectType="shape" height="22.7px" width="25.65px" xmlns="http://www.w3.org/2000/svg">
  <g transform="matrix(1.0, 0.0, 0.0, 1.0, 13.5, 10.45)">
    <path d="M9.65 3.8 Q7.95 6.55 5.2 6.5 L5.75 4.65 5.8 4.35 Q6.25 1.85 5.6 -1.3 L7.15 -1.6 Q8.55 -1.25 9.25 1.0 L9.75 3.5 9.75 3.6 9.65 3.8 M5.75 4.65 L9.25 1.0 5.75 4.65" fill="#006c82" fill-rule="evenodd" stroke="none"/>
    <path d="M-10.85 -0.75 Q-10.2 -7.6 -4.1 -9.45 1.95 -11.25 6.1 -9.8 10.2 -8.3 11.55 -5.05 12.85 -1.8 11.3 2.4 9.5 4.5 9.65 3.8 L9.75 3.6 9.75 3.5 9.25 1.0 Q8.55 -1.25 7.15 -1.6 L5.6 -1.3 Q-4.55 0.4 -10.8 -0.05 L-10.85 -0.5 -10.85 -0.75" fill="url(#gradient0)" fill-rule="evenodd" stroke="none"/>
    <path d="M-10.8 -0.05 L-11.0 -0.05 -10.85 -0.5 -10.8 -0.05" fill="url(#gradient1)" fill-rule="evenodd" stroke="none"/>
    <path d="M9.65 3.8 Q7.95 6.55 5.2 6.5 4.5 10.3 0.9 11.1 L0.45 11.2 -4.1 11.75 -8.45 11.25 -9.35 11.0 -9.5 10.9 -9.95 10.55 Q-11.2 9.35 -11.55 7.4 L-11.6 6.05 -11.7 5.45 Q-12.95 5.25 -13.0 4.95 L-13.0 4.9 Q-13.05 4.5 -11.9 4.05 L-9.2 3.25 Q-9.2 2.45 -10.8 -0.05 L-11.0 -0.05 -11.7 -0.05 -12.35 -0.15 Q-12.25 -0.7 -10.85 -0.75 L-10.85 -0.5 M-10.8 -0.05 Q-4.55 0.4 5.6 -1.3 L7.15 -1.6 Q8.55 -1.25 9.25 1.0 L9.75 3.5 9.75 3.6 9.65 3.8 M9.25 1.0 L5.75 4.65 5.2 6.5 1.45 7.2 0.45 11.2 M5.6 -1.3 Q6.25 1.85 5.8 4.35 L5.75 4.65 M-4.0 5.65 Q-4.6 6.8 -4.2 7.65 L1.45 7.2 1.45 5.25 -4.0 5.65 -9.25 5.55 Q-9.8 6.8 -9.55 7.7 L-4.2 7.65 Q-4.5 9.75 -4.1 11.75 M5.8 4.35 L1.45 5.25 M-11.7 5.45 L-10.85 5.5 Q-9.25 4.35 -9.2 3.25 M-9.25 5.55 L-10.85 5.5 M-9.55 7.7 L-8.45 11.25 M-9.55 7.7 L-11.55 7.4" fill="none" stroke="#000000" stroke-linecap="round" stroke-linejoin="round" stroke-width="1.0"/>
    <path d="M-7.2 -2.85 Q-4.65 -10.75 4.7 -8.25 -1.7 -9.05 -2.45 -2.85 L-7.2 -2.85" fill="url(#gradient2)" fill-rule="evenodd" stroke="none"/>
  </g>
  <defs>
    <linearGradient gradientTransform="matrix(0.014, 0.0, 0.0, 0.011, 0.6, -1.35)" gradientUnits="userSpaceOnUse" id="gradient0" spreadMethod="pad" x1="-819.2" x2="819.2">
      <stop offset="0.0" stop-color="#0085aa"/>
      <stop offset="1.0" stop-color="#006c82"/>
    </linearGradient>
    <linearGradient gradientTransform="matrix(5.0E-4, 0.0102, 0.0139, -0.001, 0.45, -0.2)" gradientUnits="userSpaceOnUse" id="gradient1" spreadMethod="pad" x1="-819.2" x2="819.2">
      <stop offset="0.0" stop-color="#ff123c"/>
      <stop offset="1.0" stop-color="#91485b"/>
    </linearGradient>
    <linearGradient gradientTransform="matrix(0.0084, 0.0, 0.0, 0.0059, 1.2, -5.05)" gradientUnits="userSpaceOnUse" id="gradient2" spreadMethod="pad" x1="-819.2" x2="819.2">
      <stop offset="0.0" stop-color="#ff123c"/>
      <stop offset="1.0" stop-color="#91485b"/>
    </linearGradient>
  </defs>
</svg>
