<?xml version="1.0" encoding="UTF-8" standalone="no"?>
<svg xmlns:ffdec="https://www.free-decompiler.com/flash" xmlns:xlink="http://www.w3.org/1999/xlink" ffdec:objectType="shape" height="22.95px" width="34.6px" xmlns="http://www.w3.org/2000/svg">
  <g transform="matrix(1.0, 0.0, 0.0, 1.0, 16.6, 21.25)">
    <path d="M7.55 -11.0 Q16.75 -14.25 15.15 -18.2 22.65 -11.15 10.3 -4.6 6.25 -6.0 7.55 -11.0" fill="url(#gradient0)" fill-rule="evenodd" stroke="none"/>
    <path d="M10.3 -4.6 L10.65 -3.3 Q5.3 -0.7 -0.5 -1.9 -2.9 -8.95 1.4 -14.9 5.15 -14.65 7.55 -11.0 6.25 -6.0 10.3 -4.6" fill="url(#gradient1)" fill-rule="evenodd" stroke="none"/>
    <path d="M10.65 -3.3 L10.75 -2.45 Q9.8 -1.25 6.75 -0.45 3.9 0.3 0.3 0.45 L-6.2 0.0 Q-9.3 -0.6 -10.25 -1.95 L-10.15 -3.8 Q-7.65 -2.25 -5.05 -2.25 -6.75 -9.1 -2.15 -14.75 L1.4 -14.9 Q-2.9 -8.95 -0.5 -1.9 5.3 -0.7 10.65 -3.3" fill="url(#gradient2)" fill-rule="evenodd" stroke="none"/>
    <path d="M10.75 -2.45 Q11.4 -2.3 11.6 -1.9 11.9 -1.5 11.35 -1.0 10.15 0.25 6.95 0.95 L0.3 1.7 -6.4 1.15 Q-9.7 0.5 -11.05 -0.75 -11.6 -1.9 -10.25 -1.95 -9.3 -0.6 -6.2 0.0 L0.3 0.45 Q3.9 0.3 6.75 -0.45 9.8 -1.25 10.75 -2.45" fill="url(#gradient3)" fill-rule="evenodd" stroke="none"/>
    <path d="M-10.15 -3.8 L-10.05 -5.45 -9.85 -6.25 Q-9.4 -8.45 -7.9 -10.65 L-7.7 -10.9 -7.75 -10.95 -7.55 -11.15 Q-6.05 -13.05 -2.95 -14.55 L-2.15 -14.75 Q-6.75 -9.1 -5.05 -2.25 -7.65 -2.25 -10.15 -3.8" fill="url(#gradient4)" fill-rule="evenodd" stroke="none"/>
    <path d="M-10.05 -5.45 L-10.15 -4.7 -10.15 -4.65 Q-20.5 -12.55 -14.2 -17.85 -14.7 -13.3 -7.75 -10.95 L-7.7 -10.9 -7.9 -10.65 Q-9.4 -8.45 -9.85 -6.25 L-10.05 -5.45" fill="url(#gradient5)" fill-rule="evenodd" stroke="none"/>
    <path d="M-2.0 -8.0 Q-1.95 -7.6 -2.2 -7.4 -2.45 -7.15 -2.85 -7.15 L-3.5 -7.35 Q-3.8 -7.6 -3.75 -7.95 L-3.55 -8.6 -2.9 -8.9 -2.25 -8.65 Q-1.95 -8.35 -2.0 -8.0" fill="url(#gradient6)" fill-rule="evenodd" stroke="none"/>
    <path d="M-2.0 -4.3 Q-1.95 -3.9 -2.2 -3.7 -2.45 -3.45 -2.85 -3.45 L-3.5 -3.65 Q-3.8 -3.9 -3.75 -4.25 L-3.55 -4.9 -2.9 -5.2 -2.25 -4.95 Q-1.95 -4.65 -2.0 -4.3" fill="url(#gradient7)" fill-rule="evenodd" stroke="none"/>
    <path d="M-1.15 -11.35 Q-1.1 -10.95 -1.35 -10.75 L-2.0 -10.5 Q-2.35 -10.45 -2.65 -10.7 -2.95 -10.95 -2.9 -11.3 L-2.7 -11.95 -2.05 -12.25 -1.4 -12.0 Q-1.1 -11.7 -1.15 -11.35" fill="url(#gradient8)" fill-rule="evenodd" stroke="none"/>
    <path d="M1.3 -15.45 L1.25 -15.45 -2.05 -15.55 Q-1.6 -19.0 -0.3 -21.25 0.85 -19.0 1.3 -15.45" fill="url(#gradient9)" fill-rule="evenodd" stroke="none"/>
    <path d="M1.3 -15.45 Q1.95 -15.3 1.9 -14.55 L-2.0 -14.35 -2.6 -14.55 Q-2.75 -15.2 -2.1 -15.55 L-2.05 -15.55 1.25 -15.45 1.3 -15.45" fill="url(#gradient10)" fill-rule="evenodd" stroke="none"/>
  </g>
  <defs>
    <linearGradient gradientTransform="matrix(-0.0034, 0.0082, -0.0055, -0.0018, 13.7, -13.5)" gradientUnits="userSpaceOnUse" id="gradient0" spreadMethod="pad" x1="-819.2" x2="819.2">
      <stop offset="0.0" stop-color="#f7f4d2"/>
      <stop offset="1.0" stop-color="#ccc18e"/>
    </linearGradient>
    <linearGradient gradientTransform="matrix(0.0023, 0.0064, -0.0066, 0.0017, 3.25, -7.75)" gradientUnits="userSpaceOnUse" id="gradient1" spreadMethod="pad" x1="-819.2" x2="819.2">
      <stop offset="0.0" stop-color="#ff123c"/>
      <stop offset="1.0" stop-color="#91485b"/>
    </linearGradient>
    <linearGradient gradientTransform="matrix(-9.0E-4, 0.0071, -0.0126, -0.0014, 0.75, -6.4)" gradientUnits="userSpaceOnUse" id="gradient2" spreadMethod="pad" x1="-819.2" x2="819.2">
      <stop offset="0.0" stop-color="#7ca0aa"/>
      <stop offset="1.0" stop-color="#5e7c82"/>
      <stop offset="1.0" stop-color="#924b5d"/>
    </linearGradient>
    <linearGradient gradientTransform="matrix(0.0068, 3.0E-4, -1.0E-4, 0.0029, -1.4, -0.7)" gradientUnits="userSpaceOnUse" id="gradient3" spreadMethod="pad" x1="-819.2" x2="819.2">
      <stop offset="0.0" stop-color="#7ca0aa"/>
      <stop offset="1.0" stop-color="#5e7c82"/>
      <stop offset="1.0" stop-color="#924b5d"/>
    </linearGradient>
    <linearGradient gradientTransform="matrix(-7.0E-4, 0.0046, -0.0036, -5.0E-4, -6.4, -7.8)" gradientUnits="userSpaceOnUse" id="gradient4" spreadMethod="pad" x1="-819.2" x2="819.2">
      <stop offset="0.0" stop-color="#ff123c"/>
      <stop offset="1.0" stop-color="#91485b"/>
    </linearGradient>
    <linearGradient gradientTransform="matrix(0.0029, 0.0051, -0.0038, 0.0016, -12.7, -12.55)" gradientUnits="userSpaceOnUse" id="gradient5" spreadMethod="pad" x1="-819.2" x2="819.2">
      <stop offset="0.0" stop-color="#f7f4d2"/>
      <stop offset="1.0" stop-color="#ccc18e"/>
    </linearGradient>
    <linearGradient gradientTransform="matrix(0.0011, 0.0, 0.0, 0.001, -3.0, -7.9)" gradientUnits="userSpaceOnUse" id="gradient6" spreadMethod="pad" x1="-819.2" x2="819.2">
      <stop offset="0.0" stop-color="#648189"/>
      <stop offset="1.0" stop-color="#42575b"/>
      <stop offset="1.0" stop-color="#924b5d"/>
    </linearGradient>
    <linearGradient gradientTransform="matrix(0.0011, 0.0, 0.0, 0.001, -3.0, -4.2)" gradientUnits="userSpaceOnUse" id="gradient7" spreadMethod="pad" x1="-819.2" x2="819.2">
      <stop offset="0.0" stop-color="#648189"/>
      <stop offset="1.0" stop-color="#42575b"/>
      <stop offset="1.0" stop-color="#924b5d"/>
    </linearGradient>
    <linearGradient gradientTransform="matrix(0.0011, 0.0, 0.0, 0.001, -2.15, -11.25)" gradientUnits="userSpaceOnUse" id="gradient8" spreadMethod="pad" x1="-819.2" x2="819.2">
      <stop offset="0.0" stop-color="#648189"/>
      <stop offset="1.0" stop-color="#42575b"/>
      <stop offset="1.0" stop-color="#924b5d"/>
    </linearGradient>
    <linearGradient gradientTransform="matrix(0.001, 0.0013, -0.0025, 0.0013, 0.05, -16.6)" gradientUnits="userSpaceOnUse" id="gradient9" spreadMethod="pad" x1="-819.2" x2="819.2">
      <stop offset="0.0" stop-color="#f7f4d2"/>
      <stop offset="1.0" stop-color="#ccc18e"/>
    </linearGradient>
    <linearGradient gradientTransform="matrix(0.0013, 0.0, 0.0, 9.0E-4, 0.05, -14.65)" gradientUnits="userSpaceOnUse" id="gradient10" spreadMethod="pad" x1="-819.2" x2="819.2">
      <stop offset="0.0" stop-color="#f7f4d2"/>
      <stop offset="1.0" stop-color="#dad596"/>
    </linearGradient>
  </defs>
</svg>
