<?xml version="1.0" encoding="UTF-8" standalone="no"?>
<svg xmlns:ffdec="https://www.free-decompiler.com/flash" xmlns:xlink="http://www.w3.org/1999/xlink" ffdec:objectType="shape" height="11.25px" width="12.5px" xmlns="http://www.w3.org/2000/svg">
  <g transform="matrix(1.0, 0.0, 0.0, 1.0, 5.75, 13.95)">
    <path d="M-5.1 -5.0 Q-1.05 -2.2 4.8 -4.15" fill="none" stroke="#000000" stroke-linecap="square" stroke-linejoin="round" stroke-opacity="0.24705882" stroke-width="1.0"/>
    <path d="M-2.9 -4.15 Q-4.4 -4.7 -5.1 -5.5 -4.85 -7.45 -3.3 -8.7 -1.7 -10.05 0.35 -9.85 L0.65 -9.85 Q-2.75 -7.95 -2.9 -4.15" fill="url(#gradient0)" fill-rule="evenodd" stroke="none"/>
    <path d="M0.65 -9.85 L1.45 -9.65 Q2.8 -9.25 3.8 -8.05 5.05 -6.55 4.9 -4.45 L2.75 -3.85 Q3.0 -7.25 0.7 -9.75 L0.65 -9.85" fill="url(#gradient1)" fill-rule="evenodd" stroke="none"/>
    <path d="M2.75 -3.85 L-2.9 -4.15 Q-2.75 -7.95 0.65 -9.85 L0.7 -9.75 Q3.0 -7.25 2.75 -3.85" fill="url(#gradient2)" fill-rule="evenodd" stroke="none"/>
    <path d="M0.65 -9.85 L0.9 -12.45" fill="none" stroke="#e7890a" stroke-linecap="round" stroke-linejoin="round" stroke-width="1.0"/>
    <path d="M0.3 -12.45 L-1.7 -12.3 Q-2.95 -12.45 -3.9 -12.85 -4.75 -13.15 -4.75 -13.45 -4.7 -13.8 -3.8 -13.9 L-1.55 -13.85 Q-0.3 -13.7 0.3 -13.2 0.85 -12.75 1.1 -12.7 L2.1 -12.9 4.1 -13.05 6.0 -12.65 Q6.8 -12.4 6.75 -12.05 6.75 -11.75 5.8 -11.7 4.9 -11.5 3.65 -11.7 2.35 -11.85 1.4 -12.4 L0.9 -12.65 0.3 -12.45" fill="url(#gradient3)" fill-rule="evenodd" stroke="none"/>
  </g>
  <defs>
    <linearGradient gradientTransform="matrix(0.0032, 3.0E-4, -3.0E-4, 0.0033, -2.25, -7.35)" gradientUnits="userSpaceOnUse" id="gradient0" spreadMethod="pad" x1="-819.2" x2="819.2">
      <stop offset="0.0" stop-color="#e7890a"/>
      <stop offset="1.0" stop-color="#b56a07"/>
    </linearGradient>
    <linearGradient gradientTransform="matrix(0.0026, 0.0, 0.0, 0.0037, 2.7, -6.8)" gradientUnits="userSpaceOnUse" id="gradient1" spreadMethod="pad" x1="-819.2" x2="819.2">
      <stop offset="0.0" stop-color="#e7890a"/>
      <stop offset="1.0" stop-color="#7f4a04"/>
    </linearGradient>
    <linearGradient gradientTransform="matrix(0.0033, 3.0E-4, -3.0E-4, 0.0035, 0.05, -7.0)" gradientUnits="userSpaceOnUse" id="gradient2" spreadMethod="pad" x1="-819.2" x2="819.2">
      <stop offset="0.0" stop-color="#f7f4d2"/>
      <stop offset="1.0" stop-color="#dad596"/>
    </linearGradient>
    <linearGradient gradientTransform="matrix(0.007, 8.0E-4, 0.0, 9.0E-4, 1.0, -12.75)" gradientUnits="userSpaceOnUse" id="gradient3" spreadMethod="pad" x1="-819.2" x2="819.2">
      <stop offset="0.0" stop-color="#cc7808"/>
      <stop offset="1.0" stop-color="#995905"/>
    </linearGradient>
  </defs>
</svg>
