<?xml version="1.0" encoding="UTF-8" standalone="no"?>
<svg xmlns:ffdec="https://www.free-decompiler.com/flash" xmlns:xlink="http://www.w3.org/1999/xlink" ffdec:objectType="shape" height="21.95px" width="27.95px" xmlns="http://www.w3.org/2000/svg">
  <g transform="matrix(1.0, 0.0, 0.0, 1.0, 14.1, 20.8)">
    <path d="M5.25 -16.4 L5.15 -16.45 Q4.75 -16.85 4.75 -17.45 4.75 -18.0 5.15 -18.4 5.6 -18.8 6.2 -18.8 6.85 -18.8 7.3 -18.4 7.7 -18.0 7.7 -17.45 7.7 -16.85 7.3 -16.45 L6.5 -16.05 6.2 -16.05 Q5.65 -16.05 5.25 -16.4" fill="url(#gradient0)" fill-rule="evenodd" stroke="none"/>
    <path d="M-1.2 -18.3 L-1.45 -18.5 Q-1.9 -18.9 -1.9 -19.45 L-1.45 -20.4 Q-1.05 -20.8 -0.4 -20.8 0.2 -20.8 0.65 -20.4 1.1 -20.0 1.1 -19.45 1.1 -18.9 0.65 -18.5 L0.35 -18.25 -0.4 -18.1 -1.2 -18.3" fill="url(#gradient1)" fill-rule="evenodd" stroke="none"/>
    <path d="M6.5 -16.05 L7.35 -12.5 4.5 -10.2 3.15 -13.7 Q4.05 -15.2 5.25 -16.4 5.65 -16.05 6.2 -16.05 L6.5 -16.05 M11.05 -14.4 L11.15 -14.45 11.3 -14.3 11.05 -14.4 M-7.85 -12.55 Q-7.65 -14.6 -6.95 -16.05 L-6.7 -16.05 Q-6.1 -16.05 -5.7 -16.4 L-3.65 -13.45 -4.7 -10.1 Q-6.2 -11.5 -7.85 -12.55 M6.7 -12.75 Q6.65 -14.4 6.05 -15.45 L6.0 -15.55 5.9 -15.55 5.85 -15.45 5.85 -15.35 Q6.4 -14.3 6.45 -12.75 L6.5 -12.65 6.6 -12.65 6.65 -12.7 6.7 -12.75 M-4.15 -13.4 L-5.75 -15.55 -5.8 -15.65 -5.9 -15.6 -5.95 -15.55 -5.95 -15.45 -4.35 -13.25 -4.25 -13.25 -4.2 -13.25 -4.15 -13.35 -4.15 -13.4" fill="#c0ac0a" fill-rule="evenodd" stroke="none"/>
    <path d="M6.7 -12.75 L6.65 -12.7 6.6 -12.65 6.5 -12.65 6.45 -12.75 Q6.4 -14.3 5.85 -15.35 L5.85 -15.45 5.9 -15.55 6.0 -15.55 6.05 -15.45 Q6.65 -14.4 6.7 -12.75 M3.6 -10.3 L3.6 -10.2 3.5 -10.15 3.45 -10.15 3.4 -10.25 Q2.5 -14.25 0.25 -16.95 L0.2 -17.0 0.25 -17.1 0.35 -17.1 0.45 -17.05 Q2.75 -14.3 3.6 -10.3 M9.55 -3.2 L9.5 -3.1 9.4 -3.1 9.35 -3.2 9.35 -3.25 Q11.05 -8.1 11.55 -13.4 L11.65 -13.45 11.7 -13.5 11.8 -13.45 11.85 -13.35 Q11.3 -8.0 9.55 -3.2 M9.35 -1.6 L9.45 -1.6 9.45 -1.5 9.45 -1.4 9.4 -1.4 Q-0.1 -0.45 -9.6 -1.4 L-9.7 -1.4 -9.7 -1.5 -9.7 -1.6 -9.6 -1.6 Q-0.1 -0.65 9.35 -1.6 M-5.25 -9.75 L-5.25 -9.65 -5.25 -9.6 -5.35 -9.6 -5.4 -9.6 Q-7.75 -11.95 -10.75 -13.3 L-10.8 -13.35 -10.8 -13.45 -10.75 -13.5 -10.65 -13.5 Q-7.6 -12.15 -5.25 -9.75 M-4.15 -13.4 L-4.15 -13.35 -4.2 -13.25 -4.25 -13.25 -4.35 -13.25 -5.95 -15.45 -5.95 -15.55 -5.9 -15.6 -5.8 -15.65 -5.75 -15.55 -4.15 -13.4" fill="#f7f4d2" fill-rule="evenodd" stroke="none"/>
    <path d="M7.35 -12.5 L11.05 -14.4 11.3 -14.3 Q11.75 -13.9 12.35 -13.9 11.95 -8.35 10.15 -2.35 -0.5 -0.8 -10.05 -2.3 -11.8 -8.4 -12.5 -13.7 -11.95 -13.75 -11.55 -14.1 L-11.3 -14.4 -11.15 -14.3 Q-9.4 -13.6 -7.85 -12.55 -6.2 -11.5 -4.7 -10.1 L-3.65 -13.45 Q-2.65 -16.15 -1.2 -18.3 L-0.4 -18.1 0.35 -18.25 Q2.05 -16.1 3.15 -13.7 L4.5 -10.2 7.35 -12.5 M3.6 -10.3 Q2.75 -14.3 0.45 -17.05 L0.35 -17.1 0.25 -17.1 0.2 -17.0 0.25 -16.95 Q2.5 -14.25 3.4 -10.25 L3.45 -10.15 3.5 -10.15 3.6 -10.2 3.6 -10.3 M9.55 -3.2 Q11.3 -8.0 11.85 -13.35 L11.8 -13.45 11.7 -13.5 11.65 -13.45 11.55 -13.4 Q11.05 -8.1 9.35 -3.25 L9.35 -3.2 9.4 -3.1 9.5 -3.1 9.55 -3.2 M-5.25 -9.75 Q-7.6 -12.15 -10.65 -13.5 L-10.75 -13.5 -10.8 -13.45 -10.8 -13.35 -10.75 -13.3 Q-7.75 -11.95 -5.4 -9.6 L-5.35 -9.6 -5.25 -9.6 -5.25 -9.65 -5.25 -9.75" fill="url(#gradient2)" fill-rule="evenodd" stroke="none"/>
    <path d="M11.15 -14.45 Q10.85 -14.8 10.85 -15.25 10.85 -15.8 11.3 -16.2 11.75 -16.6 12.35 -16.6 13.0 -16.6 13.4 -16.2 L13.85 -15.25 Q13.85 -14.65 13.4 -14.3 13.0 -13.9 12.35 -13.9 11.75 -13.9 11.3 -14.3 L11.15 -14.45" fill="url(#gradient3)" fill-rule="evenodd" stroke="none"/>
    <path d="M10.15 -2.35 Q11.45 -1.2 10.6 0.4 -0.2 1.9 -10.85 0.4 -11.05 -1.25 -10.05 -2.3 -0.5 -0.8 10.15 -2.35 M9.35 -1.6 Q-0.1 -0.65 -9.6 -1.6 L-9.7 -1.6 -9.7 -1.5 -9.7 -1.4 -9.6 -1.4 Q-0.1 -0.45 9.4 -1.4 L9.45 -1.4 9.45 -1.5 9.45 -1.6 9.35 -1.6" fill="url(#gradient4)" fill-rule="evenodd" stroke="none"/>
    <path d="M-12.5 -13.7 L-12.65 -13.7 Q-13.25 -13.7 -13.65 -14.1 -14.1 -14.5 -14.1 -15.05 -14.1 -15.65 -13.65 -16.0 -13.25 -16.4 -12.65 -16.4 -12.0 -16.4 -11.55 -16.0 -11.15 -15.65 -11.15 -15.05 L-11.3 -14.4 -11.55 -14.1 Q-11.95 -13.75 -12.5 -13.7" fill="url(#gradient5)" fill-rule="evenodd" stroke="none"/>
    <path d="M-6.95 -16.05 Q-7.4 -16.15 -7.75 -16.45 -8.2 -16.85 -8.2 -17.45 -8.2 -18.0 -7.75 -18.4 -7.3 -18.8 -6.7 -18.8 -6.05 -18.8 -5.65 -18.4 -5.2 -18.0 -5.2 -17.45 -5.2 -16.85 -5.65 -16.45 L-5.7 -16.4 Q-6.1 -16.05 -6.7 -16.05 L-6.95 -16.05" fill="url(#gradient6)" fill-rule="evenodd" stroke="none"/>
  </g>
  <defs>
    <linearGradient gradientTransform="matrix(0.0018, 0.0, 0.0, 0.0016, 6.15, -17.4)" gradientUnits="userSpaceOnUse" id="gradient0" spreadMethod="pad" x1="-819.2" x2="819.2">
      <stop offset="0.0" stop-color="#e7890a"/>
      <stop offset="1.0" stop-color="#bf7000"/>
    </linearGradient>
    <linearGradient gradientTransform="matrix(0.0018, 0.0, 0.0, 0.0016, -0.35, -19.4)" gradientUnits="userSpaceOnUse" id="gradient1" spreadMethod="pad" x1="-819.2" x2="819.2">
      <stop offset="0.0" stop-color="#e7890a"/>
      <stop offset="1.0" stop-color="#bf7000"/>
    </linearGradient>
    <linearGradient gradientTransform="matrix(0.0152, 0.0, 0.0, 0.0102, 0.0, -9.9)" gradientUnits="userSpaceOnUse" id="gradient2" spreadMethod="pad" x1="-819.2" x2="819.2">
      <stop offset="0.0" stop-color="#c0ac0a"/>
      <stop offset="1.0" stop-color="#ffe40d"/>
    </linearGradient>
    <linearGradient gradientTransform="matrix(0.0018, 0.0, 0.0, 0.0016, 12.3, -15.2)" gradientUnits="userSpaceOnUse" id="gradient3" spreadMethod="pad" x1="-819.2" x2="819.2">
      <stop offset="0.0" stop-color="#e7890a"/>
      <stop offset="1.0" stop-color="#bf7000"/>
    </linearGradient>
    <linearGradient gradientTransform="matrix(0.0133, 0.0, 0.0, 0.0021, 0.05, -0.55)" gradientUnits="userSpaceOnUse" id="gradient4" spreadMethod="pad" x1="-819.2" x2="819.2">
      <stop offset="0.0" stop-color="#c0ac0a"/>
      <stop offset="1.0" stop-color="#ffe40d"/>
    </linearGradient>
    <linearGradient gradientTransform="matrix(0.0018, 0.0, 0.0, 0.0016, -12.6, -15.05)" gradientUnits="userSpaceOnUse" id="gradient5" spreadMethod="pad" x1="-819.2" x2="819.2">
      <stop offset="0.0" stop-color="#e7890a"/>
      <stop offset="1.0" stop-color="#bf7000"/>
    </linearGradient>
    <linearGradient gradientTransform="matrix(0.0018, 0.0, 0.0, 0.0016, -6.65, -17.4)" gradientUnits="userSpaceOnUse" id="gradient6" spreadMethod="pad" x1="-819.2" x2="819.2">
      <stop offset="0.0" stop-color="#e7890a"/>
      <stop offset="1.0" stop-color="#bf7000"/>
    </linearGradient>
  </defs>
</svg>
