<?xml version="1.0" encoding="UTF-8" standalone="no"?>
<svg xmlns:ffdec="https://www.free-decompiler.com/flash" xmlns:xlink="http://www.w3.org/1999/xlink" ffdec:objectType="shape" height="20.05px" width="11.7px" xmlns="http://www.w3.org/2000/svg">
  <g transform="matrix(1.0, 0.0, 0.0, 1.0, 5.85, 23.25)">
    <path d="M-5.2 -4.9 Q-0.05 -2.75 5.2 -5.05" fill="none" stroke="#000000" stroke-linecap="square" stroke-linejoin="round" stroke-opacity="0.24705882" stroke-width="1.0"/>
    <path d="M2.15 -15.45 L3.15 -13.4 Q-0.35 -10.9 -4.65 -9.5 L-3.75 -12.35 Q-0.5 -13.55 2.15 -15.45 M3.85 -11.6 L4.6 -9.25 Q0.55 -6.45 -4.0 -4.45 L-4.95 -4.8 -5.7 -5.05 -5.25 -7.2 Q-0.25 -8.65 3.85 -11.6 M5.1 -7.3 L5.5 -5.15 3.75 -4.55 Q1.75 -3.95 -0.2 -3.95 2.7 -5.35 5.1 -7.3 M-2.55 -15.3 Q-1.5 -17.5 -0.25 -19.15 L1.1 -17.25 Q-0.5 -15.9 -2.55 -15.3" fill="url(#gradient0)" fill-rule="evenodd" stroke="none"/>
    <path d="M1.1 -17.25 L2.15 -15.45 Q-0.5 -13.55 -3.75 -12.35 L-2.55 -15.3 Q-0.5 -15.9 1.1 -17.25 M3.15 -13.4 L3.85 -11.6 Q-0.25 -8.65 -5.25 -7.2 L-4.65 -9.5 Q-0.35 -10.9 3.15 -13.4 M4.6 -9.25 L5.1 -7.3 Q2.7 -5.35 -0.2 -3.95 L-4.0 -4.45 Q0.55 -6.45 4.6 -9.25" fill="#f7f4d2" fill-rule="evenodd" stroke="none"/>
    <path d="M-3.75 -19.85 L-4.1 -20.15 -3.65 -20.3 -3.9 -20.65 -3.45 -20.7 -3.7 -21.1 -3.25 -21.1 -3.4 -21.55 -2.95 -21.5 -3.15 -21.95 -2.65 -21.85 -2.75 -22.3 -2.3 -22.1 -2.35 -22.6 -1.9 -22.35 -1.9 -22.85 -1.5 -22.55 -1.4 -23.05 -1.05 -22.7 -0.9 -23.2 -0.6 -22.8 -0.4 -23.2 -0.15 -22.85 0.1 -23.25 0.3 -22.85 0.6 -23.2 0.75 -22.75 1.1 -23.05 1.15 -22.6 1.55 -22.9 1.6 -22.4 2.0 -22.65 1.95 -22.15 2.4 -22.35 2.3 -21.9 2.75 -22.0 2.6 -21.55 3.05 -21.6 2.9 -21.2 3.35 -21.15 3.1 -20.75 3.55 -20.7 3.25 -20.35 3.7 -20.25 3.35 -19.9 3.8 -19.7 3.45 -19.45 3.85 -19.25 3.4 -19.0 3.8 -18.7 3.35 -18.55 3.7 -18.25 3.25 -18.1 3.5 -17.7 3.05 -17.65 3.3 -17.25 2.8 -17.2 3.0 -16.8 2.55 -16.85 2.7 -16.4 2.25 -16.55 2.35 -16.05 1.9 -16.25 1.9 -15.8 1.5 -16.0 1.45 -15.5 1.1 -15.8 1.0 -15.3 0.65 -15.65 0.5 -15.2 0.2 -15.55 0.0 -15.1 -0.25 -15.55 -0.5 -15.1 -0.7 -15.55 -1.0 -15.15 -1.15 -15.65 -1.5 -15.3 -1.6 -15.75 -1.95 -15.5 -2.0 -15.95 -2.4 -15.7 -2.35 -16.2 -2.8 -16.0 -2.7 -16.5 -3.2 -16.35 -3.05 -16.85 -3.45 -16.75 -3.3 -17.2 -3.75 -17.15 -3.5 -17.55 -3.95 -17.65 -3.65 -18.0 -4.1 -18.15 -3.75 -18.45 -4.2 -18.6 -3.85 -18.9 -4.25 -19.15 -3.8 -19.4 -4.2 -19.65 -3.75 -19.85" fill="#ffa61d" fill-rule="evenodd" stroke="none"/>
  </g>
  <defs>
    <linearGradient gradientTransform="matrix(0.0, 0.0, 0.0, 0.0, 0.65, -11.0)" gradientUnits="userSpaceOnUse" id="gradient0" spreadMethod="pad" x1="-819.2" x2="819.2">
      <stop offset="0.0" stop-color="#e7890a"/>
      <stop offset="1.0" stop-color="#774604"/>
    </linearGradient>
  </defs>
</svg>
