<?xml version="1.0" encoding="UTF-8" standalone="no"?>
<svg xmlns:ffdec="https://www.free-decompiler.com/flash" xmlns:xlink="http://www.w3.org/1999/xlink" ffdec:objectType="shape" height="11.5px" width="14.45px" xmlns="http://www.w3.org/2000/svg">
  <g transform="matrix(1.0, 0.0, 0.0, 1.0, 5.35, 13.45)">
    <path d="M3.25 -10.8 Q2.5 -9.3 0.65 -8.7 -2.15 -7.9 -1.3 -9.85 0.7 -11.65 1.75 -11.25 L3.25 -10.8" fill="url(#gradient0)" fill-rule="evenodd" stroke="none"/>
    <path d="M3.25 -10.8 L3.95 -10.55 Q4.6 -10.35 4.65 -8.5 -1.3 -5.8 -3.95 -3.3 -3.85 -4.85 -3.4 -6.2 -2.9 -7.8 -1.9 -9.25 L-1.3 -9.85 Q-2.15 -7.9 0.65 -8.7 2.5 -9.3 3.25 -10.8" fill="url(#gradient1)" fill-rule="evenodd" stroke="none"/>
    <path d="M-3.95 -3.3 Q-1.3 -5.8 4.65 -8.5 L5.05 -8.7 5.55 -5.6 Q3.0 -3.0 -4.8 -2.45 L-3.95 -3.3" fill="url(#gradient2)" fill-rule="evenodd" stroke="none"/>
    <path d="M-3.4 -6.2 Q-3.85 -4.85 -3.95 -3.3 L-4.8 -2.45 Q-5.1 -4.85 -3.4 -6.2" fill="url(#gradient3)" fill-rule="evenodd" stroke="none"/>
    <path d="M4.65 -8.5 Q4.6 -10.35 3.95 -10.55 L3.25 -10.8 Q2.5 -9.3 0.65 -8.7 -2.15 -7.9 -1.3 -9.85 L-1.9 -9.25 Q-2.9 -7.8 -3.4 -6.2 -3.85 -4.85 -3.95 -3.3 -1.3 -5.8 4.65 -8.5 L5.05 -8.7 5.55 -5.6 Q3.0 -3.0 -4.8 -2.45 -5.1 -4.85 -3.4 -6.2 M3.25 -10.8 L1.75 -11.25 Q0.7 -11.65 -1.3 -9.85 M-3.95 -3.3 L-4.8 -2.45" fill="none" stroke="#418c25" stroke-linecap="round" stroke-linejoin="round" stroke-width="1.0"/>
    <path d="M8.6 -12.95 Q8.05 -11.25 5.35 -9.0 3.15 -7.15 2.55 -6.1 3.15 -7.15 5.35 -9.0 8.05 -11.25 8.6 -12.95 8.8 -9.1 2.55 -6.1 2.1 -8.4 8.6 -12.95" fill="#dad596" fill-rule="evenodd" stroke="none"/>
    <path d="M1.25 -4.05 L1.5 -4.5 M2.55 -6.1 Q3.15 -7.15 5.35 -9.0 8.05 -11.25 8.6 -12.95 2.1 -8.4 2.55 -6.1 8.8 -9.1 8.6 -12.95 M2.15 -5.55 L2.55 -6.1" fill="none" stroke="#e7890a" stroke-linecap="round" stroke-linejoin="round" stroke-width="1.0"/>
  </g>
  <defs>
    <linearGradient gradientTransform="matrix(-0.0019, 0.0021, -0.0013, -0.0011, 0.75, -9.9)" gradientUnits="userSpaceOnUse" id="gradient0" spreadMethod="pad" x1="-819.2" x2="819.2">
      <stop offset="0.0" stop-color="#98ce6f"/>
      <stop offset="1.0" stop-color="#73bf59"/>
    </linearGradient>
    <linearGradient gradientTransform="matrix(0.0029, -0.0019, 0.0015, 0.0022, -0.85, -7.4)" gradientUnits="userSpaceOnUse" id="gradient1" spreadMethod="pad" x1="-819.2" x2="819.2">
      <stop offset="0.0" stop-color="#98ce6f"/>
      <stop offset="1.0" stop-color="#73bf59"/>
    </linearGradient>
    <linearGradient gradientTransform="matrix(0.0034, -0.0011, 7.0E-4, 0.0022, 1.25, -5.35)" gradientUnits="userSpaceOnUse" id="gradient2" spreadMethod="pad" x1="-819.2" x2="819.2">
      <stop offset="0.0" stop-color="#98ce6f"/>
      <stop offset="1.0" stop-color="#73bf59"/>
    </linearGradient>
    <linearGradient gradientTransform="matrix(2.0E-4, -8.0E-4, 6.0E-4, 2.0E-4, -4.1, -4.15)" gradientUnits="userSpaceOnUse" id="gradient3" spreadMethod="pad" x1="-819.2" x2="819.2">
      <stop offset="0.0" stop-color="#98ce6f"/>
      <stop offset="1.0" stop-color="#73bf59"/>
    </linearGradient>
  </defs>
</svg>
