<?xml version="1.0" encoding="UTF-8" standalone="no"?>
<svg xmlns:ffdec="https://www.free-decompiler.com/flash" xmlns:xlink="http://www.w3.org/1999/xlink" ffdec:objectType="shape" height="20.5px" width="39.6px" xmlns="http://www.w3.org/2000/svg">
  <g transform="matrix(1.0, 0.0, 0.0, 1.0, 19.75, 19.65)">
    <path d="M19.4 -7.05 Q18.95 -5.3 13.8 -3.95 L13.7 -3.95 12.85 -3.7 Q8.15 -2.7 2.05 -2.45 L1.95 -2.45 0.0 -2.4 Q-8.1 -2.3 -13.8 -3.7 -18.95 -4.95 -19.5 -6.65 L-19.6 -7.1 Q-19.65 -9.2 -13.9 -10.6 L-5.6 -12.0 -5.95 -11.1 Q-10.55 -10.75 -14.0 -9.75 -18.7 -8.4 -18.75 -7.1 -18.7 -5.85 -13.95 -4.6 -8.35 -3.15 -0.1 -3.25 8.3 -3.3 13.9 -4.85 18.6 -6.2 18.6 -7.45 18.6 -8.8 13.85 -10.0 L5.85 -11.2 5.45 -12.05 13.75 -10.9 Q19.45 -9.55 19.5 -7.45 L19.4 -7.05 M-18.6 -3.05 Q-18.35 -3.05 -18.1 -3.3 L-17.95 -3.55 Q-16.85 -2.95 -15.1 -2.4 L-15.15 -2.1 -14.9 -1.45 Q-14.65 -1.15 -14.25 -1.2 -13.8 -1.15 -13.55 -1.5 L-13.25 -1.95 -10.1 -1.4 -10.15 -1.2 -9.8 -0.55 Q-9.55 -0.3 -9.15 -0.3 -8.75 -0.3 -8.45 -0.6 -8.25 -0.8 -8.2 -1.15 L-4.1 -0.8 -4.1 -0.65 -3.85 0.05 -3.2 0.25 -2.5 0.0 Q-2.25 -0.3 -2.25 -0.7 L-2.25 -0.8 0.0 -0.8 2.55 -0.85 2.55 -0.75 Q2.55 -0.3 2.8 -0.1 3.05 0.2 3.4 0.2 L4.15 -0.1 4.4 -0.75 4.4 -0.95 8.4 -1.35 Q8.4 -1.0 8.65 -0.7 8.95 -0.45 9.3 -0.45 9.7 -0.45 10.0 -0.8 L10.25 -1.45 10.25 -1.6 13.4 -2.2 13.65 -1.75 Q14.0 -1.5 14.35 -1.5 L15.05 -1.75 15.3 -2.35 15.25 -2.75 Q17.05 -3.3 18.1 -3.95 L18.25 -3.65 Q18.45 -3.5 18.65 -3.45 L18.1 -2.55 Q17.55 -1.8 16.6 -1.45 11.3 0.8 0.0 0.85 -11.2 1.05 -16.6 -1.1 -17.55 -1.5 -18.1 -2.2 L-18.6 -3.05" fill="#bb7800" fill-rule="evenodd" stroke="none"/>
    <path d="M19.4 -7.05 L19.5 -6.65 19.45 -6.25 18.8 -5.25 18.9 -5.3 19.3 -5.2 19.55 -5.0 19.85 -4.3 19.6 -3.65 18.9 -3.4 18.65 -3.45 Q18.45 -3.5 18.25 -3.65 L18.1 -3.95 Q17.95 -4.15 17.95 -4.3 L18.1 -4.75 Q16.85 -3.95 14.6 -3.3 L15.0 -3.1 15.25 -2.75 15.3 -2.35 15.05 -1.75 14.35 -1.5 Q14.0 -1.5 13.65 -1.75 L13.4 -2.2 13.4 -2.4 13.65 -3.05 9.65 -2.2 9.95 -2.05 10.25 -1.6 10.25 -1.45 10.0 -0.8 Q9.7 -0.45 9.3 -0.45 8.95 -0.45 8.65 -0.7 8.4 -1.0 8.4 -1.35 L8.35 -1.4 Q8.35 -1.8 8.65 -2.05 L8.75 -2.1 3.75 -1.65 4.1 -1.4 4.4 -0.95 4.4 -0.75 4.15 -0.1 3.4 0.2 Q3.05 0.2 2.8 -0.1 2.55 -0.3 2.55 -0.75 L2.55 -0.85 Q2.6 -1.2 2.8 -1.35 L3.05 -1.55 -0.05 -1.55 -2.8 -1.5 -2.55 -1.35 -2.25 -0.8 -2.25 -0.7 Q-2.25 -0.3 -2.5 0.0 L-3.2 0.25 -3.85 0.05 -4.1 -0.65 -4.1 -0.8 -3.9 -1.3 -3.6 -1.5 -8.5 -1.9 -8.5 -1.85 Q-8.3 -1.65 -8.25 -1.2 L-8.2 -1.15 Q-8.25 -0.8 -8.45 -0.6 -8.75 -0.3 -9.15 -0.3 -9.55 -0.3 -9.8 -0.55 L-10.15 -1.2 -10.1 -1.4 -9.85 -1.85 -9.6 -2.05 -13.55 -2.75 Q-13.25 -2.55 -13.25 -2.1 L-13.25 -1.95 -13.55 -1.5 Q-13.8 -1.15 -14.25 -1.2 -14.65 -1.15 -14.9 -1.45 L-15.15 -2.1 -15.1 -2.4 -14.9 -2.75 -14.55 -3.0 -17.9 -4.25 -17.9 -3.95 -17.95 -3.55 -18.1 -3.3 Q-18.35 -3.05 -18.6 -3.05 L-18.8 -3.05 Q-19.15 -3.0 -19.45 -3.3 L-19.75 -3.95 -19.45 -4.65 -19.35 -4.75 -18.85 -4.9 -19.5 -5.9 -19.6 -6.25 -19.5 -6.65 Q-18.95 -4.95 -13.8 -3.7 -8.1 -2.3 0.0 -2.4 L1.95 -2.45 2.05 -2.45 Q8.15 -2.7 12.85 -3.7 L13.7 -3.95 13.8 -3.95 Q18.95 -5.3 19.4 -7.05" fill="#ebf3ef" fill-rule="evenodd" stroke="none"/>
    <path d="M-19.5 -5.9 L-18.85 -4.9 -19.35 -4.75 -19.6 -5.55 -19.5 -5.9 M-17.95 -3.55 L-17.9 -3.95 -17.9 -4.25 -14.55 -3.0 -14.9 -2.75 -15.1 -2.4 Q-16.85 -2.95 -17.95 -3.55 M-13.25 -1.95 L-13.25 -2.1 Q-13.25 -2.55 -13.55 -2.75 L-9.6 -2.05 -9.85 -1.85 -10.1 -1.4 -13.25 -1.95 M-8.2 -1.15 L-8.25 -1.2 Q-8.3 -1.65 -8.5 -1.85 L-8.5 -1.9 -3.6 -1.5 -3.9 -1.3 -4.1 -0.8 -8.2 -1.15 M-2.25 -0.8 L-2.55 -1.35 -2.8 -1.5 -0.05 -1.55 3.05 -1.55 2.8 -1.35 Q2.6 -1.2 2.55 -0.85 L0.0 -0.8 -2.25 -0.8 M4.4 -0.95 L4.1 -1.4 3.75 -1.65 8.75 -2.1 8.65 -2.05 Q8.35 -1.8 8.35 -1.4 L8.4 -1.35 4.4 -0.95 M10.25 -1.6 L9.95 -2.05 9.65 -2.2 13.65 -3.05 13.4 -2.4 13.4 -2.2 10.25 -1.6 M15.25 -2.75 L15.0 -3.1 14.6 -3.3 Q16.85 -3.95 18.1 -4.75 L17.95 -4.3 Q17.95 -4.15 18.1 -3.95 17.05 -3.3 15.25 -2.75 M19.3 -5.2 L18.9 -5.3 18.8 -5.25 19.45 -6.25 19.5 -5.9 19.3 -5.2" fill="#75260c" fill-rule="evenodd" stroke="none"/>
    <path d="M5.85 -11.2 L13.85 -10.0 Q18.6 -8.8 18.6 -7.45 18.6 -6.2 13.9 -4.85 8.3 -3.3 -0.1 -3.25 -8.35 -3.15 -13.95 -4.6 -18.7 -5.85 -18.75 -7.1 -18.7 -8.4 -14.0 -9.75 -10.55 -10.75 -5.95 -11.1 L-6.85 -8.85 Q-0.9 -3.6 6.95 -8.35 L5.85 -11.2" fill="url(#gradient0)" fill-rule="evenodd" stroke="none"/>
    <path d="M5.45 -12.05 L5.85 -11.2 6.95 -8.35 Q-0.9 -3.6 -6.85 -8.85 L-5.95 -11.1 -5.6 -12.0 -5.25 -12.8 Q-2.35 -19.6 -0.25 -19.65 1.95 -19.7 5.05 -12.9 L5.45 -12.05" fill="url(#gradient1)" fill-rule="evenodd" stroke="none"/>
  </g>
  <defs>
    <linearGradient gradientTransform="matrix(-0.0079, 0.0037, -0.0043, -0.0093, 2.8, -8.6)" gradientUnits="userSpaceOnUse" id="gradient0" spreadMethod="pad" x1="-819.2" x2="819.2">
      <stop offset="0.0" stop-color="#ffa61d"/>
      <stop offset="1.0" stop-color="#d88e1a"/>
    </linearGradient>
    <linearGradient gradientTransform="matrix(-0.0031, -0.0022, 0.0046, -0.0064, -2.0, -13.3)" gradientUnits="userSpaceOnUse" id="gradient1" spreadMethod="pad" x1="-819.2" x2="819.2">
      <stop offset="0.0" stop-color="#ffa61d"/>
      <stop offset="1.0" stop-color="#d88e1a"/>
    </linearGradient>
  </defs>
</svg>
