<?xml version="1.0" encoding="UTF-8" standalone="no"?>
<svg xmlns:ffdec="https://www.free-decompiler.com/flash" xmlns:xlink="http://www.w3.org/1999/xlink" ffdec:objectType="shape" height="18.7px" width="21.3px" xmlns="http://www.w3.org/2000/svg">
  <g transform="matrix(1.0, 0.0, 0.0, 1.0, 10.5, 17.65)">
    <path d="M0.55 -13.4 Q3.65 -13.3 5.45 -12.3 6.95 -11.5 8.75 -9.3 9.9 -7.8 10.1 -4.4 L10.05 -0.1 10.05 -0.05 10.05 0.3 6.5 0.75 0.0 0.8 -6.25 0.45 -10.0 -0.15 Q-10.15 -1.7 -9.8 -3.75 -9.2 -7.8 -6.95 -10.3 -5.7 -11.75 -4.35 -12.45 -2.3 -13.5 0.55 -13.4" fill="#b26d02" fill-rule="evenodd" stroke="none"/>
    <path d="M-9.5 -5.95 Q-8.5 -5.55 -5.8 -5.3 L0.2 -4.95 Q3.8 -4.85 6.6 -5.0 L10.0 -5.4 10.0 -5.45 10.6 -5.2 10.8 -4.6 10.65 -0.25 10.4 0.3 Q10.2 0.55 9.85 0.6 L6.15 1.0 0.05 1.05 -6.05 0.7 -9.7 0.1 -10.25 -0.2 -10.5 -0.8 -10.35 -5.1 -10.1 -5.65 -9.5 -5.95" fill="#ffa61d" fill-rule="evenodd" stroke="none"/>
    <path d="M-3.15 -13.75 L-3.5 -14.05 -3.1 -14.2 -3.35 -14.5 -2.95 -14.65 -3.2 -15.05 -2.7 -15.1 -2.95 -15.55 -2.5 -15.5 -2.7 -15.95 -2.2 -15.9 -2.35 -16.4 -1.85 -16.25 -1.95 -16.75 -1.5 -16.5 -1.5 -17.0 -1.05 -16.75 -1.05 -17.25 -0.65 -16.95 -0.5 -17.45 -0.2 -17.1 -0.05 -17.55 0.25 -17.2 0.45 -17.65 0.7 -17.25 1.0 -17.65 1.2 -17.2 1.55 -17.5 1.7 -17.05 2.0 -17.4 2.1 -16.9 2.55 -17.2 2.55 -16.7 2.95 -16.95 2.9 -16.45 3.35 -16.65 3.3 -16.1 3.75 -16.25 3.55 -15.8 4.05 -15.8 3.8 -15.35 4.3 -15.35 4.05 -14.95 4.5 -14.85 4.2 -14.55 4.65 -14.4 4.3 -14.05 Q4.55 -13.9 4.75 -13.85 L4.35 -13.6 4.75 -13.35 4.35 -13.1 4.7 -12.8 4.25 -12.65 4.55 -12.25 4.1 -12.15 4.4 -11.8 3.9 -11.7 4.15 -11.25 3.65 -11.25 3.85 -10.85 3.4 -10.95 3.55 -10.45 3.0 -10.6 3.1 -10.1 2.7 -10.25 2.7 -9.75 2.25 -10.0 2.2 -9.5 1.8 -9.8 1.7 -9.35 1.35 -9.7 1.2 -9.2 0.9 -9.65 0.7 -9.15 0.45 -9.6 0.15 -9.15 0.0 -9.65 -0.35 -9.25 -0.5 -9.7 -0.85 -9.4 -0.95 -9.85 -1.35 -9.55 -1.35 -10.1 -1.75 -9.85 -1.7 -10.4 Q-1.95 -10.25 -2.2 -10.2 L-2.1 -10.7 -2.55 -10.55 -2.45 -11.05 -2.9 -11.0 -2.65 -11.4 -3.1 -11.4 -2.85 -11.85 -3.3 -11.95 -3.0 -12.3 -3.45 -12.45 -3.15 -12.8 Q-3.35 -12.85 -3.55 -13.0 L-3.15 -13.25 -3.55 -13.5 -3.15 -13.75" fill="#ffa61d" fill-rule="evenodd" stroke="none"/>
  </g>
</svg>
