<?xml version="1.0" encoding="UTF-8" standalone="no"?>
<svg xmlns:ffdec="https://www.free-decompiler.com/flash" xmlns:xlink="http://www.w3.org/1999/xlink" ffdec:objectType="shape" height="13.7px" width="13.1px" xmlns="http://www.w3.org/2000/svg">
  <g transform="matrix(1.0, 0.0, 0.0, 1.0, 5.35, 12.85)">
    <path d="M-4.7 -5.25 Q-0.85 -3.25 2.35 -4.45" fill="none" stroke="#000000" stroke-linecap="square" stroke-linejoin="round" stroke-opacity="0.24705882" stroke-width="1.0"/>
    <path d="M-3.2 -11.1 Q-0.9 -13.05 1.85 -12.85 4.3 -12.75 4.9 -8.95 L5.45 -5.05 Q5.8 -2.75 6.5 -0.95 L6.45 -0.95 6.65 -0.5 Q4.5 -1.05 2.6 -4.45 L1.55 -6.5 Q-0.2 -10.85 -3.2 -11.1" fill="url(#gradient0)" fill-rule="evenodd" stroke="none"/>
    <path d="M1.55 -6.5 L2.6 -4.45 Q-0.75 -3.1 -5.15 -5.25 L-4.6 -7.1 Q-1.55 -5.9 1.55 -6.5" fill="url(#gradient1)" fill-rule="evenodd" stroke="none"/>
    <path d="M-3.2 -11.1 Q-0.2 -10.85 1.55 -6.5 -1.55 -5.9 -4.6 -7.1 -4.1 -10.3 -3.2 -11.1" fill="url(#gradient2)" fill-rule="evenodd" stroke="none"/>
    <path d="M7.55 -1.3 Q7.85 -0.85 7.75 -0.35 7.75 0.2 7.35 0.6 L6.45 0.85 Q5.95 0.8 5.65 0.35 5.35 -0.05 5.4 -0.65 5.45 -1.2 5.85 -1.5 6.2 -1.9 6.7 -1.8 7.25 -1.7 7.55 -1.3" fill="url(#gradient3)" fill-rule="evenodd" stroke="none"/>
  </g>
  <defs>
    <linearGradient gradientTransform="matrix(0.006, 0.0, 0.0, 0.0076, 1.7, -6.7)" gradientUnits="userSpaceOnUse" id="gradient0" spreadMethod="pad" x1="-819.2" x2="819.2">
      <stop offset="0.0" stop-color="#e7890a"/>
      <stop offset="1.0" stop-color="#7f4b05"/>
    </linearGradient>
    <linearGradient gradientTransform="matrix(-0.0028, -2.0E-4, 1.0E-4, -0.0017, -1.05, -5.35)" gradientUnits="userSpaceOnUse" id="gradient1" spreadMethod="pad" x1="-819.2" x2="819.2">
      <stop offset="0.0" stop-color="#dad596"/>
      <stop offset="1.0" stop-color="#f7f4d2"/>
    </linearGradient>
    <linearGradient gradientTransform="matrix(0.0017, 0.0011, -0.0013, 0.0025, -1.7, -7.95)" gradientUnits="userSpaceOnUse" id="gradient2" spreadMethod="pad" x1="-819.2" x2="819.2">
      <stop offset="0.0" stop-color="#e7890a"/>
      <stop offset="1.0" stop-color="#7f4b05"/>
    </linearGradient>
    <linearGradient gradientTransform="matrix(0.0014, 0.0, 0.0, 0.0016, 6.55, -0.5)" gradientUnits="userSpaceOnUse" id="gradient3" spreadMethod="pad" x1="-819.2" x2="819.2">
      <stop offset="0.0" stop-color="#dad596"/>
      <stop offset="1.0" stop-color="#f7f4d2"/>
    </linearGradient>
  </defs>
</svg>
