<?xml version="1.0" encoding="UTF-8" standalone="no"?>
<svg xmlns:ffdec="https://www.free-decompiler.com/flash" xmlns:xlink="http://www.w3.org/1999/xlink" ffdec:objectType="shape" height="12.6px" width="33.35px" xmlns="http://www.w3.org/2000/svg">
  <g transform="matrix(1.0, 0.0, 0.0, 1.0, 21.75, 10.4)">
    <path d="M-21.6 -2.4 L-21.15 -3.1 -18.45 -3.5 -16.4 -3.85 -13.85 -4.3 -8.9 -5.05 -8.85 -3.8 -8.85 -3.65 -9.55 -2.65 -20.9 -1.55 Q-21.65 -1.95 -21.6 -2.4" fill="#e7890a" fill-rule="evenodd" stroke="none"/>
    <path d="M-9.55 -2.65 L-9.75 -2.1 -20.6 -1.0 Q-22.2 -1.4 -21.6 -2.4 -21.65 -1.95 -20.9 -1.55 L-9.55 -2.65" fill="#cc7808" fill-rule="evenodd" stroke="none"/>
    <path d="M10.9 1.8 L9.45 2.2 9.25 0.4 Q11.05 1.15 10.9 1.8 M-8.85 -0.25 L-8.85 1.4 -10.25 1.05 Q-9.75 -0.05 -8.85 -0.25" fill="#333333" fill-rule="evenodd" stroke="none"/>
    <path d="M-10.4 -0.8 Q-11.1 -5.5 -7.8 -8.15 -4.95 -10.5 -0.15 -10.4 4.5 -10.45 7.65 -8.25 11.15 -5.8 10.55 -2.1 L10.6 -0.8 Q-2.2 -5.5 -10.4 -0.8" fill="url(#gradient0)" fill-rule="evenodd" stroke="none"/>
    <path d="M10.6 -0.8 L10.6 -0.65 11.3 0.25 11.6 0.85 Q11.7 1.2 10.9 1.8 11.05 1.15 9.25 0.4 L6.5 -0.65 Q-0.5 -3.0 -7.65 -0.7 L-8.85 -0.25 Q-9.75 -0.05 -10.25 1.05 -11.75 0.25 -10.35 -0.7 L-10.4 -0.8 Q-2.2 -5.5 10.6 -0.8" fill="url(#gradient1)" fill-rule="evenodd" stroke="none"/>
  </g>
  <defs>
    <linearGradient gradientTransform="matrix(2.0E-4, -0.0024, 0.014, 9.0E-4, 0.5, -5.1)" gradientUnits="userSpaceOnUse" id="gradient0" spreadMethod="pad" x1="-819.2" x2="819.2">
      <stop offset="0.0" stop-color="#44403f"/>
      <stop offset="1.0" stop-color="#636260"/>
    </linearGradient>
    <linearGradient gradientTransform="matrix(2.0E-4, -0.0024, 0.014, 9.0E-4, 0.5, -5.1)" gradientUnits="userSpaceOnUse" id="gradient1" spreadMethod="pad" x1="-819.2" x2="819.2">
      <stop offset="0.0" stop-color="#3f3b3b"/>
      <stop offset="1.0" stop-color="#595856"/>
    </linearGradient>
  </defs>
</svg>
