<?xml version="1.0" encoding="UTF-8" standalone="no"?>
<svg xmlns:ffdec="https://www.free-decompiler.com/flash" xmlns:xlink="http://www.w3.org/1999/xlink" ffdec:objectType="shape" height="22.7px" width="25.6px" xmlns="http://www.w3.org/2000/svg">
  <g transform="matrix(1.0, 0.0, 0.0, 1.0, 13.45, 10.4)">
    <path d="M-10.85 -0.4 L-10.8 -0.7 Q-10.15 -7.55 -4.05 -9.4 1.95 -11.25 6.1 -9.75 10.25 -8.25 11.6 -5.0 12.85 -1.75 11.3 2.45 9.5 4.6 9.65 3.85 L9.75 3.65 9.75 3.55 9.3 1.05 Q8.6 -1.15 7.15 -1.55 L5.65 -1.25 Q-4.5 0.45 -10.75 0.05 L-10.85 -0.4" fill="url(#gradient0)" fill-rule="evenodd" stroke="none"/>
    <path d="M5.65 -1.25 L7.15 -1.55 Q8.6 -1.15 9.3 1.05 L9.75 3.55 9.75 3.65 9.65 3.85 Q7.95 6.65 5.25 6.6 L5.8 4.7 5.85 4.45 Q6.3 1.9 5.65 -1.25 M9.3 1.05 L5.8 4.7 9.3 1.05" fill="#006c82" fill-rule="evenodd" stroke="none"/>
    <path d="M-10.95 0.05 L-10.85 -0.4 -10.75 0.05 -10.95 0.05" fill="url(#gradient1)" fill-rule="evenodd" stroke="none"/>
    <path d="M-10.85 -0.4 L-10.8 -0.7 Q-12.25 -0.65 -12.35 -0.1 L-11.65 0.0 -10.95 0.05 -10.75 0.05 Q-4.5 0.45 5.65 -1.25 L7.15 -1.55 Q8.6 -1.15 9.3 1.05 L9.75 3.55 9.75 3.65 9.65 3.85 Q7.95 6.65 5.25 6.6 4.55 10.4 0.95 11.2 L0.5 11.3 -4.1 11.8 -8.4 11.4 -9.3 11.05 -9.45 11.0 -9.9 10.65 Q-11.2 9.4 -11.5 7.5 L-11.55 6.1 -11.65 5.55 Q-12.9 5.35 -12.95 5.0 L-12.95 4.95 Q-13.0 4.6 -11.85 4.1 L-9.15 3.35 Q-9.15 2.5 -10.75 0.05 M-11.5 7.5 L-9.5 7.8 Q-9.75 6.9 -9.2 5.65 L-10.8 5.55 -11.65 5.55 M-10.8 5.55 Q-9.2 4.4 -9.15 3.35 M-9.5 7.8 L-4.15 7.75 Q-4.55 6.9 -3.95 5.75 L-9.2 5.65 M0.5 11.3 L1.45 7.25 -4.15 7.75 Q-4.45 9.8 -4.1 11.8 M-9.5 7.8 L-8.4 11.4 M5.25 6.6 L1.45 7.25 1.45 5.35 -3.95 5.75 M5.85 4.45 L1.45 5.35 M5.8 4.7 L5.25 6.6 M5.65 -1.25 Q6.3 1.9 5.85 4.45 L5.8 4.7 9.3 1.05" fill="none" stroke="#000000" stroke-linecap="round" stroke-linejoin="round" stroke-width="1.0"/>
    <path d="M-7.15 -2.85 Q-4.6 -10.7 4.7 -8.2 -1.7 -9.05 -2.4 -2.85 L-7.15 -2.85" fill="url(#gradient2)" fill-rule="evenodd" stroke="none"/>
  </g>
  <defs>
    <linearGradient gradientTransform="matrix(0.014, 0.0, 0.0, 0.0111, 0.65, -1.3)" gradientUnits="userSpaceOnUse" id="gradient0" spreadMethod="pad" x1="-819.2" x2="819.2">
      <stop offset="0.0" stop-color="#0085aa"/>
      <stop offset="1.0" stop-color="#006c82"/>
    </linearGradient>
    <linearGradient gradientTransform="matrix(5.0E-4, 0.0102, 0.0139, -0.001, 0.5, -0.15)" gradientUnits="userSpaceOnUse" id="gradient1" spreadMethod="pad" x1="-819.2" x2="819.2">
      <stop offset="0.0" stop-color="#ff123c"/>
      <stop offset="1.0" stop-color="#91485b"/>
    </linearGradient>
    <linearGradient gradientTransform="matrix(0.0084, 0.0, 0.0, 0.0059, 1.25, -5.1)" gradientUnits="userSpaceOnUse" id="gradient2" spreadMethod="pad" x1="-819.2" x2="819.2">
      <stop offset="0.0" stop-color="#e7890a"/>
      <stop offset="1.0" stop-color="#990000"/>
    </linearGradient>
  </defs>
</svg>
