<?xml version="1.0" encoding="UTF-8" standalone="no"?>
<svg xmlns:ffdec="https://www.free-decompiler.com/flash" xmlns:xlink="http://www.w3.org/1999/xlink" ffdec:objectType="shape" height="14.4px" width="25.1px" xmlns="http://www.w3.org/2000/svg">
  <g transform="matrix(1.0, 0.0, 0.0, 1.0, 11.2, 12.6)">
    <path d="M7.8 1.8 L5.55 1.8 5.55 -1.95 Q-0.55 -4.6 -7.5 -1.9 L-8.5 1.7 -9.25 1.7 -9.25 -0.9 Q-11.0 -2.1 -10.4 -4.5 -12.5 -7.85 -9.25 -12.6 -9.05 -4.6 3.6 -11.2 6.6 -12.5 8.7 -11.1 10.9 -9.7 10.45 -6.15 12.3 -6.05 13.25 -4.7 14.1 -3.5 13.85 -1.9 13.6 -0.3 12.4 0.7 L7.8 0.55 7.8 1.8 M-9.6 -9.2 Q-9.45 -8.2 -8.2 -7.7 -9.45 -8.2 -9.6 -9.2 M5.1 -9.75 L7.4 -9.2 6.2 -10.45 Q8.2 -10.1 9.2 -8.9 8.2 -10.1 6.2 -10.45 L7.4 -9.2 5.1 -9.75 M10.7 -4.45 L11.65 -3.7 11.65 -4.9 Q12.8 -4.5 12.8 -3.2 12.8 -4.5 11.65 -4.9 L11.65 -3.7 10.7 -4.45" fill="url(#gradient0)" fill-rule="evenodd" stroke="none"/>
    <path d="M12.8 -3.2 Q12.8 -4.5 11.65 -4.9 L11.65 -3.7 10.7 -4.45 M9.2 -8.9 Q8.2 -10.1 6.2 -10.45 L7.4 -9.2 5.1 -9.75 M-8.2 -7.7 Q-9.45 -8.2 -9.6 -9.2" fill="none" stroke="#dad596" stroke-linecap="round" stroke-linejoin="round" stroke-width="1.0"/>
  </g>
  <defs>
    <linearGradient gradientTransform="matrix(-0.0151, 0.0, 0.0, 0.0096, 1.3, -4.05)" gradientUnits="userSpaceOnUse" id="gradient0" spreadMethod="pad" x1="-819.2" x2="819.2">
      <stop offset="0.0" stop-color="#000000"/>
      <stop offset="1.0" stop-color="#2d2d2d"/>
    </linearGradient>
  </defs>
</svg>
