<?xml version="1.0" encoding="UTF-8" standalone="no"?>
<svg xmlns:ffdec="https://www.free-decompiler.com/flash" xmlns:xlink="http://www.w3.org/1999/xlink" ffdec:objectType="shape" height="22.95px" width="34.55px" xmlns="http://www.w3.org/2000/svg">
  <g transform="matrix(1.0, 0.0, 0.0, 1.0, 16.5, 21.35)">
    <path d="M7.6 -11.05 Q16.9 -14.3 15.25 -18.25 22.75 -11.2 10.3 -4.65 6.3 -6.1 7.6 -11.05" fill="url(#gradient0)" fill-rule="evenodd" stroke="none"/>
    <path d="M10.65 -3.35 L10.8 -2.5 Q9.85 -1.3 6.8 -0.55 L0.3 0.35 -6.2 -0.1 Q-9.3 -0.75 -10.25 -2.1 L-10.15 -3.95 Q-7.65 -2.4 -5.05 -2.4 -6.7 -9.2 -2.1 -14.9 L1.45 -15.0 Q-2.9 -9.05 -0.5 -2.0 5.3 -0.75 10.65 -3.35" fill="url(#gradient1)" fill-rule="evenodd" stroke="none"/>
    <path d="M10.8 -2.5 Q11.45 -2.35 11.6 -1.95 11.9 -1.55 11.35 -1.05 10.15 0.2 7.0 0.9 L0.3 1.6 -6.4 1.05 Q-9.7 0.35 -11.05 -0.9 -11.6 -2.05 -10.25 -2.1 -9.3 -0.75 -6.2 -0.1 L0.3 0.35 6.8 -0.55 Q9.85 -1.3 10.8 -2.5" fill="url(#gradient2)" fill-rule="evenodd" stroke="none"/>
    <path d="M10.3 -4.65 L10.65 -3.35 Q5.3 -0.75 -0.5 -2.0 -2.9 -9.05 1.45 -15.0 5.2 -14.75 7.6 -11.05 6.3 -6.1 10.3 -4.65" fill="url(#gradient3)" fill-rule="evenodd" stroke="none"/>
    <path d="M-10.15 -3.95 L-10.0 -5.6 -9.85 -6.4 Q-9.35 -8.6 -7.9 -10.8 L-7.65 -11.05 -7.7 -11.05 -7.5 -11.3 Q-6.0 -13.2 -2.9 -14.65 L-2.1 -14.9 Q-6.7 -9.2 -5.05 -2.4 -7.65 -2.4 -10.15 -3.95" fill="url(#gradient4)" fill-rule="evenodd" stroke="none"/>
    <path d="M-10.0 -5.6 L-10.1 -4.85 -10.15 -4.8 Q-20.45 -12.75 -14.1 -18.0 -14.65 -13.5 -7.7 -11.05 L-7.65 -11.05 -7.9 -10.8 Q-9.35 -8.6 -9.85 -6.4 L-10.0 -5.6" fill="url(#gradient5)" fill-rule="evenodd" stroke="none"/>
    <path d="M-2.05 -8.05 Q-2.1 -7.65 -2.3 -7.4 L-2.9 -7.15 -3.6 -7.35 Q-3.9 -7.65 -3.85 -8.0 -3.9 -8.4 -3.6 -8.65 -3.4 -8.9 -3.0 -8.95 -2.65 -8.95 -2.35 -8.65 -2.05 -8.4 -2.05 -8.05" fill="url(#gradient6)" fill-rule="evenodd" stroke="none"/>
    <path d="M-2.05 -4.35 Q-2.1 -3.95 -2.3 -3.7 L-2.9 -3.45 -3.6 -3.65 Q-3.9 -3.95 -3.85 -4.3 -3.9 -4.7 -3.6 -4.95 -3.4 -5.2 -3.0 -5.25 -2.65 -5.25 -2.35 -4.95 -2.05 -4.7 -2.05 -4.35" fill="url(#gradient7)" fill-rule="evenodd" stroke="none"/>
    <path d="M-1.3 -11.5 Q-1.35 -11.1 -1.55 -10.85 -1.8 -10.65 -2.15 -10.6 -2.6 -10.6 -2.85 -10.8 -3.15 -11.1 -3.1 -11.45 -3.15 -11.85 -2.85 -12.1 L-2.25 -12.4 -1.6 -12.1 -1.3 -11.5" fill="url(#gradient8)" fill-rule="evenodd" stroke="none"/>
    <path d="M-1.95 -15.7 L1.3 -15.55 1.35 -15.55 Q2.05 -15.4 2.0 -14.65 L-1.95 -14.45 -2.55 -14.65 Q-2.7 -15.35 -2.0 -15.7 L-1.95 -15.7" fill="url(#gradient9)" fill-rule="evenodd" stroke="none"/>
    <path d="M1.35 -15.55 L1.3 -15.55 -1.95 -15.7 Q-1.5 -19.1 -0.2 -21.35 0.95 -19.1 1.35 -15.55" fill="url(#gradient10)" fill-rule="evenodd" stroke="none"/>
  </g>
  <defs>
    <linearGradient gradientTransform="matrix(-0.0035, 0.0082, -0.0055, -0.0018, 13.75, -13.55)" gradientUnits="userSpaceOnUse" id="gradient0" spreadMethod="pad" x1="-819.2" x2="819.2">
      <stop offset="0.0" stop-color="#f7f4d2"/>
      <stop offset="1.0" stop-color="#ccc78c"/>
    </linearGradient>
    <linearGradient gradientTransform="matrix(-9.0E-4, 0.0071, -0.0127, -0.0014, 0.8, -6.5)" gradientUnits="userSpaceOnUse" id="gradient1" spreadMethod="pad" x1="-819.2" x2="819.2">
      <stop offset="0.0" stop-color="#7ca0aa"/>
      <stop offset="1.0" stop-color="#5e7c82"/>
      <stop offset="1.0" stop-color="#924b5d"/>
    </linearGradient>
    <linearGradient gradientTransform="matrix(0.0069, 4.0E-4, -2.0E-4, 0.0029, -1.35, -0.8)" gradientUnits="userSpaceOnUse" id="gradient2" spreadMethod="pad" x1="-819.2" x2="819.2">
      <stop offset="0.0" stop-color="#7ca0aa"/>
      <stop offset="1.0" stop-color="#5e7c82"/>
      <stop offset="1.0" stop-color="#924b5d"/>
    </linearGradient>
    <linearGradient gradientTransform="matrix(0.0023, 0.0064, -0.0066, 0.0017, 3.3, -7.85)" gradientUnits="userSpaceOnUse" id="gradient3" spreadMethod="pad" x1="-819.2" x2="819.2">
      <stop offset="0.0" stop-color="#e7890a"/>
      <stop offset="1.0" stop-color="#7f4a00"/>
    </linearGradient>
    <linearGradient gradientTransform="matrix(-7.0E-4, 0.0046, -0.0036, -5.0E-4, -6.4, -7.95)" gradientUnits="userSpaceOnUse" id="gradient4" spreadMethod="pad" x1="-819.2" x2="819.2">
      <stop offset="0.0" stop-color="#e7890a"/>
      <stop offset="1.0" stop-color="#7f4a00"/>
    </linearGradient>
    <linearGradient gradientTransform="matrix(0.0029, 0.0052, -0.0039, 0.0016, -12.65, -12.7)" gradientUnits="userSpaceOnUse" id="gradient5" spreadMethod="pad" x1="-819.2" x2="819.2">
      <stop offset="0.0" stop-color="#f7f4d2"/>
      <stop offset="1.0" stop-color="#ccc78c"/>
    </linearGradient>
    <linearGradient gradientTransform="matrix(0.0011, 0.0, 0.0, 0.001, -3.1, -7.95)" gradientUnits="userSpaceOnUse" id="gradient6" spreadMethod="pad" x1="-819.2" x2="819.2">
      <stop offset="0.0" stop-color="#648189"/>
      <stop offset="1.0" stop-color="#42575b"/>
      <stop offset="1.0" stop-color="#924b5d"/>
    </linearGradient>
    <linearGradient gradientTransform="matrix(0.0011, 0.0, 0.0, 0.001, -3.1, -4.25)" gradientUnits="userSpaceOnUse" id="gradient7" spreadMethod="pad" x1="-819.2" x2="819.2">
      <stop offset="0.0" stop-color="#648189"/>
      <stop offset="1.0" stop-color="#42575b"/>
      <stop offset="1.0" stop-color="#924b5d"/>
    </linearGradient>
    <linearGradient gradientTransform="matrix(0.0011, 0.0, 0.0, 0.001, -2.35, -11.4)" gradientUnits="userSpaceOnUse" id="gradient8" spreadMethod="pad" x1="-819.2" x2="819.2">
      <stop offset="0.0" stop-color="#648189"/>
      <stop offset="1.0" stop-color="#42575b"/>
      <stop offset="1.0" stop-color="#924b5d"/>
    </linearGradient>
    <linearGradient gradientTransform="matrix(0.0013, 0.0, 0.0, 9.0E-4, 0.1, -14.75)" gradientUnits="userSpaceOnUse" id="gradient9" spreadMethod="pad" x1="-819.2" x2="819.2">
      <stop offset="0.0" stop-color="#f7f4d2"/>
      <stop offset="1.0" stop-color="#dad596"/>
    </linearGradient>
    <linearGradient gradientTransform="matrix(0.001, 0.0013, -0.0025, 0.0013, 0.15, -16.7)" gradientUnits="userSpaceOnUse" id="gradient10" spreadMethod="pad" x1="-819.2" x2="819.2">
      <stop offset="0.0" stop-color="#f7f4d2"/>
      <stop offset="1.0" stop-color="#ccc18e"/>
    </linearGradient>
  </defs>
</svg>
