<?xml version="1.0" encoding="UTF-8" standalone="no"?>
<svg xmlns:ffdec="https://www.free-decompiler.com/flash" xmlns:xlink="http://www.w3.org/1999/xlink" ffdec:objectType="shape" height="340.05px" width="256.95px" xmlns="http://www.w3.org/2000/svg">
  <g transform="matrix(1.0, 0.0, 0.0, 1.0, 128.45, 170.05)">
    <path d="M96.4 -123.15 L96.45 -123.15 96.45 123.25 96.4 123.25 Q90.3 123.25 86.0 127.6 81.65 131.9 81.65 138.05 L-81.65 138.05 Q-81.65 131.9 -86.05 127.6 -90.35 123.25 -96.5 123.25 L-96.5 -123.15 Q-90.35 -123.15 -86.05 -127.5 -81.65 -131.85 -81.65 -137.95 L-81.65 -138.0 81.65 -138.0 Q81.65 -131.85 86.0 -127.5 90.3 -123.15 96.4 -123.15 90.3 -123.15 86.0 -127.5 81.65 -131.85 81.65 -138.0 L-81.65 -138.0 -81.65 -137.95 Q-81.65 -131.85 -86.05 -127.5 -90.35 -123.15 -96.5 -123.15 L-96.5 123.25 Q-90.35 123.25 -86.05 127.6 -81.65 131.9 -81.65 138.05 L81.65 138.05 Q81.65 131.9 86.0 127.6 90.3 123.25 96.4 123.25 L96.45 123.25 96.45 -123.15 96.4 -123.15 M-108.45 -170.05 L108.5 -170.05 Q108.5 -150.05 128.5 -150.05 L128.5 150.0 Q108.5 150.0 108.5 170.0 L-108.45 170.0 Q-108.45 150.0 -128.45 150.0 L-128.45 -150.05 Q-108.45 -150.05 -108.45 -170.05" fill="#f7f4d2" fill-rule="evenodd" stroke="none"/>
    <path d="M96.4 -123.15 Q90.3 -123.15 86.0 -127.5 81.65 -131.85 81.65 -138.0 L-81.65 -138.0 -81.65 -137.95 Q-81.65 -131.85 -86.05 -127.5 -90.35 -123.15 -96.5 -123.15 L-96.5 123.25 Q-90.35 123.25 -86.05 127.6 -81.65 131.9 -81.65 138.05 L81.65 138.05 Q81.65 131.9 86.0 127.6 90.3 123.25 96.4 123.25 L96.45 123.25 96.45 -123.15 96.4 -123.15 Z" fill="none" stroke="#dad596" stroke-linecap="butt" stroke-linejoin="miter-clip" stroke-miterlimit="3.0" stroke-width="5.0"/>
  </g>
</svg>
