<?xml version="1.0" encoding="UTF-8" standalone="no"?>
<svg xmlns:ffdec="https://www.free-decompiler.com/flash" xmlns:xlink="http://www.w3.org/1999/xlink" ffdec:objectType="shape" height="30.0px" width="27.75px" xmlns="http://www.w3.org/2000/svg">
  <g transform="matrix(1.0, 0.0, 0.0, 1.0, -11.8, -17.7)">
    <path d="M12.65 22.9 L12.45 22.6 Q11.8 21.35 12.1 20.0 12.45 18.85 13.7 18.25 L13.7 18.15 Q14.85 17.55 16.1 17.85 L17.25 18.45 Q18.95 17.75 21.0 17.75 L29.4 17.75 Q31.9 17.75 33.9 18.95 L35.25 17.9 37.65 18.1 Q38.9 18.45 39.3 19.65 39.8 20.95 39.3 22.2 L38.2 24.8 38.5 26.55 38.4 40.35 Q39.05 48.15 31.05 47.6 L20.05 47.7 Q12.75 47.7 12.1 41.75 L11.8 39.25 11.8 26.9 Q11.8 24.7 12.65 22.9 M35.0 27.25 L34.05 26.95 Q33.6 26.95 33.2 27.25 L33.15 27.45 Q32.65 27.8 32.65 28.35 32.65 29.0 33.15 29.35 33.5 29.75 34.05 29.75 L34.9 29.6 35.05 29.35 35.45 28.35 35.0 27.25 M26.35 35.85 L26.05 35.9 25.9 36.15 25.95 36.45 Q26.15 36.55 26.2 36.6 L28.0 36.6 Q29.1 36.55 29.55 35.9 L30.1 35.45 30.25 35.9 30.7 36.3 Q31.25 36.7 32.45 36.7 L32.8 36.7 32.95 36.7 33.15 36.6 33.15 36.25 32.95 35.9 32.65 35.9 31.9 35.9 31.4 35.85 31.05 35.55 30.8 35.15 30.55 34.45 31.05 34.2 31.2 33.9 32.5 31.7 32.6 30.8 32.2 30.1 Q31.9 29.75 31.55 29.75 L28.75 29.75 Q28.4 29.75 28.05 30.1 L27.6 30.8 27.7 31.65 29.1 33.9 29.55 34.45 29.0 35.45 28.0 35.85 26.35 35.85 M21.15 27.2 L21.0 27.45 Q20.5 27.8 20.5 28.35 20.5 29.0 21.0 29.35 21.4 29.75 22.0 29.75 L22.8 29.6 22.95 29.35 Q23.4 29.0 23.4 28.35 L22.95 27.45 22.8 27.2 22.0 26.95 21.15 27.2" fill="#f7f4d2" fill-rule="evenodd" stroke="none"/>
  </g>
</svg>
