<?xml version="1.0" encoding="UTF-8" standalone="no"?>
<svg xmlns:ffdec="https://www.free-decompiler.com/flash" xmlns:xlink="http://www.w3.org/1999/xlink" ffdec:objectType="shape" height="47.45px" width="33.6px" xmlns="http://www.w3.org/2000/svg">
  <g transform="matrix(1.0, 0.0, 0.0, 1.0, 16.8, 24.05)">
    <path d="M10.6 -2.15 L10.8 -2.15 Q12.3 -2.45 13.4 -3.45 14.8 -4.75 14.8 -6.65 14.8 -8.45 13.4 -9.85 11.9 -11.15 9.8 -11.15 L3.0 -11.15 -3.0 -10.85 -3.1 -11.15 -9.8 -11.15 Q-11.9 -11.15 -13.3 -9.85 -14.8 -8.45 -14.8 -6.65 -14.8 -4.75 -13.3 -3.45 -12.3 -2.45 -11.0 -2.15 L-10.8 -2.15 -9.8 -2.05 9.8 -2.05 10.6 -2.15 M-10.8 -2.15 Q-13.2 15.25 0.0 21.25 4.2 19.35 6.9 16.25 9.3 13.35 10.4 9.45 11.0 7.05 11.2 4.25 L10.8 -2.15 M-3.1 -11.15 Q-3.7 -13.55 -7.8 -16.25 L-4.5 -21.25 Q2.9 -16.45 3.0 -11.15" fill="none" stroke="#ffffcc" stroke-linecap="round" stroke-linejoin="miter-clip" stroke-miterlimit="3.0" stroke-width="4.0"/>
    <path d="M-10.8 -2.15 L-9.8 -2.05 9.8 -2.05 10.6 -2.15 10.8 -2.15 11.2 4.25 Q11.0 7.05 10.4 9.45 9.3 13.35 6.9 16.25 4.2 19.35 0.0 21.25 -13.2 15.25 -10.8 -2.15 M7.9 7.75 Q7.6 6.95 6.8 6.75 6.0 6.45 5.3 6.75 4.5 7.05 3.8 10.15 3.0 13.05 1.4 17.05 2.2 17.05 2.8 16.65 6.3 13.75 8.0 9.25 8.2 8.45 7.9 7.75" fill="url(#gradient0)" fill-rule="evenodd" stroke="none"/>
    <path d="M10.8 -2.15 L10.6 -2.15 9.8 -2.05 -9.8 -2.05 -10.8 -2.15 -11.0 -2.15 Q-12.3 -2.45 -13.3 -3.45 -14.8 -4.75 -14.8 -6.65 -14.8 -8.45 -13.3 -9.85 -11.9 -11.15 -9.8 -11.15 L-3.1 -11.15 -3.0 -10.85 3.0 -11.15 9.8 -11.15 Q11.9 -11.15 13.4 -9.85 14.8 -8.45 14.8 -6.65 14.8 -4.75 13.4 -3.45 12.3 -2.45 10.8 -2.15" fill="#713c63" fill-rule="evenodd" stroke="none"/>
    <path d="M7.9 7.75 Q8.2 8.45 8.0 9.25 6.3 13.75 2.8 16.65 2.2 17.05 1.4 17.05 3.0 13.05 3.8 10.15 4.5 7.05 5.3 6.75 6.0 6.45 6.8 6.75 7.6 6.95 7.9 7.75" fill="#ff862d" fill-rule="evenodd" stroke="none"/>
    <path d="M3.0 -11.15 L-3.0 -10.85 -3.1 -11.15 Q-3.7 -13.55 -7.8 -16.25 L-4.5 -21.25 Q2.9 -16.45 3.0 -11.15" fill="#94485b" fill-rule="evenodd" stroke="none"/>
  </g>
  <defs>
    <linearGradient gradientTransform="matrix(-0.0137, 0.0, 0.0, 0.0143, 0.0, 9.55)" gradientUnits="userSpaceOnUse" id="gradient0" spreadMethod="pad" x1="-819.2" x2="819.2">
      <stop offset="0.0" stop-color="#ff123c"/>
      <stop offset="1.0" stop-color="#91485b"/>
    </linearGradient>
  </defs>
</svg>
