<?xml version="1.0" encoding="UTF-8" standalone="no"?>
<svg xmlns:ffdec="https://www.free-decompiler.com/flash" xmlns:xlink="http://www.w3.org/1999/xlink" ffdec:objectType="shape" height="30.55px" width="40.25px" xmlns="http://www.w3.org/2000/svg">
  <g transform="matrix(1.0, 0.0, 0.0, 1.0, -4.1, -11.6)">
    <path d="M5.4 21.7 L5.2 21.5 Q4.5 20.75 4.35 19.7 4.35 18.7 5.1 17.95 L5.1 17.9 Q5.8 17.25 6.85 17.15 L7.8 17.4 Q9.0 16.5 10.5 16.0 L16.8 14.2 20.4 14.05 21.1 13.05 Q21.9 12.5 22.95 12.6 23.9 12.6 24.55 13.45 25.15 14.3 25.1 15.4 L24.75 17.45 25.45 18.8 28.4 29.15 Q30.65 34.75 24.4 36.05 L16.3 38.55 Q10.85 40.15 9.1 35.95 L8.35 34.15 5.6 24.85 Q5.2 23.15 5.4 21.7 M18.45 28.35 L18.2 28.6 18.2 28.65 18.25 28.9 18.45 29.0 19.85 28.5 Q20.6 28.3 20.8 27.75 L21.25 27.2 21.35 27.55 21.8 27.75 23.15 27.6 23.35 27.55 23.6 27.55 23.6 27.4 23.5 27.1 23.35 27.0 23.1 27.05 22.6 27.2 22.25 27.25 21.85 27.05 21.55 26.85 21.3 26.45 21.55 26.15 21.55 25.8 22.15 23.85 22.0 23.25 21.5 22.75 21.0 22.7 18.85 23.3 18.45 23.65 18.3 24.35 18.55 24.9 20.05 26.3 20.55 26.55 20.35 27.45 19.75 28.0 18.45 28.35 M23.85 19.85 Q21.3 17.45 19.9 20.75 21.3 17.45 23.85 19.85 M14.75 23.05 Q12.15 20.65 10.8 23.95 12.15 20.65 14.75 23.05" fill="#f7f4d2" fill-rule="evenodd" stroke="none"/>
    <path d="M18.45 28.35 L19.75 28.0 20.35 27.45 20.55 26.55 20.05 26.3 18.55 24.9 18.3 24.35 18.45 23.65 18.85 23.3 21.0 22.7 21.5 22.75 22.0 23.25 22.15 23.85 21.55 25.8 21.55 26.15 21.3 26.45 21.55 26.85 21.85 27.05 22.25 27.25 22.6 27.2 23.1 27.05 23.35 27.0 23.5 27.1 23.6 27.4 23.6 27.55 23.35 27.55 23.15 27.6 21.8 27.75 21.35 27.55 21.25 27.2 20.8 27.75 Q20.6 28.3 19.85 28.5 L18.45 29.0 18.25 28.9 18.2 28.65 18.2 28.6 18.45 28.35" fill="#e84a61" fill-rule="evenodd" stroke="none"/>
    <path d="M5.4 21.7 L5.2 21.5 Q4.5 20.75 4.35 19.7 4.35 18.7 5.1 17.95 L5.1 17.9 Q5.8 17.25 6.85 17.15 L7.8 17.4 Q9.0 16.5 10.5 16.0 L16.8 14.2 20.4 14.05 21.1 13.05 Q21.9 12.5 22.95 12.6 23.9 12.6 24.55 13.45 25.15 14.3 25.1 15.4 L24.75 17.45 25.45 18.8 28.4 29.15 Q30.65 34.75 24.4 36.05 L16.3 38.55 Q10.85 40.15 9.1 35.95 L8.35 34.15 5.6 24.85 Q5.2 23.15 5.4 21.7 M10.8 23.95 Q12.15 20.65 14.75 23.05 M19.9 20.75 Q21.3 17.45 23.85 19.85" ffdec:has-small-stroke="true" ffdec:original-stroke-width="0.5" fill="none" stroke="#e84a61" stroke-linecap="round" stroke-linejoin="round" stroke-width="1.0"/>
    <path d="M20.4 15.8 L20.35 15.45 Q20.1 14.3 20.6 13.15 21.15 12.25 22.4 12.0 L22.4 11.9 24.55 12.2 25.4 13.05 28.85 13.3 36.05 15.25 Q38.15 15.8 39.6 17.35 40.2 16.9 40.95 16.7 42.1 16.65 43.0 17.4 44.0 18.05 44.05 19.2 44.2 20.4 43.5 21.45 L41.9 23.3 41.75 24.95 38.6 36.85 Q37.35 43.65 30.5 41.3 L21.1 38.85 Q14.8 37.1 15.6 31.9 L15.95 29.7 18.8 19.0 Q19.35 17.15 20.4 15.8 M29.8 23.05 Q28.65 19.6 25.7 21.7 28.65 19.6 29.8 23.05 M29.25 30.15 L28.9 30.15 28.75 30.25 28.7 30.5 28.9 30.75 30.5 31.15 Q31.4 31.35 31.95 30.95 L32.55 30.65 32.55 31.05 32.85 31.5 Q33.25 32.0 34.3 32.25 L34.55 32.3 34.7 32.4 34.85 32.3 34.9 32.0 34.85 31.75 34.55 31.7 33.95 31.5 33.6 31.3 33.35 30.95 33.2 30.5 33.1 29.9 33.6 29.75 33.8 29.55 35.45 27.95 35.75 27.2 35.6 26.5 35.15 26.1 32.7 25.45 32.0 25.5 31.45 26.1 31.4 26.75 32.0 29.05 32.3 29.6 31.6 30.4 30.7 30.5 29.25 30.15 M39.85 25.1 Q38.65 21.7 35.75 23.8 38.65 21.7 39.85 25.1" fill="#f7f4d2" fill-rule="evenodd" stroke="none"/>
    <path d="M29.25 30.15 L30.7 30.5 31.6 30.4 32.3 29.6 32.0 29.05 31.4 26.75 31.45 26.1 32.0 25.5 32.7 25.45 35.15 26.1 35.6 26.5 35.75 27.2 35.45 27.95 33.8 29.55 33.6 29.75 33.1 29.9 33.2 30.5 33.35 30.95 33.6 31.3 33.95 31.5 34.55 31.7 34.85 31.75 34.9 32.0 34.85 32.3 34.7 32.4 34.55 32.3 34.3 32.25 Q33.25 32.0 32.85 31.5 L32.55 31.05 32.55 30.65 31.95 30.95 Q31.4 31.35 30.5 31.15 L28.9 30.75 28.7 30.5 28.75 30.25 28.9 30.15 29.25 30.15" fill="#e84a61" fill-rule="evenodd" stroke="none"/>
    <path d="M20.4 15.8 L20.35 15.45 Q20.1 14.3 20.6 13.15 21.15 12.25 22.4 12.0 L22.4 11.9 24.55 12.2 25.4 13.05 28.85 13.3 36.05 15.25 Q38.15 15.8 39.6 17.35 40.2 16.9 40.95 16.7 42.1 16.65 43.0 17.4 44.0 18.05 44.05 19.2 44.2 20.4 43.5 21.45 L41.9 23.3 41.75 24.95 38.6 36.85 Q37.35 43.65 30.5 41.3 L21.1 38.85 Q14.8 37.1 15.6 31.9 L15.95 29.7 18.8 19.0 Q19.35 17.15 20.4 15.8 M25.7 21.7 Q28.65 19.6 29.8 23.05 M35.75 23.8 Q38.65 21.7 39.85 25.1" ffdec:has-small-stroke="true" ffdec:original-stroke-width="0.5" fill="none" stroke="#e84a61" stroke-linecap="round" stroke-linejoin="round" stroke-width="1.0"/>
  </g>
</svg>
