<?xml version="1.0" encoding="UTF-8" standalone="no"?>
<svg xmlns:ffdec="https://www.free-decompiler.com/flash" xmlns:xlink="http://www.w3.org/1999/xlink" ffdec:objectType="shape" height="30.55px" width="40.25px" xmlns="http://www.w3.org/2000/svg">
  <g transform="matrix(1.0, 0.0, 0.0, 1.0, -4.1, -17.2)">
    <path d="M18.45 33.95 L18.2 34.2 18.2 34.25 18.25 34.5 18.45 34.6 19.85 34.1 Q20.6 33.9 20.8 33.35 L21.25 32.8 21.35 33.15 21.8 33.35 23.15 33.2 23.35 33.15 23.6 33.15 23.6 33.0 23.5 32.7 23.35 32.6 23.1 32.65 22.6 32.8 22.25 32.85 21.85 32.65 21.55 32.45 21.3 32.05 21.55 31.75 21.55 31.4 22.15 29.45 22.0 28.85 21.5 28.35 21.0 28.3 18.9 28.9 Q18.6 28.95 18.45 29.25 L18.3 29.95 18.55 30.5 20.05 31.9 20.55 32.15 20.35 33.05 19.8 33.6 18.45 33.95 M5.4 27.3 L5.2 27.1 Q4.5 26.35 4.35 25.3 4.35 24.3 5.1 23.55 L5.1 23.5 Q5.8 22.85 6.85 22.75 L7.8 23.0 Q9.0 22.1 10.5 21.6 L16.8 19.8 20.4 19.65 21.1 18.65 Q21.9 18.1 22.95 18.2 23.9 18.2 24.55 19.05 25.15 19.9 25.1 21.0 L24.75 23.05 25.45 24.4 28.4 34.75 Q30.65 40.35 24.4 41.65 L16.3 44.15 Q10.85 45.75 9.1 41.55 L8.35 39.75 5.6 30.45 Q5.2 28.75 5.4 27.3 M23.85 25.45 Q21.3 23.05 19.9 26.35 21.3 23.05 23.85 25.45 M14.75 28.65 Q12.15 26.25 10.8 29.55 12.15 26.25 14.75 28.65" fill="#f7f4d2" fill-rule="evenodd" stroke="none"/>
    <path d="M18.45 33.95 L19.8 33.6 20.35 33.05 20.55 32.15 20.05 31.9 18.55 30.5 18.3 29.95 18.45 29.25 Q18.6 28.95 18.9 28.9 L21.0 28.3 21.5 28.35 22.0 28.85 22.15 29.45 21.55 31.4 21.55 31.75 21.3 32.05 21.55 32.45 21.85 32.65 22.25 32.85 22.6 32.8 23.1 32.65 23.35 32.6 23.5 32.7 23.6 33.0 23.6 33.15 23.35 33.15 23.15 33.2 21.8 33.35 21.35 33.15 21.25 32.8 20.8 33.35 Q20.6 33.9 19.85 34.1 L18.45 34.6 18.25 34.5 18.2 34.25 18.2 34.2 18.45 33.95" fill="#e84a61" fill-rule="evenodd" stroke="none"/>
    <path d="M5.4 27.3 L5.2 27.1 Q4.5 26.35 4.35 25.3 4.35 24.3 5.1 23.55 L5.1 23.5 Q5.8 22.85 6.85 22.75 L7.8 23.0 Q9.0 22.1 10.5 21.6 L16.8 19.8 20.4 19.65 21.1 18.65 Q21.9 18.1 22.95 18.2 23.9 18.2 24.55 19.05 25.15 19.9 25.1 21.0 L24.75 23.05 25.45 24.4 28.4 34.75 Q30.65 40.35 24.4 41.65 L16.3 44.15 Q10.85 45.75 9.1 41.55 L8.35 39.75 5.6 30.45 Q5.2 28.75 5.4 27.3 M10.8 29.55 Q12.15 26.25 14.75 28.65 M19.9 26.35 Q21.3 23.05 23.85 25.45" ffdec:has-small-stroke="true" ffdec:original-stroke-width="0.5" fill="none" stroke="#e84a61" stroke-linecap="round" stroke-linejoin="round" stroke-width="1.0"/>
    <path d="M20.4 21.4 L20.35 21.05 Q20.1 19.9 20.6 18.75 21.15 17.85 22.4 17.6 L22.4 17.5 24.55 17.8 25.4 18.65 28.85 18.9 36.05 20.85 Q38.15 21.4 39.6 22.95 40.2 22.5 40.95 22.3 42.1 22.25 43.0 23.0 44.0 23.65 44.05 24.8 44.2 26.0 43.5 27.05 L41.9 28.9 41.75 30.55 38.6 42.45 Q37.35 49.25 30.5 46.9 L21.1 44.45 Q14.8 42.7 15.65 37.5 L15.95 35.3 18.8 24.6 Q19.35 22.75 20.4 21.4 M29.8 28.65 Q28.65 25.25 25.7 27.3 28.65 25.25 29.8 28.65 M29.25 35.75 L28.9 35.75 28.75 35.85 28.7 36.1 28.9 36.35 30.5 36.75 Q31.4 36.95 31.95 36.55 L32.55 36.25 32.55 36.7 32.85 37.1 Q33.25 37.6 34.3 37.85 L34.6 37.9 34.7 38.0 34.85 37.9 34.9 37.6 34.85 37.35 34.6 37.3 33.95 37.1 33.6 36.9 33.35 36.55 33.2 36.1 33.1 35.5 33.6 35.35 33.8 35.15 35.45 33.55 35.75 32.8 35.6 32.1 35.15 31.7 32.7 31.05 32.0 31.1 31.45 31.7 31.4 32.35 32.0 34.65 32.3 35.2 31.6 36.0 30.7 36.1 29.25 35.75 M39.85 30.7 Q38.65 27.3 35.75 29.4 38.65 27.3 39.85 30.7" fill="#f7f4d2" fill-rule="evenodd" stroke="none"/>
    <path d="M29.25 35.75 L30.7 36.1 31.6 36.0 32.3 35.2 32.0 34.65 31.4 32.35 31.45 31.7 32.0 31.1 32.7 31.05 35.15 31.7 35.6 32.1 35.75 32.8 35.45 33.55 33.8 35.15 33.6 35.35 33.1 35.5 33.2 36.1 33.35 36.55 33.6 36.9 33.95 37.1 34.6 37.3 34.85 37.35 34.9 37.6 34.85 37.9 34.7 38.0 34.6 37.9 34.3 37.85 Q33.25 37.6 32.85 37.1 L32.55 36.7 32.55 36.25 31.95 36.55 Q31.4 36.95 30.5 36.75 L28.9 36.35 28.7 36.1 28.75 35.85 28.9 35.75 29.25 35.75" fill="#e84a61" fill-rule="evenodd" stroke="none"/>
    <path d="M20.4 21.4 L20.35 21.05 Q20.1 19.9 20.6 18.75 21.15 17.85 22.4 17.6 L22.4 17.5 24.55 17.8 25.4 18.65 28.85 18.9 36.05 20.85 Q38.15 21.4 39.6 22.95 40.2 22.5 40.95 22.3 42.1 22.25 43.0 23.0 44.0 23.65 44.05 24.8 44.2 26.0 43.5 27.05 L41.9 28.9 41.75 30.55 38.6 42.45 Q37.35 49.25 30.5 46.9 L21.1 44.45 Q14.8 42.7 15.65 37.5 L15.95 35.3 18.8 24.6 Q19.35 22.75 20.4 21.4 M25.7 27.3 Q28.65 25.25 29.8 28.65 M35.75 29.4 Q38.65 27.3 39.85 30.7" ffdec:has-small-stroke="true" ffdec:original-stroke-width="0.5" fill="none" stroke="#e84a61" stroke-linecap="round" stroke-linejoin="round" stroke-width="1.0"/>
  </g>
</svg>
