<?xml version="1.0" encoding="UTF-8" standalone="no"?>
<svg xmlns:ffdec="https://www.free-decompiler.com/flash" xmlns:xlink="http://www.w3.org/1999/xlink" ffdec:objectType="shape" height="10.0px" width="6.45px" xmlns="http://www.w3.org/2000/svg">
  <g transform="matrix(1.0, 0.0, 0.0, 1.0, 3.25, 5.0)">
    <path d="M-0.05 5.0 L-0.65 4.75 -0.9 4.1 -0.65 3.45 Q-0.4 3.2 -0.05 3.2 L0.6 3.45 0.85 4.1 0.6 4.75 -0.05 5.0 M-1.8 -2.15 L-2.0 -1.65 Q-2.25 -1.45 -2.5 -1.45 L-3.05 -1.65 -3.25 -2.15 -3.0 -3.25 -2.4 -4.2 -1.5 -4.8 -0.4 -5.0 0.35 -5.0 1.45 -4.8 2.4 -4.2 3.0 -3.25 3.2 -2.15 3.2 -2.05 Q3.2 -1.35 2.85 -0.7 L1.9 0.35 0.95 0.95 0.75 1.15 0.7 1.4 0.5 1.9 -0.05 2.15 -0.55 1.9 -0.75 1.4 -0.5 0.45 0.15 -0.25 1.1 -0.85 Q1.45 -1.05 1.6 -1.4 L1.8 -2.05 1.8 -2.15 Q1.8 -2.75 1.35 -3.15 0.9 -3.6 0.35 -3.6 L-0.4 -3.6 -1.4 -3.15 Q-1.8 -2.75 -1.8 -2.15" fill="#e84a61" fill-rule="evenodd" stroke="none"/>
  </g>
</svg>
