<?xml version="1.0" encoding="UTF-8" standalone="no"?>
<svg xmlns:ffdec="https://www.free-decompiler.com/flash" xmlns:xlink="http://www.w3.org/1999/xlink" ffdec:objectType="shape" height="19.75px" width="19.7px" xmlns="http://www.w3.org/2000/svg">
  <g transform="matrix(1.0, 0.0, 0.0, 1.0, 9.8, 9.85)">
    <path d="M9.4 -9.6 L9.75 -9.15 9.9 -8.6 9.9 4.35 9.6 5.55 8.8 6.5 Q8.3 6.95 7.65 7.2 L6.2 7.4 4.75 7.2 3.6 6.5 2.8 5.55 Q2.5 4.95 2.5 4.35 2.5 3.7 2.8 3.15 L3.6 2.15 Q4.1 1.75 4.75 1.5 L6.2 1.25 7.45 1.45 7.45 -4.2 -2.4 -1.2 -2.4 6.8 Q-2.4 7.45 -2.7 8.0 L-3.5 9.0 -4.65 9.65 -6.1 9.9 -7.55 9.65 -8.7 9.0 -9.5 8.0 -9.8 6.8 -9.5 5.6 -8.7 4.6 -7.55 3.95 -6.1 3.7 -4.9 3.9 -4.9 -4.9 -4.65 -5.65 -4.0 -6.1 8.3 -9.8 8.85 -9.85 9.4 -9.6" fill="#e84a61" fill-rule="evenodd" stroke="none"/>
  </g>
</svg>
