<?xml version="1.0" encoding="UTF-8" standalone="no"?>
<svg xmlns:ffdec="https://www.free-decompiler.com/flash" xmlns:xlink="http://www.w3.org/1999/xlink" ffdec:objectType="shape" height="19.8px" width="21.4px" xmlns="http://www.w3.org/2000/svg">
  <g transform="matrix(1.0, 0.0, 0.0, 1.0, 9.85, 9.95)">
    <path d="M-4.9 -2.75 L-4.9 -5.0 -4.7 -5.7 -4.0 -6.2 8.4 -9.85 8.95 -9.95 9.45 -9.65 9.85 -9.25 9.95 -8.7 9.95 4.3 9.95 4.6 9.65 5.5 9.65 5.6 3.6 2.15 Q4.0 1.75 4.7 1.55 L4.8 1.45 6.3 1.25 7.5 1.35 7.5 -4.3 -2.45 -1.35 -4.9 -2.75 M-2.45 6.8 Q-2.45 7.4 -2.75 8.0 L-3.5 8.95 -4.7 9.65 -6.1 9.85 -7.6 9.65 -8.75 8.95 -9.55 8.0 -9.85 6.8 -9.55 5.6 -8.75 4.6 -7.6 3.9 -6.1 3.7 -4.9 3.8 -4.9 0.45 -2.45 1.85 -2.45 6.8" fill="#e84a61" fill-rule="evenodd" stroke="none"/>
    <path d="M9.65 5.6 L11.05 6.4 M-4.9 -2.75 L-6.85 -3.95 M-2.45 -1.35 L-4.9 -2.75 M-2.45 -1.35 L3.6 2.15 9.65 5.6" fill="none" stroke="#e84a61" stroke-linecap="round" stroke-linejoin="miter-clip" stroke-miterlimit="3.0" stroke-width="1.0"/>
  </g>
</svg>
