<?xml version="1.0" encoding="UTF-8" standalone="no"?>
<svg xmlns:ffdec="https://www.free-decompiler.com/flash" xmlns:xlink="http://www.w3.org/1999/xlink" ffdec:objectType="shape" height="22.0px" width="23.5px" xmlns="http://www.w3.org/2000/svg">
  <g transform="matrix(1.0, 0.0, 0.0, 1.0, 10.95, 11.0)">
    <path d="M-5.45 -2.95 L-5.45 -5.5 -5.25 -6.3 -4.45 -6.85 9.3 -10.9 9.95 -11.0 10.5 -10.7 10.95 -10.25 11.05 -9.6 11.05 4.85 11.05 5.2 10.7 6.15 10.7 6.3 4.0 2.4 Q4.45 2.0 5.2 1.75 5.2 1.65 5.35 1.65 L7.0 1.45 8.3 1.55 8.3 -4.75 -2.7 -1.45 -5.45 -2.95 M-2.7 7.6 Q-2.7 8.25 -3.05 8.9 -3.35 9.6 -3.9 10.0 L-5.25 10.8 -6.75 11.0 -8.4 10.8 -9.75 10.0 -10.6 8.9 Q-10.95 8.25 -10.95 7.6 -10.95 6.85 -10.6 6.3 L-9.75 5.2 Q-9.2 4.65 -8.4 4.4 L-6.75 4.2 -5.45 4.3 -5.45 0.55 -2.7 2.1 -2.7 7.6" fill="#e84a61" fill-rule="evenodd" stroke="none"/>
    <path d="M10.7 6.3 L12.05 7.15 M-5.45 -2.95 L-7.2 -4.0 M-2.7 -1.45 L-5.45 -2.95 M-2.7 -1.45 L4.0 2.4 10.7 6.3" fill="none" stroke="#e84a61" stroke-linecap="round" stroke-linejoin="miter-clip" stroke-miterlimit="3.0" stroke-width="1.0"/>
  </g>
</svg>
