<?xml version="1.0" encoding="UTF-8" standalone="no"?>
<svg xmlns:ffdec="https://www.free-decompiler.com/flash" xmlns:xlink="http://www.w3.org/1999/xlink" ffdec:objectType="shape" height="35.05px" width="32.5px" xmlns="http://www.w3.org/2000/svg">
  <g transform="matrix(1.0, 0.0, 0.0, 1.0, 16.25, 16.25)">
    <path d="M16.25 0.0 Q16.25 6.75 11.5 11.5 6.75 16.25 0.0 16.25 -6.75 16.25 -11.5 11.5 -16.25 6.75 -16.25 0.0 -16.25 -6.75 -11.5 -11.5 -6.75 -16.25 0.0 -16.25 6.75 -16.25 11.5 -11.5 16.25 -6.75 16.25 0.0" fill="#cc3d51" fill-rule="evenodd" stroke="none"/>
    <path d="M16.25 2.55 Q16.25 9.3 11.5 14.05 6.75 18.8 0.0 18.8 -6.75 18.8 -11.5 14.05 -16.25 9.3 -16.25 2.55 -16.25 -4.2 -11.5 -8.95 -6.75 -13.7 0.0 -13.7 6.75 -13.7 11.5 -8.95 16.25 -4.2 16.25 2.55" fill="#e84a61" fill-rule="evenodd" stroke="none"/>
    <path d="M10.6 2.7 L-6.35 12.45 -6.35 -7.05 10.6 2.7" fill="#f7f4d2" fill-rule="evenodd" stroke="none"/>
  </g>
</svg>
