<?xml version="1.0" encoding="UTF-8" standalone="no"?>
<svg xmlns:ffdec="https://www.free-decompiler.com/flash" xmlns:xlink="http://www.w3.org/1999/xlink" ffdec:objectType="shape" height="193.1px" width="272.8px" xmlns="http://www.w3.org/2000/svg">
  <g transform="matrix(1.0, 0.0, 0.0, 1.0, 136.4, 96.55)">
    <path d="M104.3 -49.65 L104.35 -49.65 104.35 49.8 104.3 49.8 Q98.2 49.8 93.9 54.15 89.55 58.45 89.55 64.6 L-89.6 64.6 Q-89.6 58.45 -94.0 54.15 -98.3 49.8 -104.45 49.8 L-104.45 -49.65 Q-98.3 -49.65 -94.0 -54.0 -89.6 -58.35 -89.6 -64.45 L-89.6 -64.5 89.55 -64.5 Q89.55 -58.35 93.9 -54.0 98.2 -49.65 104.3 -49.65 98.2 -49.65 93.9 -54.0 89.55 -58.35 89.55 -64.5 L-89.6 -64.5 -89.6 -64.45 Q-89.6 -58.35 -94.0 -54.0 -98.3 -49.65 -104.45 -49.65 L-104.45 49.8 Q-98.3 49.8 -94.0 54.15 -89.6 58.45 -89.6 64.6 L89.55 64.6 Q89.55 58.45 93.9 54.15 98.2 49.8 104.3 49.8 L104.35 49.8 104.35 -49.65 104.3 -49.65 M-116.4 -96.55 L116.4 -96.55 Q116.4 -76.55 136.4 -76.55 L136.4 76.55 Q116.4 76.55 116.4 96.55 L-116.4 96.55 Q-116.4 76.55 -136.4 76.55 L-136.4 -76.55 Q-116.4 -76.55 -116.4 -96.55" fill="#f7f4d2" fill-rule="evenodd" stroke="none"/>
    <path d="M104.3 -49.65 Q98.2 -49.65 93.9 -54.0 89.55 -58.35 89.55 -64.5 L-89.6 -64.5 -89.6 -64.45 Q-89.6 -58.35 -94.0 -54.0 -98.3 -49.65 -104.45 -49.65 L-104.45 49.8 Q-98.3 49.8 -94.0 54.15 -89.6 58.45 -89.6 64.6 L89.55 64.6 Q89.55 58.45 93.9 54.15 98.2 49.8 104.3 49.8 L104.35 49.8 104.35 -49.65 104.3 -49.65 Z" fill="none" stroke="#dad596" stroke-linecap="butt" stroke-linejoin="miter-clip" stroke-miterlimit="3.0" stroke-width="5.0"/>
  </g>
</svg>
