<?xml version="1.0" encoding="UTF-8" standalone="no"?>
<svg xmlns:ffdec="https://www.free-decompiler.com/flash" xmlns:xlink="http://www.w3.org/1999/xlink" ffdec:objectType="shape" height="40.0px" width="199.6px" xmlns="http://www.w3.org/2000/svg">
  <g transform="matrix(1.0, 0.0, 0.0, 1.0, 0.0, 0.0)">
    <path d="M0.0 25.15 Q0.2 33.55 9.6 33.55 L190.05 33.55 Q199.45 33.55 199.6 25.15 L199.6 31.2 Q199.6 40.0 190.05 40.0 L9.6 40.0 Q0.0 40.0 0.0 31.2 L0.0 25.15" fill="#cc3d51" fill-rule="evenodd" stroke="none"/>
    <path d="M0.0 25.15 L0.0 8.8 Q0.0 0.0 9.6 0.0 L190.05 0.0 Q199.6 0.0 199.6 8.8 L199.6 25.15 Q199.45 33.55 190.05 33.55 L9.6 33.55 Q0.2 33.55 0.0 25.15" fill="#e84a61" fill-rule="evenodd" stroke="none"/>
  </g>
</svg>
