<?xml version="1.0" encoding="UTF-8" standalone="no"?>
<svg xmlns:ffdec="https://www.free-decompiler.com/flash" xmlns:xlink="http://www.w3.org/1999/xlink" ffdec:objectType="shape" height="22.25px" width="18.65px" xmlns="http://www.w3.org/2000/svg">
  <g transform="matrix(1.0, 0.0, 0.0, 1.0, -12.35, -12.35)">
    <path d="M12.85 12.85 L18.05 15.6 18.05 34.6 12.85 31.7 12.85 12.85" fill="#f7f4d2" fill-rule="evenodd" stroke="none"/>
    <path d="M24.95 26.45 L24.95 31.7 12.85 31.7 12.85 12.85 24.95 12.85 24.95 16.9" fill="none" stroke="#f7f4d2" stroke-linecap="round" stroke-linejoin="round" stroke-width="1.0"/>
    <path d="M25.95 19.6 L25.7 19.5 25.4 19.6 25.3 19.65 Q25.15 19.8 25.15 20.0 L25.3 20.4 25.7 20.55 26.05 20.4 26.2 20.0 26.05 19.65 25.95 19.6 M29.7 18.0 Q30.05 18.65 30.05 19.45 L30.05 24.05 30.0 24.4 Q29.9 25.45 29.4 26.1 L29.35 26.25 Q29.4 27.05 30.4 26.55 L31.0 29.5 30.2 28.8 29.65 28.9 Q28.05 29.25 27.3 28.6 L26.9 28.05 26.7 27.1 23.35 27.1 Q22.5 28.55 22.85 29.85 L19.3 30.55 20.2 29.9 20.2 29.85 Q19.9 28.55 20.15 27.3 L19.7 26.9 Q19.4 26.5 19.7 25.95 L19.85 25.65 20.25 24.6 20.2 24.25 20.15 19.35 20.25 18.6 19.9 17.7 Q19.75 17.25 19.95 16.8 20.1 16.35 20.55 16.2 L21.45 16.15 21.9 16.5 Q22.65 16.05 23.55 16.05 L26.65 16.05 28.0 16.35 28.45 16.1 29.35 16.25 29.9 16.95 29.8 17.85 29.7 18.0 M24.05 22.75 L23.1 22.6 22.85 22.2 23.05 22.05 23.55 21.2 23.6 20.9 23.45 20.65 23.15 20.5 22.2 20.5 Q22.0 20.5 21.9 20.65 L21.75 20.9 21.8 21.25 22.3 22.05 22.5 22.25 22.35 22.65 21.7 22.8 21.6 22.8 21.55 22.9 21.6 23.05 21.7 23.1 21.85 23.1 22.6 22.8 22.7 22.6 22.85 22.8 24.1 23.05 24.2 23.0 24.25 22.9 24.15 22.8 24.05 22.75 M20.85 19.65 L20.7 20.0 20.85 20.4 21.2 20.55 21.55 20.4 21.7 20.0 21.55 19.65 21.55 19.6 21.2 19.5 20.85 19.6 20.85 19.65" fill="#f7f4d2" fill-rule="evenodd" stroke="none"/>
  </g>
</svg>
