<?xml version="1.0" encoding="UTF-8" standalone="no"?>
<svg xmlns:ffdec="https://www.free-decompiler.com/flash" xmlns:xlink="http://www.w3.org/1999/xlink" ffdec:objectType="shape" height="49.0px" width="48.0px" xmlns="http://www.w3.org/2000/svg">
  <g transform="matrix(1.0, 0.0, 0.0, 1.0, 18.3, 24.4)">
    <path d="M20.8 0.65 Q20.8 8.75 15.05 14.45 9.35 20.2 1.25 20.2 -6.85 20.2 -12.6 14.45 -18.3 8.75 -18.3 0.65 -18.3 -7.45 -12.6 -13.2 -6.85 -18.9 1.25 -18.9 9.35 -18.9 15.05 -13.2 20.8 -7.45 20.8 0.65" fill="#7ca0aa" fill-rule="evenodd" stroke="none"/>
    <path d="M-1.2 8.55 Q-1.2 7.7 -0.55 7.1 0.05 6.5 0.9 6.5 1.8 6.5 2.4 7.1 3.0 7.7 3.0 8.55 3.0 9.45 2.4 10.05 1.8 10.75 0.9 10.75 0.05 10.75 -0.55 10.05 -1.2 9.45 -1.2 8.55 M1.1 -10.85 Q3.2 -10.75 4.65 -9.2 6.15 -7.7 6.15 -5.6 L6.15 -2.3 Q6.15 -0.7 5.25 0.6 4.4 1.95 3.0 2.55 L3.0 4.85 -1.2 4.85 -1.2 -1.3 0.9 -1.3 Q1.35 -1.3 1.65 -1.6 L1.95 -2.3 1.95 -5.6 1.65 -6.35 0.9 -6.65 0.2 -6.4 0.15 -6.35 0.05 -6.25 0.05 -6.2 0.0 -6.1 0.0 -6.05 -0.1 -5.95 -0.1 -5.9 -0.15 -5.8 -0.15 -3.4 -4.4 -3.4 -4.4 -5.6 Q-4.4 -7.75 -2.9 -9.25 -1.3 -10.85 0.9 -10.85 L1.1 -10.85" fill="#26251d" fill-rule="evenodd" stroke="none"/>
    <path d="M27.7 22.6 L27.7 -22.4" fill="none" stroke="#7ca0aa" stroke-linecap="square" stroke-linejoin="miter-clip" stroke-miterlimit="3.0" stroke-width="3.0"/>
  </g>
</svg>
