<?xml version="1.0" encoding="UTF-8" standalone="no"?>
<svg xmlns:ffdec="https://www.free-decompiler.com/flash" xmlns:xlink="http://www.w3.org/1999/xlink" ffdec:objectType="shape" height="15.4px" width="15.4px" xmlns="http://www.w3.org/2000/svg">
  <g transform="matrix(1.0, 0.0, 0.0, 1.0, 2.0, 2.0)">
    <path d="M11.4 5.7 Q11.4 8.05 9.7 9.7 8.05 11.4 5.7 11.4 3.35 11.4 1.65 9.7 0.0 8.05 0.0 5.7 0.0 3.35 1.65 1.65 3.35 0.0 5.7 0.0 8.05 0.0 9.7 1.65 11.4 3.35 11.4 5.7" fill="#7ca0aa" fill-rule="evenodd" stroke="none"/>
    <path d="M11.4 5.7 Q11.4 8.05 9.7 9.7 8.05 11.4 5.7 11.4 3.35 11.4 1.65 9.7 0.0 8.05 0.0 5.7 0.0 3.35 1.65 1.65 3.35 0.0 5.7 0.0 8.05 0.0 9.7 1.65 11.4 3.35 11.4 5.7 Z" fill="none" stroke="#7ca0aa" stroke-linecap="square" stroke-linejoin="miter-clip" stroke-miterlimit="3.0" stroke-width="3.0"/>
  </g>
</svg>
