<?xml version="1.0" encoding="UTF-8" standalone="no"?>
<svg xmlns:ffdec="https://www.free-decompiler.com/flash" xmlns:xlink="http://www.w3.org/1999/xlink" ffdec:objectType="shape" height="49.0px" width="49.0px" xmlns="http://www.w3.org/2000/svg">
  <g transform="matrix(1.0, 0.0, 0.0, 1.0, 24.5, 24.5)">
    <path d="M0.0 -24.5 Q10.2 -24.5 17.35 -17.35 24.5 -10.2 24.5 0.0 24.5 10.15 17.35 17.3 L17.3 17.35 Q10.15 24.5 0.0 24.5 -10.2 24.5 -17.35 17.35 -24.5 10.2 -24.5 0.0 -24.5 -10.15 -17.35 -17.35 -10.15 -24.5 0.0 -24.5 M14.5 -14.5 Q8.5 -20.5 0.0 -20.5 -8.5 -20.5 -14.5 -14.55 L-14.55 -14.5 Q-20.5 -8.5 -20.5 0.0 -20.5 8.5 -14.5 14.5 -8.5 20.5 0.0 20.5 8.5 20.5 14.5 14.5 20.5 8.5 20.5 0.0 20.5 -8.5 14.5 -14.5" fill="#ef6421" fill-rule="evenodd" stroke="none"/>
    <path d="M14.5 -14.5 Q20.5 -8.5 20.5 0.0 20.5 8.5 14.5 14.5 8.5 20.5 0.0 20.5 -8.5 20.5 -14.5 14.5 -20.5 8.5 -20.5 0.0 -20.5 -8.5 -14.55 -14.5 L-14.5 -14.55 Q-8.5 -20.5 0.0 -20.5 8.5 -20.5 14.5 -14.5" fill="#f49853" fill-opacity="0.4" fill-rule="evenodd" stroke="none"/>
    <path d="M1.5 -6.2 L4.9 -6.2 Q5.95 -6.2 6.7 -5.55 7.4 -4.85 7.4 -3.95 7.4 -3.0 6.7 -2.35 6.15 -1.85 5.4 -1.7 L5.3 -1.7 4.9 -1.65 -4.9 -1.65 -5.4 -1.7 -5.5 -1.7 Q-6.15 -1.85 -6.65 -2.35 -7.4 -3.0 -7.4 -3.95 -7.4 -4.85 -6.65 -5.55 -5.95 -6.2 -4.9 -6.2 L-1.55 -6.2 -1.5 -6.05 1.5 -6.2" fill="#664450" fill-rule="evenodd" stroke="none"/>
    <path d="M-1.55 -6.2 Q-1.85 -7.4 -3.9 -8.75 L-2.25 -11.25 Q1.45 -8.85 1.5 -6.2 L-1.5 -6.05 -1.55 -6.2" fill="#78534d" fill-rule="evenodd" stroke="none"/>
    <path d="M5.4 -1.7 L5.6 0.7 5.6 1.5 5.2 4.1 Q4.65 6.05 3.45 7.5 2.1 9.05 0.0 10.0 -6.6 7.0 -5.4 -1.7 L-4.9 -1.65 4.9 -1.65 5.3 -1.7 5.4 -1.7 M3.95 3.25 L3.4 2.75 Q3.0 2.6 2.65 2.75 2.25 2.9 1.9 4.45 L0.7 7.9 1.4 7.7 Q3.15 6.25 4.0 4.0 L3.95 3.25" fill="url(#gradient0)" fill-rule="evenodd" stroke="none"/>
    <path d="M3.95 3.25 L4.0 4.0 Q3.15 6.25 1.4 7.7 L0.7 7.9 1.9 4.45 Q2.25 2.9 2.65 2.75 3.0 2.6 3.4 2.75 L3.95 3.25" fill="#ef8d34" fill-rule="evenodd" stroke="none"/>
  </g>
  <defs>
    <linearGradient gradientTransform="matrix(-0.0068, 0.0, 0.0, 0.0071, 0.0, 4.15)" gradientUnits="userSpaceOnUse" id="gradient0" spreadMethod="pad" x1="-819.2" x2="819.2">
      <stop offset="0.0" stop-color="#bf4d28"/>
      <stop offset="1.0" stop-color="#745450"/>
    </linearGradient>
  </defs>
</svg>
