<?xml version="1.0" encoding="UTF-8" standalone="no"?>
<svg xmlns:ffdec="https://www.free-decompiler.com/flash" xmlns:xlink="http://www.w3.org/1999/xlink" ffdec:objectType="shape" height="66.8px" width="229.3px" xmlns="http://www.w3.org/2000/svg">
  <g transform="matrix(1.0, 0.0, 0.0, 1.0, 25.5, 33.4)">
    <path d="M203.8 -33.4 L203.8 33.4 74.75 33.4 74.75 -33.4 203.8 -33.4" fill="#dad596" fill-rule="evenodd" stroke="none"/>
    <path d="M-15.75 -33.4 L74.75 -33.4 74.75 33.4 -15.75 33.4 Q-15.75 23.65 -25.5 23.65 L-25.5 -23.65 Q-15.75 -23.65 -15.75 -33.4" fill="#dad596" fill-rule="evenodd" stroke="none"/>
    <path d="M44.8 0.65 Q44.8 8.75 39.05 14.45 33.35 20.2 25.25 20.2 17.15 20.2 11.4 14.45 5.7 8.75 5.7 0.65 5.7 -7.45 11.4 -13.2 17.15 -18.9 25.25 -18.9 33.35 -18.9 39.05 -13.2 44.8 -7.45 44.8 0.65" fill="#f7f4d2" fill-rule="evenodd" stroke="none"/>
    <path d="M143.15 0.65 Q143.15 8.75 137.4 14.45 131.7 20.2 123.6 20.2 115.5 20.2 109.75 14.45 104.05 8.75 104.05 0.65 104.05 -7.45 109.75 -13.2 115.5 -18.9 123.6 -18.9 131.7 -18.9 137.4 -13.2 143.15 -7.45 143.15 0.65" fill="#f7f4d2" fill-rule="evenodd" stroke="none"/>
  </g>
</svg>
