<?xml version="1.0" encoding="UTF-8" standalone="no"?>
<svg xmlns:ffdec="https://www.free-decompiler.com/flash" xmlns:xlink="http://www.w3.org/1999/xlink" ffdec:objectType="shape" height="49.0px" width="47.7px" xmlns="http://www.w3.org/2000/svg">
  <g transform="matrix(1.0, 0.0, 0.0, 1.0, -123.7, 24.4)">
    <path d="M171.4 0.65 Q171.4 8.75 165.65 14.45 159.95 20.2 151.85 20.2 143.75 20.2 138.0 14.45 132.3 8.75 132.3 0.65 132.3 -7.45 138.0 -13.2 143.75 -18.9 151.85 -18.9 159.95 -18.9 165.65 -13.2 171.4 -7.45 171.4 0.65" fill="#7ca0aa" fill-rule="evenodd" stroke="none"/>
    <path d="M149.4 8.55 Q149.4 7.7 150.05 7.1 150.65 6.5 151.5 6.5 152.4 6.5 153.0 7.1 153.6 7.7 153.6 8.55 153.6 9.45 153.0 10.05 152.4 10.75 151.5 10.75 150.65 10.75 150.05 10.05 149.4 9.45 149.4 8.55 M151.7 -10.85 Q153.8 -10.75 155.25 -9.2 156.75 -7.7 156.75 -5.6 L156.75 -2.3 Q156.75 -0.7 155.85 0.6 155.0 1.95 153.6 2.55 L153.6 4.85 149.4 4.85 149.4 -1.3 151.5 -1.3 Q151.95 -1.3 152.25 -1.6 L152.55 -2.3 152.55 -5.6 152.25 -6.35 151.5 -6.65 150.8 -6.4 150.75 -6.35 150.65 -6.25 150.65 -6.2 150.6 -6.1 150.6 -6.05 150.5 -5.95 150.5 -5.9 150.45 -5.8 150.45 -3.4 146.2 -3.4 146.2 -5.6 Q146.2 -7.75 147.75 -9.25 149.3 -10.85 151.5 -10.85 L151.7 -10.85" fill="#26251d" fill-rule="evenodd" stroke="none"/>
    <path d="M125.7 22.6 L125.7 -22.4" fill="none" stroke="#7ca0aa" stroke-linecap="square" stroke-linejoin="miter-clip" stroke-miterlimit="3.0" stroke-width="3.0"/>
  </g>
</svg>
