<?xml version="1.0" encoding="UTF-8" standalone="no"?>
<svg xmlns:ffdec="https://www.free-decompiler.com/flash" xmlns:xlink="http://www.w3.org/1999/xlink" ffdec:objectType="shape" height="66.8px" width="229.3px" xmlns="http://www.w3.org/2000/svg">
  <g transform="matrix(1.0, 0.0, 0.0, 1.0, 50.25, 33.4)">
    <path d="M-50.25 -33.4 L78.8 -33.4 78.8 33.4 -50.25 33.4 -50.25 -33.4" fill="#dad596" fill-rule="evenodd" stroke="none"/>
    <path d="M169.3 -33.4 Q169.3 -23.65 179.05 -23.65 L179.05 23.65 Q169.3 23.65 169.3 33.4 L78.8 33.4 78.8 -33.4 169.3 -33.4" fill="#26251d" fill-rule="evenodd" stroke="none"/>
    <path d="M49.4 0.65 Q49.4 8.75 43.65 14.45 37.95 20.2 29.85 20.2 21.75 20.2 16.0 14.45 10.3 8.75 10.3 0.65 10.3 -7.45 16.0 -13.2 21.75 -18.9 29.85 -18.9 37.95 -18.9 43.65 -13.2 49.4 -7.45 49.4 0.65" fill="#f7f4d2" fill-rule="evenodd" stroke="none"/>
    <path d="M147.4 0.65 Q147.4 8.75 141.65 14.45 135.95 20.2 127.85 20.2 119.75 20.2 114.0 14.45 108.3 8.75 108.3 0.65 108.3 -7.45 114.0 -13.2 119.75 -18.9 127.85 -18.9 135.95 -18.9 141.65 -13.2 147.4 -7.45 147.4 0.65" fill="#dad596" fill-rule="evenodd" stroke="none"/>
  </g>
</svg>
