<?xml version="1.0" encoding="UTF-8" standalone="no"?>
<svg xmlns:ffdec="https://www.free-decompiler.com/flash" xmlns:xlink="http://www.w3.org/1999/xlink" ffdec:objectType="shape" height="556.1px" width="314.45px" xmlns="http://www.w3.org/2000/svg">
  <g transform="matrix(1.0, 0.0, 0.0, 1.0, 157.55, 278.05)">
    <path d="M-157.55 -254.05 Q-133.55 -254.05 -133.55 -278.05 L132.9 -278.05 Q132.9 -254.05 156.9 -254.05 L156.9 254.05 Q139.1 254.05 134.55 267.25 132.9 271.9 132.9 278.05 L-133.55 278.05 Q-133.55 271.9 -135.1 267.25 -139.75 254.05 -157.55 254.05 L-157.55 -254.05 M-116.3 247.95 Q-116.3 246.7 -116.45 245.55 -117.2 240.95 -120.7 237.5 -122.65 235.5 -125.0 234.45 -126.8 233.65 -128.8 233.35 L-128.8 -233.35 Q-124.15 -234.05 -120.7 -237.55 -117.2 -241.0 -116.45 -245.6 L115.9 -245.6 Q116.6 -241.0 120.1 -237.55 123.5 -234.1 128.1 -233.35 123.5 -234.1 120.1 -237.55 116.6 -241.0 115.9 -245.6 L-116.45 -245.6 Q-117.2 -241.0 -120.7 -237.55 -124.15 -234.05 -128.8 -233.35 L-128.8 233.35 Q-126.8 233.65 -125.0 234.45 -122.65 235.5 -120.7 237.5 -117.2 240.95 -116.45 245.55 L115.9 245.55 Q116.6 240.95 120.1 237.5 122.05 235.5 124.4 234.45 126.15 233.65 128.1 233.35 L128.1 -233.35 130.55 -233.2 128.1 -233.35 128.1 233.35 Q126.15 233.65 124.4 234.45 122.05 235.5 120.1 237.5 116.6 240.95 115.9 245.55 L-116.45 245.55 Q-116.3 246.7 -116.3 247.95 M-128.8 233.35 L-131.15 233.15 -128.8 233.35 M-116.3 -248.0 Q-116.3 -246.75 -116.45 -245.6 -116.3 -246.75 -116.3 -248.0 M-128.8 -233.35 L-131.15 -233.2 -128.8 -233.35 M115.7 247.95 L115.9 245.55 115.7 247.95 M128.1 233.35 L130.55 233.15 128.1 233.35 M115.7 -248.0 L115.9 -245.6 115.7 -248.0" fill="#f7f4d2" fill-rule="evenodd" stroke="none"/>
    <path d="M128.1 -233.35 Q123.5 -234.1 120.1 -237.55 116.6 -241.0 115.9 -245.6 L-116.45 -245.6 Q-117.2 -241.0 -120.7 -237.55 -124.15 -234.05 -128.8 -233.35 L-128.8 233.35 Q-126.8 233.65 -125.0 234.45 -122.65 235.5 -120.7 237.5 -117.2 240.95 -116.45 245.55 L115.9 245.55 Q116.6 240.95 120.1 237.5 122.05 235.5 124.4 234.45 126.15 233.65 128.1 233.35 L128.1 -233.35 130.55 -233.2 M115.9 -245.6 L115.7 -248.0 M130.55 233.15 L128.1 233.35 M115.9 245.55 L115.7 247.95 M-131.15 -233.2 L-128.8 -233.35 M-116.45 -245.6 Q-116.3 -246.75 -116.3 -248.0 M-131.15 233.15 L-128.8 233.35 M-116.45 245.55 Q-116.3 246.7 -116.3 247.95" fill="none" stroke="#dad596" stroke-linecap="butt" stroke-linejoin="miter-clip" stroke-miterlimit="3.0" stroke-width="5.0"/>
  </g>
</svg>
