<?xml version="1.0" encoding="UTF-8" standalone="no"?>
<svg xmlns:ffdec="https://www.free-decompiler.com/flash" xmlns:xlink="http://www.w3.org/1999/xlink" ffdec:objectType="shape" height="441.55px" width="272.8px" xmlns="http://www.w3.org/2000/svg">
  <g transform="matrix(1.0, 0.0, 0.0, 1.0, 136.4, 220.8)">
    <path d="M-116.4 -220.8 L116.4 -220.8 Q116.4 -200.8 136.4 -200.8 L136.4 200.75 Q116.4 200.75 116.4 220.75 L-116.4 220.75 Q-116.4 200.75 -136.4 200.75 L-136.4 -200.8 Q-116.4 -200.8 -116.4 -220.8 M104.3 -173.9 L104.35 -173.9 104.35 174.0 104.3 174.0 Q98.2 174.0 93.9 178.35 89.55 182.65 89.55 188.8 L-89.6 188.8 Q-89.6 182.65 -94.0 178.35 -98.3 174.0 -104.45 174.0 L-104.45 -173.9 Q-98.3 -173.9 -94.0 -178.25 -89.6 -182.6 -89.6 -188.7 L-89.6 -188.75 89.55 -188.75 Q89.55 -182.6 93.9 -178.25 98.2 -173.9 104.3 -173.9 98.2 -173.9 93.9 -178.25 89.55 -182.6 89.55 -188.75 L-89.6 -188.75 -89.6 -188.7 Q-89.6 -182.6 -94.0 -178.25 -98.3 -173.9 -104.45 -173.9 L-104.45 174.0 Q-98.3 174.0 -94.0 178.35 -89.6 182.65 -89.6 188.8 L89.55 188.8 Q89.55 182.65 93.9 178.35 98.2 174.0 104.3 174.0 L104.35 174.0 104.35 -173.9 104.3 -173.9" fill="#f7f4d2" fill-rule="evenodd" stroke="none"/>
    <path d="M104.3 -173.9 Q98.2 -173.9 93.9 -178.25 89.55 -182.6 89.55 -188.75 L-89.6 -188.75 -89.6 -188.7 Q-89.6 -182.6 -94.0 -178.25 -98.3 -173.9 -104.45 -173.9 L-104.45 174.0 Q-98.3 174.0 -94.0 178.35 -89.6 182.65 -89.6 188.8 L89.55 188.8 Q89.55 182.65 93.9 178.35 98.2 174.0 104.3 174.0 L104.35 174.0 104.35 -173.9 104.3 -173.9 Z" fill="none" stroke="#dad596" stroke-linecap="butt" stroke-linejoin="miter-clip" stroke-miterlimit="3.0" stroke-width="5.0"/>
  </g>
</svg>
