<?xml version="1.0" encoding="UTF-8" standalone="no"?>
<svg xmlns:ffdec="https://www.free-decompiler.com/flash" xmlns:xlink="http://www.w3.org/1999/xlink" ffdec:objectType="shape" height="18.65px" width="24.7px" xmlns="http://www.w3.org/2000/svg">
  <g transform="matrix(1.0, 0.0, 0.0, 1.0, -8.15, -13.05)">
    <path d="M19.75 20.05 L17.95 20.35 Q17.25 20.55 17.55 21.3 L17.8 21.55 19.85 21.65 19.75 20.05 M11.25 16.2 L11.0 16.3 10.7 16.45 Q10.4 16.8 10.55 17.3 L10.6 17.45 10.85 17.65 19.75 17.75 19.85 16.2 11.25 16.2 M20.5 29.35 L23.9 29.15 24.2 28.85 24.2 28.35 23.9 28.05 20.5 27.85 20.05 28.1 Q19.65 28.5 19.85 29.05 L20.5 29.35 M19.75 23.95 Q19.1 24.0 19.0 24.75 L19.0 24.85 19.15 25.3 19.6 25.45 22.85 25.45 23.35 25.2 Q23.7 24.85 23.45 24.45 L23.1 24.15 19.75 23.95 M23.6 13.1 Q26.25 12.9 28.6 14.15 30.8 15.3 31.95 17.45 32.7 18.8 32.75 20.45 L32.85 23.6 Q32.9 25.15 32.2 26.7 31.6 28.2 30.5 29.3 28.45 31.35 25.6 31.65 L20.5 31.7 19.35 31.45 Q17.9 30.8 17.5 29.15 L17.45 28.55 Q17.45 27.8 17.85 27.15 17.25 26.7 17.0 26.1 L16.85 25.75 Q16.5 24.7 16.85 23.6 15.85 23.15 15.45 22.15 L15.25 21.75 Q15.0 20.95 15.25 20.05 L10.6 20.05 Q9.9 19.9 9.25 19.4 8.15 18.45 8.15 17.0 8.1 15.65 9.1 14.85 L9.55 14.45 10.6 13.95 21.3 13.9 21.8 13.6 Q22.65 13.1 23.6 13.1 M22.1 17.0 L22.2 21.05 22.4 21.55 22.55 21.6 23.1 21.5 23.4 21.15 23.6 18.95 Q23.65 18.6 23.85 18.35 24.5 17.45 25.4 18.0 25.85 18.2 25.85 18.7 L25.95 20.85 Q25.95 21.9 25.3 22.8 26.45 24.35 25.55 26.15 26.85 27.3 26.65 29.05 28.6 28.4 29.7 26.6 30.4 25.45 30.5 24.05 L30.55 21.2 Q30.5 19.5 29.6 18.05 28.85 16.8 27.55 16.2 25.65 15.25 23.6 15.5 L23.05 15.6 Q22.15 16.0 22.1 17.0" fill="#f7f4d2" fill-rule="evenodd" stroke="none"/>
  </g>
</svg>
