<?xml version="1.0" encoding="UTF-8" standalone="no"?>
<svg xmlns:ffdec="https://www.free-decompiler.com/flash" xmlns:xlink="http://www.w3.org/1999/xlink" ffdec:objectType="shape" height="239.0px" width="112.4px" xmlns="http://www.w3.org/2000/svg">
  <g transform="matrix(1.0, 0.0, 0.0, 1.0, 97.4, 97.7)">
    <path d="M-32.15 85.5 L-33.7 81.8 Q-34.35 80.1 -33.6 78.4 -33.05 76.75 -31.3 76.15 L-27.85 76.0 Q-26.85 76.5 -26.15 77.35 L-25.6 78.45 -24.6 81.05 Q-25.65 81.3 -26.65 81.9 L-27.35 79.9 Q-27.55 79.15 -28.2 78.8 L-28.5 78.65 Q-29.3 78.3 -30.2 78.65 -31.0 79.05 -31.35 79.8 -31.7 80.75 -31.4 81.55 L-30.0 84.55 -31.0 86.15 -31.6 86.85 -32.15 85.5" fill="url(#gradient0)" fill-rule="evenodd" stroke="none"/>
    <path d="M-26.15 77.35 Q-23.4 75.7 -19.85 75.7 L-16.6 75.7 -16.0 75.7 -16.0 92.15 -16.6 91.8 -16.6 75.7 -16.6 91.8 -18.15 91.2 -19.85 90.95 -22.05 90.95 Q-23.9 90.95 -25.3 91.85 L-25.1 91.85 -26.4 92.85 -27.1 93.7 Q-28.25 95.35 -28.25 97.35 L-28.25 98.5 Q-28.25 99.9 -27.7 101.1 L-27.55 101.35 -26.4 102.9 Q-24.5 104.8 -21.95 104.8 L-19.6 104.8 Q-17.95 104.8 -16.6 104.1 L-16.0 103.65 -16.0 105.2 -16.6 105.55 Q-18.35 106.7 -18.4 108.0 L-18.4 108.1 Q-18.4 109.85 -17.2 111.05 L-16.6 111.55 -16.6 117.05 -16.6 111.55 -16.0 111.9 -16.0 117.05 -16.6 117.05 -22.05 116.95 -23.95 116.6 -26.15 115.9 Q-31.55 113.65 -32.35 106.95 L-32.5 88.0 -32.15 85.5 -31.6 86.85 -31.0 86.15 -30.0 84.55 Q-28.6 82.75 -26.65 81.9 -25.65 81.3 -24.6 81.05 L-25.6 78.45 -26.15 77.35 M-16.6 104.1 L-16.6 105.55 -16.6 104.1 M-29.9 88.95 L-30.0 89.1 Q-30.6 89.65 -30.6 90.45 -30.6 91.3 -30.0 91.85 -29.45 92.4 -28.6 92.4 -27.8 92.4 -27.25 91.85 -26.65 91.3 -26.65 90.45 -26.65 89.65 -27.25 89.1 L-27.35 88.95 Q-27.95 88.5 -28.6 88.5 -29.3 88.5 -29.9 88.95" fill="url(#gradient1)" fill-rule="evenodd" stroke="none"/>
    <path d="M-30.0 84.55 L-31.4 81.55 Q-31.7 80.75 -31.35 79.8 -31.0 79.05 -30.2 78.65 -29.3 78.3 -28.5 78.65 L-28.2 78.8 Q-27.55 79.15 -27.35 79.9 L-26.65 81.9 Q-28.6 82.75 -30.0 84.55 M-83.9 82.05 L-82.85 80.25 Q-82.5 79.4 -81.6 79.15 L-80.6 79.15 -79.9 79.4 Q-79.15 79.9 -78.9 80.75 L-78.85 80.85 Q-78.65 81.75 -79.1 82.45 L-80.9 85.15 Q-82.05 83.25 -83.9 82.05" fill="#e34a48" fill-rule="evenodd" stroke="none"/>
    <path d="M-29.9 88.95 Q-29.3 88.5 -28.6 88.5 -27.95 88.5 -27.35 88.95 L-27.25 89.1 Q-26.65 89.65 -26.65 90.45 -26.65 91.3 -27.25 91.85 -27.8 92.4 -28.6 92.4 -29.45 92.4 -30.0 91.85 -30.6 91.3 -30.6 90.45 -30.6 89.65 -30.0 89.1 L-29.9 88.95 M-17.9 100.7 L-17.5 100.8 -17.25 101.2 -17.4 101.6 -17.7 101.85 Q-21.1 102.3 -22.35 100.9 L-23.0 100.15 -23.4 100.8 Q-24.2 102.0 -26.2 101.95 L-26.8 101.95 -27.15 101.75 -27.3 101.35 -27.1 100.9 -27.05 100.9 -26.65 100.8 Q-24.95 100.95 -24.35 100.25 L-23.75 98.8 -24.6 98.1 -26.4 95.0 -26.6 93.8 Q-26.55 93.2 -26.05 92.8 -25.6 92.35 -24.95 92.35 L-21.3 92.35 Q-20.65 92.35 -20.2 92.8 L-19.6 93.8 Q-19.55 94.4 -19.8 94.95 L-21.6 98.05 -22.35 98.75 -21.55 100.15 Q-20.55 101.0 -17.9 100.7 M-91.15 89.45 L-90.85 89.7 Q-90.25 90.3 -90.25 91.1 -90.25 91.9 -90.85 92.5 -91.4 93.05 -92.2 93.05 -93.05 93.05 -93.6 92.5 -94.2 91.9 -94.2 91.1 -94.2 90.3 -93.6 89.7 L-93.3 89.45 Q-92.85 89.15 -92.2 89.15 -91.6 89.15 -91.15 89.45" fill="#511a38" fill-rule="evenodd" stroke="none"/>
    <path d="M-16.6 91.8 L-16.0 92.15 -16.0 103.65 -16.6 104.1 Q-17.95 104.8 -19.6 104.8 L-21.95 104.8 Q-24.5 104.8 -26.4 102.9 L-27.55 101.35 -27.7 101.1 Q-28.25 99.9 -28.25 98.5 L-28.25 97.35 Q-28.25 95.35 -27.1 93.7 L-26.4 92.85 -25.1 91.85 -25.3 91.85 Q-23.9 90.95 -22.05 90.95 L-19.85 90.95 -18.15 91.2 -16.6 91.8 -16.6 104.1 -16.6 91.8 M-17.9 100.7 Q-20.55 101.0 -21.55 100.15 L-22.35 98.75 -21.6 98.05 -19.8 94.95 Q-19.55 94.4 -19.6 93.8 L-20.2 92.8 Q-20.65 92.35 -21.3 92.35 L-24.95 92.35 Q-25.6 92.35 -26.05 92.8 -26.55 93.2 -26.6 93.8 L-26.4 95.0 -24.6 98.1 -23.75 98.8 -24.35 100.25 Q-24.95 100.95 -26.65 100.8 L-27.05 100.9 -27.1 100.9 -27.3 101.35 -27.15 101.75 -26.8 101.95 -26.2 101.95 Q-24.2 102.0 -23.4 100.8 L-23.0 100.15 -22.35 100.9 Q-21.1 102.3 -17.7 101.85 L-17.4 101.6 -17.25 101.2 -17.5 100.8 -17.9 100.7 M-96.4 92.8 L-95.55 93.5 Q-93.65 95.4 -93.65 98.0 L-93.65 99.1 Q-93.65 101.7 -95.55 103.55 L-96.4 104.3 -96.4 92.8" fill="#f67065" fill-rule="evenodd" stroke="none"/>
    <path d="M-96.4 76.3 L-88.55 76.3 Q-85.85 76.3 -83.5 77.35 L-84.4 78.55 -85.8 81.0 Q-84.75 81.35 -83.9 82.05 -82.05 83.25 -80.9 85.15 L-79.7 87.7 -77.15 83.45 Q-75.95 86.0 -75.95 88.95 L-75.95 106.15 -76.35 109.55 Q-76.6 107.35 -76.35 105.2 L-84.2 107.9 Q-82.2 106.0 -81.0 103.4 -78.85 98.75 -78.85 97.1 L-79.0 95.95 -79.5 94.9 -79.6 94.8 -79.65 94.7 -80.1 94.2 Q-81.3 93.0 -83.0 92.95 L-83.05 92.95 Q-84.7 93.0 -86.4 95.95 -89.2 104.6 -96.0 105.55 L-96.4 105.8 -96.4 104.3 -95.55 103.55 Q-93.65 101.7 -93.65 99.1 L-93.65 98.0 Q-93.65 95.4 -95.55 93.5 L-96.4 92.8 -96.4 76.3 M-87.3 117.7 L-96.4 117.7 -96.4 112.5 -94.7 112.8 -93.05 112.55 Q-91.25 112.0 -88.2 110.55 -88.3 114.3 -87.3 117.7 M-91.15 89.45 Q-91.6 89.15 -92.2 89.15 -92.85 89.15 -93.3 89.45 L-93.6 89.7 Q-94.2 90.3 -94.2 91.1 -94.2 91.9 -93.6 92.5 -93.05 93.05 -92.2 93.05 -91.4 93.05 -90.85 92.5 -90.25 91.9 -90.25 91.1 -90.25 90.3 -90.85 89.7 L-91.15 89.45" fill="url(#gradient2)" fill-rule="evenodd" stroke="none"/>
    <path d="M-83.5 77.35 Q-82.8 76.7 -81.85 76.45 -80.1 76.05 -78.5 76.95 L-78.45 77.0 Q-76.85 77.9 -76.45 79.6 -76.0 81.35 -76.85 83.0 L-77.15 83.45 -79.7 87.7 -80.9 85.15 -79.1 82.45 Q-78.65 81.75 -78.85 80.85 L-78.9 80.75 Q-79.15 79.9 -79.9 79.4 L-80.6 79.15 -81.6 79.15 Q-82.5 79.4 -82.85 80.25 L-83.9 82.05 Q-84.75 81.35 -85.8 81.0 L-84.4 78.55 -83.5 77.35" fill="url(#gradient3)" fill-rule="evenodd" stroke="none"/>
    <path d="M-96.4 105.8 L-96.0 105.55 Q-89.2 104.6 -86.4 95.95 -84.7 93.0 -83.05 92.95 L-83.0 92.95 Q-81.3 93.0 -80.1 94.2 L-79.65 94.7 -79.6 94.8 -79.5 94.9 -79.0 95.95 -78.85 97.1 Q-78.85 98.75 -81.0 103.4 -82.2 106.0 -84.2 107.9 -85.9 109.4 -88.05 110.5 L-88.2 110.55 Q-91.25 112.0 -93.05 112.55 L-94.7 112.8 -96.4 112.5 -96.4 105.8" fill="url(#gradient4)" fill-rule="evenodd" stroke="none"/>
    <path d="M-76.35 109.55 Q-75.6 116.85 -69.6 124.75 L-79.45 128.15 -84.85 128.3 -82.0 126.9 Q-85.85 122.65 -87.3 117.7 -88.3 114.3 -88.2 110.55 L-88.05 110.5 Q-85.9 109.4 -84.2 107.9 L-76.35 105.2 Q-76.6 107.35 -76.35 109.55" fill="url(#gradient5)" fill-rule="evenodd" stroke="none"/>
    <path d="M-16.0 105.2 L-16.0 111.9 -16.6 111.55 -17.2 111.05 Q-18.4 109.85 -18.4 108.1 L-18.4 108.0 Q-18.35 106.7 -16.6 105.55 L-16.0 105.2 M-16.6 105.55 L-16.6 111.55 -16.6 105.55" fill="url(#gradient6)" fill-rule="evenodd" stroke="none"/>
    <path d="M-26.15 115.9 Q-27.55 119.25 -26.1 123.85 L-40.3 129.1 -36.4 124.25 Q-40.3 111.3 -32.35 106.95 -31.55 113.65 -26.15 115.9" fill="url(#gradient7)" fill-rule="evenodd" stroke="none"/>
    <path d="M-16.6 75.7 L-16.6 60.7 -96.4 60.7 -96.4 76.3 -96.4 92.8 -96.4 104.3 -96.4 105.8 -96.4 112.5 -96.4 117.7 -96.4 140.3 -16.6 140.3 -16.6 117.05 -16.6 111.55 -16.6 105.55 -16.6 104.1 -16.6 91.8 -16.6 75.7 Z" fill="none" stroke="#dad596" stroke-linecap="round" stroke-linejoin="round" stroke-width="2.0"/>
    <path d="M7.5 -55.9 Q9.25 -54.45 11.0 -53.9 12.7 -53.35 13.65 -53.4 14.5 -57.75 13.2 -59.9 M12.55 -54.7 Q7.35 -63.2 5.25 -68.15 2.45 -74.8 2.45 -81.25 2.45 -86.8 5.75 -91.3 7.95 -94.3 11.6 -96.7" fill="none" stroke="#dad596" stroke-linecap="round" stroke-linejoin="round" stroke-width="2.0"/>
  </g>
  <defs>
    <linearGradient gradientTransform="matrix(0.0, 0.0084, -0.005, 0.0, -29.4, 103.7)" gradientUnits="userSpaceOnUse" id="gradient0" spreadMethod="pad" x1="-819.2" x2="819.2">
      <stop offset="0.0" stop-color="#ac3d4f"/>
      <stop offset="0.7372549019607844" stop-color="#76334e"/>
    </linearGradient>
    <linearGradient gradientTransform="matrix(0.0, 0.0236, -0.0225, 0.0, -13.95, 96.55)" gradientUnits="userSpaceOnUse" id="gradient1" spreadMethod="pad" x1="-819.2" x2="819.2">
      <stop offset="0.0" stop-color="#f15341"/>
      <stop offset="0.2823529411764706" stop-color="#d04050"/>
      <stop offset="0.8666666666666667" stop-color="#92474f"/>
    </linearGradient>
    <linearGradient gradientTransform="matrix(0.0, 0.0236, -0.0225, 0.0, -94.35, 97.2)" gradientUnits="userSpaceOnUse" id="gradient2" spreadMethod="pad" x1="-819.2" x2="819.2">
      <stop offset="0.0" stop-color="#f15341"/>
      <stop offset="0.2823529411764706" stop-color="#d04050"/>
      <stop offset="0.8666666666666667" stop-color="#92474f"/>
    </linearGradient>
    <linearGradient gradientTransform="matrix(0.0, 0.0084, -0.005, 0.0, -111.6, 104.35)" gradientUnits="userSpaceOnUse" id="gradient3" spreadMethod="pad" x1="-819.2" x2="819.2">
      <stop offset="0.0" stop-color="#ac3d4f"/>
      <stop offset="0.7372549019607844" stop-color="#76334e"/>
    </linearGradient>
    <linearGradient gradientTransform="matrix(-0.0062, 0.0062, -0.0035, -0.0035, -87.1, 101.2)" gradientUnits="userSpaceOnUse" id="gradient4" spreadMethod="pad" x1="-819.2" x2="819.2">
      <stop offset="0.0" stop-color="#c54150"/>
      <stop offset="0.7333333333333333" stop-color="#ec5044"/>
    </linearGradient>
    <linearGradient gradientTransform="matrix(0.0035, 0.0102, -0.0092, 0.0032, -80.5, 117.4)" gradientUnits="userSpaceOnUse" id="gradient5" spreadMethod="pad" x1="-819.2" x2="819.2">
      <stop offset="0.5254901960784314" stop-color="#a5444f"/>
      <stop offset="1.0" stop-color="#7c384b"/>
    </linearGradient>
    <linearGradient gradientTransform="matrix(-0.0062, 0.0062, -0.0035, -0.0035, -6.7, 100.55)" gradientUnits="userSpaceOnUse" id="gradient6" spreadMethod="pad" x1="-819.2" x2="819.2">
      <stop offset="0.0" stop-color="#c54150"/>
      <stop offset="0.7333333333333333" stop-color="#ec5044"/>
    </linearGradient>
    <linearGradient gradientTransform="matrix(-0.0025, 0.0081, -0.009, -0.0028, -30.2, 118.9)" gradientUnits="userSpaceOnUse" id="gradient7" spreadMethod="pad" x1="-819.2" x2="819.2">
      <stop offset="0.0" stop-color="#9c414e"/>
      <stop offset="0.5215686274509804" stop-color="#79374b"/>
    </linearGradient>
  </defs>
</svg>
