<?xml version="1.0" encoding="UTF-8" standalone="no"?>
<svg xmlns:ffdec="https://www.free-decompiler.com/flash" xmlns:xlink="http://www.w3.org/1999/xlink" ffdec:objectType="shape" height="81.6px" width="197.35px" xmlns="http://www.w3.org/2000/svg">
  <g transform="matrix(1.0, 0.0, 0.0, 1.0, 96.75, 61.1)">
    <path d="M-38.9 -29.9 Q-31.65 -31.3 -29.55 -36.9 -27.6 -39.25 -25.95 -39.0 -24.2 -38.6 -23.4 -37.15 -22.35 -35.8 -22.75 -34.15 -22.9 -33.25 -23.3 -32.55 L-26.5 -28.15 Q-29.9 -23.85 -34.8 -22.7 L-38.9 -21.95 -38.9 -13.25 -39.0 -12.35 Q-39.75 -3.7 -47.45 -2.0 L-49.1 -1.65 -47.4 0.65 -58.25 4.65 -56.55 2.1 Q-59.0 0.05 -59.9 -1.75 L-65.5 -1.8 Q-64.75 -0.2 -63.1 1.4 L-73.65 6.85 -71.9 3.55 Q-78.7 -1.0 -76.1 -7.65 L-75.3 -9.5 -75.8 -12.45 -75.85 -23.1 Q-82.2 -25.6 -86.6 -30.55 -87.85 -32.0 -88.3 -33.45 L-88.35 -33.8 Q-88.6 -35.0 -88.2 -36.15 L-87.8 -36.9 Q-86.85 -38.25 -85.25 -38.7 L-85.15 -38.8 Q-83.75 -38.95 -82.7 -37.85 L-82.2 -37.35 Q-79.45 -33.9 -75.75 -31.9 L-75.65 -32.35 -77.55 -36.9 Q-78.25 -38.6 -77.5 -40.3 -76.95 -41.95 -75.15 -42.6 L-71.75 -42.7 Q-70.6 -42.15 -69.95 -41.15 -66.95 -43.05 -63.25 -43.05 L-51.55 -43.05 Q-48.25 -43.05 -45.6 -41.6 L-43.6 -42.9 Q-41.8 -43.3 -40.25 -42.4 L-40.2 -42.35 Q-38.6 -41.45 -38.15 -39.75 -37.7 -38.0 -38.6 -36.35 L-39.6 -34.65 Q-38.9 -32.7 -38.9 -30.4 L-38.9 -29.9" fill="#23141b" fill-rule="evenodd" stroke="none"/>
    <path d="M-95.75 -60.1 L-95.75 19.5 -16.0 19.5 -16.0 -60.1 -95.75 -60.1 Z" fill="none" stroke="#dad596" stroke-linecap="round" stroke-linejoin="round" stroke-width="2.0"/>
    <path d="M19.85 -60.1 L19.85 19.5 99.6 19.5 99.6 -60.1 19.85 -60.1 Z" fill="none" stroke="#dad596" stroke-linecap="round" stroke-linejoin="round" stroke-width="2.0"/>
  </g>
</svg>
