<?xml version="1.0" encoding="UTF-8" standalone="no"?>
<svg xmlns:ffdec="https://www.free-decompiler.com/flash" xmlns:xlink="http://www.w3.org/1999/xlink" ffdec:objectType="shape" height="118.1px" width="102.7px" xmlns="http://www.w3.org/2000/svg">
  <g transform="matrix(1.0, 0.0, 0.0, 1.0, 51.35, 59.0)">
    <path d="M1.45 -58.3 L1.4 -57.25 0.55 -56.8 -0.2 -57.2 -0.4 -58.3 -0.45 -58.2 -0.05 -58.9 0.85 -59.0 1.45 -58.3 M3.4 -56.9 L2.7 -57.4 Q2.45 -57.85 2.55 -58.4 2.1 -58.05 2.75 -58.8 L4.0 -57.4 3.4 -56.9 M6.05 -54.35 L5.25 -53.9 4.45 -54.35 4.4 -55.4 4.25 -55.25 4.7 -55.95 5.05 -56.2 6.2 -54.85 6.05 -54.35 M2.65 -52.5 L2.45 -51.5 1.6 -51.05 0.9 -51.4 0.8 -52.5 0.65 -52.4 1.05 -53.1 Q1.55 -53.65 2.0 -53.3 L2.65 -52.5 M-2.15 -50.5 L-2.35 -51.6 -2.45 -51.5 -2.0 -52.1 Q-1.5 -52.65 -1.15 -52.35 L-0.9 -52.1 -0.3 -52.05 0.55 -51.0 0.05 -50.35 -0.55 -49.8 -0.85 -49.9 -1.05 -49.8 -1.9 -50.2 -2.15 -50.5 M4.7 -48.9 Q5.05 -48.9 4.25 -48.0 L3.55 -47.55 3.3 -47.65 3.0 -47.55 2.3 -47.9 2.1 -49.0 Q1.75 -48.8 2.45 -49.55 2.8 -50.0 3.15 -49.8 3.45 -50.1 3.95 -49.8 L4.7 -48.9 M7.5 -50.7 L7.05 -49.75 6.2 -49.1 5.25 -49.5 Q5.4 -50.95 5.7 -51.3 L6.4 -51.95 7.5 -50.7 M23.2 -34.65 L22.25 -35.1 22.35 -36.2 23.5 -34.95 23.2 -34.65 M20.9 -34.65 L20.85 -33.6 20.0 -33.15 19.4 -33.3 Q19.1 -32.95 19.05 -33.15 L18.25 -33.75 17.9 -34.35 18.4 -35.3 18.75 -35.7 19.1 -35.7 19.5 -35.3 20.25 -35.4 20.9 -34.65 M24.75 -33.5 L25.6 -32.55 25.1 -31.8 24.7 -31.5 25.5 -30.65 25.05 -29.9 24.75 -29.6 24.5 -29.3 23.85 -28.75 23.0 -29.1 22.8 -30.3 23.2 -30.9 23.45 -31.1 23.75 -31.5 23.8 -31.55 23.6 -31.65 23.5 -32.75 23.4 -32.65 23.85 -33.25 Q24.35 -33.85 24.75 -33.5 M22.1 -28.6 L22.2 -27.25 Q21.95 -26.95 21.4 -26.7 L20.7 -27.0 Q20.35 -27.65 20.4 -28.2 20.0 -27.9 20.75 -28.7 21.15 -29.2 21.55 -29.05 L22.1 -28.6 M23.55 -23.95 Q23.85 -24.0 23.15 -23.2 22.55 -22.5 22.55 -22.75 L21.8 -23.2 21.5 -23.95 Q21.35 -24.35 21.7 -24.85 L22.15 -25.3 22.5 -25.2 23.55 -23.95 M28.15 -28.9 L27.45 -28.4 26.65 -28.75 26.45 -30.0 26.35 -29.9 26.75 -30.6 27.1 -30.8 28.4 -29.3 28.15 -28.9 M27.55 -25.15 L26.95 -24.6 26.05 -24.95 25.9 -26.15 Q25.55 -25.9 26.25 -26.75 L27.15 -26.8 27.95 -25.9 28.15 -26.45 28.6 -26.95 28.85 -26.75 29.95 -25.5 Q30.25 -25.6 29.5 -24.75 L28.95 -24.35 28.2 -24.75 27.8 -25.45 27.55 -25.15 M15.4 -43.6 L14.7 -43.05 13.9 -43.4 13.7 -44.7 13.6 -44.55 13.95 -45.25 14.35 -45.45 15.65 -43.95 15.4 -43.6 M11.75 -47.8 L11.1 -47.2 10.3 -47.55 10.1 -48.85 10.0 -48.7 10.4 -49.4 10.75 -49.55 12.0 -48.1 11.75 -47.8 M11.65 -44.1 Q11.9 -44.15 11.2 -43.3 L10.55 -42.8 9.7 -43.1 9.5 -44.4 9.4 -44.25 9.85 -44.85 Q10.3 -45.45 10.8 -45.0 L11.65 -44.1 M14.7 -41.2 L14.75 -41.0 14.45 -40.4 13.75 -39.85 12.95 -40.4 12.6 -41.1 Q12.6 -41.45 13.1 -42.0 L13.5 -42.45 13.8 -42.45 14.7 -41.2 M10.2 -34.65 L10.1 -34.5 10.55 -35.3 Q10.9 -35.7 11.35 -35.5 L11.55 -35.7 11.7 -35.7 11.3 -35.9 10.9 -36.6 Q10.9 -37.0 11.4 -37.55 L11.85 -38.05 12.1 -38.0 13.05 -36.7 13.1 -36.6 12.85 -35.9 12.15 -35.3 12.75 -34.45 12.85 -34.3 12.5 -33.7 Q11.85 -32.9 11.85 -33.15 L11.45 -33.3 11.1 -33.15 10.65 -32.4 Q10.05 -31.7 10.1 -32.05 L9.35 -32.4 8.95 -33.2 Q8.85 -33.6 9.3 -34.1 L9.7 -34.6 10.0 -34.4 10.25 -34.1 10.2 -34.65 M11.1 -40.15 L10.65 -39.45 10.0 -38.9 9.2 -39.2 8.95 -40.5 Q8.6 -40.3 9.3 -41.15 9.7 -41.6 10.25 -41.15 L11.1 -40.15 M16.75 -36.95 L16.6 -35.85 15.75 -35.4 15.0 -35.8 14.9 -36.95 Q14.55 -36.7 15.25 -37.4 15.7 -38.0 16.1 -37.65 L16.75 -36.95 M19.55 -38.25 L19.4 -37.1 18.6 -36.7 17.85 -37.05 17.35 -37.25 Q16.95 -38.2 17.7 -38.95 L18.15 -38.9 18.9 -38.95 19.55 -38.25 M8.6 -46.95 L8.15 -46.2 7.5 -45.7 6.7 -46.05 6.55 -47.15 6.45 -47.05 6.9 -47.65 Q7.4 -48.2 7.8 -47.8 L8.6 -46.95 M8.05 -44.35 Q8.3 -44.5 7.55 -43.6 L6.95 -43.05 6.1 -43.5 5.9 -44.65 Q5.5 -44.45 6.25 -45.25 L7.15 -45.35 8.05 -44.35 M1.65 -46.0 Q1.95 -46.05 1.15 -45.15 L0.5 -44.7 1.05 -44.1 Q1.4 -44.2 0.6 -43.3 L0.45 -43.1 1.1 -42.1 1.1 -42.0 1.05 -41.55 1.1 -41.5 Q1.4 -41.55 0.65 -40.7 L-0.05 -40.15 -0.8 -40.55 -1.0 -41.8 -1.15 -41.7 -0.9 -42.05 -0.55 -42.9 -0.8 -43.2 -1.05 -44.4 -1.2 -44.25 -0.85 -44.75 -1.5 -44.85 Q-1.9 -45.85 -1.2 -46.6 -0.85 -46.8 -0.35 -46.3 L-0.2 -46.9 0.85 -46.95 1.65 -46.0 M5.3 -41.8 L4.75 -41.1 4.15 -40.5 3.35 -40.95 3.15 -42.15 3.0 -42.05 3.45 -42.7 4.45 -42.8 5.3 -41.8 M3.4 -38.85 L3.35 -37.75 2.45 -37.3 1.7 -37.65 1.55 -38.85 2.0 -39.4 Q2.4 -39.85 2.75 -39.65 L3.4 -38.85 M6.6 -38.3 Q6.95 -38.45 6.2 -37.55 L5.65 -37.15 4.85 -37.55 4.55 -38.3 Q4.45 -38.65 4.85 -39.15 L5.3 -39.7 5.5 -39.55 6.6 -38.3 M8.15 -35.9 L8.1 -34.8 7.2 -34.45 6.45 -34.8 6.3 -35.9 6.2 -35.8 6.65 -36.5 Q7.15 -37.05 7.5 -36.7 L8.15 -35.9 M9.45 -31.25 L9.0 -30.25 8.2 -29.6 7.25 -30.0 Q7.3 -31.55 7.6 -31.85 L8.35 -32.55 9.45 -31.25 M3.25 -36.25 L3.3 -34.8 2.55 -34.35 1.8 -34.65 Q1.5 -35.3 1.55 -35.85 1.1 -35.6 1.8 -36.45 2.25 -36.95 2.7 -36.7 L3.25 -36.25 M1.65 -33.2 Q1.95 -33.25 1.15 -32.4 L1.7 -31.75 1.65 -30.75 0.85 -30.25 0.55 -30.45 0.05 -29.9 -0.45 -29.55 -1.25 -29.9 -1.35 -30.15 -1.6 -29.85 -1.45 -29.65 -0.6 -28.6 -1.0 -28.0 -1.6 -27.4 -2.5 -27.85 -2.6 -28.3 Q-3.15 -27.7 -3.15 -28.1 L-3.95 -28.6 -4.35 -29.35 -3.85 -30.15 -3.6 -30.45 -3.55 -30.65 -3.65 -30.55 -3.25 -31.2 -2.2 -31.25 -1.5 -30.45 -1.55 -30.65 -1.25 -31.5 -0.8 -32.05 -0.6 -31.85 -0.05 -31.25 -0.15 -31.75 0.05 -32.05 -0.25 -32.3 -0.45 -33.55 -0.6 -33.4 -0.2 -34.1 0.85 -34.15 1.65 -33.2 M4.5 -33.1 L4.45 -32.05 3.6 -31.55 2.85 -32.0 2.7 -33.15 2.55 -32.95 3.0 -33.7 3.9 -33.8 4.5 -33.1 M4.5 -27.95 L4.45 -26.9 3.6 -26.45 Q3.2 -26.65 2.8 -26.9 L2.7 -28.0 2.6 -27.9 3.0 -28.5 Q3.5 -29.1 3.85 -28.7 L4.5 -27.95 M5.9 -29.6 L5.85 -28.5 5.0 -28.0 4.15 -28.45 4.05 -29.6 Q3.7 -29.35 4.45 -30.15 4.85 -30.65 5.25 -30.3 L5.9 -29.6 M2.2 -26.2 L1.95 -25.6 1.85 -25.3 1.65 -25.3 1.1 -24.95 0.3 -25.25 0.05 -26.5 -0.05 -26.4 0.4 -27.0 Q0.9 -27.6 1.4 -27.1 L2.2 -26.2 M10.55 -27.35 L10.05 -26.7 9.45 -26.15 8.7 -26.5 8.45 -27.65 8.4 -27.6 8.85 -28.2 Q9.35 -28.75 9.7 -28.3 L10.55 -27.35 M11.1 -30.0 L11.15 -29.85 10.8 -29.2 10.15 -28.7 9.35 -29.3 Q9.0 -29.75 9.0 -29.9 9.0 -30.25 9.45 -30.8 L9.9 -31.25 10.15 -31.2 11.1 -30.0 M10.0 -24.9 Q10.25 -24.95 9.55 -24.1 L8.85 -23.55 8.65 -23.7 8.25 -23.65 7.55 -23.95 7.45 -25.05 7.3 -24.95 7.75 -25.7 8.4 -25.85 9.2 -25.8 10.0 -24.9 M17.2 -31.85 L17.05 -31.55 17.25 -31.45 Q17.5 -31.15 17.65 -31.15 17.95 -30.25 17.75 -29.75 L17.05 -29.1 16.25 -29.6 16.05 -30.45 15.45 -30.55 15.3 -31.1 15.05 -32.25 14.95 -32.1 15.4 -32.85 16.3 -32.9 17.2 -31.85 M14.15 -29.05 L13.65 -28.3 13.05 -27.8 12.25 -28.2 12.0 -29.35 11.9 -29.2 12.35 -29.95 Q12.85 -30.55 13.3 -29.95 L14.15 -29.05 M13.55 -24.6 L13.1 -23.8 13.05 -22.75 12.15 -22.35 11.45 -22.65 11.25 -23.8 11.15 -23.7 11.5 -24.25 11.45 -24.85 11.4 -24.75 Q11.3 -25.0 11.75 -25.5 12.25 -26.1 12.7 -25.5 L13.55 -24.6 M18.05 -27.8 L18.05 -27.65 Q18.25 -27.4 17.8 -26.95 17.15 -26.2 17.1 -26.5 L16.25 -27.05 15.95 -27.7 16.45 -28.5 16.85 -29.05 Q16.9 -28.9 17.1 -29.05 L18.05 -27.8 M17.75 -24.9 L17.3 -24.1 16.65 -23.65 15.9 -24.0 15.85 -23.05 15.05 -22.45 14.35 -22.85 Q14.1 -23.35 14.1 -23.95 L14.45 -24.35 Q14.95 -24.95 15.25 -24.75 15.5 -24.4 15.7 -24.4 L15.75 -24.35 15.6 -25.2 15.5 -25.05 16.0 -25.75 16.9 -25.8 17.75 -24.9 M0.5 -37.65 L0.05 -36.95 Q-0.6 -36.15 -0.6 -36.45 L-1.35 -36.8 -1.45 -37.15 -1.85 -36.85 -2.6 -37.25 Q-2.85 -37.65 -2.75 -38.3 -3.15 -38.0 -2.5 -38.75 -2.0 -39.25 -1.6 -39.1 L-1.25 -38.8 -1.2 -38.6 Q-0.75 -38.95 -0.3 -38.6 L0.5 -37.65 M20.15 -21.9 L20.25 -20.5 19.35 -19.95 18.75 -20.3 Q18.4 -21.0 18.5 -21.45 18.05 -21.2 18.75 -22.05 19.2 -22.55 19.6 -22.35 L20.15 -21.9 M18.35 -21.05 L17.8 -20.3 17.2 -19.7 16.35 -20.2 16.2 -21.35 16.1 -21.2 16.55 -22.0 17.45 -22.05 18.35 -21.05 M13.05 -20.75 L12.5 -19.95 11.9 -19.4 11.15 -19.8 10.9 -21.05 Q10.55 -20.85 11.25 -21.7 L12.15 -21.75 13.05 -20.75 M10.55 -20.5 L10.15 -19.4 9.35 -18.75 Q8.9 -18.95 8.4 -19.2 8.45 -20.75 8.75 -21.05 L9.45 -21.75 10.55 -20.5 M15.3 -18.15 L14.75 -17.45 14.15 -16.85 13.3 -17.3 13.1 -18.5 13.0 -18.4 13.5 -19.1 14.4 -19.2 15.3 -18.15 M11.65 -16.6 L11.2 -15.85 10.55 -15.35 9.7 -15.65 9.6 -16.75 9.55 -16.7 10.0 -17.35 Q10.45 -17.85 10.85 -17.5 L11.65 -16.6 M12.6 -13.0 Q12.0 -12.25 12.0 -12.5 L11.3 -13.0 10.9 -13.65 10.65 -13.35 Q10.0 -12.55 9.95 -12.8 L9.2 -13.15 8.95 -14.4 Q8.65 -14.1 9.3 -14.9 9.8 -15.45 10.25 -15.05 L11.05 -14.1 Q10.95 -14.35 11.2 -14.6 L11.65 -15.1 11.9 -15.05 12.55 -14.3 12.9 -14.65 Q13.3 -15.15 13.85 -14.65 L14.7 -13.7 Q15.0 -13.8 14.25 -13.0 L13.55 -12.4 12.75 -12.8 12.75 -13.15 12.6 -13.0 M22.05 -17.45 L21.95 -16.4 21.05 -15.95 20.3 -16.3 20.2 -17.45 20.1 -17.3 20.5 -18.05 21.4 -18.15 22.05 -17.45 M18.4 -13.2 L17.75 -12.75 16.95 -13.1 16.75 -14.35 16.65 -14.25 17.1 -14.95 Q17.5 -15.45 18.05 -14.95 L18.55 -14.4 18.45 -14.65 18.95 -15.45 19.3 -15.95 19.6 -16.0 20.5 -14.65 20.55 -14.5 Q20.75 -14.3 20.35 -13.8 19.65 -13.05 19.6 -13.35 L18.9 -13.75 18.4 -13.2 M8.6 -18.9 Q8.85 -18.95 8.15 -18.1 L7.55 -17.65 6.95 -17.95 6.95 -17.6 6.1 -17.2 5.3 -17.6 5.2 -18.75 Q4.85 -18.45 5.5 -19.25 6.0 -19.8 6.4 -19.5 L6.6 -19.25 Q6.5 -19.5 6.7 -19.7 L7.15 -20.25 7.5 -20.15 8.6 -18.9 M5.65 -22.25 L5.5 -21.1 4.75 -20.75 3.95 -21.05 3.8 -22.25 3.65 -22.15 4.1 -22.75 Q4.6 -23.35 5.0 -22.95 L5.65 -22.25 M3.05 -22.65 L3.15 -22.5 Q3.25 -22.35 2.8 -21.9 L2.4 -21.4 2.85 -20.9 2.75 -19.9 1.95 -19.5 1.1 -19.8 1.0 -20.9 Q0.65 -20.7 1.4 -21.45 L1.6 -21.65 1.35 -21.95 0.95 -22.6 1.45 -23.45 1.85 -23.95 2.1 -23.95 3.05 -22.65 M-0.3 -17.0 L-1.15 -16.6 -1.95 -16.9 -1.9 -17.05 Q-2.05 -17.0 -2.0 -17.25 L-2.85 -17.75 -3.25 -18.4 -2.7 -19.3 -2.35 -19.8 -2.05 -19.8 -1.35 -18.9 -0.9 -18.9 -0.55 -19.3 Q-0.05 -19.85 0.25 -19.65 L0.75 -19.35 Q1.0 -18.5 0.85 -17.95 L0.05 -17.35 -0.25 -17.5 -0.3 -17.0 M4.45 -14.05 L3.6 -13.65 2.8 -14.05 2.8 -14.5 1.55 -14.55 Q1.15 -15.45 1.85 -16.3 2.3 -16.3 3.0 -15.75 L3.45 -16.0 3.55 -16.35 Q3.05 -16.15 3.8 -16.95 4.2 -17.5 4.6 -17.3 L5.15 -16.75 Q5.4 -15.75 5.25 -15.4 L4.6 -14.9 4.45 -14.05 M5.8 -10.5 Q5.6 -9.6 5.4 -9.45 L4.55 -8.85 3.65 -9.3 Q3.7 -10.65 3.95 -11.0 3.25 -10.2 3.2 -10.5 L2.35 -11.05 2.05 -11.7 2.6 -12.55 3.0 -13.1 3.25 -13.1 4.15 -11.8 4.2 -11.7 4.2 -11.25 4.7 -11.8 5.8 -10.5 M8.4 -13.9 L8.35 -12.85 7.5 -12.45 6.65 -12.8 6.55 -13.9 6.5 -13.8 6.95 -14.5 Q7.4 -14.95 7.75 -14.65 L8.4 -13.9 M6.95 -6.65 Q7.2 -6.7 6.5 -5.95 L6.3 -5.7 6.4 -4.55 6.2 -4.3 6.35 -4.15 5.9 -3.35 5.25 -2.85 4.45 -3.15 4.2 -4.45 Q3.85 -4.25 4.55 -5.05 L4.6 -5.5 Q4.2 -5.35 4.85 -6.05 L5.0 -6.2 4.85 -6.95 5.3 -7.45 6.2 -7.55 6.95 -6.65 M10.55 -8.35 Q10.8 -8.4 10.1 -7.55 L9.4 -7.0 9.2 -7.15 Q8.7 -6.55 8.7 -6.85 L7.9 -7.2 7.6 -7.95 Q7.5 -8.45 7.85 -8.9 L8.3 -9.35 8.65 -9.25 8.7 -9.2 9.7 -9.25 10.55 -8.35 M0.95 -12.3 L0.85 -11.35 0.5 -11.05 0.45 -11.0 -0.1 -10.5 0.0 -10.65 -1.05 -10.9 -1.4 -11.8 -0.95 -12.5 Q-0.3 -13.3 -0.25 -13.1 0.0 -13.3 0.3 -13.1 L0.95 -12.3 M2.25 -8.85 L2.2 -7.75 2.0 -7.65 1.95 -7.1 2.1 -7.15 2.75 -6.35 Q3.0 -5.95 2.55 -5.4 L2.0 -4.85 2.1 -5.0 1.15 -5.15 0.85 -6.05 1.05 -6.55 0.5 -6.85 0.4 -6.65 -0.2 -6.1 -0.1 -6.25 -1.15 -6.4 -1.45 -7.35 -1.0 -8.35 -0.55 -8.4 -0.8 -9.55 -0.85 -9.5 -0.4 -10.15 Q0.05 -10.7 0.55 -10.15 L1.05 -9.55 Q1.4 -9.85 1.6 -9.55 L2.25 -8.85 M-0.6 -1.9 L-0.55 -1.75 Q-0.35 -1.55 -0.8 -1.05 -1.45 -0.3 -1.45 -0.65 L-2.35 -1.2 -2.45 -1.45 -2.7 -1.15 -3.3 -0.65 -4.1 -1.0 -4.4 -2.15 -4.45 -2.1 -4.0 -2.75 -3.1 -2.8 -2.55 -2.15 -2.25 -2.65 -2.25 -2.75 -1.75 -3.6 -0.85 -4.15 0.05 -3.05 0.15 -3.1 1.05 -3.15 1.95 -2.15 1.45 -1.5 0.85 -0.95 0.0 -1.35 -0.2 -2.2 -0.35 -2.05 Q-0.45 -1.9 -0.6 -1.9 M3.25 -2.7 L3.9 -1.9 Q4.15 -1.5 3.65 -0.95 L3.15 -0.4 3.25 -0.55 2.25 -0.65 1.95 -1.55 2.3 -2.5 3.25 -2.7 M10.0 -3.8 L9.55 -3.05 8.9 -2.55 8.15 -2.95 7.85 -4.15 7.75 -4.0 8.15 -4.7 9.2 -4.75 10.0 -3.8 M9.4 0.0 L8.95 0.8 8.3 1.3 7.55 0.9 7.25 -0.3 7.65 -0.85 Q8.15 -1.45 8.6 -0.95 L8.5 -1.5 8.4 -1.35 8.9 -2.05 Q9.35 -2.55 9.7 -2.2 L10.4 -1.5 10.25 -0.45 9.4 0.0 M20.3 -10.4 L20.25 -9.3 19.4 -8.9 18.65 -9.25 18.55 -9.35 Q17.9 -8.65 17.9 -8.9 L17.1 -9.45 16.8 -10.15 17.25 -11.0 17.65 -11.5 Q17.75 -11.35 17.95 -11.5 L18.55 -10.65 18.8 -10.95 Q19.3 -11.55 19.65 -11.1 L20.3 -10.4 M16.35 -8.0 L16.45 -7.8 16.1 -7.2 Q15.4 -6.35 15.45 -6.65 L14.65 -7.25 14.3 -7.85 Q14.3 -8.25 14.75 -8.75 L15.15 -9.25 15.45 -9.2 16.35 -8.0 M13.6 -11.2 L13.45 -10.75 14.2 -9.9 13.65 -9.15 13.05 -8.6 12.25 -9.0 12.0 -10.05 11.95 -10.1 11.7 -10.25 11.45 -11.55 11.35 -11.4 11.8 -12.0 Q12.3 -12.55 12.75 -12.15 L13.6 -11.2 M12.0 -4.5 L11.9 -4.4 12.35 -5.0 Q12.85 -5.6 13.3 -5.1 L13.65 -4.75 13.75 -4.75 14.75 -3.5 14.75 -3.35 Q14.9 -3.15 14.45 -2.7 13.75 -1.85 13.75 -2.2 L13.15 -1.65 12.4 -2.05 12.0 -2.85 12.1 -3.5 12.0 -4.5 M20.6 -5.0 L20.5 -3.9 19.05 -4.1 Q18.6 -4.9 19.3 -5.75 19.9 -5.8 20.6 -5.0 M21.65 -1.3 L21.7 -1.15 21.4 -0.45 20.75 0.0 19.9 -0.55 19.6 -1.2 20.0 -2.05 20.45 -2.55 20.75 -2.5 21.65 -1.3 M35.05 -19.0 L34.95 -17.95 34.15 -17.55 33.3 -17.85 33.15 -18.8 33.1 -18.9 32.9 -19.95 32.85 -19.9 33.25 -20.55 Q33.7 -21.05 34.15 -20.7 L34.75 -19.95 34.7 -19.4 35.05 -19.0 M28.7 -20.8 L28.45 -21.95 28.35 -21.8 28.8 -22.45 Q29.3 -22.95 29.65 -22.65 L30.95 -21.2 30.75 -20.2 30.0 -19.8 29.25 -20.2 29.15 -20.55 28.7 -20.8 M31.35 -15.1 L30.55 -14.65 29.75 -14.95 29.55 -16.15 29.5 -16.1 29.95 -16.7 30.2 -16.9 30.4 -17.25 31.05 -17.85 32.2 -16.55 31.8 -15.55 31.35 -15.2 31.35 -15.1 M32.75 -11.55 L31.95 -11.1 32.75 -10.25 Q33.05 -10.25 32.3 -9.35 31.65 -8.65 31.6 -8.95 L30.8 -9.3 30.6 -10.55 Q30.2 -10.25 30.95 -11.05 31.25 -11.5 31.6 -11.35 L31.15 -11.6 31.0 -12.6 Q30.65 -12.4 31.3 -13.15 L31.35 -13.2 31.6 -13.45 Q32.05 -14.0 32.5 -13.65 L33.3 -12.75 32.85 -12.0 32.8 -11.95 32.75 -11.55 M35.1 -12.6 L34.15 -13.15 Q34.25 -14.65 34.5 -14.95 L35.3 -15.55 35.4 -15.45 36.05 -15.35 36.9 -14.35 36.45 -13.65 35.85 -13.1 35.65 -13.05 35.1 -12.6 M39.25 -15.65 L37.2 -16.65 37.15 -17.75 37.05 -17.6 Q37.05 -17.85 37.4 -18.3 L37.8 -18.45 39.9 -16.05 Q39.25 -15.25 39.25 -15.65 M38.55 -12.45 L38.6 -12.25 Q38.8 -12.1 38.35 -11.6 37.65 -10.75 37.65 -11.1 L36.8 -11.7 36.45 -12.4 36.9 -13.2 37.35 -13.7 37.65 -13.75 38.55 -12.45 M41.05 -12.1 L40.55 -11.4 40.0 -10.8 40.5 -10.2 Q40.8 -10.25 40.1 -9.45 L39.45 -8.95 38.65 -9.3 38.4 -10.5 38.3 -10.4 38.65 -11.05 Q38.95 -11.4 39.2 -11.35 L38.95 -12.4 38.9 -12.3 39.25 -13.05 40.2 -13.1 41.05 -12.1 M26.2 -24.15 L26.05 -23.05 25.25 -22.6 24.45 -23.05 24.35 -24.15 24.7 -24.65 Q25.15 -25.15 25.55 -24.95 L26.2 -24.15 M28.05 -18.8 L27.55 -18.1 27.2 -17.75 27.2 -17.35 26.35 -16.85 25.6 -17.25 25.4 -18.4 25.3 -18.3 25.8 -19.0 26.2 -19.65 26.6 -20.2 26.9 -20.15 28.05 -18.8 M24.5 -17.05 L24.4 -16.1 23.55 -15.65 22.8 -16.05 22.65 -17.05 Q22.3 -16.85 23.0 -17.65 23.5 -18.2 23.85 -17.85 L24.5 -17.05 M26.75 -14.55 L26.6 -13.5 25.8 -13.1 Q25.45 -13.25 25.05 -13.45 L24.9 -14.55 24.75 -14.4 25.25 -15.1 Q25.75 -15.65 26.05 -15.25 L26.75 -14.55 M23.0 -10.65 L22.2 -10.2 21.45 -10.55 21.35 -11.7 21.15 -11.55 21.65 -12.2 Q22.1 -12.75 22.5 -12.4 L22.7 -12.15 22.6 -12.4 23.1 -13.2 23.5 -13.7 23.75 -13.7 24.65 -12.4 24.75 -12.25 24.6 -11.85 24.75 -11.65 24.65 -10.65 23.2 -10.7 23.1 -11.05 23.0 -10.65 M28.7 -14.9 L28.6 -13.75 27.75 -13.35 26.95 -13.75 26.85 -14.9 Q26.45 -14.6 27.15 -15.4 27.6 -15.95 28.05 -15.65 L28.7 -14.9 M30.65 -13.3 L30.55 -12.25 Q30.45 -12.15 29.65 -11.8 L28.85 -12.2 28.8 -13.3 28.7 -13.15 29.2 -13.8 Q29.6 -14.35 30.0 -14.0 L30.65 -13.3 M26.8 -8.15 L25.8 -8.7 Q25.95 -10.15 26.25 -10.45 L26.95 -11.1 27.7 -10.25 Q28.25 -10.25 28.95 -9.45 L28.85 -8.45 27.4 -8.55 27.35 -8.6 26.8 -8.15 M23.55 -6.6 L22.8 -7.0 22.75 -7.1 Q22.1 -6.3 22.1 -6.65 L21.2 -7.2 20.95 -7.85 Q20.9 -8.15 21.4 -8.75 L21.8 -9.25 22.15 -9.25 22.75 -8.45 23.0 -8.75 Q23.45 -9.25 23.9 -8.9 L24.1 -8.65 24.6 -9.2 24.9 -9.25 25.8 -7.95 25.85 -7.75 25.55 -7.15 24.9 -6.6 24.35 -7.0 23.55 -6.6 M30.0 -2.65 L29.2 -2.15 28.35 -2.65 28.25 -3.0 28.1 -2.8 27.7 -2.4 27.95 -2.1 28.05 -0.85 28.35 -0.45 28.3 0.55 27.45 1.0 26.75 0.7 26.55 -0.55 26.3 -0.85 Q26.0 -1.3 26.15 -1.9 25.7 -1.55 26.4 -2.4 L26.65 -2.55 26.45 -3.8 Q26.05 -3.6 26.8 -4.45 L27.7 -4.5 28.25 -3.9 28.9 -4.5 28.25 -4.85 28.0 -4.8 27.2 -5.15 26.4 -4.75 25.6 -5.15 25.4 -6.25 25.8 -6.85 Q26.25 -7.35 26.6 -7.0 L27.1 -6.4 27.45 -6.85 Q27.95 -7.4 28.3 -6.95 L28.55 -6.65 28.8 -7.0 29.0 -7.0 29.95 -5.7 30.0 -5.65 30.1 -5.4 30.2 -5.4 32.15 -3.15 31.9 -2.7 31.9 -2.25 31.05 -1.9 30.25 -2.25 30.05 -3.05 30.0 -3.1 30.0 -2.65 M23.45 -4.6 L23.6 -3.3 22.85 -2.7 22.1 -3.05 21.9 -4.2 22.2 -4.55 Q22.7 -5.1 23.0 -5.0 L23.45 -4.6 M33.9 -9.6 L33.65 -10.8 33.55 -10.7 34.05 -11.4 Q34.5 -11.95 34.95 -11.5 L35.45 -10.9 35.8 -11.3 36.65 -11.4 37.4 -10.5 Q37.75 -10.65 37.0 -9.8 L36.3 -9.25 36.1 -9.35 35.9 -9.15 35.85 -9.05 36.05 -8.95 36.9 -7.95 Q37.15 -8.05 36.45 -7.25 L35.85 -6.65 35.0 -7.15 34.75 -8.35 Q34.4 -8.05 35.0 -8.75 L34.45 -9.0 34.35 -9.35 33.9 -9.6 M40.5 -7.7 Q40.8 -7.75 40.05 -6.9 L39.4 -6.35 38.6 -6.7 38.4 -8.0 38.3 -7.85 38.65 -8.6 39.7 -8.65 40.5 -7.7 M32.75 -7.65 L32.3 -6.9 31.65 -6.35 30.85 -6.7 30.6 -7.95 31.0 -8.55 31.9 -8.6 32.75 -7.65 M35.8 -6.0 L35.3 -5.35 34.7 -4.75 33.85 -5.15 33.65 -6.3 Q33.25 -6.1 34.0 -6.95 L34.9 -7.0 35.8 -6.0 M33.05 0.25 L32.9 -0.75 32.85 -0.7 33.25 -1.35 33.55 -1.55 Q33.3 -1.8 33.4 -1.85 33.25 -2.4 33.7 -2.85 L34.1 -3.3 34.35 -3.1 34.2 -3.8 34.1 -3.65 34.5 -4.45 Q35.0 -5.0 35.5 -4.45 L36.3 -3.5 Q36.65 -3.6 35.9 -2.75 L35.55 -2.5 35.9 -2.1 35.85 -1.05 34.9 -0.6 34.8 -0.6 34.7 -0.25 35.8 1.05 35.3 1.7 34.8 2.2 34.05 1.75 33.65 1.0 33.7 0.7 33.05 0.25 M31.1 3.15 L30.2 3.5 29.75 3.3 29.75 4.1 28.85 4.45 28.3 4.25 28.3 4.35 27.5 4.75 26.65 4.45 26.45 3.6 Q26.2 3.9 26.15 3.75 L25.4 3.25 25.05 2.6 Q24.95 2.35 25.15 2.1 25.05 2.1 24.7 2.25 L23.9 1.9 23.8 0.8 Q23.45 1.05 24.1 0.25 24.6 -0.3 25.0 0.0 L25.65 0.8 25.55 1.5 25.8 1.2 26.15 1.35 27.15 2.55 27.75 2.6 28.0 2.85 28.3 2.5 Q28.75 1.95 29.15 2.3 L29.4 2.6 29.3 2.1 29.25 2.2 29.65 1.5 29.5 0.3 Q29.15 0.5 29.85 -0.3 30.25 -0.75 30.8 -0.3 L30.85 -0.25 31.45 -0.3 32.05 0.15 32.2 0.0 33.25 1.3 32.9 2.35 32.0 2.95 31.1 2.55 31.1 3.15 M40.0 -3.8 L39.5 -3.1 38.85 -2.5 38.05 -2.85 37.85 -4.15 Q37.45 -3.95 38.2 -4.75 L39.1 -4.8 40.0 -3.8 M31.65 7.05 L30.85 6.7 30.75 5.55 Q30.35 5.8 31.05 4.95 31.45 4.45 31.95 4.75 L32.5 5.45 32.35 4.95 32.3 5.0 32.75 4.4 Q33.2 3.85 33.55 4.25 L33.9 4.65 Q34.05 3.5 34.3 3.2 L34.95 2.6 35.8 3.5 35.9 3.4 35.85 3.2 35.8 3.25 36.2 2.65 37.15 2.6 37.9 3.45 37.85 3.25 Q37.75 2.8 38.2 2.3 L38.55 1.8 38.85 1.9 39.45 2.6 39.3 2.1 Q39.0 2.25 39.45 1.7 L39.15 1.5 38.95 0.4 38.9 0.45 39.25 -0.25 40.2 -0.3 41.05 0.75 40.55 1.4 41.15 2.1 41.05 3.1 40.25 3.5 40.0 3.45 39.55 4.0 38.95 4.4 38.25 4.0 38.05 3.7 37.5 4.3 37.15 4.6 37.2 4.65 37.0 5.3 Q36.25 6.1 36.2 5.8 L35.4 5.25 35.35 5.2 34.85 5.5 34.4 5.35 33.9 5.9 33.3 6.35 32.5 6.05 32.45 6.65 33.0 6.75 33.8 7.65 Q34.1 7.6 33.4 8.45 L32.75 8.9 31.95 8.55 31.7 7.35 Q31.35 7.6 32.0 6.85 31.9 6.85 31.65 7.05 M38.65 0.45 L38.55 1.45 Q38.5 1.5 37.75 1.9 L37.0 1.5 36.8 0.45 36.7 0.55 37.2 -0.1 Q37.65 -0.6 38.0 -0.3 L38.65 0.45 M45.25 -9.35 Q44.55 -8.6 44.55 -8.95 L43.8 -9.45 43.4 -10.15 43.9 -10.95 44.1 -11.2 45.5 -9.6 45.25 -9.35 M43.2 -6.9 Q43.45 -6.05 43.3 -5.5 L42.8 -5.05 42.85 -5.0 42.75 -3.9 41.9 -3.5 41.1 -3.9 41.0 -5.0 40.9 -4.85 41.35 -5.5 Q41.5 -5.7 41.6 -5.7 L41.65 -6.35 Q41.25 -6.0 41.95 -6.85 42.45 -7.4 42.75 -7.25 L42.8 -7.2 42.55 -8.25 42.5 -8.15 42.85 -8.9 Q43.3 -9.35 43.85 -8.9 L44.65 -7.95 Q45.0 -8.05 44.25 -7.2 L43.55 -6.65 43.2 -6.9 M47.65 -4.4 L47.7 -2.95 47.15 -2.55 47.55 -2.1 47.4 -1.05 46.65 -0.65 45.85 -1.05 45.7 -2.1 46.05 -2.65 46.2 -2.8 Q45.9 -3.35 45.95 -3.95 45.55 -3.65 46.25 -4.5 46.7 -5.0 47.1 -4.75 L47.65 -4.4 M51.35 -0.85 L51.3 0.2 50.5 0.7 49.75 0.25 49.5 -0.85 49.95 -1.35 Q50.4 -1.85 50.75 -1.55 L51.35 -0.85 M48.8 2.6 L48.4 3.5 47.6 4.25 46.65 3.85 Q46.75 2.35 47.05 1.95 L47.65 1.3 48.8 2.6 M43.85 3.25 L43.35 4.0 42.75 4.55 41.95 4.1 41.65 2.9 41.6 2.95 42.05 2.35 Q42.3 2.0 42.65 2.0 L42.2 1.9 42.1 0.8 42.0 0.9 42.5 0.2 Q42.9 -0.3 43.3 0.0 L43.95 0.8 43.85 1.75 42.95 2.3 43.85 3.25 M45.35 4.3 L45.2 5.35 44.4 5.8 43.65 5.45 43.5 4.3 Q43.15 4.6 43.85 3.8 44.3 3.25 44.7 3.5 L45.35 4.3 M40.75 6.1 L40.55 6.55 41.6 7.7 Q41.95 7.6 41.4 8.25 L41.35 8.55 41.05 8.6 40.5 9.0 39.75 8.6 39.5 7.4 39.55 7.35 38.9 7.0 38.6 5.8 38.55 5.85 39.0 5.25 39.9 5.2 40.75 6.1 M42.55 11.2 L42.25 10.0 42.2 10.05 Q42.1 9.8 42.55 9.3 43.05 8.75 43.5 9.3 L44.15 10.05 43.05 11.4 42.55 11.2 M42.5 11.25 L42.5 11.4 Q42.65 11.55 42.2 12.05 41.55 12.85 41.5 12.55 L40.7 11.95 40.4 11.25 Q40.35 10.9 40.8 10.4 L41.25 9.95 41.55 9.95 42.5 11.25 M31.15 1.95 L31.0 1.9 31.15 2.1 31.15 1.95 M35.55 8.9 L35.55 9.15 35.85 9.2 36.65 10.2 36.15 11.0 36.9 11.85 36.45 12.6 35.8 13.2 34.95 12.75 34.8 11.55 Q34.45 11.7 34.9 11.2 L34.75 11.15 34.5 10.25 33.75 9.75 33.45 9.0 Q33.45 8.6 33.85 8.15 L34.25 7.65 34.6 7.65 35.3 8.6 35.2 7.45 35.05 7.6 35.5 7.0 Q36.0 6.4 36.4 6.75 L37.25 7.7 37.45 7.95 37.0 8.8 36.4 9.2 35.55 8.9 35.5 8.75 35.3 8.6 35.55 8.9 M31.65 7.65 L31.2 8.45 30.6 8.85 29.9 8.45 29.5 7.7 Q29.4 7.25 29.8 6.8 L30.2 6.25 30.55 6.4 31.65 7.65 M40.25 10.55 L39.75 11.4 39.1 11.85 38.35 11.5 38.1 10.25 38.0 10.35 38.45 9.65 Q38.9 9.1 39.45 9.65 L40.25 10.55 M21.65 3.2 L21.65 3.3 Q21.8 3.5 21.4 4.05 20.7 4.85 20.7 4.45 L19.85 3.9 19.55 3.25 Q19.6 2.95 20.0 2.5 L20.45 1.95 20.75 1.9 21.65 3.2 M23.45 7.05 L22.2 6.35 22.0 5.15 22.4 4.45 Q22.85 4.0 23.25 4.15 L23.75 4.6 23.8 4.75 24.4 5.75 24.65 5.45 Q25.2 5.45 25.85 6.15 L25.8 7.25 24.35 7.15 24.1 6.7 Q23.5 7.35 23.45 7.05 M22.75 10.25 L22.8 10.4 22.55 11.0 22.4 11.15 22.85 11.65 Q23.35 11.1 23.85 11.5 L24.7 12.55 24.35 13.05 24.6 13.25 Q24.9 14.1 24.7 14.65 L23.95 15.25 23.25 14.8 Q22.9 14.35 23.0 13.65 L23.1 13.6 22.8 13.3 22.7 12.95 22.25 13.3 22.35 13.2 21.4 13.05 21.05 12.15 21.45 11.25 21.0 11.0 20.7 10.25 21.15 9.4 21.55 9.0 Q21.65 9.1 21.8 8.9 L22.75 10.25 M21.2 6.65 L21.9 7.35 Q22.15 7.8 21.7 8.3 L21.15 8.8 21.2 8.75 20.95 8.7 19.95 9.6 19.25 9.2 19.05 9.0 18.25 8.45 17.9 7.65 18.75 6.4 19.05 6.35 19.7 7.25 20.1 7.3 20.35 6.75 21.2 6.65 M26.95 9.95 L26.95 10.05 Q27.1 10.25 26.65 10.7 25.95 11.55 25.95 11.2 L25.15 10.6 24.9 9.95 25.3 9.15 25.75 8.7 26.0 8.6 26.95 9.95 M29.65 12.4 L29.75 12.65 29.4 13.25 28.75 13.75 27.95 13.2 27.6 12.6 Q27.6 12.15 28.05 11.7 L28.45 11.2 28.8 11.2 29.65 12.4 M28.65 8.75 L28.6 9.8 27.1 9.75 Q26.75 8.8 27.45 7.95 28.0 7.95 28.65 8.75 M27.4 15.85 L27.4 15.95 27.65 15.65 Q28.1 15.1 28.45 15.3 L29.05 15.8 29.15 17.2 28.3 17.65 27.65 17.4 27.5 17.1 26.95 17.6 27.0 17.65 26.95 18.7 26.05 19.2 25.3 18.85 25.25 18.25 24.9 18.7 23.9 18.5 23.55 17.6 23.95 16.6 24.9 16.55 25.15 16.9 25.1 16.3 25.0 16.45 25.4 15.7 26.95 15.5 27.4 15.85 M22.0 13.85 L21.95 14.95 21.05 15.3 20.25 15.0 20.15 13.85 20.1 13.95 20.5 13.3 Q21.0 12.75 21.35 13.15 L22.0 13.85 M20.5 19.2 Q20.85 19.1 20.1 20.0 L19.7 20.15 20.5 21.05 Q20.8 21.0 20.1 21.85 L19.4 22.35 18.65 21.95 18.5 20.9 18.4 21.0 18.6 20.65 17.85 20.4 17.45 19.45 17.8 18.7 17.25 18.5 Q17.3 17.05 17.55 16.7 L17.8 16.45 17.85 16.25 Q17.45 16.55 18.15 15.8 18.5 15.35 18.95 15.55 L19.0 15.3 19.85 15.2 20.5 15.95 Q20.85 16.45 20.4 17.0 L19.75 17.45 19.85 17.35 19.55 17.35 19.2 17.7 19.15 18.1 Q19.35 17.9 19.7 18.25 L20.5 19.2 M24.15 19.5 L23.7 20.25 23.0 20.85 22.2 20.4 22.0 19.15 21.9 19.25 22.35 18.6 23.3 18.55 24.15 19.5 M23.55 23.95 Q23.85 23.9 23.15 24.75 L22.5 25.2 21.7 24.85 21.5 23.6 21.35 23.8 Q21.4 23.5 21.75 23.05 22.2 22.5 22.75 23.05 L23.55 23.95 M25.3 24.75 L25.25 25.8 24.45 26.25 23.6 25.8 23.45 24.75 23.85 24.15 Q24.35 23.6 24.65 23.95 L25.3 24.75 M31.85 18.3 L31.95 19.7 Q31.75 20.0 31.3 20.1 L31.75 20.6 31.6 21.65 30.8 22.05 30.0 21.6 29.9 20.6 29.8 20.7 30.2 20.1 30.4 19.95 Q30.05 19.25 30.15 18.8 29.75 19.05 30.45 18.2 30.85 17.7 31.25 17.9 31.55 17.95 31.85 18.3 M26.6 25.0 L25.85 24.6 25.65 23.35 25.55 23.5 25.95 22.7 Q26.4 22.2 26.95 22.7 27.15 22.45 27.5 22.7 L28.15 23.5 28.05 24.5 27.15 24.85 26.85 24.75 26.6 25.0 M37.5 14.1 L37.9 13.5 38.85 13.45 39.45 14.15 39.65 14.15 40.15 14.55 40.2 14.65 38.0 17.15 37.5 17.0 37.35 15.8 37.25 15.9 37.75 15.2 37.5 14.1 M35.2 19.65 L34.75 18.9 Q34.65 18.4 35.05 17.9 L35.5 17.4 35.8 17.6 36.7 18.65 35.6 19.95 35.2 19.65 M35.25 16.3 L34.8 17.1 Q34.2 17.75 34.25 17.45 L33.5 17.1 33.1 16.25 Q33.0 15.9 33.45 15.35 L33.85 14.85 34.15 15.05 35.25 16.3 M32.45 13.75 L32.0 14.5 Q31.4 15.2 31.45 14.85 L30.7 14.5 30.25 13.75 Q30.2 13.3 30.65 12.85 L31.1 12.3 32.45 13.75 M33.25 22.6 L32.2 22.35 31.9 21.45 32.4 20.7 33.0 20.15 33.85 21.15 34.05 21.5 34.15 21.35 34.7 20.95 33.25 22.6 M31.25 24.7 L31.95 23.95 32.0 24.0 31.0 25.2 31.25 24.7 M19.4 3.4 L18.7 4.1 18.5 4.0 Q18.3 3.9 18.05 4.25 L17.25 3.8 17.15 2.65 17.45 2.2 17.85 1.8 18.25 1.15 Q18.95 0.3 18.9 0.7 L19.7 1.6 Q20.1 2.2 19.6 2.7 L19.5 2.85 19.4 3.4 M12.75 0.0 L13.55 0.9 Q14.05 0.3 14.4 0.7 L15.05 1.4 14.95 2.55 Q14.6 2.75 14.2 2.9 L13.35 2.5 13.3 2.4 12.95 2.6 13.05 2.5 11.95 2.25 11.65 1.35 12.1 0.5 12.75 0.0 M16.35 4.15 L17.25 5.2 Q17.65 5.75 17.2 6.2 L16.55 6.75 16.65 6.65 16.15 6.55 16.0 7.1 15.1 7.7 14.2 7.3 Q14.3 5.8 14.55 5.5 L15.3 4.75 15.5 5.0 15.75 4.7 16.35 4.15 M19.95 12.15 L20.0 12.25 20.5 12.85 Q20.85 12.7 20.1 13.55 L19.4 14.1 18.65 13.65 18.55 13.3 18.05 13.0 18.05 13.6 17.15 14.1 17.45 14.45 Q17.8 14.8 17.3 15.35 L16.8 15.85 16.5 15.7 16.45 15.8 15.85 16.3 15.0 15.9 14.75 14.7 14.7 14.75 15.1 14.15 Q15.45 13.75 15.9 13.85 L15.75 13.75 15.0 13.35 14.85 12.15 Q14.4 12.3 15.1 11.5 15.55 11.0 16.1 11.5 L16.6 12.05 16.65 12.0 Q16.85 11.75 17.05 11.8 L16.8 11.1 17.15 10.55 17.05 10.65 16.35 11.2 15.6 10.8 15.55 10.35 15.05 10.8 15.15 10.65 14.5 10.55 13.8 10.85 13.75 10.8 13.55 11.1 13.0 11.45 12.0 11.2 11.9 10.9 11.7 10.8 11.65 10.25 11.55 10.2 11.5 9.75 11.45 9.8 11.85 9.2 11.15 8.9 11.05 7.8 Q10.7 8.1 11.4 7.25 11.55 7.05 11.75 7.0 L11.4 6.1 11.85 5.35 12.5 4.85 13.25 5.75 Q13.7 6.35 13.2 6.95 L12.65 7.4 12.75 7.3 12.35 7.15 12.9 7.8 12.75 8.8 12.65 8.9 12.7 9.0 12.95 9.2 13.3 8.8 Q13.75 8.3 14.2 8.7 L14.3 8.8 Q15.0 7.95 15.0 8.4 L15.75 9.2 15.85 9.15 16.7 9.05 17.45 9.95 17.55 10.05 Q17.8 9.8 18.3 9.65 L19.35 10.85 19.15 11.25 19.95 12.15 M11.45 4.3 L11.35 5.3 10.55 5.75 9.8 5.35 9.6 4.3 9.5 4.4 10.0 3.75 Q10.45 3.2 10.8 3.5 L11.45 4.3 M8.95 7.8 Q8.35 8.5 8.35 8.25 L7.7 7.7 7.3 7.05 7.2 6.95 7.0 6.7 6.85 5.6 Q6.5 5.85 7.2 5.0 7.7 4.45 8.05 4.85 L8.7 5.6 8.7 5.75 Q9.25 5.15 9.1 5.5 L9.95 6.4 Q10.25 6.8 10.15 7.3 L10.25 7.4 10.9 8.2 10.8 9.15 9.95 9.6 9.25 9.2 9.05 8.2 9.0 8.25 9.1 7.85 8.95 7.8 M12.15 12.75 L11.8 13.8 10.95 14.5 10.05 14.1 Q10.1 12.55 10.4 12.15 L11.1 11.5 12.15 12.75 M17.75 12.1 L18.0 12.4 17.85 12.0 17.75 12.1 M6.2 5.25 L6.1 6.25 5.25 6.8 4.45 6.35 4.3 5.25 4.75 4.7 4.45 3.85 4.8 2.9 5.7 2.8 6.35 3.5 Q6.7 4.0 6.25 4.55 L5.9 4.9 6.2 5.25 M5.0 1.95 L4.55 2.7 3.95 3.15 3.3 2.65 2.9 1.95 Q2.75 1.5 3.2 1.05 L3.55 0.55 Q3.8 0.55 3.85 0.7 L5.0 1.95 M1.6 4.0 L1.6 5.35 0.8 5.9 0.4 5.75 0.15 6.4 -0.35 6.85 -1.4 6.7 -1.55 6.35 -1.65 6.35 -2.5 6.05 -2.6 4.9 -2.7 5.0 -2.2 4.35 Q-1.8 3.85 -1.4 4.15 L-0.85 4.75 -0.35 4.7 -0.05 5.15 -0.1 4.4 Q-0.55 4.65 0.2 3.85 L0.5 3.75 -0.25 3.45 -0.55 2.55 -0.2 1.65 0.65 1.5 1.35 2.3 Q1.65 2.65 1.15 3.2 L0.9 3.5 1.0 3.5 1.6 4.0 M3.0 5.5 L4.1 6.75 4.25 7.05 4.15 7.15 4.75 7.95 4.75 8.15 4.5 8.8 Q3.8 9.65 3.7 9.3 L3.0 8.75 2.65 8.1 2.7 7.7 2.55 7.55 2.2 7.65 1.45 7.3 1.35 6.15 1.15 6.35 1.65 5.65 Q2.15 5.15 2.55 5.45 L2.7 5.6 Q3.0 5.25 3.0 5.5 M-2.75 9.0 Q-2.6 8.9 -2.8 9.15 -2.75 9.1 -2.65 9.2 L-2.5 9.3 -1.55 10.1 Q-1.5 9.3 -1.25 9.0 L-0.55 8.3 0.55 9.6 0.15 10.55 -0.7 11.25 -1.55 10.85 -1.8 11.15 -2.6 11.7 -2.95 11.45 -3.1 12.35 -3.9 12.85 -4.65 12.4 -4.8 11.3 Q-5.15 11.5 -4.5 10.7 -4.0 10.2 -3.6 10.55 L-3.35 10.8 -3.65 10.35 -3.8 10.2 -4.55 9.7 -4.9 9.05 -5.25 9.2 -6.1 8.9 -6.2 7.8 -6.3 7.9 -5.85 7.3 Q-5.4 6.75 -5.0 7.05 L-4.35 7.8 -4.2 7.6 -3.9 7.65 -2.75 9.0 M4.4 13.3 L3.6 13.65 2.8 13.35 2.75 13.3 2.15 13.75 1.7 13.5 1.2 14.2 0.55 14.7 0.6 14.85 Q0.75 15.0 0.5 15.25 L1.1 15.95 0.65 16.7 Q0.0 17.45 -0.05 17.3 L-0.15 17.3 Q0.0 17.7 -0.3 18.05 L-0.9 18.55 -0.85 18.5 -1.75 18.2 -1.15 19.15 -1.05 19.35 Q-0.95 19.45 -1.4 20.0 L-2.05 20.45 -2.85 19.95 -3.15 19.2 -2.75 18.4 -2.35 17.9 -2.0 17.9 -1.95 17.95 -2.2 17.3 -1.8 16.5 -1.15 16.0 -0.95 16.2 -1.0 15.65 Q-1.3 15.85 -1.05 15.6 L-1.2 15.5 -1.5 14.7 -1.05 13.95 -0.65 13.45 -0.45 13.5 -0.35 13.25 -0.4 13.3 0.0 12.7 Q0.45 12.15 0.85 12.55 L1.05 12.75 0.95 12.55 Q1.0 12.15 1.45 11.7 L1.85 11.2 2.1 11.2 2.75 12.05 3.0 11.75 3.05 11.7 3.15 11.5 3.0 11.65 3.5 10.9 4.45 10.85 5.25 11.8 Q5.6 11.7 4.75 12.65 L4.5 12.85 4.4 13.3 M8.35 9.0 L7.8 9.75 7.2 10.3 6.4 9.9 6.2 8.6 6.05 8.75 6.55 8.1 Q7.0 7.55 7.5 7.95 L8.35 9.0 M6.4 12.55 L5.65 12.1 5.45 10.9 5.3 11.15 5.8 10.4 Q6.3 9.9 6.65 10.2 L7.15 10.7 Q7.45 10.4 7.5 10.6 L7.7 10.25 Q8.25 10.25 8.95 11.1 L8.85 12.05 8.65 12.05 8.7 12.1 8.25 12.65 Q7.85 13.05 7.5 13.0 L6.9 12.6 6.65 12.3 6.4 12.55 M8.95 15.95 L8.35 16.75 7.75 17.2 7.0 17.0 6.8 15.7 6.65 15.85 Q6.6 15.55 6.9 15.2 L6.85 14.5 Q6.5 14.75 7.2 13.95 7.65 13.45 8.05 13.75 L8.25 14.05 8.35 13.85 8.75 13.45 9.05 13.45 10.0 14.65 10.0 14.85 9.8 15.55 Q9.05 16.3 9.0 16.0 L8.95 15.95 8.65 15.7 8.85 15.95 8.95 15.95 M3.25 18.65 Q2.9 18.0 3.2 17.35 L2.8 17.3 2.6 16.0 2.55 16.1 Q2.45 15.9 2.9 15.35 3.35 14.85 3.9 15.35 L4.15 15.7 4.05 15.3 4.5 14.45 5.7 14.45 6.05 15.1 Q6.35 15.6 5.85 16.15 5.15 17.0 5.35 16.45 L4.75 16.4 4.25 17.1 4.2 17.15 4.25 17.2 4.3 17.15 Q5.1 16.25 5.0 16.6 L5.8 17.6 Q6.2 18.1 5.75 18.65 L5.25 19.1 3.25 18.65 M8.0 19.55 L8.2 20.1 Q8.35 20.55 7.9 21.0 L7.5 21.45 6.55 21.2 6.2 20.3 6.3 20.15 5.95 19.95 5.7 19.2 6.45 18.05 6.55 17.95 Q7.0 17.6 7.2 17.7 L7.6 18.0 7.8 19.65 8.0 19.55 M12.9 17.35 L12.15 17.9 11.65 17.65 11.9 17.95 11.9 18.2 12.7 19.15 Q13.05 19.05 12.3 19.95 L11.9 20.35 12.1 20.6 12.15 21.9 12.0 22.1 11.9 23.25 10.5 23.1 Q10.1 22.4 10.55 21.65 10.3 21.25 10.5 20.95 10.0 21.25 10.7 20.45 L11.15 20.25 10.8 20.1 10.65 19.4 10.15 18.95 9.8 18.0 Q9.45 18.0 10.0 17.4 L9.95 16.7 Q9.55 17.05 10.25 16.2 10.7 15.7 11.15 15.95 L11.35 16.2 11.65 15.9 Q12.1 15.3 12.5 15.8 L12.7 16.0 12.65 15.5 12.6 15.55 13.05 14.85 Q13.5 14.4 13.85 14.7 L14.5 15.5 14.45 16.5 13.55 17.0 13.3 16.8 12.9 17.35 M-0.7 24.45 L-0.75 24.5 -0.3 23.85 Q0.15 23.35 0.5 23.65 L1.05 24.3 1.1 24.4 1.85 25.2 2.25 24.8 Q2.75 24.2 3.0 24.45 L3.5 24.75 3.55 25.15 Q4.0 24.7 4.25 24.85 L4.6 24.6 4.3 24.45 4.0 23.65 Q4.0 23.4 4.5 22.9 L4.7 22.6 4.05 22.1 3.7 21.5 4.2 20.65 4.65 20.15 4.85 20.15 5.85 21.45 5.85 21.55 Q6.0 21.75 5.6 22.2 L5.3 22.5 6.05 23.65 6.45 22.7 7.4 22.5 8.05 23.3 Q8.3 23.7 7.8 24.3 L7.25 24.8 7.4 24.7 6.4 24.55 6.2 23.9 5.85 24.45 5.2 24.9 4.8 24.75 5.5 25.5 Q5.95 26.2 5.45 26.75 L5.5 26.8 4.9 27.65 3.6 28.0 3.15 28.3 2.35 27.95 2.05 27.15 2.25 26.3 2.15 26.3 2.0 26.0 1.2 26.75 1.25 26.65 0.3 26.45 0.15 25.9 -0.4 25.6 -0.4 25.7 -0.25 25.95 Q0.15 26.5 -0.3 26.95 -1.0 27.8 -0.85 27.4 L-1.85 27.1 -2.2 26.2 -2.2 26.05 -2.5 25.2 -2.05 24.5 -1.4 23.95 -0.6 24.9 -0.7 24.45 M1.85 20.7 L2.15 20.4 2.05 19.75 Q1.7 20.05 2.4 19.2 L3.35 19.15 4.2 20.15 3.35 21.25 Q3.7 21.75 3.3 22.2 L2.7 22.65 2.75 22.6 1.65 22.35 1.4 21.45 1.85 20.7 M10.9 26.0 Q10.3 26.65 10.3 26.45 L9.6 26.0 9.25 25.3 Q9.1 24.8 9.55 24.3 L9.95 23.85 10.25 23.95 11.35 25.2 11.85 24.7 12.1 24.6 12.4 24.9 12.7 24.9 13.85 26.0 13.8 26.3 13.45 26.75 12.7 27.35 12.4 27.15 12.1 27.1 11.25 26.6 10.95 25.95 10.9 26.0 M16.35 13.65 L16.35 13.3 16.0 13.75 16.35 13.65 M16.3 19.5 Q16.65 19.4 15.9 20.3 L15.3 20.7 14.45 20.4 14.4 20.25 14.2 20.1 13.25 19.95 Q13.0 18.85 13.1 18.2 L13.55 18.2 Q13.5 17.9 13.7 17.65 L14.15 17.15 14.35 17.3 16.3 19.5 M14.95 22.35 L15.9 23.4 15.95 23.35 Q16.35 22.9 16.5 23.0 L16.65 23.05 17.75 24.0 17.75 24.45 17.3 24.9 Q16.85 25.4 16.6 25.35 L16.0 25.05 15.55 24.0 15.4 23.95 14.75 24.6 13.85 24.2 13.7 23.05 Q13.3 23.25 14.05 22.4 L14.95 22.35 M19.9 23.65 Q20.25 23.55 19.5 24.45 L19.25 24.7 Q18.8 25.15 18.9 24.85 L18.05 24.55 17.85 23.65 17.85 23.55 17.8 23.35 Q17.45 23.6 18.1 22.9 L18.6 22.25 18.8 22.4 19.9 23.65 M23.1 27.95 L21.95 29.15 21.1 28.65 20.95 28.1 Q20.7 28.3 20.4 28.45 L19.65 27.85 19.3 27.2 Q19.3 26.85 19.75 26.35 L20.2 25.9 20.45 25.95 21.2 26.9 22.15 26.85 22.4 27.15 22.3 26.65 22.7 26.1 23.3 25.5 24.45 26.85 24.55 27.1 24.1 27.65 Q23.7 28.1 23.3 28.05 L23.1 27.95 M18.6 29.65 Q18.9 29.6 18.15 30.45 17.5 31.2 17.55 30.9 L16.85 30.45 16.45 29.65 Q16.35 29.25 16.75 28.85 L17.2 28.3 17.5 28.4 18.6 29.65 M19.75 31.6 L19.75 31.8 19.5 32.45 Q18.75 33.3 18.75 32.85 L17.95 32.3 17.65 31.7 Q17.65 31.3 18.05 30.8 L18.5 30.35 18.75 30.4 19.75 31.6 M10.2 28.4 Q10.45 28.4 10.15 28.85 L10.25 28.9 10.75 29.2 10.85 30.6 10.1 31.2 9.35 30.8 Q9.05 30.3 9.1 29.65 L9.05 29.75 8.35 29.3 8.4 29.25 7.55 29.15 7.15 29.2 6.55 28.9 Q6.2 28.15 6.3 27.7 5.85 27.95 6.55 27.1 7.0 26.6 7.4 26.8 L7.85 27.1 8.45 27.05 8.75 27.4 9.4 27.5 10.2 28.4 M15.85 30.4 L14.95 31.5 15.15 31.8 15.3 33.1 14.4 33.65 13.8 33.35 Q13.35 32.7 13.5 32.2 13.05 32.45 13.75 31.6 14.05 31.3 14.35 31.3 L14.1 31.1 13.65 30.4 Q13.6 29.9 14.05 29.45 L14.4 29.0 14.7 29.05 15.85 30.4 M11.05 32.5 L11.65 33.2 Q11.9 33.65 11.4 34.2 L11.05 34.6 10.05 34.35 9.7 33.5 10.05 32.6 11.05 32.5 M10.8 35.5 L10.3 36.25 9.7 36.75 8.9 36.35 8.7 36.85 8.1 37.25 8.2 37.15 7.25 36.95 6.95 36.05 7.25 35.2 8.2 35.05 8.8 35.7 8.7 35.2 8.65 35.25 9.0 34.55 9.95 34.5 10.8 35.5 M19.2 36.15 L19.1 37.25 18.3 37.75 17.5 37.3 17.35 36.15 17.75 35.7 Q18.25 35.15 18.6 35.45 L19.2 36.15 M5.05 31.0 L5.0 31.05 5.4 30.45 6.35 30.4 6.6 30.7 7.15 30.6 7.75 31.25 Q8.05 31.85 7.6 32.3 L7.05 32.8 7.15 32.7 6.7 32.7 6.5 32.9 5.9 33.4 5.95 33.35 5.05 33.1 4.7 32.25 5.1 31.3 5.05 31.0 M1.25 30.7 L0.3 30.35 Q0.4 28.85 0.65 28.45 L1.4 27.8 1.8 28.3 Q2.2 27.85 2.2 28.1 L3.0 29.05 3.25 29.9 3.6 30.4 Q3.9 30.8 3.45 31.3 L2.95 31.8 2.0 31.5 1.65 30.65 1.8 30.45 1.25 30.7 M0.95 35.1 L0.8 35.25 0.9 35.5 Q0.2 36.35 -0.65 35.85 L-0.75 35.15 Q-1.25 35.7 -1.15 35.35 L-2.2 35.1 -2.4 34.8 Q-2.85 35.35 -3.15 35.25 L-3.75 34.95 -4.1 34.0 Q-4.45 34.0 -3.75 33.2 -3.3 32.7 -3.15 32.85 L-3.1 32.9 -2.2 33.6 -2.1 33.45 Q-1.3 32.5 -1.35 32.9 L-0.35 34.2 -0.15 34.2 -0.3 33.5 0.2 32.8 0.8 32.25 1.65 33.3 1.6 32.7 1.5 32.8 1.95 32.2 Q2.4 31.6 2.85 32.0 L3.6 32.85 3.15 33.7 2.45 34.2 1.7 33.85 1.4 34.35 Q1.75 34.05 2.2 34.5 L2.8 35.2 2.7 34.95 3.3 34.0 4.15 33.5 5.2 34.75 5.85 34.85 6.65 35.75 Q6.95 35.7 6.2 36.6 L5.5 37.05 4.75 36.7 4.75 36.6 3.95 36.4 3.8 36.05 3.05 36.0 2.95 35.75 2.6 36.25 Q1.95 36.95 1.95 36.7 L1.15 36.35 0.95 35.1 1.1 34.65 0.9 34.8 1.0 34.6 0.5 34.55 0.95 35.1 M4.2 40.45 L3.95 39.3 Q3.6 39.55 4.3 38.7 4.55 38.45 4.75 38.45 L4.85 38.2 Q5.65 37.3 5.5 37.75 L6.35 38.65 Q6.85 39.25 6.35 39.8 L6.3 39.85 6.4 39.95 Q6.6 40.3 6.2 40.85 L5.75 41.35 4.75 41.1 4.6 40.7 4.2 40.45 M1.65 40.0 Q1.5 39.95 1.8 39.6 L1.7 39.6 1.35 38.65 1.75 37.7 2.7 37.55 3.35 38.35 Q3.55 38.7 3.15 39.25 L3.85 40.0 3.9 40.3 3.45 40.85 2.7 41.35 2.1 41.05 1.65 40.0 M9.1 41.85 L10.0 42.85 Q10.45 43.35 9.95 43.95 L9.3 44.4 9.4 44.3 8.4 44.05 8.05 43.1 8.5 42.45 9.1 41.85 M10.75 40.45 L11.4 41.25 Q11.65 41.6 11.2 42.15 L10.75 42.6 9.8 42.5 9.4 41.55 9.85 40.5 10.75 40.45 M1.65 41.55 L1.2 42.3 Q0.6 42.95 0.65 42.65 L0.2 42.5 Q0.6 42.95 0.6 43.55 -0.15 44.35 -0.9 43.85 L-1.0 43.35 -1.2 43.25 -1.75 42.9 -2.2 41.95 -2.25 42.3 -2.65 42.75 -3.35 43.25 -4.0 42.9 -4.45 41.9 Q-4.7 41.95 -4.0 41.15 -3.65 40.75 -3.55 40.85 L-3.3 40.85 -2.35 41.85 -1.85 41.15 Q-1.4 40.7 -1.25 40.85 L-1.2 40.9 -0.45 41.45 Q-0.55 41.05 -0.15 40.6 L0.3 40.1 0.55 40.25 1.65 41.55 M1.95 43.1 L2.8 44.1 Q3.2 44.65 2.75 45.2 2.05 46.0 2.2 45.55 L1.1 45.3 0.85 44.35 1.25 43.75 1.95 43.1 M5.25 42.55 L6.05 43.45 Q6.55 44.05 6.05 44.6 L5.45 45.1 5.5 44.95 4.5 44.65 4.4 44.55 3.65 44.35 3.35 43.45 3.7 42.55 4.6 42.45 4.85 42.75 Q5.3 42.25 5.25 42.55 M6.1 46.7 Q6.3 46.65 5.9 47.05 L6.4 47.6 Q6.8 48.2 6.35 48.7 L5.95 49.1 6.6 49.9 6.8 50.2 6.35 50.65 Q5.9 51.2 5.5 51.05 L4.85 50.5 4.55 49.75 Q4.25 49.85 4.9 49.05 L5.1 48.85 4.75 48.85 4.45 47.9 Q4.3 47.85 4.6 47.55 L4.3 47.35 4.0 46.65 Q3.9 46.2 4.3 45.75 L4.75 45.25 5.0 45.4 6.1 46.7 M11.15 47.3 L11.45 47.65 9.95 49.4 9.6 48.7 10.2 47.7 Q10.4 47.55 11.15 47.3 M7.75 46.05 L8.5 46.95 Q8.9 47.35 8.4 47.9 L7.9 48.45 7.9 48.4 6.95 48.15 6.65 47.3 7.15 46.5 Q7.85 45.7 7.75 46.05 M2.55 46.95 L3.6 48.1 3.6 48.3 3.2 48.8 2.45 49.35 1.85 48.95 1.4 48.0 Q1.05 48.0 1.75 47.2 2.2 46.7 2.35 46.9 L2.55 46.95 M15.05 42.9 L15.1 43.2 15.3 43.15 15.35 43.2 12.35 46.7 11.85 46.5 11.5 45.75 Q11.45 45.45 11.95 44.85 L12.4 44.35 12.65 44.4 13.0 44.8 13.15 44.35 13.9 44.25 13.35 44.0 13.2 42.9 13.1 43.05 13.55 42.45 Q14.05 41.85 14.4 42.2 L15.05 42.9 M11.65 38.35 L12.5 39.35 Q12.95 39.85 12.45 40.4 L11.8 40.9 11.9 40.8 10.85 40.45 10.55 39.6 11.05 38.9 Q11.8 38.05 11.65 38.35 M27.8 28.1 L27.65 26.9 28.05 26.35 Q28.4 25.95 28.75 26.2 L28.8 26.1 29.4 25.5 30.05 26.3 28.3 28.3 27.8 28.1 M21.35 35.55 L20.9 34.85 Q20.8 34.3 21.15 33.9 L21.6 33.4 21.95 33.5 22.85 34.55 21.75 35.8 21.35 35.55 M25.6 30.15 L25.55 31.25 24.0 31.1 Q23.6 30.15 24.35 29.35 L25.6 30.15 M7.3 52.5 L7.85 51.55 8.25 51.15 8.5 51.1 7.3 52.5 M0.75 57.3 Q0.65 57.45 1.0 57.85 1.15 58.15 0.65 58.75 L0.25 59.1 -0.65 58.85 -1.0 58.0 -0.45 57.15 0.75 57.3 M3.6 54.6 L4.6 55.6 3.4 57.0 3.0 56.65 2.55 55.7 Q2.2 55.7 2.9 54.9 3.35 54.4 3.5 54.6 L3.6 54.6 M0.3 48.25 L1.4 49.55 1.5 49.9 1.05 50.35 Q0.65 50.8 0.25 50.65 L-0.3 50.3 -0.7 50.75 -1.45 51.25 -2.0 50.85 -2.5 49.95 Q-2.75 50.0 -2.05 49.15 -1.6 48.7 -1.5 48.8 L-1.35 48.85 -0.85 49.4 -0.35 48.75 Q0.35 47.9 0.3 48.25 M-4.35 -52.95 L-4.45 -51.8 -5.25 -51.35 -6.1 -51.8 -6.3 -52.5 -6.25 -52.55 -6.35 -52.75 -6.45 -53.85 -6.6 -53.7 -6.1 -54.45 Q-5.65 -54.9 -5.25 -54.6 L-4.6 -53.85 -4.6 -53.25 -4.35 -52.95 M-8.1 -48.95 L-8.9 -48.55 -9.7 -48.9 -9.85 -50.0 -9.9 -49.9 -9.45 -50.5 -9.2 -50.7 -9.05 -51.0 -8.3 -51.75 -7.25 -50.45 Q-7.5 -49.6 -7.65 -49.45 L-8.1 -48.95 M-4.3 -46.55 L-5.2 -47.05 -5.15 -47.55 -5.9 -48.05 -6.2 -48.8 -5.8 -49.55 -5.4 -50.1 -5.05 -50.1 -4.4 -49.2 -4.2 -49.45 -3.95 -49.2 -3.35 -49.15 -2.5 -48.1 -3.0 -47.45 -3.6 -46.9 -3.7 -46.9 -4.3 -46.55 M-39.65 -11.8 Q-39.45 -11.9 -40.15 -11.05 L-40.65 -10.65 -41.45 -11.05 -41.85 -11.65 -41.85 -11.8 -41.45 -12.75 -41.05 -13.2 -40.8 -13.1 -39.65 -11.8 M-40.8 -9.85 L-40.0 -8.9 Q-39.5 -8.35 -40.0 -7.75 L-40.6 -7.35 -40.55 -7.4 -41.55 -7.7 -41.9 -8.6 -41.4 -9.35 Q-40.7 -10.2 -40.8 -9.85 M-51.15 -2.45 L-51.35 -2.85 -50.25 -4.15 -49.4 -3.15 -49.35 -3.0 -49.3 -2.8 -49.7 -2.4 -50.25 -1.95 -50.55 -1.95 -51.15 -2.45 M-43.1 -9.85 L-43.05 -8.4 Q-43.3 -8.05 -43.8 -7.85 L-44.5 -8.15 -44.65 -8.45 -44.85 -9.3 -44.45 -9.9 Q-44.05 -10.4 -43.7 -10.15 L-43.25 -10.05 -43.1 -9.85 M-40.8 -0.95 L-40.0 0.0 Q-39.6 0.55 -40.05 1.1 -40.75 1.9 -40.55 1.5 L-41.65 1.3 -41.9 0.3 -41.45 -0.4 -40.8 -0.95 M-44.4 -4.45 L-43.6 -3.5 Q-43.15 -2.85 -43.6 -2.4 -44.3 -1.55 -44.15 -1.95 L-45.25 -2.2 -45.5 -3.15 -45.05 -3.95 -44.4 -4.45 M-41.15 -5.05 L-40.25 -4.1 Q-39.85 -3.55 -40.3 -3.0 L-40.85 -2.5 -40.8 -2.55 -41.85 -2.85 -42.15 -3.9 -41.7 -4.55 -41.15 -5.05 M-1.95 -44.4 Q-1.65 -44.45 -2.45 -43.55 L-3.1 -43.05 -3.3 -43.3 -3.6 -43.0 -3.35 -42.75 -2.5 -41.75 Q-2.2 -41.9 -3.0 -41.1 L-3.6 -40.5 Q-4.0 -40.7 -4.4 -40.95 L-4.6 -42.05 Q-5.0 -42.0 -4.45 -42.65 L-4.95 -42.8 -5.2 -44.0 -5.25 -43.95 -4.9 -44.65 -3.95 -44.7 -3.6 -45.1 Q-3.15 -45.65 -2.7 -45.25 L-1.95 -44.4 M-8.25 -45.4 L-8.45 -46.45 -8.05 -47.05 -8.0 -47.1 -7.8 -47.35 Q-7.3 -47.9 -6.9 -47.45 L-6.15 -46.55 Q-5.8 -46.65 -6.6 -45.85 L-6.65 -45.75 -6.65 -45.55 -5.8 -44.35 -5.8 -44.2 Q-5.65 -44.0 -6.1 -43.5 -6.75 -42.75 -6.8 -43.05 L-7.1 -43.3 Q-7.8 -42.6 -7.8 -42.7 L-8.6 -43.1 -8.8 -44.4 -8.45 -44.95 -7.85 -45.25 -8.25 -45.4 M-7.4 -37.25 L-7.5 -36.1 -8.25 -35.7 -9.15 -36.1 -9.2 -36.8 -9.8 -37.25 -10.25 -38.0 -10.1 -38.25 -10.4 -38.3 -11.15 -38.8 -11.55 -39.5 -11.05 -40.4 -10.65 -40.9 Q-10.55 -40.7 -10.35 -40.9 L-9.4 -39.55 -9.4 -39.45 -9.35 -39.2 -9.15 -39.2 -7.4 -37.25 M-3.65 -39.95 Q-3.3 -40.05 -4.1 -39.1 -4.7 -38.45 -4.8 -38.6 L-5.5 -38.9 -5.7 -40.15 Q-6.15 -40.05 -5.45 -40.9 -5.0 -41.4 -4.45 -40.9 L-3.65 -39.95 M-14.75 -44.45 L-15.25 -44.4 -14.65 -45.05 -14.75 -44.45 M-10.7 -48.7 L-10.85 -47.7 -11.7 -47.2 -12.45 -47.55 -11.1 -49.15 -10.7 -48.7 M-13.55 -41.8 L-13.55 -41.7 Q-13.4 -41.5 -13.85 -41.0 -14.55 -40.15 -14.55 -40.55 L-15.35 -41.15 -15.75 -41.7 -15.7 -41.75 -15.25 -42.65 -14.8 -43.1 -14.55 -43.05 -13.55 -41.8 M-16.4 -41.8 L-16.35 -41.6 Q-16.25 -41.5 -16.6 -41.1 -17.3 -40.25 -17.3 -40.5 L-18.15 -41.1 -16.9 -42.5 -16.4 -41.8 M-15.9 -38.5 Q-15.65 -37.65 -15.8 -37.1 L-16.55 -36.5 -17.25 -36.95 Q-17.55 -37.35 -17.5 -37.95 -17.9 -37.7 -17.2 -38.5 -16.7 -39.05 -16.4 -38.8 L-15.9 -38.5 M-10.45 -43.25 L-10.55 -42.2 -12.05 -42.35 Q-12.4 -43.25 -11.7 -44.1 -11.15 -44.1 -10.45 -43.25 M-12.1 -40.1 L-12.25 -39.05 -13.05 -38.6 -13.85 -38.95 -13.95 -40.1 -14.05 -40.0 -13.6 -40.6 Q-13.1 -41.2 -12.75 -40.9 L-12.1 -40.1 M-11.15 -33.25 L-11.9 -32.9 -12.7 -33.25 -12.9 -34.4 -12.9 -34.5 -13.1 -34.65 -13.3 -35.7 -12.95 -36.2 Q-12.5 -36.75 -12.2 -36.6 L-11.9 -36.25 -11.85 -36.2 -11.75 -36.2 -11.55 -35.95 -11.3 -34.7 -11.05 -34.4 -11.15 -33.25 Q-10.65 -33.85 -10.25 -33.5 L-9.65 -32.75 -9.75 -31.65 -10.1 -31.45 -9.65 -30.9 -9.7 -29.85 -10.55 -29.35 -11.35 -29.75 -11.5 -30.9 -11.05 -31.4 -11.25 -31.65 -11.5 -32.75 -11.6 -32.65 -11.15 -33.25 M-14.3 -35.65 L-14.45 -34.5 Q-14.5 -34.45 -15.25 -34.1 L-16.05 -34.5 -16.15 -35.65 -16.3 -35.55 -15.85 -36.15 Q-15.4 -36.7 -14.95 -36.45 L-14.3 -35.65 M-13.75 -33.0 L-13.9 -32.05 -14.7 -31.55 -15.5 -31.85 -15.65 -33.0 -15.25 -33.6 Q-14.8 -34.15 -14.45 -33.8 L-13.75 -33.0 M-17.75 -30.6 L-17.7 -30.55 Q-17.55 -30.3 -17.95 -29.85 -18.7 -29.05 -18.75 -29.35 L-19.55 -29.9 -19.8 -30.6 Q-19.9 -30.9 -19.4 -31.45 L-18.95 -32.0 Q-18.85 -31.8 -18.7 -31.85 L-17.75 -30.6 M-15.3 -28.4 Q-14.95 -28.5 -15.75 -27.65 -16.05 -27.35 -16.4 -27.1 L-16.65 -27.2 -16.95 -27.1 -17.7 -27.55 -17.9 -28.6 -17.5 -29.15 Q-17.15 -29.55 -16.75 -29.45 -16.45 -29.7 -16.1 -29.35 L-15.3 -28.4 M-20.2 -24.65 L-20.55 -25.0 Q-20.9 -24.7 -20.9 -24.85 L-21.75 -25.35 -22.05 -26.15 -21.6 -27.0 -21.25 -27.4 -20.9 -27.4 -20.75 -27.25 -20.6 -27.4 -20.35 -27.4 -19.7 -26.6 -19.15 -26.45 -18.35 -25.5 Q-18.05 -25.6 -18.8 -24.75 L-19.45 -24.25 -20.2 -24.65 M-13.25 -29.9 L-13.3 -28.8 -14.15 -28.3 -14.95 -28.75 -15.1 -29.9 -15.2 -29.75 -14.7 -30.45 Q-14.25 -30.95 -13.9 -30.65 L-13.25 -29.9 M-13.45 -25.25 L-12.85 -24.4 Q-12.15 -25.25 -12.25 -24.9 L-11.45 -23.95 Q-10.95 -23.4 -11.45 -22.8 -11.85 -22.3 -12.05 -22.35 L-11.95 -22.45 -13.0 -22.75 Q-13.4 -22.45 -13.45 -22.6 L-14.25 -23.2 -14.6 -23.95 -14.1 -24.75 -13.7 -25.2 Q-13.6 -25.05 -13.45 -25.25 L-13.55 -25.25 -13.65 -26.4 Q-13.95 -26.2 -13.6 -26.6 L-15.15 -26.7 Q-15.5 -27.65 -14.8 -28.45 -14.2 -28.4 -13.5 -27.6 L-13.6 -26.6 -13.35 -26.9 Q-12.9 -27.35 -12.45 -27.1 L-11.8 -26.4 -11.95 -25.3 -12.8 -24.9 -13.45 -25.25 M-3.65 -32.9 Q-3.35 -32.95 -4.05 -32.15 -4.65 -31.45 -4.65 -31.7 L-5.4 -32.15 -5.75 -32.85 -5.45 -33.75 -5.0 -34.2 -4.7 -34.15 -3.65 -32.9 M-3.45 -35.95 L-3.65 -34.95 Q-3.7 -34.8 -4.45 -34.45 L-4.7 -34.5 Q-4.95 -34.4 -4.9 -34.6 L-5.65 -35.0 -6.0 -35.7 Q-6.1 -36.1 -5.65 -36.6 L-5.2 -37.1 -5.05 -37.05 -4.7 -36.7 -4.1 -36.75 -3.45 -35.95 M-6.1 -32.6 L-6.3 -32.1 -5.75 -31.45 -5.8 -30.35 -6.7 -30.0 -7.45 -30.35 -7.5 -30.95 -8.25 -31.35 Q-8.15 -31.55 -8.2 -31.85 L-8.7 -32.1 Q-9.05 -32.7 -9.0 -33.25 -9.4 -33.0 -8.7 -33.85 -8.25 -34.35 -7.85 -34.1 -7.6 -34.1 -7.3 -33.75 L-7.2 -33.85 -6.1 -32.6 M-5.0 -28.7 Q-4.7 -28.85 -5.5 -28.0 L-6.1 -27.4 -6.9 -27.8 -7.05 -28.9 -6.65 -29.45 Q-6.2 -29.95 -5.75 -29.6 L-5.0 -28.7 M-8.4 -28.1 L-8.7 -27.05 -9.6 -26.45 -10.55 -26.8 Q-10.45 -28.3 -10.1 -28.7 L-9.45 -29.35 -8.4 -28.1 M-7.25 -24.25 Q-6.95 -24.3 -7.65 -23.5 L-8.3 -22.95 -9.1 -23.4 -9.25 -24.4 -9.35 -24.3 -8.9 -24.95 Q-8.45 -25.5 -8.0 -25.15 L-7.25 -24.25 M-3.85 -24.9 L-3.85 -24.75 Q-3.7 -24.6 -4.1 -24.05 -4.85 -23.25 -4.85 -23.65 L-5.65 -24.15 -6.0 -24.85 -5.65 -25.45 -5.7 -25.75 -6.05 -25.35 Q-6.65 -24.7 -6.7 -24.9 L-7.45 -25.25 -7.65 -26.5 Q-8.05 -26.35 -7.35 -27.1 -6.9 -27.65 -6.35 -27.1 L-5.7 -26.4 -5.45 -26.7 -4.45 -26.8 -4.05 -26.4 -3.75 -26.75 -2.8 -26.8 -1.95 -25.8 Q-1.65 -26.0 -2.45 -25.15 L-3.05 -24.6 -3.85 -24.9 -3.9 -25.3 -4.05 -25.15 -3.85 -24.9 M-31.1 -24.9 Q-30.8 -25.0 -31.55 -24.1 L-32.2 -23.65 -33.0 -23.95 -31.65 -25.5 -31.1 -24.9 M-24.35 -32.4 L-24.45 -31.4 Q-24.5 -31.35 -24.9 -31.15 L-25.3 -30.95 -26.05 -31.35 -26.1 -31.85 -25.0 -33.15 -24.35 -32.4 M-20.4 -31.15 L-20.55 -30.15 Q-20.6 -30.05 -21.4 -29.65 L-22.15 -30.0 -22.3 -31.15 -22.4 -31.05 -21.9 -31.7 Q-21.45 -32.25 -21.1 -31.85 L-20.4 -31.15 M-27.9 -29.6 L-28.0 -28.45 Q-28.05 -28.4 -28.85 -28.1 L-29.25 -28.25 -28.0 -29.7 -27.9 -29.6 M-26.0 -24.1 L-26.1 -23.15 Q-26.2 -22.95 -26.9 -22.65 L-27.75 -22.95 -27.85 -24.1 -27.95 -24.0 -27.55 -24.6 -28.25 -24.9 -28.45 -26.1 -28.05 -26.65 -27.2 -26.75 -26.6 -26.1 -26.65 -25.0 -26.75 -24.9 -26.65 -24.9 -26.0 -24.1 M-23.05 -27.8 Q-23.3 -26.95 -23.5 -26.75 L-24.3 -26.1 -25.2 -26.5 Q-25.1 -28.0 -24.85 -28.3 L-24.15 -29.05 -23.05 -27.8 M-21.25 -21.3 L-21.35 -20.2 -22.15 -19.7 -23.0 -20.2 -23.1 -20.55 -23.65 -20.0 -24.4 -20.45 -24.6 -21.7 Q-25.0 -21.45 -24.3 -22.3 L-23.35 -22.35 -23.25 -22.5 -23.15 -22.6 -23.8 -22.95 -23.95 -24.05 -24.0 -24.0 -23.65 -24.7 Q-23.15 -25.25 -22.75 -24.85 L-22.0 -23.95 Q-21.6 -24.0 -22.35 -23.2 L-22.65 -22.9 -22.55 -22.9 -21.6 -21.75 -21.25 -21.3 M-18.95 -21.05 Q-18.65 -21.15 -19.4 -20.3 L-20.0 -19.85 -20.8 -20.2 -21.1 -21.35 -21.15 -21.3 -20.7 -21.95 Q-20.2 -22.5 -19.7 -21.95 L-18.95 -21.05 M-20.4 -15.55 L-21.25 -14.9 -22.15 -15.35 -21.9 -16.9 -21.95 -16.95 -22.6 -17.5 -22.95 -18.2 Q-23.2 -18.3 -22.65 -18.95 -21.85 -19.85 -21.9 -19.4 L-20.9 -18.3 -20.25 -18.15 -19.45 -17.25 Q-19.1 -17.35 -19.9 -16.45 L-20.2 -16.1 -20.4 -15.55 M-30.55 -17.85 Q-30.25 -17.95 -31.0 -17.05 L-31.65 -16.6 -32.45 -16.9 -32.7 -18.15 -32.75 -18.1 -32.3 -18.75 Q-31.85 -19.25 -31.45 -18.9 L-31.5 -19.05 -31.05 -19.9 -30.6 -20.45 -30.35 -20.4 -29.4 -19.2 -29.35 -19.0 Q-29.25 -18.9 -29.7 -18.35 -30.4 -17.55 -30.35 -17.85 L-30.8 -18.1 -30.55 -17.85 M-24.95 -18.4 L-25.0 -17.35 -25.8 -16.9 -26.6 -17.3 -26.8 -18.4 -26.35 -18.95 Q-25.95 -19.4 -25.55 -19.1 L-24.95 -18.4 M-27.6 -17.05 L-27.8 -16.05 -28.6 -15.55 -29.35 -16.0 -29.45 -17.05 Q-29.8 -16.85 -29.15 -17.6 -28.65 -18.15 -28.25 -17.85 L-27.6 -17.05 M-27.35 -11.65 L-27.5 -10.55 -29.0 -10.75 Q-29.3 -11.55 -28.8 -12.1 -29.1 -12.5 -29.0 -12.85 L-28.65 -13.4 Q-28.2 -13.9 -27.85 -13.7 -27.6 -13.7 -27.25 -13.3 L-27.2 -11.85 -27.35 -11.65 M-23.55 -14.9 L-23.6 -13.8 -24.4 -13.4 -25.3 -13.75 -25.3 -14.4 -25.65 -14.6 -26.05 -15.25 -25.65 -16.25 -25.3 -16.65 -24.95 -16.55 -23.55 -14.9 M-18.85 -12.8 L-19.4 -12.0 -20.0 -11.5 -20.75 -11.85 -20.9 -13.05 -20.55 -13.45 Q-20.05 -14.0 -19.6 -13.65 L-18.85 -12.8 M-30.45 -22.85 L-30.5 -21.8 -32.05 -21.95 -32.2 -22.75 -31.7 -23.7 -31.45 -23.65 -30.45 -22.85 M-34.15 -22.0 Q-33.85 -22.15 -34.6 -21.2 L-35.25 -20.75 -35.65 -20.9 -34.45 -22.3 -34.15 -22.0 M-34.65 -17.55 L-35.2 -16.75 -35.8 -16.25 -36.6 -16.65 -36.8 -17.85 -36.9 -17.75 -36.5 -18.4 Q-36.1 -18.9 -35.75 -18.7 L-35.5 -18.5 -34.65 -17.55 M-38.3 -17.85 Q-38.05 -17.9 -38.75 -17.05 -39.4 -16.35 -39.4 -16.6 L-38.3 -17.85 M-35.25 -13.7 Q-35.0 -13.75 -35.7 -13.0 L-36.4 -12.4 -37.15 -12.8 -37.4 -14.0 -37.05 -14.65 Q-36.6 -15.15 -36.05 -14.65 L-35.25 -13.7 M-31.6 -14.55 Q-31.45 -14.35 -31.85 -13.8 -32.55 -13.1 -32.6 -13.4 L-33.4 -13.95 -33.7 -14.6 -33.3 -15.45 -33.0 -15.8 -32.85 -16.0 -32.2 -16.1 Q-31.95 -15.8 -31.75 -15.85 -31.55 -15.1 -31.65 -14.6 L-31.6 -14.55 M-33.3 -10.2 L-33.25 -10.05 Q-33.15 -9.9 -33.55 -9.35 -34.2 -8.65 -34.2 -8.9 L-34.6 -9.05 -33.9 -8.25 Q-33.45 -7.7 -33.95 -7.15 L-34.5 -6.65 -34.45 -6.7 -35.45 -7.1 -35.85 -8.0 -35.35 -8.7 -34.75 -9.25 -35.05 -9.45 -35.4 -10.15 -34.9 -10.95 -34.5 -11.5 -34.25 -11.5 -33.3 -10.2 M-35.25 -6.65 L-35.75 -6.0 -36.25 -5.6 -37.0 -5.95 -37.45 -6.65 -37.05 -7.65 -36.6 -8.1 Q-36.45 -7.95 -36.35 -7.95 L-35.25 -6.65 M-32.3 -3.3 L-31.65 -2.55 Q-31.4 -2.1 -31.8 -1.6 L-32.35 -1.15 -32.3 -1.2 -33.3 -1.3 -33.6 -2.15 -33.2 -3.15 -32.3 -3.3 M-37.2 -5.7 L-36.4 -4.75 Q-35.95 -4.25 -36.45 -3.65 L-37.0 -3.15 -36.95 -3.25 -38.0 -3.55 -38.3 -4.45 -37.8 -5.2 -37.2 -5.7 M-21.35 -9.25 L-21.45 -9.9 -21.55 -10.15 -21.55 -10.25 -21.55 -10.5 Q-21.95 -10.35 -21.3 -11.05 L-20.85 -11.6 -20.55 -11.5 -19.65 -10.45 -19.2 -10.45 -18.85 -9.8 Q-18.7 -9.3 -19.1 -8.85 -19.8 -8.0 -19.6 -8.55 -20.05 -8.4 -20.65 -8.85 L-20.7 -9.0 -21.35 -9.25 M-26.35 -8.0 L-26.35 -7.75 Q-26.2 -7.55 -26.6 -7.15 -27.25 -6.35 -27.3 -6.65 L-28.15 -7.2 -28.5 -7.95 -28.0 -8.75 -27.6 -9.2 -27.35 -9.25 -26.35 -8.0 M-28.7 -4.7 Q-28.4 -3.8 -28.6 -3.3 L-29.35 -2.7 -30.15 -3.05 -30.3 -4.15 -29.95 -4.6 Q-29.45 -5.15 -29.2 -5.0 L-28.7 -4.7 M-24.3 -2.1 Q-24.0 -1.05 -24.2 -0.7 L-25.0 -0.15 -25.65 -0.55 -25.9 -1.65 Q-26.3 -1.45 -25.65 -2.15 -25.15 -2.75 -24.8 -2.55 L-24.3 -2.1 M-19.7 -2.2 L-19.65 -2.05 Q-19.55 -1.9 -20.0 -1.45 -20.7 -0.6 -20.65 -0.95 L-21.45 -1.5 -21.75 -2.15 -21.35 -3.0 -20.9 -3.5 -20.6 -3.5 -19.7 -2.2 M-20.8 -4.15 L-21.3 -3.4 Q-21.95 -2.7 -21.85 -2.95 L-22.55 -3.35 -22.95 -4.2 -22.65 -5.0 -22.2 -5.5 -21.95 -5.45 -20.8 -4.15 M0.0 -21.7 L-0.45 -21.0 -1.05 -20.45 -1.85 -20.8 -2.1 -22.0 -2.2 -21.9 -1.85 -22.55 -0.85 -22.65 0.0 -21.7 M-2.5 -22.05 Q-2.2 -22.15 -3.0 -21.2 -3.65 -20.5 -3.65 -20.75 L-4.3 -21.0 -4.6 -20.6 -5.25 -20.15 -6.05 -20.5 -6.3 -21.7 -6.4 -21.5 -6.3 -21.95 -6.95 -22.05 -7.25 -22.95 -6.75 -23.7 -6.15 -24.25 -5.25 -23.25 Q-5.0 -22.85 -5.1 -22.45 L-5.0 -22.3 -4.55 -21.8 -4.6 -22.35 Q-5.05 -22.15 -4.35 -22.9 L-3.3 -22.95 -2.5 -22.05 M-6.95 -20.0 L-7.45 -19.35 -7.65 -19.1 Q-7.6 -18.95 -7.85 -18.7 L-8.45 -18.2 -8.4 -18.3 -9.35 -18.5 -9.75 -19.5 -9.25 -20.2 -9.0 -20.5 -9.7 -20.8 -9.9 -22.05 Q-10.3 -21.75 -9.6 -22.55 L-8.6 -22.65 -7.8 -21.75 Q-7.6 -21.7 -8.0 -21.2 L-6.95 -20.0 M-1.85 -11.0 L-1.95 -10.05 -2.75 -9.55 -1.95 -8.65 Q-1.55 -8.05 -2.05 -7.5 L-2.4 -7.15 -1.75 -6.35 Q-1.45 -6.3 -1.85 -5.9 L-1.55 -5.6 -1.65 -4.55 -3.15 -4.75 -3.3 -5.15 -3.55 -5.45 -3.8 -6.6 -3.85 -6.55 -3.4 -7.35 -3.6 -7.4 -3.9 -8.25 -3.45 -9.0 -2.85 -9.55 -3.6 -10.05 -3.7 -11.0 -3.3 -11.6 -3.1 -11.7 -3.55 -11.85 -3.9 -12.8 -4.55 -13.3 -4.9 -13.9 -4.55 -14.65 -4.6 -14.95 Q-4.7 -15.35 -4.3 -15.85 L-4.0 -16.15 -4.65 -16.3 -4.95 -17.05 -5.2 -16.75 Q-5.85 -16.05 -5.8 -16.25 L-6.65 -16.65 -6.9 -17.85 -6.5 -18.4 -5.6 -18.45 -4.85 -17.6 -4.55 -18.15 -3.7 -18.3 -3.05 -17.55 Q-2.75 -17.05 -3.2 -16.6 L-3.6 -16.15 -2.55 -14.95 Q-2.2 -15.1 -3.0 -14.25 L-2.8 -14.0 -1.95 -13.05 Q-1.65 -12.75 -2.15 -12.15 L-2.5 -11.8 -1.85 -11.0 M-10.4 -18.1 L-10.25 -16.75 -10.05 -16.6 -10.0 -16.55 -9.2 -15.55 -9.1 -15.45 Q-9.05 -15.05 -9.35 -14.65 L-9.9 -14.1 -9.85 -14.25 -10.8 -14.4 -10.95 -14.85 -11.25 -15.55 -11.15 -16.1 -11.8 -16.45 -12.05 -17.6 -12.15 -17.5 -12.3 -17.55 -12.25 -17.6 -12.7 -17.75 -12.25 -17.25 Q-11.95 -17.3 -12.7 -16.45 L-12.4 -16.15 -12.4 -15.95 -12.25 -16.0 -11.35 -14.95 Q-11.0 -14.4 -11.45 -13.9 -12.15 -13.1 -11.9 -13.45 L-12.65 -13.65 -12.55 -13.6 -12.45 -12.2 -13.35 -11.7 -13.95 -12.0 Q-14.35 -12.6 -14.2 -13.2 -14.7 -12.9 -14.0 -13.7 -13.55 -14.25 -13.1 -14.05 L-13.4 -14.65 -14.15 -15.05 -14.25 -16.15 -14.35 -16.05 -14.15 -16.4 -14.3 -17.6 -14.5 -17.45 -14.05 -18.15 -13.45 -18.35 -13.6 -18.8 -13.15 -19.55 Q-12.4 -20.45 -12.5 -20.0 L-11.7 -19.1 Q-11.35 -18.75 -11.6 -18.35 L-10.95 -18.45 -10.4 -18.1 M-7.05 -9.9 L-6.75 -9.9 -6.2 -9.05 -6.1 -9.5 -6.5 -9.8 -6.85 -10.5 -6.6 -11.35 -7.2 -11.55 -7.5 -12.4 -7.3 -12.8 -7.7 -12.8 -7.8 -12.2 -8.6 -11.8 -9.35 -12.15 -9.6 -13.3 -9.65 -13.2 -9.2 -13.8 Q-8.7 -14.4 -8.4 -14.0 L-8.05 -13.65 -8.1 -13.8 -7.5 -14.8 -6.65 -15.25 -5.55 -14.0 -6.05 -13.35 -5.55 -12.8 -5.4 -12.45 -5.25 -12.55 Q-4.85 -13.1 -4.45 -12.8 L-3.8 -12.0 -3.85 -10.95 -4.65 -10.45 -5.2 -9.8 -5.3 -9.6 -5.1 -9.6 -4.5 -8.95 Q-4.1 -8.55 -4.6 -7.95 L-5.2 -7.4 -5.1 -7.5 -5.65 -7.65 Q-5.6 -7.2 -5.85 -6.9 L-6.25 -6.4 -5.6 -5.7 Q-5.4 -5.45 -5.55 -5.0 L-5.3 -4.75 Q-5.0 -4.85 -5.7 -4.1 L-5.5 -3.8 Q-5.1 -3.25 -5.6 -2.7 L-5.9 -2.25 -5.85 -2.2 Q-5.55 -2.4 -6.3 -1.5 L-7.0 -0.95 -7.55 -1.3 -7.2 -0.85 -7.25 -0.55 -7.65 -0.05 -8.4 0.5 -8.9 0.15 -9.4 -0.75 Q-9.75 -0.75 -9.05 -1.6 -8.6 -2.1 -8.45 -1.9 L-8.3 -1.9 -7.85 -1.35 -7.95 -2.5 Q-8.4 -2.4 -7.65 -3.15 -7.5 -3.35 -7.35 -3.15 L-7.5 -3.5 -7.55 -3.55 -7.8 -3.3 Q-8.45 -2.55 -8.45 -2.95 L-9.3 -3.4 -9.6 -4.15 -8.7 -5.4 -8.45 -5.45 -7.5 -4.15 -7.5 -4.0 -7.35 -3.8 -7.2 -4.0 -7.5 -5.5 -7.2 -6.35 -6.45 -6.4 -7.45 -6.65 -7.6 -7.0 -7.65 -6.95 -8.6 -7.4 -8.3 -9.05 -9.15 -9.25 -9.45 -10.15 -9.1 -11.2 -8.15 -11.3 -7.5 -10.5 -7.45 -9.85 -7.3 -9.6 -7.05 -9.9 M-14.85 -20.6 Q-14.6 -19.8 -14.7 -19.3 -14.55 -19.1 -14.95 -18.6 L-15.05 -18.5 -14.95 -18.45 Q-14.6 -17.9 -15.05 -17.45 -15.75 -16.6 -15.55 -17.0 L-16.65 -17.3 -17.0 -18.15 -16.55 -18.8 -16.75 -19.4 -16.4 -20.25 -16.6 -20.5 -16.85 -21.65 -16.9 -21.5 Q-17.0 -21.8 -16.7 -22.15 L-17.3 -22.2 Q-17.7 -23.15 -17.0 -23.95 L-15.8 -23.2 -15.8 -22.55 -15.55 -22.3 -14.75 -21.35 Q-14.45 -21.45 -15.1 -20.75 L-14.85 -20.6 M-17.35 -19.95 L-17.55 -18.95 -18.3 -18.5 -19.1 -18.9 -19.2 -19.95 -19.35 -19.85 -18.9 -20.5 Q-18.4 -21.05 -18.05 -20.75 L-17.35 -19.95 M-15.25 -14.4 Q-15.05 -14.4 -15.75 -13.6 L-16.4 -13.1 -16.3 -12.75 -16.65 -12.25 Q-17.1 -11.8 -17.5 -11.85 L-18.15 -12.3 -18.5 -13.15 Q-18.75 -13.15 -18.2 -13.75 L-17.8 -14.25 -18.4 -14.55 -18.65 -15.65 -18.3 -16.05 Q-17.8 -16.6 -17.5 -16.45 L-17.05 -16.1 -16.85 -15.35 Q-16.55 -15.65 -16.05 -15.35 L-15.25 -14.4 M-17.45 -14.3 L-17.3 -14.1 -17.35 -14.35 -17.45 -14.3 M-12.8 -8.95 L-13.55 -9.3 -13.75 -10.55 -13.95 -10.4 -13.45 -11.05 Q-13.0 -11.6 -12.45 -11.2 -12.2 -11.4 -11.9 -11.2 L-11.25 -10.45 -11.35 -9.3 -12.2 -8.9 -12.45 -9.05 -12.8 -8.95 M-16.85 -5.35 L-17.05 -5.05 -16.75 -4.75 Q-16.55 -4.4 -17.05 -3.8 -17.75 -3.0 -17.55 -3.5 L-18.4 -3.7 -18.8 -4.55 -18.35 -5.35 -18.4 -5.75 Q-19.0 -5.05 -18.95 -5.4 L-19.75 -5.95 -20.1 -6.65 -19.7 -7.5 -19.3 -8.0 Q-19.1 -7.8 -18.95 -8.0 L-18.25 -6.95 -17.2 -7.0 -16.95 -6.65 -17.1 -7.15 -16.75 -7.75 -16.1 -8.25 -15.25 -7.25 -14.85 -7.65 -14.95 -7.7 -15.8 -8.0 -15.95 -9.05 -15.55 -9.6 Q-15.1 -10.2 -14.75 -9.85 L-14.1 -9.05 -14.2 -8.05 -14.25 -8.0 -14.15 -8.0 -13.05 -6.9 -13.05 -6.6 -13.5 -6.1 Q-13.95 -5.65 -14.2 -5.6 L-14.75 -5.95 -15.1 -6.4 -15.3 -6.2 Q-15.75 -5.7 -16.1 -5.9 L-16.35 -5.9 -16.85 -5.35 M-10.0 -5.9 L-10.25 -5.65 -10.25 -5.4 Q-11.0 -4.5 -11.75 -5.0 L-11.8 -6.65 -11.7 -6.65 -11.75 -6.9 -11.35 -7.45 Q-10.95 -7.95 -10.7 -7.7 L-10.65 -7.75 -9.95 -8.35 -9.15 -7.4 Q-8.75 -6.65 -9.2 -6.2 -9.9 -5.4 -9.7 -5.9 L-10.0 -5.9 M-15.8 -9.9 L-16.3 -9.2 -16.95 -8.6 -17.7 -8.95 -17.9 -10.2 -18.05 -10.1 -17.65 -10.75 Q-17.15 -11.35 -16.65 -10.9 L-15.8 -9.9 M-16.4 1.0 L-16.85 1.7 -17.45 2.2 -18.15 1.7 -18.45 1.0 -18.2 0.15 -17.75 -0.35 -17.5 -0.3 -16.4 1.0 M-13.75 -3.65 L-13.9 -2.7 -15.35 -2.75 Q-15.8 -3.6 -15.05 -4.5 -14.5 -4.5 -13.75 -3.65 M-14.85 0.05 L-14.45 -0.75 -14.0 -1.3 -13.7 -1.25 -12.75 0.0 -12.35 -0.05 -12.25 -0.05 -11.05 1.1 -11.1 1.4 -11.55 1.9 Q-11.95 2.4 -12.2 2.4 L-12.85 2.0 -13.0 1.8 -13.35 2.35 Q-14.05 3.15 -13.75 2.7 -14.25 2.8 -14.8 2.4 L-15.1 1.6 -14.65 0.7 -14.55 0.75 -14.85 0.05 M-11.65 -3.1 L-10.6 -1.9 -10.45 -1.6 -10.9 -1.15 Q-11.3 -0.6 -11.65 -0.7 -11.7 -0.65 -12.3 -1.15 L-12.65 -1.95 -12.3 -2.65 -11.65 -3.1 M-5.6 -11.5 L-5.6 -11.6 -5.65 -11.55 -5.6 -11.5 M-4.1 -5.4 L-3.35 -4.5 Q-3.05 -4.0 -3.45 -3.5 L-4.1 -3.0 -4.0 -3.1 -5.0 -3.25 -5.25 -4.1 -4.9 -4.85 Q-4.05 -5.8 -4.1 -5.4 M-2.8 2.8 L-3.45 3.4 -3.8 3.25 -3.9 3.15 -4.7 2.85 -4.95 1.6 -4.55 1.05 -3.65 1.0 -3.25 0.0 -2.25 -0.1 -1.65 0.55 Q-1.35 1.1 -1.85 1.65 -2.5 2.4 -2.25 2.0 L-2.7 2.0 -2.75 2.1 Q-2.7 2.55 -2.8 2.8 M-5.45 2.0 L-5.55 3.15 -6.4 3.5 -7.2 3.15 -7.3 2.0 -7.4 2.2 -6.95 1.5 Q-6.45 1.0 -6.1 1.3 L-5.45 2.0 M-7.25 3.85 Q-7.05 3.8 -7.3 4.15 L-7.25 4.25 -7.25 4.6 -7.6 5.0 Q-8.1 5.6 -8.45 5.6 -8.5 5.55 -9.0 5.25 L-9.45 4.3 Q-9.65 4.25 -9.35 3.9 L-9.0 2.95 -8.6 2.55 -8.3 2.6 -7.25 3.85 M-5.1 4.4 Q-4.4 5.25 -4.4 5.85 -5.1 6.7 -5.9 6.2 L-6.05 4.45 -5.1 4.4 M-6.4 9.3 L-6.85 10.05 -7.5 10.55 -7.8 10.5 -8.05 10.55 -8.85 10.25 -9.05 9.05 -8.6 8.55 Q-8.25 8.2 -7.95 8.3 L-7.25 8.4 -6.4 9.3 M-5.25 12.25 L-5.2 12.6 -5.65 13.05 Q-6.15 13.6 -6.45 13.6 L-7.05 13.2 -7.5 12.3 Q-7.8 12.25 -7.05 11.45 -6.65 10.9 -6.45 11.15 L-5.25 12.25 M-15.5 5.25 L-15.55 6.25 -16.4 6.75 -15.5 7.7 Q-15.15 8.3 -15.65 8.85 -16.0 9.3 -16.25 9.3 L-16.1 9.15 -17.15 8.85 -17.5 7.95 -16.5 6.75 -17.15 6.35 -17.3 5.3 -17.35 5.35 -16.95 4.7 Q-16.7 4.45 -16.65 4.55 L-16.65 3.9 Q-17.0 4.15 -16.35 3.4 -15.85 2.85 -15.55 3.0 L-15.15 3.25 Q-14.9 3.9 -14.95 4.45 L-14.55 3.75 -13.9 3.2 -13.05 4.15 Q-12.7 4.7 -13.15 5.3 L-13.7 5.8 -13.6 5.65 -14.65 5.35 -15.05 4.65 -15.5 5.25 M-12.45 7.95 L-13.3 7.55 -13.45 6.45 -13.05 6.05 Q-12.65 5.55 -12.25 5.75 -12.15 5.6 -11.9 5.75 -11.55 5.3 -11.15 5.5 L-10.6 5.85 -10.55 7.3 -11.45 7.8 -11.6 7.7 Q-11.85 8.1 -11.65 7.65 L-11.9 7.85 -12.45 7.95 M-20.15 2.4 L-20.15 2.65 Q-19.95 2.4 -20.0 2.6 L-19.15 3.5 Q-18.75 4.15 -19.2 4.7 L-19.8 5.2 -19.7 5.0 -20.75 4.7 -21.1 3.85 -21.85 3.45 -22.0 2.4 -22.1 2.55 -21.75 1.8 Q-21.25 1.3 -20.8 1.65 L-20.15 2.4 M-19.05 8.2 L-19.15 9.15 -19.45 9.35 -20.0 9.95 -20.0 9.9 -21.0 9.6 -21.35 8.7 -20.95 7.9 Q-20.3 7.15 -20.25 7.4 -20.0 7.1 -19.7 7.4 L-19.05 8.2 M-18.65 13.05 L-19.0 12.9 Q-18.9 13.25 -19.15 13.55 -19.9 14.4 -19.7 13.95 L-20.2 13.85 -19.75 14.4 Q-19.3 14.95 -19.75 15.55 L-20.3 16.0 -20.25 15.95 -21.35 15.6 -21.55 14.95 -21.6 15.9 -23.15 15.8 Q-23.55 14.8 -22.8 14.05 -22.3 14.05 -21.6 14.75 L-21.2 13.85 -20.9 13.55 -21.15 12.85 -20.65 12.1 -20.0 11.5 -19.4 12.15 -19.5 11.55 Q-19.9 11.85 -19.15 11.1 L-19.0 10.85 -18.7 10.5 -18.1 9.95 -17.25 10.85 Q-16.95 11.25 -17.05 11.75 L-17.0 11.8 Q-16.6 12.25 -17.1 12.85 L-17.7 13.35 -17.6 13.25 -18.5 13.05 -18.65 13.05 M-14.15 9.95 L-14.6 10.9 -15.4 11.5 -16.4 11.15 Q-16.25 9.7 -15.95 9.35 L-15.3 8.6 -14.15 9.95 M-9.45 12.15 Q-9.15 12.05 -9.9 12.95 L-10.55 13.45 -11.3 13.05 -11.5 12.55 Q-12.05 13.15 -12.05 12.75 L-12.9 12.25 -13.25 11.65 -12.75 10.65 -12.7 10.6 -12.8 10.25 -12.4 9.3 -11.5 9.1 -10.85 9.9 Q-10.6 10.35 -11.05 10.85 L-11.3 11.2 -11.25 11.25 Q-10.85 10.7 -10.3 11.25 L-9.45 12.15 M-10.0 16.55 L-10.5 17.4 -11.15 17.9 -11.9 17.5 -12.15 16.25 -12.25 16.4 -11.75 15.7 Q-11.6 15.55 -11.35 15.55 L-11.65 14.7 -11.3 13.8 -10.4 13.6 -9.75 14.4 Q-9.45 14.8 -9.95 15.35 L-10.4 15.85 -10.4 15.8 -10.8 15.7 -10.0 16.55 M-13.05 13.65 Q-12.8 13.6 -13.55 14.5 L-13.7 14.7 -12.7 16.15 Q-12.55 16.25 -13.0 16.75 L-13.65 17.3 -14.1 17.05 -14.7 17.6 -15.05 17.45 -15.15 17.6 -15.4 17.9 -15.9 18.3 -16.95 18.1 -17.25 17.3 -16.85 16.25 -16.75 16.3 -16.55 15.95 -15.8 15.85 -15.4 15.35 -14.5 15.3 -14.35 15.2 -14.2 15.0 Q-14.55 14.85 -14.95 14.65 L-15.5 14.65 -15.9 13.55 -15.3 12.65 -14.45 12.1 -13.05 13.65 M-10.55 20.45 Q-10.3 20.4 -11.0 21.2 L-11.65 21.75 -12.4 21.35 -12.7 20.15 Q-13.05 20.35 -12.5 19.75 L-13.0 20.05 -12.9 19.95 -13.85 19.7 -14.15 18.85 -13.75 17.9 -12.9 17.75 -12.25 18.55 Q-11.9 19.05 -12.25 19.5 -11.9 19.05 -11.35 19.5 L-10.55 20.45 M-15.45 23.1 Q-16.05 23.8 -16.0 23.5 L-16.75 23.1 -17.1 22.35 Q-17.2 21.95 -16.75 21.5 L-16.35 20.95 -16.1 21.05 -15.85 21.45 -15.45 20.45 -14.55 20.4 -13.35 21.8 Q-13.05 22.1 -13.55 22.65 L-14.0 23.2 -14.9 23.0 -15.15 22.7 -15.45 23.1 M-18.65 18.85 L-17.5 20.15 -18.1 20.95 -18.35 21.15 -17.95 22.15 Q-18.75 23.0 -19.5 22.45 L-19.7 21.35 -20.05 20.35 -19.5 19.35 Q-19.35 19.15 -18.65 18.85 M-18.4 24.4 L-18.3 25.45 -17.95 24.6 -17.0 24.5 -16.35 25.2 -16.25 25.45 -16.05 25.5 -15.05 26.6 -14.95 26.9 -15.4 27.45 -16.15 27.95 -16.7 27.55 -17.15 26.65 -17.95 26.5 -18.3 25.7 Q-18.65 26.1 -19.1 26.3 L-19.8 26.0 -20.1 25.15 -20.1 25.05 -21.1 24.9 -21.35 23.95 -20.95 23.05 -20.1 22.95 -19.45 23.65 -19.3 23.95 -18.95 23.95 -18.4 24.4 M-10.85 21.45 L-9.75 22.65 -9.6 23.0 -10.0 23.5 Q-10.45 23.95 -10.9 23.85 L-11.5 23.4 -11.8 22.5 -11.5 21.9 Q-10.8 21.05 -10.85 21.45 M-5.85 16.3 Q-5.55 16.2 -6.3 17.1 L-6.45 17.3 -5.85 18.2 -5.75 18.3 Q-5.65 18.5 -6.1 18.95 L-6.8 19.5 -7.6 18.95 -7.9 18.25 Q-7.95 17.95 -7.45 17.4 L-7.7 17.2 -8.0 16.0 -8.05 16.1 -7.8 15.55 -8.45 15.55 Q-8.8 14.55 -8.1 13.75 -7.55 13.6 -6.85 14.45 L-6.95 15.2 -6.7 15.35 -5.85 16.3 M-7.85 19.1 L-7.25 19.75 Q-6.95 20.25 -7.4 20.7 L-7.85 21.2 -8.85 21.0 -9.2 20.15 -8.75 19.15 -7.85 19.1 M-3.55 21.55 L-3.7 22.6 -3.75 22.65 Q-3.65 23.2 -3.9 23.5 L-4.2 23.8 -3.7 24.1 -3.6 25.45 -4.45 26.0 -5.1 25.7 -5.4 24.55 Q-5.75 24.75 -5.1 23.95 L-4.95 23.85 -5.55 23.6 -5.85 22.7 -5.4 21.9 -5.3 21.85 -5.4 21.55 -5.5 21.65 -5.05 21.0 Q-4.55 20.45 -4.2 20.75 L-3.55 21.55 M-8.1 21.55 Q-7.85 22.35 -8.1 22.95 L-8.8 23.6 -9.45 23.1 Q-9.8 22.6 -9.75 22.05 L-9.4 21.55 Q-9.0 21.0 -8.6 21.2 L-8.1 21.55 M-28.7 6.65 L-28.05 7.35 Q-27.8 7.8 -28.2 8.3 L-28.75 8.8 -28.7 8.75 -29.15 8.75 -28.65 9.3 -28.5 9.65 -28.95 10.1 Q-29.35 10.6 -29.75 10.4 L-30.35 10.0 -30.75 9.15 Q-31.0 9.2 -30.35 8.5 L-29.85 8.1 -30.0 7.7 -29.65 6.7 -28.7 6.65 M-1.35 20.75 L-0.25 22.05 -0.35 22.4 -0.65 22.9 -1.2 23.35 -2.15 23.0 -2.5 22.1 -2.4 21.95 Q-2.45 21.55 -2.1 21.15 L-1.65 20.65 -1.5 20.85 -1.35 20.75 M-25.8 11.8 L-25.75 12.0 Q-25.65 12.1 -26.05 12.6 L-26.75 13.15 -27.6 12.65 -27.9 11.95 -27.4 11.0 -27.0 10.55 -26.7 10.55 -25.8 11.8 M-21.85 9.35 L-21.9 10.4 Q-22.0 10.55 -22.75 10.9 L-23.1 10.65 -23.35 11.4 -23.95 11.8 -23.9 11.75 -24.95 11.45 -25.3 10.55 -24.75 9.8 -24.5 9.6 -24.7 9.2 -24.3 8.55 -23.6 7.95 -23.05 8.6 Q-22.75 8.45 -22.5 8.6 L-21.85 9.35 M-25.2 16.25 L-25.55 15.55 -25.9 15.1 -26.25 14.35 Q-26.6 14.4 -25.95 13.6 -25.2 12.85 -25.3 13.2 L-23.65 15.05 Q-23.15 15.65 -23.65 16.2 L-24.25 16.6 -24.2 16.55 -25.2 16.25 M-31.15 23.7 L-30.8 24.45 -30.8 24.7 -31.6 23.7 -31.15 23.7 M-36.9 13.15 L-35.8 14.15 -35.8 14.5 -36.25 15.0 Q-36.65 15.55 -36.95 15.5 L-37.55 15.1 -38.05 14.2 Q-38.3 14.25 -37.6 13.45 L-37.05 13.05 -36.9 13.15 M-33.9 14.7 L-32.75 16.0 -32.7 16.3 -33.05 16.75 Q-33.5 17.3 -33.9 17.2 L-34.5 16.75 -34.9 15.9 -34.5 15.25 -33.9 14.7 M-39.5 8.25 Q-38.8 9.05 -38.8 9.7 -39.55 10.55 -40.4 10.0 L-40.45 8.3 -39.5 8.25 M-34.75 8.55 L-34.15 9.2 Q-33.85 9.75 -34.3 10.3 -35.0 11.1 -34.75 10.65 L-35.75 10.5 -36.05 9.6 -35.75 8.7 -34.75 8.55 M-36.8 3.75 L-36.1 4.45 Q-35.8 4.95 -36.25 5.5 -36.95 6.25 -36.8 5.85 L-37.75 5.75 -38.05 4.75 -37.65 3.85 -36.8 3.75 M-33.65 5.3 L-33.0 6.05 Q-32.75 6.45 -33.25 7.05 L-33.8 7.55 -33.65 7.4 -34.65 7.3 -35.0 6.4 -34.6 5.5 -33.65 5.3 M-35.25 -0.3 L-34.15 1.0 -34.75 1.75 Q-35.05 2.1 -36.35 2.25 L-36.65 1.2 -36.1 0.2 -35.25 -0.3 M-31.2 1.2 L-30.55 1.95 Q-30.25 2.35 -30.75 2.9 L-31.25 3.4 -31.2 3.3 -32.15 3.15 -32.45 2.3 -32.1 1.35 -31.2 1.2 M-21.45 20.0 L-20.85 20.55 -20.85 20.9 -21.25 21.35 -22.0 21.85 -22.6 21.55 -23.0 20.6 Q-23.3 20.6 -22.65 19.8 L-22.7 19.75 -23.1 18.85 -22.55 18.05 Q-22.05 17.5 -21.95 17.6 L-21.75 17.3 -21.4 17.3 Q-20.75 18.0 -20.6 18.6 L-20.5 18.7 -20.8 19.35 -21.45 20.0 -21.45 19.8 -21.55 19.8 -21.45 20.0 M-29.2 17.1 L-29.6 16.4 -29.1 15.5 -28.7 15.0 -28.4 15.0 -28.25 15.1 -27.8 14.7 -26.9 15.7 Q-26.55 16.25 -26.95 16.75 L-27.25 17.1 -27.05 17.05 -26.65 17.65 Q-26.4 18.1 -26.9 18.7 -27.6 19.5 -27.4 18.9 -27.85 19.05 -28.45 18.6 L-28.7 17.9 -28.55 17.6 -29.2 17.1 M-24.15 18.25 L-23.35 19.15 Q-22.95 19.75 -23.35 20.3 L-23.9 20.65 -25.0 20.4 -25.2 19.5 Q-25.5 19.45 -24.85 18.7 -24.1 17.8 -24.15 18.25 M-24.8 22.15 L-24.55 22.65 Q-24.35 23.05 -24.85 23.6 -25.5 24.4 -25.3 23.95 L-26.2 23.8 -26.6 22.9 -26.0 22.05 -24.8 22.15 M-29.45 19.75 L-28.35 21.05 -28.2 21.5 -28.6 21.9 Q-29.05 22.4 -29.45 22.25 L-30.05 21.85 -30.5 20.95 -30.05 20.35 -29.45 19.75 M-22.9 21.85 Q-22.55 22.7 -22.75 23.25 L-23.55 23.85 -24.25 23.4 -24.4 22.35 Q-24.85 22.7 -24.15 21.9 -23.65 21.35 -23.3 21.5 L-22.9 21.85 M-20.25 32.25 L-19.1 33.35 Q-19.3 33.5 -19.1 33.7 L-19.55 34.2 Q-20.0 34.75 -20.25 34.6 L-20.9 34.25 -21.4 33.35 Q-21.7 33.4 -20.95 32.55 L-20.4 32.2 -20.25 32.25 M-22.9 27.4 Q-22.15 28.15 -22.15 28.85 -22.95 29.65 -23.7 29.2 L-23.75 27.5 -22.9 27.4 M-18.15 27.7 L-17.5 28.4 Q-17.2 28.9 -17.7 29.45 L-18.15 29.8 -19.05 29.65 -19.35 29.3 -20.05 29.85 -20.6 29.5 -21.1 28.55 Q-21.4 28.55 -20.7 27.75 -20.25 27.2 -20.1 27.45 L-20.0 27.45 -19.15 28.25 -19.05 27.85 -18.15 27.7 M-26.1 26.2 L-25.0 27.35 -24.95 27.65 -25.4 28.1 -26.15 28.6 -26.75 28.15 -27.25 27.2 -26.8 26.5 -26.25 26.1 -26.1 26.2 M-2.45 27.35 L-2.5 28.35 -3.3 28.85 -4.1 28.35 -4.3 27.35 -4.35 27.4 -3.9 26.75 Q-3.4 26.2 -3.1 26.55 L-2.45 27.35 M-1.15 31.85 L-1.95 32.25 -2.7 31.9 -2.85 30.7 -2.65 30.45 -2.8 30.0 -2.35 29.3 -1.75 28.75 -0.85 29.75 Q-0.4 30.3 -0.9 30.8 L-1.05 31.0 -1.15 31.85 M-5.15 28.55 L-5.25 29.55 -5.0 29.35 -4.1 30.4 Q-3.75 30.95 -4.25 31.5 -4.95 32.3 -4.7 31.85 L-5.75 31.6 -6.1 30.65 -5.5 29.8 -6.15 30.05 -6.9 29.65 -7.0 28.55 Q-7.3 28.75 -7.05 28.45 L-7.35 27.7 -7.0 27.05 Q-6.3 26.25 -6.35 26.55 L-5.25 27.8 -5.15 28.05 -5.4 28.3 -5.15 28.55 M-10.05 32.3 L-10.9 31.9 -11.1 31.9 -11.75 31.35 -12.15 30.6 -11.7 29.9 -11.15 29.45 -10.65 30.0 -10.4 29.65 -10.05 29.65 -9.45 30.5 -9.35 30.4 -8.15 30.4 Q-7.8 30.8 -7.85 31.1 -7.55 31.55 -8.0 32.1 -8.7 32.85 -8.55 32.45 -9.0 32.5 -9.6 32.0 L-10.05 32.3 M-3.95 37.75 L-3.85 37.85 Q-3.7 38.05 -4.1 38.5 -4.85 39.35 -4.85 38.95 L-5.65 38.4 -6.0 37.8 Q-6.05 37.45 -5.55 36.9 L-5.1 36.4 -4.8 36.4 Q-4.1 37.15 -3.95 37.75 M-4.95 33.95 L-5.0 35.05 -6.25 35.1 -5.6 35.8 -5.5 36.05 -5.65 36.3 Q-5.55 36.55 -6.0 37.0 -6.7 37.85 -6.35 37.3 L-7.3 37.15 -7.7 36.3 -7.5 36.0 -7.7 35.65 -7.3 35.05 -6.75 34.5 -6.7 34.55 Q-6.7 33.85 -6.15 33.2 -5.6 33.2 -4.95 33.95 M-10.55 27.5 Q-10.3 27.45 -11.0 28.25 -11.6 28.95 -11.55 28.6 L-12.3 28.25 -12.5 27.85 -13.0 27.8 -13.4 26.85 -12.95 25.9 -12.05 25.8 -10.55 27.5 M-10.85 35.45 L-10.85 35.55 Q-10.65 35.75 -11.05 36.25 -11.75 37.0 -11.8 36.7 -12.15 36.5 -12.55 36.25 L-12.9 35.55 Q-12.9 35.2 -12.4 34.6 L-12.05 34.2 -11.7 34.2 Q-11.1 34.9 -10.85 35.45 M-8.45 38.45 L-8.05 39.0 Q-7.9 39.5 -8.4 40.0 -9.1 40.85 -8.75 40.3 -9.25 40.4 -9.8 40.0 L-10.05 39.35 -9.65 38.35 -8.45 38.45 M-6.25 41.0 Q-5.9 41.85 -6.15 42.35 L-6.85 43.05 -7.6 42.55 -7.8 41.45 -7.45 41.1 Q-6.95 40.5 -6.65 40.7 L-6.25 41.0 M-6.2 43.55 L-5.9 44.1 Q-5.75 44.4 -6.25 44.95 L-6.7 45.4 -7.6 45.2 -7.95 44.3 -7.4 43.4 -6.2 43.55 M-1.75 43.55 L-1.6 44.9 -2.5 45.45 -3.15 45.2 -3.25 45.1 -3.4 45.25 Q-3.8 45.7 -4.25 45.55 L-4.85 45.15 -5.2 44.3 Q-5.45 44.3 -4.85 43.65 -4.1 42.8 -4.2 43.1 L-3.55 43.85 -3.15 43.4 Q-2.7 42.9 -2.35 43.1 L-1.75 43.55 M-1.5 52.15 L-1.05 52.85 Q-0.9 53.25 -1.35 53.75 -2.05 54.6 -1.85 54.1 -2.25 54.2 -2.85 53.75 L-3.15 53.1 -2.7 52.05 -1.5 52.15 M-42.7 7.05 L-41.7 8.15 -41.65 8.45 -42.05 8.9 Q-42.5 9.4 -42.85 9.4 L-43.35 9.05 -43.85 8.15 -43.45 7.35 Q-43.0 6.85 -42.9 7.0 L-42.7 7.05 M-47.8 4.6 L-47.45 5.25 -47.4 5.55 -48.3 4.55 -47.8 4.6 M-46.1 0.7 L-44.95 1.95 -44.9 2.3 -45.3 2.7 Q-45.7 3.2 -46.1 3.15 L-46.7 2.7 -47.15 1.8 -46.7 1.2 Q-45.95 0.3 -46.1 0.7" fill="#23141b" fill-rule="evenodd" stroke="none"/>
  </g>
</svg>
