<?xml version="1.0" encoding="UTF-8" standalone="no"?>
<svg xmlns:ffdec="https://www.free-decompiler.com/flash" xmlns:xlink="http://www.w3.org/1999/xlink" ffdec:objectType="shape" height="38.7px" width="25.1px" xmlns="http://www.w3.org/2000/svg">
  <g transform="matrix(1.0, 0.0, 0.0, 1.0, 13.2, 20.0)">
    <path d="M-2.65 -17.35 L-1.35 -17.15 Q2.85 -16.35 5.6 -14.6 8.35 -12.85 8.05 -11.15 L7.9 -10.65 Q5.9 -12.2 3.25 -13.55 0.75 -14.75 -1.5 -15.35 L-2.65 -17.35" fill="#4b6a61" fill-rule="evenodd" stroke="none"/>
    <path d="M7.9 -10.65 L10.05 -8.6 Q12.55 -5.85 11.65 -4.05 10.8 -2.3 7.1 -2.6 3.5 -2.85 -0.75 -4.9 L-0.6 -5.3 Q0.3 -7.95 -0.3 -11.4 -0.7 -13.55 -1.5 -15.35 0.75 -14.75 3.25 -13.55 5.9 -12.2 7.9 -10.65" fill="#4f7f69" fill-rule="evenodd" stroke="none"/>
    <path d="M-1.65 -4.05 L-1.6 -3.85 Q-1.25 -1.8 0.15 -1.3 L0.75 -1.15 0.75 -1.05 Q2.25 -0.7 3.65 0.15 L3.75 0.2 Q7.1 2.4 7.95 7.05 8.45 10.1 7.05 13.25 5.0 17.6 -0.1 18.5 -6.45 19.65 -9.7 14.7 -11.3 12.0 -11.55 10.5 -12.4 5.8 -9.85 2.5 -8.85 1.3 -7.55 0.45 L-7.65 0.3 -7.45 0.2 Q-6.6 -0.35 -6.35 -1.3 -6.15 -2.05 -6.35 -3.05 L-6.35 -3.2 -6.4 -3.3 -4.05 -3.75 -4.0 -3.75 -1.7 -4.15 -1.65 -4.05 M3.8 10.3 L3.7 10.05 3.3 9.25 -4.0 -3.75 3.3 9.25 3.7 10.05 3.8 10.3 M3.3 9.25 L2.8 8.9 Q1.95 8.3 1.0 8.5 0.0 8.65 -0.55 9.45 -1.1 10.25 -1.1 11.15 -1.1 10.25 -0.55 9.45 0.0 8.65 1.0 8.5 1.95 8.3 2.8 8.9 L3.3 9.25 M-6.4 11.25 L-6.5 11.65 -6.5 12.1 -6.5 11.65 -6.4 11.25 -4.05 -3.75 -6.4 11.25 -6.05 10.45 Q-5.45 9.65 -4.5 9.45 -3.5 9.25 -2.7 9.85 -1.95 10.35 -1.7 11.25 -1.95 10.35 -2.7 9.85 -3.5 9.25 -4.5 9.45 -5.45 9.65 -6.05 10.45 L-6.4 11.25" fill="#66ff98" fill-rule="evenodd" stroke="none"/>
    <path d="M-6.35 -3.2 L-6.4 -3.2 -6.9 -3.7 -7.85 -4.9 -8.2 -5.4 -8.6 -5.95 -10.35 -7.95 -10.85 -8.35 -11.0 -8.55 Q-12.5 -9.65 -13.0 -12.1 -13.5 -14.45 -12.85 -16.35 -12.35 -17.95 -10.95 -19.0 -9.55 -20.1 -7.9 -20.0 -4.5 -19.9 -2.7 -17.4 L-2.65 -17.35 -1.5 -15.35 Q-0.7 -13.55 -0.3 -11.4 0.3 -7.95 -0.6 -5.3 L-0.75 -4.9 -1.05 -4.15 -1.65 -4.05 -1.7 -4.15 -4.0 -3.75 -4.05 -3.75 -6.4 -3.3 -6.35 -3.2" fill="url(#gradient0)" fill-rule="evenodd" stroke="none"/>
    <path d="M-4.0 -3.75 L3.3 9.25 3.7 10.05 3.8 10.3 M-4.05 -3.75 L-6.4 11.25 -6.05 10.45 Q-5.45 9.65 -4.5 9.45 -3.5 9.25 -2.7 9.85 -1.95 10.35 -1.7 11.25 M-6.5 12.1 L-6.5 11.65 -6.4 11.25 M-1.1 11.15 Q-1.1 10.25 -0.55 9.45 0.0 8.65 1.0 8.5 1.95 8.3 2.8 8.9 L3.3 9.25" fill="none" stroke="#e1ffa4" stroke-linecap="butt" stroke-linejoin="miter-clip" stroke-miterlimit="3.0" stroke-width="2.0"/>
    <path d="M-9.55 -12.5 Q-10.25 -12.45 -10.55 -13.5 -10.85 -15.3 -9.85 -14.9 L-9.55 -14.5 -9.5 -14.1 -9.1 -13.35 Q-8.95 -12.6 -9.55 -12.5" fill="#66ff98" fill-rule="evenodd" stroke="none"/>
    <path d="M-8.25 -13.85 Q-8.6 -15.7 -7.55 -15.25 L-7.3 -14.9 -7.2 -14.45 -6.8 -13.75 Q-6.65 -13.0 -7.3 -12.9 -8.0 -12.8 -8.25 -13.85" fill="#66ff98" fill-rule="evenodd" stroke="none"/>
  </g>
  <defs>
    <linearGradient gradientTransform="matrix(0.0013, 0.0049, -0.0072, 0.0019, -5.6, -7.75)" gradientUnits="userSpaceOnUse" id="gradient0" spreadMethod="pad" x1="-819.2" x2="819.2">
      <stop offset="0.0" stop-color="#4b6560"/>
      <stop offset="1.0" stop-color="#57ae7a"/>
    </linearGradient>
  </defs>
</svg>
