<?xml version="1.0" encoding="UTF-8" standalone="no"?>
<svg xmlns:ffdec="https://www.free-decompiler.com/flash" xmlns:xlink="http://www.w3.org/1999/xlink" ffdec:objectType="shape" height="17.55px" width="131.9px" xmlns="http://www.w3.org/2000/svg">
  <g transform="matrix(1.0, 0.0, 0.0, 1.0, 8.15, -7.7)">
    <path d="M116.45 20.3 L116.45 13.75 122.75 13.75 122.75 20.3 116.45 20.3" fill="#e84a61" fill-rule="evenodd" stroke="none"/>
    <path d="M116.45 20.3 L116.45 13.75 122.75 13.75 122.75 20.3 116.45 20.3 Z" fill="none" stroke="#e84a61" stroke-linecap="round" stroke-linejoin="round" stroke-width="2.0"/>
    <path d="M121.1 16.3 L117.15 18.6 117.15 14.0 121.1 16.3" fill="#f9f7d8" fill-rule="evenodd" stroke="none"/>
    <path d="M-2.8 14.15 L-8.15 17.2 -8.15 11.05 -2.8 14.15" fill="#f8f6d5" fill-rule="evenodd" stroke="none"/>
    <path d="M12.3 18.05 Q11.4 17.2 10.9 16.05 10.4 14.9 10.4 13.65 L10.4 13.45 Q10.4 12.4 10.75 11.45 11.1 10.5 11.75 9.7 L13.25 8.45 Q14.15 7.95 15.2 7.75 L17.9 7.95 Q19.2 8.4 20.2 9.35 L20.65 9.85 21.15 9.35 Q22.15 8.4 23.45 7.95 L26.15 7.75 Q27.2 7.95 28.05 8.45 L29.6 9.7 30.6 11.45 Q30.95 12.4 30.95 13.45 L30.95 13.65 Q30.95 14.9 30.45 16.05 29.95 17.2 29.05 18.05 L21.8 24.85 21.25 25.15 20.65 25.25 20.1 25.15 19.55 24.85 12.3 18.05 M23.8 16.05 L18.45 12.95 18.45 19.05 23.8 16.05" fill="#f8f6d5" fill-rule="evenodd" stroke="none"/>
    <path d="M23.8 16.05 L18.45 19.05 18.45 12.95 23.8 16.05" fill="#f7f4d2" fill-rule="evenodd" stroke="none"/>
  </g>
</svg>
