<?xml version="1.0" encoding="UTF-8" standalone="no"?>
<svg xmlns:ffdec="https://www.free-decompiler.com/flash" xmlns:xlink="http://www.w3.org/1999/xlink" ffdec:objectType="shape" height="17.55px" width="113.35px" xmlns="http://www.w3.org/2000/svg">
  <g transform="matrix(1.0, 0.0, 0.0, 1.0, -10.4, -13.4)">
    <path d="M116.45 25.9 L116.45 19.35 122.75 19.35 122.75 25.9 116.45 25.9" fill="#e84a61" fill-rule="evenodd" stroke="none"/>
    <path d="M116.45 25.9 L116.45 19.35 122.75 19.35 122.75 25.9 116.45 25.9 Z" fill="none" stroke="#e84a61" stroke-linecap="round" stroke-linejoin="round" stroke-width="2.0"/>
    <path d="M121.2 22.2 L117.2 24.5 117.2 19.9 121.2 22.2" fill="#f9f7d8" fill-rule="evenodd" stroke="none"/>
    <path d="M12.3 23.75 Q11.4 22.9 10.9 21.75 10.4 20.6 10.4 19.35 L10.4 19.15 Q10.4 18.1 10.75 17.15 11.1 16.2 11.75 15.4 L13.25 14.15 Q14.15 13.65 15.2 13.45 L17.9 13.65 Q19.2 14.1 20.2 15.05 L20.65 15.55 21.15 15.05 Q22.15 14.1 23.45 13.65 L26.15 13.45 Q27.2 13.65 28.05 14.15 L29.6 15.4 30.6 17.15 Q30.95 18.1 30.95 19.15 L30.95 19.35 Q30.95 20.6 30.45 21.75 29.95 22.9 29.05 23.75 L21.8 30.55 21.25 30.85 20.65 30.95 20.1 30.85 19.55 30.55 12.3 23.75 M23.8 21.75 L18.45 18.65 18.45 24.75 23.8 21.75" fill="#f8f6d5" fill-rule="evenodd" stroke="none"/>
    <path d="M23.8 21.75 L18.45 24.75 18.45 18.65 23.8 21.75" fill="#f7f4d2" fill-rule="evenodd" stroke="none"/>
  </g>
</svg>
