<?xml version="1.0" encoding="UTF-8" standalone="no"?>
<svg xmlns:ffdec="https://www.free-decompiler.com/flash" xmlns:xlink="http://www.w3.org/1999/xlink" ffdec:objectType="shape" height="92.0px" width="107.65px" xmlns="http://www.w3.org/2000/svg">
  <g transform="matrix(1.0, 0.0, 0.0, 1.0, 53.8, 46.0)">
    <path d="M-43.85 8.3 Q-48.55 3.85 -51.15 -2.15 -53.8 -8.2 -53.8 -14.75 L-53.8 -15.8 Q-53.8 -21.3 -51.95 -26.25 -50.1 -31.25 -46.7 -35.45 -43.3 -39.35 -38.85 -42.0 -34.15 -44.6 -28.65 -45.65 -21.55 -46.7 -14.5 -44.6 -7.7 -42.25 -2.45 -37.25 L-0.1 -34.65 2.55 -37.25 Q7.75 -42.25 14.6 -44.6 21.65 -46.7 28.7 -45.65 34.2 -44.6 38.7 -42.0 43.4 -39.35 46.8 -35.45 50.2 -31.25 52.05 -26.25 53.85 -21.3 53.85 -15.8 L53.85 -14.75 Q53.85 -8.2 51.25 -2.15 48.65 3.85 43.9 8.3 L5.95 43.95 Q4.65 45.0 3.05 45.5 L-0.1 46.0 -2.95 45.5 Q-4.55 45.0 -5.85 43.95 L-43.85 8.3" fill="#e84a61" fill-rule="evenodd" stroke="none"/>
  </g>
</svg>
