<?xml version="1.0" encoding="UTF-8" standalone="no"?>
<svg xmlns:ffdec="https://www.free-decompiler.com/flash" xmlns:xlink="http://www.w3.org/1999/xlink" ffdec:objectType="shape" height="15.2px" width="17.6px" xmlns="http://www.w3.org/2000/svg">
  <g transform="matrix(1.0, 0.0, 0.0, 1.0, 8.8, 7.6)">
    <path d="M-6.8 1.25 L-7.9 -0.35 Q-8.3 -1.25 -8.3 -2.3 L-8.3 -2.45 -8.05 -4.05 -7.25 -5.45 -6.0 -6.5 -4.45 -7.05 -2.25 -6.9 Q-1.2 -6.5 -0.4 -5.75 L-0.05 -5.35 0.35 -5.75 2.2 -6.9 4.4 -7.05 5.95 -6.5 7.2 -5.45 8.0 -4.05 8.3 -2.45 8.3 -2.3 Q8.3 -1.25 7.85 -0.35 L6.75 1.25 0.9 6.75 0.45 7.0 -0.05 7.1 -0.5 7.0 -0.95 6.75 -6.8 1.25" fill="#dad596" fill-rule="evenodd" stroke="none"/>
    <path d="M-6.8 1.25 L-0.95 6.75 -0.5 7.0 -0.05 7.1 0.45 7.0 0.9 6.75 6.75 1.25 7.85 -0.35 Q8.3 -1.25 8.3 -2.3 L8.3 -2.45 8.0 -4.05 7.2 -5.45 5.95 -6.5 4.4 -7.05 2.2 -6.9 0.35 -5.75 -0.05 -5.35 -0.4 -5.75 Q-1.2 -6.5 -2.25 -6.9 L-4.45 -7.05 -6.0 -6.5 -7.25 -5.45 -8.05 -4.05 -8.3 -2.45 -8.3 -2.3 Q-8.3 -1.25 -7.9 -0.35 L-6.8 1.25 Z" fill="none" stroke="#dad596" stroke-linecap="round" stroke-linejoin="round" stroke-width="1.0"/>
  </g>
</svg>
