<?xml version="1.0" encoding="UTF-8" standalone="no"?>
<svg xmlns:ffdec="https://www.free-decompiler.com/flash" xmlns:xlink="http://www.w3.org/1999/xlink" ffdec:objectType="shape" height="40.0px" width="32.7px" xmlns="http://www.w3.org/2000/svg">
  <g transform="matrix(1.0, 0.0, 0.0, 1.0, 15.25, 20.0)">
    <path d="M16.2 -13.35 Q16.75 -11.8 16.75 -10.0 L16.75 20.0 4.1 20.0 6.9 18.6 6.9 12.75 -2.5 12.7 -2.95 12.7 -2.95 20.0 -15.25 20.0 -12.5 18.6 -12.5 13.05 -12.8 12.75 Q-13.75 11.8 -13.75 10.45 L-13.75 -2.65 Q-13.75 -4.0 -12.8 -4.95 L-12.5 -5.2 -12.5 -10.25 -12.35 -11.6 -13.85 -15.15 Q-14.4 -16.5 -13.8 -17.85 -13.35 -19.15 -11.95 -19.65 L-11.9 -19.65 -9.25 -19.75 Q-8.35 -19.35 -7.8 -18.5 -5.45 -20.0 -2.5 -20.0 L6.75 -20.0 Q9.35 -20.0 11.45 -18.85 12.05 -19.6 13.05 -19.9 14.45 -20.2 15.7 -19.5 L15.75 -19.45 Q17.0 -18.75 17.35 -17.4 17.7 -16.0 17.0 -14.7 L16.2 -13.35" fill="#23141b" fill-rule="evenodd" stroke="none"/>
  </g>
</svg>
