<?xml version="1.0" encoding="UTF-8" standalone="no"?>
<svg xmlns:ffdec="https://www.free-decompiler.com/flash" xmlns:xlink="http://www.w3.org/1999/xlink" ffdec:objectType="shape" height="40.9px" width="32.85px" xmlns="http://www.w3.org/2000/svg">
  <g transform="matrix(1.0, 0.0, 0.0, 1.0, 15.25, 20.9)">
    <path d="M16.0 -13.9 Q16.75 -12.1 16.75 -10.0 L16.75 -4.15 16.85 -3.45 17.6 9.65 Q17.65 11.0 16.85 12.0 L16.75 12.1 16.75 20.0 4.1 20.0 6.9 18.6 6.9 12.75 1.5 12.75 1.1 12.75 0.35 12.75 0.0 12.75 -0.15 12.75 -1.05 12.75 -1.95 12.75 -2.95 12.7 -2.95 20.0 -15.25 20.0 -12.5 18.6 -12.5 12.45 -12.8 12.15 Q-13.75 11.2 -13.75 9.85 L-13.75 6.6 -14.35 4.6 -14.5 2.75 -14.5 1.3 -14.4 0.3 -14.3 -0.45 -14.15 -1.1 -13.8 -2.1 -13.75 -2.25 -13.75 -3.25 Q-13.75 -4.6 -12.8 -5.55 L-12.5 -5.8 -12.5 -10.25 -12.3 -11.95 -13.85 -15.65 Q-14.4 -17.0 -13.8 -18.35 -13.35 -19.65 -11.95 -20.15 L-11.9 -20.15 -9.25 -20.25 Q-8.15 -19.75 -7.6 -18.65 -5.45 -19.95 -2.8 -20.0 L-2.5 -20.0 6.75 -20.0 Q9.1 -20.0 11.05 -19.05 L11.05 -19.15 Q11.65 -20.4 13.05 -20.8 14.45 -21.1 15.7 -20.4 L15.75 -20.35 Q17.0 -19.65 17.35 -18.3 17.7 -16.9 17.0 -15.6 L16.0 -13.9" fill="#23141b" fill-rule="evenodd" stroke="none"/>
  </g>
</svg>
