<?xml version="1.0" encoding="UTF-8" standalone="no"?>
<svg xmlns:ffdec="https://www.free-decompiler.com/flash" xmlns:xlink="http://www.w3.org/1999/xlink" ffdec:objectType="shape" height="41.2px" width="33.7px" xmlns="http://www.w3.org/2000/svg">
  <g transform="matrix(1.0, 0.0, 0.0, 1.0, 15.3, 21.2)">
    <path d="M15.9 -14.1 Q16.75 -12.2 16.75 -10.0 L16.75 -5.85 Q17.35 -5.15 17.4 -4.15 L18.4 8.9 Q18.5 10.25 17.65 11.3 L16.75 12.05 16.75 20.0 4.1 20.0 6.9 18.6 6.9 12.75 0.6 12.75 -2.45 12.7 -2.5 12.7 -2.95 12.7 -2.95 20.0 -15.25 20.0 -12.5 18.6 -12.5 12.1 -13.2 11.55 Q-14.15 10.6 -14.15 9.25 L-14.15 7.45 Q-14.9 6.1 -15.15 4.6 L-15.3 2.75 -15.3 1.3 -15.2 0.3 -15.1 -0.45 -14.95 -1.1 -14.8 -1.6 -14.55 -2.15 -14.15 -3.0 -14.15 -3.85 Q-14.15 -5.2 -13.2 -6.15 L-12.85 -6.45 -12.75 -7.25 -12.65 -7.85 -12.55 -10.0 -12.4 -11.25 -12.4 -11.45 -12.25 -12.2 -13.85 -16.05 Q-14.4 -17.4 -13.8 -18.75 -13.35 -20.05 -11.95 -20.55 L-11.9 -20.55 -9.25 -20.65 Q-7.95 -20.05 -7.45 -18.7 -5.35 -19.95 -2.8 -20.0 L6.75 -20.0 Q9.0 -20.0 10.9 -19.15 L11.05 -19.45 Q11.65 -20.7 13.05 -21.1 14.45 -21.4 15.7 -20.7 L15.75 -20.65 Q17.0 -19.95 17.35 -18.6 17.7 -17.2 17.0 -15.9 L15.9 -14.1" fill="#23141b" fill-rule="evenodd" stroke="none"/>
  </g>
</svg>
