<?xml version="1.0" encoding="UTF-8" standalone="no"?>
<svg xmlns:ffdec="https://www.free-decompiler.com/flash" xmlns:xlink="http://www.w3.org/1999/xlink" ffdec:objectType="shape" height="40.3px" width="32.7px" xmlns="http://www.w3.org/2000/svg">
  <g transform="matrix(1.0, 0.0, 0.0, 1.0, 15.25, 20.3)">
    <path d="M16.15 -13.55 Q16.75 -11.9 16.75 -10.0 L16.75 20.0 4.1 20.0 6.9 18.6 6.9 12.75 1.5 12.75 1.1 12.75 0.85 12.75 -0.15 12.75 -1.05 12.75 -1.95 12.75 -2.5 12.7 -2.55 12.7 -2.75 12.7 -2.95 12.7 -2.95 20.0 -15.25 20.0 -12.5 18.6 -12.5 13.05 -12.8 12.75 Q-13.75 11.8 -13.75 10.45 L-13.75 -2.65 Q-13.75 -4.0 -12.8 -4.95 L-12.5 -5.2 -12.5 -10.25 -12.35 -11.8 -13.85 -15.45 Q-14.4 -16.8 -13.8 -18.15 -13.35 -19.45 -11.95 -19.95 L-11.9 -19.95 -9.25 -20.05 Q-8.2 -19.55 -7.65 -18.6 -5.5 -19.95 -2.8 -20.0 L-2.7 -20.0 -2.5 -20.0 -2.2 -20.0 -2.05 -20.0 6.75 -20.0 Q9.25 -20.0 11.3 -18.95 11.9 -19.85 13.05 -20.2 14.45 -20.5 15.7 -19.8 L15.75 -19.75 Q17.0 -19.05 17.35 -17.7 17.7 -16.3 17.0 -15.0 L16.15 -13.55" fill="#23141b" fill-rule="evenodd" stroke="none"/>
  </g>
</svg>
