<?xml version="1.0" encoding="UTF-8" standalone="no"?>
<svg xmlns:ffdec="https://www.free-decompiler.com/flash" xmlns:xlink="http://www.w3.org/1999/xlink" ffdec:objectType="shape" height="42.3px" width="40.45px" xmlns="http://www.w3.org/2000/svg">
  <g transform="matrix(1.0, 0.0, 0.0, 1.0, 18.7, 21.25)">
    <path d="M15.8 -15.6 Q16.75 -13.6 16.75 -11.25 L16.75 2.35 16.7 3.05 16.4 5.05 Q17.0 10.85 21.75 17.1 L13.95 19.8 9.7 19.9 11.95 18.8 Q8.9 15.45 7.75 11.5 L-2.5 11.45 -2.95 11.45 -3.05 11.45 -3.15 11.45 -3.25 11.45 -3.45 11.45 -4.25 11.4 -5.75 11.15 -7.5 10.6 Q-8.6 13.25 -7.45 16.9 L-18.7 21.05 -15.6 17.2 Q-18.7 6.95 -12.4 3.5 L-12.45 2.95 -12.5 2.0 -12.5 -11.5 -12.25 -13.5 -13.45 -16.4 Q-14.0 -17.75 -13.4 -19.1 -12.95 -20.4 -11.55 -20.9 L-11.5 -20.9 -8.85 -21.0 Q-8.05 -20.6 -7.5 -19.95 -5.3 -21.25 -2.5 -21.25 L6.75 -21.25 Q8.9 -21.25 10.75 -20.45 L12.05 -21.15 Q13.45 -21.45 14.7 -20.75 L14.75 -20.7 Q16.0 -20.0 16.35 -18.65 16.7 -17.25 16.0 -15.95 L15.8 -15.6" fill="#23141b" fill-rule="evenodd" stroke="none"/>
  </g>
</svg>
