<?xml version="1.0" encoding="UTF-8" standalone="no"?>
<svg xmlns:ffdec="https://www.free-decompiler.com/flash" xmlns:xlink="http://www.w3.org/1999/xlink" ffdec:objectType="shape" height="40.95px" width="45.8px" xmlns="http://www.w3.org/2000/svg">
  <g transform="matrix(1.0, 0.0, 0.0, 1.0, 23.8, 24.45)">
    <path d="M14.65 -20.6 Q16.75 -17.95 16.75 -14.45 L16.75 -0.85 16.7 -0.15 16.5 1.4 16.55 1.75 Q17.4 5.75 22.0 6.7 L18.85 16.5 17.65 13.1 Q12.0 11.5 9.7 8.15 L8.5 8.3 -2.5 8.25 -2.95 8.25 -3.05 8.25 -3.15 8.25 -3.25 8.25 -3.45 8.25 -4.25 8.2 -5.75 7.95 Q-7.55 7.55 -8.9 6.65 -11.4 8.7 -11.8 13.0 L-23.8 12.45 -19.4 10.1 Q-19.15 2.4 -12.45 -0.45 L-12.5 -1.2 -12.5 -11.8 -12.8 -12.75 -12.5 -13.65 -12.5 -14.7 Q-12.45 -16.4 -11.9 -17.85 L-12.65 -19.6 Q-13.2 -20.95 -12.6 -22.3 -12.15 -23.6 -10.75 -24.1 L-10.7 -24.1 -8.05 -24.2 -6.95 -23.45 Q-4.95 -24.45 -2.5 -24.45 L6.75 -24.45 9.6 -24.05 10.25 -24.35 Q11.65 -24.65 12.9 -23.95 L12.95 -23.9 Q14.2 -23.2 14.55 -21.85 L14.65 -20.6" fill="#23141b" fill-rule="evenodd" stroke="none"/>
  </g>
</svg>
