<?xml version="1.0" encoding="UTF-8" standalone="no"?>
<svg xmlns:ffdec="https://www.free-decompiler.com/flash" xmlns:xlink="http://www.w3.org/1999/xlink" ffdec:objectType="shape" height="42.9px" width="34.7px" xmlns="http://www.w3.org/2000/svg">
  <g transform="matrix(1.0, 0.0, 0.0, 1.0, 15.05, 21.7)">
    <path d="M15.8 -16.05 Q16.75 -14.05 16.75 -11.7 L16.75 1.9 16.7 2.6 16.65 2.95 16.7 2.95 16.65 3.05 Q16.3 6.1 14.8 8.05 L14.75 8.55 Q14.8 10.85 17.85 9.35 L19.65 18.15 17.2 16.0 15.6 16.4 Q10.85 17.4 8.65 15.45 L7.5 13.85 Q6.95 12.7 6.85 11.05 L-2.5 11.0 -2.95 11.0 -3.05 11.0 -3.1 11.0 Q-5.55 15.3 -4.6 19.2 L-15.05 21.2 -12.45 19.3 -12.45 19.2 Q-13.35 15.25 -12.5 11.6 -13.45 11.2 -13.95 10.35 -14.75 9.3 -13.95 7.65 L-13.45 6.7 -12.3 3.65 -12.45 2.5 -12.5 1.55 -12.5 -11.95 -12.2 -14.25 -13.25 -16.85 Q-13.8 -18.2 -13.2 -19.55 -12.75 -20.85 -11.35 -21.35 L-11.3 -21.35 -8.65 -21.45 -7.4 -20.45 Q-5.2 -21.7 -2.5 -21.7 L6.75 -21.7 Q8.9 -21.7 10.75 -20.9 L12.05 -21.6 Q13.45 -21.9 14.7 -21.2 L14.75 -21.15 Q16.0 -20.45 16.35 -19.1 16.7 -17.7 16.0 -16.4 L15.8 -16.05" fill="#23141b" fill-rule="evenodd" stroke="none"/>
  </g>
</svg>
