<?xml version="1.0" encoding="UTF-8" standalone="no"?>
<svg xmlns:ffdec="https://www.free-decompiler.com/flash" xmlns:xlink="http://www.w3.org/1999/xlink" ffdec:objectType="shape" height="39.3px" width="41.65px" xmlns="http://www.w3.org/2000/svg">
  <g transform="matrix(1.0, 0.0, 0.0, 1.0, 22.6, 19.0)">
    <path d="M16.2 -12.35 Q16.75 -10.8 16.75 -9.0 L16.75 -4.95 18.3 -1.3 Q19.75 2.45 18.4 6.55 L16.8 10.55 16.1 11.6 Q15.15 12.6 13.75 12.65 L12.8 12.45 Q11.55 13.15 10.0 13.5 L9.15 13.65 Q9.6 14.55 10.85 15.7 L2.5 19.55 3.7 17.45 1.3 15.4 3.0 18.35 -0.15 20.3 -7.35 20.3 -5.7 19.35 Q-6.75 17.95 -7.8 15.25 L-8.8 12.2 Q-11.95 10.15 -12.4 5.5 L-14.15 6.3 -18.5 7.6 -19.85 7.8 -20.2 7.75 Q-21.6 7.75 -22.25 6.6 -22.9 5.4 -22.4 3.8 -21.95 2.15 -17.85 1.6 -13.75 1.05 -12.8 -5.05 L-12.5 -5.55 -12.5 -9.25 -12.35 -10.6 -13.85 -14.15 Q-14.4 -15.5 -13.8 -16.85 -13.35 -18.15 -11.95 -18.65 L-11.9 -18.65 -9.25 -18.75 Q-8.35 -18.3 -7.8 -17.5 -5.45 -19.0 -2.5 -19.0 L6.75 -19.0 Q9.35 -19.0 11.45 -17.85 12.05 -18.6 13.05 -18.9 14.45 -19.2 15.7 -18.5 L15.75 -18.45 Q17.0 -17.75 17.35 -16.4 17.7 -15.0 17.0 -13.7 L16.2 -12.35" fill="#23141b" fill-rule="evenodd" stroke="none"/>
  </g>
</svg>
