<?xml version="1.0" encoding="UTF-8" standalone="no"?>
<svg xmlns:ffdec="https://www.free-decompiler.com/flash" xmlns:xlink="http://www.w3.org/1999/xlink" ffdec:objectType="shape" height="40.4px" width="50.9px" xmlns="http://www.w3.org/2000/svg">
  <g transform="matrix(1.0, 0.0, 0.0, 1.0, 25.0, 20.0)">
    <path d="M16.55 -12.25 L16.75 -10.0 16.75 -7.1 20.3 -4.9 Q23.65 -2.65 24.9 1.45 L25.85 5.65 25.9 6.9 Q25.65 8.3 24.55 9.1 23.45 9.8 22.05 9.6 20.75 9.4 19.95 7.0 20.1 3.05 16.75 0.3 L16.75 3.6 16.7 4.3 Q16.1 11.15 10.0 12.5 L8.5 12.75 4.9 12.75 8.05 15.15 4.2 20.4 0.35 20.4 1.6 19.6 Q-0.1 19.15 -3.2 17.15 L-4.75 16.0 -6.55 15.6 -5.5 15.35 -7.7 12.65 -8.6 11.3 Q-12.0 9.25 -12.45 4.2 L-12.5 3.25 -12.5 3.2 Q-15.25 4.5 -17.85 3.95 L-22.25 2.9 -23.55 2.4 -23.8 2.15 Q-25.0 1.45 -25.0 0.15 -25.0 -1.2 -23.75 -2.35 -22.5 -3.55 -18.7 -1.95 -15.6 -0.7 -12.5 -3.6 L-12.5 -10.25 -12.35 -11.6 -13.85 -15.15 Q-14.4 -16.5 -13.8 -17.85 -13.35 -19.15 -11.95 -19.65 L-11.9 -19.65 -9.25 -19.75 Q-8.35 -19.35 -7.8 -18.5 -5.45 -20.0 -2.5 -20.0 L6.75 -20.0 Q9.8 -20.0 12.15 -18.45 12.75 -19.55 14.05 -19.9 15.45 -20.2 16.7 -19.5 L16.75 -19.45 Q18.0 -18.75 18.35 -17.4 18.7 -16.0 18.0 -14.7 L16.55 -12.25" fill="#23141b" fill-rule="evenodd" stroke="none"/>
  </g>
</svg>
