<?xml version="1.0" encoding="UTF-8" standalone="no"?>
<svg xmlns:ffdec="https://www.free-decompiler.com/flash" xmlns:xlink="http://www.w3.org/1999/xlink" ffdec:objectType="shape" height="41.8px" width="45.3px" xmlns="http://www.w3.org/2000/svg">
  <g transform="matrix(1.0, 0.0, 0.0, 1.0, 22.25, 23.25)">
    <path d="M16.65 -14.75 L16.75 -13.25 16.75 -9.25 19.35 -6.95 Q22.25 -4.1 22.8 0.15 L23.05 4.4 22.9 5.65 Q22.4 7.0 21.15 7.6 L18.65 7.65 Q17.35 7.25 16.95 4.75 17.4 2.6 16.75 0.65 L16.7 1.05 Q16.1 7.9 10.0 9.25 L8.5 9.5 5.9 9.5 5.05 13.2 5.2 13.85 4.85 13.95 3.75 18.55 3.35 17.15 2.75 15.15 -0.7 15.1 -4.85 15.95 -3.4 14.65 Q-4.8 14.2 -5.5 13.5 -7.25 11.65 -7.9 9.85 L-8.5 8.1 Q-11.3 6.45 -12.15 2.85 L-14.3 3.25 -18.8 3.4 -20.2 3.25 -20.5 3.1 Q-21.8 2.7 -22.15 1.45 -22.5 0.15 -21.6 -1.25 -20.7 -2.8 -16.6 -2.2 -14.3 -1.9 -12.5 -3.55 L-12.5 -13.5 -12.35 -14.85 -13.85 -18.4 Q-14.4 -19.75 -13.8 -21.1 -13.35 -22.4 -11.95 -22.9 L-11.9 -22.9 -9.25 -23.0 Q-8.35 -22.55 -7.8 -21.75 -5.45 -23.25 -2.5 -23.25 L6.75 -23.25 Q10.05 -23.25 12.6 -21.4 L12.65 -21.5 Q13.25 -22.75 14.65 -23.15 16.05 -23.45 17.3 -22.75 L17.35 -22.7 Q18.6 -22.0 18.95 -20.65 19.3 -19.25 18.6 -17.95 L16.65 -14.75" fill="#23141b" fill-rule="evenodd" stroke="none"/>
  </g>
</svg>
