<?xml version="1.0" encoding="UTF-8" standalone="no"?>
<svg xmlns:ffdec="https://www.free-decompiler.com/flash" xmlns:xlink="http://www.w3.org/1999/xlink" ffdec:objectType="shape" height="41.25px" width="34.55px" xmlns="http://www.w3.org/2000/svg">
  <g transform="matrix(1.0, 0.0, 0.0, 1.0, 16.1, 21.25)">
    <path d="M16.55 -13.5 L16.75 -11.25 16.75 -3.7 17.35 -2.05 Q18.7 1.8 17.3 5.85 L15.6 9.75 14.95 10.8 Q13.9 11.8 12.5 11.8 L11.7 11.65 11.1 11.95 Q8.45 13.2 8.75 16.6 8.9 18.3 9.6 20.0 L-2.5 20.0 0.85 18.75 -0.05 15.3 -0.1 15.25 Q-7.65 16.85 -9.4 13.3 -10.05 11.95 -10.4 9.45 L-11.4 10.0 -12.65 10.6 -13.0 10.6 Q-14.35 10.9 -15.25 9.95 -16.2 9.05 -16.1 7.4 -16.15 5.6 -12.3 4.05 L-12.45 2.95 -12.5 2.0 -12.5 -11.5 Q-12.45 -13.05 -12.0 -14.4 L-12.85 -16.4 Q-13.4 -17.75 -12.8 -19.1 -12.35 -20.4 -10.95 -20.9 L-10.9 -20.9 -8.25 -21.0 -7.1 -20.15 Q-5.05 -21.25 -2.5 -21.25 L6.75 -21.25 Q9.8 -21.25 12.15 -19.7 12.75 -20.8 14.05 -21.15 15.45 -21.45 16.7 -20.75 L16.75 -20.7 Q18.0 -20.0 18.35 -18.65 18.7 -17.25 18.0 -15.95 L16.55 -13.5" fill="#23141b" fill-rule="evenodd" stroke="none"/>
  </g>
</svg>
