<?xml version="1.0" encoding="UTF-8" standalone="no"?>
<svg xmlns:ffdec="https://www.free-decompiler.com/flash" xmlns:xlink="http://www.w3.org/1999/xlink" ffdec:objectType="shape" height="39.65px" width="31.6px" xmlns="http://www.w3.org/2000/svg">
  <g transform="matrix(1.0, 0.0, 0.0, 1.0, 13.75, 19.6)">
    <path d="M2.4 13.15 L1.5 13.15 2.3 13.7 2.4 13.15 M16.35 -12.55 Q16.75 -11.15 16.75 -9.6 L16.75 4.0 16.7 4.7 Q16.45 7.55 15.25 9.45 14.1 11.25 12.15 12.2 11.0 13.55 10.55 14.85 9.9 16.6 10.25 18.75 L10.25 18.7 10.3 18.75 10.25 18.8 10.25 18.85 10.3 19.0 10.25 18.95 10.25 19.05 10.3 19.05 10.5 20.0 9.0 20.0 1.25 20.0 0.2 20.0 1.0 19.55 2.75 18.5 2.55 17.0 -0.85 19.55 -4.9 20.05 -2.3 18.05 -4.75 17.7 Q-6.35 17.35 -7.2 16.65 L-8.3 15.1 -9.25 12.05 -9.45 12.15 Q-10.6 12.9 -11.8 12.4 -13.05 11.95 -13.6 10.4 -14.25 8.95 -12.1 6.6 L-12.45 4.6 -12.5 3.65 -12.5 -9.85 -12.25 -11.85 -13.45 -14.75 Q-14.0 -16.1 -13.4 -17.45 -12.95 -18.75 -11.55 -19.25 L-11.5 -19.25 -8.85 -19.35 Q-8.05 -18.95 -7.5 -18.3 -5.3 -19.6 -2.5 -19.6 L6.75 -19.6 Q9.5 -19.6 11.75 -18.3 12.35 -19.2 13.45 -19.5 14.85 -19.8 16.1 -19.1 L16.15 -19.05 Q17.4 -18.35 17.75 -17.0 18.1 -15.6 17.4 -14.3 L16.35 -12.55" fill="#23141b" fill-rule="evenodd" stroke="none"/>
  </g>
</svg>
