<?xml version="1.0" encoding="UTF-8" standalone="no"?>
<svg xmlns:ffdec="https://www.free-decompiler.com/flash" xmlns:xlink="http://www.w3.org/1999/xlink" ffdec:objectType="shape" height="44.25px" width="35.55px" xmlns="http://www.w3.org/2000/svg">
  <g transform="matrix(1.0, 0.0, 0.0, 1.0, 13.8, 24.25)">
    <path d="M11.8 -22.45 Q12.8 -23.45 14.1 -23.45 15.5 -23.45 16.4 -22.45 L17.15 -21.4 18.8 -17.45 Q20.15 -13.3 18.8 -9.55 17.6 -6.35 16.75 -5.15 L16.75 2.35 16.7 3.05 16.4 5.05 Q17.0 10.85 21.75 17.1 L13.95 19.8 9.7 19.9 11.95 18.8 Q8.9 15.45 7.75 11.5 L-0.85 11.45 Q0.45 14.3 2.7 17.2 L-5.1 19.9 -9.35 20.0 -7.1 18.9 -8.45 17.3 Q-12.35 12.05 -12.0 5.5 L-12.45 2.95 -12.5 2.0 -12.5 -6.25 Q-13.1 -7.2 -13.35 -8.5 -14.2 -12.5 -13.5 -16.5 -13.95 -17.8 -13.4 -19.1 -13.15 -19.9 -12.5 -20.35 L-12.25 -21.1 Q-11.75 -22.45 -10.9 -23.25 L-10.65 -23.5 Q-9.65 -24.4 -8.3 -24.25 -6.95 -24.2 -6.1 -23.15 L-6.0 -23.0 Q-5.4 -22.2 -5.5 -20.8 L-2.5 -21.25 6.75 -21.25 Q8.95 -21.25 10.8 -20.45 L11.3 -20.8 Q11.25 -21.85 11.8 -22.45" fill="#23141b" fill-rule="evenodd" stroke="none"/>
  </g>
</svg>
