<?xml version="1.0" encoding="UTF-8" standalone="no"?>
<svg xmlns:ffdec="https://www.free-decompiler.com/flash" xmlns:xlink="http://www.w3.org/1999/xlink" ffdec:objectType="shape" height="45.9px" width="33.25px" xmlns="http://www.w3.org/2000/svg">
  <g transform="matrix(1.0, 0.0, 0.0, 1.0, 13.8, 25.85)">
    <path d="M14.1 -25.05 Q15.5 -25.05 16.4 -24.05 L17.15 -23.0 18.8 -19.05 Q20.15 -14.9 18.8 -11.15 17.6 -7.95 16.75 -6.75 L16.75 -0.85 16.7 -0.15 Q16.2 5.5 12.0 7.4 L11.65 7.8 Q9.85 9.95 13.05 13.1 L5.65 18.5 6.05 15.5 Q3.0 11.7 2.9 8.3 L-2.5 8.25 -2.95 8.25 -3.05 8.25 -3.15 8.25 -3.25 8.25 -3.3 8.25 Q-3.75 11.55 -0.9 14.95 L-5.5 19.8 -5.75 19.8 -6.0 20.05 -10.3 20.05 -7.85 18.75 -8.3 18.25 Q-13.9 12.3 -10.55 5.1 -12.15 3.05 -12.45 -0.25 L-12.5 -1.2 -12.5 -7.85 Q-13.1 -8.8 -13.35 -10.1 -14.45 -15.4 -12.9 -20.7 -12.95 -21.5 -12.6 -22.3 L-11.95 -23.3 -10.9 -24.85 -10.65 -25.1 Q-9.65 -26.0 -8.3 -25.85 -6.95 -25.8 -6.1 -24.75 L-6.0 -24.6 -5.65 -23.95 -2.5 -24.45 6.75 -24.45 9.6 -24.05 10.25 -24.35 12.1 -24.3 Q12.95 -25.05 14.1 -25.05" fill="#23141b" fill-rule="evenodd" stroke="none"/>
  </g>
</svg>
