<?xml version="1.0" encoding="UTF-8" standalone="no"?>
<svg xmlns:ffdec="https://www.free-decompiler.com/flash" xmlns:xlink="http://www.w3.org/1999/xlink" ffdec:objectType="shape" height="44.85px" width="39.6px" xmlns="http://www.w3.org/2000/svg">
  <g transform="matrix(1.0, 0.0, 0.0, 1.0, 18.05, 23.75)">
    <path d="M15.65 -23.2 Q16.8 -23.95 18.1 -23.65 19.45 -23.4 20.15 -22.25 L20.7 -21.05 21.45 -16.85 Q21.9 -12.5 19.8 -9.1 17.85 -6.0 16.75 -5.15 L16.75 1.9 16.7 2.6 Q16.3 6.9 13.75 9.05 L13.8 9.1 13.65 9.15 Q12.2 10.3 10.0 10.8 L8.5 11.05 8.0 11.7 Q7.4 12.95 9.8 15.65 L1.05 19.25 2.65 16.85 Q-0.45 14.65 -0.85 12.75 -1.05 11.9 -0.85 11.0 L-2.5 11.0 -2.95 11.0 -3.05 11.0 -3.15 11.0 -3.25 11.0 Q-2.6 13.2 0.25 14.8 L-6.75 21.1 -6.05 18.2 Q-12.15 16.15 -11.6 10.5 L-11.3 8.8 -10.9 7.4 Q-12.2 5.45 -12.45 2.5 L-12.5 1.55 -12.5 -4.1 -12.55 -4.15 -12.8 -4.3 Q-13.85 -5.0 -14.65 -6.2 -18.05 -11.65 -18.05 -18.45 -18.1 -19.85 -17.55 -20.9 L-17.45 -21.2 Q-16.8 -22.4 -15.5 -22.75 -14.2 -23.25 -13.05 -22.5 L-12.85 -22.4 -11.85 -21.1 -11.35 -21.35 -11.3 -21.35 -8.65 -21.45 -7.4 -20.45 Q-5.2 -21.7 -2.5 -21.7 L6.75 -21.7 Q8.9 -21.7 10.75 -20.9 L12.05 -21.6 Q13.45 -21.9 14.7 -21.2 L14.75 -21.15 Q14.85 -22.6 15.65 -23.2" fill="#23141b" fill-rule="evenodd" stroke="none"/>
  </g>
</svg>
