<?xml version="1.0" encoding="UTF-8" standalone="no"?>
<svg xmlns:ffdec="https://www.free-decompiler.com/flash" xmlns:xlink="http://www.w3.org/1999/xlink" ffdec:objectType="shape" height="39.5px" width="52.1px" xmlns="http://www.w3.org/2000/svg">
  <g transform="matrix(1.0, 0.0, 0.0, 1.0, 22.45, 19.0)">
    <path d="M16.75 -8.6 Q22.5 -9.7 24.15 -14.15 25.7 -16.0 27.0 -15.8 28.4 -15.5 29.05 -14.35 29.85 -13.25 29.55 -11.95 L29.1 -10.7 26.6 -7.2 Q23.9 -3.8 20.0 -2.9 L16.75 -2.3 16.75 4.6 16.7 5.3 Q16.1 12.15 10.0 13.5 L8.7 13.75 10.05 15.6 1.45 18.75 2.8 16.75 Q0.85 15.1 0.15 13.7 L-4.3 13.65 Q-3.7 14.9 -2.4 16.2 L-10.75 20.5 -9.35 17.9 Q-14.75 14.3 -12.7 9.0 L-12.05 7.55 -12.45 5.2 -12.5 -3.2 Q-17.5 -5.2 -21.0 -9.1 -22.0 -10.25 -22.35 -11.4 L-22.4 -11.7 Q-22.6 -12.65 -22.25 -13.55 L-21.95 -14.15 Q-21.2 -15.2 -19.95 -15.55 L-19.85 -15.65 Q-18.75 -15.75 -17.9 -14.9 L-17.5 -14.5 Q-15.35 -11.75 -12.4 -10.2 L-12.35 -10.55 -13.85 -14.15 Q-14.4 -15.5 -13.8 -16.85 -13.35 -18.15 -11.95 -18.65 L-9.25 -18.75 Q-8.35 -18.3 -7.8 -17.5 -5.45 -19.0 -2.5 -19.0 L6.75 -19.0 Q9.35 -19.0 11.45 -17.85 12.05 -18.6 13.05 -18.9 14.45 -19.2 15.7 -18.5 L15.75 -18.45 Q17.0 -17.75 17.35 -16.4 17.7 -15.0 17.0 -13.7 L16.2 -12.35 Q16.75 -10.8 16.75 -9.0 L16.75 -8.6" fill="#23141b" fill-rule="evenodd" stroke="none"/>
  </g>
</svg>
