<?xml version="1.0" encoding="UTF-8" standalone="no"?>
<svg xmlns:ffdec="https://www.free-decompiler.com/flash" xmlns:xlink="http://www.w3.org/1999/xlink" ffdec:objectType="shape" height="25.3px" width="33.65px" xmlns="http://www.w3.org/2000/svg">
  <g transform="matrix(1.0, 0.0, 0.0, 1.0, 16.7, 12.7)">
    <path d="M-4.1 -12.65 Q-2.8 -12.65 -1.65 -12.05 L-0.95 -11.6 13.55 -11.55 15.05 -10.85 15.7 -10.35 Q16.95 -9.2 16.95 -7.4 16.9 -5.4 15.4 -4.1 14.6 -3.45 13.55 -3.25 L7.3 -3.2 Q7.6 -2.0 7.25 -0.95 L7.05 -0.4 Q6.45 0.95 5.1 1.65 5.6 3.1 5.1 4.55 L4.95 4.95 3.8 6.4 Q4.3 7.3 4.25 8.35 L4.2 9.2 Q3.7 11.4 1.7 12.3 L0.1 12.6 -6.8 12.55 Q-10.75 12.1 -13.5 9.35 -15.0 7.8 -15.85 5.85 -16.75 3.7 -16.7 1.55 L-16.6 -2.7 Q-16.45 -4.9 -15.4 -6.85 -13.85 -9.75 -10.9 -11.3 -7.7 -13.0 -4.1 -12.65 M-2.0 -7.4 Q-2.1 -8.75 -3.35 -9.3 L-4.1 -9.45 Q-6.85 -9.8 -9.45 -8.55 -11.2 -7.65 -12.25 -6.0 -13.5 -4.0 -13.55 -1.65 L-13.5 2.15 Q-13.35 4.05 -12.4 5.65 -10.95 8.1 -8.25 9.0 -8.5 6.7 -6.75 5.1 -7.95 2.65 -6.35 0.5 -7.25 -0.7 -7.25 -2.15 L-7.15 -5.05 Q-7.15 -5.8 -6.55 -6.05 -5.25 -6.75 -4.4 -5.55 -4.15 -5.25 -4.15 -4.75 L-3.8 -1.8 Q-3.75 -1.45 -3.4 -1.25 L-2.65 -1.15 -2.5 -1.25 Q-2.15 -1.5 -2.15 -1.95 -2.0 -4.65 -2.0 -7.4 M12.7 -8.45 L1.05 -8.45 1.15 -6.35 13.3 -6.5 13.6 -6.8 13.65 -7.05 Q13.9 -7.65 13.45 -8.1 L13.1 -8.35 12.7 -8.45 M1.15 -2.15 L1.0 -1.1 3.85 -1.25 4.15 -1.55 Q4.6 -2.6 3.6 -2.85 L1.15 -3.2 1.15 -2.15 M1.15 2.05 L-3.45 2.35 -3.95 2.75 Q-4.25 3.3 -3.75 3.75 L-3.05 4.15 1.35 4.1 1.95 3.9 2.2 3.35 2.2 3.1 Q2.1 2.15 1.15 2.05 M0.1 9.4 L1.0 8.95 Q1.3 8.2 0.75 7.7 L0.1 7.3 -4.45 7.65 -4.9 8.0 Q-5.1 8.35 -4.9 8.75 L-4.45 9.1 0.1 9.4" fill="#ffffff" fill-rule="evenodd" stroke="none"/>
    <path d="M0.1 9.4 L-4.45 9.1 -4.9 8.75 Q-5.1 8.35 -4.9 8.0 L-4.45 7.65 0.1 7.3 0.75 7.7 Q1.3 8.2 1.0 8.95 L0.1 9.4 M1.15 2.05 Q2.1 2.15 2.2 3.1 L2.2 3.35 1.95 3.9 1.35 4.1 -3.05 4.15 -3.75 3.75 Q-4.25 3.3 -3.95 2.75 L-3.45 2.35 1.15 2.05 M1.15 -2.15 L1.15 -3.2 3.6 -2.85 Q4.6 -2.6 4.15 -1.55 L3.85 -1.25 1.0 -1.1 1.15 -2.15 M12.7 -8.45 L13.1 -8.35 13.45 -8.1 Q13.9 -7.65 13.65 -7.05 L13.6 -6.8 13.3 -6.5 1.15 -6.35 1.05 -8.45 12.7 -8.45 M-2.0 -7.4 Q-2.0 -4.65 -2.15 -1.95 -2.15 -1.5 -2.5 -1.25 L-2.65 -1.15 -3.4 -1.25 Q-3.75 -1.45 -3.8 -1.8 L-4.15 -4.75 Q-4.15 -5.25 -4.4 -5.55 -5.25 -6.75 -6.55 -6.05 -7.15 -5.8 -7.15 -5.05 L-7.25 -2.15 Q-7.25 -0.7 -6.35 0.5 -7.95 2.65 -6.75 5.1 -8.5 6.7 -8.25 9.0 -10.95 8.1 -12.4 5.65 -13.35 4.05 -13.5 2.15 L-13.55 -1.65 Q-13.5 -4.0 -12.25 -6.0 -11.2 -7.65 -9.45 -8.55 -6.85 -9.8 -4.1 -9.45 L-3.35 -9.3 Q-2.1 -8.75 -2.0 -7.4" fill="#7499a1" fill-rule="evenodd" stroke="none"/>
    <path d="M-2.0 -7.4 Q-2.1 -8.75 -3.35 -9.3 L-4.1 -9.45 Q-6.85 -9.8 -9.45 -8.55 -11.2 -7.65 -12.25 -6.0 -13.5 -4.0 -13.55 -1.65 L-13.5 2.15 Q-13.35 4.05 -12.4 5.65 -10.95 8.1 -8.25 9.0 -8.5 6.7 -6.75 5.1 -7.95 2.65 -6.35 0.5 -7.25 -0.7 -7.25 -2.15 L-7.15 -5.05 Q-7.15 -5.8 -6.55 -6.05 -5.25 -6.75 -4.4 -5.55 -4.15 -5.25 -4.15 -4.75 L-3.8 -1.8 Q-3.75 -1.45 -3.4 -1.25 L-2.65 -1.15 -2.5 -1.25 Q-2.15 -1.5 -2.15 -1.95 -2.0 -4.65 -2.0 -7.4 M12.7 -8.45 L1.05 -8.45 1.15 -6.35 13.3 -6.5 13.6 -6.8 13.65 -7.05 Q13.9 -7.65 13.45 -8.1 L13.1 -8.35 12.7 -8.45 M1.15 -2.15 L1.0 -1.1 3.85 -1.25 4.15 -1.55 Q4.6 -2.6 3.6 -2.85 L1.15 -3.2 1.15 -2.15 M1.15 2.05 L-3.45 2.35 -3.95 2.75 Q-4.25 3.3 -3.75 3.75 L-3.05 4.15 1.35 4.1 1.95 3.9 2.2 3.35 2.2 3.1 Q2.1 2.15 1.15 2.05 M0.1 9.4 L1.0 8.95 Q1.3 8.2 0.75 7.7 L0.1 7.3 -4.45 7.65 -4.9 8.0 Q-5.1 8.35 -4.9 8.75 L-4.45 9.1 0.1 9.4 Z" fill="none" stroke="#7499a1" stroke-linecap="round" stroke-linejoin="round" stroke-width="2.0"/>
  </g>
</svg>
