<?xml version="1.0" encoding="UTF-8" standalone="no"?>
<svg xmlns:ffdec="https://www.free-decompiler.com/flash" xmlns:xlink="http://www.w3.org/1999/xlink" ffdec:objectType="shape" height="40.1px" width="32.8px" xmlns="http://www.w3.org/2000/svg">
  <g transform="matrix(1.0, 0.0, 0.0, 1.0, 16.65, 4.05)">
    <path d="M-9.15 -2.5 Q-6.8 -4.0 -3.85 -4.0 L5.4 -4.0 Q8.0 -4.0 10.1 -2.85 10.7 -3.6 11.7 -3.9 13.1 -4.2 14.35 -3.5 L14.4 -3.45 Q15.65 -2.75 16.0 -1.4 16.35 0.0 15.65 1.3 L14.85 2.65 Q15.4 4.2 15.4 6.0 L15.4 13.3 15.4 26.55 15.4 36.0 2.75 36.0 5.55 34.6 5.55 28.75 -4.3 28.7 -4.3 36.0 -16.6 36.0 -13.85 34.6 -13.85 29.05 -14.15 28.75 Q-15.1 27.8 -15.1 26.45 L-15.1 13.35 Q-15.1 12.0 -14.15 11.05 L-13.85 10.8 -13.85 5.75 -13.7 4.4 -15.2 0.85 Q-15.75 -0.5 -15.15 -1.85 -14.7 -3.15 -13.3 -3.65 L-10.6 -3.75 Q-9.7 -3.35 -9.15 -2.5 L-8.8 -1.8 -8.0 0.25 -9.65 0.9 Q-11.2 1.6 -12.3 3.0 L-13.1 4.3 -13.55 4.85 -13.7 4.4 M10.1 -2.85 L8.6 -0.3 10.1 0.55 10.9 -0.9 Q11.15 -1.5 11.8 -1.7 L11.9 -1.75 13.25 -1.55 14.05 -0.5 Q14.25 0.2 13.95 0.8 L13.9 0.85 12.45 3.0 13.4 5.0 14.85 2.65 M15.4 13.3 Q15.35 11.95 14.45 11.05 13.5 10.1 12.15 10.1 10.8 10.1 9.85 11.05 8.9 12.0 8.9 13.35 L8.9 19.6 8.9 26.45 Q8.9 27.8 9.85 28.75 10.8 29.7 12.15 29.7 13.5 29.7 14.45 28.75 15.35 27.85 15.4 26.55 M4.6 7.0 Q5.05 7.45 5.05 8.1 5.05 8.75 4.6 9.2 4.15 9.65 3.5 9.65 2.85 9.65 2.4 9.2 1.95 8.75 1.95 8.1 1.95 7.45 2.4 7.0 L2.65 6.8 3.5 6.55 4.35 6.8 4.6 7.0 M5.55 28.75 L5.55 19.6 8.9 19.6 M-8.2 17.6 L-8.05 17.75 Q-6.55 19.25 -4.5 19.25 L-2.65 19.25 Q-0.6 19.25 0.85 17.75 2.35 16.3 2.35 14.25 L2.35 13.35 Q2.35 11.3 0.85 9.8 -0.2 8.75 -1.5 8.5 L-2.85 8.3 -4.6 8.3 Q-6.05 8.3 -7.15 9.0 L-7.0 9.0 -8.05 9.8 -8.6 10.45 Q-9.5 11.75 -9.5 13.35 L-9.5 14.25 -9.05 16.3 -8.7 16.95 -8.6 16.75 -8.55 16.75 -8.25 16.7 Q-6.9 16.8 -6.4 16.25 -6.1 15.75 -5.95 15.1 L-6.6 14.55 -8.05 12.1 -8.2 11.15 -7.75 10.35 Q-7.4 10.0 -6.9 10.0 L-4.0 10.0 Q-3.5 10.0 -3.15 10.35 L-2.65 11.15 -2.8 12.05 -4.25 14.5 -4.85 15.05 -4.2 16.15 Q-3.4 16.85 -1.3 16.6 L-1.0 16.7 -0.8 17.0 -0.9 17.3 -1.15 17.5 Q-3.85 17.85 -4.85 16.75 L-5.35 16.15 -5.65 16.7 Q-6.3 17.65 -7.9 17.6 L-8.2 17.6 -8.35 17.6 -8.65 17.45 -8.75 17.1 -8.7 16.95 M10.1 0.55 Q11.55 1.5 12.45 3.0 M-9.65 0.9 L-10.2 -0.65 -10.65 -1.35 -11.1 -1.65 Q-11.75 -1.95 -12.45 -1.65 L-13.35 -0.75 Q-13.65 0.0 -13.4 0.65 L-12.3 3.0 M-10.9 7.0 L-10.8 6.9 Q-10.35 6.55 -9.8 6.55 L-8.8 6.9 -8.7 7.0 Q-8.25 7.45 -8.25 8.1 -8.25 8.75 -8.7 9.2 -9.15 9.65 -9.8 9.65 -10.45 9.65 -10.9 9.2 L-11.35 8.1 -10.9 7.0 M-4.3 28.7 L-5.6 28.65 -7.1 28.4 Q-13.2 27.05 -13.8 20.2 L-13.8 19.6 -13.85 19.6 -13.85 29.05 M-13.85 10.8 L-13.85 19.25 -13.8 19.6" ffdec:has-small-stroke="true" ffdec:original-stroke-width="0.1" fill="none" stroke="#000000" stroke-linecap="round" stroke-linejoin="round" stroke-opacity="0.0" stroke-width="1.0"/>
  </g>
</svg>
