<?xml version="1.0" encoding="UTF-8" standalone="no"?>
<svg xmlns:ffdec="https://www.free-decompiler.com/flash" xmlns:xlink="http://www.w3.org/1999/xlink" ffdec:objectType="shape" height="18.05px" width="20.75px" xmlns="http://www.w3.org/2000/svg">
  <g transform="matrix(1.0, 0.0, 0.0, 1.0, 8.95, 3.5)">
    <path d="M-5.1 13.6 Q-7.65 12.7 -8.95 11.25 -8.45 7.85 -5.8 5.65 -3.0 3.35 0.65 3.7 L1.1 3.7 Q-4.8 7.0 -5.1 13.6" fill="url(#gradient0)" fill-rule="evenodd" stroke="none"/>
    <path d="M1.1 3.7 L2.5 4.0 Q4.9 4.75 6.6 6.8 8.8 9.45 8.55 13.15 L4.85 14.2 Q5.25 8.25 1.25 3.85 L1.1 3.7" fill="url(#gradient1)" fill-rule="evenodd" stroke="none"/>
    <path d="M4.85 14.2 Q-0.95 15.15 -5.1 13.6 -4.8 7.0 1.1 3.7 L1.25 3.85 Q5.25 8.25 4.85 14.2" fill="url(#gradient2)" fill-rule="evenodd" stroke="none"/>
    <path d="M1.1 3.7 L1.6 -0.85" fill="none" stroke="#e7890a" stroke-linecap="round" stroke-linejoin="round" stroke-width="1.0"/>
    <path d="M0.55 -0.85 L-2.95 -0.65 Q-5.15 -0.9 -6.8 -1.6 -8.3 -2.1 -8.3 -2.65 -8.2 -3.2 -6.65 -3.4 L-2.75 -3.35 Q-0.55 -3.05 0.5 -2.2 1.5 -1.4 1.9 -1.3 L3.7 -1.65 7.15 -1.95 10.5 -1.25 Q11.9 -0.75 11.8 -0.2 11.8 0.35 10.15 0.45 8.6 0.75 6.35 0.45 4.1 0.15 2.45 -0.75 L1.6 -1.2 1.4 -1.25 1.55 -1.2 0.55 -0.85" fill="url(#gradient3)" fill-rule="evenodd" stroke="none"/>
  </g>
  <defs>
    <linearGradient gradientTransform="matrix(0.0056, 5.0E-4, -5.0E-4, 0.0059, -4.0, 8.05)" gradientUnits="userSpaceOnUse" id="gradient0" spreadMethod="pad" x1="-819.2" x2="819.2">
      <stop offset="0.0" stop-color="#e7890a"/>
      <stop offset="1.0" stop-color="#b56a07"/>
    </linearGradient>
    <linearGradient gradientTransform="matrix(0.0046, 0.0, 0.0, 0.0065, 4.85, 9.0)" gradientUnits="userSpaceOnUse" id="gradient1" spreadMethod="pad" x1="-819.2" x2="819.2">
      <stop offset="0.0" stop-color="#e7890a"/>
      <stop offset="1.0" stop-color="#7f4a04"/>
    </linearGradient>
    <linearGradient gradientTransform="matrix(0.0059, 5.0E-4, -6.0E-4, 0.0062, 0.15, 8.7)" gradientUnits="userSpaceOnUse" id="gradient2" spreadMethod="pad" x1="-819.2" x2="819.2">
      <stop offset="0.0" stop-color="#f7f4d2"/>
      <stop offset="1.0" stop-color="#dad596"/>
    </linearGradient>
    <linearGradient gradientTransform="matrix(0.0122, 0.0015, -1.0E-4, 0.0016, 1.8, -1.5)" gradientUnits="userSpaceOnUse" id="gradient3" spreadMethod="pad" x1="-819.2" x2="819.2">
      <stop offset="0.0" stop-color="#cc7808"/>
      <stop offset="1.0" stop-color="#995905"/>
    </linearGradient>
  </defs>
</svg>
