<?xml version="1.0" encoding="UTF-8" standalone="no"?>
<svg xmlns:ffdec="https://www.free-decompiler.com/flash" xmlns:xlink="http://www.w3.org/1999/xlink" ffdec:objectType="shape" height="34.5px" width="43.95px" xmlns="http://www.w3.org/2000/svg">
  <g transform="matrix(1.0, 0.0, 0.0, 1.0, 22.4, 17.85)">
    <path d="M8.0 -10.9 L7.85 -11.0 Q7.2 -11.65 7.2 -12.55 7.2 -13.4 7.85 -14.05 8.55 -14.65 9.5 -14.65 10.5 -14.65 11.2 -14.05 11.85 -13.4 11.85 -12.55 11.85 -11.65 11.2 -11.0 10.65 -10.55 10.0 -10.4 L9.5 -10.4 Q8.65 -10.4 8.0 -10.9" fill="url(#gradient0)" fill-rule="evenodd" stroke="none"/>
    <path d="M-2.1 -13.9 L-2.5 -14.2 Q-3.2 -14.8 -3.2 -15.7 -3.2 -16.6 -2.5 -17.2 -1.85 -17.85 -0.85 -17.85 0.1 -17.85 0.8 -17.2 1.5 -16.6 1.5 -15.7 1.5 -14.8 0.8 -14.2 L0.35 -13.85 -0.85 -13.55 Q-1.55 -13.55 -2.1 -13.9" fill="url(#gradient1)" fill-rule="evenodd" stroke="none"/>
    <path d="M10.0 -10.4 L11.35 -4.8 Q8.85 -3.15 6.85 -1.15 6.0 -4.0 4.75 -6.65 6.1 -9.0 8.0 -10.9 8.65 -10.4 9.5 -10.4 L10.0 -10.4 M17.15 -7.8 L17.3 -7.85 17.55 -7.6 17.15 -7.8 M-12.55 -4.9 Q-12.25 -8.1 -11.15 -10.4 L-10.75 -10.4 Q-9.85 -10.4 -9.2 -10.9 L-5.95 -6.3 -7.65 -1.0 Q-9.95 -3.2 -12.55 -4.9 M10.3 -5.2 Q10.2 -7.75 9.3 -9.45 L9.2 -9.55 9.05 -9.55 8.95 -9.45 8.95 -9.3 Q9.85 -7.65 9.9 -5.2 L9.95 -5.05 10.1 -5.05 10.25 -5.1 10.3 -5.2 M-6.75 -6.2 L-9.25 -9.6 -9.35 -9.7 -9.5 -9.65 -9.6 -9.55 -9.55 -9.4 -7.05 -6.0 -6.95 -5.95 -6.8 -5.95 -6.75 -6.1 -6.75 -6.2" fill="#c0ac0a" fill-rule="evenodd" stroke="none"/>
    <path d="M10.3 -5.2 L10.25 -5.1 10.1 -5.05 9.95 -5.05 9.9 -5.2 Q9.85 -7.65 8.95 -9.3 L8.95 -9.45 9.05 -9.55 9.2 -9.55 9.3 -9.45 Q10.2 -7.75 10.3 -5.2 M5.45 -1.3 L5.45 -1.15 5.3 -1.1 5.2 -1.1 5.1 -1.25 Q3.7 -7.55 0.15 -11.75 L0.1 -11.85 0.15 -12.0 0.3 -12.0 0.45 -11.95 Q4.05 -7.65 5.45 -1.3 M14.8 9.85 L14.7 9.95 14.55 9.95 14.45 9.85 14.45 9.75 Q17.1 2.15 17.95 -6.2 L18.05 -6.3 18.15 -6.35 18.3 -6.3 18.35 -6.15 Q17.5 2.25 14.8 9.85 M14.45 12.35 L14.6 12.35 14.65 12.5 14.6 12.6 14.5 12.65 Q-0.4 14.15 -15.35 12.65 L-15.5 12.6 -15.5 12.5 -15.45 12.35 -15.3 12.35 Q-0.4 13.85 14.45 12.35 M-8.5 -0.45 L-8.45 -0.35 -8.5 -0.2 -8.65 -0.2 -8.75 -0.25 Q-12.4 -3.95 -17.1 -6.05 L-17.2 -6.1 -17.2 -6.25 -17.1 -6.35 -16.95 -6.35 Q-12.15 -4.25 -8.5 -0.45 M-6.75 -6.2 L-6.75 -6.1 -6.8 -5.95 -6.95 -5.95 -7.05 -6.0 -9.55 -9.4 -9.6 -9.55 -9.5 -9.65 -9.35 -9.7 -9.25 -9.6 -6.75 -6.2" fill="#f7f4d2" fill-rule="evenodd" stroke="none"/>
    <path d="M11.35 -4.8 Q14.0 -6.55 17.15 -7.8 L17.55 -7.6 Q18.25 -6.95 19.2 -6.95 18.55 1.7 15.75 11.15 -1.0 13.55 -16.0 11.25 -18.75 1.65 -19.85 -6.65 -19.05 -6.75 -18.4 -7.3 L-18.0 -7.8 -17.75 -7.65 Q-15.0 -6.5 -12.55 -4.9 -9.95 -3.2 -7.65 -1.0 L-5.95 -6.3 Q-4.4 -10.5 -2.1 -13.9 -1.55 -13.55 -0.85 -13.55 L0.35 -13.85 Q2.95 -10.45 4.75 -6.65 6.0 -4.0 6.85 -1.15 8.85 -3.15 11.35 -4.8 M5.45 -1.3 Q4.05 -7.65 0.45 -11.95 L0.3 -12.0 0.15 -12.0 0.1 -11.85 0.15 -11.75 Q3.7 -7.55 5.1 -1.25 L5.2 -1.1 5.3 -1.1 5.45 -1.15 5.45 -1.3 M14.8 9.85 Q17.5 2.25 18.35 -6.15 L18.3 -6.3 18.15 -6.35 18.05 -6.3 17.95 -6.2 Q17.1 2.15 14.45 9.75 L14.45 9.85 14.55 9.95 14.7 9.95 14.8 9.85 M-8.5 -0.45 Q-12.15 -4.25 -16.95 -6.35 L-17.1 -6.35 -17.2 -6.25 -17.2 -6.1 -17.1 -6.05 Q-12.4 -3.95 -8.75 -0.25 L-8.65 -0.2 -8.5 -0.2 -8.45 -0.35 -8.5 -0.45" fill="url(#gradient2)" fill-rule="evenodd" stroke="none"/>
    <path d="M17.3 -7.85 Q16.85 -8.4 16.85 -9.1 16.85 -10.0 17.55 -10.6 18.25 -11.25 19.2 -11.25 20.2 -11.25 20.85 -10.6 21.55 -10.0 21.55 -9.1 21.55 -8.2 20.85 -7.6 20.2 -6.95 19.2 -6.95 18.25 -6.95 17.55 -7.6 L17.3 -7.85" fill="url(#gradient3)" fill-rule="evenodd" stroke="none"/>
    <path d="M15.75 11.15 Q17.75 12.95 16.45 15.5 -0.55 17.8 -17.25 15.5 -17.6 12.9 -16.0 11.25 -1.0 13.55 15.75 11.15 M14.45 12.35 Q-0.4 13.85 -15.3 12.35 L-15.45 12.35 -15.5 12.5 -15.5 12.6 -15.35 12.65 Q-0.4 14.15 14.5 12.65 L14.6 12.6 14.65 12.5 14.6 12.35 14.45 12.35" fill="url(#gradient4)" fill-rule="evenodd" stroke="none"/>
    <path d="M-19.85 -6.65 L-20.1 -6.65 Q-21.05 -6.65 -21.7 -7.3 -22.4 -7.9 -22.4 -8.8 -22.4 -9.7 -21.7 -10.3 -21.05 -10.95 -20.1 -10.95 -19.1 -10.95 -18.4 -10.3 -17.75 -9.7 -17.75 -8.8 -17.75 -8.25 -18.0 -7.8 L-18.4 -7.3 Q-19.05 -6.75 -19.85 -6.65" fill="url(#gradient5)" fill-rule="evenodd" stroke="none"/>
    <path d="M-11.15 -10.4 Q-11.85 -10.5 -12.4 -11.0 -13.1 -11.65 -13.1 -12.55 -13.1 -13.4 -12.4 -14.05 -11.7 -14.65 -10.75 -14.65 -9.75 -14.65 -9.1 -14.05 -8.4 -13.4 -8.4 -12.55 -8.4 -11.65 -9.1 -11.0 L-9.2 -10.9 Q-9.85 -10.4 -10.75 -10.4 L-11.15 -10.4" fill="url(#gradient6)" fill-rule="evenodd" stroke="none"/>
  </g>
  <defs>
    <linearGradient gradientTransform="matrix(0.0028, 0.0, 0.0, 0.0026, 9.5, -12.5)" gradientUnits="userSpaceOnUse" id="gradient0" spreadMethod="pad" x1="-819.2" x2="819.2">
      <stop offset="0.0" stop-color="#ff123c"/>
      <stop offset="1.0" stop-color="#91485b"/>
    </linearGradient>
    <linearGradient gradientTransform="matrix(0.0028, 0.0, 0.0, 0.0026, -0.85, -15.7)" gradientUnits="userSpaceOnUse" id="gradient1" spreadMethod="pad" x1="-819.2" x2="819.2">
      <stop offset="0.0" stop-color="#ff123c"/>
      <stop offset="1.0" stop-color="#91485b"/>
    </linearGradient>
    <linearGradient gradientTransform="matrix(0.0238, 0.0, 0.0, 0.016, -0.3, -0.75)" gradientUnits="userSpaceOnUse" id="gradient2" spreadMethod="pad" x1="-819.2" x2="819.2">
      <stop offset="0.0" stop-color="#c0ac0a"/>
      <stop offset="1.0" stop-color="#ffe40d"/>
    </linearGradient>
    <linearGradient gradientTransform="matrix(0.0028, 0.0, 0.0, 0.0026, 19.15, -9.1)" gradientUnits="userSpaceOnUse" id="gradient3" spreadMethod="pad" x1="-819.2" x2="819.2">
      <stop offset="0.0" stop-color="#ff123c"/>
      <stop offset="1.0" stop-color="#91485b"/>
    </linearGradient>
    <linearGradient gradientTransform="matrix(0.0209, 0.0, 0.0, 0.0034, -0.15, 13.9)" gradientUnits="userSpaceOnUse" id="gradient4" spreadMethod="pad" x1="-819.2" x2="819.2">
      <stop offset="0.0" stop-color="#c0ac0a"/>
      <stop offset="1.0" stop-color="#ffe40d"/>
    </linearGradient>
    <linearGradient gradientTransform="matrix(0.0028, 0.0, 0.0, 0.0026, -20.05, -8.8)" gradientUnits="userSpaceOnUse" id="gradient5" spreadMethod="pad" x1="-819.2" x2="819.2">
      <stop offset="0.0" stop-color="#ff123c"/>
      <stop offset="1.0" stop-color="#91485b"/>
    </linearGradient>
    <linearGradient gradientTransform="matrix(0.0028, 0.0, 0.0, 0.0026, -10.7, -12.5)" gradientUnits="userSpaceOnUse" id="gradient6" spreadMethod="pad" x1="-819.2" x2="819.2">
      <stop offset="0.0" stop-color="#ff123c"/>
      <stop offset="1.0" stop-color="#91485b"/>
    </linearGradient>
  </defs>
</svg>
