<?xml version="1.0" encoding="UTF-8" standalone="no"?>
<svg xmlns:ffdec="https://www.free-decompiler.com/flash" xmlns:xlink="http://www.w3.org/1999/xlink" ffdec:objectType="shape" height="24.75px" width="14.35px" xmlns="http://www.w3.org/2000/svg">
  <g transform="matrix(1.0, 0.0, 0.0, 1.0, 8.15, 15.7)">
    <path d="M1.95 -5.75 L3.2 -3.1 Q-1.3 0.1 -6.8 1.95 L-5.65 -1.75 Q-1.5 -3.3 1.95 -5.75 M4.1 -0.8 L5.05 2.25 Q-0.15 5.85 -5.95 8.4 L-7.2 8.0 -8.15 7.65 -7.55 4.9 Q-1.15 3.05 4.1 -0.8 M5.7 4.75 L6.2 7.55 3.95 8.3 -1.1 9.05 Q2.65 7.25 5.7 4.75 M-4.1 -5.5 Q-2.75 -8.35 -1.15 -10.5 L0.6 -8.05 Q-1.45 -6.3 -4.1 -5.5" fill="url(#gradient0)" fill-rule="evenodd" stroke="none"/>
    <path d="M0.6 -8.05 L1.95 -5.75 Q-1.5 -3.3 -5.65 -1.75 L-4.1 -5.5 Q-1.45 -6.3 0.6 -8.05 M3.2 -3.1 L4.1 -0.8 Q-1.15 3.05 -7.55 4.9 L-6.8 1.95 Q-1.3 0.1 3.2 -3.1 M5.05 2.25 L5.7 4.75 Q2.65 7.25 -1.1 9.05 L-5.95 8.4 Q-0.15 5.85 5.05 2.25" fill="#f7f4d2" fill-rule="evenodd" stroke="none"/>
    <path d="M-5.7 -11.3 L-6.1 -11.7 -5.5 -11.9 -5.85 -12.3 -5.3 -12.4 -5.6 -12.95 -5.0 -12.95 -5.25 -13.5 -4.65 -13.4 -4.85 -14.0 -4.25 -13.85 -4.35 -14.45 -3.8 -14.25 -3.85 -14.85 -3.3 -14.55 -3.25 -15.2 -2.75 -14.8 -2.65 -15.45 -2.2 -15.0 -2.0 -15.6 -1.6 -15.1 -1.35 -15.65 -1.05 -15.15 -0.75 -15.7 -0.5 -15.15 -0.1 -15.65 0.1 -15.05 0.55 -15.45 0.65 -14.85 1.15 -15.2 1.2 -14.6 1.7 -14.95 1.65 -14.3 2.25 -14.55 2.1 -13.95 2.65 -14.1 2.5 -13.5 3.1 -13.6 2.85 -13.05 3.45 -13.0 3.1 -12.5 3.7 -12.45 3.35 -11.95 3.9 -11.8 3.45 -11.4 4.05 -11.15 3.55 -10.8 4.05 -10.5 3.5 -10.25 4.0 -9.85 3.45 -9.65 3.85 -9.25 3.3 -9.05 3.65 -8.55 3.1 -8.5 3.4 -8.0 2.75 -7.95 3.0 -7.4 2.4 -7.45 2.6 -6.9 2.05 -7.1 2.15 -6.45 1.55 -6.7 1.6 -6.1 1.1 -6.35 1.05 -5.75 0.55 -6.1 0.45 -5.5 0.0 -5.9 -0.2 -5.35 -0.6 -5.8 -0.85 -5.25 -1.15 -5.75 -1.5 -5.25 -1.75 -5.8 -2.1 -5.3 -2.3 -5.9 -2.75 -5.45 -2.85 -6.05 -3.35 -5.7 -3.4 -6.3 -3.9 -6.0 -3.9 -6.6 -4.45 -6.35 -4.3 -7.0 -4.9 -6.85 -4.75 -7.45 -5.3 -7.35 -5.1 -7.9 -5.7 -7.9 -5.35 -8.4 -5.95 -8.5 -5.55 -8.95 -6.1 -9.15 -5.7 -9.5 -6.25 -9.75 -5.75 -10.1 -6.3 -10.45 -5.75 -10.7 -6.25 -11.05 -5.7 -11.3" fill="#e84a61" fill-rule="evenodd" stroke="none"/>
  </g>
  <defs>
    <linearGradient gradientTransform="matrix(0.4034, 0.0, 0.0, 0.4034, 29.3, 16.0)" gradientUnits="userSpaceOnUse" id="gradient0" spreadMethod="pad" x1="-819.2" x2="819.2">
      <stop offset="0.0" stop-color="#ff123c"/>
      <stop offset="1.0" stop-color="#91485b"/>
    </linearGradient>
  </defs>
</svg>
