<?xml version="1.0" encoding="UTF-8" standalone="no"?>
<svg xmlns:ffdec="https://www.free-decompiler.com/flash" xmlns:xlink="http://www.w3.org/1999/xlink" ffdec:objectType="shape" height="18.45px" width="23.35px" xmlns="http://www.w3.org/2000/svg">
  <g transform="matrix(1.0, 0.0, 0.0, 1.0, 9.7, 5.4)">
    <path d="M4.2 -1.3 Q3.0 1.2 -0.05 2.2 -4.75 3.5 -3.3 0.25 0.0 -2.75 1.75 -2.1 L4.2 -1.3" fill="url(#gradient0)" fill-rule="evenodd" stroke="none"/>
    <path d="M4.2 -1.3 L5.4 -0.9 Q6.5 -0.55 6.6 2.5 -3.3 6.95 -7.7 11.1 -7.55 8.6 -6.8 6.35 -5.95 3.65 -4.3 1.25 L-3.3 0.25 Q-4.75 3.5 -0.05 2.2 3.0 1.2 4.2 -1.3" fill="url(#gradient1)" fill-rule="evenodd" stroke="none"/>
    <path d="M-7.7 11.1 Q-3.3 6.95 6.6 2.5 L7.2 2.2 8.05 7.35 Q3.8 11.65 -9.15 12.55 L-7.7 11.1" fill="url(#gradient2)" fill-rule="evenodd" stroke="none"/>
    <path d="M-6.8 6.35 Q-7.55 8.6 -7.7 11.1 L-9.15 12.55 Q-9.65 8.55 -6.8 6.35" fill="url(#gradient3)" fill-rule="evenodd" stroke="none"/>
    <path d="M6.6 2.5 Q6.5 -0.55 5.4 -0.9 L4.2 -1.3 Q3.0 1.2 -0.05 2.2 -4.75 3.5 -3.3 0.25 L-4.3 1.25 Q-5.95 3.65 -6.8 6.35 -7.55 8.6 -7.7 11.1 -3.3 6.95 6.6 2.5 L7.2 2.2 8.05 7.35 Q3.8 11.65 -9.15 12.55 -9.65 8.55 -6.8 6.35 M4.2 -1.3 L1.75 -2.1 Q0.0 -2.75 -3.3 0.25 M-7.7 11.1 L-9.15 12.55" fill="none" stroke="#418c25" stroke-linecap="round" stroke-linejoin="round" stroke-width="1.0"/>
    <path d="M13.15 -4.9 Q12.2 -2.1 7.7 1.65 4.05 4.75 3.05 6.45 4.05 4.75 7.7 1.65 12.2 -2.1 13.15 -4.9 13.5 1.5 3.05 6.45 2.35 2.65 13.15 -4.9" fill="#eb403d" fill-rule="evenodd" stroke="none"/>
    <path d="M0.9 9.8 L1.35 9.05 M3.05 6.45 Q4.05 4.75 7.7 1.65 12.2 -2.1 13.15 -4.9 2.35 2.65 3.05 6.45 13.5 1.5 13.15 -4.9 M2.4 7.4 L3.05 6.45" fill="none" stroke="#cb0000" stroke-linecap="round" stroke-linejoin="round" stroke-width="1.0"/>
  </g>
  <defs>
    <linearGradient gradientTransform="matrix(-0.0031, 0.0035, -0.0022, -0.0019, 0.1, 0.15)" gradientUnits="userSpaceOnUse" id="gradient0" spreadMethod="pad" x1="-819.2" x2="819.2">
      <stop offset="0.0" stop-color="#98ce6f"/>
      <stop offset="1.0" stop-color="#73bf59"/>
    </linearGradient>
    <linearGradient gradientTransform="matrix(0.0049, -0.0032, 0.0025, 0.0037, -2.65, 4.3)" gradientUnits="userSpaceOnUse" id="gradient1" spreadMethod="pad" x1="-819.2" x2="819.2">
      <stop offset="0.0" stop-color="#98ce6f"/>
      <stop offset="1.0" stop-color="#73bf59"/>
    </linearGradient>
    <linearGradient gradientTransform="matrix(0.0056, -0.0019, 0.0012, 0.0036, 0.95, 7.7)" gradientUnits="userSpaceOnUse" id="gradient2" spreadMethod="pad" x1="-819.2" x2="819.2">
      <stop offset="0.0" stop-color="#98ce6f"/>
      <stop offset="1.0" stop-color="#73bf59"/>
    </linearGradient>
    <linearGradient gradientTransform="matrix(4.0E-4, -0.0013, 0.001, 3.0E-4, -8.05, 9.65)" gradientUnits="userSpaceOnUse" id="gradient3" spreadMethod="pad" x1="-819.2" x2="819.2">
      <stop offset="0.0" stop-color="#98ce6f"/>
      <stop offset="1.0" stop-color="#73bf59"/>
    </linearGradient>
  </defs>
</svg>
