<?xml version="1.0" encoding="UTF-8" standalone="no"?>
<svg xmlns:ffdec="https://www.free-decompiler.com/flash" xmlns:xlink="http://www.w3.org/1999/xlink" ffdec:objectType="shape" height="26.35px" width="50.95px" xmlns="http://www.w3.org/2000/svg">
  <g transform="matrix(1.0, 0.0, 0.0, 1.0, 25.85, 20.5)">
    <path d="M24.5 -4.3 Q23.9 -2.05 17.3 -0.3 L17.15 -0.3 16.05 0.0 Q10.05 1.3 2.2 1.6 L2.05 1.6 -0.45 1.65 Q-10.9 1.8 -18.2 0.0 -24.8 -1.6 -25.55 -3.8 L-25.65 -4.4 Q-25.7 -7.05 -18.3 -8.9 -13.65 -10.1 -7.65 -10.65 L-8.1 -9.5 Q-14.0 -9.05 -18.45 -7.8 -24.5 -6.05 -24.55 -4.4 -24.5 -2.75 -18.4 -1.15 -11.2 0.7 -0.55 0.6 10.2 0.5 17.4 -1.5 23.45 -3.2 23.45 -4.85 23.45 -6.55 17.35 -8.1 12.85 -9.2 7.05 -9.65 L6.55 -10.75 Q12.5 -10.4 17.2 -9.25 24.55 -7.5 24.6 -4.85 L24.5 -4.3 M-24.4 0.85 Q-24.05 0.85 -23.75 0.5 L-23.55 0.2 -19.85 1.65 -19.95 2.05 -19.6 2.9 Q-19.3 3.25 -18.75 3.2 L-17.9 2.85 -17.5 2.25 -13.45 2.95 -13.5 3.2 -13.05 4.05 Q-12.75 4.4 -12.2 4.4 -11.7 4.4 -11.35 4.0 -11.05 3.75 -11.0 3.3 L-5.75 3.7 -5.75 3.9 -5.4 4.8 Q-5.15 5.1 -4.6 5.1 L-3.7 4.75 Q-3.35 4.4 -3.35 3.85 L-3.35 3.7 -0.45 3.75 2.85 3.65 2.8 3.8 Q2.8 4.35 3.15 4.65 3.5 5.0 3.95 5.0 L4.9 4.65 5.2 3.8 5.2 3.55 10.35 3.05 Q10.35 3.5 10.7 3.85 11.05 4.2 11.5 4.15 12.05 4.2 12.4 3.75 12.75 3.45 12.75 2.9 L12.75 2.7 16.8 1.9 17.1 2.5 Q17.55 2.85 18.0 2.85 L18.9 2.5 Q19.25 2.15 19.2 1.75 L19.15 1.25 Q21.45 0.5 22.8 -0.35 L23.05 0.05 23.55 0.35 22.85 1.45 Q22.1 2.45 20.9 2.9 14.05 5.8 -0.45 5.85 -14.85 6.1 -21.8 3.35 -23.0 2.85 -23.75 1.9 L-24.4 0.85" fill="#bb7800" fill-rule="evenodd" stroke="none"/>
    <path d="M24.5 -4.3 L24.6 -3.8 24.55 -3.25 Q24.35 -2.65 23.75 -2.0 L23.85 -2.05 24.4 -1.9 24.7 -1.7 Q25.1 -1.3 25.1 -0.8 L24.75 0.05 Q24.3 0.4 23.85 0.4 L23.55 0.35 23.05 0.05 22.8 -0.35 22.65 -0.75 22.85 -1.35 Q21.25 -0.3 18.35 0.5 18.65 0.55 18.85 0.8 L19.15 1.25 19.2 1.75 Q19.25 2.15 18.9 2.5 L18.0 2.85 Q17.55 2.85 17.1 2.5 L16.8 1.9 16.75 1.7 Q16.75 1.15 17.1 0.85 L11.95 1.9 12.35 2.1 12.75 2.7 12.75 2.9 Q12.75 3.45 12.4 3.75 12.05 4.2 11.5 4.15 11.05 4.2 10.7 3.85 10.35 3.5 10.35 3.05 L10.3 2.95 Q10.3 2.45 10.65 2.15 L10.8 2.05 4.4 2.65 4.8 2.95 5.2 3.55 5.2 3.8 4.9 4.65 3.95 5.0 Q3.5 5.0 3.15 4.65 2.8 4.35 2.8 3.8 L2.85 3.65 3.15 3.0 3.45 2.75 -0.5 2.75 -4.05 2.8 -3.75 3.05 Q-3.4 3.3 -3.35 3.7 L-3.35 3.85 Q-3.35 4.4 -3.7 4.75 L-4.6 5.1 Q-5.15 5.1 -5.4 4.8 L-5.75 3.9 -5.75 3.7 -5.45 3.1 -5.1 2.8 -11.4 2.3 -11.4 2.35 Q-11.1 2.65 -11.05 3.2 L-11.0 3.3 Q-11.05 3.75 -11.35 4.0 -11.7 4.4 -12.2 4.4 -12.75 4.4 -13.05 4.05 L-13.5 3.2 -13.45 2.95 -13.1 2.35 -12.8 2.15 -17.85 1.2 Q-17.5 1.5 -17.5 2.05 L-17.5 2.25 -17.9 2.85 -18.75 3.2 Q-19.3 3.25 -19.6 2.9 L-19.95 2.05 -19.85 1.65 -19.6 1.2 -19.15 0.9 Q-21.95 0.15 -23.5 -0.7 L-23.45 -0.35 -23.55 0.2 -23.75 0.5 Q-24.05 0.85 -24.4 0.85 L-24.65 0.85 -25.5 0.5 Q-25.85 0.2 -25.85 -0.3 -25.85 -0.85 -25.5 -1.2 L-25.35 -1.35 -24.7 -1.55 Q-25.4 -2.2 -25.55 -2.85 L-25.65 -3.3 -25.55 -3.8 Q-24.8 -1.6 -18.2 0.0 -10.9 1.8 -0.45 1.65 L2.05 1.6 2.2 1.6 Q10.05 1.3 16.05 0.0 L17.15 -0.3 17.3 -0.3 Q23.9 -2.05 24.5 -4.3" fill="#ebf3ef" fill-rule="evenodd" stroke="none"/>
    <path d="M-25.55 -2.85 Q-25.4 -2.2 -24.7 -1.55 L-25.35 -1.35 -25.65 -2.35 -25.55 -2.85 M-23.55 0.2 L-23.45 -0.35 -23.5 -0.7 Q-21.95 0.15 -19.15 0.9 L-19.6 1.2 -19.85 1.65 -23.55 0.2 M-17.5 2.25 L-17.5 2.05 Q-17.5 1.5 -17.85 1.2 L-12.8 2.15 -13.1 2.35 -13.45 2.95 -17.5 2.25 M-11.0 3.3 L-11.05 3.2 Q-11.1 2.65 -11.4 2.35 L-11.4 2.3 -5.1 2.8 -5.45 3.1 -5.75 3.7 -11.0 3.3 M-3.35 3.7 Q-3.4 3.3 -3.75 3.05 L-4.05 2.8 -0.5 2.75 3.45 2.75 3.15 3.0 2.85 3.65 -0.45 3.75 -3.35 3.7 M5.2 3.55 L4.8 2.95 4.4 2.65 10.8 2.05 10.65 2.15 Q10.3 2.45 10.3 2.95 L10.35 3.05 5.2 3.55 M12.75 2.7 L12.35 2.1 11.95 1.9 17.1 0.85 Q16.75 1.15 16.75 1.7 L16.8 1.9 12.75 2.7 M19.15 1.25 L18.85 0.8 Q18.65 0.55 18.35 0.5 21.25 -0.3 22.85 -1.35 L22.65 -0.75 22.8 -0.35 Q21.45 0.5 19.15 1.25 M24.4 -1.9 L23.85 -2.05 23.75 -2.0 Q24.35 -2.65 24.55 -3.25 L24.6 -2.8 24.4 -1.9" fill="#75260c" fill-rule="evenodd" stroke="none"/>
    <path d="M7.05 -9.65 Q12.85 -9.2 17.35 -8.1 23.45 -6.55 23.45 -4.85 23.45 -3.2 17.4 -1.5 10.2 0.5 -0.55 0.6 -11.2 0.7 -18.4 -1.15 -24.5 -2.75 -24.55 -4.4 -24.5 -6.05 -18.45 -7.8 -14.0 -9.05 -8.1 -9.5 L-9.25 -6.65 Q-1.6 0.15 8.5 -6.0 L7.05 -9.65" fill="url(#gradient0)" fill-rule="evenodd" stroke="none"/>
    <path d="M6.55 -10.75 L7.05 -9.65 8.5 -6.0 Q-1.6 0.15 -9.25 -6.65 L-8.1 -9.5 -7.65 -10.65 -7.2 -11.7 Q-3.45 -20.45 -0.75 -20.5 2.05 -20.55 6.05 -11.85 L6.55 -10.75" fill="url(#gradient1)" fill-rule="evenodd" stroke="none"/>
  </g>
  <defs>
    <linearGradient gradientTransform="matrix(-0.0102, 0.0047, -0.0055, -0.0119, 3.2, -6.35)" gradientUnits="userSpaceOnUse" id="gradient0" spreadMethod="pad" x1="-819.2" x2="819.2">
      <stop offset="0.0" stop-color="#ffa61d"/>
      <stop offset="1.0" stop-color="#d88e1a"/>
    </linearGradient>
    <linearGradient gradientTransform="matrix(-0.0039, -0.0028, 0.006, -0.0083, -3.05, -12.4)" gradientUnits="userSpaceOnUse" id="gradient1" spreadMethod="pad" x1="-819.2" x2="819.2">
      <stop offset="0.0" stop-color="#ffa61d"/>
      <stop offset="1.0" stop-color="#d88e1a"/>
    </linearGradient>
  </defs>
</svg>
