<?xml version="1.0" encoding="UTF-8" standalone="no"?>
<svg xmlns:ffdec="https://www.free-decompiler.com/flash" xmlns:xlink="http://www.w3.org/1999/xlink" ffdec:objectType="shape" height="27.95px" width="20.0px" xmlns="http://www.w3.org/2000/svg">
  <g transform="matrix(1.0, 0.0, 0.0, 1.0, 9.5, 6.45)">
    <path d="M0.3 14.9 Q0.3 16.05 1.2 16.85 2.0 17.75 3.15 17.75 4.0 17.75 4.7 17.25 L5.15 16.85 5.9 15.6 6.0 14.9 Q6.0 13.75 5.15 12.9 4.3 12.1 3.15 12.1 2.0 12.1 1.2 12.9 0.3 13.75 0.3 14.9 Z" fill="none" stroke="#e7890a" stroke-linecap="round" stroke-linejoin="round" stroke-width="2.0"/>
    <path d="M6.85 15.35 Q7.95 25.6 4.7 17.25" fill="none" stroke="#000000" stroke-linecap="round" stroke-linejoin="round" stroke-width="1.0"/>
    <path d="M10.5 3.65 Q9.25 6.25 1.1 8.25 7.65 5.4 10.5 3.65" fill="url(#gradient0)" fill-rule="evenodd" stroke="none"/>
    <path d="M9.25 3.2 L10.5 3.65 Q7.65 5.4 1.1 8.25 -3.3 9.4 -7.3 7.7 -10.15 6.25 -9.3 4.2 -6.9 9.35 0.75 6.9 4.2 6.25 7.95 4.1 L9.25 3.2" fill="url(#gradient1)" fill-rule="evenodd" stroke="none"/>
    <path d="M-9.3 4.2 Q-8.75 2.65 -6.1 1.7 L-6.1 2.8 -6.1 5.35 Q-4.2 7.15 0.75 6.9 -6.9 9.35 -9.3 4.2 M7.95 2.7 L9.25 3.2 7.95 4.1 7.95 2.7" fill="url(#gradient2)" fill-rule="evenodd" stroke="none"/>
    <path d="M7.95 2.55 L7.95 2.7 7.95 4.1 Q4.2 6.25 0.75 6.9 -4.2 7.15 -6.1 5.35 L-6.1 2.8 Q0.65 5.55 7.95 2.55" fill="url(#gradient3)" fill-rule="evenodd" stroke="none"/>
    <path d="M-6.1 1.7 L-6.1 -4.6 Q0.05 -0.65 7.95 -4.75 7.5 -0.7 7.95 2.55 0.65 5.55 -6.1 2.8 L-6.1 1.7" fill="url(#gradient4)" fill-rule="evenodd" stroke="none"/>
    <path d="M-6.1 -4.6 Q0.65 -8.2 7.95 -4.75 0.05 -0.65 -6.1 -4.6" fill="url(#gradient5)" fill-rule="evenodd" stroke="none"/>
  </g>
  <defs>
    <linearGradient gradientTransform="matrix(0.0057, 0.0, 0.0, 0.0027, 5.65, 5.8)" gradientUnits="userSpaceOnUse" id="gradient0" spreadMethod="pad" x1="-819.2" x2="819.2">
      <stop offset="0.0" stop-color="#1c2530"/>
      <stop offset="1.0" stop-color="#222c3e"/>
    </linearGradient>
    <linearGradient gradientTransform="matrix(0.0123, 0.0, 0.0, 0.0034, 0.4, 5.7)" gradientUnits="userSpaceOnUse" id="gradient1" spreadMethod="pad" x1="-819.2" x2="819.2">
      <stop offset="0.0" stop-color="#374555"/>
      <stop offset="1.0" stop-color="#4f4f4f"/>
    </linearGradient>
    <linearGradient gradientTransform="matrix(0.0061, 0.0, 0.0, 0.0042, -4.2, 4.05)" gradientUnits="userSpaceOnUse" id="gradient2" spreadMethod="pad" x1="-819.2" x2="819.2">
      <stop offset="0.0" stop-color="#1c252f"/>
      <stop offset="1.0" stop-color="#222c3e"/>
    </linearGradient>
    <linearGradient gradientTransform="matrix(0.0052, -1.0E-4, 0.0, 0.0026, 0.1, 4.6)" gradientUnits="userSpaceOnUse" id="gradient3" spreadMethod="pad" x1="-819.2" x2="819.2">
      <stop offset="0.0" stop-color="#ff123c"/>
      <stop offset="1.0" stop-color="#91485b"/>
    </linearGradient>
    <linearGradient gradientTransform="matrix(0.0062, 1.0E-4, -1.0E-4, 0.0055, 0.1, -0.5)" gradientUnits="userSpaceOnUse" id="gradient4" spreadMethod="pad" x1="-819.2" x2="819.2">
      <stop offset="0.0" stop-color="#384357"/>
      <stop offset="1.0" stop-color="#1c2531"/>
    </linearGradient>
    <linearGradient gradientTransform="matrix(0.0, -0.0012, 0.0085, 0.0, 0.75, -4.15)" gradientUnits="userSpaceOnUse" id="gradient5" spreadMethod="pad" x1="-819.2" x2="819.2">
      <stop offset="0.0" stop-color="#1c2530"/>
      <stop offset="1.0" stop-color="#222c3e"/>
    </linearGradient>
  </defs>
</svg>
