<?xml version="1.0" encoding="UTF-8" standalone="no"?>
<svg xmlns:ffdec="https://www.free-decompiler.com/flash" xmlns:xlink="http://www.w3.org/1999/xlink" ffdec:objectType="shape" height="29.6px" width="33.35px" xmlns="http://www.w3.org/2000/svg">
  <g transform="matrix(1.0, 0.0, 0.0, 1.0, 16.65, 13.95)">
    <path d="M2.1 -7.45 Q6.85 -6.85 9.5 -5.05 11.65 -3.55 14.05 0.05 15.65 2.55 15.45 7.85 15.4 11.0 14.75 14.5 L14.75 14.6 14.65 15.1 9.15 15.25 -0.85 14.4 -10.45 12.9 Q-14.65 12.15 -16.2 11.45 -16.15 9.05 -15.3 5.95 -13.75 -0.2 -9.95 -3.8 -7.8 -5.85 -5.6 -6.7 -2.35 -8.0 2.1 -7.45" fill="#b26d02" fill-rule="evenodd" stroke="none"/>
    <path d="M-14.45 2.55 Q-12.9 3.25 -8.85 4.05 L0.45 5.5 10.2 6.35 15.55 6.2 15.55 6.15 16.45 6.7 16.7 7.65 15.8 14.3 15.35 15.1 Q15.0 15.45 14.45 15.45 12.75 15.75 8.65 15.55 L-0.75 14.7 -10.1 13.3 Q-14.15 12.5 -15.6 11.8 -16.15 11.7 -16.4 11.25 L-16.65 10.35 -15.8 3.7 -15.3 2.9 -14.45 2.55" fill="#ffa61d" fill-rule="evenodd" stroke="none"/>
    <path d="M-3.55 -8.5 L-4.05 -9.0 -3.35 -9.2 -3.75 -9.75 -3.05 -9.85 -3.45 -10.55 -2.65 -10.55 -3.0 -11.25 -2.25 -11.1 -2.5 -11.85 -1.75 -11.7 -1.85 -12.45 -1.15 -12.15 -1.25 -12.9 -0.55 -12.55 -0.5 -13.35 0.15 -12.85 0.25 -13.65 0.8 -13.1 1.05 -13.85 1.55 -13.25 1.85 -13.95 2.25 -13.3 2.65 -13.95 3.0 -13.3 3.45 -13.9 3.7 -13.15 4.25 -13.65 4.4 -12.95 5.0 -13.35 5.05 -12.6 5.7 -13.0 5.65 -12.25 6.35 -12.55 6.2 -11.75 6.9 -11.95 6.75 -11.2 7.45 -11.3 7.15 -10.65 7.85 -10.6 7.5 -10.0 8.25 -9.9 7.75 -9.25 8.45 -9.1 7.9 -8.6 8.6 -8.3 8.05 -7.85 8.65 -7.5 8.0 -7.15 8.6 -6.65 7.9 -6.4 8.4 -5.9 7.7 -5.65 8.15 -5.05 7.45 -4.95 7.85 -4.35 7.05 -4.25 7.35 -3.6 6.6 -3.65 6.85 -2.95 6.15 -3.2 6.25 -2.4 5.55 -2.7 5.6 -1.95 4.95 -2.3 4.85 -1.5 4.25 -1.95 4.1 -1.2 3.55 -1.75 3.35 -1.0 2.8 -1.6 2.5 -0.85 2.1 -1.55 1.7 -0.85 1.4 -1.6 0.95 -0.95 0.7 -1.7 0.15 -1.15 0.0 -1.9 -0.6 -1.45 -0.7 -2.2 -1.3 -1.8 -1.3 -2.6 -2.0 -2.3 -1.85 -3.1 -2.6 -2.9 -2.35 -3.65 -3.05 -3.5 -2.8 -4.2 -3.55 -4.2 -3.1 -4.8 -3.85 -4.95 -3.35 -5.5 -4.1 -5.75 -3.55 -6.25 -4.25 -6.5 -3.65 -7.0 -4.3 -7.4 -3.6 -7.75 -4.25 -8.15 -3.55 -8.5" fill="#ffa61d" fill-rule="evenodd" stroke="none"/>
  </g>
</svg>
