<?xml version="1.0" encoding="UTF-8" standalone="no"?>
<svg xmlns:ffdec="https://www.free-decompiler.com/flash" xmlns:xlink="http://www.w3.org/1999/xlink" ffdec:objectType="shape" height="20.95px" width="19.7px" xmlns="http://www.w3.org/2000/svg">
  <g transform="matrix(1.0, 0.0, 0.0, 1.0, 7.85, 4.35)">
    <path d="M-4.85 -1.6 Q-1.35 -4.6 2.8 -4.3 6.55 -4.1 7.45 1.65 L8.3 7.6 Q8.85 11.1 9.9 13.9 L9.85 13.9 10.15 14.55 Q6.85 13.7 3.95 8.55 L2.35 5.4 Q-0.3 -1.25 -4.85 -1.6" fill="url(#gradient0)" fill-rule="evenodd" stroke="none"/>
    <path d="M3.95 8.55 Q-1.15 10.6 -7.85 7.3 L-7.05 4.5 Q-2.35 6.35 2.35 5.4 L3.95 8.55" fill="url(#gradient1)" fill-rule="evenodd" stroke="none"/>
    <path d="M-7.05 4.5 Q-6.25 -0.35 -4.85 -1.6 -0.3 -1.25 2.35 5.4 -2.35 6.35 -7.05 4.5" fill="url(#gradient2)" fill-rule="evenodd" stroke="none"/>
    <path d="M11.5 13.35 Q11.95 14.0 11.85 14.8 11.8 15.65 11.2 16.2 10.65 16.7 9.85 16.6 9.1 16.5 8.65 15.85 8.2 15.2 8.25 14.35 8.35 13.5 8.9 13.0 9.5 12.45 10.25 12.55 11.05 12.7 11.5 13.35" fill="url(#gradient3)" fill-rule="evenodd" stroke="none"/>
  </g>
  <defs>
    <linearGradient gradientTransform="matrix(0.0025, 0.0044, -0.005, 0.0034, 3.15, 2.45)" gradientUnits="userSpaceOnUse" id="gradient0" spreadMethod="pad" x1="-819.2" x2="819.2">
      <stop offset="0.0" stop-color="#ff123c"/>
      <stop offset="1.0" stop-color="#91485b"/>
    </linearGradient>
    <linearGradient gradientTransform="matrix(-0.0043, -4.0E-4, 2.0E-4, -0.0026, -1.65, 7.1)" gradientUnits="userSpaceOnUse" id="gradient1" spreadMethod="pad" x1="-819.2" x2="819.2">
      <stop offset="0.0" stop-color="#dad596"/>
      <stop offset="1.0" stop-color="#f7f4d2"/>
    </linearGradient>
    <linearGradient gradientTransform="matrix(0.0026, 0.0017, -0.002, 0.0038, -2.6, 3.15)" gradientUnits="userSpaceOnUse" id="gradient2" spreadMethod="pad" x1="-819.2" x2="819.2">
      <stop offset="0.0" stop-color="#ff123c"/>
      <stop offset="1.0" stop-color="#91485b"/>
    </linearGradient>
    <linearGradient gradientTransform="matrix(0.0022, 0.0, 0.0, 0.0025, 10.05, 14.55)" gradientUnits="userSpaceOnUse" id="gradient3" spreadMethod="pad" x1="-819.2" x2="819.2">
      <stop offset="0.0" stop-color="#dad596"/>
      <stop offset="1.0" stop-color="#f7f4d2"/>
    </linearGradient>
  </defs>
</svg>
