<?xml version="1.0" encoding="UTF-8" standalone="no"?>
<svg xmlns:ffdec="https://www.free-decompiler.com/flash" xmlns:xlink="http://www.w3.org/1999/xlink" ffdec:objectType="shape" height="20.4px" width="53.9px" xmlns="http://www.w3.org/2000/svg">
  <g transform="matrix(1.0, 0.0, 0.0, 1.0, 36.1, 3.55)">
    <path d="M-35.9 12.7 L-35.3 11.55 -31.05 10.45 -27.95 9.55 -23.85 8.5 -16.15 6.5 -15.9 8.5 -15.9 8.75 -16.8 10.4 -34.65 13.9 Q-35.95 13.4 -35.9 12.7" fill="#e7890a" fill-rule="evenodd" stroke="none"/>
    <path d="M-16.8 10.4 Q-17.1 10.9 -17.05 11.35 L-34.1 14.8 Q-36.75 14.45 -35.9 12.7 -35.95 13.4 -34.65 13.9 L-16.8 10.4" fill="#cc7808" fill-rule="evenodd" stroke="none"/>
    <path d="M-17.35 13.45 Q-19.25 6.15 -14.45 1.45 -10.25 -2.75 -2.65 -3.4 4.75 -4.15 10.1 -1.1 16.0 2.2 15.6 8.2 L15.9 10.15 Q-5.1 4.7 -17.35 13.45" fill="url(#gradient0)" fill-rule="evenodd" stroke="none"/>
    <path d="M15.9 10.15 L15.9 10.4 17.25 11.8 17.75 12.65 Q17.95 13.2 16.85 14.25 16.9 13.25 13.95 12.3 11.7 11.55 9.45 11.05 -2.1 8.45 -13.05 13.25 L-14.6 13.95 Q-16.25 14.6 -16.9 16.45 -19.35 15.35 -17.3 13.65 L-17.35 13.45 Q-5.1 4.7 15.9 10.15" fill="url(#gradient1)" fill-rule="evenodd" stroke="none"/>
    <path d="M16.85 14.25 L14.55 15.1 13.95 12.3 Q16.9 13.25 16.85 14.25 M-14.6 13.95 L-14.6 16.85 -16.9 16.45 Q-16.25 14.6 -14.6 13.95" fill="#333333" fill-rule="evenodd" stroke="none"/>
  </g>
  <defs>
    <linearGradient gradientTransform="matrix(-1.0E-4, -0.0039, 0.0224, -7.0E-4, -0.75, 4.95)" gradientUnits="userSpaceOnUse" id="gradient0" spreadMethod="pad" x1="-819.2" x2="819.2">
      <stop offset="0.0" stop-color="#44403f"/>
      <stop offset="1.0" stop-color="#636260"/>
    </linearGradient>
    <linearGradient gradientTransform="matrix(-1.0E-4, -0.0039, 0.0224, -7.0E-4, -0.75, 4.95)" gradientUnits="userSpaceOnUse" id="gradient1" spreadMethod="pad" x1="-819.2" x2="819.2">
      <stop offset="0.0" stop-color="#3f3b3b"/>
      <stop offset="1.0" stop-color="#595856"/>
    </linearGradient>
  </defs>
</svg>
