<?xml version="1.0" encoding="UTF-8" standalone="no"?>
<svg xmlns:ffdec="https://www.free-decompiler.com/flash" xmlns:xlink="http://www.w3.org/1999/xlink" ffdec:objectType="shape" height="33.4px" width="37.75px" xmlns="http://www.w3.org/2000/svg">
  <g transform="matrix(1.0, 0.0, 0.0, 1.0, 21.55, 1.6)">
    <path d="M-17.8 13.9 L-18.1 13.9 -17.9 13.2 -17.8 13.9" fill="url(#gradient0)" fill-rule="evenodd" stroke="none"/>
    <path d="M-17.85 12.8 Q-16.9 2.65 -7.85 -0.1 1.1 -2.8 7.25 -0.6 13.35 1.6 15.4 6.45 17.25 11.25 14.95 17.45 12.25 20.65 12.5 19.5 L12.65 19.2 12.65 19.05 Q12.4 16.95 11.95 15.4 10.9 12.1 8.75 11.55 L6.55 12.0 Q-8.5 14.5 -17.8 13.9 L-17.9 13.2 -17.85 12.8" fill="url(#gradient1)" fill-rule="evenodd" stroke="none"/>
    <path d="M12.5 19.5 Q10.0 23.65 5.95 23.6 L6.8 20.75 6.85 20.4 Q7.5 16.65 6.55 12.0 L8.75 11.55 Q10.9 12.1 11.95 15.4 12.4 16.95 12.65 19.05 L12.65 19.2 12.5 19.5 M11.95 15.4 L6.8 20.75 11.95 15.4" fill="#006c82" fill-rule="evenodd" stroke="none"/>
    <path d="M12.5 19.5 Q10.0 23.65 5.95 23.6 4.9 29.2 -0.4 30.4 L-1.1 30.55 -7.9 31.3 -14.3 30.65 -15.65 30.2 -15.85 30.1 -16.55 29.55 Q-18.45 27.75 -18.9 24.9 L-18.95 22.85 -19.15 22.0 Q-20.95 21.7 -21.05 21.2 L-21.05 21.15 Q-21.1 20.65 -19.45 19.9 L-15.4 18.75 Q-15.4 17.55 -17.8 13.9 L-18.1 13.9 -19.15 13.85 -20.15 13.7 Q-20.0 12.9 -17.85 12.8 L-17.9 13.2 M-17.8 13.9 Q-8.5 14.5 6.55 12.0 L8.75 11.55 Q10.9 12.1 11.95 15.4 12.4 16.95 12.65 19.05 L12.65 19.2 12.5 19.5 M6.55 12.0 Q7.5 16.65 6.85 20.4 L6.8 20.75 11.95 15.4 M6.8 20.75 L5.95 23.6 0.3 24.55 -1.1 30.55 M0.3 24.55 L0.35 21.7 -7.7 22.3 Q-8.55 24.05 -8.0 25.3 L0.3 24.55 M6.85 20.4 Q4.0 21.25 0.35 21.7 M-18.9 24.9 L-15.9 25.35 Q-16.3 24.0 -15.5 22.15 L-17.85 22.05 -19.15 22.0 M-17.85 22.05 Q-15.5 20.35 -15.4 18.75 M-7.7 22.3 L-15.5 22.15 M-8.0 25.3 Q-8.45 28.35 -7.9 31.3 M-8.0 25.3 Q-11.65 25.5 -15.9 25.35 L-14.3 30.65" fill="none" stroke="#000000" stroke-linecap="round" stroke-linejoin="round" stroke-width="1.0"/>
    <path d="M-12.45 9.65 Q-8.65 -2.0 5.2 1.7 -4.35 0.5 -5.4 9.65 L-12.45 9.65" fill="url(#gradient2)" fill-rule="evenodd" stroke="none"/>
  </g>
  <defs>
    <linearGradient gradientTransform="matrix(7.0E-4, 0.0151, 0.0206, -0.0015, -1.05, 13.55)" gradientUnits="userSpaceOnUse" id="gradient0" spreadMethod="pad" x1="-819.2" x2="819.2">
      <stop offset="0.0" stop-color="#ff123c"/>
      <stop offset="1.0" stop-color="#91485b"/>
    </linearGradient>
    <linearGradient gradientTransform="matrix(0.0208, 0.0, 0.0, 0.0164, -0.85, 11.85)" gradientUnits="userSpaceOnUse" id="gradient1" spreadMethod="pad" x1="-819.2" x2="819.2">
      <stop offset="0.0" stop-color="#0085aa"/>
      <stop offset="1.0" stop-color="#006c82"/>
    </linearGradient>
    <linearGradient gradientTransform="matrix(0.0125, 0.0, 0.0, 0.0088, 0.05, 6.3)" gradientUnits="userSpaceOnUse" id="gradient2" spreadMethod="pad" x1="-819.2" x2="819.2">
      <stop offset="0.0" stop-color="#ff123c"/>
      <stop offset="1.0" stop-color="#91485b"/>
    </linearGradient>
  </defs>
</svg>
