<?xml version="1.0" encoding="UTF-8" standalone="no"?>
<svg xmlns:ffdec="https://www.free-decompiler.com/flash" xmlns:xlink="http://www.w3.org/1999/xlink" ffdec:objectType="shape" height="21.6px" width="37.75px" xmlns="http://www.w3.org/2000/svg">
  <g transform="matrix(1.0, 0.0, 0.0, 1.0, 17.7, 4.1)">
    <path d="M10.85 17.5 L7.5 17.5 7.5 11.85 Q-1.65 7.9 -12.05 11.9 L-13.6 17.3 -14.7 17.3 -14.7 13.45 Q-17.35 11.65 -16.45 8.05 -19.6 3.0 -14.7 -4.1 -14.4 7.9 4.55 -2.0 9.1 -3.95 12.2 -1.9 15.55 0.2 14.85 5.55 17.6 5.7 19.05 7.7 20.35 9.5 19.95 11.95 19.6 14.35 17.8 15.8 L10.85 15.6 10.85 17.5 M-15.25 1.0 Q-15.0 2.45 -13.15 3.2 -15.0 2.45 -15.25 1.0 M6.8 0.15 L10.25 0.95 8.45 -0.9 Q11.5 -0.4 12.95 1.45 11.5 -0.4 8.45 -0.9 L10.25 0.95 6.8 0.15 M15.2 8.1 L16.65 9.2 16.65 7.45 Q18.4 8.05 18.35 10.0 18.4 8.05 16.65 7.45 L16.65 9.2 15.2 8.1" fill="url(#gradient0)" fill-rule="evenodd" stroke="none"/>
    <path d="M18.35 10.0 Q18.4 8.05 16.65 7.45 L16.65 9.2 15.2 8.1 M12.95 1.45 Q11.5 -0.4 8.45 -0.9 L10.25 0.95 6.8 0.15 M-13.15 3.2 Q-15.0 2.45 -15.25 1.0" fill="none" stroke="#dad596" stroke-linecap="round" stroke-linejoin="round" stroke-width="1.0"/>
  </g>
  <defs>
    <linearGradient gradientTransform="matrix(-0.0228, 0.0, 0.0, 0.0145, 1.4, 8.9)" gradientUnits="userSpaceOnUse" id="gradient0" spreadMethod="pad" x1="-819.2" x2="819.2">
      <stop offset="0.0" stop-color="#000000"/>
      <stop offset="1.0" stop-color="#2d2d2d"/>
    </linearGradient>
  </defs>
</svg>
