<?xml version="1.0" encoding="UTF-8" standalone="no"?>
<svg xmlns:ffdec="https://www.free-decompiler.com/flash" xmlns:xlink="http://www.w3.org/1999/xlink" ffdec:objectType="shape" height="35.75px" width="53.25px" xmlns="http://www.w3.org/2000/svg">
  <g transform="matrix(1.0, 0.0, 0.0, 1.0, 28.75, 19.85)">
    <path d="M8.75 -5.35 Q22.4 -11.9 19.25 -17.65 31.95 -8.15 14.05 4.05 7.65 2.55 8.75 -5.35" fill="url(#gradient0)" fill-rule="evenodd" stroke="none"/>
    <path d="M15.2 7.3 Q16.15 7.4 16.55 7.95 17.05 8.55 16.3 9.4 14.6 11.55 9.9 13.15 5.4 14.7 -0.25 15.45 -6.0 16.15 -10.7 15.7 -15.8 15.25 -18.2 13.5 -19.15 11.85 -17.1 11.55 -15.4 13.45 -10.55 13.9 L-0.45 13.45 Q5.05 12.6 9.3 10.95 13.9 9.25 15.2 7.3" fill="url(#gradient1)" fill-rule="evenodd" stroke="none"/>
    <path d="M14.8 6.0 L15.2 7.3 Q13.9 9.25 9.3 10.95 5.05 12.6 -0.45 13.45 L-10.55 13.9 Q-15.4 13.45 -17.1 11.55 L-17.25 8.75 -17.25 8.7 Q-13.2 10.6 -9.15 10.2 -12.9 0.0 -6.75 -9.5 -4.1 -10.45 -1.35 -10.3 -6.95 -0.45 -2.05 10.0 7.1 10.9 14.8 6.0" fill="url(#gradient2)" fill-rule="evenodd" stroke="none"/>
    <path d="M14.05 4.05 L14.8 6.0 Q7.1 10.9 -2.05 10.0 -6.95 -0.45 -1.35 -10.3 4.5 -10.55 8.75 -5.35 7.65 2.55 14.05 4.05" fill="url(#gradient3)" fill-rule="evenodd" stroke="none"/>
    <path d="M-17.25 8.7 L-17.35 6.1 -17.25 4.9 Q-16.85 1.35 -14.95 -2.2 L-14.65 -2.65 -14.7 -2.65 -14.5 -3.05 Q-12.5 -6.3 -8.0 -9.0 -7.4 -9.2 -6.75 -9.5 -12.9 0.0 -9.15 10.2 -13.2 10.6 -17.25 8.7" fill="url(#gradient4)" fill-rule="evenodd" stroke="none"/>
    <path d="M-17.35 6.1 L-17.4 7.3 -17.4 7.35 Q-34.6 -3.0 -25.75 -12.25 -25.75 -5.2 -14.7 -2.65 L-14.65 -2.65 -14.95 -2.2 Q-16.85 1.35 -17.25 4.9 L-17.35 6.1" fill="url(#gradient5)" fill-rule="evenodd" stroke="none"/>
    <path d="M-5.75 1.25 Q-5.65 1.85 -6.0 2.2 -6.35 2.65 -6.95 2.7 -7.55 2.85 -8.0 2.5 L-8.55 1.6 Q-8.6 1.0 -8.25 0.55 -7.95 0.15 -7.35 0.05 L-6.25 0.25 Q-5.8 0.65 -5.75 1.25" fill="url(#gradient6)" fill-rule="evenodd" stroke="none"/>
    <path d="M-5.1 6.95 Q-5.0 7.55 -5.35 7.9 -5.7 8.35 -6.3 8.4 L-7.35 8.2 -7.9 7.3 Q-7.95 6.7 -7.6 6.25 -7.3 5.85 -6.7 5.75 L-5.6 5.95 Q-5.15 6.35 -5.1 6.95" fill="url(#gradient7)" fill-rule="evenodd" stroke="none"/>
    <path d="M-5.1 -4.3 Q-5.0 -3.7 -5.35 -3.35 -5.7 -2.9 -6.3 -2.85 -6.9 -2.7 -7.35 -3.05 L-7.9 -3.95 Q-7.95 -4.55 -7.6 -5.0 -7.3 -5.4 -6.7 -5.5 L-5.6 -5.3 Q-5.15 -4.9 -5.1 -4.3" fill="url(#gradient8)" fill-rule="evenodd" stroke="none"/>
    <path d="M-1.65 -11.2 L-1.7 -11.2 Q-3.8 -9.6 -6.75 -10.8 -6.65 -16.1 -5.1 -19.85 -2.85 -16.5 -1.65 -11.2" fill="url(#gradient9)" fill-rule="evenodd" stroke="none"/>
    <path d="M-1.65 -11.2 Q-0.5 -11.0 -0.5 -9.85 -3.2 -8.15 -6.5 -8.9 L-7.45 -9.1 Q-7.8 -10.1 -6.8 -10.8 L-6.75 -10.8 Q-3.8 -9.6 -1.7 -11.2 L-1.65 -11.2" fill="url(#gradient10)" fill-rule="evenodd" stroke="none"/>
  </g>
  <defs>
    <linearGradient gradientTransform="matrix(-0.0039, 0.0132, -0.0087, -0.0019, 17.85, -10.3)" gradientUnits="userSpaceOnUse" id="gradient0" spreadMethod="pad" x1="-819.2" x2="819.2">
      <stop offset="0.0" stop-color="#f7f4d2"/>
      <stop offset="1.0" stop-color="#ccc18e"/>
    </linearGradient>
    <linearGradient gradientTransform="matrix(0.0106, -6.0E-4, 3.0E-4, 0.0044, -3.3, 11.95)" gradientUnits="userSpaceOnUse" id="gradient1" spreadMethod="pad" x1="-819.2" x2="819.2">
      <stop offset="0.0" stop-color="#7ca0aa"/>
      <stop offset="1.0" stop-color="#5e7c82"/>
      <stop offset="1.0" stop-color="#924b5d"/>
    </linearGradient>
    <linearGradient gradientTransform="matrix(-2.0E-4, 0.0111, -0.0197, 0.0, -0.85, 2.85)" gradientUnits="userSpaceOnUse" id="gradient2" spreadMethod="pad" x1="-819.2" x2="819.2">
      <stop offset="0.0" stop-color="#7ca0aa"/>
      <stop offset="1.0" stop-color="#5e7c82"/>
      <stop offset="1.0" stop-color="#924b5d"/>
    </linearGradient>
    <linearGradient gradientTransform="matrix(0.0046, 0.0094, -0.0099, 0.0037, 2.75, 0.3)" gradientUnits="userSpaceOnUse" id="gradient3" spreadMethod="pad" x1="-819.2" x2="819.2">
      <stop offset="0.0" stop-color="#ff123c"/>
      <stop offset="1.0" stop-color="#91485b"/>
    </linearGradient>
    <linearGradient gradientTransform="matrix(-3.0E-4, 0.0073, -0.0056, -2.0E-4, -12.25, 1.9)" gradientUnits="userSpaceOnUse" id="gradient4" spreadMethod="pad" x1="-819.2" x2="819.2">
      <stop offset="0.0" stop-color="#ff123c"/>
      <stop offset="1.0" stop-color="#91485b"/>
    </linearGradient>
    <linearGradient gradientTransform="matrix(0.0053, 0.0074, -0.0057, 0.0031, -22.65, -4.4)" gradientUnits="userSpaceOnUse" id="gradient5" spreadMethod="pad" x1="-819.2" x2="819.2">
      <stop offset="0.0" stop-color="#f7f4d2"/>
      <stop offset="1.0" stop-color="#ccc18e"/>
    </linearGradient>
    <linearGradient gradientTransform="matrix(0.0016, -2.0E-4, 2.0E-4, 0.0016, -7.25, 1.45)" gradientUnits="userSpaceOnUse" id="gradient6" spreadMethod="pad" x1="-819.2" x2="819.2">
      <stop offset="0.0" stop-color="#648189"/>
      <stop offset="1.0" stop-color="#42575b"/>
      <stop offset="1.0" stop-color="#924b5d"/>
    </linearGradient>
    <linearGradient gradientTransform="matrix(0.0016, -2.0E-4, 2.0E-4, 0.0016, -6.6, 7.15)" gradientUnits="userSpaceOnUse" id="gradient7" spreadMethod="pad" x1="-819.2" x2="819.2">
      <stop offset="0.0" stop-color="#648189"/>
      <stop offset="1.0" stop-color="#42575b"/>
      <stop offset="1.0" stop-color="#924b5d"/>
    </linearGradient>
    <linearGradient gradientTransform="matrix(0.0016, -2.0E-4, 2.0E-4, 0.0016, -6.6, -4.05)" gradientUnits="userSpaceOnUse" id="gradient8" spreadMethod="pad" x1="-819.2" x2="819.2">
      <stop offset="0.0" stop-color="#648189"/>
      <stop offset="1.0" stop-color="#42575b"/>
      <stop offset="1.0" stop-color="#924b5d"/>
    </linearGradient>
    <linearGradient gradientTransform="matrix(0.0017, 0.0019, -0.0037, 0.0025, -3.7, -12.75)" gradientUnits="userSpaceOnUse" id="gradient9" spreadMethod="pad" x1="-819.2" x2="819.2">
      <stop offset="0.0" stop-color="#f7f4d2"/>
      <stop offset="1.0" stop-color="#ccc18e"/>
    </linearGradient>
    <linearGradient gradientTransform="matrix(0.002, -2.0E-4, 2.0E-4, 0.0014, -3.35, -9.75)" gradientUnits="userSpaceOnUse" id="gradient10" spreadMethod="pad" x1="-819.2" x2="819.2">
      <stop offset="0.0" stop-color="#f7f4d2"/>
      <stop offset="1.0" stop-color="#dad596"/>
    </linearGradient>
  </defs>
</svg>
