<?xml version="1.0" encoding="UTF-8" standalone="no"?>
<svg xmlns:ffdec="https://www.free-decompiler.com/flash" xmlns:xlink="http://www.w3.org/1999/xlink" ffdec:objectType="shape" height="35.6px" width="53.35px" xmlns="http://www.w3.org/2000/svg">
  <g transform="matrix(1.0, 0.0, 0.0, 1.0, 28.8, 20.1)">
    <path d="M8.75 -5.4 Q22.5 -11.7 19.35 -17.5 32.0 -7.8 13.8 4.1 7.45 2.45 8.75 -5.4" fill="url(#gradient0)" fill-rule="evenodd" stroke="none"/>
    <path d="M14.5 6.1 L14.85 7.35 Q13.55 9.3 8.95 10.9 4.7 12.5 -0.85 13.2 -6.55 13.95 -10.95 13.45 -15.7 12.95 -17.4 11.05 L-17.5 8.2 -17.5 8.15 Q-13.5 10.15 -9.5 9.8 -13.0 -0.45 -6.75 -9.8 -4.1 -10.75 -1.35 -10.5 -7.1 -0.75 -2.35 9.7 6.75 10.8 14.5 6.1" fill="url(#gradient1)" fill-rule="evenodd" stroke="none"/>
    <path d="M14.85 7.35 Q15.85 7.5 16.25 8.05 16.75 8.65 15.95 9.5 14.25 11.55 9.5 13.1 5.0 14.55 -0.65 15.2 -6.4 15.8 -11.1 15.25 -16.2 14.7 -18.55 12.95 -19.5 11.3 -17.4 11.05 -15.7 12.95 -10.95 13.45 -6.55 13.95 -0.85 13.2 4.7 12.5 8.95 10.9 13.55 9.3 14.85 7.35" fill="url(#gradient2)" fill-rule="evenodd" stroke="none"/>
    <path d="M13.8 4.1 L14.5 6.1 Q6.75 10.8 -2.35 9.7 -7.1 -0.75 -1.35 -10.5 4.55 -10.7 8.75 -5.4 7.45 2.45 13.8 4.1" fill="url(#gradient3)" fill-rule="evenodd" stroke="none"/>
    <path d="M-17.5 8.15 L-17.55 5.6 -17.4 4.4 Q-17.0 0.85 -15.0 -2.65 L-14.7 -3.1 -14.75 -3.1 -14.55 -3.5 Q-12.5 -6.75 -8.0 -9.35 L-6.75 -9.8 Q-13.0 -0.45 -9.5 9.8 -13.5 10.15 -17.5 8.15" fill="url(#gradient4)" fill-rule="evenodd" stroke="none"/>
    <path d="M-17.55 5.6 L-17.65 6.8 -17.65 6.85 Q-34.7 -3.8 -25.7 -12.9 -25.85 -5.85 -14.75 -3.1 L-14.7 -3.1 -15.0 -2.65 Q-17.0 0.85 -17.4 4.4 L-17.55 5.6" fill="url(#gradient5)" fill-rule="evenodd" stroke="none"/>
    <path d="M-5.9 1.0 Q-5.85 1.55 -6.2 1.95 -6.55 2.4 -7.15 2.45 L-8.2 2.2 -8.7 1.35 Q-8.8 0.75 -8.45 0.25 L-7.5 -0.3 -6.45 0.0 Q-6.0 0.4 -5.9 1.0" fill="url(#gradient6)" fill-rule="evenodd" stroke="none"/>
    <path d="M-5.35 6.75 Q-5.3 7.3 -5.65 7.7 -6.0 8.15 -6.6 8.2 L-7.65 7.95 Q-8.1 7.65 -8.15 7.1 -8.25 6.5 -7.9 6.0 -7.55 5.55 -6.95 5.45 -6.35 5.45 -5.9 5.75 -5.45 6.15 -5.35 6.75" fill="url(#gradient7)" fill-rule="evenodd" stroke="none"/>
    <path d="M-5.2 -4.6 Q-5.15 -4.05 -5.5 -3.65 -5.85 -3.2 -6.45 -3.15 -7.05 -3.05 -7.5 -3.4 -7.95 -3.7 -8.0 -4.25 L-7.75 -5.35 Q-7.4 -5.8 -6.8 -5.9 L-5.75 -5.6 Q-5.3 -5.2 -5.2 -4.6" fill="url(#gradient8)" fill-rule="evenodd" stroke="none"/>
    <path d="M-6.7 -11.1 Q-3.8 -9.85 -1.65 -11.45 L-1.6 -11.45 Q-0.45 -11.2 -0.45 -10.05 -3.2 -8.45 -6.5 -9.2 L-7.45 -9.45 Q-7.75 -10.45 -6.75 -11.1 L-6.7 -11.1" fill="url(#gradient9)" fill-rule="evenodd" stroke="none"/>
    <path d="M-1.6 -11.45 L-1.65 -11.45 Q-3.8 -9.85 -6.7 -11.1 -6.5 -16.4 -4.85 -20.1 -2.7 -16.75 -1.6 -11.45" fill="url(#gradient10)" fill-rule="evenodd" stroke="none"/>
  </g>
  <defs>
    <linearGradient gradientTransform="matrix(-0.0042, 0.0131, -0.0087, -0.002, 17.85, -10.15)" gradientUnits="userSpaceOnUse" id="gradient0" spreadMethod="pad" x1="-819.2" x2="819.2">
      <stop offset="0.0" stop-color="#f7f4d2"/>
      <stop offset="1.0" stop-color="#ccc78c"/>
    </linearGradient>
    <linearGradient gradientTransform="matrix(-4.0E-4, 0.0111, -0.0197, -3.0E-4, -1.05, 2.6)" gradientUnits="userSpaceOnUse" id="gradient1" spreadMethod="pad" x1="-819.2" x2="819.2">
      <stop offset="0.0" stop-color="#7ca0aa"/>
      <stop offset="1.0" stop-color="#5e7c82"/>
      <stop offset="1.0" stop-color="#924b5d"/>
    </linearGradient>
    <linearGradient gradientTransform="matrix(0.0106, -4.0E-4, 2.0E-4, 0.0044, -3.65, 11.65)" gradientUnits="userSpaceOnUse" id="gradient2" spreadMethod="pad" x1="-819.2" x2="819.2">
      <stop offset="0.0" stop-color="#7ca0aa"/>
      <stop offset="1.0" stop-color="#5e7c82"/>
      <stop offset="1.0" stop-color="#924b5d"/>
    </linearGradient>
    <linearGradient gradientTransform="matrix(0.0044, 0.0095, -0.0099, 0.0035, 2.6, 0.15)" gradientUnits="userSpaceOnUse" id="gradient3" spreadMethod="pad" x1="-819.2" x2="819.2">
      <stop offset="0.0" stop-color="#e7890a"/>
      <stop offset="1.0" stop-color="#7f4a00"/>
    </linearGradient>
    <linearGradient gradientTransform="matrix(-5.0E-4, 0.0073, -0.0056, -2.0E-4, -12.4, 1.5)" gradientUnits="userSpaceOnUse" id="gradient4" spreadMethod="pad" x1="-819.2" x2="819.2">
      <stop offset="0.0" stop-color="#e7890a"/>
      <stop offset="1.0" stop-color="#7f4a00"/>
    </linearGradient>
    <linearGradient gradientTransform="matrix(0.0052, 0.0075, -0.0057, 0.003, -22.7, -5.0)" gradientUnits="userSpaceOnUse" id="gradient5" spreadMethod="pad" x1="-819.2" x2="819.2">
      <stop offset="0.0" stop-color="#f7f4d2"/>
      <stop offset="1.0" stop-color="#ccc78c"/>
    </linearGradient>
    <linearGradient gradientTransform="matrix(0.0016, -2.0E-4, 2.0E-4, 0.0016, -7.45, 1.15)" gradientUnits="userSpaceOnUse" id="gradient6" spreadMethod="pad" x1="-819.2" x2="819.2">
      <stop offset="0.0" stop-color="#648189"/>
      <stop offset="1.0" stop-color="#42575b"/>
      <stop offset="1.0" stop-color="#924b5d"/>
    </linearGradient>
    <linearGradient gradientTransform="matrix(0.0016, -2.0E-4, 2.0E-4, 0.0016, -6.9, 6.9)" gradientUnits="userSpaceOnUse" id="gradient7" spreadMethod="pad" x1="-819.2" x2="819.2">
      <stop offset="0.0" stop-color="#648189"/>
      <stop offset="1.0" stop-color="#42575b"/>
      <stop offset="1.0" stop-color="#924b5d"/>
    </linearGradient>
    <linearGradient gradientTransform="matrix(0.0016, -2.0E-4, 2.0E-4, 0.0016, -6.75, -4.4)" gradientUnits="userSpaceOnUse" id="gradient8" spreadMethod="pad" x1="-819.2" x2="819.2">
      <stop offset="0.0" stop-color="#648189"/>
      <stop offset="1.0" stop-color="#42575b"/>
      <stop offset="1.0" stop-color="#924b5d"/>
    </linearGradient>
    <linearGradient gradientTransform="matrix(0.002, -1.0E-4, 1.0E-4, 0.0014, -3.35, -10.0)" gradientUnits="userSpaceOnUse" id="gradient9" spreadMethod="pad" x1="-819.2" x2="819.2">
      <stop offset="0.0" stop-color="#f7f4d2"/>
      <stop offset="1.0" stop-color="#dad596"/>
    </linearGradient>
    <linearGradient gradientTransform="matrix(0.0017, 0.0019, -0.0037, 0.0024, -3.6, -13.05)" gradientUnits="userSpaceOnUse" id="gradient10" spreadMethod="pad" x1="-819.2" x2="819.2">
      <stop offset="0.0" stop-color="#f7f4d2"/>
      <stop offset="1.0" stop-color="#ccc18e"/>
    </linearGradient>
  </defs>
</svg>
