<?xml version="1.0" encoding="UTF-8" standalone="no"?>
<svg xmlns:ffdec="https://www.free-decompiler.com/flash" xmlns:xlink="http://www.w3.org/1999/xlink" ffdec:objectType="shape" height="59.25px" width="161.05px" xmlns="http://www.w3.org/2000/svg">
  <g transform="matrix(1.0, 0.0, 0.0, 1.0, 80.5, 57.65)">
    <path d="M0.05 1.6 L-10.45 -8.9 -67.15 -8.9 Q-80.45 -8.9 -80.45 -22.25 L-80.45 -42.65 Q-80.45 -56.0 -67.15 -56.0 L67.25 -56.0 Q80.55 -56.0 80.55 -42.65 L80.55 -22.25 Q80.55 -8.9 67.25 -8.9 L10.55 -8.9 0.05 1.6" fill="#000000" fill-opacity="0.09803922" fill-rule="evenodd" stroke="none"/>
    <path d="M0.05 -21.35 L10.7 -10.7 0.05 -0.05 -10.6 -10.7 0.05 -21.35" fill="#f6f2ce" fill-rule="evenodd" stroke="none"/>
    <path d="M-67.15 -57.65 L67.2 -57.65 Q80.55 -57.65 80.55 -44.3 L80.55 -23.9 Q80.55 -10.6 67.2 -10.6 L-67.15 -10.6 Q-80.5 -10.6 -80.5 -23.9 L-80.5 -44.3 Q-80.5 -57.65 -67.15 -57.65" fill="#f6f2ce" fill-rule="evenodd" stroke="none"/>
    <path d="M14.35 -30.15 L14.35 -42.7 Q14.35 -49.5 21.15 -49.5 L33.35 -49.5 Q40.15 -49.5 40.15 -42.7 L40.15 -30.15 Q40.0 -23.7 33.35 -23.7 L21.15 -23.7 Q14.5 -23.7 14.35 -30.15 M30.3 -39.0 L30.3 -43.2 18.45 -36.35 30.3 -29.55 30.3 -33.7 36.25 -33.7 36.25 -39.0 30.3 -39.0" fill="#8db8b6" fill-rule="evenodd" stroke="none"/>
    <path d="M14.35 -30.15 Q14.5 -23.7 21.15 -23.7 L33.35 -23.7 Q40.0 -23.7 40.15 -30.15 L40.15 -25.5 Q40.15 -18.7 33.35 -18.7 L21.15 -18.7 Q14.35 -18.7 14.35 -25.5 L14.35 -30.15 M30.3 -39.0 L36.25 -39.0 36.25 -33.7 30.3 -33.7 30.3 -29.55 18.45 -36.35 30.3 -43.2 30.3 -39.0" fill="#7499a1" fill-rule="evenodd" stroke="none"/>
    <path d="M56.0 -39.0 L50.0 -39.0 50.0 -33.7 56.0 -33.7 56.0 -29.55 67.85 -36.35 56.0 -43.2 56.0 -39.0 M46.15 -30.15 L46.15 -42.7 Q46.15 -49.5 52.95 -49.5 L65.15 -49.5 Q71.95 -49.5 71.95 -42.7 L71.95 -30.15 Q71.8 -23.7 65.15 -23.7 L52.95 -23.7 Q46.3 -23.7 46.15 -30.15" fill="#8db8b6" fill-rule="evenodd" stroke="none"/>
    <path d="M56.0 -39.0 L56.0 -43.2 67.85 -36.35 56.0 -29.55 56.0 -33.7 50.0 -33.7 50.0 -39.0 56.0 -39.0 M46.15 -30.15 Q46.3 -23.7 52.95 -23.7 L65.15 -23.7 Q71.8 -23.7 71.95 -30.15 L71.95 -25.5 Q71.95 -18.7 65.15 -18.7 L52.95 -18.7 Q46.15 -18.7 46.15 -25.5 L46.15 -30.15" fill="#7499a1" fill-rule="evenodd" stroke="none"/>
    <path d="M-71.8 -30.15 L-71.8 -42.7 Q-71.8 -49.5 -65.0 -49.5 L0.1 -49.5 Q6.9 -49.5 6.9 -42.7 L6.9 -30.15 Q6.75 -23.7 0.1 -23.7 L-65.0 -23.7 Q-71.65 -23.7 -71.8 -30.15" fill="#8db8b6" fill-rule="evenodd" stroke="none"/>
    <path d="M-71.8 -30.15 Q-71.65 -23.7 -65.0 -23.7 L0.1 -23.7 Q6.75 -23.7 6.9 -30.15 L6.9 -25.5 Q6.9 -18.7 0.1 -18.7 L-65.0 -18.7 Q-71.8 -18.7 -71.8 -25.5 L-71.8 -30.15" fill="#7499a1" fill-rule="evenodd" stroke="none"/>
  </g>
</svg>
