<?xml version="1.0" encoding="UTF-8" standalone="no"?>
<svg xmlns:ffdec="https://www.free-decompiler.com/flash" xmlns:xlink="http://www.w3.org/1999/xlink" ffdec:objectType="shape" height="58.45px" width="105.35px" xmlns="http://www.w3.org/2000/svg">
  <g transform="matrix(1.0, 0.0, 0.0, 1.0, 52.6, 57.65)">
    <path d="M0.05 0.8 L-10.45 -9.7 -39.25 -9.7 Q-52.6 -9.7 -52.6 -23.05 L-52.6 -43.45 Q-52.6 -56.8 -39.25 -56.8 L39.4 -56.8 Q52.75 -56.8 52.75 -43.45 L52.75 -23.05 Q52.75 -9.7 39.4 -9.7 L10.55 -9.7 0.05 0.8" fill="#000000" fill-opacity="0.09803922" fill-rule="evenodd" stroke="none"/>
    <path d="M0.05 0.0 L-10.45 -10.55 -39.25 -10.55 Q-52.6 -10.55 -52.6 -23.85 L-52.6 -44.3 Q-52.6 -57.65 -39.25 -57.65 L39.4 -57.65 Q52.75 -57.65 52.75 -44.3 L52.75 -23.85 Q52.75 -10.55 39.4 -10.55 L10.55 -10.55 0.05 0.0" fill="#f6f2ce" fill-rule="evenodd" stroke="none"/>
    <path d="M-12.9 -30.1 L-12.9 -42.7 Q-12.9 -49.45 -6.1 -49.45 L6.1 -49.45 Q12.9 -49.45 12.9 -42.7 L12.9 -30.1 Q12.7 -23.65 6.1 -23.65 L-6.1 -23.65 Q-12.75 -23.65 -12.9 -30.1" fill="#8db8b6" fill-rule="evenodd" stroke="none"/>
    <path d="M-12.9 -30.1 Q-12.75 -23.65 -6.1 -23.65 L6.1 -23.65 Q12.7 -23.65 12.9 -30.1 L12.9 -25.45 Q12.9 -18.7 6.1 -18.7 L-6.1 -18.7 Q-12.9 -18.7 -12.9 -25.45 L-12.9 -30.1" fill="#7499a1" fill-rule="evenodd" stroke="none"/>
    <path d="M-2.75 -33.45 L-7.0 -33.45 -0.1 -45.3 6.7 -33.45 2.5 -33.45 2.5 -27.45 -2.75 -27.45 -2.75 -33.45" fill="#7499a1" fill-rule="evenodd" stroke="none"/>
    <path d="M-45.3 -30.15 L-45.3 -42.7 Q-45.3 -49.5 -38.55 -49.5 L-26.3 -49.5 Q-19.55 -49.5 -19.55 -42.7 L-19.55 -30.15 Q-19.7 -23.7 -26.3 -23.7 L-38.55 -23.7 Q-45.15 -23.7 -45.3 -30.15 M-29.35 -39.0 L-29.35 -43.25 -41.2 -36.35 -29.35 -29.55 -29.35 -33.7 -23.4 -33.7 -23.4 -39.0 -29.35 -39.0" fill="#8db8b6" fill-rule="evenodd" stroke="none"/>
    <path d="M-45.3 -30.15 Q-45.15 -23.7 -38.55 -23.7 L-26.3 -23.7 Q-19.7 -23.7 -19.55 -30.15 L-19.55 -25.5 Q-19.55 -18.7 -26.3 -18.7 L-38.55 -18.7 Q-45.3 -18.7 -45.3 -25.5 L-45.3 -30.15 M-29.35 -39.0 L-23.4 -39.0 -23.4 -33.7 -29.35 -33.7 -29.35 -29.55 -41.2 -36.35 -29.35 -43.25 -29.35 -39.0" fill="#7499a1" fill-rule="evenodd" stroke="none"/>
    <path d="M19.1 -30.15 L19.1 -42.7 Q19.1 -49.5 25.85 -49.5 L38.1 -49.5 Q44.85 -49.5 44.85 -42.7 L44.85 -30.15 Q44.7 -23.7 38.1 -23.7 L25.85 -23.7 Q19.25 -23.7 19.1 -30.15 M28.9 -39.0 L22.9 -39.0 22.9 -33.7 28.9 -33.7 28.9 -29.55 40.75 -36.35 28.9 -43.25 28.9 -39.0" fill="#8db8b6" fill-rule="evenodd" stroke="none"/>
    <path d="M19.1 -30.15 Q19.25 -23.7 25.85 -23.7 L38.1 -23.7 Q44.7 -23.7 44.85 -30.15 L44.85 -25.5 Q44.85 -18.7 38.1 -18.7 L25.85 -18.7 Q19.1 -18.7 19.1 -25.5 L19.1 -30.15 M28.9 -39.0 L28.9 -43.25 40.75 -36.35 28.9 -29.55 28.9 -33.7 22.9 -33.7 22.9 -39.0 28.9 -39.0" fill="#7499a1" fill-rule="evenodd" stroke="none"/>
  </g>
</svg>
