<?xml version="1.0" encoding="UTF-8" standalone="no"?>
<svg xmlns:ffdec="https://www.free-decompiler.com/flash" xmlns:xlink="http://www.w3.org/1999/xlink" ffdec:objectType="shape" height="58.45px" width="105.4px" xmlns="http://www.w3.org/2000/svg">
  <g transform="matrix(1.0, 0.0, 0.0, 1.0, 52.65, 57.55)">
    <path d="M0.0 0.9 L-10.5 -9.6 -39.3 -9.6 Q-52.65 -9.6 -52.65 -22.95 L-52.65 -43.35 Q-52.65 -56.7 -39.3 -56.7 L39.35 -56.7 Q52.7 -56.7 52.7 -43.35 L52.7 -22.95 Q52.7 -9.6 39.35 -9.6 L10.5 -9.6 0.0 0.9" fill="#000000" fill-opacity="0.09803922" fill-rule="evenodd" stroke="none"/>
    <path d="M0.0 -21.2 L10.65 -10.55 0.0 0.1 -10.65 -10.55 0.0 -21.2" fill="#f6f2ce" fill-rule="evenodd" stroke="none"/>
    <path d="M-39.25 -57.55 L39.4 -57.55 Q52.75 -57.55 52.75 -44.2 L52.75 -23.75 Q52.75 -10.45 39.4 -10.45 L-39.25 -10.45 Q-52.6 -10.45 -52.6 -23.75 L-52.6 -44.2 Q-52.6 -57.55 -39.25 -57.55" fill="#f6f2ce" fill-rule="evenodd" stroke="none"/>
  </g>
</svg>
