<?xml version="1.0" encoding="UTF-8" standalone="no"?>
<svg xmlns:ffdec="https://www.free-decompiler.com/flash" xmlns:xlink="http://www.w3.org/1999/xlink" ffdec:objectType="shape" height="30.75px" width="90.8px" xmlns="http://www.w3.org/2000/svg">
  <g transform="matrix(1.0, 0.0, 0.0, 1.0, 0.0, 0.0)">
    <path d="M32.5 19.35 L32.5 6.75 Q32.5 0.0 39.3 0.0 L51.5 0.0 Q58.3 0.0 58.3 6.75 L58.3 19.35 Q58.1 25.8 51.5 25.8 L39.3 25.8 Q32.65 25.8 32.5 19.35" fill="#8db8b6" fill-rule="evenodd" stroke="none"/>
    <path d="M32.5 19.35 Q32.65 25.8 39.3 25.8 L51.5 25.8 Q58.1 25.8 58.3 19.35 L58.3 24.0 Q58.3 30.75 51.5 30.75 L39.3 30.75 Q32.5 30.75 32.5 24.0 L32.5 19.35" fill="#7499a1" fill-rule="evenodd" stroke="none"/>
    <path d="M0.0 19.35 L0.0 6.75 Q0.0 0.0 6.8 0.0 L19.05 0.0 Q25.85 0.0 25.85 6.75 L25.85 19.35 Q25.65 25.8 19.05 25.8 L6.8 25.8 Q0.2 25.8 0.0 19.35" fill="#8db8b6" fill-rule="evenodd" stroke="none"/>
    <path d="M0.0 19.35 Q0.2 25.8 6.8 25.8 L19.05 25.8 Q25.65 25.8 25.85 19.35 L25.85 24.0 Q25.85 30.75 19.05 30.75 L6.8 30.75 Q0.0 30.75 0.0 24.0 L0.0 19.35" fill="#7499a1" fill-rule="evenodd" stroke="none"/>
    <path d="M65.0 19.35 L65.0 6.75 Q65.0 0.0 71.8 0.0 L84.0 0.0 Q90.8 0.0 90.8 6.75 L90.8 19.35 Q90.65 25.8 84.0 25.8 L71.8 25.8 Q65.15 25.8 65.0 19.35" fill="#8db8b6" fill-rule="evenodd" stroke="none"/>
    <path d="M65.0 19.35 Q65.15 25.8 71.8 25.8 L84.0 25.8 Q90.65 25.8 90.8 19.35 L90.8 24.0 Q90.8 30.75 84.0 30.75 L71.8 30.75 Q65.0 30.75 65.0 24.0 L65.0 19.35" fill="#7499a1" fill-rule="evenodd" stroke="none"/>
  </g>
</svg>
