<?xml version="1.0" encoding="UTF-8" standalone="no"?>
<svg xmlns:ffdec="https://www.free-decompiler.com/flash" xmlns:xlink="http://www.w3.org/1999/xlink" ffdec:objectType="shape" height="81.0px" width="47.25px" xmlns="http://www.w3.org/2000/svg">
  <g transform="matrix(1.0, 0.0, 0.0, 1.0, 23.05, 29.45)">
    <path d="M-22.7 7.35 Q-24.6 -7.8 -16.7 -20.7 -8.05 -32.1 5.6 -28.65 18.9 -29.2 22.55 -8.25 27.5 6.35 17.55 20.1 8.6 25.3 -5.3 25.3 -17.35 26.3 -22.75 7.35 L-22.7 7.35" fill="#23141b" fill-rule="evenodd" stroke="none"/>
    <path d="M-19.1 15.75 L16.4 15.75 Q18.85 15.55 20.75 15.7 21.3 18.5 15.25 25.5 11.0 30.55 7.3 35.35 5.05 38.2 4.2 43.2 3.45 48.95 4.05 51.55 L2.1 49.85 Q-6.4 41.1 -12.65 31.25 L-13.9 29.25 Q-19.65 20.1 -19.1 15.8 L-19.1 15.75" fill="#23141b" fill-rule="evenodd" stroke="none"/>
  </g>
</svg>
