<?xml version="1.0" encoding="UTF-8" standalone="no"?>
<svg xmlns:ffdec="https://www.free-decompiler.com/flash" xmlns:xlink="http://www.w3.org/1999/xlink" ffdec:objectType="shape" height="2400.0px" width="4268.0px" xmlns="http://www.w3.org/2000/svg">
  <g transform="matrix(1.0, 0.0, 0.0, 1.0, 2134.0, 1200.0)">
    <path d="M1154.35 0.0 Q1154.35 -477.9 816.5 -816.5 477.9 -1154.35 0.0 -1154.35 -17.05 -1154.35 -34.1 -1153.6 -490.5 -1142.5 -816.5 -816.5 -1113.6 -518.65 -1149.15 -111.9 -1154.35 -57.05 -1154.35 0.0 -1154.35 477.9 -816.5 816.5 -490.5 1142.5 -34.1 1153.6 -17.05 1154.35 0.0 1154.35 477.9 1154.35 816.5 816.5 1100.25 532.7 1145.45 150.4 1154.35 77.05 1154.35 0.0 M-2134.0 -1200.0 L0.0 -1200.0 2134.0 -1200.0 2134.0 1200.0 0.0 1200.0 -2134.0 1200.0 -2134.0 -1200.0" fill="#000000" fill-rule="evenodd" stroke="none"/>
  </g>
</svg>
