<?xml version="1.0" encoding="UTF-8" standalone="no"?>
<svg xmlns:ffdec="https://www.free-decompiler.com/flash" xmlns:xlink="http://www.w3.org/1999/xlink" ffdec:objectType="shape" height="67.6px" width="64.25px" xmlns="http://www.w3.org/2000/svg">
  <g transform="matrix(1.0, 0.0, 0.0, 1.0, 0.0, 0.0)">
    <path d="M0.05 57.6 L0.05 13.4 Q0.05 3.4 10.05 3.4 L54.25 3.4 Q64.25 3.4 64.25 13.4 L64.25 57.6 Q64.25 67.6 54.25 67.6 L10.05 67.6 Q0.05 67.6 0.05 57.6" fill="#cccc8e" fill-rule="evenodd" stroke="none"/>
    <path d="M64.2 40.05 L64.2 54.2 Q64.2 64.2 54.2 64.2 L10.0 64.2 Q0.0 64.2 0.0 54.2 L0.0 40.05 64.2 40.05" fill="#e8e8a2" fill-rule="evenodd" stroke="none"/>
    <path d="M0.0 40.05 L0.0 10.0 Q0.0 0.0 10.0 0.0 L54.2 0.0 Q64.2 0.0 64.2 10.0 L64.2 40.05 0.0 40.05" fill="#f2f2c2" fill-rule="evenodd" stroke="none"/>
  </g>
</svg>
