<?xml version="1.0" encoding="UTF-8" standalone="no"?>
<svg xmlns:ffdec="https://www.free-decompiler.com/flash" xmlns:xlink="http://www.w3.org/1999/xlink" ffdec:objectType="shape" height="17.75px" width="23.95px" xmlns="http://www.w3.org/2000/svg">
  <g transform="matrix(1.0, 0.0, 0.0, 1.0, -1006.55, -46.4)">
    <path d="M1017.15 54.4 L1017.3 57.05 Q1017.3 58.2 1016.95 59.2 1016.55 60.85 1015.6 62.0 1014.35 63.35 1012.7 64.15 1007.2 61.65 1008.2 54.4 L1008.1 54.4 Q1007.6 54.3 1007.15 53.85 1006.55 53.3 1006.55 52.55 1006.55 51.8 1007.15 51.25 1007.7 50.65 1008.6 50.65 L1011.4 50.65 Q1011.15 49.65 1009.45 48.55 L1010.8 46.4 Q1013.85 48.45 1013.95 50.65 L1016.7 50.65 Q1017.6 50.65 1018.25 51.25 1018.85 51.8 1018.85 52.55 1018.85 53.3 1018.25 53.85 1017.8 54.3 1017.15 54.4" fill="#983b63" fill-rule="evenodd" stroke="none"/>
    <path d="M1022.9 55.85 L1029.5 55.85 M1029.5 58.75 L1022.9 58.75" fill="none" stroke="#983b63" stroke-linecap="round" stroke-linejoin="round" stroke-width="2.0"/>
  </g>
</svg>
