<?xml version="1.0" encoding="UTF-8" standalone="no"?>
<svg xmlns:ffdec="https://www.free-decompiler.com/flash" xmlns:xlink="http://www.w3.org/1999/xlink" ffdec:objectType="shape" height="709.0px" width="1215.4px" xmlns="http://www.w3.org/2000/svg">
  <g transform="matrix(1.0, 0.0, 0.0, 1.0, 607.7, 275.95)">
    <path d="M181.4 -275.95 L181.4 -225.95 -181.55 -225.95 -181.55 -275.95 181.4 -275.95 M184.05 -75.95 L184.05 -25.95 98.95 -25.95 98.95 -75.95 184.05 -75.95 M316.1 -176.0 L425.1 -176.0 425.1 -126.0 316.1 -126.0 316.1 -176.0 M318.8 24.1 L605.45 24.1 605.45 74.1 318.8 74.1 318.8 24.1 M-182.25 124.15 L182.1 124.15 182.1 165.25 -182.25 165.25 -182.25 124.15 M-427.6 -175.95 L-317.6 -175.95 -317.6 -125.95 -427.6 -125.95 -427.6 -175.95 M-184.15 -76.0 L-98.65 -76.0 -98.65 -26.0 -184.15 -26.0 -184.15 -76.0 M-607.45 24.1 L-320.8 24.1 -320.8 74.1 -607.45 74.1 -607.45 24.1" fill="#ef6421" fill-opacity="0.0" fill-rule="evenodd" stroke="none"/>
    <path d="M-607.7 224.1 L607.7 224.1 607.7 433.05 -607.7 433.05 -607.7 224.1" fill="#ef6421" fill-opacity="0.0" fill-rule="evenodd" stroke="none"/>
  </g>
</svg>
