<?xml version="1.0" encoding="UTF-8" standalone="no"?>
<svg xmlns:ffdec="https://www.free-decompiler.com/flash" xmlns:xlink="http://www.w3.org/1999/xlink" ffdec:objectType="shape" height="147.65px" width="1188.05px" xmlns="http://www.w3.org/2000/svg">
  <g transform="matrix(1.0, 0.0, 0.0, 1.0, 0.0, 0.0)">
    <path d="M1173.05 8.1 Q1165.95 15.2 1158.9 8.15 L1150.9 0.1 1181.05 0.1 1173.05 8.1 M955.7 41.2 Q948.65 34.15 955.7 27.1 L964.0 18.8 Q971.1 11.7 978.15 18.75 L986.45 27.1 Q993.55 34.15 986.45 41.25 L978.15 49.55 Q972.95 54.75 967.75 52.3 965.85 51.4 964.0 49.55 L955.7 41.2 M780.2 57.45 Q786.95 51.35 793.65 58.05 L811.15 75.55 Q818.25 82.65 811.15 89.75 L793.65 107.25 Q786.6 114.3 779.5 107.2 L762.0 89.7 Q754.95 82.65 762.0 75.6 L780.2 57.45 M837.15 26.75 Q830.1 33.8 823.0 26.75 L814.7 18.4 Q807.65 11.35 814.7 4.3 L819.0 0.0 841.2 0.0 845.45 4.3 Q852.55 11.35 845.45 18.45 L837.15 26.75 M927.65 136.75 Q920.55 143.85 913.5 136.8 L905.2 128.45 Q898.1 121.4 905.2 114.3 L913.5 106.0 Q918.7 100.8 923.9 103.25 925.8 104.15 927.65 106.0 L935.95 114.35 Q943.0 121.4 935.95 128.45 L927.65 136.75 M842.8 138.4 Q849.9 131.3 856.95 138.35 L864.95 146.4 834.8 146.4 842.8 138.4 M712.1 15.25 L703.8 6.9 Q700.35 3.45 700.3 0.0 L738.1 0.0 Q738.05 3.45 734.55 6.95 L726.25 15.25 Q719.2 22.3 712.1 15.25 M668.2 109.7 Q675.25 116.75 668.2 123.8 L659.9 132.1 Q652.8 139.2 645.75 132.15 L637.45 123.8 Q630.35 116.75 637.45 109.65 L645.75 101.35 Q650.95 96.15 656.15 98.6 658.05 99.5 659.9 101.35 L668.2 109.7 M724.6 143.45 Q726.55 145.4 726.6 147.3 L695.1 147.3 Q695.15 145.35 697.05 143.45 L706.85 133.65 Q710.8 129.7 714.8 133.65 L724.6 143.45 M619.65 0.0 L620.45 0.8 Q627.55 7.85 620.45 14.95 L612.15 23.25 Q605.1 30.3 598.0 23.25 L589.7 14.9 Q585.0 10.2 586.6 5.5 587.35 3.15 589.7 0.8 L590.5 0.0 619.65 0.0 M590.65 146.7 Q586.9 140.9 592.7 135.1 L601.0 126.8 Q608.1 119.7 615.15 126.75 L623.45 135.1 Q629.25 140.9 625.55 146.7 L590.65 146.7 M518.45 140.8 Q521.3 143.65 521.9 146.5 L484.3 146.5 Q484.85 143.65 487.7 140.8 L496.0 132.5 Q503.1 125.4 510.15 132.45 L518.45 140.8 M318.55 146.5 L326.55 138.5 Q333.65 131.4 340.7 138.45 L348.7 146.5 318.55 146.5 M312.0 0.0 Q311.15 2.1 309.05 4.2 L300.75 12.5 Q293.7 19.55 286.6 12.5 L278.3 4.15 Q276.25 2.1 275.4 0.0 L312.0 0.0 M226.55 4.3 Q233.65 11.35 226.55 18.45 L218.25 26.75 Q211.2 33.8 204.1 26.75 L195.8 18.4 Q188.75 11.35 195.8 4.3 L200.1 0.0 222.3 0.0 226.55 4.3 M43.2 87.9 Q36.15 80.85 43.2 73.8 L51.5 65.5 Q58.6 58.4 65.65 65.45 L73.95 73.8 Q81.05 80.85 73.95 87.95 L65.65 96.25 Q60.45 101.45 55.25 99.0 53.35 98.1 51.5 96.25 L43.2 87.9" fill="#43354e" fill-rule="evenodd" stroke="none"/>
    <path d="M1152.85 105.0 Q1159.95 97.9 1167.0 104.95 L1184.5 122.45 Q1191.6 129.55 1184.5 136.65 L1175.0 146.15 1144.9 146.15 1135.35 136.6 Q1128.3 129.55 1135.35 122.5 L1152.85 105.0 M1171.05 55.2 L1152.85 73.35 Q1146.1 79.45 1139.4 72.75 L1121.9 55.25 Q1114.8 48.15 1121.9 41.05 L1139.4 23.55 Q1144.55 18.4 1149.75 20.8 1151.65 21.7 1153.55 23.6 L1171.05 41.1 Q1178.1 48.15 1171.05 55.2 M1084.8 70.15 Q1079.05 75.9 1073.25 72.3 L1072.35 71.7 1070.55 70.1 1062.25 61.75 Q1055.2 54.7 1062.25 47.65 L1070.55 39.35 Q1074.8 35.1 1079.0 35.95 L1081.45 36.8 1083.1 37.85 1084.8 39.35 1093.65 48.3 Q1099.65 54.75 1093.65 61.3 L1084.8 70.15 M993.8 15.0 Q994.25 12.25 996.85 9.5 L1006.35 0.0 1037.25 0.0 1037.35 0.1 1037.45 0.1 1046.45 9.1 Q1050.0 12.65 1049.95 16.15 L1046.45 23.2 1028.25 41.35 1028.2 41.4 1021.45 44.25 Q1018.1 44.15 1014.75 40.8 L997.25 23.3 Q993.1 19.15 993.8 15.0 M921.4 14.9 Q914.35 7.85 921.4 0.8 L922.2 0.0 951.35 0.0 952.15 0.8 Q959.25 7.85 952.15 14.95 L943.85 23.25 Q936.8 30.3 929.7 23.25 L921.4 14.9 M1094.45 131.8 Q1101.5 138.85 1094.45 145.9 L1093.65 146.7 1064.5 146.7 1063.7 145.9 Q1056.6 138.85 1063.7 131.75 L1072.0 123.45 Q1079.05 116.4 1086.15 123.45 L1094.45 131.8 M987.6 105.35 L987.65 105.3 994.4 102.45 Q997.75 102.55 1001.1 105.9 L1018.6 123.4 Q1025.5 130.3 1019.0 137.2 L1009.5 146.7 978.6 146.7 978.5 146.6 978.4 146.6 969.4 137.6 Q965.85 134.05 965.9 130.55 L969.4 123.5 987.6 105.35 M844.8 36.9 L863.0 18.75 Q869.75 12.65 876.45 19.35 L893.95 36.85 Q901.05 43.95 893.95 51.05 L876.45 68.55 Q871.3 73.7 866.1 71.3 864.2 70.4 862.3 68.5 L844.8 51.0 Q837.75 43.95 844.8 36.9 M745.8 9.9 L755.7 0.0 785.1 0.0 794.95 9.85 Q802.05 16.95 794.95 24.05 L777.45 41.55 Q770.4 48.6 763.3 41.5 L745.8 24.0 Q738.75 16.95 745.8 9.9 M705.0 108.85 Q697.9 115.95 690.85 108.9 L673.35 91.4 Q666.25 84.3 673.35 77.2 L690.85 59.7 Q697.9 52.65 705.0 59.75 L722.5 77.25 Q729.55 84.3 722.5 91.35 L705.0 108.85 M525.45 52.75 L542.95 35.25 Q550.05 28.15 557.1 35.2 L574.6 52.7 Q581.7 59.8 574.6 66.9 L557.1 84.4 Q551.95 89.55 546.75 87.15 544.85 86.25 542.95 84.35 L525.45 66.85 Q518.4 59.8 525.45 52.75 M462.8 31.1 Q455.75 24.05 462.8 17.0 L479.8 0.0 495.0 0.0 511.95 16.95 Q519.05 24.05 511.95 31.15 L494.45 48.65 Q487.4 55.7 480.3 48.6 L462.8 31.1 M530.7 0.8 L531.5 0.0 560.65 0.0 561.45 0.8 Q568.55 7.85 561.45 14.95 L553.15 23.25 Q546.1 30.3 539.0 23.25 L530.7 14.9 Q523.65 7.85 530.7 0.8 M405.7 30.6 L414.0 22.3 Q421.1 15.2 428.15 22.25 L436.45 30.6 Q443.55 37.65 436.45 44.75 L428.15 53.05 Q421.1 60.1 414.0 53.05 L405.7 44.7 Q398.65 37.65 405.7 30.6 M393.9 94.0 Q386.8 101.1 379.75 94.05 L371.45 85.7 Q364.35 78.65 371.45 71.55 L379.75 63.25 Q384.95 58.05 390.15 60.5 392.05 61.4 393.9 63.25 L402.2 71.6 Q409.25 78.65 402.2 85.7 L393.9 94.0 M296.0 87.35 L314.2 69.2 Q320.95 63.1 327.65 69.8 L345.15 87.3 Q352.25 94.4 345.15 101.5 L327.65 119.0 Q322.5 124.15 317.3 121.75 315.4 120.85 313.5 118.95 L296.0 101.45 Q288.95 94.4 296.0 87.35 M337.15 10.55 L345.45 18.9 Q352.55 25.95 345.45 33.05 L337.15 41.35 Q331.95 46.55 326.75 44.1 324.85 43.2 323.0 41.35 L314.7 33.0 Q307.65 25.95 314.7 18.9 L323.0 10.6 Q330.1 3.5 337.15 10.55 M450.3 99.4 Q457.4 92.3 464.45 99.35 L481.95 116.85 Q489.05 123.95 481.95 131.05 L466.5 146.5 448.3 146.5 432.8 131.0 Q425.75 123.95 432.8 116.9 L450.3 99.4 M262.25 12.2 L270.55 20.55 Q277.65 27.6 270.55 34.7 L262.25 43.0 Q257.05 48.2 251.85 45.75 249.95 44.85 248.1 43.0 L239.8 34.65 Q232.75 27.6 239.8 20.55 L248.1 12.25 Q255.2 5.15 262.25 12.2 M214.15 140.8 L207.3 147.65 171.8 147.65 165.0 140.85 Q157.9 133.75 165.0 126.65 L182.5 109.15 Q187.65 104.0 192.85 106.4 194.75 107.3 196.65 109.2 L214.15 126.7 Q221.2 133.75 214.15 140.8 M133.3 40.95 Q139.05 35.2 144.85 38.8 L145.75 39.4 147.55 41.0 155.85 49.35 Q162.9 56.4 155.85 63.45 L147.55 71.75 Q143.3 76.0 139.1 75.15 L136.65 74.3 135.0 73.25 133.3 71.75 124.45 62.8 Q118.45 56.35 124.45 49.8 L133.3 40.95 M79.5 26.45 Q72.4 19.35 79.5 12.25 L83.05 8.7 125.05 8.7 128.65 12.3 Q135.7 19.35 128.65 26.4 L111.15 43.9 Q104.05 51.0 97.0 43.95 L79.5 26.45 M35.2 61.9 Q28.1 69.0 21.05 61.95 L3.55 44.45 Q-3.55 37.35 3.55 30.25 L21.05 12.75 Q28.1 5.7 35.2 12.8 L52.7 30.3 Q59.75 37.35 52.7 44.4 L35.2 61.9 M60.25 142.5 L51.95 134.15 Q44.85 127.1 51.95 120.0 L60.25 111.7 Q65.45 106.5 70.65 108.95 72.55 109.85 74.4 111.7 L82.7 120.05 Q89.75 127.1 82.7 134.15 L74.4 142.45 Q67.3 149.55 60.25 142.5" fill="#4c4661" fill-rule="evenodd" stroke="none"/>
    <path d="M1097.65 26.05 Q1093.95 25.75 1093.35 19.2 L1093.65 18.0 1093.6 18.05 1094.0 17.25 1095.15 18.2 1096.1 21.7 1098.35 21.05 1097.45 17.45 1097.25 16.95 Q1095.45 14.75 1094.1 14.85 1092.3 14.65 1091.3 17.25 L1090.9 19.25 Q1091.7 28.8 1097.95 28.4 L1098.75 28.2 1101.65 25.1 Q1103.65 22.0 1099.4 9.7 L1110.35 6.7 Q1111.65 6.35 1112.85 7.05 1114.05 7.75 1114.3 9.0 1114.75 10.35 1114.1 11.55 1113.3 12.75 1112.05 13.1 L1110.2 13.55 1112.9 23.35 Q1114.95 31.1 1107.2 33.15 L1098.75 35.5 Q1091.0 37.6 1088.95 29.8 L1086.65 21.3 Q1084.55 13.6 1092.3 11.55 L1097.0 10.25 1097.0 10.35 Q1099.5 17.45 1099.85 21.05 1100.05 23.0 1099.55 23.9 L1097.65 26.05 M1086.35 90.95 Q1086.95 91.95 1088.0 92.25 1089.1 92.5 1090.1 91.95 1091.05 91.4 1091.35 90.35 1091.65 89.2 1091.05 88.3 1090.55 87.35 1089.4 87.05 1088.4 86.7 1087.4 87.35 1086.45 87.85 1086.15 89.0 1085.8 90.0 1086.35 90.95 M1084.15 99.35 Q1084.7 100.3 1085.8 100.6 L1087.85 100.35 Q1088.85 99.75 1089.1 98.65 1089.4 97.6 1088.8 96.65 1088.3 95.65 1087.15 95.4 1086.15 95.05 1085.15 95.65 1084.2 96.25 1083.9 97.3 1083.6 98.35 1084.15 99.35 M1094.15 98.05 L1095.35 93.55 1090.85 94.75 1094.15 98.05 M1079.85 103.25 Q1075.75 102.1 1076.85 98.0 L1080.45 84.75 Q1081.5 80.7 1085.55 81.85 L1095.35 84.4 Q1099.4 85.5 1098.35 89.55 L1097.95 91.25 1100.8 92.0 Q1102.45 92.45 1103.3 93.95 1104.2 95.5 1103.75 97.15 L1103.15 99.6 Q1102.7 101.3 1101.1 102.15 1099.65 103.05 1098.0 102.6 L1095.05 101.8 1094.8 102.85 Q1093.7 106.95 1089.6 105.85 L1079.85 103.25 M1017.15 96.55 Q1015.95 95.4 1015.95 93.75 L1016.15 92.5 1015.6 92.55 Q1013.95 92.5 1012.8 91.4 1011.55 90.2 1011.6 88.5 1011.55 86.95 1012.8 85.7 L1014.2 84.85 1015.65 84.5 Q1017.3 84.5 1018.5 85.65 L1018.7 86.0 1035.4 69.3 1035.3 69.25 Q1034.1 68.05 1034.1 66.35 1034.1 64.75 1035.3 63.55 L1036.7 62.65 1038.1 62.4 Q1039.8 62.4 1041.05 63.55 1042.15 64.75 1042.15 66.35 L1042.0 67.55 1042.0 67.65 1042.55 67.65 Q1044.15 67.65 1045.4 68.8 1046.5 70.0 1046.5 71.65 1046.5 73.25 1045.35 74.45 1044.1 75.7 1042.5 75.7 1040.8 75.65 1039.65 74.45 L1039.45 74.25 1022.8 90.9 1022.85 90.95 Q1024.0 92.2 1024.0 93.8 1024.0 95.45 1022.85 96.6 1021.65 97.75 1019.95 97.8 1018.3 97.75 1017.15 96.55 M1019.45 89.75 L1019.55 89.75 1019.5 89.7 1019.45 89.75 M918.15 21.6 Q922.25 22.75 921.15 26.85 L917.55 40.1 Q916.5 44.15 912.45 43.0 L902.65 40.45 Q898.6 39.35 899.65 35.3 L900.05 33.6 897.2 32.85 Q895.55 32.4 894.7 30.9 893.8 29.35 894.25 27.7 L894.85 25.25 Q895.3 23.55 896.9 22.7 898.35 21.8 900.0 22.25 L902.95 23.05 903.2 22.0 Q904.3 17.9 908.4 19.0 L918.15 21.6 M911.65 33.9 Q911.05 32.9 910.0 32.6 908.9 32.35 907.9 32.9 906.95 33.45 906.65 34.5 906.35 35.65 906.95 36.55 907.45 37.5 908.6 37.8 909.6 38.15 910.6 37.5 911.55 37.0 911.85 35.85 912.2 34.85 911.65 33.9 M903.85 26.8 L902.65 31.3 907.15 30.1 903.85 26.8 M913.85 25.5 Q913.3 24.55 912.2 24.25 L910.15 24.5 Q909.15 25.1 908.9 26.2 908.6 27.25 909.2 28.2 909.7 29.2 910.85 29.45 911.85 29.8 912.85 29.2 913.8 28.6 914.1 27.55 914.4 26.5 913.85 25.5 M957.9 71.75 L967.65 74.35 Q971.75 75.5 970.65 79.6 L967.05 92.85 Q966.0 96.9 961.95 95.75 L952.15 93.2 Q948.1 92.1 949.15 88.05 L949.55 86.35 946.7 85.6 Q945.05 85.15 944.2 83.65 943.3 82.1 943.75 80.45 L944.35 78.0 Q944.8 76.3 946.4 75.45 947.85 74.55 949.5 75.0 L952.45 75.8 952.7 74.75 Q953.8 70.65 957.9 71.75 M961.7 77.0 Q960.6 76.65 959.65 77.25 958.65 77.85 958.4 78.95 958.1 80.0 958.7 80.95 959.2 81.95 960.35 82.2 961.35 82.55 962.35 81.95 963.3 81.35 963.6 80.3 963.9 79.25 963.35 78.25 962.8 77.3 961.7 77.0 M953.35 79.55 L952.15 84.05 956.65 82.85 953.35 79.55 M960.1 90.25 Q961.05 89.75 961.35 88.6 961.7 87.6 961.15 86.65 960.55 85.65 959.5 85.35 958.4 85.1 957.4 85.65 956.45 86.2 956.15 87.25 955.85 88.4 956.45 89.3 956.95 90.25 958.1 90.55 959.1 90.9 960.1 90.25 M851.3 83.25 Q852.9 83.25 854.1 84.4 855.35 85.65 855.35 87.25 855.3 88.95 854.1 90.1 L853.9 90.3 870.55 106.95 870.6 106.9 Q871.85 105.75 873.45 105.75 875.1 105.75 876.25 106.9 877.4 108.1 877.45 109.8 877.4 111.45 876.2 112.6 875.05 113.8 873.4 113.8 L872.15 113.6 872.2 114.15 Q872.15 115.8 871.05 116.95 869.85 118.2 868.15 118.15 866.6 118.2 865.35 116.95 864.75 116.4 864.5 115.55 864.15 114.9 864.15 114.1 864.15 112.45 865.3 111.25 L865.65 111.05 848.95 94.35 848.9 94.45 Q847.7 95.65 846.0 95.65 844.4 95.65 843.2 94.45 L842.3 93.05 842.05 91.65 Q842.05 89.95 843.2 88.7 844.4 87.6 846.0 87.6 L847.2 87.75 847.3 87.75 847.3 87.2 Q847.3 85.6 848.45 84.35 849.65 83.25 851.3 83.25 M869.4 110.2 L869.35 110.25 869.4 110.3 869.4 110.2 M672.6 24.2 Q670.85 17.7 677.4 15.95 L684.55 14.0 Q691.05 12.25 692.8 18.8 L694.7 25.95 Q696.5 32.45 689.95 34.2 L686.0 35.25 Q683.9 29.25 683.6 26.2 683.45 24.55 683.8 23.75 684.45 22.65 685.4 21.95 688.55 22.3 689.05 27.7 L688.8 28.7 688.5 29.35 Q688.1 29.3 687.5 28.5 L686.8 25.65 684.85 26.15 685.6 29.25 685.8 29.6 Q687.3 31.5 688.45 31.4 689.95 31.6 690.75 29.35 L691.05 27.95 691.05 27.7 Q690.45 19.7 685.2 19.9 L684.55 20.1 Q683.0 21.05 682.05 22.75 680.4 25.35 684.0 35.8 L674.7 38.25 672.6 38.0 Q671.65 37.4 671.35 36.3 671.0 35.25 671.55 34.2 672.2 33.2 673.3 32.85 L674.9 32.45 674.5 31.35 672.6 24.2 M635.25 39.3 Q638.25 36.3 641.25 39.3 L650.95 49.05 Q653.9 51.95 650.9 54.95 L643.8 62.1 Q640.8 65.05 637.85 62.15 L636.55 60.95 634.45 63.05 Q633.3 64.25 631.55 64.25 629.75 64.25 628.55 63.05 L626.75 61.25 Q625.45 60.05 625.55 58.25 625.5 56.55 626.7 55.3 L628.9 53.15 628.05 52.45 Q625.05 49.45 628.05 46.45 L635.25 39.3 M767.45 121.1 Q769.6 121.15 771.1 122.75 772.65 124.25 772.65 126.4 L772.4 128.05 773.15 128.0 Q775.3 128.05 776.8 129.5 778.45 131.05 778.35 133.3 778.45 135.3 776.8 136.95 L774.95 138.1 773.05 138.55 Q770.9 138.55 769.35 137.05 L769.05 136.55 759.65 146.0 747.85 146.0 763.7 130.15 763.65 130.1 Q762.1 128.45 762.1 126.35 762.1 124.2 763.65 122.7 765.2 121.15 767.45 121.1 M768.1 131.65 L767.95 131.65 768.0 131.7 768.1 131.65 M636.45 44.95 Q635.35 44.95 634.5 45.75 L633.75 47.65 Q633.75 48.85 634.55 49.6 635.3 50.35 636.45 50.35 637.55 50.4 638.35 49.5 639.2 48.85 639.15 47.7 639.1 46.55 638.35 45.75 637.55 45.0 636.45 44.95 M579.55 33.5 Q580.4 33.75 581.15 33.25 582.0 32.85 582.2 31.9 582.45 31.1 582.0 30.25 581.5 29.5 580.65 29.25 L579.0 29.4 Q578.2 29.9 577.95 30.75 577.65 31.65 578.15 32.5 578.65 33.3 579.55 33.5 M585.8 31.25 Q585.05 31.75 584.8 32.6 584.55 33.5 585.05 34.3 585.5 35.1 586.35 35.35 L588.0 35.1 Q588.8 34.65 589.05 33.75 589.35 32.95 588.8 32.1 588.35 31.35 587.45 31.1 L585.8 31.25 M580.05 37.6 L583.7 38.65 582.75 34.9 580.05 37.6 M590.9 26.4 Q594.2 27.3 593.3 30.6 L591.2 38.65 Q590.3 41.95 586.95 41.1 L585.6 40.75 585.0 43.05 Q584.6 44.4 583.35 45.1 582.15 45.85 580.8 45.5 L578.75 45.0 Q577.35 44.6 576.65 43.3 575.95 42.1 576.3 40.75 L576.95 38.4 576.15 38.15 Q572.75 37.3 573.65 33.9 L575.75 25.95 Q576.7 22.6 580.05 23.5 L590.9 26.4 M607.25 73.3 Q608.45 74.45 608.45 76.1 L608.25 77.35 608.8 77.3 Q610.45 77.35 611.6 78.45 612.85 79.65 612.8 81.35 612.85 82.9 611.6 84.15 L610.2 85.0 608.75 85.35 Q607.1 85.35 605.9 84.2 L605.7 83.85 589.0 100.55 589.1 100.6 Q590.3 101.8 590.3 103.5 590.3 105.1 589.1 106.3 L587.7 107.2 586.3 107.45 Q584.6 107.45 583.35 106.3 582.25 105.1 582.25 103.5 L582.4 102.3 582.4 102.2 581.85 102.2 Q580.25 102.2 579.0 101.05 577.9 99.85 577.9 98.2 577.9 96.6 579.05 95.4 580.3 94.15 581.9 94.15 583.6 94.2 584.75 95.4 L584.95 95.6 601.6 78.95 601.55 78.9 Q600.4 77.65 600.4 76.05 600.4 74.4 601.55 73.25 602.75 72.1 604.45 72.05 606.1 72.1 607.25 73.3 M604.95 80.1 L604.85 80.1 604.9 80.15 604.95 80.1 M642.65 51.05 Q641.45 51.1 640.65 51.85 639.9 52.65 639.85 53.8 639.9 54.9 640.65 55.7 641.5 56.5 642.55 56.45 643.65 56.5 644.45 55.65 645.25 54.95 645.2 53.8 645.25 52.7 644.4 51.85 643.7 51.05 642.65 51.05 M632.6 54.25 L635.9 57.55 637.1 53.05 632.6 54.25 M520.4 97.65 L517.55 97.55 Q516.55 97.2 515.3 95.65 513.0 92.9 509.75 86.1 L509.7 86.05 513.9 83.65 Q520.85 79.6 524.8 86.55 L529.2 94.2 Q533.25 101.1 526.3 105.15 L518.65 109.5 Q511.75 113.5 507.7 106.55 L502.7 97.7 501.05 98.7 Q499.9 99.35 498.5 99.1 497.2 98.65 496.55 97.4 495.85 96.3 496.2 95.0 496.55 93.65 497.75 93.0 L507.6 87.3 Q513.3 99.1 516.9 99.85 L521.15 100.0 Q521.7 99.9 521.85 99.6 526.55 95.4 520.35 88.1 L520.1 87.9 518.65 87.0 Q516.1 85.85 515.0 87.25 513.95 88.1 514.25 90.95 L514.45 91.45 516.35 94.65 518.4 93.5 516.6 90.4 Q516.5 89.3 516.75 88.9 L517.6 89.2 517.55 89.15 518.6 89.8 Q522.8 94.8 520.4 97.65 M363.7 19.55 L365.55 19.2 Q367.6 19.2 369.1 20.65 L369.4 21.0 390.3 0.1 390.15 0.0 403.25 0.0 Q404.2 1.3 404.2 2.95 404.2 5.0 402.75 6.5 401.25 8.0 399.2 8.0 397.1 8.0 395.6 6.5 L395.4 6.25 374.55 27.15 374.6 27.2 Q376.05 28.7 376.05 30.75 376.05 32.8 374.6 34.3 373.1 35.8 371.0 35.8 368.95 35.8 367.45 34.3 366.0 32.8 366.0 30.75 L366.2 29.2 365.55 29.25 Q363.45 29.25 362.0 27.8 360.5 26.3 360.5 24.2 360.5 22.2 362.0 20.65 L363.7 19.55 M370.45 25.7 L370.4 25.65 370.4 25.75 370.45 25.7 M393.0 132.6 Q391.0 135.65 394.0 146.0 L382.05 146.0 379.05 134.8 Q376.4 125.1 386.15 122.55 L396.7 119.7 Q406.35 117.15 408.9 126.8 L411.7 137.35 Q413.2 142.8 410.75 146.0 L397.15 146.0 Q395.6 140.8 395.3 137.7 395.05 135.3 395.65 134.1 396.55 132.5 398.0 131.5 402.7 131.9 403.35 139.95 L403.0 141.45 403.0 141.4 402.55 142.4 401.1 141.15 400.0 136.9 397.15 137.65 398.25 142.2 398.55 142.75 Q400.75 145.6 402.5 145.4 404.7 145.7 405.85 142.4 L406.35 140.35 406.35 139.95 Q405.4 128.1 397.65 128.45 397.15 128.35 396.7 128.75 394.45 130.1 393.0 132.6 M243.65 49.8 Q245.25 49.8 246.45 50.95 247.7 52.2 247.7 53.8 247.65 55.5 246.45 56.65 L246.25 56.85 262.9 73.5 262.95 73.45 Q264.2 72.3 265.8 72.3 267.45 72.3 268.6 73.45 269.75 74.65 269.8 76.35 269.75 78.0 268.55 79.15 267.4 80.35 265.75 80.35 L264.5 80.15 264.55 80.7 Q264.5 82.35 263.4 83.5 262.2 84.75 260.5 84.7 258.95 84.75 257.7 83.5 257.1 82.95 256.85 82.1 256.5 81.45 256.5 80.65 256.5 79.0 257.65 77.8 L258.0 77.6 241.3 60.9 241.25 61.0 Q240.05 62.2 238.35 62.2 236.75 62.2 235.55 61.0 L234.65 59.6 234.4 58.2 Q234.4 56.5 235.55 55.25 236.75 54.15 238.35 54.15 L239.55 54.3 239.65 54.3 239.65 53.75 Q239.65 52.15 240.8 50.9 242.0 49.8 243.65 49.8 M261.75 76.75 L261.7 76.8 261.75 76.85 261.75 76.75 M201.15 71.45 Q200.2 71.95 199.9 73.1 199.55 74.1 200.1 75.05 200.7 76.05 201.75 76.35 202.85 76.6 203.85 76.05 204.8 75.5 205.1 74.45 205.4 73.3 204.8 72.4 204.3 71.45 203.15 71.15 202.15 70.8 201.15 71.45 M203.35 89.95 L193.6 87.35 Q189.5 86.2 190.6 82.1 L194.2 68.85 Q195.25 64.8 199.3 65.95 L209.1 68.5 Q213.15 69.6 212.1 73.65 L211.7 75.35 214.55 76.1 Q216.2 76.55 217.05 78.05 217.95 79.6 217.5 81.25 L216.9 83.7 Q216.45 85.4 214.85 86.25 213.4 87.15 211.75 86.7 L208.8 85.9 208.55 86.95 Q207.45 91.05 203.35 89.95 M199.55 84.7 Q200.65 85.05 201.6 84.45 202.6 83.85 202.85 82.75 203.15 81.7 202.55 80.75 202.05 79.75 200.9 79.5 199.9 79.15 198.9 79.75 197.95 80.35 197.65 81.4 197.35 82.45 197.9 83.45 198.45 84.4 199.55 84.7 M207.9 82.15 L209.1 77.65 204.6 78.85 207.9 82.15 M264.3 132.1 L264.25 132.05 Q263.1 130.8 263.1 129.2 263.1 127.55 264.25 126.4 265.45 125.25 267.15 125.2 268.8 125.25 269.95 126.45 271.15 127.6 271.15 129.25 L270.95 130.5 271.5 130.45 Q273.15 130.5 274.3 131.6 275.55 132.8 275.5 134.5 275.55 136.05 274.3 137.3 L272.9 138.15 271.45 138.5 Q269.8 138.5 268.6 137.35 L268.4 137.0 259.25 146.15 250.25 146.15 264.3 132.1 M267.55 133.25 L267.6 133.3 267.65 133.25 267.55 133.25 M95.6 70.45 Q94.0 70.45 92.8 69.3 91.55 68.05 91.55 66.45 91.6 64.75 92.8 63.6 L93.0 63.4 76.35 46.75 76.3 46.8 Q75.05 47.95 73.45 47.95 71.8 47.95 70.65 46.8 69.5 45.6 69.45 43.9 69.5 42.25 70.7 41.1 71.85 39.9 73.5 39.9 L74.75 40.1 74.7 39.55 Q74.75 37.9 75.85 36.75 77.05 35.5 78.75 35.55 80.3 35.5 81.55 36.75 82.15 37.3 82.4 38.15 82.75 38.8 82.75 39.6 82.75 41.25 81.6 42.45 L81.25 42.65 97.95 59.35 98.0 59.25 Q99.2 58.05 100.9 58.05 102.5 58.05 103.7 59.25 L104.6 60.65 104.85 62.05 Q104.85 63.75 103.7 65.0 102.5 66.1 100.9 66.1 L99.7 65.95 99.6 65.95 99.6 66.5 Q99.6 68.1 98.45 69.35 97.25 70.45 95.6 70.45 M77.5 43.5 L77.55 43.45 77.5 43.4 77.5 43.5" fill="#595370" fill-rule="evenodd" stroke="none"/>
  </g>
</svg>
