<?xml version="1.0" encoding="UTF-8" standalone="no"?>
<svg xmlns:ffdec="https://www.free-decompiler.com/flash" xmlns:xlink="http://www.w3.org/1999/xlink" ffdec:objectType="shape" height="9.15px" width="1211.5px" xmlns="http://www.w3.org/2000/svg">
  <g transform="matrix(1.0, 0.0, 0.0, 1.0, 606.05, 47.0)">
    <path d="M51.3 -37.85 L46.75 -37.85 46.05 -41.85 44.05 -37.85 36.75 -37.85 32.3 -41.85 32.3 -37.85 -345.25 -37.85 -348.0 -41.85 -351.35 -37.85 -359.0 -37.85 -362.35 -41.85 -366.1 -37.85 -373.0 -37.85 -375.3 -41.85 -376.6 -37.85 -529.9 -37.85 -534.15 -41.55 -534.15 -37.85 -593.4 -37.85 -593.85 -41.85 -596.4 -37.85 -606.05 -37.85 -606.05 -47.0 605.45 -47.0 605.45 -37.85 513.3 -37.85 510.55 -41.85 508.55 -37.85 501.65 -37.85 497.6 -41.85 495.6 -37.85 491.35 -37.85 490.05 -40.9 488.5 -37.85 333.5 -37.85 330.8 -41.85 328.8 -37.85 321.85 -37.85 317.85 -41.85 315.85 -37.85 311.6 -37.85 310.3 -40.9 308.7 -37.85 303.3 -37.85 300.6 -41.85 298.6 -37.85 291.65 -37.85 287.65 -41.85 285.65 -37.85 281.4 -37.85 280.1 -40.9 278.5 -37.85 242.9 -37.85 240.2 -41.85 238.2 -37.85 231.25 -37.85 227.25 -41.85 225.25 -37.85 221.0 -37.85 219.7 -40.9 218.1 -37.85 58.9 -37.85 54.7 -41.85 51.3 -37.85" fill="#403342" fill-rule="evenodd" stroke="none"/>
  </g>
</svg>
