<?xml version="1.0" encoding="UTF-8" standalone="no"?>
<svg xmlns:ffdec="https://www.free-decompiler.com/flash" xmlns:xlink="http://www.w3.org/1999/xlink" ffdec:objectType="shape" height="70.2px" width="110.0px" xmlns="http://www.w3.org/2000/svg">
  <g transform="matrix(1.0, 0.0, 0.0, 1.0, 55.0, 15.25)">
    <path d="M25.5 5.0 L25.5 26.0 Q25.5 30.15 28.4 33.05 30.45 35.1 33.05 35.75 L35.5 36.0 36.05 36.0" fill="none" stroke="#655c81" stroke-linecap="round" stroke-linejoin="round" stroke-width="2.0"/>
    <path d="M36.05 36.0 Q35.9 38.65 35.05 41.05 33.65 44.8 30.55 47.9 25.05 53.45 17.25 53.45 L17.2 53.45 Q9.4 53.45 3.85 47.9 -1.65 42.4 -1.65 34.6 L-1.65 30.3" fill="none" stroke="#655c81" stroke-linecap="round" stroke-linejoin="round" stroke-width="3.0"/>
    <path d="M-1.65 13.55 L-1.65 30.3" fill="none" stroke="#655c81" stroke-linecap="round" stroke-linejoin="round" stroke-width="3.0"/>
    <path d="M36.05 36.0 L38.65 36.0 Q42.8 36.0 45.7 33.05 47.95 30.85 48.5 27.9 L48.65 26.0 48.65 5.0" fill="none" stroke="#655c81" stroke-linecap="round" stroke-linejoin="round" stroke-width="2.0"/>
    <path d="M-1.65 30.3 Q4.9 29.45 9.75 24.6 14.5 19.85 15.4 10.9 M36.05 36.0 L36.1 34.6 36.1 13.55 M-1.65 30.3 L-4.4 30.45 -26.8 30.45 -26.9 30.45 Q-35.15 30.4 -40.95 24.6 -46.8 18.75 -46.8 10.45 L-46.1 6.1" fill="none" stroke="#655c81" stroke-linecap="round" stroke-linejoin="round" stroke-width="3.0"/>
    <path d="M52.5 -15.0 Q53.25 -14.7 53.85 -14.1 54.95 -13.0 55.0 -11.45 L55.0 -11.2 Q54.95 -9.65 53.85 -8.55 52.75 -7.45 51.2 -7.4 L51.2 11.4 Q49.1 10.35 46.95 12.45 L44.4 15.0 24.75 15.0 22.8 13.05 Q19.95 10.2 17.1 13.05 L15.15 15.0 14.35 15.0 13.25 13.5 10.3 10.55 Q7.45 7.7 4.6 10.55 L1.65 13.5 0.55 15.0 -22.75 15.0 -23.2 14.55 Q-26.05 11.7 -28.9 14.55 L-29.35 15.0 -38.3 15.0 Q-39.4 13.35 -40.75 12.0 L-43.7 9.05 Q-45.9 6.85 -48.05 8.05 L-48.9 8.65 Q-49.15 8.8 -49.4 9.05 L-51.2 10.85 -51.2 -7.4 Q-52.75 -7.45 -53.85 -8.55 -54.95 -9.65 -55.0 -11.2 L-55.0 -11.45 Q-54.95 -13.0 -53.85 -14.1 -53.25 -14.7 -52.5 -15.0 L52.5 -15.0" fill="url(#gradient0)" fill-rule="evenodd" stroke="none"/>
    <path d="M23.45 -5.95 L22.9 -5.4 Q20.75 -3.25 18.6 -4.35 17.9 -4.7 17.2 -5.4 L16.65 -5.95 14.25 -8.35 13.15 -9.85 Q12.15 -11.95 14.25 -14.05 L15.05 -14.85 25.05 -14.85 25.85 -14.05 Q27.95 -11.95 26.95 -9.85 L25.85 -8.35 23.45 -5.95 M39.05 -3.8 Q37.25 -5.6 37.75 -7.4 38.0 -8.45 39.05 -9.5 L42.0 -12.45 Q44.85 -15.3 47.7 -12.45 L50.65 -9.5 Q51.65 -8.5 51.95 -7.45 L51.2 -7.4 51.2 -4.4 50.65 -3.8 47.7 -0.85 Q44.85 2.0 42.0 -0.85 L39.05 -3.8 M-45.75 -12.55 L-43.45 -14.85 -36.45 -14.85 -34.15 -12.55 Q-32.8 -11.2 -32.7 -9.85 -32.65 -8.65 -33.65 -7.4 L-34.15 -6.85 -37.1 -3.9 Q-39.25 -1.75 -41.4 -2.85 -42.1 -3.2 -42.8 -3.9 L-45.75 -6.85 -46.25 -7.4 Q-47.25 -8.65 -47.15 -9.85 -47.1 -11.2 -45.75 -12.55" fill="#4c4661" fill-rule="evenodd" stroke="none"/>
    <path d="M16.65 -5.95 L17.2 -5.4 Q17.9 -4.7 18.6 -4.35 20.75 -3.25 22.9 -5.4 L23.45 -5.95 25.85 -3.55 26.3 -3.05 24.25 -1.05 Q21.65 1.55 23.85 4.2 L22.9 5.1 Q20.75 7.25 18.6 6.15 17.9 5.8 17.2 5.1 L14.25 2.15 Q12.25 0.15 13.05 -1.85 13.4 -2.7 14.25 -3.55 L16.65 -5.95 M-28.25 -1.05 L-25.3 -4.0 Q-22.45 -6.85 -19.6 -4.0 L-16.65 -1.05 Q-13.8 1.8 -16.65 4.65 L-19.6 7.6 Q-21.75 9.75 -23.9 8.65 L-25.3 7.6 -28.25 4.65 Q-31.1 1.8 -28.25 -1.05" fill="#43354e" fill-rule="evenodd" stroke="none"/>
    <path d="M-47.6 -4.0 L-44.65 -1.05 Q-41.8 1.8 -44.65 4.65 L-47.6 7.6 -48.05 8.05 -48.9 8.65 Q-50.05 9.2 -51.2 8.95 L-51.2 -5.3 Q-49.4 -5.8 -47.6 -4.0" fill="#433a52" fill-rule="evenodd" stroke="none"/>
    <path d="M-6.6 5.0 L-3.65 7.95 Q-0.8 10.8 -3.65 13.65 L-4.65 14.65 -14.25 14.65 -15.25 13.65 Q-18.1 10.8 -15.25 7.95 L-12.3 5.0 Q-9.45 2.15 -6.6 5.0" fill="#443c54" fill-rule="evenodd" stroke="none"/>
    <path d="M23.85 4.2 Q21.65 1.55 24.25 -1.05 L26.3 -3.05 27.2 -4.0 Q30.05 -6.85 32.9 -4.0 L35.85 -1.05 Q38.7 1.8 35.85 4.65 L32.9 7.6 Q30.05 10.45 27.2 7.6 L24.25 4.65 23.85 4.2" fill="#52435c" fill-rule="evenodd" stroke="none"/>
    <path d="M0.3 -11.25 L-1.05 -7.4 -4.1 -7.4 -4.95 -10.3 -6.0 -7.4 -10.7 -7.4 -13.2 -7.4 -30.85 -7.4 -32.7 -11.25 -34.05 -7.4 -39.0 -7.4 -41.7 -11.25 -43.05 -7.4 -46.1 -7.4 -46.95 -10.3 -48.0 -7.4 -51.1 -7.4 -51.2 -7.4 Q-52.75 -7.45 -53.85 -8.55 L-54.05 -8.75 Q-54.95 -9.8 -55.0 -11.2 L-55.0 -11.45 Q-54.95 -13.0 -53.85 -14.1 -52.7 -15.25 -51.1 -15.25 L51.1 -15.25 Q52.7 -15.25 53.85 -14.1 54.95 -13.0 55.0 -11.45 L55.0 -11.2 Q54.95 -9.8 54.05 -8.75 L53.85 -8.55 Q52.75 -7.45 51.2 -7.4 L32.15 -7.4 30.3 -11.25 28.95 -7.4 24.0 -7.4 21.3 -11.25 19.95 -7.4 16.9 -7.4 16.05 -10.3 15.0 -7.4 11.15 -7.4 9.3 -11.25 7.95 -7.4 3.0 -7.4 0.3 -11.25" fill="#403342" fill-rule="evenodd" stroke="none"/>
  </g>
  <defs>
    <linearGradient gradientTransform="matrix(0.0, 0.0178, -0.0671, 0.0, 0.0, 0.3)" gradientUnits="userSpaceOnUse" id="gradient0" spreadMethod="pad" x1="-819.2" x2="819.2">
      <stop offset="0.0" stop-color="#43354e"/>
      <stop offset="0.6392156862745098" stop-color="#454158"/>
      <stop offset="1.0" stop-color="#5f4661"/>
    </linearGradient>
  </defs>
</svg>
