<?xml version="1.0" encoding="UTF-8" standalone="no"?>
<svg xmlns:ffdec="https://www.free-decompiler.com/flash" xmlns:xlink="http://www.w3.org/1999/xlink" ffdec:objectType="shape" height="70.4px" width="370.0px" xmlns="http://www.w3.org/2000/svg">
  <g transform="matrix(1.0, 0.0, 0.0, 1.0, 185.0, 15.25)">
    <path d="M149.3 15.0 L149.25 23.2 Q149.25 25.4 150.8 26.95 152.4 28.55 154.6 28.55 L154.65 28.55 155.6 28.5 Q157.2 28.2 158.4 26.95 160.0 25.4 160.0 23.2 L160.0 15.05 M-175.9 15.0 L-175.9 15.8 Q-175.9 19.95 -173.0 22.85 -170.95 24.9 -168.35 25.55 L-162.75 25.8 Q-158.6 25.8 -155.7 22.85 -153.45 20.65 -152.9 17.7 -152.75 16.8 -152.75 15.8 L-152.75 15.0" fill="none" stroke="#655c81" stroke-linecap="butt" stroke-linejoin="round" stroke-width="2.0"/>
    <path d="M73.0 15.0 L73.0 15.8 Q73.0 19.95 75.9 22.85 78.85 25.8 83.0 25.8 L86.05 25.8 118.0 25.8" fill="none" stroke="#655c81" stroke-linecap="round" stroke-linejoin="round" stroke-width="2.0"/>
    <path d="M-127.35 23.45 L-127.35 15.05" fill="none" stroke="#655c81" stroke-linecap="round" stroke-linejoin="round" stroke-width="3.0"/>
    <path d="M118.0 25.8 L118.1 25.8 120.1 25.55 Q122.75 24.95 124.8 22.85 127.75 19.95 127.75 15.8 L127.75 15.0 M86.05 25.8 L86.25 23.8 86.25 15.8 86.25 15.0 M-127.35 23.45 L-126.6 23.3 Q-125.45 22.95 -124.5 22.0 -123.0 20.55 -123.0 18.5 L-123.0 15.05" fill="none" stroke="#655c81" stroke-linecap="round" stroke-linejoin="round" stroke-width="2.0"/>
    <path d="M118.0 25.8 L118.0 31.05 Q118.0 34.8 120.6 37.4 123.25 40.05 127.0 40.05 130.75 40.05 133.35 37.4 136.0 34.8 136.0 31.05 L136.0 15.0 M118.0 25.8 L118.0 15.0 M-127.35 23.45 L-127.35 35.95 Q-127.35 43.3 -122.2 48.45 -117.0 53.65 -109.65 53.65 -102.3 53.65 -97.15 48.45 -91.95 43.3 -91.95 35.95 L-91.95 12.75 -91.4 4.5" fill="none" stroke="#655c81" stroke-linecap="round" stroke-linejoin="round" stroke-width="3.0"/>
    <path d="M67.3 15.0 L67.25 15.8 67.25 23.8 Q67.25 27.75 70.0 30.5 72.8 33.3 76.75 33.3 80.7 33.3 83.45 30.5 85.5 28.5 86.05 25.8 M-136.25 15.0 L-136.25 18.5 Q-136.25 20.55 -134.8 22.0 -133.35 23.45 -131.45 23.5 L-128.0 23.5 -127.35 23.45" fill="none" stroke="#655c81" stroke-linecap="butt" stroke-linejoin="round" stroke-width="2.0"/>
    <path d="M62.7 -7.4 L65.3 -4.8 Q68.15 -1.95 65.3 0.9 L62.35 3.85 Q59.5 6.7 56.65 3.85 L53.3 0.45 Q51.1 -2.2 53.7 -4.8 L56.3 -7.4 62.7 -7.4 M114.65 -7.4 L112.4 -5.15 Q110.95 -3.7 109.5 -3.7 L106.15 -0.35 Q103.3 2.5 100.45 -0.35 L97.1 -3.75 Q94.9 -6.4 97.5 -9.0 L97.95 -9.4 98.9 -7.4 114.65 -7.4 M-129.55 -3.75 L-126.6 -0.8 Q-123.75 2.05 -126.6 4.9 L-129.55 7.85 Q-132.4 10.7 -135.25 7.85 L-138.6 4.45 Q-140.8 1.8 -138.2 -0.8 L-135.25 -3.75 Q-132.4 -6.6 -129.55 -3.75" fill="#43364f" fill-rule="evenodd" stroke="none"/>
    <path d="M77.9 -3.75 L80.85 -0.8 Q83.7 2.05 80.85 4.9 L77.9 7.85 Q75.05 10.7 72.2 7.85 L68.85 4.45 Q66.65 1.8 69.25 -0.8 L72.2 -3.75 Q75.05 -6.6 77.9 -3.75 M120.1 2.95 Q122.95 5.8 120.1 8.65 L117.15 11.6 Q114.3 14.45 111.45 11.6 L108.1 8.2 Q105.9 5.55 108.5 2.95 L111.45 0.0 Q114.3 -2.85 117.15 0.0 L120.1 2.95 M-106.9 13.35 L-108.1 12.1 Q-110.3 9.45 -107.7 6.85 L-104.75 3.9 Q-101.9 1.05 -99.05 3.9 L-96.1 6.85 Q-94.9 8.05 -94.7 9.25 -97.1 8.35 -99.55 10.8 L-103.75 15.0 -105.25 15.0 -106.9 13.35 M-111.55 -4.1 L-108.6 -1.15 Q-105.75 1.7 -108.6 4.55 L-111.55 7.5 Q-114.4 10.35 -117.25 7.5 L-120.6 4.1 Q-122.8 1.45 -120.2 -1.15 L-117.25 -4.1 Q-114.4 -6.95 -111.55 -4.1 M-15.15 8.95 L-11.55 5.25 Q-8.7 2.4 -5.85 5.25 L-2.9 8.2 Q-0.05 11.05 -2.9 13.9 L-3.9 14.9 -13.5 14.9 -14.5 13.9 Q-17.0 11.4 -15.15 8.95" fill="#52435c" fill-rule="evenodd" stroke="none"/>
    <path d="M36.3 -4.1 L39.25 -1.15 Q42.1 1.7 39.25 4.55 L36.3 7.5 Q33.45 10.35 30.6 7.5 L27.25 4.1 Q25.05 1.45 27.65 -1.15 L30.6 -4.1 Q33.45 -6.95 36.3 -4.1 M150.65 -4.1 L153.6 -1.15 Q156.45 1.7 153.6 4.55 L150.65 7.5 Q147.8 10.35 144.95 7.5 L141.6 4.1 Q139.4 1.45 142.0 -1.15 L144.95 -4.1 Q147.8 -6.95 150.65 -4.1 M-34.95 15.0 Q-37.3 12.35 -34.6 9.65 L-31.65 6.7 Q-28.8 3.85 -25.95 6.7 L-23.0 9.65 Q-20.4 12.25 -22.6 14.9 L-22.7 15.0 -22.75 15.05 -34.9 15.05 -34.95 15.0 M-22.4 -4.1 Q-19.55 -6.95 -16.7 -4.1 L-13.75 -1.15 Q-11.15 1.45 -13.35 4.1 L-16.7 7.5 Q-19.55 10.35 -22.4 7.5 L-25.35 4.55 Q-28.2 1.7 -25.35 -1.15 L-22.4 -4.1" fill="#4d425a" fill-rule="evenodd" stroke="none"/>
    <path d="M177.8 -7.4 L175.6 -5.2 Q172.75 -2.35 169.9 -5.2 L167.75 -7.4 177.8 -7.4 M-110.45 -7.4 L-100.3 -7.4 -102.55 -5.15 Q-105.4 -2.3 -108.25 -5.15 L-110.45 -7.4" fill="#494159" fill-rule="evenodd" stroke="none"/>
    <path d="M46.6 7.75 L48.5 9.65 Q51.2 12.35 48.85 15.0 L48.8 15.05 36.65 15.05 36.6 15.0 36.5 14.9 Q34.3 12.25 36.9 9.65 L39.85 6.7 Q42.7 3.85 45.55 6.7 L46.6 7.75 M150.95 15.0 L150.85 14.9 Q148.65 12.25 151.25 9.65 L154.2 6.7 Q157.05 3.85 159.9 6.7 L162.85 9.65 Q165.55 12.35 163.2 15.0 L163.15 15.05 151.0 15.05 150.95 15.0" fill="#443d54" fill-rule="evenodd" stroke="none"/>
    <path d="M143.4 8.95 Q145.25 11.4 142.75 13.9 L141.75 14.9 132.15 14.9 131.15 13.9 Q128.3 11.05 131.15 8.2 L134.1 5.25 Q136.95 2.4 139.8 5.25 L143.4 8.95 M29.05 8.95 Q30.9 11.4 28.4 13.9 L27.4 14.9 17.8 14.9 16.8 13.9 Q13.95 11.05 16.8 8.2 L19.75 5.25 Q22.6 2.4 25.45 5.25 L29.05 8.95" fill="#443c54" fill-rule="evenodd" stroke="none"/>
    <path d="M-154.9 -7.4 Q-152.35 -4.65 -155.1 -1.9 L-158.05 1.05 Q-160.9 3.9 -163.75 1.05 L-167.1 -2.35 Q-169.2 -4.9 -166.9 -7.4 L-154.9 -7.4 M-131.6 15.0 Q-131.45 13.75 -130.2 12.45 L-127.25 9.5 Q-124.4 6.65 -121.55 9.5 L-118.6 12.45 Q-117.3 13.75 -117.15 15.0 L-117.15 15.05 -131.6 15.05 -131.6 15.0 M-60.55 15.0 L-60.65 14.9 Q-62.85 12.25 -60.25 9.65 L-57.3 6.7 Q-54.45 3.85 -51.6 6.7 L-48.65 9.65 Q-45.95 12.35 -48.3 15.0 L-48.35 15.05 -60.5 15.05 -60.55 15.0 M-181.0 -2.95 Q-178.5 -4.75 -176.05 -2.3 L-173.1 0.65 Q-170.25 3.5 -173.1 6.35 L-176.05 9.3 Q-178.5 11.8 -181.0 9.95 L-181.0 -2.95" fill="#443f56" fill-rule="evenodd" stroke="none"/>
    <path d="M-73.25 -0.8 L-70.3 -3.75 Q-67.45 -6.6 -64.6 -3.75 L-61.65 -0.8 Q-58.8 2.05 -61.65 4.9 L-64.6 7.85 Q-66.75 10.0 -68.9 8.9 L-70.3 7.85 -73.25 4.9 Q-76.1 2.05 -73.25 -0.8" fill="#43354e" fill-rule="evenodd" stroke="none"/>
    <path d="M36.3 -4.1 Q33.45 -6.95 30.6 -4.1 L27.65 -1.15 Q25.05 1.45 27.25 4.1 L30.6 7.5 Q33.45 10.35 36.3 7.5 L39.25 4.55 Q42.1 1.7 39.25 -1.15 L36.3 -4.1 M46.6 -7.4 L46.6 7.75 45.55 6.7 Q42.7 3.85 39.85 6.7 L36.9 9.65 Q34.3 12.25 36.5 14.9 L36.6 15.0 -22.7 15.0 -22.6 14.9 Q-20.4 12.25 -23.0 9.65 L-25.95 6.7 Q-28.8 3.85 -31.65 6.7 L-34.6 9.65 Q-37.3 12.35 -34.95 15.0 L-48.3 15.0 Q-45.95 12.35 -48.65 9.65 L-51.6 6.7 Q-54.45 3.85 -57.3 6.7 L-60.25 9.65 Q-62.85 12.25 -60.65 14.9 L-60.55 15.0 -80.7 15.0 -81.05 14.65 Q-84.55 11.15 -88.1 14.7 L-88.3 14.95 -92.5 10.75 Q-93.6 9.65 -94.7 9.25 -94.9 8.05 -96.1 6.85 L-99.05 3.9 Q-101.9 1.05 -104.75 3.9 L-107.7 6.85 Q-110.3 9.45 -108.1 12.1 L-106.9 13.35 -107.2 13.05 Q-110.05 10.2 -112.9 13.05 L-114.85 15.0 -117.15 15.0 Q-117.3 13.75 -118.6 12.45 L-121.55 9.5 Q-124.4 6.65 -127.25 9.5 L-130.2 12.45 Q-131.45 13.75 -131.6 15.0 L-141.65 15.0 -143.5 13.15 Q-147.0 9.65 -150.55 13.2 L-152.35 15.0 -152.75 15.0 -153.2 14.55 Q-156.05 11.7 -158.9 14.55 L-159.35 15.0 -181.2 15.0 -181.2 -7.4 -166.9 -7.4 Q-169.2 -4.9 -167.1 -2.35 L-163.75 1.05 Q-160.9 3.9 -158.05 1.05 L-155.1 -1.9 Q-152.35 -4.65 -154.9 -7.4 L-110.45 -7.4 -108.25 -5.15 Q-105.4 -2.3 -102.55 -5.15 L-100.3 -7.4 46.6 -15.2 46.6 -7.4 M29.05 8.95 L25.45 5.25 Q22.6 2.4 19.75 5.25 L16.8 8.2 Q13.95 11.05 16.8 13.9 L17.8 14.9 27.4 14.9 28.4 13.9 Q30.9 11.4 29.05 8.95 M-181.0 -2.95 L-181.0 9.95 Q-178.5 11.8 -176.05 9.3 L-173.1 6.35 Q-170.25 3.5 -173.1 0.65 L-176.05 -2.3 Q-178.5 -4.75 -181.0 -2.95 M-129.55 -3.75 Q-132.4 -6.6 -135.25 -3.75 L-138.2 -0.8 Q-140.8 1.8 -138.6 4.45 L-135.25 7.85 Q-132.4 10.7 -129.55 7.85 L-126.6 4.9 Q-123.75 2.05 -126.6 -0.8 L-129.55 -3.75 M-111.55 -4.1 Q-114.4 -6.95 -117.25 -4.1 L-120.2 -1.15 Q-122.8 1.45 -120.6 4.1 L-117.25 7.5 Q-114.4 10.35 -111.55 7.5 L-108.6 4.55 Q-105.75 1.7 -108.6 -1.15 L-111.55 -4.1 M-73.25 -0.8 Q-76.1 2.05 -73.25 4.9 L-70.3 7.85 -68.9 8.9 Q-66.75 10.0 -64.6 7.85 L-61.65 4.9 Q-58.8 2.05 -61.65 -0.8 L-64.6 -3.75 Q-67.45 -6.6 -70.3 -3.75 L-73.25 -0.8 M-22.4 -4.1 L-25.35 -1.15 Q-28.2 1.7 -25.35 4.55 L-22.4 7.5 Q-19.55 10.35 -16.7 7.5 L-13.35 4.1 Q-11.15 1.45 -13.75 -1.15 L-16.7 -4.1 Q-19.55 -6.95 -22.4 -4.1 M-15.15 8.95 Q-17.0 11.4 -14.5 13.9 L-13.5 14.9 -3.9 14.9 -2.9 13.9 Q-0.05 11.05 -2.9 8.2 L-5.85 5.25 Q-8.7 2.4 -11.55 5.25 L-15.15 8.95 M-88.3 14.95 L-88.25 15.0 -88.4 15.0 -88.3 14.95" fill="url(#gradient0)" fill-rule="evenodd" stroke="none"/>
    <path d="M56.3 -7.4 L53.7 -4.8 Q51.1 -2.2 53.3 0.45 L56.65 3.85 Q59.5 6.7 62.35 3.85 L65.3 0.9 Q68.15 -1.95 65.3 -4.8 L62.7 -7.4 67.85 -7.4 69.7 -11.25 71.05 -7.4 76.0 -7.4 78.7 -11.25 80.05 -7.4 81.75 -7.4 82.8 -10.3 83.4 -8.35 83.95 -10.3 85.0 -7.4 86.7 -7.4 88.05 -11.25 90.75 -7.4 95.7 -7.4 97.05 -11.25 97.95 -9.4 97.5 -9.0 Q94.9 -6.4 97.1 -3.75 L100.45 -0.35 Q103.3 2.5 106.15 -0.35 L109.5 -3.7 Q110.95 -3.7 112.4 -5.15 L114.65 -7.4 123.75 -7.4 124.8 -10.3 125.65 -7.4 128.7 -7.4 130.05 -11.25 132.75 -7.4 137.7 -7.4 139.05 -11.25 140.9 -7.4 144.75 -7.4 145.8 -10.3 146.65 -7.4 149.7 -7.4 151.05 -11.25 153.75 -7.4 158.7 -7.4 160.05 -11.25 161.9 -7.4 167.75 -7.4 169.9 -5.2 Q172.75 -2.35 175.6 -5.2 L177.8 -7.4 180.95 -7.4 Q182.5 -7.45 183.6 -8.55 L183.8 -8.75 Q184.7 -9.8 184.75 -11.2 L184.75 -11.45 Q184.7 -13.0 183.6 -14.1 L182.25 -15.0 182.5 -15.0 Q183.25 -14.7 183.85 -14.1 184.95 -13.0 185.0 -11.45 L185.0 -11.2 Q184.95 -9.65 183.85 -8.55 182.75 -7.45 181.2 -7.4 L181.2 15.05 179.1 15.05 Q178.0 11.4 176.95 12.45 L174.4 15.0 174.3 15.0 172.45 13.15 Q170.9 11.6 169.4 11.45 167.4 11.2 165.4 13.2 L163.6 15.0 163.2 15.0 Q165.55 12.35 162.85 9.65 L159.9 6.7 Q157.05 3.85 154.2 6.7 L151.25 9.65 Q148.65 12.25 150.85 14.9 L150.95 15.0 111.45 15.0 108.95 12.5 Q105.45 9.0 101.9 12.55 L99.45 15.0 98.8 15.0 96.95 13.15 Q93.45 9.65 89.9 13.2 L88.1 15.0 48.85 15.0 Q51.2 12.35 48.5 9.65 L46.6 7.75 46.6 -7.4 56.3 -7.4 M77.9 -3.75 Q75.05 -6.6 72.2 -3.75 L69.25 -0.8 Q66.65 1.8 68.85 4.45 L72.2 7.85 Q75.05 10.7 77.9 7.85 L80.85 4.9 Q83.7 2.05 80.85 -0.8 L77.9 -3.75 M150.65 -4.1 Q147.8 -6.95 144.95 -4.1 L142.0 -1.15 Q139.4 1.45 141.6 4.1 L144.95 7.5 Q147.8 10.35 150.65 7.5 L153.6 4.55 Q156.45 1.7 153.6 -1.15 L150.65 -4.1 M143.4 8.95 L139.8 5.25 Q136.95 2.4 134.1 5.25 L131.15 8.2 Q128.3 11.05 131.15 13.9 L132.15 14.9 141.75 14.9 142.75 13.9 Q145.25 11.4 143.4 8.95 M120.1 2.95 L117.15 0.0 Q114.3 -2.85 111.45 0.0 L108.5 2.95 Q105.9 5.55 108.1 8.2 L111.45 11.6 Q114.3 14.45 117.15 11.6 L120.1 8.65 Q122.95 5.8 120.1 2.95" fill="url(#gradient1)" fill-rule="evenodd" stroke="none"/>
    <path d="M69.7 -11.25 L67.85 -7.4 46.6 -7.4 46.6 -7.35 40.7 -7.35 39.0 -10.25 37.6 -7.35 32.65 -7.35 30.4 -11.2 26.0 -7.35 17.9 -7.35 15.7 -11.2 12.65 -7.35 -16.45 -7.35 -18.65 -11.2 -21.65 -7.35 -178.75 -7.4 Q-181.3 -7.45 -183.1 -8.55 L-183.45 -8.75 -183.9 -9.15 -184.35 -9.55 Q-184.9 -10.3 -185.0 -11.2 L-185.0 -11.45 Q-184.9 -13.0 -183.1 -14.1 -182.15 -14.7 -180.9 -15.0 L-178.75 -15.25 46.6 -15.2 46.6 -15.25 180.95 -15.25 182.25 -15.0 183.6 -14.1 Q184.7 -13.0 184.75 -11.45 L184.75 -11.2 Q184.7 -9.8 183.8 -8.75 L183.6 -8.55 Q182.5 -7.45 180.95 -7.4 L161.9 -7.4 160.05 -11.25 158.7 -7.4 153.75 -7.4 151.05 -11.25 149.7 -7.4 146.65 -7.4 145.8 -10.3 144.75 -7.4 140.9 -7.4 139.05 -11.25 137.7 -7.4 132.75 -7.4 130.05 -11.25 128.7 -7.4 125.65 -7.4 124.8 -10.3 123.75 -7.4 98.9 -7.4 97.05 -11.25 95.7 -7.4 90.75 -7.4 88.05 -11.25 86.7 -7.4 85.0 -7.4 83.95 -10.3 83.4 -8.35 82.8 -10.3 81.75 -7.4 80.05 -7.4 78.7 -11.25 76.0 -7.4 71.05 -7.4 69.7 -11.25" fill="#403342" fill-rule="evenodd" stroke="none"/>
  </g>
  <defs>
    <linearGradient gradientTransform="matrix(0.0, 0.0178, -0.0672, 0.0, -130.0, 0.3)" gradientUnits="userSpaceOnUse" id="gradient0" spreadMethod="pad" x1="-819.2" x2="819.2">
      <stop offset="0.0" stop-color="#43354e"/>
      <stop offset="0.6392156862745098" stop-color="#454158"/>
      <stop offset="1.0" stop-color="#5f4661"/>
    </linearGradient>
    <linearGradient gradientTransform="matrix(0.0, 0.0178, -0.0672, 0.0, -40.0, 0.3)" gradientUnits="userSpaceOnUse" id="gradient1" spreadMethod="pad" x1="-819.2" x2="819.2">
      <stop offset="0.0" stop-color="#43354e"/>
      <stop offset="0.6392156862745098" stop-color="#454158"/>
      <stop offset="1.0" stop-color="#5f4661"/>
    </linearGradient>
  </defs>
</svg>
