<?xml version="1.0" encoding="UTF-8" standalone="no"?>
<svg xmlns:ffdec="https://www.free-decompiler.com/flash" xmlns:xlink="http://www.w3.org/1999/xlink" ffdec:objectType="shape" height="67.4px" width="90.0px" xmlns="http://www.w3.org/2000/svg">
  <g transform="matrix(1.0, 0.0, 0.0, 1.0, 55.0, 15.25)">
    <path d="M-45.0 9.0 L-45.0 33.4 Q-45.0 36.15 -43.05 38.1 -41.1 40.05 -38.35 40.05 -35.6 40.05 -33.65 38.1 -31.7 36.15 -31.7 33.4 L-31.7 9.0" fill="none" stroke="#655c81" stroke-linecap="butt" stroke-linejoin="round" stroke-width="2.0"/>
    <path d="M-26.3 9.0 L-26.3 19.65" fill="none" stroke="#655c81" stroke-linecap="round" stroke-linejoin="round" stroke-width="2.0"/>
    <path d="M-20.3 26.05 L-20.3 30.65 Q-20.3 38.95 -14.45 44.8 -9.05 50.2 -1.55 50.65 L-0.9 50.65 2.1 50.65 Q10.4 50.65 16.25 44.8 22.1 38.95 22.1 30.65 L22.1 9.0 M-20.3 26.05 L-20.3 9.0" fill="none" stroke="#655c81" stroke-linecap="round" stroke-linejoin="round" stroke-width="3.0"/>
    <path d="M-20.3 26.05 L-19.9 26.05 Q-17.25 26.05 -15.4 24.15 -13.5 22.3 -13.5 19.65 L-13.5 9.0" fill="none" stroke="#655c81" stroke-linecap="round" stroke-linejoin="round" stroke-width="2.0"/>
    <path d="M-26.3 19.65 Q-26.3 22.3 -24.45 24.15 L-23.3 25.1 -22.3 25.6 -20.3 26.05" fill="none" stroke="#655c81" stroke-linecap="butt" stroke-linejoin="round" stroke-width="2.0"/>
    <path d="M33.85 -14.1 L34.75 -12.7 35.0 -11.45 35.0 -11.2 Q34.95 -9.65 33.85 -8.55 L32.5 -7.65 32.5 4.1 31.3 5.3 Q29.2 7.4 30.25 9.5 L31.35 10.95 32.5 12.1 32.5 15.0 19.6 15.0 17.75 13.15 Q15.1 10.5 12.5 12.75 L10.3 10.55 Q7.45 7.7 4.6 10.55 L1.65 13.5 0.55 15.0 -22.2 15.0 -25.85 11.35 Q-28.7 8.5 -31.55 11.35 L-35.2 15.0 -35.65 14.55 Q-38.5 11.7 -41.35 14.55 L-41.8 15.0 -51.2 15.0 -51.2 5.2 -49.5 3.5 Q-47.4 1.4 -48.45 -0.7 -48.8 -1.4 -49.5 -2.1 L-51.2 -3.8 -51.2 -7.4 Q-52.75 -7.45 -53.85 -8.55 -54.95 -9.65 -55.0 -11.2 L-55.0 -11.45 -54.75 -12.7 -53.85 -14.1 Q-53.25 -14.7 -52.5 -15.0 L32.5 -15.0 Q33.25 -14.7 33.85 -14.1" fill="url(#gradient0)" fill-rule="evenodd" stroke="none"/>
    <path d="M6.75 -4.4 Q5.75 -5.65 5.8 -6.85 5.9 -8.2 7.25 -9.55 L9.55 -11.85 16.55 -11.85 18.85 -9.55 Q20.2 -8.2 20.25 -6.85 20.35 -5.65 19.35 -4.4 L18.85 -3.85 15.9 -0.9 Q15.2 -0.2 14.5 0.15 12.35 1.25 10.2 -0.9 L7.25 -3.85 6.75 -4.4 M-51.2 -7.4 L-51.4 -7.4 -49.4 -9.45 Q-46.55 -12.3 -43.7 -9.45 L-40.75 -6.5 Q-39.7 -5.45 -39.45 -4.4 -38.95 -2.6 -40.75 -0.8 L-43.7 2.15 Q-46.25 4.7 -48.8 2.7 -47.1 0.3 -49.5 -2.1 L-51.2 -3.8 -51.2 -7.4 M-25.15 -2.95 L-27.55 -5.35 -28.65 -6.85 Q-29.65 -8.95 -27.55 -11.05 L-26.75 -11.85 -16.75 -11.85 -15.95 -11.05 Q-13.85 -8.95 -14.85 -6.85 L-15.95 -5.35 -18.35 -2.95 -18.9 -2.4 Q-19.6 -1.7 -20.3 -1.35 -22.45 -0.25 -24.6 -2.4 L-25.15 -2.95" fill="#4c4661" fill-rule="evenodd" stroke="none"/>
    <path d="M30.35 -7.6 L32.5 -5.45 32.5 1.85 30.35 4.0 Q29.65 4.7 28.95 5.05 26.8 6.15 24.65 4.0 L21.7 1.05 Q18.85 -1.8 21.7 -4.65 L24.65 -7.6 Q27.5 -10.45 30.35 -7.6 M-18.35 -2.95 L-15.95 -0.55 Q-15.1 0.3 -14.75 1.15 -13.95 3.15 -15.95 5.15 L-18.9 8.1 -20.3 9.15 Q-22.45 10.25 -24.6 8.1 L-25.55 7.2 Q-23.35 4.55 -25.95 1.95 L-28.0 -0.05 -27.55 -0.55 -25.15 -2.95 -24.6 -2.4 Q-22.45 -0.25 -20.3 -1.35 -19.6 -1.7 -18.9 -2.4 L-18.35 -2.95" fill="#43354e" fill-rule="evenodd" stroke="none"/>
    <path d="M14.3 11.8 Q13.4 12.0 12.5 12.75 L10.3 10.55 Q7.45 7.7 4.6 10.55 L1.65 13.5 0.7 14.75 Q0.05 12.85 1.95 10.95 L4.9 8.0 Q7.75 5.15 10.6 8.0 L13.55 10.95 14.3 11.8" fill="#443c54" fill-rule="evenodd" stroke="none"/>
    <path d="M-25.55 7.2 L-25.95 7.65 -28.25 9.95 Q-29.9 9.7 -31.55 11.35 L-32.2 12.0 Q-33.4 11.8 -34.6 10.6 L-37.55 7.65 Q-40.4 4.8 -37.55 1.95 L-34.6 -1.0 Q-31.75 -3.85 -28.9 -1.0 L-28.0 -0.05 -25.95 1.95 Q-23.35 4.55 -25.55 7.2" fill="#52435c" fill-rule="evenodd" stroke="none"/>
    <path d="M7.95 -7.4 L-10.7 -7.4 -13.2 -7.4 -29.65 -7.4 -32.7 -12.65 -34.05 -7.4 -41.7 -7.45 -41.7 -11.25 -43.05 -7.4 -46.1 -7.4 -51.1 -7.4 -51.2 -7.4 Q-52.75 -7.45 -53.85 -8.55 L-54.05 -8.75 Q-54.95 -9.8 -55.0 -11.2 L-55.0 -11.45 Q-54.95 -13.0 -53.85 -14.1 -52.7 -15.25 -51.1 -15.25 L31.1 -15.25 Q32.7 -15.25 33.85 -14.1 34.95 -13.0 35.0 -11.45 L35.0 -11.2 Q34.95 -9.8 34.05 -8.75 L33.85 -8.55 Q32.75 -7.45 31.2 -7.4 L16.9 -7.4 16.05 -10.3 15.0 -7.4 11.15 -7.4 9.3 -11.25 7.95 -7.4" fill="#403342" fill-rule="evenodd" stroke="none"/>
  </g>
  <defs>
    <linearGradient gradientTransform="matrix(0.0, 0.0178, -0.0671, 0.0, 0.0, 0.3)" gradientUnits="userSpaceOnUse" id="gradient0" spreadMethod="pad" x1="-819.2" x2="819.2">
      <stop offset="0.0" stop-color="#43354e"/>
      <stop offset="0.6392156862745098" stop-color="#454158"/>
      <stop offset="1.0" stop-color="#5f4661"/>
    </linearGradient>
  </defs>
</svg>
