<?xml version="1.0" encoding="UTF-8" standalone="no"?>
<svg xmlns:ffdec="https://www.free-decompiler.com/flash" xmlns:xlink="http://www.w3.org/1999/xlink" ffdec:objectType="shape" height="66.8px" width="60.0px" xmlns="http://www.w3.org/2000/svg">
  <g transform="matrix(1.0, 0.0, 0.0, 1.0, 30.0, 17.75)">
    <path d="M-0.15 -0.15 L-0.15 -0.95" fill="none" stroke="#ffffcc" stroke-linecap="butt" stroke-linejoin="miter-clip" stroke-miterlimit="3.0" stroke-width="4.0"/>
    <path d="M-0.15 -0.95 L0.0 -15.75" fill="none" stroke="#655c81" stroke-linecap="butt" stroke-linejoin="miter-clip" stroke-miterlimit="3.0" stroke-width="4.0"/>
    <path d="M15.15 8.05 L17.25 8.05 Q19.3 8.05 20.75 9.5 22.25 11.0 22.25 13.05 L22.25 16.05 22.15 17.05 24.0 17.05 Q26.05 17.05 27.5 18.5 29.0 20.0 29.0 22.05 L29.0 25.05 Q29.0 27.1 27.5 28.55 26.05 30.05 24.0 30.05 L22.15 30.05 22.25 31.05 22.25 34.05 Q22.25 36.1 20.75 37.55 19.3 39.05 17.25 39.05 L15.15 39.05 15.25 40.05 15.25 43.05 Q15.25 45.1 13.75 46.55 12.3 48.05 10.25 48.05 L-10.25 48.05 Q-12.3 48.05 -13.8 46.55 -15.25 45.1 -15.25 43.05 L-15.25 40.05 -15.15 39.05 -17.25 39.05 Q-19.3 39.05 -20.8 37.55 -22.25 36.1 -22.25 34.05 L-22.25 31.05 -22.15 30.05 -24.0 30.05 Q-26.05 30.05 -27.55 28.55 -29.0 27.1 -29.0 25.05 L-29.0 22.05 Q-29.0 20.0 -27.55 18.5 -26.05 17.05 -24.0 17.05 L-22.15 17.05 -22.25 16.05 -22.25 13.05 Q-22.25 11.0 -20.8 9.5 -19.3 8.05 -17.25 8.05 L-15.15 8.05 -15.25 7.05 -15.25 4.05 Q-15.25 2.0 -13.8 0.5 -12.3 -0.95 -10.25 -0.95 L10.25 -0.95 Q12.3 -0.95 13.75 0.5 15.25 2.0 15.25 4.05 L15.25 7.05 15.15 8.05" fill="#e8c05a" fill-rule="evenodd" stroke="none"/>
    <path d="M15.75 30.05 L22.15 30.05 24.0 30.05 Q26.05 30.05 27.5 28.55 29.0 27.1 29.0 25.05 L29.0 22.05 Q29.0 20.0 27.5 18.5 26.05 17.05 24.0 17.05 L22.15 17.05 16.0 17.05 M22.15 17.05 L22.25 16.05 22.25 13.05 Q22.25 11.0 20.75 9.5 19.3 8.05 17.25 8.05 L15.15 8.05 8.5 8.05 M10.75 17.05 L10.0 17.05 M12.5 17.05 L11.5 17.05 M15.15 8.05 L15.25 7.05 15.25 4.05 Q15.25 2.0 13.75 0.5 12.3 -0.95 10.25 -0.95 L-10.25 -0.95 Q-12.3 -0.95 -13.8 0.5 -15.25 2.0 -15.25 4.05 L-15.25 7.05 -15.15 8.05 -8.5 8.05 M11.75 39.05 L15.15 39.05 17.25 39.05 Q19.3 39.05 20.75 37.55 22.25 36.1 22.25 34.05 L22.25 31.05 22.15 30.05 M-11.25 39.05 L-15.15 39.05 -15.25 40.05 -15.25 43.05 Q-15.25 45.1 -13.8 46.55 -12.3 48.05 -10.25 48.05 L10.25 48.05 Q12.3 48.05 13.75 46.55 15.25 45.1 15.25 43.05 L15.25 40.05 15.15 39.05 M6.0 39.05 L7.25 39.05 M12.0 30.05 L11.25 30.05 M-15.15 8.05 L-17.25 8.05 Q-19.3 8.05 -20.8 9.5 -22.25 11.0 -22.25 13.05 L-22.25 16.05 -22.15 17.05 -17.0 17.05 M-12.0 17.05 L-9.5 17.05 M-22.15 17.05 L-24.0 17.05 Q-26.05 17.05 -27.55 18.5 -29.0 20.0 -29.0 22.05 L-29.0 25.05 Q-29.0 27.1 -27.55 28.55 -26.05 30.05 -24.0 30.05 L-22.15 30.05 -14.5 30.05 M-22.15 30.05 L-22.25 31.05 -22.25 34.05 Q-22.25 36.1 -20.8 37.55 -19.3 39.05 -17.25 39.05 L-15.15 39.05 M-8.0 39.05 L-6.5 39.05 M-11.75 30.05 L-10.25 30.05" fill="none" stroke="#ffff99" stroke-linecap="round" stroke-linejoin="round" stroke-width="2.0"/>
  </g>
</svg>
