<?xml version="1.0" encoding="UTF-8" standalone="no"?>
<svg xmlns:ffdec="https://www.free-decompiler.com/flash" xmlns:xlink="http://www.w3.org/1999/xlink" ffdec:objectType="shape" height="70.4px" width="280.0px" xmlns="http://www.w3.org/2000/svg">
  <g transform="matrix(1.0, 0.0, 0.0, 1.0, 140.0, 15.25)">
    <path d="M104.3 10.3 L104.25 11.15 104.25 23.2 Q104.25 25.4 105.8 26.95 107.4 28.55 109.6 28.55 L109.65 28.55 110.5 28.5 110.6 28.5 Q112.2 28.2 113.4 26.95 115.0 25.4 115.0 23.2 L115.0 11.15 114.95 10.3 M-130.9 10.3 L-130.9 15.8 Q-130.9 19.95 -128.0 22.85 -125.95 24.9 -123.35 25.55 L-120.9 25.8 -117.75 25.8 Q-113.6 25.8 -110.7 22.85 -108.45 20.65 -107.9 17.7 -107.75 16.8 -107.75 15.8 L-107.75 10.3" fill="none" stroke="#655c81" stroke-linecap="butt" stroke-linejoin="round" stroke-width="2.0"/>
    <path d="M73.0 25.8 L73.05 25.8 73.1 25.8 75.1 25.55 Q77.75 24.95 79.8 22.85 82.75 19.95 82.75 15.8 L82.75 12.05 M41.25 23.8 L41.25 15.8 Q41.25 12.7 39.55 10.3 M-81.6 23.3 Q-80.45 22.95 -79.5 22.0 -78.0 20.55 -78.0 18.5 L-78.0 10.25" fill="none" stroke="#655c81" stroke-linecap="butt" stroke-linejoin="round" stroke-width="2.0"/>
    <path d="M41.05 25.8 L72.75 25.8 73.0 25.8" fill="none" stroke="#655c81" stroke-linecap="round" stroke-linejoin="round" stroke-width="2.0"/>
    <path d="M41.05 25.8 L38.0 25.8 Q33.85 25.8 30.9 22.85 28.0 19.95 28.0 15.8 L28.0 11.3 28.05 10.3" fill="none" stroke="#655c81" stroke-linecap="round" stroke-linejoin="round" stroke-width="2.0"/>
    <path d="M-82.35 23.45 L-82.35 12.75 Q-82.35 8.85 -80.9 5.55" fill="none" stroke="#655c81" stroke-linecap="round" stroke-linejoin="round" stroke-width="3.0"/>
    <path d="M73.0 25.8 L73.0 31.05 Q73.0 34.8 75.6 37.4 78.25 40.05 82.0 40.05 85.75 40.05 88.35 37.4 91.0 34.8 91.0 31.05 L91.0 12.05 M73.0 25.8 L73.0 12.05 M-82.35 23.45 L-82.35 35.95 Q-82.35 43.3 -77.2 48.45 -72.0 53.65 -64.65 53.65 -57.3 53.65 -52.15 48.45 -46.95 43.3 -46.95 35.95 L-46.95 12.75 Q-46.95 8.85 -48.4 5.55" fill="none" stroke="#655c81" stroke-linecap="round" stroke-linejoin="round" stroke-width="3.0"/>
    <path d="M41.05 25.8 L41.25 23.8 M-82.35 23.45 L-81.6 23.3" fill="none" stroke="#655c81" stroke-linecap="round" stroke-linejoin="round" stroke-width="2.0"/>
    <path d="M23.95 10.3 Q22.25 12.7 22.25 15.8 L22.25 23.8 Q22.25 27.75 25.0 30.5 27.8 33.3 31.75 33.3 35.7 33.3 38.45 30.5 40.5 28.5 41.05 25.8 M-91.25 10.25 L-91.25 18.5 Q-91.25 20.55 -89.8 22.0 -88.35 23.45 -86.45 23.5 L-86.25 23.5 -83.0 23.5 -82.35 23.45" fill="none" stroke="#655c81" stroke-linecap="butt" stroke-linejoin="round" stroke-width="2.0"/>
    <path d="M-43.3 14.95 L-47.5 10.75 Q-51.0 7.25 -54.55 10.8 L-58.75 15.0 -60.25 15.0 -62.2 13.05 Q-65.05 10.2 -67.9 13.05 L-69.85 15.0 -96.65 15.0 -98.5 13.15 Q-102.0 9.65 -105.55 13.2 L-107.35 15.0 -107.75 15.0 -108.2 14.55 Q-111.05 11.7 -113.9 14.55 L-114.35 15.0 -136.2 15.0 -136.2 -7.4 Q-137.75 -7.45 -138.85 -8.55 -139.95 -9.65 -140.0 -11.2 L-140.0 -11.45 Q-139.95 -13.0 -138.85 -14.1 -138.25 -14.7 -137.5 -15.0 L126.5 -15.0 124.0 -14.55 127.0 -15.0 137.5 -15.0 Q138.25 -14.7 138.85 -14.1 139.95 -13.0 140.0 -11.45 L140.0 -11.2 Q139.95 -9.65 138.85 -8.55 137.75 -7.45 136.2 -7.4 L136.2 15.05 134.1 15.05 Q133.0 11.4 131.95 12.45 L129.4 15.0 129.3 15.0 127.45 13.15 Q125.9 11.6 124.4 11.45 122.4 11.2 120.4 13.2 L118.6 15.0 66.45 15.0 63.95 12.5 Q60.45 9.0 56.9 12.55 L54.45 15.0 53.8 15.0 51.95 13.15 Q48.45 9.65 44.9 13.2 L43.1 15.0 -35.7 15.0 -36.05 14.65 Q-39.55 11.15 -43.1 14.7 L-43.3 14.95 -43.25 15.0 -43.4 15.0 -43.3 14.95" fill="url(#gradient0)" fill-rule="evenodd" stroke="none"/>
    <path d="M-28.25 -0.8 L-25.3 -3.75 Q-22.45 -6.6 -19.6 -3.75 L-16.65 -0.8 Q-13.8 2.05 -16.65 4.9 L-19.6 7.85 Q-21.75 10.0 -23.9 8.9 L-25.3 7.85 -28.25 4.9 Q-31.1 2.05 -28.25 -0.8" fill="#43354e" fill-rule="evenodd" stroke="none"/>
    <path d="M97.75 8.2 L98.4 8.95 Q100.25 11.4 97.75 13.9 L96.75 14.9 87.15 14.9 86.15 13.9 Q83.3 11.05 86.15 8.2 L89.1 5.25 Q91.95 2.4 94.8 5.25 L97.75 8.2" fill="#443c54" fill-rule="evenodd" stroke="none"/>
    <path d="M32.9 -3.75 L35.85 -0.8 Q38.7 2.05 35.85 4.9 L32.9 7.85 Q30.05 10.7 27.2 7.85 L24.25 4.9 23.85 4.45 Q21.65 1.8 24.25 -0.8 L27.2 -3.75 Q30.05 -6.6 32.9 -3.75 M75.1 2.95 Q77.95 5.8 75.1 8.65 L72.15 11.6 Q69.3 14.45 66.45 11.6 L63.5 8.65 63.1 8.2 Q60.9 5.55 63.5 2.95 L66.45 0.0 Q69.3 -2.85 72.15 0.0 L75.1 2.95 M-66.55 -4.1 L-63.6 -1.15 Q-60.75 1.7 -63.6 4.55 L-66.55 7.5 Q-69.4 10.35 -72.25 7.5 L-75.2 4.55 -75.6 4.1 Q-77.8 1.45 -75.2 -1.15 L-72.25 -4.1 Q-69.4 -6.95 -66.55 -4.1 M-59.75 3.9 Q-56.9 1.05 -54.05 3.9 L-51.1 6.85 Q-49.9 8.05 -49.7 9.25 -52.1 8.35 -54.55 10.8 L-58.75 15.0 -60.25 15.0 -62.7 12.55 -63.1 12.1 Q-65.3 9.45 -62.7 6.85 L-59.75 3.9" fill="#52435c" fill-rule="evenodd" stroke="none"/>
    <path d="M105.65 -4.1 L108.6 -1.15 Q111.45 1.7 108.6 4.55 L105.65 7.5 Q102.8 10.35 99.95 7.5 L97.0 4.55 96.6 4.1 Q94.4 1.45 97.0 -1.15 L99.95 -4.1 Q102.8 -6.95 105.65 -4.1" fill="#4d425a" fill-rule="evenodd" stroke="none"/>
    <path d="M17.35 -7.75 L20.3 -4.8 Q23.15 -1.95 20.3 0.9 L17.35 3.85 Q14.5 6.7 11.65 3.85 L8.7 0.9 8.3 0.45 Q6.1 -2.2 8.7 -4.8 L11.65 -7.75 Q14.5 -10.6 17.35 -7.75 M58.75 -13.8 L59.9 -14.95 69.2 -14.95 70.35 -13.8 Q73.2 -10.95 70.35 -8.1 L67.4 -5.15 Q65.95 -3.7 64.5 -3.7 L64.1 -3.3 61.15 -0.35 Q58.3 2.5 55.45 -0.35 L52.5 -3.3 52.1 -3.75 Q49.9 -6.4 52.5 -9.0 L55.45 -11.95 Q56.9 -13.4 58.35 -13.35 L58.75 -13.8 M-84.55 -3.75 L-81.6 -0.8 Q-78.75 2.05 -81.6 4.9 L-84.55 7.85 Q-87.4 10.7 -90.25 7.85 L-93.2 4.9 -93.6 4.45 Q-95.8 1.8 -93.2 -0.8 L-90.25 -3.75 Q-87.4 -6.6 -84.55 -3.75" fill="#43364f" fill-rule="evenodd" stroke="none"/>
    <path d="M-122.1 -2.35 Q-124.3 -5.0 -121.7 -7.6 L-118.75 -10.55 Q-115.9 -13.4 -113.05 -10.55 L-110.1 -7.6 Q-107.25 -4.75 -110.1 -1.9 L-113.05 1.05 Q-115.9 3.9 -118.75 1.05 L-121.7 -1.9 -122.1 -2.35 M-136.0 -2.95 Q-133.5 -4.75 -131.05 -2.3 L-128.1 0.65 Q-125.25 3.5 -128.1 6.35 L-131.05 9.3 Q-133.5 11.8 -136.0 9.95 L-136.0 -2.95 M-6.6 6.7 L-3.65 9.65 Q-0.95 12.35 -3.3 15.0 L-3.35 15.05 -15.5 15.05 -15.55 15.0 -15.65 14.9 Q-17.85 12.25 -15.25 9.65 L-12.3 6.7 Q-9.45 3.85 -6.6 6.7 M-73.6 12.45 Q-72.3 13.75 -72.15 15.0 L-72.15 15.05 -86.6 15.05 -86.6 15.0 Q-86.45 13.75 -85.2 12.45 L-82.25 9.5 Q-79.4 6.65 -76.55 9.5 L-73.6 12.45" fill="#443f56" fill-rule="evenodd" stroke="none"/>
    <path d="M132.4 -15.0 L133.55 -13.85 Q136.4 -11.0 133.55 -8.15 L130.6 -5.2 Q127.75 -2.35 124.9 -5.2 L121.95 -8.15 121.55 -8.6 Q119.35 -11.25 121.95 -13.85 L123.1 -15.0 132.4 -15.0 M-66.2 -13.8 L-65.05 -14.95 -55.75 -14.95 -54.6 -13.8 Q-51.75 -10.95 -54.6 -8.1 L-57.55 -5.15 Q-60.4 -2.3 -63.25 -5.15 L-66.2 -8.1 -66.6 -8.55 Q-68.8 -11.2 -66.2 -13.8" fill="#494159" fill-rule="evenodd" stroke="none"/>
    <path d="M114.9 6.7 L117.85 9.65 Q120.55 12.35 118.2 15.0 L118.15 15.05 106.0 15.05 105.95 15.0 105.85 14.9 Q103.65 12.25 106.25 9.65 L109.2 6.7 Q112.05 3.85 114.9 6.7" fill="#443d54" fill-rule="evenodd" stroke="none"/>
    <path d="M24.7 -11.25 L22.85 -7.4 -2.0 -7.4 -3.05 -10.3 -3.9 -7.4 -6.95 -7.4 -8.3 -11.25 -11.0 -7.4 -15.95 -7.4 -17.3 -11.25 -19.15 -7.4 -23.0 -7.4 -24.9 -7.4 -27.95 -7.4 -32.0 -7.4 -36.95 -7.4 -38.3 -11.25 -40.15 -7.4 -59.2 -7.4 -100.55 -7.4 -102.45 -7.4 -105.5 -7.4 -106.85 -11.25 -109.55 -7.4 -114.5 -7.4 -115.85 -11.25 -117.7 -7.4 -136.2 -7.4 Q-137.75 -7.45 -138.85 -8.55 L-139.05 -8.75 Q-139.95 -9.8 -140.0 -11.2 L-140.0 -11.45 Q-139.95 -13.0 -138.85 -14.1 -137.75 -15.2 -136.2 -15.25 L135.95 -15.25 Q137.5 -15.2 138.6 -14.1 139.7 -13.0 139.75 -11.45 L139.75 -11.2 Q139.7 -9.8 138.8 -8.75 L138.6 -8.55 Q137.5 -7.45 135.95 -7.4 L116.9 -7.4 115.05 -11.25 113.7 -7.4 108.75 -7.4 106.05 -11.25 104.7 -7.4 101.65 -7.4 100.8 -10.3 99.75 -7.4 95.9 -7.4 94.05 -11.25 92.7 -7.4 87.75 -7.4 85.05 -11.25 83.7 -7.4 80.65 -7.4 79.8 -10.3 78.75 -7.4 72.4 -7.4 72.3 -7.4 71.7 -7.4 71.55 -7.4 53.9 -7.4 52.05 -11.25 50.7 -7.4 45.75 -7.4 43.05 -11.25 41.7 -7.4 40.0 -7.4 38.95 -10.3 38.4 -8.35 37.8 -10.3 36.75 -7.4 35.05 -7.4 33.7 -11.25 31.0 -7.4 26.05 -7.4 24.7 -11.25" fill="#403342" fill-rule="evenodd" stroke="none"/>
  </g>
  <defs>
    <linearGradient gradientTransform="matrix(0.0, 0.0178, -0.0672, 0.0, -85.0, 0.3)" gradientUnits="userSpaceOnUse" id="gradient0" spreadMethod="pad" x1="-819.2" x2="819.2">
      <stop offset="0.0" stop-color="#43354e"/>
      <stop offset="0.6392156862745098" stop-color="#454158"/>
      <stop offset="1.0" stop-color="#5f4661"/>
    </linearGradient>
  </defs>
</svg>
