<?xml version="1.0" encoding="UTF-8" standalone="no"?>
<svg xmlns:ffdec="https://www.free-decompiler.com/flash" xmlns:xlink="http://www.w3.org/1999/xlink" ffdec:objectType="shape" height="622.55px" width="1215.4px" xmlns="http://www.w3.org/2000/svg">
  <g transform="matrix(1.0, 0.0, 0.0, 1.0, 607.7, 289.35)">
    <path d="M181.4 -289.35 L181.4 -259.85 -181.55 -259.85 -181.55 -289.35 181.4 -289.35 M184.05 -124.55 L184.05 -86.25 98.95 -86.25 98.95 -124.55 184.05 -124.55 M318.8 -41.05 L605.45 -41.05 605.45 -3.6 318.8 -3.6 318.8 -41.05 M316.1 -206.95 L425.1 -206.95 425.1 -168.65 316.1 -168.65 316.1 -206.95 M-182.25 41.25 L182.1 41.25 182.1 78.7 -182.25 78.7 -182.25 41.25 M-607.45 -41.05 L-320.8 -41.05 -320.8 -3.6 -607.45 -3.6 -607.45 -41.05 M-427.6 -207.0 L-317.6 -207.0 -317.6 -168.7 -427.6 -168.7 -427.6 -207.0 M-184.15 -124.6 L-98.65 -124.6 -98.65 -86.3 -184.15 -86.3 -184.15 -124.6" fill="#ef6421" fill-opacity="0.0" fill-rule="evenodd" stroke="none"/>
    <path d="M-607.7 124.25 L607.7 124.25 607.7 333.2 -607.7 333.2 -607.7 124.25" fill="#ef6421" fill-opacity="0.0" fill-rule="evenodd" stroke="none"/>
  </g>
</svg>
