<?xml version="1.0" encoding="UTF-8" standalone="no"?>
<svg xmlns:ffdec="https://www.free-decompiler.com/flash" xmlns:xlink="http://www.w3.org/1999/xlink" ffdec:objectType="shape" height="40.0px" width="32.7px" xmlns="http://www.w3.org/2000/svg">
  <g transform="matrix(1.0, 0.0, 0.0, 1.0, 15.25, 20.0)">
    <path d="M11.45 -18.85 Q12.05 -19.6 13.05 -19.9 14.45 -20.2 15.7 -19.5 L15.75 -19.45 Q17.0 -18.75 17.35 -17.4 17.7 -16.0 17.0 -14.7 L16.2 -13.35 14.75 -11.0 13.8 -13.0 15.25 -15.15 15.3 -15.2 Q15.6 -15.8 15.4 -16.5 15.2 -17.15 14.6 -17.55 L13.25 -17.75 13.15 -17.7 Q12.5 -17.5 12.25 -16.9 L11.45 -15.45 9.95 -16.3 11.45 -18.85 M-12.5 13.05 L-12.8 12.75 Q-13.75 11.8 -13.75 10.45 L-13.75 -2.65 Q-13.75 -4.0 -12.8 -4.95 L-12.5 -5.2 -12.5 3.25 -12.45 3.6 -12.5 3.6 -12.5 13.05 M-12.35 -11.6 L-13.85 -15.15 Q-14.4 -16.5 -13.8 -17.85 -13.35 -19.15 -11.95 -19.65 L-9.25 -19.75 Q-8.35 -19.35 -7.8 -18.5 L-7.45 -17.8 -6.65 -15.75 -8.3 -15.1 -8.85 -16.65 -9.3 -17.35 -9.75 -17.65 Q-10.4 -17.95 -11.1 -17.65 L-12.0 -16.75 Q-12.3 -16.0 -12.05 -15.35 L-10.95 -13.0 -11.75 -11.7 -12.2 -11.15 -12.35 -11.6" fill="url(#gradient0)" fill-rule="evenodd" stroke="none"/>
    <path d="M11.45 -15.45 L12.25 -16.9 Q12.5 -17.5 13.15 -17.7 L13.25 -17.75 14.6 -17.55 Q15.2 -17.15 15.4 -16.5 15.6 -15.8 15.3 -15.2 L15.25 -15.15 13.8 -13.0 Q12.9 -14.5 11.45 -15.45 M-8.3 -15.1 Q-9.85 -14.4 -10.95 -13.0 L-12.05 -15.35 Q-12.3 -16.0 -12.0 -16.75 L-11.1 -17.65 Q-10.4 -17.95 -9.75 -17.65 L-9.3 -17.35 -8.85 -16.65 -8.3 -15.1" fill="#e34a48" fill-rule="evenodd" stroke="none"/>
    <path d="M11.45 -18.85 L9.95 -16.3 11.45 -15.45 Q12.9 -14.5 13.8 -13.0 L14.75 -11.0 16.2 -13.35 Q16.75 -11.8 16.75 -10.0 L16.75 -2.7 Q16.7 -4.05 15.8 -4.95 14.85 -5.9 13.5 -5.9 12.15 -5.9 11.2 -4.95 10.25 -4.0 10.25 -2.65 L10.25 3.6 6.9 3.6 6.9 12.75 -2.95 12.7 -4.25 12.65 -5.75 12.4 Q-11.85 11.05 -12.45 4.2 L-12.45 3.6 -12.5 3.25 -12.5 -5.2 -12.5 -10.25 -12.35 -11.6 -12.2 -11.15 -11.75 -11.7 -10.95 -13.0 Q-9.85 -14.4 -8.3 -15.1 L-6.65 -15.75 -7.45 -17.8 -7.8 -18.5 Q-5.45 -20.0 -2.5 -20.0 L6.75 -20.0 Q9.35 -20.0 11.45 -18.85 M5.95 -9.0 L5.7 -9.2 4.85 -9.45 4.0 -9.2 3.75 -9.0 Q3.3 -8.55 3.3 -7.9 3.3 -7.25 3.75 -6.8 4.2 -6.35 4.85 -6.35 5.5 -6.35 5.95 -6.8 6.4 -7.25 6.4 -7.9 6.4 -8.55 5.95 -9.0 M-6.85 1.6 L-6.7 1.75 Q-5.2 3.25 -3.15 3.25 L-1.3 3.25 Q0.75 3.25 2.2 1.75 3.7 0.3 3.7 -1.75 L3.7 -2.65 Q3.7 -4.7 2.2 -6.2 1.15 -7.25 -0.15 -7.5 L-1.5 -7.7 -3.25 -7.7 Q-4.7 -7.7 -5.8 -7.0 L-5.65 -7.0 -6.7 -6.2 -7.25 -5.55 Q-8.15 -4.25 -8.15 -2.65 L-8.15 -1.75 Q-8.15 -0.65 -7.7 0.3 L-7.35 0.95 -7.4 1.1 -7.3 1.45 -7.0 1.6 -6.85 1.6 M-9.55 -9.0 L-10.0 -7.9 -9.55 -6.8 Q-9.1 -6.35 -8.45 -6.35 -7.8 -6.35 -7.35 -6.8 -6.9 -7.25 -6.9 -7.9 -6.9 -8.55 -7.35 -9.0 L-7.45 -9.1 -8.45 -9.45 Q-9.0 -9.45 -9.45 -9.1 L-9.55 -9.0" fill="url(#gradient1)" fill-rule="evenodd" stroke="none"/>
    <path d="M5.95 -9.0 Q6.4 -8.55 6.4 -7.9 6.4 -7.25 5.95 -6.8 5.5 -6.35 4.85 -6.35 4.2 -6.35 3.75 -6.8 3.3 -7.25 3.3 -7.9 3.3 -8.55 3.75 -9.0 L4.0 -9.2 4.85 -9.45 5.7 -9.2 5.95 -9.0 M-7.35 0.95 L-7.25 0.75 -7.2 0.75 -6.9 0.7 Q-5.55 0.8 -5.05 0.25 -4.75 -0.25 -4.6 -0.9 L-5.25 -1.45 -6.7 -3.9 -6.85 -4.85 Q-6.8 -5.35 -6.4 -5.65 -6.05 -6.0 -5.55 -6.0 L-2.65 -6.0 Q-2.15 -6.0 -1.8 -5.65 L-1.3 -4.85 -1.45 -3.95 -2.9 -1.5 -3.5 -0.95 -2.85 0.15 Q-2.05 0.85 0.05 0.6 L0.35 0.7 0.55 1.0 0.45 1.3 0.2 1.5 Q-2.5 1.85 -3.5 0.75 L-4.0 0.15 -4.3 0.7 Q-4.95 1.65 -6.55 1.6 L-6.85 1.6 -7.0 1.6 -7.3 1.45 -7.4 1.1 -7.35 0.95 M-9.55 -9.0 L-9.45 -9.1 Q-9.0 -9.45 -8.45 -9.45 L-7.45 -9.1 -7.35 -9.0 Q-6.9 -8.55 -6.9 -7.9 -6.9 -7.25 -7.35 -6.8 -7.8 -6.35 -8.45 -6.35 -9.1 -6.35 -9.55 -6.8 L-10.0 -7.9 -9.55 -9.0" fill="#511a38" fill-rule="evenodd" stroke="none"/>
    <path d="M-7.35 0.95 L-7.7 0.3 Q-8.15 -0.65 -8.15 -1.75 L-8.15 -2.65 Q-8.15 -4.25 -7.25 -5.55 L-6.7 -6.2 -5.65 -7.0 -5.8 -7.0 Q-4.7 -7.7 -3.25 -7.7 L-1.5 -7.7 -0.15 -7.5 Q1.15 -7.25 2.2 -6.2 3.7 -4.7 3.7 -2.65 L3.7 -1.75 Q3.7 0.3 2.2 1.75 0.75 3.25 -1.3 3.25 L-3.15 3.25 Q-5.2 3.25 -6.7 1.75 L-6.85 1.6 -6.55 1.6 Q-4.95 1.65 -4.3 0.7 L-4.0 0.15 -3.5 0.75 Q-2.5 1.85 0.2 1.5 L0.45 1.3 0.55 1.0 0.35 0.7 0.05 0.6 Q-2.05 0.85 -2.85 0.15 L-3.5 -0.95 -2.9 -1.5 -1.45 -3.95 -1.3 -4.85 -1.8 -5.65 Q-2.15 -6.0 -2.65 -6.0 L-5.55 -6.0 Q-6.05 -6.0 -6.4 -5.65 -6.8 -5.35 -6.85 -4.85 L-6.7 -3.9 -5.25 -1.45 -4.6 -0.9 Q-4.75 -0.25 -5.05 0.25 -5.55 0.8 -6.9 0.7 L-7.2 0.75 -7.25 0.75 -7.35 0.95" fill="#f67065" fill-rule="evenodd" stroke="none"/>
    <path d="M16.75 -2.7 L16.75 10.55 Q16.7 11.85 15.8 12.75 14.85 13.7 13.5 13.7 12.15 13.7 11.2 12.75 10.25 11.8 10.25 10.45 L10.25 3.6 10.25 -2.65 Q10.25 -4.0 11.2 -4.95 12.15 -5.9 13.5 -5.9 14.85 -5.9 15.8 -4.95 16.7 -4.05 16.75 -2.7" fill="url(#gradient2)" fill-rule="evenodd" stroke="none"/>
    <path d="M16.75 10.55 L16.75 20.0 4.1 20.0 6.9 18.6 6.9 12.75 6.9 3.6 10.25 3.6 10.25 10.45 Q10.25 11.8 11.2 12.75 12.15 13.7 13.5 13.7 14.85 13.7 15.8 12.75 16.7 11.85 16.75 10.55" fill="url(#gradient3)" fill-rule="evenodd" stroke="none"/>
    <path d="M-2.95 12.7 L-2.95 20.0 -15.25 20.0 -12.5 18.6 -12.5 13.05 -12.5 3.6 -12.45 3.6 -12.45 4.2 Q-11.85 11.05 -5.75 12.4 L-4.25 12.65 -2.95 12.7" fill="url(#gradient4)" fill-rule="evenodd" stroke="none"/>
  </g>
  <defs>
    <linearGradient gradientTransform="matrix(0.0, 0.0067, -0.004, 0.0, -10.5, 2.2)" gradientUnits="userSpaceOnUse" id="gradient0" spreadMethod="pad" x1="-819.2" x2="819.2">
      <stop offset="0.0" stop-color="#ac3d4f"/>
      <stop offset="0.7372549019607844" stop-color="#76334e"/>
    </linearGradient>
    <linearGradient gradientTransform="matrix(0.0, 0.0187, -0.0179, 0.0, 2.15, -3.45)" gradientUnits="userSpaceOnUse" id="gradient1" spreadMethod="pad" x1="-819.2" x2="819.2">
      <stop offset="0.0" stop-color="#f15341"/>
      <stop offset="0.2823529411764706" stop-color="#d04050"/>
      <stop offset="0.8666666666666667" stop-color="#92474f"/>
    </linearGradient>
    <linearGradient gradientTransform="matrix(0.0, 0.007, -0.004, 0.0, 13.5, 1.95)" gradientUnits="userSpaceOnUse" id="gradient2" spreadMethod="pad" x1="-819.2" x2="819.2">
      <stop offset="0.0" stop-color="#c54150"/>
      <stop offset="0.7333333333333333" stop-color="#ec5044"/>
    </linearGradient>
    <linearGradient gradientTransform="matrix(0.0, 0.0085, -0.0077, 0.0, 10.45, 11.7)" gradientUnits="userSpaceOnUse" id="gradient3" spreadMethod="pad" x1="-819.2" x2="819.2">
      <stop offset="0.5254901960784314" stop-color="#a5444f"/>
      <stop offset="1.0" stop-color="#7c384b"/>
    </linearGradient>
    <linearGradient gradientTransform="matrix(0.0, 0.0067, -0.0075, 0.0, -9.1, 13.15)" gradientUnits="userSpaceOnUse" id="gradient4" spreadMethod="pad" x1="-819.2" x2="819.2">
      <stop offset="0.0" stop-color="#9c414e"/>
      <stop offset="0.5215686274509804" stop-color="#79374b"/>
    </linearGradient>
  </defs>
</svg>
