<?xml version="1.0" encoding="UTF-8" standalone="no"?>
<svg xmlns:ffdec="https://www.free-decompiler.com/flash" xmlns:xlink="http://www.w3.org/1999/xlink" ffdec:objectType="shape" height="40.3px" width="32.7px" xmlns="http://www.w3.org/2000/svg">
  <g transform="matrix(1.0, 0.0, 0.0, 1.0, 15.25, 20.3)">
    <path d="M11.3 -18.95 Q11.9 -19.85 13.05 -20.2 14.45 -20.5 15.7 -19.8 L15.75 -19.75 Q17.0 -19.05 17.35 -17.7 17.7 -16.3 17.0 -15.0 L16.15 -13.55 14.75 -11.3 13.8 -13.3 15.25 -15.45 Q15.6 -16.05 15.4 -16.8 15.2 -17.45 14.6 -17.85 L13.25 -18.05 12.9 -17.9 12.25 -17.2 11.45 -15.75 9.95 -16.6 11.3 -18.95 M-12.35 -11.8 L-13.85 -15.45 Q-14.4 -16.8 -13.8 -18.15 -13.35 -19.45 -11.95 -19.95 L-9.25 -20.05 Q-8.2 -19.55 -7.65 -18.6 L-6.65 -16.05 -8.3 -15.4 -8.85 -16.95 -9.15 -17.5 -9.75 -17.95 Q-10.4 -18.25 -11.1 -17.95 L-12.0 -17.05 Q-12.3 -16.3 -12.05 -15.65 L-10.95 -13.3 -11.75 -12.0 -12.2 -11.45 -12.35 -11.8" fill="url(#gradient0)" fill-rule="evenodd" stroke="none"/>
    <path d="M11.45 -15.75 L12.25 -17.2 12.9 -17.9 13.25 -18.05 14.6 -17.85 Q15.2 -17.45 15.4 -16.8 15.6 -16.05 15.25 -15.45 L13.8 -13.3 Q12.9 -14.8 11.45 -15.75 M-8.3 -15.4 Q-9.85 -14.7 -10.95 -13.3 L-12.05 -15.65 Q-12.3 -16.3 -12.0 -17.05 L-11.1 -17.95 Q-10.4 -18.25 -9.75 -17.95 L-9.15 -17.5 -8.85 -16.95 -8.3 -15.4" fill="#e34a48" fill-rule="evenodd" stroke="none"/>
    <path d="M11.3 -18.95 L9.95 -16.6 11.45 -15.75 Q12.9 -14.8 13.8 -13.3 L14.75 -11.3 16.15 -13.55 Q16.75 -11.9 16.75 -10.0 L16.75 -2.7 Q16.7 -4.05 15.8 -4.95 14.85 -5.9 13.5 -5.9 12.15 -5.9 11.2 -4.95 10.25 -4.0 10.25 -2.65 L10.25 3.6 6.9 3.6 6.9 12.75 0.35 12.75 -0.05 12.7 -0.05 2.6 Q1.2 2.25 2.2 1.25 3.7 -0.2 3.7 -2.25 L3.7 -3.15 Q3.7 -5.2 2.2 -6.7 1.2 -7.7 -0.05 -7.95 L-0.05 -20.0 6.75 -20.0 Q9.25 -20.0 11.3 -18.95 M5.95 -7.5 Q6.4 -7.95 6.4 -8.6 6.4 -9.25 5.95 -9.7 L5.7 -9.9 4.85 -10.15 4.0 -9.9 3.75 -9.7 Q3.3 -9.25 3.3 -8.6 3.3 -7.95 3.75 -7.5 4.2 -7.05 4.85 -7.05 5.5 -7.05 5.95 -7.5" fill="url(#gradient1)" fill-rule="evenodd" stroke="none"/>
    <path d="M5.95 -7.5 Q5.5 -7.05 4.85 -7.05 4.2 -7.05 3.75 -7.5 3.3 -7.95 3.3 -8.6 3.3 -9.25 3.75 -9.7 L4.0 -9.9 4.85 -10.15 5.7 -9.9 5.95 -9.7 Q6.4 -9.25 6.4 -8.6 6.4 -7.95 5.95 -7.5 M0.05 -0.5 L0.35 -0.4 0.55 -0.1 0.45 0.2 0.2 0.4 Q-2.5 0.75 -3.5 -0.35 L-4.0 -0.95 -4.3 -0.4 Q-4.95 0.55 -6.55 0.5 L-7.0 0.5 -7.3 0.35 -7.4 0.0 -7.25 -0.35 -7.2 -0.35 -6.9 -0.4 Q-5.55 -0.3 -5.05 -0.85 -4.75 -1.35 -4.6 -2.0 L-5.25 -2.55 -6.7 -5.0 -6.85 -5.95 Q-6.8 -6.45 -6.4 -6.75 -6.05 -7.1 -5.55 -7.1 L-2.65 -7.1 Q-2.15 -7.1 -1.8 -6.75 L-1.3 -5.95 -1.45 -5.05 -2.9 -2.6 -3.5 -2.05 -2.85 -0.95 Q-2.05 -0.25 0.05 -0.5 M-7.35 -9.7 Q-6.9 -9.25 -6.9 -8.6 -6.9 -7.95 -7.35 -7.5 -7.8 -7.05 -8.45 -7.05 -9.1 -7.05 -9.55 -7.5 L-10.0 -8.6 -9.55 -9.7 -9.45 -9.8 Q-9.0 -10.15 -8.45 -10.15 L-7.45 -9.8 -7.35 -9.7" fill="#511a38" fill-rule="evenodd" stroke="none"/>
    <path d="M-0.05 -7.95 Q1.2 -7.7 2.2 -6.7 3.7 -5.2 3.7 -3.15 L3.7 -2.25 Q3.7 -0.2 2.2 1.25 1.2 2.25 -0.05 2.6 L-1.3 2.75 -3.15 2.75 Q-5.2 2.75 -6.7 1.25 L-7.6 0.0 -7.7 -0.2 Q-8.15 -1.15 -8.15 -2.25 L-8.15 -3.15 Q-8.15 -4.75 -7.25 -6.05 L-6.7 -6.7 -5.65 -7.5 -5.8 -7.5 Q-4.7 -8.2 -3.25 -8.2 L-1.5 -8.2 -0.15 -8.0 -0.05 -7.95 M0.05 -0.5 Q-2.05 -0.25 -2.85 -0.95 L-3.5 -2.05 -2.9 -2.6 -1.45 -5.05 -1.3 -5.95 -1.8 -6.75 Q-2.15 -7.1 -2.65 -7.1 L-5.55 -7.1 Q-6.05 -7.1 -6.4 -6.75 -6.8 -6.45 -6.85 -5.95 L-6.7 -5.0 -5.25 -2.55 -4.6 -2.0 Q-4.75 -1.35 -5.05 -0.85 -5.55 -0.3 -6.9 -0.4 L-7.2 -0.35 -7.25 -0.35 -7.4 0.0 -7.3 0.35 -7.0 0.5 -6.55 0.5 Q-4.95 0.55 -4.3 -0.4 L-4.0 -0.95 -3.5 -0.35 Q-2.5 0.75 0.2 0.4 L0.45 0.2 0.55 -0.1 0.35 -0.4 0.05 -0.5" fill="#f67065" fill-rule="evenodd" stroke="none"/>
    <path d="M16.75 -2.7 L16.75 10.55 Q16.7 11.85 15.8 12.75 14.85 13.7 13.5 13.7 12.15 13.7 11.2 12.75 10.25 11.8 10.25 10.45 L10.25 3.6 10.25 -2.65 Q10.25 -4.0 11.2 -4.95 12.15 -5.9 13.5 -5.9 14.85 -5.9 15.8 -4.95 16.7 -4.05 16.75 -2.7" fill="url(#gradient2)" fill-rule="evenodd" stroke="none"/>
    <path d="M16.75 10.55 L16.75 20.0 4.1 20.0 6.9 18.6 6.9 12.75 6.9 3.6 10.25 3.6 10.25 10.45 Q10.25 11.8 11.2 12.75 12.15 13.7 13.5 13.7 14.85 13.7 15.8 12.75 16.7 11.85 16.75 10.55" fill="url(#gradient3)" fill-rule="evenodd" stroke="none"/>
    <path d="M0.35 12.75 L-2.95 12.7 -5.35 12.6 -6.45 12.45 -6.55 12.4 -6.6 12.4 -6.7 12.35 Q-9.0 11.65 -10.85 9.8 L-11.65 8.9 -12.45 7.7 -12.5 7.65 Q-13.3 6.2 -13.6 4.6 L-13.75 3.0 -13.75 1.2 -13.4 -1.05 -13.4 -1.1 -13.35 -1.25 -13.3 -1.35 -12.5 -5.15 -12.5 -5.2 -12.5 -10.25 -12.35 -11.8 -12.2 -11.45 -11.75 -12.0 -10.95 -13.3 Q-9.85 -14.7 -8.3 -15.4 L-6.65 -16.05 -7.65 -18.6 Q-5.5 -19.95 -2.8 -20.0 L-0.05 -20.0 -0.05 -7.95 -0.15 -8.0 -1.5 -8.2 -3.25 -8.2 Q-4.7 -8.2 -5.8 -7.5 L-5.65 -7.5 -6.7 -6.7 -7.25 -6.05 Q-8.15 -4.75 -8.15 -3.15 L-8.15 -2.25 Q-8.15 -1.15 -7.7 -0.2 L-7.6 0.0 -6.7 1.25 Q-5.2 2.75 -3.15 2.75 L-1.3 2.75 -0.05 2.6 -0.05 12.7 0.35 12.75 M-7.35 -9.7 L-7.45 -9.8 -8.45 -10.15 Q-9.0 -10.15 -9.45 -9.8 L-9.55 -9.7 -10.0 -8.6 -9.55 -7.5 Q-9.1 -7.05 -8.45 -7.05 -7.8 -7.05 -7.35 -7.5 -6.9 -7.95 -6.9 -8.6 -6.9 -9.25 -7.35 -9.7" fill="url(#gradient4)" fill-rule="evenodd" stroke="none"/>
    <path d="M-12.5 13.05 L-12.8 12.75 Q-13.75 11.8 -13.75 10.45 L-13.75 3.0 -13.6 4.6 Q-13.3 6.2 -12.5 7.65 L-12.5 13.05 M-13.75 1.2 L-13.75 -2.65 Q-13.75 -4.0 -12.8 -4.95 L-12.5 -5.2 -12.5 -5.15 -13.3 -1.35 -13.35 -1.25 -13.4 -1.1 -13.4 -1.05 -13.75 1.2" fill="url(#gradient5)" fill-rule="evenodd" stroke="none"/>
    <path d="M-2.95 12.7 L-2.95 20.0 -15.25 20.0 -12.5 18.6 -12.5 13.05 -12.5 7.65 -12.45 7.7 -11.65 8.9 -10.85 9.8 Q-9.0 11.65 -6.7 12.35 L-6.6 12.4 -6.55 12.4 -6.45 12.45 -5.35 12.6 -2.95 12.7" fill="url(#gradient6)" fill-rule="evenodd" stroke="none"/>
  </g>
  <defs>
    <linearGradient gradientTransform="matrix(0.0, 0.0067, -0.004, 0.0, -10.5, 1.9)" gradientUnits="userSpaceOnUse" id="gradient0" spreadMethod="pad" x1="-819.2" x2="819.2">
      <stop offset="0.0" stop-color="#ac3d4f"/>
      <stop offset="0.7372549019607844" stop-color="#76334e"/>
    </linearGradient>
    <linearGradient gradientTransform="matrix(0.0, 0.0187, -0.0179, 0.0, 2.15, -3.45)" gradientUnits="userSpaceOnUse" id="gradient1" spreadMethod="pad" x1="-819.2" x2="819.2">
      <stop offset="0.0" stop-color="#f15341"/>
      <stop offset="0.2823529411764706" stop-color="#d04050"/>
      <stop offset="0.8666666666666667" stop-color="#92474f"/>
    </linearGradient>
    <linearGradient gradientTransform="matrix(0.0, 0.007, -0.004, 0.0, 13.5, 1.95)" gradientUnits="userSpaceOnUse" id="gradient2" spreadMethod="pad" x1="-819.2" x2="819.2">
      <stop offset="0.0" stop-color="#c54150"/>
      <stop offset="0.7333333333333333" stop-color="#ec5044"/>
    </linearGradient>
    <linearGradient gradientTransform="matrix(0.0, 0.0085, -0.0077, 0.0, 10.45, 11.7)" gradientUnits="userSpaceOnUse" id="gradient3" spreadMethod="pad" x1="-819.2" x2="819.2">
      <stop offset="0.5254901960784314" stop-color="#a5444f"/>
      <stop offset="1.0" stop-color="#7c384b"/>
    </linearGradient>
    <linearGradient gradientTransform="matrix(0.0, 0.0187, -0.0185, 0.0, 1.5, -3.45)" gradientUnits="userSpaceOnUse" id="gradient4" spreadMethod="pad" x1="-819.2" x2="819.2">
      <stop offset="0.0" stop-color="#f15341"/>
      <stop offset="0.2823529411764706" stop-color="#d04050"/>
      <stop offset="0.8666666666666667" stop-color="#92474f"/>
    </linearGradient>
    <linearGradient gradientTransform="matrix(0.0, 0.0067, -0.004, 0.0, -10.5, 2.2)" gradientUnits="userSpaceOnUse" id="gradient5" spreadMethod="pad" x1="-819.2" x2="819.2">
      <stop offset="0.0" stop-color="#ac3d4f"/>
      <stop offset="0.7372549019607844" stop-color="#76334e"/>
    </linearGradient>
    <linearGradient gradientTransform="matrix(0.0, 0.0067, -0.0075, 0.0, -9.1, 13.15)" gradientUnits="userSpaceOnUse" id="gradient6" spreadMethod="pad" x1="-819.2" x2="819.2">
      <stop offset="0.0" stop-color="#9c414e"/>
      <stop offset="0.5215686274509804" stop-color="#79374b"/>
    </linearGradient>
  </defs>
</svg>
