<?xml version="1.0" encoding="UTF-8" standalone="no"?>
<svg xmlns:ffdec="https://www.free-decompiler.com/flash" xmlns:xlink="http://www.w3.org/1999/xlink" ffdec:objectType="shape" height="40.9px" width="32.85px" xmlns="http://www.w3.org/2000/svg">
  <g transform="matrix(1.0, 0.0, 0.0, 1.0, 15.25, 20.9)">
    <path d="M11.05 -19.05 L11.05 -19.15 Q11.65 -20.4 13.05 -20.8 14.45 -21.1 15.7 -20.4 L15.75 -20.35 Q17.0 -19.65 17.35 -18.3 17.7 -16.9 17.0 -15.6 L16.0 -13.9 14.75 -11.9 13.8 -13.9 15.25 -16.05 Q15.6 -16.65 15.4 -17.4 15.2 -18.05 14.6 -18.45 L13.25 -18.65 12.5 -18.2 11.45 -16.35 9.95 -17.2 11.05 -19.05" fill="url(#gradient0)" fill-rule="evenodd" stroke="none"/>
    <path d="M11.45 -16.35 L12.5 -18.2 13.25 -18.65 14.6 -18.45 Q15.2 -18.05 15.4 -17.4 15.6 -16.65 15.25 -16.05 L13.8 -13.9 Q12.9 -15.4 11.45 -16.35 M-10.95 -13.5 L-12.05 -15.85 Q-12.3 -16.5 -12.0 -17.25 L-11.1 -18.15 Q-10.4 -18.45 -9.75 -18.15 L-9.05 -17.6 -8.3 -15.6 Q-9.85 -14.9 -10.95 -13.5" fill="#e34a48" fill-rule="evenodd" stroke="none"/>
    <path d="M11.05 -19.05 L9.95 -17.2 11.45 -16.35 Q12.9 -15.4 13.8 -13.9 L14.75 -11.9 16.0 -13.9 Q16.75 -12.1 16.75 -10.0 L16.75 -4.15 Q16.55 -5.05 15.85 -5.7 14.85 -6.6 13.5 -6.5 12.15 -6.45 11.25 -5.4 10.35 -4.4 10.4 -3.05 L10.8 3.6 6.9 3.6 6.9 12.75 0.35 12.75 -0.05 12.7 -0.05 2.2 Q1.2 1.85 2.2 0.85 3.7 -0.6 3.7 -2.65 L3.7 -3.55 Q3.7 -5.6 2.2 -7.1 1.2 -8.1 -0.05 -8.35 L-0.05 -20.0 6.75 -20.0 Q9.1 -20.0 11.05 -19.05 M5.95 -7.9 Q6.4 -8.35 6.4 -9.0 6.4 -9.65 5.95 -10.1 L5.7 -10.3 4.85 -10.55 4.0 -10.3 3.75 -10.1 Q3.3 -9.65 3.3 -9.0 3.3 -8.35 3.75 -7.9 4.2 -7.45 4.85 -7.45 5.5 -7.45 5.95 -7.9" fill="url(#gradient1)" fill-rule="evenodd" stroke="none"/>
    <path d="M5.95 -7.9 Q5.5 -7.45 4.85 -7.45 4.2 -7.45 3.75 -7.9 3.3 -8.35 3.3 -9.0 3.3 -9.65 3.75 -10.1 L4.0 -10.3 4.85 -10.55 5.7 -10.3 5.95 -10.1 Q6.4 -9.65 6.4 -9.0 6.4 -8.35 5.95 -7.9 M-5.9 -7.75 L-5.55 -7.8 -2.65 -7.8 Q-2.15 -7.8 -1.8 -7.45 L-1.3 -6.65 -1.45 -5.75 -2.9 -3.3 -3.5 -2.75 -2.85 -1.65 Q-2.05 -0.95 0.05 -1.2 L0.35 -1.1 0.55 -0.8 0.45 -0.5 0.2 -0.3 Q-2.5 0.05 -3.5 -1.05 L-4.0 -1.65 -4.3 -1.1 Q-4.95 -0.15 -6.55 -0.2 L-7.0 -0.2 Q-7.2 -0.2 -7.3 -0.35 L-7.4 -0.7 -7.25 -1.05 -7.2 -1.05 -6.9 -1.1 Q-5.55 -1.0 -5.05 -1.55 -4.75 -2.05 -4.6 -2.7 L-5.25 -3.25 -6.7 -5.7 -6.85 -6.65 -6.7 -7.05 -6.4 -7.45 -5.9 -7.75 M-7.35 -10.1 Q-6.9 -9.65 -6.9 -9.0 -6.9 -8.35 -7.35 -7.9 -7.8 -7.45 -8.45 -7.45 -9.1 -7.45 -9.55 -7.9 L-10.0 -9.0 -9.55 -10.1 -9.45 -10.2 Q-9.0 -10.55 -8.45 -10.55 L-7.45 -10.2 -7.35 -10.1" fill="#511a38" fill-rule="evenodd" stroke="none"/>
    <path d="M-0.05 -8.35 Q1.2 -8.1 2.2 -7.1 3.7 -5.6 3.7 -3.55 L3.7 -2.65 Q3.7 -0.6 2.2 0.85 1.2 1.85 -0.05 2.2 L-1.3 2.35 -3.15 2.35 Q-5.2 2.35 -6.7 0.85 L-7.6 -0.4 -7.7 -0.6 Q-8.15 -1.55 -8.15 -2.65 L-8.15 -3.55 Q-8.15 -5.15 -7.25 -6.45 L-6.7 -7.05 -6.85 -6.65 -6.7 -5.7 -5.25 -3.25 -4.6 -2.7 Q-4.75 -2.05 -5.05 -1.55 -5.55 -1.0 -6.9 -1.1 L-7.2 -1.05 -7.25 -1.05 -7.4 -0.7 -7.3 -0.35 Q-7.2 -0.2 -7.0 -0.2 L-6.55 -0.2 Q-4.95 -0.15 -4.3 -1.1 L-4.0 -1.65 -3.5 -1.05 Q-2.5 0.05 0.2 -0.3 L0.45 -0.5 0.55 -0.8 0.35 -1.1 0.05 -1.2 Q-2.05 -0.95 -2.85 -1.65 L-3.5 -2.75 -2.9 -3.3 -1.45 -5.75 -1.3 -6.65 -1.8 -7.45 Q-2.15 -7.8 -2.65 -7.8 L-5.55 -7.8 -5.9 -7.75 -5.65 -7.9 -5.8 -7.9 Q-4.7 -8.6 -3.25 -8.6 L-1.5 -8.6 -0.15 -8.4 -0.05 -8.35" fill="#f67065" fill-rule="evenodd" stroke="none"/>
    <path d="M16.75 -4.15 L16.85 -3.45 17.6 9.65 Q17.65 11.0 16.85 12.0 L16.75 12.1 Q15.9 13.0 14.6 13.1 13.25 13.15 12.25 12.3 11.2 11.4 11.15 10.05 L10.8 3.6 10.4 -3.05 Q10.35 -4.4 11.25 -5.4 12.15 -6.45 13.5 -6.5 14.85 -6.6 15.85 -5.7 16.55 -5.05 16.75 -4.15" fill="url(#gradient2)" fill-rule="evenodd" stroke="none"/>
    <path d="M16.75 12.1 L16.75 20.0 4.1 20.0 6.9 18.6 6.9 12.75 6.9 3.6 10.8 3.6 11.15 10.05 Q11.2 11.4 12.25 12.3 13.25 13.15 14.6 13.1 15.9 13.0 16.75 12.1" fill="url(#gradient3)" fill-rule="evenodd" stroke="none"/>
    <path d="M0.35 12.75 L-2.95 12.7 -5.7 12.65 -7.2 12.45 -7.3 12.4 -7.35 12.4 -7.45 12.35 Q-9.75 11.65 -11.6 9.8 L-12.5 8.8 -13.75 6.6 -14.35 4.6 -14.5 1.3 -14.15 -1.1 -13.75 -2.25 -13.45 -2.95 -13.4 -3.0 -13.1 -3.6 -13.1 -3.65 -13.05 -3.75 Q-12.7 -4.55 -12.5 -5.5 L-12.5 -5.8 -12.5 -10.25 -12.3 -11.95 -12.2 -11.65 -11.75 -12.2 -10.95 -13.5 Q-9.85 -14.9 -8.3 -15.6 L-6.65 -16.25 -7.6 -18.65 Q-5.45 -19.95 -2.8 -20.0 L-0.05 -20.0 -0.05 -8.35 -0.15 -8.4 -1.5 -8.6 -3.25 -8.6 Q-4.7 -8.6 -5.8 -7.9 L-5.65 -7.9 -5.9 -7.75 -6.4 -7.45 -6.7 -7.05 -7.25 -6.45 Q-8.15 -5.15 -8.15 -3.55 L-8.15 -2.65 Q-8.15 -1.55 -7.7 -0.6 L-7.6 -0.4 -6.7 0.85 Q-5.2 2.35 -3.15 2.35 L-1.3 2.35 -0.05 2.2 -0.05 12.7 0.35 12.75 M-7.35 -10.1 L-7.45 -10.2 -8.45 -10.55 Q-9.0 -10.55 -9.45 -10.2 L-9.55 -10.1 -10.0 -9.0 -9.55 -7.9 Q-9.1 -7.45 -8.45 -7.45 -7.8 -7.45 -7.35 -7.9 -6.9 -8.35 -6.9 -9.0 -6.9 -9.65 -7.35 -10.1" fill="url(#gradient4)" fill-rule="evenodd" stroke="none"/>
    <path d="M-12.3 -11.95 L-13.85 -15.65 Q-14.4 -17.0 -13.8 -18.35 -13.35 -19.65 -11.95 -20.15 L-9.25 -20.25 Q-8.15 -19.75 -7.6 -18.65 L-6.65 -16.25 -8.3 -15.6 -9.05 -17.6 -9.75 -18.15 Q-10.4 -18.45 -11.1 -18.15 L-12.0 -17.25 Q-12.3 -16.5 -12.05 -15.85 L-10.95 -13.5 -11.75 -12.2 -12.2 -11.65 -12.3 -11.95" fill="url(#gradient5)" fill-rule="evenodd" stroke="none"/>
    <path d="M-12.5 12.45 L-12.8 12.15 Q-13.75 11.2 -13.75 9.85 L-13.75 6.6 -12.5 8.8 -12.5 12.45 M-13.75 -2.25 L-13.75 -3.25 Q-13.75 -4.6 -12.8 -5.55 L-12.5 -5.8 -12.5 -5.5 Q-12.7 -4.55 -13.05 -3.75 L-13.1 -3.65 -13.1 -3.6 -13.4 -3.0 -13.45 -2.95 -13.75 -2.25" fill="url(#gradient6)" fill-rule="evenodd" stroke="none"/>
    <path d="M-2.95 12.7 L-2.95 20.0 -15.25 20.0 -12.5 18.6 -12.5 12.45 -12.5 8.8 -11.6 9.8 Q-9.75 11.65 -7.45 12.35 L-7.35 12.4 -7.3 12.4 -7.2 12.45 -5.7 12.65 -2.95 12.7" fill="url(#gradient7)" fill-rule="evenodd" stroke="none"/>
  </g>
  <defs>
    <linearGradient gradientTransform="matrix(0.0, 0.0067, -0.004, 0.0, -10.5, 1.3)" gradientUnits="userSpaceOnUse" id="gradient0" spreadMethod="pad" x1="-819.2" x2="819.2">
      <stop offset="0.0" stop-color="#ac3d4f"/>
      <stop offset="0.7372549019607844" stop-color="#76334e"/>
    </linearGradient>
    <linearGradient gradientTransform="matrix(0.0, 0.0187, -0.0179, 0.0, 2.15, -3.45)" gradientUnits="userSpaceOnUse" id="gradient1" spreadMethod="pad" x1="-819.2" x2="819.2">
      <stop offset="0.0" stop-color="#f15341"/>
      <stop offset="0.2823529411764706" stop-color="#d04050"/>
      <stop offset="0.8666666666666667" stop-color="#92474f"/>
    </linearGradient>
    <linearGradient gradientTransform="matrix(4.0E-4, 0.0069, -0.004, 2.0E-4, 13.95, 1.35)" gradientUnits="userSpaceOnUse" id="gradient2" spreadMethod="pad" x1="-819.2" x2="819.2">
      <stop offset="0.0" stop-color="#c54150"/>
      <stop offset="0.7333333333333333" stop-color="#ec5044"/>
    </linearGradient>
    <linearGradient gradientTransform="matrix(0.0, 0.0085, -0.0077, 0.0, 10.45, 11.7)" gradientUnits="userSpaceOnUse" id="gradient3" spreadMethod="pad" x1="-819.2" x2="819.2">
      <stop offset="0.5254901960784314" stop-color="#a5444f"/>
      <stop offset="1.0" stop-color="#7c384b"/>
    </linearGradient>
    <linearGradient gradientTransform="matrix(0.0, 0.0187, -0.0185, 0.0, 1.5, -3.45)" gradientUnits="userSpaceOnUse" id="gradient4" spreadMethod="pad" x1="-819.2" x2="819.2">
      <stop offset="0.0" stop-color="#f15341"/>
      <stop offset="0.2823529411764706" stop-color="#d04050"/>
      <stop offset="0.8666666666666667" stop-color="#92474f"/>
    </linearGradient>
    <linearGradient gradientTransform="matrix(0.0, 0.0067, -0.004, 0.0, -10.5, 1.7)" gradientUnits="userSpaceOnUse" id="gradient5" spreadMethod="pad" x1="-819.2" x2="819.2">
      <stop offset="0.0" stop-color="#ac3d4f"/>
      <stop offset="0.7372549019607844" stop-color="#76334e"/>
    </linearGradient>
    <linearGradient gradientTransform="matrix(0.0, 0.0067, -0.004, 0.0, -10.5, 1.6)" gradientUnits="userSpaceOnUse" id="gradient6" spreadMethod="pad" x1="-819.2" x2="819.2">
      <stop offset="0.0" stop-color="#ac3d4f"/>
      <stop offset="0.7372549019607844" stop-color="#76334e"/>
    </linearGradient>
    <linearGradient gradientTransform="matrix(0.0, 0.0067, -0.0075, 0.0, -9.1, 13.15)" gradientUnits="userSpaceOnUse" id="gradient7" spreadMethod="pad" x1="-819.2" x2="819.2">
      <stop offset="0.0" stop-color="#9c414e"/>
      <stop offset="0.5215686274509804" stop-color="#79374b"/>
    </linearGradient>
  </defs>
</svg>
