<?xml version="1.0" encoding="UTF-8" standalone="no"?>
<svg xmlns:ffdec="https://www.free-decompiler.com/flash" xmlns:xlink="http://www.w3.org/1999/xlink" ffdec:objectType="shape" height="41.2px" width="33.7px" xmlns="http://www.w3.org/2000/svg">
  <g transform="matrix(1.0, 0.0, 0.0, 1.0, 15.3, 21.2)">
    <path d="M10.9 -19.15 L11.05 -19.45 Q11.65 -20.7 13.05 -21.1 14.45 -21.4 15.7 -20.7 L15.75 -20.65 Q17.0 -19.95 17.35 -18.6 17.7 -17.2 17.0 -15.9 L15.9 -14.1 14.75 -12.2 13.8 -14.2 15.25 -16.35 Q15.6 -16.95 15.4 -17.7 15.2 -18.35 14.6 -18.75 L13.25 -18.95 Q12.65 -18.8 12.4 -18.3 L12.25 -18.1 11.45 -16.65 9.95 -17.5 10.9 -19.15" fill="url(#gradient0)" fill-rule="evenodd" stroke="none"/>
    <path d="M11.45 -16.65 L12.25 -18.1 12.4 -18.3 Q12.65 -18.8 13.25 -18.95 L14.6 -18.75 Q15.2 -18.35 15.4 -17.7 15.6 -16.95 15.25 -16.35 L13.8 -14.2 Q12.9 -15.7 11.45 -16.65 M-10.95 -13.9 L-12.05 -16.25 Q-12.3 -16.9 -12.0 -17.65 L-11.1 -18.55 Q-10.4 -18.85 -9.75 -18.55 -9.15 -18.3 -8.9 -17.7 L-8.3 -16.0 Q-9.85 -15.3 -10.95 -13.9" fill="#e34a48" fill-rule="evenodd" stroke="none"/>
    <path d="M10.9 -19.15 L9.95 -17.5 11.45 -16.65 Q12.9 -15.7 13.8 -14.2 L14.75 -12.2 15.9 -14.1 Q16.75 -12.2 16.75 -10.0 L16.75 -5.85 16.25 -6.35 Q15.25 -7.25 13.9 -7.15 12.55 -7.0 11.65 -6.0 10.8 -5.0 10.9 -3.65 L11.45 3.6 6.9 3.6 6.9 12.75 0.6 12.75 -0.05 12.7 -0.05 1.6 Q1.2 1.25 2.2 0.25 3.7 -1.2 3.7 -3.25 L3.7 -4.15 Q3.7 -6.2 2.2 -7.7 1.2 -8.7 -0.05 -8.95 L-0.05 -20.0 6.75 -20.0 Q9.0 -20.0 10.9 -19.15 M5.95 -8.0 Q6.4 -8.45 6.4 -9.1 6.4 -9.75 5.95 -10.2 L5.7 -10.4 4.85 -10.65 4.0 -10.4 3.75 -10.2 Q3.3 -9.75 3.3 -9.1 3.3 -8.45 3.75 -8.0 4.2 -7.55 4.85 -7.55 5.5 -7.55 5.95 -8.0" fill="url(#gradient1)" fill-rule="evenodd" stroke="none"/>
    <path d="M5.95 -8.0 Q5.5 -7.55 4.85 -7.55 4.2 -7.55 3.75 -8.0 3.3 -8.45 3.3 -9.1 3.3 -9.75 3.75 -10.2 L4.0 -10.4 4.85 -10.65 5.7 -10.4 5.95 -10.2 Q6.4 -9.75 6.4 -9.1 6.4 -8.45 5.95 -8.0 M-5.65 -8.6 L-2.65 -8.6 Q-2.15 -8.6 -1.8 -8.25 L-1.3 -7.45 -1.45 -6.55 -2.9 -4.1 -3.5 -3.55 -2.85 -2.45 Q-2.05 -1.75 0.05 -2.0 L0.35 -1.9 0.55 -1.6 0.45 -1.3 0.2 -1.1 Q-2.5 -0.75 -3.5 -1.85 L-4.0 -2.45 -4.3 -1.9 Q-4.95 -0.95 -6.55 -1.0 L-7.0 -1.0 Q-7.2 -1.0 -7.3 -1.15 L-7.4 -1.5 -7.25 -1.85 -7.2 -1.85 -6.9 -1.9 Q-5.55 -1.8 -5.05 -2.35 -4.75 -2.85 -4.6 -3.5 L-5.25 -4.05 -6.7 -6.5 -6.85 -7.45 -6.8 -7.55 -6.4 -8.25 -5.65 -8.6 M-7.35 -10.2 Q-6.9 -9.75 -6.9 -9.1 -6.9 -8.45 -7.35 -8.0 -7.8 -7.55 -8.45 -7.55 -9.1 -7.55 -9.55 -8.0 L-10.0 -9.1 -9.55 -10.2 -9.45 -10.3 Q-9.0 -10.65 -8.45 -10.65 L-7.45 -10.3 -7.35 -10.2" fill="#511a38" fill-rule="evenodd" stroke="none"/>
    <path d="M-0.05 -8.95 Q1.2 -8.7 2.2 -7.7 3.7 -6.2 3.7 -4.15 L3.7 -3.25 Q3.7 -1.2 2.2 0.25 1.2 1.25 -0.05 1.6 L-1.3 1.75 -3.15 1.75 Q-5.2 1.75 -6.7 0.25 L-7.6 -1.0 -7.7 -1.2 Q-8.15 -2.15 -8.15 -3.25 L-8.15 -4.15 Q-8.15 -5.75 -7.25 -7.05 L-6.8 -7.55 -6.85 -7.45 -6.7 -6.5 -5.25 -4.05 -4.6 -3.5 Q-4.75 -2.85 -5.05 -2.35 -5.55 -1.8 -6.9 -1.9 L-7.2 -1.85 -7.25 -1.85 -7.4 -1.5 -7.3 -1.15 Q-7.2 -1.0 -7.0 -1.0 L-6.55 -1.0 Q-4.95 -0.95 -4.3 -1.9 L-4.0 -2.45 -3.5 -1.85 Q-2.5 -0.75 0.2 -1.1 L0.45 -1.3 0.55 -1.6 0.35 -1.9 0.05 -2.0 Q-2.05 -1.75 -2.85 -2.45 L-3.5 -3.55 -2.9 -4.1 -1.45 -6.55 -1.3 -7.45 -1.8 -8.25 Q-2.15 -8.6 -2.65 -8.6 L-5.65 -8.6 Q-4.6 -9.2 -3.25 -9.2 L-1.5 -9.2 -0.15 -9.0 -0.05 -8.95" fill="#f67065" fill-rule="evenodd" stroke="none"/>
    <path d="M16.75 -5.85 Q17.35 -5.15 17.4 -4.15 L18.4 8.9 Q18.5 10.25 17.65 11.3 L16.75 12.05 15.4 12.4 Q14.05 12.55 13.05 11.65 12.0 10.75 11.9 9.4 L11.45 3.6 10.9 -3.65 Q10.8 -5.0 11.65 -6.0 12.55 -7.0 13.9 -7.15 15.25 -7.25 16.25 -6.35 L16.75 -5.85" fill="url(#gradient2)" fill-rule="evenodd" stroke="none"/>
    <path d="M16.75 12.05 L16.75 20.0 4.1 20.0 6.9 18.6 6.9 12.75 6.9 3.6 11.45 3.6 11.9 9.4 Q12.0 10.75 13.05 11.65 14.05 12.55 15.4 12.4 L16.75 12.05" fill="url(#gradient3)" fill-rule="evenodd" stroke="none"/>
    <path d="M-12.25 -12.2 L-13.85 -16.05 Q-14.4 -17.4 -13.8 -18.75 -13.35 -20.05 -11.95 -20.55 L-9.25 -20.65 Q-7.95 -20.05 -7.45 -18.7 L-6.65 -16.65 -8.3 -16.0 -8.9 -17.7 Q-9.15 -18.3 -9.75 -18.55 -10.4 -18.85 -11.1 -18.55 L-12.0 -17.65 Q-12.3 -16.9 -12.05 -16.25 L-10.95 -13.9 -11.75 -12.6 -12.2 -12.05 -12.25 -12.2" fill="url(#gradient4)" fill-rule="evenodd" stroke="none"/>
    <path d="M0.6 12.75 L-2.95 12.7 -8.0 12.45 -8.1 12.4 -8.15 12.4 -8.25 12.35 Q-10.55 11.65 -12.4 9.8 L-12.5 9.7 -13.2 8.9 -14.15 7.45 Q-14.9 6.1 -15.15 4.6 L-15.3 1.3 -14.95 -1.1 -14.8 -1.6 -14.15 -3.0 -14.1 -3.05 -13.8 -3.65 -13.8 -3.7 -13.7 -3.8 -12.85 -6.45 -12.4 -11.25 -12.4 -11.45 -12.25 -12.2 -12.2 -12.05 -11.75 -12.6 -10.95 -13.9 Q-9.85 -15.3 -8.3 -16.0 L-6.65 -16.65 -7.45 -18.7 Q-5.35 -19.95 -2.8 -20.0 L-0.05 -20.0 -0.05 -8.95 -0.15 -9.0 -1.5 -9.2 -3.25 -9.2 Q-4.6 -9.2 -5.65 -8.6 L-6.4 -8.25 -6.8 -7.55 -7.25 -7.05 Q-8.15 -5.75 -8.15 -4.15 L-8.15 -3.25 Q-8.15 -2.15 -7.7 -1.2 L-7.6 -1.0 -6.7 0.25 Q-5.2 1.75 -3.15 1.75 L-1.3 1.75 -0.05 1.6 -0.05 12.7 0.6 12.75 M-7.35 -10.2 L-7.45 -10.3 -8.45 -10.65 Q-9.0 -10.65 -9.45 -10.3 L-9.55 -10.2 -10.0 -9.1 -9.55 -8.0 Q-9.1 -7.55 -8.45 -7.55 -7.8 -7.55 -7.35 -8.0 -6.9 -8.45 -6.9 -9.1 -6.9 -9.75 -7.35 -10.2" fill="url(#gradient5)" fill-rule="evenodd" stroke="none"/>
    <path d="M-12.5 12.1 L-13.2 11.55 Q-14.15 10.6 -14.15 9.25 L-14.15 7.45 -13.2 8.9 -12.5 9.7 -12.5 12.1 M-14.15 -3.0 L-14.15 -3.85 Q-14.15 -5.2 -13.2 -6.15 L-12.85 -6.45 -13.7 -3.8 -13.8 -3.7 -13.8 -3.65 -14.1 -3.05 -14.15 -3.0" fill="url(#gradient6)" fill-rule="evenodd" stroke="none"/>
    <path d="M-2.95 12.7 L-2.95 20.0 -15.25 20.0 -12.5 18.6 -12.5 12.1 -12.5 9.7 -12.4 9.8 Q-10.55 11.65 -8.25 12.35 L-8.15 12.4 -8.1 12.4 -8.0 12.45 -2.95 12.7" fill="url(#gradient7)" fill-rule="evenodd" stroke="none"/>
  </g>
  <defs>
    <linearGradient gradientTransform="matrix(0.0, 0.0067, -0.004, 0.0, -10.5, 1.0)" gradientUnits="userSpaceOnUse" id="gradient0" spreadMethod="pad" x1="-819.2" x2="819.2">
      <stop offset="0.0" stop-color="#ac3d4f"/>
      <stop offset="0.7372549019607844" stop-color="#76334e"/>
    </linearGradient>
    <linearGradient gradientTransform="matrix(0.0, 0.0187, -0.0179, 0.0, 2.15, -3.45)" gradientUnits="userSpaceOnUse" id="gradient1" spreadMethod="pad" x1="-819.2" x2="819.2">
      <stop offset="0.0" stop-color="#f15341"/>
      <stop offset="0.2823529411764706" stop-color="#d04050"/>
      <stop offset="0.8666666666666667" stop-color="#92474f"/>
    </linearGradient>
    <linearGradient gradientTransform="matrix(5.0E-4, 0.0069, -0.004, 3.0E-4, 14.5, 0.7)" gradientUnits="userSpaceOnUse" id="gradient2" spreadMethod="pad" x1="-819.2" x2="819.2">
      <stop offset="0.0" stop-color="#c54150"/>
      <stop offset="0.7333333333333333" stop-color="#ec5044"/>
    </linearGradient>
    <linearGradient gradientTransform="matrix(0.0, 0.0085, -0.0077, 0.0, 10.45, 11.7)" gradientUnits="userSpaceOnUse" id="gradient3" spreadMethod="pad" x1="-819.2" x2="819.2">
      <stop offset="0.5254901960784314" stop-color="#a5444f"/>
      <stop offset="1.0" stop-color="#7c384b"/>
    </linearGradient>
    <linearGradient gradientTransform="matrix(0.0, 0.0067, -0.004, 0.0, -10.5, 1.3)" gradientUnits="userSpaceOnUse" id="gradient4" spreadMethod="pad" x1="-819.2" x2="819.2">
      <stop offset="0.0" stop-color="#ac3d4f"/>
      <stop offset="0.7372549019607844" stop-color="#76334e"/>
    </linearGradient>
    <linearGradient gradientTransform="matrix(0.0, 0.0187, -0.0192, 0.0, 0.9, -3.45)" gradientUnits="userSpaceOnUse" id="gradient5" spreadMethod="pad" x1="-819.2" x2="819.2">
      <stop offset="0.0" stop-color="#f15341"/>
      <stop offset="0.2823529411764706" stop-color="#d04050"/>
      <stop offset="0.8666666666666667" stop-color="#92474f"/>
    </linearGradient>
    <linearGradient gradientTransform="matrix(0.0, 0.0067, -0.004, 0.0, -10.9, 1.0)" gradientUnits="userSpaceOnUse" id="gradient6" spreadMethod="pad" x1="-819.2" x2="819.2">
      <stop offset="0.0" stop-color="#ac3d4f"/>
      <stop offset="0.7372549019607844" stop-color="#76334e"/>
    </linearGradient>
    <linearGradient gradientTransform="matrix(0.0, 0.0067, -0.0075, 0.0, -9.1, 13.15)" gradientUnits="userSpaceOnUse" id="gradient7" spreadMethod="pad" x1="-819.2" x2="819.2">
      <stop offset="0.0" stop-color="#9c414e"/>
      <stop offset="0.5215686274509804" stop-color="#79374b"/>
    </linearGradient>
  </defs>
</svg>
