<?xml version="1.0" encoding="UTF-8" standalone="no"?>
<svg xmlns:ffdec="https://www.free-decompiler.com/flash" xmlns:xlink="http://www.w3.org/1999/xlink" ffdec:objectType="shape" height="42.3px" width="40.45px" xmlns="http://www.w3.org/2000/svg">
  <g transform="matrix(1.0, 0.0, 0.0, 1.0, 18.7, 21.25)">
    <path d="M10.75 -20.45 L12.05 -21.15 Q13.45 -21.45 14.7 -20.75 L14.75 -20.7 Q16.0 -20.0 16.35 -18.65 16.7 -17.25 16.0 -15.95 L15.8 -15.6 13.75 -12.25 12.8 -14.25 14.25 -16.4 Q14.6 -16.95 14.45 -17.65 L14.4 -17.75 13.6 -18.8 13.05 -19.0 12.25 -19.0 11.25 -18.15 10.45 -16.7 8.95 -17.55 10.05 -19.5 10.75 -20.45" fill="url(#gradient0)" fill-rule="evenodd" stroke="none"/>
    <path d="M10.45 -16.7 L11.25 -18.15 12.25 -19.0 13.05 -19.0 13.6 -18.8 14.4 -17.75 14.45 -17.65 Q14.6 -16.95 14.25 -16.4 L12.8 -14.25 Q11.9 -15.75 10.45 -16.7 M-10.55 -14.25 L-11.65 -16.6 Q-11.9 -17.25 -11.6 -18.0 L-10.7 -18.9 Q-10.0 -19.2 -9.35 -18.9 L-9.1 -18.8 Q-8.6 -18.5 -8.45 -17.9 L-7.9 -16.35 Q-9.45 -15.65 -10.55 -14.25" fill="#e34a48" fill-rule="evenodd" stroke="none"/>
    <path d="M10.75 -20.45 L10.05 -19.5 8.95 -17.55 10.45 -16.7 Q11.9 -15.75 12.8 -14.25 L13.75 -12.25 15.8 -15.6 Q16.75 -13.6 16.75 -11.25 L16.75 2.35 16.4 5.05 Q16.2 3.3 16.4 1.6 L10.2 3.75 Q11.8 2.25 12.75 0.2 14.45 -3.5 14.45 -4.8 L14.3 -5.7 13.9 -6.55 13.85 -6.6 13.8 -6.7 13.45 -7.1 Q12.5 -8.05 11.15 -8.1 L11.1 -8.1 Q9.8 -8.05 8.45 -5.7 6.25 1.15 0.85 1.9 -1.3 3.05 -1.35 4.35 L-1.35 4.4 Q-1.35 5.8 -0.4 6.75 0.55 7.7 1.9 7.65 L3.2 7.45 7.05 5.85 Q6.95 8.8 7.75 11.5 L-4.25 11.4 -5.75 11.15 -7.5 10.6 Q-11.75 8.8 -12.4 3.5 L-12.45 2.95 -12.5 -11.5 -12.25 -13.5 -11.8 -12.4 -11.35 -12.95 -10.55 -14.25 Q-9.45 -15.65 -7.9 -16.35 L-6.25 -17.0 -7.05 -19.05 -7.5 -19.95 Q-5.3 -21.25 -2.5 -21.25 L6.75 -21.25 Q8.9 -21.25 10.75 -20.45 M4.7 -10.85 L3.85 -11.1 3.0 -10.85 2.75 -10.65 Q2.3 -10.2 2.3 -9.55 2.3 -8.9 2.75 -8.45 3.2 -8.0 3.85 -8.0 4.5 -8.0 4.95 -8.45 5.4 -8.9 5.4 -9.55 5.4 -10.2 4.95 -10.65 L4.7 -10.85 M2.7 -4.1 Q2.7 -6.15 1.2 -7.65 0.15 -8.7 -1.15 -8.95 L-2.5 -9.15 -4.25 -9.15 Q-5.7 -9.15 -6.8 -8.45 L-6.65 -8.45 -7.7 -7.65 -8.25 -7.0 Q-9.15 -5.7 -9.15 -4.1 L-9.15 -3.2 Q-9.15 -2.1 -8.7 -1.15 L-8.6 -0.95 -7.7 0.3 Q-6.2 1.8 -4.15 1.8 L-2.3 1.8 Q-0.25 1.8 1.2 0.3 2.7 -1.15 2.7 -3.2 L2.7 -4.1 M-10.45 -10.75 L-10.55 -10.65 -11.0 -9.55 -10.55 -8.45 Q-10.1 -8.0 -9.45 -8.0 -8.8 -8.0 -8.35 -8.45 -7.9 -8.9 -7.9 -9.55 -7.9 -10.2 -8.35 -10.65 L-8.45 -10.75 Q-8.9 -11.1 -9.45 -11.1 L-10.45 -10.75" fill="url(#gradient1)" fill-rule="evenodd" stroke="none"/>
    <path d="M4.7 -10.85 L4.95 -10.65 Q5.4 -10.2 5.4 -9.55 5.4 -8.9 4.95 -8.45 4.5 -8.0 3.85 -8.0 3.2 -8.0 2.75 -8.45 2.3 -8.9 2.3 -9.55 2.3 -10.2 2.75 -10.65 L3.0 -10.85 3.85 -11.1 4.7 -10.85 M-10.45 -10.75 L-9.45 -11.1 Q-8.9 -11.1 -8.45 -10.75 L-8.35 -10.65 Q-7.9 -10.2 -7.9 -9.55 -7.9 -8.9 -8.35 -8.45 -8.8 -8.0 -9.45 -8.0 -10.1 -8.0 -10.55 -8.45 L-11.0 -9.55 -10.55 -10.65 -10.45 -10.75 M-0.95 -1.45 L-0.65 -1.35 -0.45 -1.05 -0.55 -0.75 -0.8 -0.55 Q-3.5 -0.2 -4.5 -1.3 L-5.0 -1.9 -5.3 -1.35 Q-5.95 -0.4 -7.55 -0.45 L-8.0 -0.45 Q-8.2 -0.45 -8.3 -0.6 L-8.4 -0.95 -8.25 -1.3 -8.2 -1.3 -7.9 -1.35 Q-6.55 -1.25 -6.05 -1.8 -5.75 -2.3 -5.6 -2.95 -6.05 -3.1 -6.25 -3.5 L-7.7 -5.95 -7.85 -6.9 -7.4 -7.7 Q-7.05 -8.05 -6.55 -8.05 L-3.65 -8.05 Q-3.15 -8.05 -2.8 -7.7 L-2.3 -6.9 Q-2.25 -6.45 -2.45 -6.0 L-3.9 -3.55 Q-4.15 -3.15 -4.5 -3.0 L-3.85 -1.9 Q-3.05 -1.2 -0.95 -1.45" fill="#511a38" fill-rule="evenodd" stroke="none"/>
    <path d="M2.7 -4.1 L2.7 -3.2 Q2.7 -1.15 1.2 0.3 -0.25 1.8 -2.3 1.8 L-4.15 1.8 Q-6.2 1.8 -7.7 0.3 L-8.6 -0.95 -8.7 -1.15 Q-9.15 -2.1 -9.15 -3.2 L-9.15 -4.1 Q-9.15 -5.7 -8.25 -7.0 L-7.7 -7.65 -6.65 -8.45 -6.8 -8.45 Q-5.7 -9.15 -4.25 -9.15 L-2.5 -9.15 -1.15 -8.95 Q0.15 -8.7 1.2 -7.65 2.7 -6.15 2.7 -4.1 M-0.95 -1.45 Q-3.05 -1.2 -3.85 -1.9 L-4.5 -3.0 Q-4.15 -3.15 -3.9 -3.55 L-2.45 -6.0 Q-2.25 -6.45 -2.3 -6.9 L-2.8 -7.7 Q-3.15 -8.05 -3.65 -8.05 L-6.55 -8.05 Q-7.05 -8.05 -7.4 -7.7 L-7.85 -6.9 -7.7 -5.95 -6.25 -3.5 Q-6.05 -3.1 -5.6 -2.95 -5.75 -2.3 -6.05 -1.8 -6.55 -1.25 -7.9 -1.35 L-8.2 -1.3 -8.25 -1.3 -8.4 -0.95 -8.3 -0.6 Q-8.2 -0.45 -8.0 -0.45 L-7.55 -0.45 Q-5.95 -0.4 -5.3 -1.35 L-5.0 -1.9 -4.5 -1.3 Q-3.5 -0.2 -0.8 -0.55 L-0.55 -0.75 -0.45 -1.05 -0.65 -1.35 -0.95 -1.45" fill="#f67065" fill-rule="evenodd" stroke="none"/>
    <path d="M7.05 5.85 L3.2 7.45 1.9 7.65 Q0.55 7.7 -0.4 6.75 -1.35 5.8 -1.35 4.4 L-1.35 4.35 Q-1.3 3.05 0.85 1.9 6.25 1.15 8.45 -5.7 9.8 -8.05 11.1 -8.1 L11.15 -8.1 Q12.5 -8.05 13.45 -7.1 L13.8 -6.7 13.85 -6.6 13.9 -6.55 14.3 -5.7 14.45 -4.8 Q14.45 -3.5 12.75 0.2 11.8 2.25 10.2 3.75 L7.15 5.8 7.05 5.85" fill="url(#gradient2)" fill-rule="evenodd" stroke="none"/>
    <path d="M16.4 5.05 Q17.0 10.85 21.75 17.1 L13.95 19.8 9.7 19.9 11.95 18.8 Q8.9 15.45 7.75 11.5 6.95 8.8 7.05 5.85 L7.15 5.8 10.2 3.75 16.4 1.6 Q16.2 3.3 16.4 5.05" fill="url(#gradient3)" fill-rule="evenodd" stroke="none"/>
    <path d="M-12.25 -13.5 L-13.45 -16.4 Q-14.0 -17.75 -13.4 -19.1 -12.95 -20.4 -11.55 -20.9 L-8.85 -21.0 Q-8.05 -20.6 -7.5 -19.95 L-7.05 -19.05 -6.25 -17.0 -7.9 -16.35 -8.45 -17.9 Q-8.6 -18.5 -9.1 -18.8 L-9.35 -18.9 Q-10.0 -19.2 -10.7 -18.9 L-11.6 -18.0 Q-11.9 -17.25 -11.65 -16.6 L-10.55 -14.25 -11.35 -12.95 -11.8 -12.4 -12.25 -13.5" fill="url(#gradient4)" fill-rule="evenodd" stroke="none"/>
    <path d="M-7.5 10.6 Q-8.6 13.25 -7.45 16.9 L-18.7 21.05 -15.6 17.2 Q-18.7 6.95 -12.4 3.5 -11.75 8.8 -7.5 10.6" fill="url(#gradient5)" fill-rule="evenodd" stroke="none"/>
  </g>
  <defs>
    <linearGradient gradientTransform="matrix(0.0, 0.0067, -0.004, 0.0, -11.5, 0.95)" gradientUnits="userSpaceOnUse" id="gradient0" spreadMethod="pad" x1="-819.2" x2="819.2">
      <stop offset="0.0" stop-color="#ac3d4f"/>
      <stop offset="0.7372549019607844" stop-color="#76334e"/>
    </linearGradient>
    <linearGradient gradientTransform="matrix(0.0, 0.0187, -0.0179, 0.0, 2.15, -4.7)" gradientUnits="userSpaceOnUse" id="gradient1" spreadMethod="pad" x1="-819.2" x2="819.2">
      <stop offset="0.0" stop-color="#f15341"/>
      <stop offset="0.2823529411764706" stop-color="#d04050"/>
      <stop offset="0.8666666666666667" stop-color="#92474f"/>
    </linearGradient>
    <linearGradient gradientTransform="matrix(-0.0049, 0.0049, -0.0028, -0.0028, 7.9, -1.55)" gradientUnits="userSpaceOnUse" id="gradient2" spreadMethod="pad" x1="-819.2" x2="819.2">
      <stop offset="0.0" stop-color="#c54150"/>
      <stop offset="0.7333333333333333" stop-color="#ec5044"/>
    </linearGradient>
    <linearGradient gradientTransform="matrix(0.0028, 0.0081, -0.0073, 0.0025, 13.1, 11.3)" gradientUnits="userSpaceOnUse" id="gradient3" spreadMethod="pad" x1="-819.2" x2="819.2">
      <stop offset="0.5254901960784314" stop-color="#a5444f"/>
      <stop offset="1.0" stop-color="#7c384b"/>
    </linearGradient>
    <linearGradient gradientTransform="matrix(0.0, 0.0067, -0.004, 0.0, -10.1, 0.95)" gradientUnits="userSpaceOnUse" id="gradient4" spreadMethod="pad" x1="-819.2" x2="819.2">
      <stop offset="0.0" stop-color="#ac3d4f"/>
      <stop offset="0.7372549019607844" stop-color="#76334e"/>
    </linearGradient>
    <linearGradient gradientTransform="matrix(-0.002, 0.0064, -0.0072, -0.0023, -10.7, 13.0)" gradientUnits="userSpaceOnUse" id="gradient5" spreadMethod="pad" x1="-819.2" x2="819.2">
      <stop offset="0.0" stop-color="#9c414e"/>
      <stop offset="0.5215686274509804" stop-color="#79374b"/>
    </linearGradient>
  </defs>
</svg>
