<?xml version="1.0" encoding="UTF-8" standalone="no"?>
<svg xmlns:ffdec="https://www.free-decompiler.com/flash" xmlns:xlink="http://www.w3.org/1999/xlink" ffdec:objectType="shape" height="40.95px" width="45.8px" xmlns="http://www.w3.org/2000/svg">
  <g transform="matrix(1.0, 0.0, 0.0, 1.0, 23.8, 24.45)">
    <path d="M11.0 -17.45 L12.45 -19.6 Q12.8 -20.2 12.6 -20.95 12.4 -21.6 11.8 -22.0 L10.45 -22.2 Q9.75 -22.0 9.45 -21.35 L8.65 -19.9 7.15 -20.75 8.25 -22.7 Q8.7 -23.6 9.6 -24.05 L10.25 -24.35 Q11.65 -24.65 12.9 -23.95 L12.95 -23.9 Q14.2 -23.2 14.55 -21.85 L14.65 -20.6 Q14.6 -19.85 14.2 -19.15 L11.95 -15.45 11.0 -17.45" fill="url(#gradient0)" fill-rule="evenodd" stroke="none"/>
    <path d="M11.0 -17.45 L11.95 -15.45 14.2 -19.15 Q14.6 -19.85 14.65 -20.6 16.75 -17.95 16.75 -14.45 L16.75 -0.85 16.5 1.4 16.35 0.05 Q16.25 -1.45 16.4 -2.85 L9.95 -0.6 8.25 0.3 Q7.55 5.0 9.7 8.15 L8.5 8.3 -4.25 8.2 -5.75 7.95 Q-7.55 7.55 -8.9 6.65 -12.05 4.55 -12.45 -0.25 L-12.45 -0.45 -12.5 -11.8 -12.35 -11.65 Q-11.9 -11.2 -11.25 -11.2 -10.6 -11.2 -10.15 -11.65 -9.7 -12.1 -9.7 -12.75 -9.7 -13.4 -10.15 -13.85 L-10.25 -13.95 Q-10.7 -14.3 -11.25 -14.3 -11.8 -14.3 -12.25 -13.95 L-12.35 -13.85 -12.5 -13.65 -12.5 -14.7 Q-12.45 -16.4 -11.9 -17.85 L-11.0 -15.6 -10.55 -16.15 -9.75 -17.45 Q-8.65 -18.85 -7.1 -19.55 L-5.45 -20.2 -6.25 -22.25 -6.95 -23.45 Q-4.95 -24.45 -2.5 -24.45 L6.75 -24.45 9.6 -24.05 Q8.7 -23.6 8.25 -22.7 L7.15 -20.75 8.65 -19.9 Q10.1 -18.95 11.0 -17.45 M3.6 -12.75 Q3.6 -13.4 3.15 -13.85 L2.9 -14.05 2.05 -14.3 1.2 -14.05 0.95 -13.85 Q0.5 -13.4 0.5 -12.75 0.5 -12.1 0.95 -11.65 1.4 -11.2 2.05 -11.2 2.7 -11.2 3.15 -11.65 3.6 -12.1 3.6 -12.75 M0.65 -4.7 L0.9 -6.4 0.9 -7.3 Q0.9 -9.35 -0.6 -10.85 -1.65 -11.9 -2.95 -12.15 L-4.3 -12.35 -6.05 -12.35 Q-7.5 -12.35 -8.6 -11.65 L-8.45 -11.65 -9.05 -11.25 -9.8 -10.9 Q-10.2 -10.6 -10.25 -10.1 L-10.25 -9.85 Q-10.95 -8.7 -10.95 -7.3 L-10.95 -6.4 Q-10.95 -5.4 -10.55 -4.5 L-10.65 -4.5 -10.8 -4.15 -10.7 -3.8 Q-10.6 -3.65 -10.4 -3.65 L-10.1 -3.65 -9.5 -2.9 Q-8.0 -1.4 -5.95 -1.4 L-4.0 -1.4 -3.65 -0.35 Q-2.95 0.8 -1.65 1.1 L-0.35 1.25 3.9 0.65 Q8.15 -0.2 10.7 -3.3 13.35 -6.4 13.65 -7.7 L13.75 -8.6 13.6 -9.4 13.6 -9.55 13.55 -9.7 13.3 -10.15 Q12.6 -11.3 11.3 -11.7 L11.25 -11.75 Q10.0 -12.0 8.1 -10.1 4.9 -5.1 0.65 -4.7" fill="url(#gradient1)" fill-rule="evenodd" stroke="none"/>
    <path d="M8.65 -19.9 L9.45 -21.35 Q9.75 -22.0 10.45 -22.2 L11.8 -22.0 Q12.4 -21.6 12.6 -20.95 12.8 -20.2 12.45 -19.6 L11.0 -17.45 Q10.1 -18.95 8.65 -19.9 M-7.1 -19.55 Q-8.65 -18.85 -9.75 -17.45 L-10.85 -19.8 -10.9 -19.95 Q-11.05 -20.55 -10.8 -21.2 L-9.9 -22.1 -8.85 -22.2 -8.55 -22.1 Q-7.85 -21.8 -7.65 -21.1 L-7.1 -19.55" fill="#e34a48" fill-rule="evenodd" stroke="none"/>
    <path d="M-12.5 -13.65 L-12.35 -13.85 -12.25 -13.95 Q-11.8 -14.3 -11.25 -14.3 -10.7 -14.3 -10.25 -13.95 L-10.15 -13.85 Q-9.7 -13.4 -9.7 -12.75 -9.7 -12.1 -10.15 -11.65 -10.6 -11.2 -11.25 -11.2 -11.9 -11.2 -12.35 -11.65 L-12.5 -11.8 -12.8 -12.75 -12.5 -13.65 M3.6 -12.75 Q3.6 -12.1 3.15 -11.65 2.7 -11.2 2.05 -11.2 1.4 -11.2 0.95 -11.65 0.5 -12.1 0.5 -12.75 0.5 -13.4 0.95 -13.85 L1.2 -14.05 2.05 -14.3 2.9 -14.05 3.15 -13.85 Q3.6 -13.4 3.6 -12.75 M-10.1 -3.65 L-10.4 -3.65 Q-10.6 -3.65 -10.7 -3.8 L-10.8 -4.15 -10.65 -4.5 -10.55 -4.5 -10.3 -4.55 Q-8.95 -4.45 -8.45 -5.0 -8.15 -5.5 -8.0 -6.15 L-8.65 -6.7 -10.1 -9.15 -10.25 -9.85 -10.25 -10.1 Q-10.2 -10.6 -9.8 -10.9 L-9.05 -11.25 -6.05 -11.25 Q-5.55 -11.25 -5.2 -10.9 L-4.7 -10.1 Q-4.65 -9.65 -4.85 -9.2 L-6.3 -6.75 -6.9 -6.2 -6.25 -5.1 Q-5.45 -4.4 -3.35 -4.65 L-3.05 -4.55 -2.85 -4.25 -2.85 -4.15 -2.95 -3.95 -3.2 -3.75 -3.45 -3.7 Q-5.95 -3.45 -6.9 -4.5 L-7.4 -5.1 -7.7 -4.55 Q-8.35 -3.6 -9.95 -3.65 L-10.1 -3.65" fill="#511a38" fill-rule="evenodd" stroke="none"/>
    <path d="M0.65 -4.7 Q4.9 -5.1 8.1 -10.1 10.0 -12.0 11.25 -11.75 L11.3 -11.7 Q12.6 -11.3 13.3 -10.15 L13.55 -9.7 13.6 -9.55 13.6 -9.4 13.75 -8.6 13.65 -7.7 Q13.35 -6.4 10.7 -3.3 8.15 -0.2 3.9 0.65 L-0.35 1.25 -1.65 1.1 Q-2.95 0.8 -3.65 -0.35 L-4.0 -1.4 -3.95 -2.95 -3.45 -3.7 -3.2 -3.75 -2.95 -3.95 -2.85 -4.15 -1.2 -4.75 0.65 -4.7" fill="url(#gradient2)" fill-rule="evenodd" stroke="none"/>
    <path d="M-9.05 -11.25 L-8.45 -11.65 -8.6 -11.65 Q-7.5 -12.35 -6.05 -12.35 L-4.3 -12.35 -2.95 -12.15 Q-1.65 -11.9 -0.6 -10.85 0.9 -9.35 0.9 -7.3 L0.9 -6.4 0.65 -4.7 -1.2 -4.75 -2.85 -4.15 -2.85 -4.25 -3.05 -4.55 -3.35 -4.65 Q-5.45 -4.4 -6.25 -5.1 L-6.9 -6.2 -6.3 -6.75 -4.85 -9.2 Q-4.65 -9.65 -4.7 -10.1 L-5.2 -10.9 Q-5.55 -11.25 -6.05 -11.25 L-9.05 -11.25 M-4.0 -1.4 L-5.95 -1.4 Q-8.0 -1.4 -9.5 -2.9 L-10.1 -3.65 -9.95 -3.65 Q-8.35 -3.6 -7.7 -4.55 L-7.4 -5.1 -6.9 -4.5 Q-5.95 -3.45 -3.45 -3.7 L-3.95 -2.95 -4.0 -1.4 M-10.55 -4.5 Q-10.95 -5.4 -10.95 -6.4 L-10.95 -7.3 Q-10.95 -8.7 -10.25 -9.85 L-10.1 -9.15 -8.65 -6.7 -8.0 -6.15 Q-8.15 -5.5 -8.45 -5.0 -8.95 -4.45 -10.3 -4.55 L-10.55 -4.5" fill="#f67065" fill-rule="evenodd" stroke="none"/>
    <path d="M9.7 8.15 Q7.55 5.0 8.25 0.3 L9.95 -0.6 16.4 -2.85 Q16.25 -1.45 16.35 0.05 L16.5 1.4 16.55 1.75 Q17.4 5.75 22.0 6.7 L18.85 16.5 17.65 13.1 Q12.0 11.5 9.7 8.15" fill="url(#gradient3)" fill-rule="evenodd" stroke="none"/>
    <path d="M-6.95 -23.45 L-6.25 -22.25 -5.45 -20.2 -7.1 -19.55 -7.65 -21.1 Q-7.85 -21.8 -8.55 -22.1 L-8.85 -22.2 -9.9 -22.1 -10.8 -21.2 Q-11.05 -20.55 -10.9 -19.95 L-10.85 -19.8 -9.75 -17.45 -10.55 -16.15 -11.0 -15.6 -11.9 -17.85 -12.65 -19.6 Q-13.2 -20.95 -12.6 -22.3 -12.15 -23.6 -10.75 -24.1 L-8.05 -24.2 -6.95 -23.45" fill="url(#gradient4)" fill-rule="evenodd" stroke="none"/>
    <path d="M-12.45 -0.45 L-12.45 -0.25 Q-12.05 4.55 -8.9 6.65 -11.4 8.7 -11.8 13.0 L-23.8 12.45 -19.4 10.1 Q-19.15 2.4 -12.45 -0.45" fill="url(#gradient5)" fill-rule="evenodd" stroke="none"/>
  </g>
  <defs>
    <linearGradient gradientTransform="matrix(0.0, 0.0067, -0.004, 0.0, -13.3, -2.25)" gradientUnits="userSpaceOnUse" id="gradient0" spreadMethod="pad" x1="-819.2" x2="819.2">
      <stop offset="0.0" stop-color="#ac3d4f"/>
      <stop offset="0.7372549019607844" stop-color="#76334e"/>
    </linearGradient>
    <linearGradient gradientTransform="matrix(0.0, 0.0187, -0.0179, 0.0, 2.15, -7.9)" gradientUnits="userSpaceOnUse" id="gradient1" spreadMethod="pad" x1="-819.2" x2="819.2">
      <stop offset="0.0" stop-color="#f15341"/>
      <stop offset="0.2823529411764706" stop-color="#d04050"/>
      <stop offset="0.8666666666666667" stop-color="#92474f"/>
    </linearGradient>
    <linearGradient gradientTransform="matrix(-0.006, 0.0035, -0.002, -0.0034, 6.55, -6.25)" gradientUnits="userSpaceOnUse" id="gradient2" spreadMethod="pad" x1="-819.2" x2="819.2">
      <stop offset="0.0" stop-color="#c54150"/>
      <stop offset="0.7333333333333333" stop-color="#ec5044"/>
    </linearGradient>
    <linearGradient gradientTransform="matrix(0.0028, 0.0081, -0.0073, 0.0025, 13.1, 6.85)" gradientUnits="userSpaceOnUse" id="gradient3" spreadMethod="pad" x1="-819.2" x2="819.2">
      <stop offset="0.5254901960784314" stop-color="#a5444f"/>
      <stop offset="1.0" stop-color="#7c384b"/>
    </linearGradient>
    <linearGradient gradientTransform="matrix(0.0, 0.0067, -0.004, 0.0, -9.3, -2.25)" gradientUnits="userSpaceOnUse" id="gradient4" spreadMethod="pad" x1="-819.2" x2="819.2">
      <stop offset="0.0" stop-color="#ac3d4f"/>
      <stop offset="0.7372549019607844" stop-color="#76334e"/>
    </linearGradient>
    <linearGradient gradientTransform="matrix(-0.0054, 0.0054, -0.0051, -0.0051, -12.15, 6.3)" gradientUnits="userSpaceOnUse" id="gradient5" spreadMethod="pad" x1="-819.2" x2="819.2">
      <stop offset="0.0" stop-color="#9c414e"/>
      <stop offset="0.5215686274509804" stop-color="#79374b"/>
    </linearGradient>
  </defs>
</svg>
