<?xml version="1.0" encoding="UTF-8" standalone="no"?>
<svg xmlns:ffdec="https://www.free-decompiler.com/flash" xmlns:xlink="http://www.w3.org/1999/xlink" ffdec:objectType="shape" height="42.9px" width="34.7px" xmlns="http://www.w3.org/2000/svg">
  <g transform="matrix(1.0, 0.0, 0.0, 1.0, 15.05, 21.7)">
    <path d="M10.75 -20.9 L12.05 -21.6 Q13.45 -21.9 14.7 -21.2 L14.75 -21.15 Q16.0 -20.45 16.35 -19.1 16.7 -17.7 16.0 -16.4 L15.8 -16.05 13.75 -12.7 12.8 -14.7 14.25 -16.85 Q14.6 -17.4 14.45 -18.1 L14.4 -18.2 13.6 -19.25 13.05 -19.45 12.25 -19.45 11.25 -18.6 10.45 -17.15 8.95 -18.0 10.05 -19.95 10.75 -20.9" fill="url(#gradient0)" fill-rule="evenodd" stroke="none"/>
    <path d="M10.45 -17.15 L11.25 -18.6 12.25 -19.45 13.05 -19.45 13.6 -19.25 14.4 -18.2 14.45 -18.1 Q14.6 -17.4 14.25 -16.85 L12.8 -14.7 Q11.9 -16.2 10.45 -17.15 M-10.35 -14.7 L-11.45 -17.05 Q-11.7 -17.7 -11.4 -18.45 L-10.5 -19.35 Q-9.8 -19.65 -9.15 -19.35 L-9.05 -19.3 Q-8.45 -19.0 -8.25 -18.35 L-7.7 -16.8 Q-9.25 -16.1 -10.35 -14.7" fill="#e34a48" fill-rule="evenodd" stroke="none"/>
    <path d="M10.75 -20.9 L10.05 -19.95 8.95 -18.0 10.45 -17.15 Q11.9 -16.2 12.8 -14.7 L13.75 -12.7 15.8 -16.05 Q16.75 -14.05 16.75 -11.7 L16.75 1.9 16.65 2.95 12.5 2.55 Q13.4 1.2 13.9 -0.45 15.1 -4.35 14.85 -5.7 L14.6 -6.5 14.15 -7.2 14.1 -7.3 14.1 -7.35 14.0 -7.5 13.55 -7.8 Q12.5 -8.55 11.15 -8.4 L11.05 -8.45 Q9.8 -8.2 8.8 -5.7 7.65 1.35 2.4 2.85 0.45 4.35 0.55 5.65 0.8 7.05 1.85 7.9 2.95 8.7 4.3 8.45 L5.55 8.1 6.95 7.3 Q6.7 9.4 6.85 11.05 L-3.1 11.0 -4.25 10.95 -5.75 10.7 Q-9.25 9.95 -10.9 7.35 -11.95 5.8 -12.3 3.65 L-12.45 2.5 -12.5 -11.95 -12.2 -14.25 -11.6 -12.85 -11.15 -13.4 -10.35 -14.7 Q-9.25 -16.1 -7.7 -16.8 L-6.05 -17.45 -6.85 -19.5 Q-7.05 -20.05 -7.4 -20.45 -5.2 -21.7 -2.5 -21.7 L6.75 -21.7 Q8.9 -21.7 10.75 -20.9 M16.65 3.05 Q16.3 6.1 14.8 8.05 L14.9 7.2 15.45 5.55 16.65 3.05 M4.7 -11.3 L3.85 -11.55 3.0 -11.3 2.75 -11.1 Q2.3 -10.65 2.3 -10.0 2.3 -9.35 2.75 -8.9 3.2 -8.45 3.85 -8.45 4.5 -8.45 4.95 -8.9 5.4 -9.35 5.4 -10.0 5.4 -10.65 4.95 -11.1 L4.7 -11.3 M2.7 -4.55 Q2.7 -6.6 1.2 -8.1 0.15 -9.15 -1.15 -9.4 L-2.5 -9.6 -4.25 -9.6 Q-5.7 -9.6 -6.8 -8.9 L-6.65 -8.9 -7.7 -8.1 -8.25 -7.45 Q-9.15 -6.15 -9.15 -4.55 L-9.15 -3.65 Q-9.15 -2.55 -8.7 -1.6 L-8.6 -1.4 -7.7 -0.15 Q-6.2 1.35 -4.15 1.35 L-2.3 1.35 Q-0.25 1.35 1.2 -0.15 2.7 -1.6 2.7 -3.65 L2.7 -4.55 M-10.55 -11.1 L-11.0 -10.0 -10.55 -8.9 Q-10.1 -8.45 -9.45 -8.45 -8.8 -8.45 -8.35 -8.9 -7.9 -9.35 -7.9 -10.0 -7.9 -10.65 -8.35 -11.1 L-8.45 -11.2 Q-8.9 -11.55 -9.45 -11.55 L-10.45 -11.2 -10.55 -11.1" fill="url(#gradient1)" fill-rule="evenodd" stroke="none"/>
    <path d="M4.7 -11.3 L4.95 -11.1 Q5.4 -10.65 5.4 -10.0 5.4 -9.35 4.95 -8.9 4.5 -8.45 3.85 -8.45 3.2 -8.45 2.75 -8.9 2.3 -9.35 2.3 -10.0 2.3 -10.65 2.75 -11.1 L3.0 -11.3 3.85 -11.55 4.7 -11.3 M-10.55 -11.1 L-10.45 -11.2 -9.45 -11.55 Q-8.9 -11.55 -8.45 -11.2 L-8.35 -11.1 Q-7.9 -10.65 -7.9 -10.0 -7.9 -9.35 -8.35 -8.9 -8.8 -8.45 -9.45 -8.45 -10.1 -8.45 -10.55 -8.9 L-11.0 -10.0 -10.55 -11.1 M-0.95 -1.9 L-0.65 -1.8 -0.45 -1.5 -0.55 -1.2 -0.8 -1.0 Q-3.5 -0.65 -4.5 -1.75 L-5.0 -2.35 -5.3 -1.8 Q-5.95 -0.85 -7.55 -0.9 L-8.0 -0.9 Q-8.2 -0.9 -8.3 -1.05 L-8.4 -1.4 -8.25 -1.75 -8.2 -1.75 -7.9 -1.8 Q-6.55 -1.7 -6.05 -2.25 -5.75 -2.75 -5.6 -3.4 -6.05 -3.55 -6.25 -3.95 L-7.7 -6.4 -7.85 -7.35 -7.4 -8.15 Q-7.05 -8.5 -6.55 -8.5 L-3.65 -8.5 Q-3.15 -8.5 -2.8 -8.15 L-2.3 -7.35 Q-2.25 -6.9 -2.45 -6.45 L-3.9 -4.0 Q-4.15 -3.6 -4.5 -3.45 L-3.85 -2.35 Q-3.05 -1.65 -0.95 -1.9" fill="#511a38" fill-rule="evenodd" stroke="none"/>
    <path d="M2.7 -4.55 L2.7 -3.65 Q2.7 -1.6 1.2 -0.15 -0.25 1.35 -2.3 1.35 L-4.15 1.35 Q-6.2 1.35 -7.7 -0.15 L-8.6 -1.4 -8.7 -1.6 Q-9.15 -2.55 -9.15 -3.65 L-9.15 -4.55 Q-9.15 -6.15 -8.25 -7.45 L-7.7 -8.1 -6.65 -8.9 -6.8 -8.9 Q-5.7 -9.6 -4.25 -9.6 L-2.5 -9.6 -1.15 -9.4 Q0.15 -9.15 1.2 -8.1 2.7 -6.6 2.7 -4.55 M-0.95 -1.9 Q-3.05 -1.65 -3.85 -2.35 L-4.5 -3.45 Q-4.15 -3.6 -3.9 -4.0 L-2.45 -6.45 Q-2.25 -6.9 -2.3 -7.35 L-2.8 -8.15 Q-3.15 -8.5 -3.65 -8.5 L-6.55 -8.5 Q-7.05 -8.5 -7.4 -8.15 L-7.85 -7.35 -7.7 -6.4 -6.25 -3.95 Q-6.05 -3.55 -5.6 -3.4 -5.75 -2.75 -6.05 -2.25 -6.55 -1.7 -7.9 -1.8 L-8.2 -1.75 -8.25 -1.75 -8.4 -1.4 -8.3 -1.05 Q-8.2 -0.9 -8.0 -0.9 L-7.55 -0.9 Q-5.95 -0.85 -5.3 -1.8 L-5.0 -2.35 -4.5 -1.75 Q-3.5 -0.65 -0.8 -1.0 L-0.55 -1.2 -0.45 -1.5 -0.65 -1.8 -0.95 -1.9" fill="#f67065" fill-rule="evenodd" stroke="none"/>
    <path d="M6.95 7.3 L5.55 8.1 4.3 8.45 Q2.95 8.7 1.85 7.9 0.8 7.05 0.55 5.65 0.45 4.35 2.4 2.85 7.65 1.35 8.8 -5.7 9.8 -8.2 11.05 -8.45 L11.15 -8.4 Q12.5 -8.55 13.55 -7.8 L14.0 -7.5 14.1 -7.35 14.1 -7.3 14.15 -7.2 14.6 -6.5 14.85 -5.7 Q15.1 -4.35 13.9 -0.45 13.4 1.2 12.5 2.55 11.25 4.45 9.2 5.85 L6.95 7.3" fill="url(#gradient2)" fill-rule="evenodd" stroke="none"/>
    <path d="M16.65 2.95 L16.7 2.95 16.65 3.05 15.45 5.55 14.9 7.2 14.8 8.05 14.75 8.55 Q14.8 10.85 17.85 9.35 L19.65 18.15 17.2 16.0 15.6 16.4 Q10.85 17.4 8.65 15.45 L7.5 13.85 Q6.95 12.7 6.85 11.05 6.7 9.4 6.95 7.3 L9.2 5.85 Q11.25 4.45 12.5 2.55 L16.65 2.95" fill="url(#gradient3)" fill-rule="evenodd" stroke="none"/>
    <path d="M-12.2 -14.25 L-13.25 -16.85 Q-13.8 -18.2 -13.2 -19.55 -12.75 -20.85 -11.35 -21.35 L-8.65 -21.45 -7.4 -20.45 Q-7.05 -20.05 -6.85 -19.5 L-6.05 -17.45 -7.7 -16.8 -8.25 -18.35 Q-8.45 -19.0 -9.05 -19.3 L-9.15 -19.35 Q-9.8 -19.65 -10.5 -19.35 L-11.4 -18.45 Q-11.7 -17.7 -11.45 -17.05 L-10.35 -14.7 -11.15 -13.4 -11.6 -12.85 -12.2 -14.25" fill="url(#gradient4)" fill-rule="evenodd" stroke="none"/>
    <path d="M-3.1 11.0 Q-5.55 15.3 -4.6 19.2 L-15.05 21.2 -12.45 19.3 -12.45 19.2 Q-13.35 15.25 -12.5 11.6 -12.0 9.4 -10.9 7.35 -9.25 9.95 -5.75 10.7 L-4.25 10.95 -3.1 11.0" fill="url(#gradient5)" fill-rule="evenodd" stroke="none"/>
    <path d="M-12.5 11.6 Q-13.45 11.2 -13.95 10.35 -14.75 9.3 -13.95 7.65 L-13.45 6.7 -12.3 3.65 Q-11.95 5.8 -10.9 7.35 -12.0 9.4 -12.5 11.6" fill="url(#gradient6)" fill-rule="evenodd" stroke="none"/>
  </g>
  <defs>
    <linearGradient gradientTransform="matrix(0.0, 0.0067, -0.004, 0.0, -11.5, 0.5)" gradientUnits="userSpaceOnUse" id="gradient0" spreadMethod="pad" x1="-819.2" x2="819.2">
      <stop offset="0.0" stop-color="#ac3d4f"/>
      <stop offset="0.7372549019607844" stop-color="#76334e"/>
    </linearGradient>
    <linearGradient gradientTransform="matrix(0.0, 0.0187, -0.0179, 0.0, 2.15, -5.15)" gradientUnits="userSpaceOnUse" id="gradient1" spreadMethod="pad" x1="-819.2" x2="819.2">
      <stop offset="0.0" stop-color="#f15341"/>
      <stop offset="0.2823529411764706" stop-color="#d04050"/>
      <stop offset="0.8666666666666667" stop-color="#92474f"/>
    </linearGradient>
    <linearGradient gradientTransform="matrix(-0.0042, 0.0056, -0.0032, -0.0024, 8.9, -1.55)" gradientUnits="userSpaceOnUse" id="gradient2" spreadMethod="pad" x1="-819.2" x2="819.2">
      <stop offset="0.0" stop-color="#c54150"/>
      <stop offset="0.7333333333333333" stop-color="#ec5044"/>
    </linearGradient>
    <linearGradient gradientTransform="matrix(0.0056, 0.0, 0.0, 0.0097, 12.95, 10.2)" gradientUnits="userSpaceOnUse" id="gradient3" spreadMethod="pad" x1="-819.2" x2="819.2">
      <stop offset="0.5254901960784314" stop-color="#a5444f"/>
      <stop offset="1.0" stop-color="#7c384b"/>
    </linearGradient>
    <linearGradient gradientTransform="matrix(0.0, 0.0067, -0.004, 0.0, -9.9, 0.5)" gradientUnits="userSpaceOnUse" id="gradient4" spreadMethod="pad" x1="-819.2" x2="819.2">
      <stop offset="0.0" stop-color="#ac3d4f"/>
      <stop offset="0.7372549019607844" stop-color="#76334e"/>
    </linearGradient>
    <linearGradient gradientTransform="matrix(-0.0016, 0.0059, -0.0065, -0.0017, -7.1, 12.65)" gradientUnits="userSpaceOnUse" id="gradient5" spreadMethod="pad" x1="-819.2" x2="819.2">
      <stop offset="0.0" stop-color="#9c414e"/>
      <stop offset="0.5215686274509804" stop-color="#79374b"/>
    </linearGradient>
    <linearGradient gradientTransform="matrix(1.0E-4, 0.0067, -0.004, 1.0E-4, -10.3, 0.5)" gradientUnits="userSpaceOnUse" id="gradient6" spreadMethod="pad" x1="-819.2" x2="819.2">
      <stop offset="0.0" stop-color="#ac3d4f"/>
      <stop offset="0.7372549019607844" stop-color="#76334e"/>
    </linearGradient>
  </defs>
</svg>
