<?xml version="1.0" encoding="UTF-8" standalone="no"?>
<svg xmlns:ffdec="https://www.free-decompiler.com/flash" xmlns:xlink="http://www.w3.org/1999/xlink" ffdec:objectType="shape" height="39.3px" width="41.65px" xmlns="http://www.w3.org/2000/svg">
  <g transform="matrix(1.0, 0.0, 0.0, 1.0, 22.6, 19.0)">
    <path d="M13.8 -12.0 L15.25 -14.15 15.3 -14.2 Q15.6 -14.8 15.4 -15.5 15.2 -16.15 14.6 -16.55 L13.25 -16.75 13.15 -16.7 Q12.5 -16.5 12.25 -15.9 L11.45 -14.45 9.95 -15.3 11.45 -17.85 Q12.05 -18.6 13.05 -18.9 14.45 -19.2 15.7 -18.5 L15.75 -18.45 Q17.0 -17.75 17.35 -16.4 17.7 -15.0 17.0 -13.7 L16.2 -12.35 14.75 -10.0 13.8 -12.0 M-12.35 -10.6 L-13.85 -14.15 Q-14.4 -15.5 -13.8 -16.85 -13.35 -18.15 -11.95 -18.65 L-9.25 -18.75 Q-8.35 -18.3 -7.8 -17.5 L-7.45 -16.8 -6.65 -14.75 -8.3 -14.1 -8.85 -15.65 -9.3 -16.35 -9.75 -16.65 Q-10.4 -16.95 -11.1 -16.65 L-12.0 -15.75 Q-12.3 -15.0 -12.05 -14.35 L-10.95 -12.0 -11.75 -10.7 -12.2 -10.15 -12.35 -10.6" fill="url(#gradient0)" fill-rule="evenodd" stroke="none"/>
    <path d="M13.8 -12.0 L14.75 -10.0 16.2 -12.35 Q16.75 -10.8 16.75 -9.0 L16.75 -4.95 15.95 -6.1 14.45 -6.85 14.35 -6.85 14.35 -6.9 14.15 -6.95 13.6 -6.95 Q12.3 -6.9 11.35 -6.0 L11.2 -6.0 Q10.35 -5.0 11.1 -2.4 13.85 2.8 12.15 6.6 L9.45 3.5 Q2.4 7.25 1.1 9.35 -0.2 11.45 0.2 13.35 L0.3 13.75 -4.25 13.65 -5.75 13.4 Q-7.5 13.0 -8.8 12.2 -11.95 10.15 -12.4 5.5 L-12.45 5.2 -12.5 -5.55 -12.5 -9.25 -12.35 -10.6 -12.2 -10.15 -11.75 -10.7 -10.95 -12.0 Q-9.85 -13.4 -8.3 -14.1 L-6.65 -14.75 -7.45 -16.8 -7.8 -17.5 Q-5.45 -19.0 -2.5 -19.0 L6.75 -19.0 Q9.35 -19.0 11.45 -17.85 L9.95 -15.3 11.45 -14.45 Q12.9 -13.5 13.8 -12.0 M5.95 -6.2 Q6.4 -6.65 6.4 -7.3 6.4 -7.95 5.95 -8.4 L5.7 -8.6 4.85 -8.85 4.0 -8.6 3.75 -8.4 Q3.3 -7.95 3.3 -7.3 3.3 -6.65 3.75 -6.2 4.2 -5.75 4.85 -5.75 5.5 -5.75 5.95 -6.2 M2.2 -5.4 Q1.15 -6.45 -0.15 -6.7 L-1.5 -6.9 -3.25 -6.9 Q-4.7 -6.9 -5.8 -6.2 L-5.65 -6.2 -6.7 -5.4 -7.25 -4.75 Q-8.15 -3.45 -8.15 -1.85 L-8.15 -0.95 -7.7 1.1 -7.6 1.3 -6.7 2.55 Q-5.2 4.05 -3.15 4.05 L-1.3 4.05 Q0.75 4.05 2.2 2.55 3.7 1.1 3.7 -0.95 L3.7 -1.85 Q3.7 -3.9 2.2 -5.4 M12.8 12.45 Q11.55 13.15 10.0 13.5 L9.15 13.65 Q8.75 12.85 9.05 12.3 9.5 11.35 10.95 10.75 11.1 11.25 11.4 11.6 12.05 12.2 12.8 12.45 M-10.0 -7.3 L-9.55 -6.2 Q-9.1 -5.75 -8.45 -5.75 -7.8 -5.75 -7.35 -6.2 -6.9 -6.65 -6.9 -7.3 -6.9 -7.95 -7.35 -8.4 L-7.45 -8.5 -8.45 -8.85 Q-9.0 -8.85 -9.45 -8.5 L-9.55 -8.4 -10.0 -7.3" fill="url(#gradient1)" fill-rule="evenodd" stroke="none"/>
    <path d="M11.45 -14.45 L12.25 -15.9 Q12.5 -16.5 13.15 -16.7 L13.25 -16.75 14.6 -16.55 Q15.2 -16.15 15.4 -15.5 15.6 -14.8 15.3 -14.2 L15.25 -14.15 13.8 -12.0 Q12.9 -13.5 11.45 -14.45 M-10.95 -12.0 L-12.05 -14.35 Q-12.3 -15.0 -12.0 -15.75 L-11.1 -16.65 Q-10.4 -16.95 -9.75 -16.65 L-9.3 -16.35 -8.85 -15.65 -8.3 -14.1 Q-9.85 -13.4 -10.95 -12.0" fill="#e34a48" fill-rule="evenodd" stroke="none"/>
    <path d="M5.95 -6.2 Q5.5 -5.75 4.85 -5.75 4.2 -5.75 3.75 -6.2 3.3 -6.65 3.3 -7.3 3.3 -7.95 3.75 -8.4 L4.0 -8.6 4.85 -8.85 5.7 -8.6 5.95 -8.4 Q6.4 -7.95 6.4 -7.3 6.4 -6.65 5.95 -6.2 M0.05 0.8 L0.35 0.9 0.55 1.2 0.45 1.5 0.2 1.7 Q-2.5 2.05 -3.5 0.95 L-4.0 0.35 -4.3 0.9 Q-4.95 1.85 -6.55 1.8 L-7.0 1.8 -7.3 1.65 -7.4 1.3 -7.25 0.95 -7.2 0.95 -6.9 0.9 Q-5.55 1.0 -5.05 0.45 -4.75 -0.05 -4.6 -0.7 L-5.25 -1.25 -6.7 -3.7 -6.85 -4.65 Q-6.8 -5.15 -6.4 -5.45 -6.05 -5.8 -5.55 -5.8 L-2.65 -5.8 Q-2.15 -5.8 -1.8 -5.45 L-1.3 -4.65 -1.45 -3.75 -2.9 -1.3 -3.5 -0.75 -2.85 0.35 Q-2.05 1.05 0.05 0.8 M-10.0 -7.3 L-9.55 -8.4 -9.45 -8.5 Q-9.0 -8.85 -8.45 -8.85 L-7.45 -8.5 -7.35 -8.4 Q-6.9 -7.95 -6.9 -7.3 -6.9 -6.65 -7.35 -6.2 -7.8 -5.75 -8.45 -5.75 -9.1 -5.75 -9.55 -6.2 L-10.0 -7.3" fill="#511a38" fill-rule="evenodd" stroke="none"/>
    <path d="M2.2 -5.4 Q3.7 -3.9 3.7 -1.85 L3.7 -0.95 Q3.7 1.1 2.2 2.55 0.75 4.05 -1.3 4.05 L-3.15 4.05 Q-5.2 4.05 -6.7 2.55 L-7.6 1.3 -7.7 1.1 -8.15 -0.95 -8.15 -1.85 Q-8.15 -3.45 -7.25 -4.75 L-6.7 -5.4 -5.65 -6.2 -5.8 -6.2 Q-4.7 -6.9 -3.25 -6.9 L-1.5 -6.9 -0.15 -6.7 Q1.15 -6.45 2.2 -5.4 M0.05 0.8 Q-2.05 1.05 -2.85 0.35 L-3.5 -0.75 -2.9 -1.3 -1.45 -3.75 -1.3 -4.65 -1.8 -5.45 Q-2.15 -5.8 -2.65 -5.8 L-5.55 -5.8 Q-6.05 -5.8 -6.4 -5.45 -6.8 -5.15 -6.85 -4.65 L-6.7 -3.7 -5.25 -1.25 -4.6 -0.7 Q-4.75 -0.05 -5.05 0.45 -5.55 1.0 -6.9 0.9 L-7.2 0.95 -7.25 0.95 -7.4 1.3 -7.3 1.65 -7.0 1.8 -6.55 1.8 Q-4.95 1.85 -4.3 0.9 L-4.0 0.35 -3.5 0.95 Q-2.5 2.05 0.2 1.7 L0.45 1.5 0.55 1.2 0.35 0.9 0.05 0.8" fill="#f67065" fill-rule="evenodd" stroke="none"/>
    <path d="M12.15 6.6 Q13.85 2.8 11.1 -2.4 10.35 -5.0 11.2 -6.0 L11.35 -6.0 Q12.3 -6.9 13.6 -6.95 L14.15 -6.95 14.35 -6.9 14.35 -6.85 14.45 -6.85 15.95 -6.1 16.75 -4.95 18.3 -1.3 Q19.75 2.45 18.4 6.55 L16.8 10.55 16.1 11.6 Q15.15 12.6 13.75 12.65 L12.8 12.45 Q12.05 12.2 11.4 11.6 11.1 11.25 10.95 10.75 10.75 9.8 11.15 8.25 L12.15 6.6" fill="url(#gradient2)" fill-rule="evenodd" stroke="none"/>
    <path d="M9.15 13.65 Q9.6 14.55 10.85 15.7 L2.5 19.55 3.7 17.45 1.3 15.4 Q0.55 14.5 0.3 13.75 L0.2 13.35 Q-0.2 11.45 1.1 9.35 2.4 7.25 9.45 3.5 L12.15 6.6 11.15 8.25 Q10.75 9.8 10.95 10.75 9.5 11.35 9.05 12.3 8.75 12.85 9.15 13.65" fill="url(#gradient3)" fill-rule="evenodd" stroke="none"/>
    <path d="M1.3 15.4 L3.0 18.35 -0.15 20.3 -7.35 20.3 -5.7 19.35 Q-6.75 17.95 -7.8 15.25 L-8.8 12.2 Q-7.5 13.0 -5.75 13.4 L-4.25 13.65 0.3 13.75 Q0.55 14.5 1.3 15.4" fill="url(#gradient4)" fill-rule="evenodd" stroke="none"/>
    <path d="M-12.4 5.5 L-14.15 6.3 -18.5 7.6 -19.85 7.8 -20.2 7.75 Q-21.6 7.75 -22.25 6.6 -22.9 5.4 -22.4 3.8 -21.95 2.15 -17.85 1.6 -13.75 1.05 -12.8 -5.05 L-12.5 -5.55 -12.45 5.2 -12.4 5.5" fill="url(#gradient5)" fill-rule="evenodd" stroke="none"/>
  </g>
  <defs>
    <linearGradient gradientTransform="matrix(0.0, 0.0067, -0.004, 0.0, -10.5, 3.2)" gradientUnits="userSpaceOnUse" id="gradient0" spreadMethod="pad" x1="-819.2" x2="819.2">
      <stop offset="0.0" stop-color="#ac3d4f"/>
      <stop offset="0.7372549019607844" stop-color="#76334e"/>
    </linearGradient>
    <linearGradient gradientTransform="matrix(0.0, 0.0187, -0.0179, 0.0, 2.15, -2.45)" gradientUnits="userSpaceOnUse" id="gradient1" spreadMethod="pad" x1="-819.2" x2="819.2">
      <stop offset="0.0" stop-color="#f15341"/>
      <stop offset="0.2823529411764706" stop-color="#d04050"/>
      <stop offset="0.8666666666666667" stop-color="#92474f"/>
    </linearGradient>
    <linearGradient gradientTransform="matrix(1.0E-4, 0.0069, -0.004, 0.0, 13.7, 0.8)" gradientUnits="userSpaceOnUse" id="gradient2" spreadMethod="pad" x1="-819.2" x2="819.2">
      <stop offset="0.0" stop-color="#c54150"/>
      <stop offset="0.7333333333333333" stop-color="#ec5044"/>
    </linearGradient>
    <linearGradient gradientTransform="matrix(0.0013, 0.0048, -0.0089, 0.0023, 7.7, 12.1)" gradientUnits="userSpaceOnUse" id="gradient3" spreadMethod="pad" x1="-819.2" x2="819.2">
      <stop offset="0.5254901960784314" stop-color="#a5444f"/>
      <stop offset="1.0" stop-color="#7c384b"/>
    </linearGradient>
    <linearGradient gradientTransform="matrix(0.0014, 0.0054, -0.0065, 0.0017, -3.45, 13.55)" gradientUnits="userSpaceOnUse" id="gradient4" spreadMethod="pad" x1="-819.2" x2="819.2">
      <stop offset="0.0" stop-color="#9c414e"/>
      <stop offset="0.5215686274509804" stop-color="#79374b"/>
    </linearGradient>
    <linearGradient gradientTransform="matrix(-0.0022, 0.0063, -0.0037, -0.0013, -13.05, 1.1)" gradientUnits="userSpaceOnUse" id="gradient5" spreadMethod="pad" x1="-819.2" x2="819.2">
      <stop offset="0.0" stop-color="#ac3d4f"/>
      <stop offset="0.7372549019607844" stop-color="#76334e"/>
    </linearGradient>
  </defs>
</svg>
