<?xml version="1.0" encoding="UTF-8" standalone="no"?>
<svg xmlns:ffdec="https://www.free-decompiler.com/flash" xmlns:xlink="http://www.w3.org/1999/xlink" ffdec:objectType="shape" height="40.4px" width="50.9px" xmlns="http://www.w3.org/2000/svg">
  <g transform="matrix(1.0, 0.0, 0.0, 1.0, 25.0, 20.0)">
    <path d="M12.15 -18.45 Q12.75 -19.55 14.05 -19.9 15.45 -20.2 16.7 -19.5 L16.75 -19.45 Q18.0 -18.75 18.35 -17.4 18.7 -16.0 18.0 -14.7 L16.55 -12.25 15.75 -11.0 14.8 -13.0 16.25 -15.15 Q16.6 -15.75 16.4 -16.5 L15.6 -17.55 14.25 -17.75 Q13.85 -17.65 13.55 -17.35 L13.25 -16.9 12.45 -15.45 10.95 -16.3 12.15 -18.45" fill="url(#gradient0)" fill-rule="evenodd" stroke="none"/>
    <path d="M12.15 -18.45 L10.95 -16.3 12.45 -15.45 Q13.9 -14.5 14.8 -13.0 L15.75 -11.0 16.55 -12.25 16.75 -7.1 15.6 -7.5 14.85 -7.45 13.95 -7.25 13.85 -7.15 13.85 -7.2 13.65 -7.15 13.2 -6.85 Q12.2 -6.05 11.9 -4.75 L11.8 -4.65 Q11.7 -3.4 13.75 -1.65 L16.75 0.3 16.7 4.3 Q16.1 11.15 10.0 12.5 L8.5 12.75 4.9 12.75 4.7 12.75 Q5.6 11.9 8.05 11.95 10.55 11.9 11.5 12.0 L8.65 4.3 Q-1.5 2.95 -3.2 7.7 -4.0 10.05 -3.7 12.7 L-5.75 12.4 Q-7.35 12.05 -8.6 11.3 -12.0 9.25 -12.45 4.2 L-12.5 3.2 -12.5 -3.6 -12.5 -10.25 -12.35 -11.6 -12.2 -11.15 -11.75 -11.7 -10.95 -13.0 Q-9.85 -14.4 -8.3 -15.1 L-6.65 -15.75 -7.45 -17.8 -7.8 -18.5 Q-5.45 -20.0 -2.5 -20.0 L6.75 -20.0 Q9.8 -20.0 12.15 -18.45 M6.7 -9.6 L5.85 -9.85 5.0 -9.6 4.75 -9.4 Q4.3 -8.95 4.3 -8.3 4.3 -7.65 4.75 -7.2 5.2 -6.75 5.85 -6.75 6.5 -6.75 6.95 -7.2 7.4 -7.65 7.4 -8.3 7.4 -8.95 6.95 -9.4 L6.7 -9.6 M0.45 -7.7 L-0.9 -7.9 -2.65 -7.9 Q-4.1 -7.9 -5.2 -7.2 L-5.05 -7.2 -6.1 -6.4 -6.65 -5.75 Q-7.55 -4.45 -7.55 -2.85 L-7.55 -1.95 Q-7.55 -0.85 -7.1 0.1 L-7.0 0.3 -6.1 1.55 Q-4.6 3.05 -2.55 3.05 L-0.7 3.05 Q1.35 3.05 2.8 1.55 4.3 0.1 4.3 -1.95 L4.3 -2.85 Q4.3 -4.9 2.8 -6.4 1.75 -7.45 0.45 -7.7 M-6.35 -9.4 L-6.45 -9.5 -7.45 -9.85 Q-8.0 -9.85 -8.45 -9.5 L-8.55 -9.4 Q-9.0 -8.95 -9.0 -8.3 -9.0 -7.65 -8.55 -7.2 -8.1 -6.75 -7.45 -6.75 -6.8 -6.75 -6.35 -7.2 -5.9 -7.65 -5.9 -8.3 -5.9 -8.95 -6.35 -9.4" fill="url(#gradient1)" fill-rule="evenodd" stroke="none"/>
    <path d="M12.45 -15.45 L13.25 -16.9 13.55 -17.35 Q13.85 -17.65 14.25 -17.75 L15.6 -17.55 16.4 -16.5 Q16.6 -15.75 16.25 -15.15 L14.8 -13.0 Q13.9 -14.5 12.45 -15.45 M-10.95 -13.0 L-12.05 -15.35 Q-12.3 -16.0 -12.0 -16.75 L-11.1 -17.65 Q-10.4 -17.95 -9.75 -17.65 L-9.3 -17.35 -8.85 -16.65 -8.3 -15.1 Q-9.85 -14.4 -10.95 -13.0" fill="#e34a48" fill-rule="evenodd" stroke="none"/>
    <path d="M6.7 -9.6 L6.95 -9.4 Q7.4 -8.95 7.4 -8.3 7.4 -7.65 6.95 -7.2 6.5 -6.75 5.85 -6.75 5.2 -6.75 4.75 -7.2 4.3 -7.65 4.3 -8.3 4.3 -8.95 4.75 -9.4 L5.0 -9.6 5.85 -9.85 6.7 -9.6 M1.05 -0.2 L1.35 -0.1 1.55 0.2 1.45 0.5 1.2 0.7 Q-1.5 1.05 -2.5 -0.05 L-3.0 -0.65 -3.3 -0.1 Q-3.95 0.85 -5.55 0.8 L-6.0 0.8 -6.3 0.65 -6.4 0.3 -6.25 -0.05 -6.2 -0.05 -5.9 -0.1 Q-4.55 0.0 -4.05 -0.55 -3.75 -1.05 -3.6 -1.7 L-4.25 -2.25 -5.7 -4.7 -5.85 -5.65 Q-5.8 -6.15 -5.4 -6.45 -5.05 -6.8 -4.55 -6.8 L-1.65 -6.8 Q-1.15 -6.8 -0.8 -6.45 L-0.3 -5.65 -0.45 -4.75 -1.9 -2.3 -2.5 -1.75 -1.85 -0.65 Q-1.05 0.05 1.05 -0.2 M-6.35 -9.4 Q-5.9 -8.95 -5.9 -8.3 -5.9 -7.65 -6.35 -7.2 -6.8 -6.75 -7.45 -6.75 -8.1 -6.75 -8.55 -7.2 -9.0 -7.65 -9.0 -8.3 -9.0 -8.95 -8.55 -9.4 L-8.45 -9.5 Q-8.0 -9.85 -7.45 -9.85 L-6.45 -9.5 -6.35 -9.4" fill="#511a38" fill-rule="evenodd" stroke="none"/>
    <path d="M0.45 -7.7 Q1.75 -7.45 2.8 -6.4 4.3 -4.9 4.3 -2.85 L4.3 -1.95 Q4.3 0.1 2.8 1.55 1.35 3.05 -0.7 3.05 L-2.55 3.05 Q-4.6 3.05 -6.1 1.55 L-7.0 0.3 -7.1 0.1 Q-7.55 -0.85 -7.55 -1.95 L-7.55 -2.85 Q-7.55 -4.45 -6.65 -5.75 L-6.1 -6.4 -5.05 -7.2 -5.2 -7.2 Q-4.1 -7.9 -2.65 -7.9 L-0.9 -7.9 0.45 -7.7 M1.05 -0.2 Q-1.05 0.05 -1.85 -0.65 L-2.5 -1.75 -1.9 -2.3 -0.45 -4.75 -0.3 -5.65 -0.8 -6.45 Q-1.15 -6.8 -1.65 -6.8 L-4.55 -6.8 Q-5.05 -6.8 -5.4 -6.45 -5.8 -6.15 -5.85 -5.65 L-5.7 -4.7 -4.25 -2.25 -3.6 -1.7 Q-3.75 -1.05 -4.05 -0.55 -4.55 0.0 -5.9 -0.1 L-6.2 -0.05 -6.25 -0.05 -6.4 0.3 -6.3 0.65 -6.0 0.8 -5.55 0.8 Q-3.95 0.85 -3.3 -0.1 L-3.0 -0.65 -2.5 -0.05 Q-1.5 1.05 1.2 0.7 L1.45 0.5 1.55 0.2 1.35 -0.1 1.05 -0.2" fill="#f67065" fill-rule="evenodd" stroke="none"/>
    <path d="M16.75 -7.1 L20.3 -4.9 Q23.65 -2.65 24.9 1.45 L25.85 5.65 25.9 6.9 Q25.65 8.3 24.55 9.1 23.45 9.8 22.05 9.6 20.75 9.4 19.95 7.0 20.1 3.05 16.75 0.3 L13.75 -1.65 Q11.7 -3.4 11.8 -4.65 L11.9 -4.75 Q12.2 -6.05 13.2 -6.85 L13.65 -7.15 13.85 -7.2 13.85 -7.15 13.95 -7.25 14.85 -7.45 15.6 -7.5 16.75 -7.1" fill="url(#gradient2)" fill-rule="evenodd" stroke="none"/>
    <path d="M-4.75 16.0 L-6.55 15.6 -5.5 15.35 -3.3 14.7 -3.7 12.7 Q-4.0 10.05 -3.2 7.7 -1.5 2.95 8.65 4.3 L11.5 12.0 Q10.55 11.9 8.05 11.95 5.6 11.9 4.7 12.75 L4.6 12.8 4.5 12.9 Q3.75 13.7 3.3 16.15 L3.05 17.75 -1.9 16.65 -3.05 16.4 -4.75 16.0" fill="url(#gradient3)" fill-rule="evenodd" stroke="none"/>
    <path d="M4.5 12.9 Q3.7 13.8 5.05 15.95 L3.3 16.15 Q3.75 13.7 4.5 12.9 M-1.9 16.65 L-3.55 16.8 -3.05 16.4 -1.9 16.65" fill="url(#gradient4)" fill-rule="evenodd" stroke="none"/>
    <path d="M4.9 12.75 L8.05 15.15 4.2 20.4 0.35 20.4 1.6 19.6 Q-0.1 19.15 -3.2 17.15 L-4.75 16.0 -3.05 16.4 -3.55 16.8 -1.9 16.65 3.05 17.75 3.3 16.15 5.05 15.95 Q3.7 13.8 4.5 12.9 L4.6 12.8 4.7 12.75 4.9 12.75 M-5.5 15.35 L-7.7 12.65 -8.6 11.3 Q-7.35 12.05 -5.75 12.4 L-3.7 12.7 -3.3 14.7 -5.5 15.35" fill="url(#gradient5)" fill-rule="evenodd" stroke="none"/>
    <path d="M-12.35 -11.6 L-13.85 -15.15 Q-14.4 -16.5 -13.8 -17.85 -13.35 -19.15 -11.95 -19.65 L-9.25 -19.75 Q-8.35 -19.35 -7.8 -18.5 L-7.45 -17.8 -6.65 -15.75 -8.3 -15.1 -8.85 -16.65 -9.3 -17.35 -9.75 -17.65 Q-10.4 -17.95 -11.1 -17.65 L-12.0 -16.75 Q-12.3 -16.0 -12.05 -15.35 L-10.95 -13.0 -11.75 -11.7 -12.2 -11.15 -12.35 -11.6" fill="url(#gradient6)" fill-rule="evenodd" stroke="none"/>
    <path d="M-12.5 3.2 Q-15.25 4.5 -17.85 3.95 L-22.25 2.9 -23.55 2.4 -23.8 2.15 Q-25.0 1.45 -25.0 0.15 -25.0 -1.2 -23.75 -2.35 -22.5 -3.55 -18.7 -1.95 -15.6 -0.7 -12.5 -3.6 L-12.5 3.2" fill="url(#gradient7)" fill-rule="evenodd" stroke="none"/>
  </g>
  <defs>
    <linearGradient gradientTransform="matrix(0.0, 0.0067, -0.004, 0.0, -9.5, 2.2)" gradientUnits="userSpaceOnUse" id="gradient0" spreadMethod="pad" x1="-819.2" x2="819.2">
      <stop offset="0.0" stop-color="#ac3d4f"/>
      <stop offset="0.7372549019607844" stop-color="#76334e"/>
    </linearGradient>
    <linearGradient gradientTransform="matrix(0.0, 0.0187, -0.0179, 0.0, 2.15, -3.45)" gradientUnits="userSpaceOnUse" id="gradient1" spreadMethod="pad" x1="-819.2" x2="819.2">
      <stop offset="0.0" stop-color="#f15341"/>
      <stop offset="0.2823529411764706" stop-color="#d04050"/>
      <stop offset="0.8666666666666667" stop-color="#92474f"/>
    </linearGradient>
    <linearGradient gradientTransform="matrix(0.004, 0.0057, -0.0033, 0.0023, 17.75, -0.55)" gradientUnits="userSpaceOnUse" id="gradient2" spreadMethod="pad" x1="-819.2" x2="819.2">
      <stop offset="0.0" stop-color="#c54150"/>
      <stop offset="0.7333333333333333" stop-color="#ec5044"/>
    </linearGradient>
    <linearGradient gradientTransform="matrix(0.0054, 0.0031, -0.0053, 0.0092, 3.7, 11.4)" gradientUnits="userSpaceOnUse" id="gradient3" spreadMethod="pad" x1="-819.2" x2="819.2">
      <stop offset="0.5254901960784314" stop-color="#a5444f"/>
      <stop offset="1.0" stop-color="#7c384b"/>
    </linearGradient>
    <linearGradient gradientTransform="matrix(0.0017, 0.0037, -0.0091, 0.004, 3.25, 11.95)" gradientUnits="userSpaceOnUse" id="gradient4" spreadMethod="pad" x1="-819.2" x2="819.2">
      <stop offset="0.5254901960784314" stop-color="#a5444f"/>
      <stop offset="1.0" stop-color="#7c384b"/>
    </linearGradient>
    <linearGradient gradientTransform="matrix(0.0025, 0.0043, -0.0066, 0.0038, -1.15, 11.75)" gradientUnits="userSpaceOnUse" id="gradient5" spreadMethod="pad" x1="-819.2" x2="819.2">
      <stop offset="0.0" stop-color="#9c414e"/>
      <stop offset="0.5215686274509804" stop-color="#79374b"/>
    </linearGradient>
    <linearGradient gradientTransform="matrix(0.0, 0.0067, -0.004, 0.0, -10.5, 2.2)" gradientUnits="userSpaceOnUse" id="gradient6" spreadMethod="pad" x1="-819.2" x2="819.2">
      <stop offset="0.0" stop-color="#ac3d4f"/>
      <stop offset="0.7372549019607844" stop-color="#76334e"/>
    </linearGradient>
    <linearGradient gradientTransform="matrix(-0.0051, 0.0043, -0.0026, -0.003, -14.3, 0.0)" gradientUnits="userSpaceOnUse" id="gradient7" spreadMethod="pad" x1="-819.2" x2="819.2">
      <stop offset="0.0" stop-color="#ac3d4f"/>
      <stop offset="0.7372549019607844" stop-color="#76334e"/>
    </linearGradient>
  </defs>
</svg>
