<?xml version="1.0" encoding="UTF-8" standalone="no"?>
<svg xmlns:ffdec="https://www.free-decompiler.com/flash" xmlns:xlink="http://www.w3.org/1999/xlink" ffdec:objectType="shape" height="41.8px" width="45.3px" xmlns="http://www.w3.org/2000/svg">
  <g transform="matrix(1.0, 0.0, 0.0, 1.0, 22.25, 23.25)">
    <path d="M12.6 -21.4 L12.65 -21.5 Q13.25 -22.75 14.65 -23.15 16.05 -23.45 17.3 -22.75 L17.35 -22.7 Q18.6 -22.0 18.95 -20.65 19.3 -19.25 18.6 -17.95 L16.65 -14.75 16.35 -14.25 15.4 -16.25 16.85 -18.4 Q17.2 -19.0 17.0 -19.75 16.8 -20.4 16.2 -20.8 L14.85 -21.0 13.9 -20.25 13.05 -18.7 11.55 -19.55 12.6 -21.4" fill="url(#gradient0)" fill-rule="evenodd" stroke="none"/>
    <path d="M13.05 -18.7 L13.9 -20.25 14.85 -21.0 16.2 -20.8 Q16.8 -20.4 17.0 -19.75 17.2 -19.0 16.85 -18.4 L15.4 -16.25 Q14.5 -17.75 13.05 -18.7 M-8.3 -18.35 Q-9.85 -17.65 -10.95 -16.25 L-12.05 -18.6 Q-12.3 -19.25 -12.0 -20.0 L-11.1 -20.9 Q-10.4 -21.2 -9.75 -20.9 L-9.3 -20.6 -8.85 -19.9 -8.3 -18.35" fill="#e34a48" fill-rule="evenodd" stroke="none"/>
    <path d="M12.6 -21.4 L11.55 -19.55 13.05 -18.7 Q14.5 -17.75 15.4 -16.25 L16.35 -14.25 16.65 -14.75 16.75 -9.25 15.15 -10.25 14.4 -10.35 13.45 -10.3 13.35 -10.2 13.35 -10.25 13.15 -10.25 Q13.0 -10.15 12.65 -10.0 11.55 -9.4 11.05 -8.2 L10.95 -8.1 Q10.6 -6.9 12.35 -4.85 15.75 -2.25 16.75 0.65 L16.7 1.05 Q16.1 7.9 10.0 9.25 L8.5 9.5 5.9 9.5 5.65 9.5 11.9 8.55 8.3 1.5 8.2 1.25 Q-0.75 1.7 -2.55 6.05 -3.2 7.6 -3.2 9.45 L-3.25 9.45 -4.25 9.4 -5.75 9.15 Q-7.3 8.8 -8.5 8.1 -11.3 6.45 -12.15 2.85 L-12.45 0.95 -12.5 -3.55 -12.5 -13.5 -12.35 -14.85 -12.2 -14.4 -11.75 -14.95 -10.95 -16.25 Q-9.85 -17.65 -8.3 -18.35 L-6.65 -19.0 -7.45 -21.05 -7.8 -21.75 Q-5.45 -23.25 -2.5 -23.25 L6.75 -23.25 Q10.05 -23.25 12.6 -21.4 M7.55 -12.65 L7.3 -12.85 6.45 -13.1 5.6 -12.85 5.35 -12.65 Q4.9 -12.2 4.9 -11.55 4.9 -10.9 5.35 -10.45 5.8 -10.0 6.45 -10.0 7.1 -10.0 7.55 -10.45 8.0 -10.9 8.0 -11.55 8.0 -12.2 7.55 -12.65 M1.45 -10.95 L0.1 -11.15 -1.65 -11.15 Q-3.1 -11.15 -4.2 -10.45 L-4.05 -10.45 -5.1 -9.65 -5.65 -9.0 Q-6.55 -7.7 -6.55 -6.1 L-6.55 -5.2 Q-6.55 -4.1 -6.1 -3.15 L-6.0 -2.95 -5.1 -1.7 Q-3.6 -0.2 -1.55 -0.2 L0.3 -0.2 Q2.35 -0.2 3.8 -1.7 5.3 -3.15 5.3 -5.2 L5.3 -6.1 Q5.3 -8.15 3.8 -9.65 2.75 -10.7 1.45 -10.95 M-6.85 -13.1 L-7.85 -12.75 -7.95 -12.65 Q-8.4 -12.2 -8.4 -11.55 -8.4 -10.9 -7.95 -10.45 -7.5 -10.0 -6.85 -10.0 -6.2 -10.0 -5.75 -10.45 -5.3 -10.9 -5.3 -11.55 -5.3 -12.2 -5.75 -12.65 L-5.85 -12.75 Q-6.3 -13.1 -6.85 -13.1" fill="url(#gradient1)" fill-rule="evenodd" stroke="none"/>
    <path d="M7.55 -12.65 Q8.0 -12.2 8.0 -11.55 8.0 -10.9 7.55 -10.45 7.1 -10.0 6.45 -10.0 5.8 -10.0 5.35 -10.45 4.9 -10.9 4.9 -11.55 4.9 -12.2 5.35 -12.65 L5.6 -12.85 6.45 -13.1 7.3 -12.85 7.55 -12.65 M2.85 -3.45 L3.15 -3.35 3.35 -3.05 3.25 -2.75 3.0 -2.55 Q0.3 -2.2 -0.7 -3.3 L-1.2 -3.9 -1.5 -3.35 Q-2.15 -2.4 -3.75 -2.45 L-4.2 -2.45 Q-4.4 -2.45 -4.5 -2.6 L-4.6 -2.95 -4.45 -3.3 -4.4 -3.3 -4.1 -3.35 Q-2.75 -3.25 -2.25 -3.8 -1.95 -4.3 -1.8 -4.95 L-2.45 -5.5 -3.9 -7.95 -4.05 -8.9 Q-4.0 -9.4 -3.6 -9.7 -3.25 -10.05 -2.75 -10.05 L0.15 -10.05 Q0.65 -10.05 1.0 -9.7 L1.5 -8.9 1.35 -8.0 -0.1 -5.55 -0.7 -5.0 -0.05 -3.9 Q0.75 -3.2 2.85 -3.45 M-6.85 -13.1 Q-6.3 -13.1 -5.85 -12.75 L-5.75 -12.65 Q-5.3 -12.2 -5.3 -11.55 -5.3 -10.9 -5.75 -10.45 -6.2 -10.0 -6.85 -10.0 -7.5 -10.0 -7.95 -10.45 -8.4 -10.9 -8.4 -11.55 -8.4 -12.2 -7.95 -12.65 L-7.85 -12.75 -6.85 -13.1" fill="#511a38" fill-rule="evenodd" stroke="none"/>
    <path d="M2.85 -3.45 Q0.75 -3.2 -0.05 -3.9 L-0.7 -5.0 -0.1 -5.55 1.35 -8.0 1.5 -8.9 1.0 -9.7 Q0.65 -10.05 0.15 -10.05 L-2.75 -10.05 Q-3.25 -10.05 -3.6 -9.7 -4.0 -9.4 -4.05 -8.9 L-3.9 -7.95 -2.45 -5.5 -1.8 -4.95 Q-1.95 -4.3 -2.25 -3.8 -2.75 -3.25 -4.1 -3.35 L-4.4 -3.3 -4.45 -3.3 -4.6 -2.95 -4.5 -2.6 Q-4.4 -2.45 -4.2 -2.45 L-3.75 -2.45 Q-2.15 -2.4 -1.5 -3.35 L-1.2 -3.9 -0.7 -3.3 Q0.3 -2.2 3.0 -2.55 L3.25 -2.75 3.35 -3.05 3.15 -3.35 2.85 -3.45 M1.45 -10.95 Q2.75 -10.7 3.8 -9.65 5.3 -8.15 5.3 -6.1 L5.3 -5.2 Q5.3 -3.15 3.8 -1.7 2.35 -0.2 0.3 -0.2 L-1.55 -0.2 Q-3.6 -0.2 -5.1 -1.7 L-6.0 -2.95 -6.1 -3.15 Q-6.55 -4.1 -6.55 -5.2 L-6.55 -6.1 Q-6.55 -7.7 -5.65 -9.0 L-5.1 -9.65 -4.05 -10.45 -4.2 -10.45 Q-3.1 -11.15 -1.65 -11.15 L0.1 -11.15 1.45 -10.95" fill="#f67065" fill-rule="evenodd" stroke="none"/>
    <path d="M16.75 -9.25 L19.35 -6.95 Q22.25 -4.1 22.8 0.15 L23.05 4.4 22.9 5.65 Q22.4 7.0 21.15 7.6 L18.65 7.65 Q17.35 7.25 16.95 4.75 17.4 2.6 16.75 0.65 15.75 -2.25 12.35 -4.85 10.6 -6.9 10.95 -8.1 L11.05 -8.2 Q11.55 -9.4 12.65 -10.0 13.0 -10.15 13.15 -10.25 L13.35 -10.25 13.35 -10.2 13.45 -10.3 14.4 -10.35 15.15 -10.25 16.75 -9.25" fill="url(#gradient2)" fill-rule="evenodd" stroke="none"/>
    <path d="M5.05 13.2 L5.2 13.85 4.85 13.95 -0.7 15.1 -4.85 15.95 -3.4 14.65 -3.25 14.45 -2.6 13.85 -3.2 10.7 -3.2 9.45 Q-3.2 7.6 -2.55 6.05 -0.75 1.7 8.2 1.25 L8.3 1.5 11.9 8.55 5.65 9.5 Q5.35 9.6 4.8 10.5 4.5 11.0 5.05 13.2" fill="url(#gradient3)" fill-rule="evenodd" stroke="none"/>
    <path d="M5.9 9.5 L5.05 13.2 Q4.5 11.0 4.8 10.5 5.35 9.6 5.65 9.5 L5.9 9.5 M4.85 13.95 L3.75 18.55 2.75 15.15 -0.7 15.1 4.85 13.95 M-3.4 14.65 Q-4.8 14.2 -5.5 13.5 -7.25 11.65 -7.9 9.85 L-8.5 8.1 Q-7.3 8.8 -5.75 9.15 L-4.25 9.4 -3.25 9.45 -3.2 9.45 -3.2 10.7 -2.6 13.85 -3.25 14.45 -3.4 14.65" fill="url(#gradient4)" fill-rule="evenodd" stroke="none"/>
    <path d="M-12.35 -14.85 L-13.85 -18.4 Q-14.4 -19.75 -13.8 -21.1 -13.35 -22.4 -11.95 -22.9 L-9.25 -23.0 Q-8.35 -22.55 -7.8 -21.75 L-7.45 -21.05 -6.65 -19.0 -8.3 -18.35 -8.85 -19.9 -9.3 -20.6 -9.75 -20.9 Q-10.4 -21.2 -11.1 -20.9 L-12.0 -20.0 Q-12.3 -19.25 -12.05 -18.6 L-10.95 -16.25 -11.75 -14.95 -12.2 -14.4 -12.35 -14.85" fill="url(#gradient5)" fill-rule="evenodd" stroke="none"/>
    <path d="M-12.15 2.85 L-14.3 3.25 -18.8 3.4 -20.2 3.25 -20.5 3.1 Q-21.8 2.7 -22.15 1.45 -22.5 0.15 -21.6 -1.25 -20.7 -2.8 -16.6 -2.2 -14.3 -1.9 -12.5 -3.55 L-12.45 0.95 -12.15 2.85" fill="url(#gradient6)" fill-rule="evenodd" stroke="none"/>
  </g>
  <defs>
    <linearGradient gradientTransform="matrix(0.0, 0.0067, -0.004, 0.0, -8.9, -1.05)" gradientUnits="userSpaceOnUse" id="gradient0" spreadMethod="pad" x1="-819.2" x2="819.2">
      <stop offset="0.0" stop-color="#ac3d4f"/>
      <stop offset="0.7372549019607844" stop-color="#76334e"/>
    </linearGradient>
    <linearGradient gradientTransform="matrix(0.0, 0.0187, -0.0179, 0.0, 2.15, -6.7)" gradientUnits="userSpaceOnUse" id="gradient1" spreadMethod="pad" x1="-819.2" x2="819.2">
      <stop offset="0.0" stop-color="#f15341"/>
      <stop offset="0.2823529411764706" stop-color="#d04050"/>
      <stop offset="0.8666666666666667" stop-color="#92474f"/>
    </linearGradient>
    <linearGradient gradientTransform="matrix(0.003, 0.0063, -0.0036, 0.0017, 16.1, -3.05)" gradientUnits="userSpaceOnUse" id="gradient2" spreadMethod="pad" x1="-819.2" x2="819.2">
      <stop offset="0.0" stop-color="#c54150"/>
      <stop offset="0.7333333333333333" stop-color="#ec5044"/>
    </linearGradient>
    <linearGradient gradientTransform="matrix(0.0057, 0.0025, -0.0042, 0.0097, 4.1, 8.9)" gradientUnits="userSpaceOnUse" id="gradient3" spreadMethod="pad" x1="-819.2" x2="819.2">
      <stop offset="0.5254901960784314" stop-color="#a5444f"/>
      <stop offset="1.0" stop-color="#7c384b"/>
    </linearGradient>
    <linearGradient gradientTransform="matrix(0.0025, 0.0043, -0.0066, 0.0038, -1.15, 8.5)" gradientUnits="userSpaceOnUse" id="gradient4" spreadMethod="pad" x1="-819.2" x2="819.2">
      <stop offset="0.0" stop-color="#9c414e"/>
      <stop offset="0.5215686274509804" stop-color="#79374b"/>
    </linearGradient>
    <linearGradient gradientTransform="matrix(0.0, 0.0067, -0.004, 0.0, -10.5, -1.05)" gradientUnits="userSpaceOnUse" id="gradient5" spreadMethod="pad" x1="-819.2" x2="819.2">
      <stop offset="0.0" stop-color="#ac3d4f"/>
      <stop offset="0.7372549019607844" stop-color="#76334e"/>
    </linearGradient>
    <linearGradient gradientTransform="matrix(-0.0038, 0.0055, -0.0033, -0.0022, -11.85, -1.45)" gradientUnits="userSpaceOnUse" id="gradient6" spreadMethod="pad" x1="-819.2" x2="819.2">
      <stop offset="0.0" stop-color="#ac3d4f"/>
      <stop offset="0.7372549019607844" stop-color="#76334e"/>
    </linearGradient>
  </defs>
</svg>
