<?xml version="1.0" encoding="UTF-8" standalone="no"?>
<svg xmlns:ffdec="https://www.free-decompiler.com/flash" xmlns:xlink="http://www.w3.org/1999/xlink" ffdec:objectType="shape" height="41.25px" width="34.55px" xmlns="http://www.w3.org/2000/svg">
  <g transform="matrix(1.0, 0.0, 0.0, 1.0, 16.1, 21.25)">
    <path d="M12.15 -19.7 Q12.75 -20.8 14.05 -21.15 15.45 -21.45 16.7 -20.75 L16.75 -20.7 Q18.0 -20.0 18.35 -18.65 18.7 -17.25 18.0 -15.95 L16.55 -13.5 15.75 -12.25 14.8 -14.25 16.25 -16.4 Q16.6 -17.0 16.4 -17.75 L15.6 -18.8 14.25 -19.0 Q13.85 -18.9 13.55 -18.6 L13.25 -18.15 12.45 -16.7 10.95 -17.55 12.15 -19.7 M-12.0 -14.4 L-12.85 -16.4 Q-13.4 -17.75 -12.8 -19.1 -12.35 -20.4 -10.95 -20.9 L-8.25 -21.0 -7.1 -20.15 -6.45 -19.05 -5.65 -17.0 -7.3 -16.35 -7.85 -17.9 Q-8.05 -18.6 -8.75 -18.9 L-8.9 -18.95 -10.1 -18.9 -11.0 -18.0 Q-11.3 -17.25 -11.05 -16.6 L-9.95 -14.25 -10.75 -12.95 -11.2 -12.4 -12.0 -14.4" fill="url(#gradient0)" fill-rule="evenodd" stroke="none"/>
    <path d="M12.15 -19.7 L10.95 -17.55 12.45 -16.7 Q13.9 -15.75 14.8 -14.25 L15.75 -12.25 16.55 -13.5 16.75 -11.25 16.75 -3.7 Q15.8 -6.15 15.05 -6.9 L14.4 -7.3 13.5 -7.65 13.35 -7.65 13.4 -7.7 13.25 -7.8 12.7 -7.75 Q11.4 -7.7 10.45 -6.85 L10.3 -6.8 Q9.45 -5.85 10.15 -3.3 13.4 3.15 10.0 7.4 L9.8 8.2 9.05 8.0 9.2 8.1 5.1 6.8 3.1 8.0 Q1.7 8.95 0.75 10.3 L0.15 11.5 -4.25 11.4 -5.75 11.15 Q-8.9 10.45 -10.55 8.3 -11.9 6.6 -12.3 4.05 L-12.5 2.0 -12.5 -11.5 Q-12.45 -13.05 -12.0 -14.4 L-11.2 -12.4 -10.75 -12.95 -9.95 -14.25 Q-8.85 -15.65 -7.3 -16.35 L-5.65 -17.0 -6.45 -19.05 -7.1 -20.15 Q-5.05 -21.25 -2.5 -21.25 L6.75 -21.25 Q9.8 -21.25 12.15 -19.7 M6.7 -10.85 L5.85 -11.1 5.0 -10.85 4.75 -10.65 Q4.3 -10.2 4.3 -9.55 4.3 -8.9 4.75 -8.45 5.2 -8.0 5.85 -8.0 6.5 -8.0 6.95 -8.45 7.4 -8.9 7.4 -9.55 7.4 -10.2 6.95 -10.65 L6.7 -10.85 M0.85 -8.95 L-0.5 -9.15 -2.25 -9.15 Q-3.7 -9.15 -4.8 -8.45 L-4.65 -8.45 -5.7 -7.65 -6.25 -7.0 Q-7.15 -5.7 -7.15 -4.1 L-7.15 -3.2 Q-7.15 -2.1 -6.7 -1.15 L-6.6 -0.95 -5.7 0.3 Q-4.2 1.8 -2.15 1.8 L-0.3 1.8 Q1.75 1.8 3.2 0.3 4.7 -1.15 4.7 -3.2 L4.7 -4.1 Q4.7 -6.15 3.2 -7.65 2.15 -8.7 0.85 -8.95 M-5.9 -9.55 Q-5.9 -10.2 -6.35 -10.65 L-6.45 -10.75 -7.45 -11.1 Q-8.0 -11.1 -8.45 -10.75 L-8.55 -10.65 Q-9.0 -10.2 -9.0 -9.55 -9.0 -8.9 -8.55 -8.45 -8.1 -8.0 -7.45 -8.0 -6.8 -8.0 -6.35 -8.45 -5.9 -8.9 -5.9 -9.55" fill="url(#gradient1)" fill-rule="evenodd" stroke="none"/>
    <path d="M12.45 -16.7 L13.25 -18.15 13.55 -18.6 Q13.85 -18.9 14.25 -19.0 L15.6 -18.8 16.4 -17.75 Q16.6 -17.0 16.25 -16.4 L14.8 -14.25 Q13.9 -15.75 12.45 -16.7 M-9.95 -14.25 L-11.05 -16.6 Q-11.3 -17.25 -11.0 -18.0 L-10.1 -18.9 -8.9 -18.95 -8.75 -18.9 Q-8.05 -18.6 -7.85 -17.9 L-7.3 -16.35 Q-8.85 -15.65 -9.95 -14.25" fill="#e34a48" fill-rule="evenodd" stroke="none"/>
    <path d="M6.7 -10.85 L6.95 -10.65 Q7.4 -10.2 7.4 -9.55 7.4 -8.9 6.95 -8.45 6.5 -8.0 5.85 -8.0 5.2 -8.0 4.75 -8.45 4.3 -8.9 4.3 -9.55 4.3 -10.2 4.75 -10.65 L5.0 -10.85 5.85 -11.1 6.7 -10.85 M1.85 -1.45 L2.15 -1.35 2.35 -1.05 2.25 -0.75 2.0 -0.55 Q-0.7 -0.2 -1.7 -1.3 L-2.2 -1.9 -2.5 -1.35 Q-3.15 -0.4 -4.75 -0.45 L-5.2 -0.45 Q-5.4 -0.45 -5.5 -0.6 L-5.6 -0.95 -5.45 -1.3 -5.4 -1.3 -5.1 -1.35 Q-3.75 -1.25 -3.25 -1.8 -2.95 -2.3 -2.8 -2.95 L-3.45 -3.5 -4.9 -5.95 -5.05 -6.9 -4.6 -7.7 Q-4.25 -8.05 -3.75 -8.05 L-0.85 -8.05 Q-0.35 -8.05 0.0 -7.7 L0.5 -6.9 0.35 -6.0 -1.1 -3.55 Q-1.35 -3.15 -1.7 -3.0 L-1.05 -1.9 Q-0.25 -1.2 1.85 -1.45 M-5.9 -9.55 Q-5.9 -8.9 -6.35 -8.45 -6.8 -8.0 -7.45 -8.0 -8.1 -8.0 -8.55 -8.45 -9.0 -8.9 -9.0 -9.55 -9.0 -10.2 -8.55 -10.65 L-8.45 -10.75 Q-8.0 -11.1 -7.45 -11.1 L-6.45 -10.75 -6.35 -10.65 Q-5.9 -10.2 -5.9 -9.55" fill="#511a38" fill-rule="evenodd" stroke="none"/>
    <path d="M1.85 -1.45 Q-0.25 -1.2 -1.05 -1.9 L-1.7 -3.0 Q-1.35 -3.15 -1.1 -3.55 L0.35 -6.0 0.5 -6.9 0.0 -7.7 Q-0.35 -8.05 -0.85 -8.05 L-3.75 -8.05 Q-4.25 -8.05 -4.6 -7.7 L-5.05 -6.9 -4.9 -5.95 -3.45 -3.5 -2.8 -2.95 Q-2.95 -2.3 -3.25 -1.8 -3.75 -1.25 -5.1 -1.35 L-5.4 -1.3 -5.45 -1.3 -5.6 -0.95 -5.5 -0.6 Q-5.4 -0.45 -5.2 -0.45 L-4.75 -0.45 Q-3.15 -0.4 -2.5 -1.35 L-2.2 -1.9 -1.7 -1.3 Q-0.7 -0.2 2.0 -0.55 L2.25 -0.75 2.35 -1.05 2.15 -1.35 1.85 -1.45 M0.85 -8.95 Q2.15 -8.7 3.2 -7.65 4.7 -6.15 4.7 -4.1 L4.7 -3.2 Q4.7 -1.15 3.2 0.3 1.75 1.8 -0.3 1.8 L-2.15 1.8 Q-4.2 1.8 -5.7 0.3 L-6.6 -0.95 -6.7 -1.15 Q-7.15 -2.1 -7.15 -3.2 L-7.15 -4.1 Q-7.15 -5.7 -6.25 -7.0 L-5.7 -7.65 -4.65 -8.45 -4.8 -8.45 Q-3.7 -9.15 -2.25 -9.15 L-0.5 -9.15 0.85 -8.95" fill="#f67065" fill-rule="evenodd" stroke="none"/>
    <path d="M16.75 -3.7 L17.35 -2.05 Q18.7 1.8 17.3 5.85 L15.6 9.75 14.95 10.8 Q13.9 11.8 12.5 11.8 L11.7 11.65 10.3 10.75 Q9.45 9.95 9.8 8.2 L10.0 7.4 Q13.4 3.15 10.15 -3.3 9.45 -5.85 10.3 -6.8 L10.45 -6.85 Q11.4 -7.7 12.7 -7.75 L13.25 -7.8 13.4 -7.7 13.35 -7.65 13.5 -7.65 14.4 -7.3 15.05 -6.9 Q15.8 -6.15 16.75 -3.7" fill="url(#gradient2)" fill-rule="evenodd" stroke="none"/>
    <path d="M11.7 11.65 L11.1 11.95 Q8.45 13.2 8.75 16.6 8.9 18.3 9.6 20.0 L-2.5 20.0 0.85 18.75 -0.05 15.3 Q-0.4 13.05 0.15 11.5 L0.75 10.3 Q1.7 8.95 3.1 8.0 L5.1 6.8 9.2 8.1 9.05 8.0 9.8 8.2 Q9.45 9.95 10.3 10.75 L11.7 11.65" fill="url(#gradient3)" fill-rule="evenodd" stroke="none"/>
    <path d="M-0.05 15.3 L-0.1 15.25 Q-7.65 16.85 -9.4 13.3 -10.05 11.95 -10.4 9.45 L-10.55 8.55 -10.55 8.3 Q-8.9 10.45 -5.75 11.15 L-4.25 11.4 0.15 11.5 Q-0.4 13.05 -0.05 15.3" fill="url(#gradient4)" fill-rule="evenodd" stroke="none"/>
    <path d="M-10.4 9.45 L-12.65 10.6 -13.0 10.6 Q-14.35 10.9 -15.25 9.95 -16.2 9.05 -16.1 7.4 -16.15 5.6 -12.3 4.05 -11.9 6.6 -10.55 8.3 L-10.55 8.55 -10.4 9.45" fill="url(#gradient5)" fill-rule="evenodd" stroke="none"/>
  </g>
  <defs>
    <linearGradient gradientTransform="matrix(0.0, 0.0067, -0.004, 0.0, -9.5, 0.95)" gradientUnits="userSpaceOnUse" id="gradient0" spreadMethod="pad" x1="-819.2" x2="819.2">
      <stop offset="0.0" stop-color="#ac3d4f"/>
      <stop offset="0.7372549019607844" stop-color="#76334e"/>
    </linearGradient>
    <linearGradient gradientTransform="matrix(0.0, 0.0187, -0.0179, 0.0, 2.15, -4.7)" gradientUnits="userSpaceOnUse" id="gradient1" spreadMethod="pad" x1="-819.2" x2="819.2">
      <stop offset="0.0" stop-color="#f15341"/>
      <stop offset="0.2823529411764706" stop-color="#d04050"/>
      <stop offset="0.8666666666666667" stop-color="#92474f"/>
    </linearGradient>
    <linearGradient gradientTransform="matrix(-1.0E-4, 0.007, -0.004, 0.0, 12.7, 0.0)" gradientUnits="userSpaceOnUse" id="gradient2" spreadMethod="pad" x1="-819.2" x2="819.2">
      <stop offset="0.0" stop-color="#c54150"/>
      <stop offset="0.7333333333333333" stop-color="#ec5044"/>
    </linearGradient>
    <linearGradient gradientTransform="matrix(0.0047, 0.0047, -0.0083, 0.0083, 4.9, 13.65)" gradientUnits="userSpaceOnUse" id="gradient3" spreadMethod="pad" x1="-819.2" x2="819.2">
      <stop offset="0.5254901960784314" stop-color="#a5444f"/>
      <stop offset="1.0" stop-color="#7c384b"/>
    </linearGradient>
    <linearGradient gradientTransform="matrix(0.0, 0.0049, -0.0076, 0.0, -4.35, 11.4)" gradientUnits="userSpaceOnUse" id="gradient4" spreadMethod="pad" x1="-819.2" x2="819.2">
      <stop offset="0.0" stop-color="#9c414e"/>
      <stop offset="0.5215686274509804" stop-color="#79374b"/>
    </linearGradient>
    <linearGradient gradientTransform="matrix(-5.0E-4, 0.0066, -0.0039, -3.0E-4, -7.75, 2.3)" gradientUnits="userSpaceOnUse" id="gradient5" spreadMethod="pad" x1="-819.2" x2="819.2">
      <stop offset="0.0" stop-color="#ac3d4f"/>
      <stop offset="0.7372549019607844" stop-color="#76334e"/>
    </linearGradient>
  </defs>
</svg>
