<?xml version="1.0" encoding="UTF-8" standalone="no"?>
<svg xmlns:ffdec="https://www.free-decompiler.com/flash" xmlns:xlink="http://www.w3.org/1999/xlink" ffdec:objectType="shape" height="44.25px" width="35.55px" xmlns="http://www.w3.org/2000/svg">
  <g transform="matrix(1.0, 0.0, 0.0, 1.0, 13.8, 24.25)">
    <path d="M16.75 -5.15 L16.45 -4.8 Q16.1 -4.45 15.7 -4.25 L14.95 -4.0 14.85 -3.9 14.8 -3.95 14.65 -3.9 14.15 -3.9 Q12.8 -3.85 11.8 -4.75 L11.75 -4.8 Q10.9 -5.75 11.55 -8.35 14.85 -14.8 11.6 -19.15 L11.35 -20.15 Q11.1 -21.7 11.8 -22.45 12.8 -23.45 14.1 -23.45 15.5 -23.45 16.4 -22.45 L17.15 -21.4 18.8 -17.45 Q20.15 -13.3 18.8 -9.55 17.6 -6.35 16.75 -5.15" fill="url(#gradient0)" fill-rule="evenodd" stroke="none"/>
    <path d="M5.95 -8.8 Q5.5 -8.35 4.85 -8.35 4.2 -8.35 3.75 -8.8 3.3 -9.25 3.3 -9.9 3.3 -10.55 3.75 -11.0 L4.0 -11.2 4.85 -11.45 5.7 -11.2 5.95 -11.0 Q6.4 -10.55 6.4 -9.9 6.4 -9.25 5.95 -8.8 M-6.9 -9.9 Q-6.9 -9.25 -7.35 -8.8 -7.8 -8.35 -8.45 -8.35 -9.1 -8.35 -9.55 -8.8 L-10.0 -9.9 -9.55 -11.0 -9.45 -11.1 Q-9.0 -11.45 -8.45 -11.45 L-7.45 -11.1 -7.35 -11.0 Q-6.9 -10.55 -6.9 -9.9" fill="#511a38" fill-rule="evenodd" stroke="none"/>
    <path d="M3.7 -3.55 Q3.7 -1.5 2.2 -0.05 0.75 1.45 -1.3 1.45 L-3.15 1.45 Q-5.2 1.45 -6.7 -0.05 L-7.6 -1.3 -7.7 -1.5 Q-8.15 -2.45 -8.15 -3.55 L-8.15 -4.45 Q-8.15 -6.05 -7.25 -7.35 L-6.7 -8.0 -5.65 -8.8 -5.8 -8.8 Q-4.7 -9.5 -3.25 -9.5 L-1.5 -9.5 -0.15 -9.3 Q1.15 -9.05 2.2 -8.0 3.7 -6.5 3.7 -4.45 L3.7 -3.55" fill="#f67065" fill-rule="evenodd" stroke="none"/>
    <path d="M-5.5 -20.8 Q-7.8 -20.15 -9.6 -18.35 -12.4 -15.5 -12.5 -11.5 L-12.5 -6.25 Q-13.1 -7.2 -13.35 -8.5 -14.65 -14.75 -12.25 -21.1 -11.75 -22.45 -10.9 -23.25 L-10.65 -23.5 Q-9.65 -24.4 -8.3 -24.25 -6.95 -24.2 -6.1 -23.15 L-6.0 -23.0 Q-5.4 -22.2 -5.5 -20.8" fill="url(#gradient1)" fill-rule="evenodd" stroke="none"/>
    <path d="M-12.0 5.5 Q-10.65 10.05 -5.75 11.15 L-4.25 11.4 -3.45 11.45 -3.25 11.45 -3.15 11.45 -3.05 11.45 -2.95 11.45 -2.5 11.45 -0.85 11.45 Q0.45 14.3 2.7 17.2 L-5.1 19.9 -9.35 20.0 -7.1 18.9 -8.45 17.3 Q-12.35 12.05 -12.0 5.5" fill="url(#gradient2)" fill-rule="evenodd" stroke="none"/>
    <path d="M11.35 -20.15 L11.6 -19.15 Q14.85 -14.8 11.55 -8.35 10.9 -5.75 11.75 -4.8 L11.8 -4.75 Q12.8 -3.85 14.15 -3.9 L14.65 -3.9 14.8 -3.95 14.85 -3.9 14.95 -4.0 15.7 -4.25 Q16.1 -4.45 16.45 -4.8 L16.75 -5.15 16.75 2.35 16.7 3.05 16.4 5.05 Q16.2 3.3 16.4 1.6 L7.1 4.8 Q6.8 8.35 7.75 11.5 L-0.85 11.45 -2.5 11.45 -2.95 11.45 -3.05 11.45 -3.15 11.45 -3.25 11.45 -3.45 11.45 -4.25 11.4 -5.75 11.15 Q-10.65 10.05 -12.0 5.5 L-12.45 2.95 -12.5 2.0 -12.5 -6.25 -12.5 -11.5 Q-12.4 -15.5 -9.6 -18.35 -7.8 -20.15 -5.5 -20.8 L-2.5 -21.25 6.75 -21.25 Q9.3 -21.25 11.35 -20.15 M5.95 -8.8 Q6.4 -9.25 6.4 -9.9 6.4 -10.55 5.95 -11.0 L5.7 -11.2 4.85 -11.45 4.0 -11.2 3.75 -11.0 Q3.3 -10.55 3.3 -9.9 3.3 -9.25 3.75 -8.8 4.2 -8.35 4.85 -8.35 5.5 -8.35 5.95 -8.8 M3.7 -3.55 L3.7 -4.45 Q3.7 -6.5 2.2 -8.0 1.15 -9.05 -0.15 -9.3 L-1.5 -9.5 -3.25 -9.5 Q-4.7 -9.5 -5.8 -8.8 L-5.65 -8.8 -6.7 -8.0 -7.25 -7.35 Q-8.15 -6.05 -8.15 -4.45 L-8.15 -3.55 Q-8.15 -2.45 -7.7 -1.5 L-7.6 -1.3 -6.7 -0.05 Q-5.2 1.45 -3.15 1.45 L-1.3 1.45 Q0.75 1.45 2.2 -0.05 3.7 -1.5 3.7 -3.55 M-6.9 -9.9 Q-6.9 -10.55 -7.35 -11.0 L-7.45 -11.1 -8.45 -11.45 Q-9.0 -11.45 -9.45 -11.1 L-9.55 -11.0 -10.0 -9.9 -9.55 -8.8 Q-9.1 -8.35 -8.45 -8.35 -7.8 -8.35 -7.35 -8.8 -6.9 -9.25 -6.9 -9.9" fill="url(#gradient3)" fill-rule="evenodd" stroke="none"/>
    <path d="M7.75 11.5 Q6.8 8.35 7.1 4.8 L16.4 1.6 Q16.2 3.3 16.4 5.05 17.0 10.85 21.75 17.1 L13.95 19.8 9.7 19.9 11.95 18.8 Q8.9 15.45 7.75 11.5" fill="url(#gradient4)" fill-rule="evenodd" stroke="none"/>
    <path d="M-7.9 -16.35 Q-9.45 -15.65 -10.55 -14.25 L-11.65 -16.6 Q-11.9 -17.25 -11.6 -18.0 L-10.7 -18.9 Q-10.0 -19.2 -9.35 -18.9 -8.65 -18.6 -8.45 -17.9 L-7.9 -16.35" fill="#e34a48" fill-rule="evenodd" stroke="none"/>
    <path d="M-10.55 -14.25 L-11.35 -12.95 -11.8 -12.4 -13.45 -16.4 Q-14.0 -17.75 -13.4 -19.1 -12.95 -20.4 -11.55 -20.9 L-11.5 -20.9 -8.85 -21.0 Q-7.55 -20.4 -7.05 -19.05 L-6.25 -17.0 -7.9 -16.35 -8.45 -17.9 Q-8.65 -18.6 -9.35 -18.9 -10.0 -19.2 -10.7 -18.9 L-11.6 -18.0 Q-11.9 -17.25 -11.65 -16.6 L-10.55 -14.25" fill="url(#gradient5)" fill-rule="evenodd" stroke="none"/>
    <path d="M10.45 -16.7 L8.95 -17.55 10.05 -19.5 Q10.65 -20.75 12.05 -21.15 13.45 -21.45 14.7 -20.75 L14.75 -20.7 Q16.0 -20.0 16.35 -18.65 16.7 -17.25 16.0 -15.95 L13.75 -12.25 13.45 -12.85 12.8 -14.25 14.25 -16.4 Q14.6 -17.0 14.4 -17.75 L13.6 -18.8 12.25 -19.0 11.25 -18.15 10.45 -16.7" fill="url(#gradient6)" fill-rule="evenodd" stroke="none"/>
    <path d="M10.45 -16.7 L11.25 -18.15 12.25 -19.0 13.6 -18.8 14.4 -17.75 Q14.6 -17.0 14.25 -16.4 L12.8 -14.25 Q11.9 -15.75 10.45 -16.7" fill="#e34a48" fill-rule="evenodd" stroke="none"/>
    <path d="M-6.4 -8.05 Q-6.05 -8.4 -5.55 -8.4 L-2.65 -8.4 Q-2.15 -8.4 -1.8 -8.05 L-1.3 -7.25 -1.45 -6.35 -2.9 -3.9 -3.5 -3.35 -2.85 -2.25 Q-2.05 -1.55 0.05 -1.8 L0.35 -1.7 0.55 -1.4 0.45 -1.1 0.2 -0.9 Q-2.5 -0.55 -3.5 -1.65 L-4.0 -2.25 -4.3 -1.7 Q-4.95 -0.75 -6.55 -0.8 L-7.0 -0.8 Q-7.2 -0.8 -7.3 -0.95 L-7.4 -1.3 -7.25 -1.65 -7.2 -1.65 -6.9 -1.7 Q-5.55 -1.6 -5.05 -2.15 -4.75 -2.65 -4.6 -3.3 L-5.25 -3.85 -6.7 -6.3 -6.85 -7.25 Q-6.8 -7.75 -6.4 -8.05" fill="#511a38" fill-rule="evenodd" stroke="none"/>
  </g>
  <defs>
    <linearGradient gradientTransform="matrix(0.0, -0.007, -0.004, 0.0, 14.15, -11.7)" gradientUnits="userSpaceOnUse" id="gradient0" spreadMethod="pad" x1="-819.2" x2="819.2">
      <stop offset="0.0" stop-color="#c54150"/>
      <stop offset="0.7333333333333333" stop-color="#ec5044"/>
    </linearGradient>
    <linearGradient gradientTransform="matrix(5.0E-4, -0.0066, -0.004, -3.0E-4, -9.2, -12.75)" gradientUnits="userSpaceOnUse" id="gradient1" spreadMethod="pad" x1="-819.2" x2="819.2">
      <stop offset="0.0" stop-color="#ac3d4f"/>
      <stop offset="0.7372549019607844" stop-color="#76334e"/>
    </linearGradient>
    <linearGradient gradientTransform="matrix(0.0, 0.0069, -0.009, 0.0, -4.65, 11.7)" gradientUnits="userSpaceOnUse" id="gradient2" spreadMethod="pad" x1="-819.2" x2="819.2">
      <stop offset="0.0" stop-color="#9c414e"/>
      <stop offset="0.5215686274509804" stop-color="#79374b"/>
    </linearGradient>
    <linearGradient gradientTransform="matrix(0.0, 0.0187, -0.0179, 0.0, 2.15, -4.7)" gradientUnits="userSpaceOnUse" id="gradient3" spreadMethod="pad" x1="-819.2" x2="819.2">
      <stop offset="0.0" stop-color="#f15341"/>
      <stop offset="0.2823529411764706" stop-color="#d04050"/>
      <stop offset="0.8666666666666667" stop-color="#92474f"/>
    </linearGradient>
    <linearGradient gradientTransform="matrix(0.0028, 0.0081, -0.0073, 0.0025, 13.1, 11.3)" gradientUnits="userSpaceOnUse" id="gradient4" spreadMethod="pad" x1="-819.2" x2="819.2">
      <stop offset="0.5254901960784314" stop-color="#a5444f"/>
      <stop offset="1.0" stop-color="#7c384b"/>
    </linearGradient>
    <linearGradient gradientTransform="matrix(0.0, 0.0067, -0.004, 0.0, -10.1, 0.95)" gradientUnits="userSpaceOnUse" id="gradient5" spreadMethod="pad" x1="-819.2" x2="819.2">
      <stop offset="0.0" stop-color="#ac3d4f"/>
      <stop offset="0.7372549019607844" stop-color="#76334e"/>
    </linearGradient>
    <linearGradient gradientTransform="matrix(0.0, 0.0067, -0.004, 0.0, -11.5, 0.95)" gradientUnits="userSpaceOnUse" id="gradient6" spreadMethod="pad" x1="-819.2" x2="819.2">
      <stop offset="0.0" stop-color="#ac3d4f"/>
      <stop offset="0.7372549019607844" stop-color="#76334e"/>
    </linearGradient>
  </defs>
</svg>
