<?xml version="1.0" encoding="UTF-8" standalone="no"?>
<svg xmlns:ffdec="https://www.free-decompiler.com/flash" xmlns:xlink="http://www.w3.org/1999/xlink" ffdec:objectType="shape" height="45.9px" width="33.25px" xmlns="http://www.w3.org/2000/svg">
  <g transform="matrix(1.0, 0.0, 0.0, 1.0, 13.8, 25.85)">
    <path d="M16.75 -6.75 L16.45 -6.4 Q16.1 -6.05 15.7 -5.85 L14.95 -5.6 14.85 -5.5 14.8 -5.55 14.65 -5.5 14.15 -5.5 Q12.8 -5.45 11.8 -6.35 L11.75 -6.4 Q10.9 -7.35 11.55 -9.95 14.85 -16.4 11.6 -20.75 11.1 -22.35 11.4 -23.35 L11.8 -24.05 Q12.8 -25.05 14.1 -25.05 15.5 -25.05 16.4 -24.05 L17.15 -23.0 18.8 -19.05 Q20.15 -14.9 18.8 -11.15 17.6 -7.95 16.75 -6.75" fill="url(#gradient0)" fill-rule="evenodd" stroke="none"/>
    <path d="M-5.65 -23.95 Q-7.85 -23.3 -9.6 -21.55 -12.4 -18.7 -12.5 -14.7 L-12.5 -7.85 Q-13.1 -8.8 -13.35 -10.1 -14.65 -16.35 -12.25 -22.7 -11.75 -24.05 -10.9 -24.85 L-10.65 -25.1 Q-9.65 -26.0 -8.3 -25.85 -6.95 -25.8 -6.1 -24.75 L-6.0 -24.6 -5.65 -23.95" fill="url(#gradient1)" fill-rule="evenodd" stroke="none"/>
    <path d="M-10.55 5.1 Q-8.9 7.25 -5.75 7.95 L-4.25 8.2 -3.45 8.25 -3.3 8.25 Q-3.75 11.55 -0.9 14.95 L-5.5 19.8 -5.75 19.8 -5.2 19.2 -7.85 18.75 -8.3 18.25 Q-13.9 12.3 -10.55 5.1" fill="url(#gradient2)" fill-rule="evenodd" stroke="none"/>
    <path d="M-7.85 18.75 L-5.2 19.2 -5.75 19.8 -6.0 20.05 -10.3 20.05 -7.85 18.75" fill="url(#gradient3)" fill-rule="evenodd" stroke="none"/>
    <path d="M11.4 -23.35 Q11.1 -22.35 11.6 -20.75 14.85 -16.4 11.55 -9.95 10.9 -7.35 11.75 -6.4 L11.8 -6.35 Q12.8 -5.45 14.15 -5.5 L14.65 -5.5 14.8 -5.55 14.85 -5.5 14.95 -5.6 15.7 -5.85 Q16.1 -6.05 16.45 -6.4 L16.75 -6.75 16.75 -0.85 16.7 -0.15 Q16.2 5.5 12.0 7.4 L13.9 5.05 15.9 2.9 9.65 0.2 7.8 -0.3 Q2.7 3.65 2.9 8.3 L-2.5 8.25 -2.95 8.25 -3.05 8.25 -3.15 8.25 -3.25 8.25 -3.3 8.25 -3.45 8.25 -4.25 8.2 -5.75 7.95 Q-8.9 7.25 -10.55 5.1 -12.15 3.05 -12.45 -0.25 L-12.5 -1.2 -12.5 -7.85 -12.5 -14.7 Q-12.4 -18.7 -9.6 -21.55 -7.85 -23.3 -5.65 -23.95 L-2.5 -24.45 6.75 -24.45 Q9.3 -24.45 11.4 -23.35 M5.7 -14.4 L4.85 -14.65 4.0 -14.4 3.75 -14.2 Q3.3 -13.75 3.3 -13.1 3.3 -12.45 3.75 -12.0 4.2 -11.55 4.85 -11.55 5.5 -11.55 5.95 -12.0 6.4 -12.45 6.4 -13.1 6.4 -13.75 5.95 -14.2 L5.7 -14.4 M3.7 -6.75 L3.7 -7.65 Q3.7 -9.7 2.2 -11.2 1.15 -12.25 -0.15 -12.5 L-1.5 -12.7 -3.25 -12.7 Q-4.7 -12.7 -5.8 -12.0 L-5.65 -12.0 -6.7 -11.2 -7.25 -10.55 Q-8.15 -9.25 -8.15 -7.65 L-8.15 -6.75 Q-8.15 -5.65 -7.7 -4.7 L-7.6 -4.5 -6.7 -3.25 Q-5.2 -1.75 -3.15 -1.75 L-1.3 -1.75 Q0.75 -1.75 2.2 -3.25 3.7 -4.7 3.7 -6.75 M-7.45 -14.3 L-8.45 -14.65 Q-9.0 -14.65 -9.45 -14.3 L-9.55 -14.2 -10.0 -13.1 -9.55 -12.0 Q-9.1 -11.55 -8.45 -11.55 -7.8 -11.55 -7.35 -12.0 -6.9 -12.45 -6.9 -13.1 -6.9 -13.75 -7.35 -14.2 L-7.45 -14.3" fill="url(#gradient4)" fill-rule="evenodd" stroke="none"/>
    <path d="M5.7 -14.4 L5.95 -14.2 Q6.4 -13.75 6.4 -13.1 6.4 -12.45 5.95 -12.0 5.5 -11.55 4.85 -11.55 4.2 -11.55 3.75 -12.0 3.3 -12.45 3.3 -13.1 3.3 -13.75 3.75 -14.2 L4.0 -14.4 4.85 -14.65 5.7 -14.4 M-7.45 -14.3 L-7.35 -14.2 Q-6.9 -13.75 -6.9 -13.1 -6.9 -12.45 -7.35 -12.0 -7.8 -11.55 -8.45 -11.55 -9.1 -11.55 -9.55 -12.0 L-10.0 -13.1 -9.55 -14.2 -9.45 -14.3 Q-9.0 -14.65 -8.45 -14.65 L-7.45 -14.3" fill="#511a38" fill-rule="evenodd" stroke="none"/>
    <path d="M3.7 -6.75 Q3.7 -4.7 2.2 -3.25 0.75 -1.75 -1.3 -1.75 L-3.15 -1.75 Q-5.2 -1.75 -6.7 -3.25 L-7.6 -4.5 -7.7 -4.7 Q-8.15 -5.65 -8.15 -6.75 L-8.15 -7.65 Q-8.15 -9.25 -7.25 -10.55 L-6.7 -11.2 -5.65 -12.0 -5.8 -12.0 Q-4.7 -12.7 -3.25 -12.7 L-1.5 -12.7 -0.15 -12.5 Q1.15 -12.25 2.2 -11.2 3.7 -9.7 3.7 -7.65 L3.7 -6.75" fill="#f67065" fill-rule="evenodd" stroke="none"/>
    <path d="M2.9 8.3 Q2.7 3.65 7.8 -0.3 L9.65 0.2 15.9 2.9 13.9 5.05 12.0 7.4 11.65 7.8 Q9.85 9.95 13.05 13.1 L5.65 18.5 6.05 15.5 Q3.0 11.7 2.9 8.3" fill="url(#gradient5)" fill-rule="evenodd" stroke="none"/>
    <path d="M-7.1 -19.55 L-7.65 -21.1 Q-7.85 -21.8 -8.55 -22.1 -9.2 -22.4 -9.9 -22.1 L-10.8 -21.2 Q-11.1 -20.45 -10.85 -19.8 L-9.75 -17.45 -10.55 -16.15 -11.0 -15.6 -12.65 -19.6 Q-13.2 -20.95 -12.6 -22.3 -12.15 -23.6 -10.75 -24.1 L-10.7 -24.1 -8.05 -24.2 Q-6.75 -23.6 -6.25 -22.25 L-5.45 -20.2 -7.1 -19.55" fill="url(#gradient6)" fill-rule="evenodd" stroke="none"/>
    <path d="M-9.75 -17.45 L-10.85 -19.8 Q-11.1 -20.45 -10.8 -21.2 L-9.9 -22.1 Q-9.2 -22.4 -8.55 -22.1 -7.85 -21.8 -7.65 -21.1 L-7.1 -19.55 Q-8.65 -18.85 -9.75 -17.45" fill="#e34a48" fill-rule="evenodd" stroke="none"/>
    <path d="M8.65 -19.9 L7.15 -20.75 8.25 -22.7 Q8.85 -23.95 10.25 -24.35 11.65 -24.65 12.9 -23.95 L12.95 -23.9 Q14.2 -23.2 14.55 -21.85 14.9 -20.45 14.2 -19.15 L11.95 -15.45 11.65 -16.05 11.0 -17.45 12.45 -19.6 Q12.8 -20.2 12.6 -20.95 12.4 -21.6 11.8 -22.0 L10.45 -22.2 Q9.75 -22.0 9.45 -21.35 L8.65 -19.9" fill="url(#gradient7)" fill-rule="evenodd" stroke="none"/>
    <path d="M8.65 -19.9 L9.45 -21.35 Q9.75 -22.0 10.45 -22.2 L11.8 -22.0 Q12.4 -21.6 12.6 -20.95 12.8 -20.2 12.45 -19.6 L11.0 -17.45 Q10.1 -18.95 8.65 -19.9" fill="#e34a48" fill-rule="evenodd" stroke="none"/>
    <path d="M-6.4 -11.25 Q-6.05 -11.6 -5.55 -11.6 L-2.65 -11.6 Q-2.15 -11.6 -1.8 -11.25 L-1.3 -10.45 -1.45 -9.55 -2.9 -7.1 -3.5 -6.55 -2.85 -5.45 Q-2.05 -4.75 0.05 -5.0 L0.35 -4.9 0.55 -4.6 0.45 -4.3 0.2 -4.1 Q-2.5 -3.75 -3.5 -4.85 L-4.0 -5.45 -4.3 -4.9 Q-4.95 -3.95 -6.55 -4.0 L-7.0 -4.0 Q-7.2 -4.0 -7.3 -4.15 L-7.4 -4.5 -7.25 -4.85 -7.2 -4.85 -6.9 -4.9 Q-5.55 -4.8 -5.05 -5.35 -4.75 -5.85 -4.6 -6.5 L-5.25 -7.05 -6.7 -9.5 -6.85 -10.45 Q-6.8 -10.95 -6.4 -11.25" fill="#511a38" fill-rule="evenodd" stroke="none"/>
  </g>
  <defs>
    <linearGradient gradientTransform="matrix(0.0, -0.007, -0.004, 0.0, 14.15, -13.3)" gradientUnits="userSpaceOnUse" id="gradient0" spreadMethod="pad" x1="-819.2" x2="819.2">
      <stop offset="0.0" stop-color="#c54150"/>
      <stop offset="0.7333333333333333" stop-color="#ec5044"/>
    </linearGradient>
    <linearGradient gradientTransform="matrix(5.0E-4, -0.0066, -0.004, -3.0E-4, -9.2, -14.35)" gradientUnits="userSpaceOnUse" id="gradient1" spreadMethod="pad" x1="-819.2" x2="819.2">
      <stop offset="0.0" stop-color="#ac3d4f"/>
      <stop offset="0.7372549019607844" stop-color="#76334e"/>
    </linearGradient>
    <linearGradient gradientTransform="matrix(0.0, 0.0077, -0.0072, 0.0, -5.9, 10.45)" gradientUnits="userSpaceOnUse" id="gradient2" spreadMethod="pad" x1="-819.2" x2="819.2">
      <stop offset="0.0" stop-color="#9c414e"/>
      <stop offset="0.5215686274509804" stop-color="#79374b"/>
    </linearGradient>
    <linearGradient gradientTransform="matrix(0.0, 0.0077, -0.0072, 0.0, -5.6, 9.85)" gradientUnits="userSpaceOnUse" id="gradient3" spreadMethod="pad" x1="-819.2" x2="819.2">
      <stop offset="0.0" stop-color="#9c414e"/>
      <stop offset="0.5215686274509804" stop-color="#79374b"/>
    </linearGradient>
    <linearGradient gradientTransform="matrix(0.0, 0.0187, -0.0179, 0.0, 2.15, -7.9)" gradientUnits="userSpaceOnUse" id="gradient4" spreadMethod="pad" x1="-819.2" x2="819.2">
      <stop offset="0.0" stop-color="#f15341"/>
      <stop offset="0.2823529411764706" stop-color="#d04050"/>
      <stop offset="0.8666666666666667" stop-color="#92474f"/>
    </linearGradient>
    <linearGradient gradientTransform="matrix(0.0044, 0.0054, -0.0086, 0.007, 8.35, 8.05)" gradientUnits="userSpaceOnUse" id="gradient5" spreadMethod="pad" x1="-819.2" x2="819.2">
      <stop offset="0.5254901960784314" stop-color="#a5444f"/>
      <stop offset="1.0" stop-color="#7c384b"/>
    </linearGradient>
    <linearGradient gradientTransform="matrix(0.0, 0.0067, -0.004, 0.0, -9.3, -2.25)" gradientUnits="userSpaceOnUse" id="gradient6" spreadMethod="pad" x1="-819.2" x2="819.2">
      <stop offset="0.0" stop-color="#ac3d4f"/>
      <stop offset="0.7372549019607844" stop-color="#76334e"/>
    </linearGradient>
    <linearGradient gradientTransform="matrix(0.0, 0.0067, -0.004, 0.0, -13.3, -2.25)" gradientUnits="userSpaceOnUse" id="gradient7" spreadMethod="pad" x1="-819.2" x2="819.2">
      <stop offset="0.0" stop-color="#ac3d4f"/>
      <stop offset="0.7372549019607844" stop-color="#76334e"/>
    </linearGradient>
  </defs>
</svg>
