<?xml version="1.0" encoding="UTF-8" standalone="no"?>
<svg xmlns:ffdec="https://www.free-decompiler.com/flash" xmlns:xlink="http://www.w3.org/1999/xlink" ffdec:objectType="shape" height="44.85px" width="39.6px" xmlns="http://www.w3.org/2000/svg">
  <g transform="matrix(1.0, 0.0, 0.0, 1.0, 18.05, 23.75)">
    <path d="M16.75 -5.15 L16.55 -5.0 Q16.1 -4.7 15.65 -4.6 L14.85 -4.5 14.8 -4.4 14.75 -4.5 14.6 -4.45 14.1 -4.55 Q12.75 -4.8 11.95 -5.9 L11.95 -5.95 Q11.3 -7.05 12.45 -9.45 15.5 -13.15 15.55 -16.55 15.55 -18.3 14.75 -20.0 14.55 -22.4 15.65 -23.2 16.8 -23.95 18.1 -23.65 19.45 -23.4 20.15 -22.25 L20.7 -21.05 21.45 -16.85 Q21.9 -12.5 19.8 -9.1 17.85 -6.0 16.75 -5.15" fill="url(#gradient0)" fill-rule="evenodd" stroke="none"/>
    <path d="M-11.55 -16.05 Q-12.45 -14.2 -12.5 -11.95 L-12.5 -4.1 -12.55 -4.15 -12.8 -4.3 Q-13.85 -5.0 -14.65 -6.2 -18.05 -11.65 -18.05 -18.45 -18.1 -19.85 -17.55 -20.9 L-17.45 -21.2 Q-16.8 -22.4 -15.5 -22.75 -14.2 -23.25 -13.05 -22.5 L-12.85 -22.4 Q-11.9 -21.65 -11.5 -19.95 L-11.55 -16.05" fill="url(#gradient1)" fill-rule="evenodd" stroke="none"/>
    <path d="M-10.9 7.4 Q-9.2 9.95 -5.75 10.7 L-4.25 10.95 -3.45 11.0 -3.25 11.0 Q-2.6 13.2 0.25 14.8 L-6.75 21.1 -6.05 18.2 Q-12.15 16.15 -11.6 10.5 L-11.3 8.8 -10.9 7.4" fill="url(#gradient2)" fill-rule="evenodd" stroke="none"/>
    <path d="M-11.55 -16.05 Q-10.85 -17.55 -9.6 -18.8 -6.65 -21.7 -2.5 -21.7 L6.75 -21.7 Q10.9 -21.7 13.8 -18.8 L15.55 -16.55 Q15.5 -13.15 12.45 -9.45 11.3 -7.05 11.95 -5.95 L11.95 -5.9 Q12.75 -4.8 14.1 -4.55 L14.6 -4.45 14.75 -4.5 14.8 -4.4 14.85 -4.5 15.65 -4.6 Q16.1 -4.7 16.55 -5.0 L16.75 -5.15 16.75 1.9 16.7 2.6 Q16.3 6.9 13.75 9.05 L8.6 3.15 8.4 2.9 Q1.35 6.65 0.05 8.75 -0.65 9.9 -0.85 11.0 L-2.5 11.0 -2.95 11.0 -3.05 11.0 -3.15 11.0 -3.25 11.0 -3.45 11.0 -4.25 10.95 -5.75 10.7 Q-9.2 9.95 -10.9 7.4 -12.2 5.45 -12.45 2.5 L-12.5 1.55 -12.5 -4.1 -12.5 -11.95 Q-12.45 -14.2 -11.55 -16.05 M5.95 -9.1 Q6.4 -9.55 6.4 -10.2 6.4 -10.85 5.95 -11.3 L5.7 -11.5 4.85 -11.75 4.0 -11.5 3.75 -11.3 Q3.3 -10.85 3.3 -10.2 3.3 -9.55 3.75 -9.1 4.2 -8.65 4.85 -8.65 5.5 -8.65 5.95 -9.1 M3.7 -3.85 L3.7 -4.75 Q3.7 -6.8 2.2 -8.3 1.15 -9.35 -0.15 -9.6 L-1.5 -9.8 -3.25 -9.8 Q-4.7 -9.8 -5.8 -9.1 L-5.65 -9.1 -6.7 -8.3 -7.25 -7.65 Q-8.15 -6.35 -8.15 -4.75 L-8.15 -3.85 Q-8.15 -2.75 -7.7 -1.8 L-7.6 -1.6 -6.7 -0.35 Q-5.2 1.15 -3.15 1.15 L-1.3 1.15 Q0.75 1.15 2.2 -0.35 3.7 -1.8 3.7 -3.85 M8.5 11.05 Q9.2 10.3 10.75 9.9 L13.65 9.15 Q12.2 10.3 10.0 10.8 L8.5 11.05 M-6.9 -10.2 Q-6.9 -10.85 -7.35 -11.3 L-7.45 -11.4 -8.45 -11.75 Q-9.0 -11.75 -9.45 -11.4 L-9.55 -11.3 -10.0 -10.2 -9.55 -9.1 Q-9.1 -8.65 -8.45 -8.65 -7.8 -8.65 -7.35 -9.1 -6.9 -9.55 -6.9 -10.2" fill="url(#gradient3)" fill-rule="evenodd" stroke="none"/>
    <path d="M5.95 -9.1 Q5.5 -8.65 4.85 -8.65 4.2 -8.65 3.75 -9.1 3.3 -9.55 3.3 -10.2 3.3 -10.85 3.75 -11.3 L4.0 -11.5 4.85 -11.75 5.7 -11.5 5.95 -11.3 Q6.4 -10.85 6.4 -10.2 6.4 -9.55 5.95 -9.1 M-6.9 -10.2 Q-6.9 -9.55 -7.35 -9.1 -7.8 -8.65 -8.45 -8.65 -9.1 -8.65 -9.55 -9.1 L-10.0 -10.2 -9.55 -11.3 -9.45 -11.4 Q-9.0 -11.75 -8.45 -11.75 L-7.45 -11.4 -7.35 -11.3 Q-6.9 -10.85 -6.9 -10.2" fill="#511a38" fill-rule="evenodd" stroke="none"/>
    <path d="M3.7 -3.85 Q3.7 -1.8 2.2 -0.35 0.75 1.15 -1.3 1.15 L-3.15 1.15 Q-5.2 1.15 -6.7 -0.35 L-7.6 -1.6 -7.7 -1.8 Q-8.15 -2.75 -8.15 -3.85 L-8.15 -4.75 Q-8.15 -6.35 -7.25 -7.65 L-6.7 -8.3 -5.65 -9.1 -5.8 -9.1 Q-4.7 -9.8 -3.25 -9.8 L-1.5 -9.8 -0.15 -9.6 Q1.15 -9.35 2.2 -8.3 3.7 -6.8 3.7 -4.75 L3.7 -3.85" fill="#f67065" fill-rule="evenodd" stroke="none"/>
    <path d="M-0.85 11.0 Q-0.65 9.9 0.05 8.75 1.35 6.65 8.4 2.9 L8.6 3.15 13.75 9.05 13.8 9.1 13.65 9.15 10.75 9.9 Q9.2 10.3 8.5 11.05 L8.0 11.7 Q7.4 12.95 9.8 15.65 L1.05 19.25 2.65 16.85 Q-0.45 14.65 -0.85 12.75 -1.05 11.9 -0.85 11.0" fill="url(#gradient4)" fill-rule="evenodd" stroke="none"/>
    <path d="M-7.7 -16.8 Q-9.25 -16.1 -10.35 -14.7 L-11.45 -17.05 Q-11.7 -17.7 -11.4 -18.45 L-10.5 -19.35 Q-9.8 -19.65 -9.15 -19.35 -8.45 -19.05 -8.25 -18.35 L-7.7 -16.8" fill="#e34a48" fill-rule="evenodd" stroke="none"/>
    <path d="M-10.35 -14.7 L-11.15 -13.4 -11.6 -12.85 -13.25 -16.85 Q-13.8 -18.2 -13.2 -19.55 -12.75 -20.85 -11.35 -21.35 L-11.3 -21.35 -8.65 -21.45 Q-7.35 -20.85 -6.85 -19.5 L-6.05 -17.45 -7.7 -16.8 -8.25 -18.35 Q-8.45 -19.05 -9.15 -19.35 -9.8 -19.65 -10.5 -19.35 L-11.4 -18.45 Q-11.7 -17.7 -11.45 -17.05 L-10.35 -14.7" fill="url(#gradient5)" fill-rule="evenodd" stroke="none"/>
    <path d="M10.45 -17.15 L8.95 -18.0 10.05 -19.95 Q10.65 -21.2 12.05 -21.6 13.45 -21.9 14.7 -21.2 L14.75 -21.15 Q16.0 -20.45 16.35 -19.1 16.7 -17.7 16.0 -16.4 L13.75 -12.7 13.45 -13.3 12.8 -14.7 14.25 -16.85 Q14.6 -17.45 14.4 -18.2 L13.6 -19.25 12.25 -19.45 11.25 -18.6 10.45 -17.15" fill="url(#gradient6)" fill-rule="evenodd" stroke="none"/>
    <path d="M10.45 -17.15 L11.25 -18.6 12.25 -19.45 13.6 -19.25 14.4 -18.2 Q14.6 -17.45 14.25 -16.85 L12.8 -14.7 Q11.9 -16.2 10.45 -17.15" fill="#e34a48" fill-rule="evenodd" stroke="none"/>
    <path d="M-6.4 -8.35 Q-6.05 -8.7 -5.55 -8.7 L-2.65 -8.7 Q-2.15 -8.7 -1.8 -8.35 L-1.3 -7.55 -1.45 -6.65 -2.9 -4.2 -3.5 -3.65 -2.85 -2.55 Q-2.05 -1.85 0.05 -2.1 L0.35 -2.0 0.55 -1.7 0.45 -1.4 0.2 -1.2 Q-2.5 -0.85 -3.5 -1.95 L-4.0 -2.55 -4.3 -2.0 Q-4.95 -1.05 -6.55 -1.1 L-7.0 -1.1 Q-7.2 -1.1 -7.3 -1.25 L-7.4 -1.6 -7.25 -1.95 -7.2 -1.95 -6.9 -2.0 Q-5.55 -1.9 -5.05 -2.45 -4.75 -2.95 -4.6 -3.6 L-5.25 -4.15 -6.7 -6.6 -6.85 -7.55 Q-6.8 -8.05 -6.4 -8.35" fill="#511a38" fill-rule="evenodd" stroke="none"/>
  </g>
  <defs>
    <linearGradient gradientTransform="matrix(0.0014, -0.0068, -0.0039, -8.0E-4, 15.7, -12.2)" gradientUnits="userSpaceOnUse" id="gradient0" spreadMethod="pad" x1="-819.2" x2="819.2">
      <stop offset="0.0" stop-color="#c54150"/>
      <stop offset="0.7333333333333333" stop-color="#ec5044"/>
    </linearGradient>
    <linearGradient gradientTransform="matrix(-0.0018, -0.0064, -0.0038, 0.0011, -12.25, -11.65)" gradientUnits="userSpaceOnUse" id="gradient1" spreadMethod="pad" x1="-819.2" x2="819.2">
      <stop offset="0.0" stop-color="#ac3d4f"/>
      <stop offset="0.7372549019607844" stop-color="#76334e"/>
    </linearGradient>
    <linearGradient gradientTransform="matrix(0.0013, 0.0076, -0.0071, 0.0012, -5.65, 12.95)" gradientUnits="userSpaceOnUse" id="gradient2" spreadMethod="pad" x1="-819.2" x2="819.2">
      <stop offset="0.0" stop-color="#9c414e"/>
      <stop offset="0.5215686274509804" stop-color="#79374b"/>
    </linearGradient>
    <linearGradient gradientTransform="matrix(0.0, 0.0187, -0.0179, 0.0, 2.15, -5.15)" gradientUnits="userSpaceOnUse" id="gradient3" spreadMethod="pad" x1="-819.2" x2="819.2">
      <stop offset="0.0" stop-color="#f15341"/>
      <stop offset="0.2823529411764706" stop-color="#d04050"/>
      <stop offset="0.8666666666666667" stop-color="#92474f"/>
    </linearGradient>
    <linearGradient gradientTransform="matrix(0.0013, 0.0048, -0.0089, 0.0023, 6.65, 11.5)" gradientUnits="userSpaceOnUse" id="gradient4" spreadMethod="pad" x1="-819.2" x2="819.2">
      <stop offset="0.5254901960784314" stop-color="#a5444f"/>
      <stop offset="1.0" stop-color="#7c384b"/>
    </linearGradient>
    <linearGradient gradientTransform="matrix(0.0, 0.0067, -0.004, 0.0, -9.9, 0.5)" gradientUnits="userSpaceOnUse" id="gradient5" spreadMethod="pad" x1="-819.2" x2="819.2">
      <stop offset="0.0" stop-color="#ac3d4f"/>
      <stop offset="0.7372549019607844" stop-color="#76334e"/>
    </linearGradient>
    <linearGradient gradientTransform="matrix(0.0, 0.0067, -0.004, 0.0, -11.5, 0.5)" gradientUnits="userSpaceOnUse" id="gradient6" spreadMethod="pad" x1="-819.2" x2="819.2">
      <stop offset="0.0" stop-color="#ac3d4f"/>
      <stop offset="0.7372549019607844" stop-color="#76334e"/>
    </linearGradient>
  </defs>
</svg>
