<?xml version="1.0" encoding="UTF-8" standalone="no"?>
<svg xmlns:ffdec="https://www.free-decompiler.com/flash" xmlns:xlink="http://www.w3.org/1999/xlink" ffdec:objectType="shape" height="39.5px" width="52.1px" xmlns="http://www.w3.org/2000/svg">
  <g transform="matrix(1.0, 0.0, 0.0, 1.0, 22.45, 19.0)">
    <path d="M16.75 -2.3 Q15.45 -2.15 14.8 -2.3 14.25 -2.35 13.85 -2.65 L13.25 -3.15 13.1 -3.1 13.2 -3.2 13.0 -3.3 12.7 -3.7 Q11.95 -4.85 12.15 -6.15 L12.2 -6.2 Q12.55 -7.45 15.05 -8.35 L16.75 -8.6 Q22.5 -9.7 24.15 -14.15 25.7 -16.0 27.0 -15.8 28.4 -15.5 29.05 -14.35 29.85 -13.25 29.55 -11.95 L29.1 -10.7 26.6 -7.2 Q23.9 -3.8 20.0 -2.9 L16.75 -2.3" fill="url(#gradient0)" fill-rule="evenodd" stroke="none"/>
    <path d="M-12.4 -10.2 L-12.5 -9.25 -12.5 -3.2 Q-17.5 -5.2 -21.0 -9.1 -22.0 -10.25 -22.35 -11.4 L-22.4 -11.7 Q-22.6 -12.65 -22.25 -13.55 L-21.95 -14.15 Q-21.2 -15.2 -19.95 -15.55 L-19.85 -15.65 Q-18.75 -15.75 -17.9 -14.9 L-17.5 -14.5 Q-15.35 -11.75 -12.4 -10.2" fill="url(#gradient1)" fill-rule="evenodd" stroke="none"/>
    <path d="M-12.05 7.55 Q-10.7 12.3 -5.75 13.4 L-4.3 13.65 Q-3.7 14.9 -2.4 16.2 L-10.75 20.5 -9.35 17.9 Q-14.75 14.3 -12.7 9.0 L-12.05 7.55" fill="url(#gradient2)" fill-rule="evenodd" stroke="none"/>
    <path d="M5.95 -8.6 L5.7 -8.8 4.85 -9.05 4.0 -8.8 3.75 -8.6 Q3.3 -8.15 3.3 -7.5 3.3 -6.85 3.75 -6.4 4.2 -5.95 4.85 -5.95 5.5 -5.95 5.95 -6.4 6.4 -6.85 6.4 -7.5 6.4 -8.15 5.95 -8.6 M2.2 -5.6 Q1.15 -6.65 -0.15 -6.9 L-1.5 -7.1 -3.25 -7.1 Q-4.7 -7.1 -5.8 -6.4 L-5.65 -6.4 -6.7 -5.6 -7.25 -4.95 Q-8.15 -3.65 -8.15 -2.05 L-8.15 -1.15 Q-8.15 -0.05 -7.7 0.9 L-7.6 1.1 -6.7 2.35 Q-5.2 3.85 -3.15 3.85 L-1.3 3.85 Q0.75 3.85 2.2 2.35 3.7 0.9 3.7 -1.15 L3.7 -2.05 Q3.7 -4.1 2.2 -5.6 M-12.4 -10.2 Q-12.05 -13.6 -9.6 -16.1 -6.65 -19.0 -2.5 -19.0 L6.75 -19.0 Q10.9 -19.0 13.8 -16.1 16.75 -13.15 16.75 -9.0 L16.75 -8.6 15.05 -8.35 Q12.55 -7.45 12.2 -6.2 L12.15 -6.15 Q11.95 -4.85 12.7 -3.7 L13.0 -3.3 13.2 -3.2 13.1 -3.1 13.25 -3.15 13.85 -2.65 Q14.25 -2.35 14.8 -2.3 15.45 -2.15 16.75 -2.3 L16.75 4.6 16.7 5.3 Q16.1 12.15 10.0 13.5 L8.7 13.75 Q8.15 12.7 8.55 12.05 9.25 10.85 11.45 10.45 L14.55 9.9 9.85 3.6 9.65 3.3 Q2.35 6.5 0.9 8.45 -0.6 10.45 -0.35 12.35 L0.15 13.7 -2.5 13.7 -2.95 13.7 -3.05 13.7 -3.15 13.7 -3.25 13.7 -3.45 13.7 -4.25 13.65 -4.3 13.65 -5.75 13.4 Q-10.7 12.3 -12.05 7.55 L-12.45 5.2 -12.5 4.25 -12.5 -3.2 -12.5 -9.25 -12.4 -10.2 M-8.45 -9.05 Q-9.0 -9.05 -9.45 -8.7 L-9.55 -8.6 -10.0 -7.5 -9.55 -6.4 Q-9.1 -5.95 -8.45 -5.95 -7.8 -5.95 -7.35 -6.4 -6.9 -6.85 -6.9 -7.5 -6.9 -8.15 -7.35 -8.6 L-7.45 -8.7 -8.45 -9.05" fill="url(#gradient3)" fill-rule="evenodd" stroke="none"/>
    <path d="M5.95 -8.6 Q6.4 -8.15 6.4 -7.5 6.4 -6.85 5.95 -6.4 5.5 -5.95 4.85 -5.95 4.2 -5.95 3.75 -6.4 3.3 -6.85 3.3 -7.5 3.3 -8.15 3.75 -8.6 L4.0 -8.8 4.85 -9.05 5.7 -8.8 5.95 -8.6 M-8.45 -9.05 L-7.45 -8.7 -7.35 -8.6 Q-6.9 -8.15 -6.9 -7.5 -6.9 -6.85 -7.35 -6.4 -7.8 -5.95 -8.45 -5.95 -9.1 -5.95 -9.55 -6.4 L-10.0 -7.5 -9.55 -8.6 -9.45 -8.7 Q-9.0 -9.05 -8.45 -9.05" fill="#511a38" fill-rule="evenodd" stroke="none"/>
    <path d="M2.2 -5.6 Q3.7 -4.1 3.7 -2.05 L3.7 -1.15 Q3.7 0.9 2.2 2.35 0.75 3.85 -1.3 3.85 L-3.15 3.85 Q-5.2 3.85 -6.7 2.35 L-7.6 1.1 -7.7 0.9 Q-8.15 -0.05 -8.15 -1.15 L-8.15 -2.05 Q-8.15 -3.65 -7.25 -4.95 L-6.7 -5.6 -5.65 -6.4 -5.8 -6.4 Q-4.7 -7.1 -3.25 -7.1 L-1.5 -7.1 -0.15 -6.9 Q1.15 -6.65 2.2 -5.6" fill="#f67065" fill-rule="evenodd" stroke="none"/>
    <path d="M0.15 13.7 L-0.35 12.35 Q-0.6 10.45 0.9 8.45 2.35 6.5 9.65 3.3 L9.85 3.6 14.55 9.9 11.45 10.45 Q9.25 10.85 8.55 12.05 8.15 12.7 8.7 13.75 L10.05 15.6 1.45 18.75 2.8 16.75 Q0.85 15.1 0.15 13.7" fill="url(#gradient4)" fill-rule="evenodd" stroke="none"/>
    <path d="M-8.3 -14.1 L-8.85 -15.65 Q-9.05 -16.35 -9.75 -16.65 -10.4 -16.95 -11.1 -16.65 L-12.0 -15.75 Q-12.3 -15.0 -12.05 -14.35 L-10.95 -12.0 -11.75 -10.7 -12.2 -10.15 -13.85 -14.15 Q-14.4 -15.5 -13.8 -16.85 -13.35 -18.15 -11.95 -18.65 L-11.9 -18.65 -9.25 -18.75 Q-7.95 -18.15 -7.45 -16.8 L-6.65 -14.75 -8.3 -14.1" fill="url(#gradient5)" fill-rule="evenodd" stroke="none"/>
    <path d="M-10.95 -12.0 L-12.05 -14.35 Q-12.3 -15.0 -12.0 -15.75 L-11.1 -16.65 Q-10.4 -16.95 -9.75 -16.65 -9.05 -16.35 -8.85 -15.65 L-8.3 -14.1 Q-9.85 -13.4 -10.95 -12.0" fill="#e34a48" fill-rule="evenodd" stroke="none"/>
    <path d="M13.8 -12.0 L15.25 -14.15 Q15.6 -14.75 15.4 -15.5 15.2 -16.15 14.6 -16.55 L13.25 -16.75 Q12.55 -16.55 12.25 -15.9 L11.45 -14.45 9.95 -15.3 11.05 -17.25 Q11.65 -18.5 13.05 -18.9 14.45 -19.2 15.7 -18.5 L15.75 -18.45 Q17.0 -17.75 17.35 -16.4 17.7 -15.0 17.0 -13.7 L14.75 -10.0 14.45 -10.6 13.8 -12.0" fill="url(#gradient6)" fill-rule="evenodd" stroke="none"/>
    <path d="M11.45 -14.45 L12.25 -15.9 Q12.55 -16.55 13.25 -16.75 L14.6 -16.55 Q15.2 -16.15 15.4 -15.5 15.6 -14.75 15.25 -14.15 L13.8 -12.0 Q12.9 -13.5 11.45 -14.45" fill="#e34a48" fill-rule="evenodd" stroke="none"/>
    <path d="M-6.4 -5.65 Q-6.05 -6.0 -5.55 -6.0 L-2.65 -6.0 Q-2.15 -6.0 -1.8 -5.65 L-1.3 -4.85 -1.45 -3.95 -2.9 -1.5 -3.5 -0.95 -2.85 0.15 Q-2.05 0.85 0.05 0.6 L0.35 0.7 0.55 1.0 0.45 1.3 0.2 1.5 Q-2.5 1.85 -3.5 0.75 L-4.0 0.15 -4.3 0.7 Q-4.95 1.65 -6.55 1.6 L-7.0 1.6 -7.3 1.45 -7.4 1.1 -7.25 0.75 -7.2 0.75 -6.9 0.7 Q-5.55 0.8 -5.05 0.25 -4.75 -0.25 -4.6 -0.9 L-5.25 -1.45 -6.7 -3.9 -6.85 -4.85 Q-6.8 -5.35 -6.4 -5.65" fill="#511a38" fill-rule="evenodd" stroke="none"/>
  </g>
  <defs>
    <linearGradient gradientTransform="matrix(0.0058, -0.0038, -0.0022, -0.0033, 19.3, -8.0)" gradientUnits="userSpaceOnUse" id="gradient0" spreadMethod="pad" x1="-819.2" x2="819.2">
      <stop offset="0.0" stop-color="#c54150"/>
      <stop offset="0.7333333333333333" stop-color="#ec5044"/>
    </linearGradient>
    <linearGradient gradientTransform="matrix(-0.008, -0.0046, 0.0024, -0.0041, -13.7, -8.05)" gradientUnits="userSpaceOnUse" id="gradient1" spreadMethod="pad" x1="-819.2" x2="819.2">
      <stop offset="0.0" stop-color="#ac3d4f"/>
      <stop offset="0.7372549019607844" stop-color="#76334e"/>
    </linearGradient>
    <linearGradient gradientTransform="matrix(-7.0E-4, 0.0077, -0.0071, -7.0E-4, -7.6, 12.9)" gradientUnits="userSpaceOnUse" id="gradient2" spreadMethod="pad" x1="-819.2" x2="819.2">
      <stop offset="0.0" stop-color="#9c414e"/>
      <stop offset="0.5215686274509804" stop-color="#79374b"/>
    </linearGradient>
    <linearGradient gradientTransform="matrix(0.0, 0.0187, -0.0179, 0.0, 2.15, -2.45)" gradientUnits="userSpaceOnUse" id="gradient3" spreadMethod="pad" x1="-819.2" x2="819.2">
      <stop offset="0.0" stop-color="#f15341"/>
      <stop offset="0.2823529411764706" stop-color="#d04050"/>
      <stop offset="0.8666666666666667" stop-color="#92474f"/>
    </linearGradient>
    <linearGradient gradientTransform="matrix(9.0E-4, 0.0049, -0.009, 0.0016, 7.2, 11.75)" gradientUnits="userSpaceOnUse" id="gradient4" spreadMethod="pad" x1="-819.2" x2="819.2">
      <stop offset="0.5254901960784314" stop-color="#a5444f"/>
      <stop offset="1.0" stop-color="#7c384b"/>
    </linearGradient>
    <linearGradient gradientTransform="matrix(0.0, 0.0067, -0.004, 0.0, -10.5, 3.2)" gradientUnits="userSpaceOnUse" id="gradient5" spreadMethod="pad" x1="-819.2" x2="819.2">
      <stop offset="0.0" stop-color="#ac3d4f"/>
      <stop offset="0.7372549019607844" stop-color="#76334e"/>
    </linearGradient>
    <linearGradient gradientTransform="matrix(0.0, 0.0067, -0.004, 0.0, -10.5, 3.2)" gradientUnits="userSpaceOnUse" id="gradient6" spreadMethod="pad" x1="-819.2" x2="819.2">
      <stop offset="0.0" stop-color="#ac3d4f"/>
      <stop offset="0.7372549019607844" stop-color="#76334e"/>
    </linearGradient>
  </defs>
</svg>
